<?xml version="1.0" encoding="utf-8" standalone="no"?>
<!DOCTYPE svg PUBLIC "-//W3C//DTD SVG 1.1//EN"
  "http://www.w3.org/Graphics/SVG/1.1/DTD/svg11.dtd">
<!-- Created with matplotlib (https://matplotlib.org/) -->
<svg height="345.6pt" version="1.1" viewBox="0 0 460.8 345.6" width="460.8pt" xmlns="http://www.w3.org/2000/svg" xmlns:xlink="http://www.w3.org/1999/xlink">
 <metadata>
  <rdf:RDF xmlns:cc="http://creativecommons.org/ns#" xmlns:dc="http://purl.org/dc/elements/1.1/" xmlns:rdf="http://www.w3.org/1999/02/22-rdf-syntax-ns#">
   <cc:Work>
    <dc:type rdf:resource="http://purl.org/dc/dcmitype/StillImage"/>
    <dc:date>2022-10-18T22:08:23.733646</dc:date>
    <dc:format>image/svg+xml</dc:format>
    <dc:creator>
     <cc:Agent>
      <dc:title>Matplotlib v3.3.4, https://matplotlib.org/</dc:title>
     </cc:Agent>
    </dc:creator>
   </cc:Work>
  </rdf:RDF>
 </metadata>
 <defs>
  <style type="text/css">*{stroke-linecap:butt;stroke-linejoin:round;}</style>
 </defs>
 <g id="figure_1">
  <g id="patch_1">
   <path d="M 0 345.6 
L 460.8 345.6 
L 460.8 0 
L 0 0 
z
" style="fill:#ffffff;"/>
  </g>
  <g id="axes_1">
   <g id="patch_2">
    <path d="M 57.6 307.584 
L 414.72 307.584 
L 414.72 41.472 
L 57.6 41.472 
z
" style="fill:#ffffff;"/>
   </g>
   <g id="matplotlib.axis_1">
    <g id="xtick_1">
     <g id="line2d_1">
      <defs>
       <path d="M 0 0 
L 0 3.5 
" id="mc640f4d937" style="stroke:#000000;stroke-width:0.8;"/>
      </defs>
      <g>
       <use style="stroke:#000000;stroke-width:0.8;" x="73.561889" xlink:href="#mc640f4d937" y="307.584"/>
      </g>
     </g>
     <g id="text_1">
      <!-- 0.0 -->
      <g transform="translate(65.610326 322.182437)scale(0.1 -0.1)">
       <defs>
        <path d="M 31.78125 66.40625 
Q 24.171875 66.40625 20.328125 58.90625 
Q 16.5 51.421875 16.5 36.375 
Q 16.5 21.390625 20.328125 13.890625 
Q 24.171875 6.390625 31.78125 6.390625 
Q 39.453125 6.390625 43.28125 13.890625 
Q 47.125 21.390625 47.125 36.375 
Q 47.125 51.421875 43.28125 58.90625 
Q 39.453125 66.40625 31.78125 66.40625 
z
M 31.78125 74.21875 
Q 44.046875 74.21875 50.515625 64.515625 
Q 56.984375 54.828125 56.984375 36.375 
Q 56.984375 17.96875 50.515625 8.265625 
Q 44.046875 -1.421875 31.78125 -1.421875 
Q 19.53125 -1.421875 13.0625 8.265625 
Q 6.59375 17.96875 6.59375 36.375 
Q 6.59375 54.828125 13.0625 64.515625 
Q 19.53125 74.21875 31.78125 74.21875 
z
" id="DejaVuSans-48"/>
        <path d="M 10.6875 12.40625 
L 21 12.40625 
L 21 0 
L 10.6875 0 
z
" id="DejaVuSans-46"/>
       </defs>
       <use xlink:href="#DejaVuSans-48"/>
       <use x="63.623047" xlink:href="#DejaVuSans-46"/>
       <use x="95.410156" xlink:href="#DejaVuSans-48"/>
      </g>
     </g>
    </g>
    <g id="xtick_2">
     <g id="line2d_2">
      <g>
       <use style="stroke:#000000;stroke-width:0.8;" x="127.729571" xlink:href="#mc640f4d937" y="307.584"/>
      </g>
     </g>
     <g id="text_2">
      <!-- 0.2 -->
      <g transform="translate(119.778008 322.182437)scale(0.1 -0.1)">
       <defs>
        <path d="M 19.1875 8.296875 
L 53.609375 8.296875 
L 53.609375 0 
L 7.328125 0 
L 7.328125 8.296875 
Q 12.9375 14.109375 22.625 23.890625 
Q 32.328125 33.6875 34.8125 36.53125 
Q 39.546875 41.84375 41.421875 45.53125 
Q 43.3125 49.21875 43.3125 52.78125 
Q 43.3125 58.59375 39.234375 62.25 
Q 35.15625 65.921875 28.609375 65.921875 
Q 23.96875 65.921875 18.8125 64.3125 
Q 13.671875 62.703125 7.8125 59.421875 
L 7.8125 69.390625 
Q 13.765625 71.78125 18.9375 73 
Q 24.125 74.21875 28.421875 74.21875 
Q 39.75 74.21875 46.484375 68.546875 
Q 53.21875 62.890625 53.21875 53.421875 
Q 53.21875 48.921875 51.53125 44.890625 
Q 49.859375 40.875 45.40625 35.40625 
Q 44.1875 33.984375 37.640625 27.21875 
Q 31.109375 20.453125 19.1875 8.296875 
z
" id="DejaVuSans-50"/>
       </defs>
       <use xlink:href="#DejaVuSans-48"/>
       <use x="63.623047" xlink:href="#DejaVuSans-46"/>
       <use x="95.410156" xlink:href="#DejaVuSans-50"/>
      </g>
     </g>
    </g>
    <g id="xtick_3">
     <g id="line2d_3">
      <g>
       <use style="stroke:#000000;stroke-width:0.8;" x="181.897253" xlink:href="#mc640f4d937" y="307.584"/>
      </g>
     </g>
     <g id="text_3">
      <!-- 0.4 -->
      <g transform="translate(173.94569 322.182437)scale(0.1 -0.1)">
       <defs>
        <path d="M 37.796875 64.3125 
L 12.890625 25.390625 
L 37.796875 25.390625 
z
M 35.203125 72.90625 
L 47.609375 72.90625 
L 47.609375 25.390625 
L 58.015625 25.390625 
L 58.015625 17.1875 
L 47.609375 17.1875 
L 47.609375 0 
L 37.796875 0 
L 37.796875 17.1875 
L 4.890625 17.1875 
L 4.890625 26.703125 
z
" id="DejaVuSans-52"/>
       </defs>
       <use xlink:href="#DejaVuSans-48"/>
       <use x="63.623047" xlink:href="#DejaVuSans-46"/>
       <use x="95.410156" xlink:href="#DejaVuSans-52"/>
      </g>
     </g>
    </g>
    <g id="xtick_4">
     <g id="line2d_4">
      <g>
       <use style="stroke:#000000;stroke-width:0.8;" x="236.064935" xlink:href="#mc640f4d937" y="307.584"/>
      </g>
     </g>
     <g id="text_4">
      <!-- 0.6 -->
      <g transform="translate(228.113372 322.182437)scale(0.1 -0.1)">
       <defs>
        <path d="M 33.015625 40.375 
Q 26.375 40.375 22.484375 35.828125 
Q 18.609375 31.296875 18.609375 23.390625 
Q 18.609375 15.53125 22.484375 10.953125 
Q 26.375 6.390625 33.015625 6.390625 
Q 39.65625 6.390625 43.53125 10.953125 
Q 47.40625 15.53125 47.40625 23.390625 
Q 47.40625 31.296875 43.53125 35.828125 
Q 39.65625 40.375 33.015625 40.375 
z
M 52.59375 71.296875 
L 52.59375 62.3125 
Q 48.875 64.0625 45.09375 64.984375 
Q 41.3125 65.921875 37.59375 65.921875 
Q 27.828125 65.921875 22.671875 59.328125 
Q 17.53125 52.734375 16.796875 39.40625 
Q 19.671875 43.65625 24.015625 45.921875 
Q 28.375 48.1875 33.59375 48.1875 
Q 44.578125 48.1875 50.953125 41.515625 
Q 57.328125 34.859375 57.328125 23.390625 
Q 57.328125 12.15625 50.6875 5.359375 
Q 44.046875 -1.421875 33.015625 -1.421875 
Q 20.359375 -1.421875 13.671875 8.265625 
Q 6.984375 17.96875 6.984375 36.375 
Q 6.984375 53.65625 15.1875 63.9375 
Q 23.390625 74.21875 37.203125 74.21875 
Q 40.921875 74.21875 44.703125 73.484375 
Q 48.484375 72.75 52.59375 71.296875 
z
" id="DejaVuSans-54"/>
       </defs>
       <use xlink:href="#DejaVuSans-48"/>
       <use x="63.623047" xlink:href="#DejaVuSans-46"/>
       <use x="95.410156" xlink:href="#DejaVuSans-54"/>
      </g>
     </g>
    </g>
    <g id="xtick_5">
     <g id="line2d_5">
      <g>
       <use style="stroke:#000000;stroke-width:0.8;" x="290.232617" xlink:href="#mc640f4d937" y="307.584"/>
      </g>
     </g>
     <g id="text_5">
      <!-- 0.8 -->
      <g transform="translate(282.281054 322.182437)scale(0.1 -0.1)">
       <defs>
        <path d="M 31.78125 34.625 
Q 24.75 34.625 20.71875 30.859375 
Q 16.703125 27.09375 16.703125 20.515625 
Q 16.703125 13.921875 20.71875 10.15625 
Q 24.75 6.390625 31.78125 6.390625 
Q 38.8125 6.390625 42.859375 10.171875 
Q 46.921875 13.96875 46.921875 20.515625 
Q 46.921875 27.09375 42.890625 30.859375 
Q 38.875 34.625 31.78125 34.625 
z
M 21.921875 38.8125 
Q 15.578125 40.375 12.03125 44.71875 
Q 8.5 49.078125 8.5 55.328125 
Q 8.5 64.0625 14.71875 69.140625 
Q 20.953125 74.21875 31.78125 74.21875 
Q 42.671875 74.21875 48.875 69.140625 
Q 55.078125 64.0625 55.078125 55.328125 
Q 55.078125 49.078125 51.53125 44.71875 
Q 48 40.375 41.703125 38.8125 
Q 48.828125 37.15625 52.796875 32.3125 
Q 56.78125 27.484375 56.78125 20.515625 
Q 56.78125 9.90625 50.3125 4.234375 
Q 43.84375 -1.421875 31.78125 -1.421875 
Q 19.734375 -1.421875 13.25 4.234375 
Q 6.78125 9.90625 6.78125 20.515625 
Q 6.78125 27.484375 10.78125 32.3125 
Q 14.796875 37.15625 21.921875 38.8125 
z
M 18.3125 54.390625 
Q 18.3125 48.734375 21.84375 45.5625 
Q 25.390625 42.390625 31.78125 42.390625 
Q 38.140625 42.390625 41.71875 45.5625 
Q 45.3125 48.734375 45.3125 54.390625 
Q 45.3125 60.0625 41.71875 63.234375 
Q 38.140625 66.40625 31.78125 66.40625 
Q 25.390625 66.40625 21.84375 63.234375 
Q 18.3125 60.0625 18.3125 54.390625 
z
" id="DejaVuSans-56"/>
       </defs>
       <use xlink:href="#DejaVuSans-48"/>
       <use x="63.623047" xlink:href="#DejaVuSans-46"/>
       <use x="95.410156" xlink:href="#DejaVuSans-56"/>
      </g>
     </g>
    </g>
    <g id="xtick_6">
     <g id="line2d_6">
      <g>
       <use style="stroke:#000000;stroke-width:0.8;" x="344.400299" xlink:href="#mc640f4d937" y="307.584"/>
      </g>
     </g>
     <g id="text_6">
      <!-- 1.0 -->
      <g transform="translate(336.448736 322.182437)scale(0.1 -0.1)">
       <defs>
        <path d="M 12.40625 8.296875 
L 28.515625 8.296875 
L 28.515625 63.921875 
L 10.984375 60.40625 
L 10.984375 69.390625 
L 28.421875 72.90625 
L 38.28125 72.90625 
L 38.28125 8.296875 
L 54.390625 8.296875 
L 54.390625 0 
L 12.40625 0 
z
" id="DejaVuSans-49"/>
       </defs>
       <use xlink:href="#DejaVuSans-49"/>
       <use x="63.623047" xlink:href="#DejaVuSans-46"/>
       <use x="95.410156" xlink:href="#DejaVuSans-48"/>
      </g>
     </g>
    </g>
    <g id="xtick_7">
     <g id="line2d_7">
      <g>
       <use style="stroke:#000000;stroke-width:0.8;" x="398.567981" xlink:href="#mc640f4d937" y="307.584"/>
      </g>
     </g>
     <g id="text_7">
      <!-- 1.2 -->
      <g transform="translate(390.616418 322.182437)scale(0.1 -0.1)">
       <use xlink:href="#DejaVuSans-49"/>
       <use x="63.623047" xlink:href="#DejaVuSans-46"/>
       <use x="95.410156" xlink:href="#DejaVuSans-50"/>
      </g>
     </g>
    </g>
    <g id="text_8">
     <!-- time [days] -->
     <g transform="translate(207.570937 335.860562)scale(0.1 -0.1)">
      <defs>
       <path d="M 18.3125 70.21875 
L 18.3125 54.6875 
L 36.8125 54.6875 
L 36.8125 47.703125 
L 18.3125 47.703125 
L 18.3125 18.015625 
Q 18.3125 11.328125 20.140625 9.421875 
Q 21.96875 7.515625 27.59375 7.515625 
L 36.8125 7.515625 
L 36.8125 0 
L 27.59375 0 
Q 17.1875 0 13.234375 3.875 
Q 9.28125 7.765625 9.28125 18.015625 
L 9.28125 47.703125 
L 2.6875 47.703125 
L 2.6875 54.6875 
L 9.28125 54.6875 
L 9.28125 70.21875 
z
" id="DejaVuSans-116"/>
       <path d="M 9.421875 54.6875 
L 18.40625 54.6875 
L 18.40625 0 
L 9.421875 0 
z
M 9.421875 75.984375 
L 18.40625 75.984375 
L 18.40625 64.59375 
L 9.421875 64.59375 
z
" id="DejaVuSans-105"/>
       <path d="M 52 44.1875 
Q 55.375 50.25 60.0625 53.125 
Q 64.75 56 71.09375 56 
Q 79.640625 56 84.28125 50.015625 
Q 88.921875 44.046875 88.921875 33.015625 
L 88.921875 0 
L 79.890625 0 
L 79.890625 32.71875 
Q 79.890625 40.578125 77.09375 44.375 
Q 74.3125 48.1875 68.609375 48.1875 
Q 61.625 48.1875 57.5625 43.546875 
Q 53.515625 38.921875 53.515625 30.90625 
L 53.515625 0 
L 44.484375 0 
L 44.484375 32.71875 
Q 44.484375 40.625 41.703125 44.40625 
Q 38.921875 48.1875 33.109375 48.1875 
Q 26.21875 48.1875 22.15625 43.53125 
Q 18.109375 38.875 18.109375 30.90625 
L 18.109375 0 
L 9.078125 0 
L 9.078125 54.6875 
L 18.109375 54.6875 
L 18.109375 46.1875 
Q 21.1875 51.21875 25.484375 53.609375 
Q 29.78125 56 35.6875 56 
Q 41.65625 56 45.828125 52.96875 
Q 50 49.953125 52 44.1875 
z
" id="DejaVuSans-109"/>
       <path d="M 56.203125 29.59375 
L 56.203125 25.203125 
L 14.890625 25.203125 
Q 15.484375 15.921875 20.484375 11.0625 
Q 25.484375 6.203125 34.421875 6.203125 
Q 39.59375 6.203125 44.453125 7.46875 
Q 49.3125 8.734375 54.109375 11.28125 
L 54.109375 2.78125 
Q 49.265625 0.734375 44.1875 -0.34375 
Q 39.109375 -1.421875 33.890625 -1.421875 
Q 20.796875 -1.421875 13.15625 6.1875 
Q 5.515625 13.8125 5.515625 26.8125 
Q 5.515625 40.234375 12.765625 48.109375 
Q 20.015625 56 32.328125 56 
Q 43.359375 56 49.78125 48.890625 
Q 56.203125 41.796875 56.203125 29.59375 
z
M 47.21875 32.234375 
Q 47.125 39.59375 43.09375 43.984375 
Q 39.0625 48.390625 32.421875 48.390625 
Q 24.90625 48.390625 20.390625 44.140625 
Q 15.875 39.890625 15.1875 32.171875 
z
" id="DejaVuSans-101"/>
       <path id="DejaVuSans-32"/>
       <path d="M 8.59375 75.984375 
L 29.296875 75.984375 
L 29.296875 69 
L 17.578125 69 
L 17.578125 -6.203125 
L 29.296875 -6.203125 
L 29.296875 -13.1875 
L 8.59375 -13.1875 
z
" id="DejaVuSans-91"/>
       <path d="M 45.40625 46.390625 
L 45.40625 75.984375 
L 54.390625 75.984375 
L 54.390625 0 
L 45.40625 0 
L 45.40625 8.203125 
Q 42.578125 3.328125 38.25 0.953125 
Q 33.9375 -1.421875 27.875 -1.421875 
Q 17.96875 -1.421875 11.734375 6.484375 
Q 5.515625 14.40625 5.515625 27.296875 
Q 5.515625 40.1875 11.734375 48.09375 
Q 17.96875 56 27.875 56 
Q 33.9375 56 38.25 53.625 
Q 42.578125 51.265625 45.40625 46.390625 
z
M 14.796875 27.296875 
Q 14.796875 17.390625 18.875 11.75 
Q 22.953125 6.109375 30.078125 6.109375 
Q 37.203125 6.109375 41.296875 11.75 
Q 45.40625 17.390625 45.40625 27.296875 
Q 45.40625 37.203125 41.296875 42.84375 
Q 37.203125 48.484375 30.078125 48.484375 
Q 22.953125 48.484375 18.875 42.84375 
Q 14.796875 37.203125 14.796875 27.296875 
z
" id="DejaVuSans-100"/>
       <path d="M 34.28125 27.484375 
Q 23.390625 27.484375 19.1875 25 
Q 14.984375 22.515625 14.984375 16.5 
Q 14.984375 11.71875 18.140625 8.90625 
Q 21.296875 6.109375 26.703125 6.109375 
Q 34.1875 6.109375 38.703125 11.40625 
Q 43.21875 16.703125 43.21875 25.484375 
L 43.21875 27.484375 
z
M 52.203125 31.203125 
L 52.203125 0 
L 43.21875 0 
L 43.21875 8.296875 
Q 40.140625 3.328125 35.546875 0.953125 
Q 30.953125 -1.421875 24.3125 -1.421875 
Q 15.921875 -1.421875 10.953125 3.296875 
Q 6 8.015625 6 15.921875 
Q 6 25.140625 12.171875 29.828125 
Q 18.359375 34.515625 30.609375 34.515625 
L 43.21875 34.515625 
L 43.21875 35.40625 
Q 43.21875 41.609375 39.140625 45 
Q 35.0625 48.390625 27.6875 48.390625 
Q 23 48.390625 18.546875 47.265625 
Q 14.109375 46.140625 10.015625 43.890625 
L 10.015625 52.203125 
Q 14.9375 54.109375 19.578125 55.046875 
Q 24.21875 56 28.609375 56 
Q 40.484375 56 46.34375 49.84375 
Q 52.203125 43.703125 52.203125 31.203125 
z
" id="DejaVuSans-97"/>
       <path d="M 32.171875 -5.078125 
Q 28.375 -14.84375 24.75 -17.8125 
Q 21.140625 -20.796875 15.09375 -20.796875 
L 7.90625 -20.796875 
L 7.90625 -13.28125 
L 13.1875 -13.28125 
Q 16.890625 -13.28125 18.9375 -11.515625 
Q 21 -9.765625 23.484375 -3.21875 
L 25.09375 0.875 
L 2.984375 54.6875 
L 12.5 54.6875 
L 29.59375 11.921875 
L 46.6875 54.6875 
L 56.203125 54.6875 
z
" id="DejaVuSans-121"/>
       <path d="M 44.28125 53.078125 
L 44.28125 44.578125 
Q 40.484375 46.53125 36.375 47.5 
Q 32.28125 48.484375 27.875 48.484375 
Q 21.1875 48.484375 17.84375 46.4375 
Q 14.5 44.390625 14.5 40.28125 
Q 14.5 37.15625 16.890625 35.375 
Q 19.28125 33.59375 26.515625 31.984375 
L 29.59375 31.296875 
Q 39.15625 29.25 43.1875 25.515625 
Q 47.21875 21.78125 47.21875 15.09375 
Q 47.21875 7.46875 41.1875 3.015625 
Q 35.15625 -1.421875 24.609375 -1.421875 
Q 20.21875 -1.421875 15.453125 -0.5625 
Q 10.6875 0.296875 5.421875 2 
L 5.421875 11.28125 
Q 10.40625 8.6875 15.234375 7.390625 
Q 20.0625 6.109375 24.8125 6.109375 
Q 31.15625 6.109375 34.5625 8.28125 
Q 37.984375 10.453125 37.984375 14.40625 
Q 37.984375 18.0625 35.515625 20.015625 
Q 33.0625 21.96875 24.703125 23.78125 
L 21.578125 24.515625 
Q 13.234375 26.265625 9.515625 29.90625 
Q 5.8125 33.546875 5.8125 39.890625 
Q 5.8125 47.609375 11.28125 51.796875 
Q 16.75 56 26.8125 56 
Q 31.78125 56 36.171875 55.265625 
Q 40.578125 54.546875 44.28125 53.078125 
z
" id="DejaVuSans-115"/>
       <path d="M 30.421875 75.984375 
L 30.421875 -13.1875 
L 9.71875 -13.1875 
L 9.71875 -6.203125 
L 21.390625 -6.203125 
L 21.390625 69 
L 9.71875 69 
L 9.71875 75.984375 
z
" id="DejaVuSans-93"/>
      </defs>
      <use xlink:href="#DejaVuSans-116"/>
      <use x="39.208984" xlink:href="#DejaVuSans-105"/>
      <use x="66.992188" xlink:href="#DejaVuSans-109"/>
      <use x="164.404297" xlink:href="#DejaVuSans-101"/>
      <use x="225.927734" xlink:href="#DejaVuSans-32"/>
      <use x="257.714844" xlink:href="#DejaVuSans-91"/>
      <use x="296.728516" xlink:href="#DejaVuSans-100"/>
      <use x="360.205078" xlink:href="#DejaVuSans-97"/>
      <use x="421.484375" xlink:href="#DejaVuSans-121"/>
      <use x="480.664062" xlink:href="#DejaVuSans-115"/>
      <use x="532.763672" xlink:href="#DejaVuSans-93"/>
     </g>
    </g>
   </g>
   <g id="matplotlib.axis_2">
    <g id="ytick_1">
     <g id="line2d_8">
      <defs>
       <path d="M 0 0 
L -3.5 0 
" id="m4919bd19ef" style="stroke:#000000;stroke-width:0.8;"/>
      </defs>
      <g>
       <use style="stroke:#000000;stroke-width:0.8;" x="57.6" xlink:href="#m4919bd19ef" y="298.550278"/>
      </g>
     </g>
     <g id="text_9">
      <!-- 0 -->
      <g transform="translate(44.2375 302.349497)scale(0.1 -0.1)">
       <use xlink:href="#DejaVuSans-48"/>
      </g>
     </g>
    </g>
    <g id="ytick_2">
     <g id="line2d_9">
      <g>
       <use style="stroke:#000000;stroke-width:0.8;" x="57.6" xlink:href="#m4919bd19ef" y="267.927494"/>
      </g>
     </g>
     <g id="text_10">
      <!-- 10 -->
      <g transform="translate(37.875 271.726712)scale(0.1 -0.1)">
       <use xlink:href="#DejaVuSans-49"/>
       <use x="63.623047" xlink:href="#DejaVuSans-48"/>
      </g>
     </g>
    </g>
    <g id="ytick_3">
     <g id="line2d_10">
      <g>
       <use style="stroke:#000000;stroke-width:0.8;" x="57.6" xlink:href="#m4919bd19ef" y="237.304709"/>
      </g>
     </g>
     <g id="text_11">
      <!-- 20 -->
      <g transform="translate(37.875 241.103928)scale(0.1 -0.1)">
       <use xlink:href="#DejaVuSans-50"/>
       <use x="63.623047" xlink:href="#DejaVuSans-48"/>
      </g>
     </g>
    </g>
    <g id="ytick_4">
     <g id="line2d_11">
      <g>
       <use style="stroke:#000000;stroke-width:0.8;" x="57.6" xlink:href="#m4919bd19ef" y="206.681924"/>
      </g>
     </g>
     <g id="text_12">
      <!-- 30 -->
      <g transform="translate(37.875 210.481143)scale(0.1 -0.1)">
       <defs>
        <path d="M 40.578125 39.3125 
Q 47.65625 37.796875 51.625 33 
Q 55.609375 28.21875 55.609375 21.1875 
Q 55.609375 10.40625 48.1875 4.484375 
Q 40.765625 -1.421875 27.09375 -1.421875 
Q 22.515625 -1.421875 17.65625 -0.515625 
Q 12.796875 0.390625 7.625 2.203125 
L 7.625 11.71875 
Q 11.71875 9.328125 16.59375 8.109375 
Q 21.484375 6.890625 26.8125 6.890625 
Q 36.078125 6.890625 40.9375 10.546875 
Q 45.796875 14.203125 45.796875 21.1875 
Q 45.796875 27.640625 41.28125 31.265625 
Q 36.765625 34.90625 28.71875 34.90625 
L 20.21875 34.90625 
L 20.21875 43.015625 
L 29.109375 43.015625 
Q 36.375 43.015625 40.234375 45.921875 
Q 44.09375 48.828125 44.09375 54.296875 
Q 44.09375 59.90625 40.109375 62.90625 
Q 36.140625 65.921875 28.71875 65.921875 
Q 24.65625 65.921875 20.015625 65.03125 
Q 15.375 64.15625 9.8125 62.3125 
L 9.8125 71.09375 
Q 15.4375 72.65625 20.34375 73.4375 
Q 25.25 74.21875 29.59375 74.21875 
Q 40.828125 74.21875 47.359375 69.109375 
Q 53.90625 64.015625 53.90625 55.328125 
Q 53.90625 49.265625 50.4375 45.09375 
Q 46.96875 40.921875 40.578125 39.3125 
z
" id="DejaVuSans-51"/>
       </defs>
       <use xlink:href="#DejaVuSans-51"/>
       <use x="63.623047" xlink:href="#DejaVuSans-48"/>
      </g>
     </g>
    </g>
    <g id="ytick_5">
     <g id="line2d_12">
      <g>
       <use style="stroke:#000000;stroke-width:0.8;" x="57.6" xlink:href="#m4919bd19ef" y="176.059139"/>
      </g>
     </g>
     <g id="text_13">
      <!-- 40 -->
      <g transform="translate(37.875 179.858358)scale(0.1 -0.1)">
       <use xlink:href="#DejaVuSans-52"/>
       <use x="63.623047" xlink:href="#DejaVuSans-48"/>
      </g>
     </g>
    </g>
    <g id="ytick_6">
     <g id="line2d_13">
      <g>
       <use style="stroke:#000000;stroke-width:0.8;" x="57.6" xlink:href="#m4919bd19ef" y="145.436354"/>
      </g>
     </g>
     <g id="text_14">
      <!-- 50 -->
      <g transform="translate(37.875 149.235573)scale(0.1 -0.1)">
       <defs>
        <path d="M 10.796875 72.90625 
L 49.515625 72.90625 
L 49.515625 64.59375 
L 19.828125 64.59375 
L 19.828125 46.734375 
Q 21.96875 47.46875 24.109375 47.828125 
Q 26.265625 48.1875 28.421875 48.1875 
Q 40.625 48.1875 47.75 41.5 
Q 54.890625 34.8125 54.890625 23.390625 
Q 54.890625 11.625 47.5625 5.09375 
Q 40.234375 -1.421875 26.90625 -1.421875 
Q 22.3125 -1.421875 17.546875 -0.640625 
Q 12.796875 0.140625 7.71875 1.703125 
L 7.71875 11.625 
Q 12.109375 9.234375 16.796875 8.0625 
Q 21.484375 6.890625 26.703125 6.890625 
Q 35.15625 6.890625 40.078125 11.328125 
Q 45.015625 15.765625 45.015625 23.390625 
Q 45.015625 31 40.078125 35.4375 
Q 35.15625 39.890625 26.703125 39.890625 
Q 22.75 39.890625 18.8125 39.015625 
Q 14.890625 38.140625 10.796875 36.28125 
z
" id="DejaVuSans-53"/>
       </defs>
       <use xlink:href="#DejaVuSans-53"/>
       <use x="63.623047" xlink:href="#DejaVuSans-48"/>
      </g>
     </g>
    </g>
    <g id="ytick_7">
     <g id="line2d_14">
      <g>
       <use style="stroke:#000000;stroke-width:0.8;" x="57.6" xlink:href="#m4919bd19ef" y="114.81357"/>
      </g>
     </g>
     <g id="text_15">
      <!-- 60 -->
      <g transform="translate(37.875 118.612788)scale(0.1 -0.1)">
       <use xlink:href="#DejaVuSans-54"/>
       <use x="63.623047" xlink:href="#DejaVuSans-48"/>
      </g>
     </g>
    </g>
    <g id="ytick_8">
     <g id="line2d_15">
      <g>
       <use style="stroke:#000000;stroke-width:0.8;" x="57.6" xlink:href="#m4919bd19ef" y="84.190785"/>
      </g>
     </g>
     <g id="text_16">
      <!-- 70 -->
      <g transform="translate(37.875 87.990004)scale(0.1 -0.1)">
       <defs>
        <path d="M 8.203125 72.90625 
L 55.078125 72.90625 
L 55.078125 68.703125 
L 28.609375 0 
L 18.3125 0 
L 43.21875 64.59375 
L 8.203125 64.59375 
z
" id="DejaVuSans-55"/>
       </defs>
       <use xlink:href="#DejaVuSans-55"/>
       <use x="63.623047" xlink:href="#DejaVuSans-48"/>
      </g>
     </g>
    </g>
    <g id="ytick_9">
     <g id="line2d_16">
      <g>
       <use style="stroke:#000000;stroke-width:0.8;" x="57.6" xlink:href="#m4919bd19ef" y="53.568"/>
      </g>
     </g>
     <g id="text_17">
      <!-- 80 -->
      <g transform="translate(37.875 57.367219)scale(0.1 -0.1)">
       <use xlink:href="#DejaVuSans-56"/>
       <use x="63.623047" xlink:href="#DejaVuSans-48"/>
      </g>
     </g>
    </g>
    <g id="text_18">
     <!-- Iterations -->
     <g transform="translate(31.795312 198.341281)rotate(-90)scale(0.1 -0.1)">
      <defs>
       <path d="M 9.8125 72.90625 
L 19.671875 72.90625 
L 19.671875 0 
L 9.8125 0 
z
" id="DejaVuSans-73"/>
       <path d="M 41.109375 46.296875 
Q 39.59375 47.171875 37.8125 47.578125 
Q 36.03125 48 33.890625 48 
Q 26.265625 48 22.1875 43.046875 
Q 18.109375 38.09375 18.109375 28.8125 
L 18.109375 0 
L 9.078125 0 
L 9.078125 54.6875 
L 18.109375 54.6875 
L 18.109375 46.1875 
Q 20.953125 51.171875 25.484375 53.578125 
Q 30.03125 56 36.53125 56 
Q 37.453125 56 38.578125 55.875 
Q 39.703125 55.765625 41.0625 55.515625 
z
" id="DejaVuSans-114"/>
       <path d="M 30.609375 48.390625 
Q 23.390625 48.390625 19.1875 42.75 
Q 14.984375 37.109375 14.984375 27.296875 
Q 14.984375 17.484375 19.15625 11.84375 
Q 23.34375 6.203125 30.609375 6.203125 
Q 37.796875 6.203125 41.984375 11.859375 
Q 46.1875 17.53125 46.1875 27.296875 
Q 46.1875 37.015625 41.984375 42.703125 
Q 37.796875 48.390625 30.609375 48.390625 
z
M 30.609375 56 
Q 42.328125 56 49.015625 48.375 
Q 55.71875 40.765625 55.71875 27.296875 
Q 55.71875 13.875 49.015625 6.21875 
Q 42.328125 -1.421875 30.609375 -1.421875 
Q 18.84375 -1.421875 12.171875 6.21875 
Q 5.515625 13.875 5.515625 27.296875 
Q 5.515625 40.765625 12.171875 48.375 
Q 18.84375 56 30.609375 56 
z
" id="DejaVuSans-111"/>
       <path d="M 54.890625 33.015625 
L 54.890625 0 
L 45.90625 0 
L 45.90625 32.71875 
Q 45.90625 40.484375 42.875 44.328125 
Q 39.84375 48.1875 33.796875 48.1875 
Q 26.515625 48.1875 22.3125 43.546875 
Q 18.109375 38.921875 18.109375 30.90625 
L 18.109375 0 
L 9.078125 0 
L 9.078125 54.6875 
L 18.109375 54.6875 
L 18.109375 46.1875 
Q 21.34375 51.125 25.703125 53.5625 
Q 30.078125 56 35.796875 56 
Q 45.21875 56 50.046875 50.171875 
Q 54.890625 44.34375 54.890625 33.015625 
z
" id="DejaVuSans-110"/>
      </defs>
      <use xlink:href="#DejaVuSans-73"/>
      <use x="29.492188" xlink:href="#DejaVuSans-116"/>
      <use x="68.701172" xlink:href="#DejaVuSans-101"/>
      <use x="130.224609" xlink:href="#DejaVuSans-114"/>
      <use x="171.337891" xlink:href="#DejaVuSans-97"/>
      <use x="232.617188" xlink:href="#DejaVuSans-116"/>
      <use x="271.826172" xlink:href="#DejaVuSans-105"/>
      <use x="299.609375" xlink:href="#DejaVuSans-111"/>
      <use x="360.791016" xlink:href="#DejaVuSans-110"/>
      <use x="424.169922" xlink:href="#DejaVuSans-115"/>
     </g>
    </g>
   </g>
   <g id="line2d_17">
    <path clip-path="url(#pcc41caebeb)" d="M 73.832727 264.865215 
L 73.83322 295.488 
L 73.943391 292.425722 
L 75.075257 292.425722 
L 75.189169 289.363443 
L 75.1957 289.363443 
L 75.306658 292.425722 
L 75.376925 292.425722 
L 75.4793 283.238886 
L 75.490553 286.301165 
L 75.509434 280.176608 
L 75.598333 289.363443 
L 75.698893 277.114329 
L 75.715374 280.176608 
L 75.8123 289.363443 
L 75.765481 274.052051 
L 75.825219 280.176608 
L 75.82954 280.176608 
L 75.921962 274.052051 
L 75.855616 289.363443 
L 75.939937 277.114329 
L 75.958033 289.363443 
L 76.008428 270.989772 
L 76.050358 286.301165 
L 76.155569 270.989772 
L 76.097698 289.363443 
L 76.160445 280.176608 
L 76.229579 289.363443 
L 76.2047 267.927494 
L 76.269827 280.176608 
L 76.336409 264.865215 
L 76.320913 286.301165 
L 76.378121 267.927494 
L 76.463279 289.363443 
L 76.393911 264.865215 
L 76.490373 283.238886 
L 76.506742 258.740658 
L 76.523195 289.363443 
L 76.612401 261.802937 
L 76.704114 289.363443 
L 76.727444 283.238886 
L 76.733302 283.238886 
L 76.73917 258.740658 
L 76.840517 261.802937 
L 76.846573 286.301165 
L 76.907726 252.616101 
L 76.951179 280.176608 
L 76.988857 283.238886 
L 76.969968 255.67838 
L 77.014199 267.927494 
L 77.033325 249.553823 
L 77.104335 286.301165 
L 77.123946 267.927494 
L 77.183414 286.301165 
L 77.163484 252.616101 
L 77.230338 261.802937 
L 77.277861 249.553823 
L 77.319077 289.363443 
L 77.417022 234.24243 
L 77.43122 277.114329 
L 77.438339 289.363443 
L 77.517516 249.553823 
L 77.532086 277.114329 
L 77.590907 234.24243 
L 77.583507 286.301165 
L 77.650611 240.366987 
L 77.711215 283.238886 
L 77.680799 228.117873 
L 77.75727 280.176608 
L 77.803849 209.744203 
L 77.835197 283.238886 
L 77.866785 264.865215 
L 77.874719 283.238886 
L 77.922646 234.24243 
L 77.971126 277.114329 
L 78.020168 234.24243 
L 78.094807 246.491544 
L 78.145295 277.114329 
L 78.162256 215.868759 
L 78.204951 270.989772 
L 78.256741 221.993316 
L 78.230769 277.114329 
L 78.326754 243.429266 
L 78.37108 221.993316 
L 78.353297 283.238886 
L 78.424857 225.055595 
L 78.442927 270.989772 
L 78.543619 255.67838 
L 78.552885 277.114329 
L 78.61827 237.304709 
L 78.646579 246.491544 
L 78.656054 246.491544 
L 78.694148 231.180152 
L 78.703721 261.802937 
L 78.742208 243.429266 
L 78.781014 277.114329 
L 78.829976 218.931038 
L 78.849704 243.429266 
L 78.869514 231.180152 
L 78.889407 261.802937 
L 78.919402 197.495089 
L 78.949587 270.989772 
L 79.000321 234.24243 
L 79.061913 277.114329 
L 79.093005 212.806481 
L 79.113844 261.802937 
L 79.176897 240.366987 
L 79.198096 280.176608 
L 79.219386 258.740658 
L 79.230066 258.740658 
L 79.349083 206.681924 
L 79.415215 264.865215 
L 79.459791 225.055595 
L 79.516067 200.557367 
L 79.493481 277.114329 
L 79.538753 249.553823 
L 79.550133 264.865215 
L 79.56154 194.43281 
L 79.630515 234.24243 
L 79.677017 225.055595 
L 79.653714 258.740658 
L 79.688709 240.366987 
L 79.712171 267.927494 
L 79.723942 200.557367 
L 79.795131 237.304709 
L 79.867303 185.245975 
L 79.855205 255.67838 
L 79.903763 225.055595 
L 79.92821 267.927494 
L 80.02214 246.491544 
L 80.102765 120.938127 
L 80.229201 172.996861 
L 80.271944 215.868759 
L 80.314987 139.311797 
L 80.356952 188.308253 
L 80.399068 221.993316 
L 80.441457 120.938127 
L 80.484132 231.180152 
L 80.527095 145.436354 
L 80.57035 191.370532 
L 80.613899 139.311797 
L 80.657743 111.751291 
L 80.791069 231.180152 
L 80.973107 53.568 
L 81.160156 215.868759 
L 81.255606 90.315342 
L 81.30382 209.744203 
L 81.352365 157.685468 
L 81.401241 160.747747 
L 81.450451 151.560911 
L 81.549886 206.681924 
L 81.600114 108.689013 
L 81.701607 114.81357 
L 81.801136 194.43281 
L 81.851305 114.81357 
L 81.901806 179.121418 
L 82.003815 166.872304 
L 82.055329 185.245975 
L 82.159388 117.875848 
L 82.211937 124.000405 
L 82.450863 292.425722 
L 82.699029 292.425722 
L 82.749716 289.363443 
L 82.809302 292.425722 
L 82.886629 292.425722 
L 82.999763 289.363443 
L 83.034919 289.363443 
L 83.150307 292.425722 
L 83.258372 289.363443 
L 83.367949 292.425722 
L 83.479055 289.363443 
L 83.516433 289.363443 
L 83.525805 292.425722 
L 83.620118 289.363443 
L 83.715524 289.363443 
L 83.821748 292.425722 
L 83.939171 289.363443 
L 83.9589 289.363443 
L 84.028308 292.425722 
L 84.068222 289.363443 
L 85.657975 289.363443 
L 85.776953 286.301165 
L 85.885217 289.363443 
L 85.994617 286.301165 
L 86.117522 289.363443 
L 86.229366 286.301165 
L 86.241866 286.301165 
L 86.329774 289.363443 
L 86.342391 283.238886 
L 86.431124 289.363443 
L 86.469376 289.363443 
L 86.584943 286.301165 
L 86.59786 286.301165 
L 86.714793 289.363443 
L 86.832974 286.301165 
L 86.925765 286.301165 
L 87.005915 289.363443 
L 87.032759 286.301165 
L 87.046205 286.301165 
L 87.167941 289.363443 
L 87.304745 283.238886 
L 87.332303 289.363443 
L 87.429278 286.301165 
L 87.86872 286.301165 
L 87.912132 283.238886 
L 87.984838 289.363443 
L 88.072676 283.238886 
L 88.102099 286.301165 
L 88.116838 289.363443 
L 88.131595 280.176608 
L 88.190805 286.301165 
L 88.325101 280.176608 
L 88.40036 286.301165 
L 88.430595 283.238886 
L 88.476089 283.238886 
L 88.521753 289.363443 
L 88.537012 280.176608 
L 88.567589 286.301165 
L 88.582906 280.176608 
L 88.613597 289.363443 
L 88.675211 286.301165 
L 88.690663 286.301165 
L 88.830611 280.176608 
L 88.846259 280.176608 
L 88.909051 286.301165 
L 88.972162 283.238886 
L 89.003838 286.301165 
L 89.083383 274.052051 
L 89.211718 283.238886 
L 89.30884 277.114329 
L 89.406717 286.301165 
L 89.423104 280.176608 
L 89.505359 274.052051 
L 89.455942 283.238886 
L 89.521875 277.114329 
L 89.55497 274.052051 
L 89.654777 283.238886 
L 89.772217 274.052051 
L 89.822881 286.301165 
L 89.873746 283.238886 
L 89.890746 277.114329 
L 89.924814 286.301165 
L 89.976086 283.238886 
L 89.993222 283.238886 
L 90.044769 286.301165 
L 90.079248 283.238886 
L 90.11382 270.989772 
L 90.183242 283.238886 
L 90.200656 286.301165 
L 90.218093 280.176608 
L 90.270547 280.176608 
L 90.305635 283.238886 
L 90.41147 264.865215 
L 90.500328 286.301165 
L 90.536041 280.176608 
L 90.553935 280.176608 
L 90.589795 286.301165 
L 90.679879 283.238886 
L 90.716087 283.238886 
L 90.752395 286.301165 
L 90.807046 280.176608 
L 90.898639 277.114329 
L 90.935455 286.301165 
L 90.972374 286.301165 
L 90.990873 280.176608 
L 91.083755 283.238886 
L 91.121092 280.176608 
L 91.196082 286.301165 
L 91.347345 277.114329 
L 91.366374 277.114329 
L 91.442765 289.363443 
L 91.481125 286.301165 
L 91.558177 270.989772 
L 91.57751 277.114329 
L 91.674594 286.301165 
L 91.635676 274.052051 
L 91.694096 283.238886 
L 91.733184 283.238886 
L 91.772387 270.989772 
L 91.831406 274.052051 
L 91.890686 286.301165 
L 91.930351 274.052051 
L 91.970133 264.865215 
L 91.990069 277.114329 
L 92.090189 286.301165 
L 92.110303 283.238886 
L 92.130446 280.176608 
L 92.191057 283.238886 
L 92.272296 286.301165 
L 92.395075 280.176608 
L 92.518973 283.238886 
L 92.581348 286.301165 
L 92.644009 280.176608 
L 92.66496 280.176608 
L 92.749088 286.301165 
L 92.770201 280.176608 
L 92.791347 280.176608 
L 92.918912 286.301165 
L 93.026131 280.176608 
L 93.090867 277.114329 
L 93.177658 286.301165 
L 93.30888 277.114329 
L 93.3529 286.301165 
L 93.374962 274.052051 
L 93.441362 283.238886 
L 93.552743 280.176608 
L 93.597548 277.114329 
L 93.665028 283.238886 
L 93.732838 274.052051 
L 93.77823 277.114329 
L 93.82377 286.301165 
L 93.869461 280.176608 
L 93.892362 277.114329 
L 93.915302 280.176608 
L 93.961294 286.301165 
L 93.984348 277.114329 
L 94.03057 283.238886 
L 94.076945 277.114329 
L 94.146799 280.176608 
L 94.170162 280.176608 
L 94.264005 286.301165 
L 94.405963 274.052051 
L 94.501408 286.301165 
L 94.57342 277.114329 
L 94.621635 280.176608 
L 94.645805 286.301165 
L 94.670016 277.114329 
L 94.718564 277.114329 
L 94.742901 274.052051 
L 94.76728 283.238886 
L 94.816166 277.114329 
L 94.91445 286.301165 
L 94.939129 270.989772 
L 95.013425 280.176608 
L 95.163202 286.301165 
L 95.18832 286.301165 
L 95.23869 267.927494 
L 95.314584 280.176608 
L 95.365407 286.301165 
L 95.441985 274.052051 
L 95.518978 270.989772 
L 95.544736 280.176608 
L 95.570541 270.989772 
L 95.622291 280.176608 
L 95.674231 283.238886 
L 95.752498 267.927494 
L 95.778684 280.176608 
L 95.831199 283.238886 
L 95.910337 274.052051 
L 95.989917 267.927494 
L 96.016543 283.238886 
L 96.123545 277.114329 
L 96.258436 283.238886 
L 96.405784 261.802937 
L 96.429111 240.366987 
L 96.44447 283.238886 
L 96.490766 283.238886 
L 96.506245 277.114329 
L 96.537273 289.363443 
L 96.583986 289.363443 
L 96.615241 289.363443 
L 96.693776 274.052051 
L 96.662294 292.425722 
L 96.74117 280.176608 
L 96.80468 270.989772 
L 96.868557 292.425722 
L 96.981229 267.927494 
L 97.078711 289.363443 
L 97.09504 283.238886 
L 97.111393 283.238886 
L 97.243065 289.363443 
L 97.326135 280.176608 
L 97.342821 289.363443 
L 97.359531 289.363443 
L 97.393024 270.989772 
L 97.47718 286.301165 
L 97.494085 286.301165 
L 97.544946 270.989772 
L 97.578976 289.363443 
L 97.596028 283.238886 
L 97.613105 289.363443 
L 97.647333 267.927494 
L 97.698861 286.301165 
L 97.802595 267.927494 
L 97.819972 277.114329 
L 97.907238 289.363443 
L 97.942322 286.301165 
L 97.977509 283.238886 
L 98.065927 289.363443 
L 98.083689 289.363443 
L 98.190803 264.865215 
L 98.244714 274.052051 
L 98.353249 289.363443 
L 98.481087 264.865215 
L 98.499457 283.238886 
L 98.536279 277.114329 
L 98.610197 289.363443 
L 98.721701 280.176608 
L 98.759036 286.301165 
L 98.796454 274.052051 
L 98.833956 283.238886 
L 98.871541 267.927494 
L 98.890365 289.363443 
L 98.946963 280.176608 
L 98.96587 280.176608 
L 98.984799 274.052051 
L 99.003748 286.301165 
L 99.041709 280.176608 
L 99.175231 289.363443 
L 99.251989 286.301165 
L 99.27123 289.363443 
L 99.290493 289.363443 
L 99.406506 286.301165 
L 99.425915 286.301165 
L 99.464795 289.363443 
L 99.542806 277.114329 
L 99.621151 283.238886 
L 99.581936 274.052051 
L 99.640789 280.176608 
L 99.680129 277.114329 
L 99.719552 280.176608 
L 99.778843 289.363443 
L 99.798648 283.238886 
L 99.91792 274.052051 
L 100.05802 289.363443 
L 100.138536 280.176608 
L 100.178919 286.301165 
L 100.219386 289.363443 
L 100.239651 283.238886 
L 100.280243 286.301165 
L 100.30057 286.301165 
L 100.320918 283.238886 
L 100.341287 289.363443 
L 100.40252 286.301165 
L 100.443445 286.301165 
L 100.463939 289.363443 
L 100.546125 286.301165 
L 100.628644 286.301165 
L 100.732261 277.114329 
L 100.711496 289.363443 
L 100.753047 280.176608 
L 100.773854 280.176608 
L 100.794682 277.114329 
L 100.85729 280.176608 
L 100.98307 286.301165 
L 101.109599 280.176608 
L 101.151942 286.301165 
L 101.194369 277.114329 
L 101.215614 280.176608 
L 101.236879 277.114329 
L 101.3008 283.238886 
L 101.322149 280.176608 
L 101.343518 286.301165 
L 101.364909 277.114329 
L 101.429205 283.238886 
L 101.450678 277.114329 
L 101.472173 286.301165 
L 101.515225 280.176608 
L 101.536782 286.301165 
L 101.623218 280.176608 
L 101.666562 277.114329 
L 101.688264 283.238886 
L 101.709988 283.238886 
L 101.753498 280.176608 
L 101.840768 286.301165 
L 101.884528 277.114329 
L 101.950325 283.238886 
L 101.972299 286.301165 
L 102.016309 280.176608 
L 102.038346 277.114329 
L 102.082481 283.238886 
L 102.1267 280.176608 
L 102.148841 283.238886 
L 102.171003 277.114329 
L 102.215388 277.114329 
L 102.237613 274.052051 
L 102.259858 280.176608 
L 102.282124 286.301165 
L 102.349047 280.176608 
L 102.371396 274.052051 
L 102.461003 277.114329 
L 102.483457 277.114329 
L 102.61862 283.238886 
L 102.641221 283.238886 
L 102.754536 280.176608 
L 102.800009 283.238886 
L 102.845566 280.176608 
L 102.868376 280.176608 
L 102.982739 283.238886 
L 103.097627 280.176608 
L 103.166812 286.301165 
L 103.189916 283.238886 
L 103.259353 280.176608 
L 103.282541 283.238886 
L 103.328979 283.238886 
L 103.35223 286.301165 
L 103.398796 283.238886 
L 103.42211 280.176608 
L 103.492179 283.238886 
L 103.538998 280.176608 
L 103.562439 286.301165 
L 103.67996 280.176608 
L 103.798011 280.176608 
L 103.821685 286.301165 
L 103.892834 277.114329 
L 104.035705 286.301165 
L 104.131379 277.114329 
L 104.227394 286.301165 
L 104.275529 280.176608 
L 104.347894 283.238886 
L 104.444679 283.238886 
L 104.566145 286.301165 
L 104.663705 280.176608 
L 104.688149 283.238886 
L 104.737101 283.238886 
L 104.76161 280.176608 
L 104.835266 283.238886 
L 104.884479 283.238886 
L 105.007891 274.052051 
L 105.131847 283.238886 
L 105.156704 277.114329 
L 105.231405 283.238886 
L 105.25635 283.238886 
L 105.381401 277.114329 
L 105.507002 283.238886 
L 105.532189 283.238886 
L 105.683774 274.052051 
L 105.836159 286.301165 
L 105.861635 289.363443 
L 105.887133 283.238886 
L 105.912653 286.301165 
L 106.040592 277.114329 
L 106.143348 286.301165 
L 106.169093 280.176608 
L 106.246465 283.238886 
L 106.29816 274.052051 
L 106.401823 286.301165 
L 106.427796 283.238886 
L 106.47981 286.301165 
L 106.531915 283.238886 
L 106.610245 277.114329 
L 106.636402 280.176608 
L 106.662581 283.238886 
L 106.741257 280.176608 
L 106.793823 283.238886 
L 106.846482 277.114329 
L 106.925646 283.238886 
L 106.899235 274.052051 
L 106.95208 280.176608 
L 107.031523 277.114329 
L 107.005019 286.301165 
L 107.058051 280.176608 
L 107.191043 283.238886 
L 107.297862 277.114329 
L 107.378225 286.301165 
L 107.40506 283.238886 
L 107.431919 283.238886 
L 107.458802 280.176608 
L 107.539595 283.238886 
L 107.593576 286.301165 
L 107.620603 280.176608 
L 107.647654 280.176608 
L 107.674729 277.114329 
L 107.728952 283.238886 
L 107.756099 283.238886 
L 107.783271 286.301165 
L 107.810468 277.114329 
L 107.864933 283.238886 
L 107.919496 283.238886 
L 108.056332 286.301165 
L 108.083773 286.301165 
L 108.166244 280.176608 
L 108.221348 283.238886 
L 108.248938 283.238886 
L 108.359545 277.114329 
L 108.414998 286.301165 
L 108.470552 277.114329 
L 108.498367 277.114329 
L 108.581963 286.301165 
L 108.63782 274.052051 
L 108.693778 283.238886 
L 108.749839 274.052051 
L 108.777908 277.114329 
L 108.806002 283.238886 
L 108.890439 280.176608 
L 108.918636 274.052051 
L 108.975108 283.238886 
L 109.06001 274.052051 
L 109.088363 283.238886 
L 109.145147 280.176608 
L 109.173578 274.052051 
L 109.230519 283.238886 
L 109.259029 277.114329 
L 109.287565 277.114329 
L 109.344717 280.176608 
L 109.373332 274.052051 
L 109.430643 280.176608 
L 109.459338 280.176608 
L 109.545584 267.927494 
L 109.574386 274.052051 
L 109.689864 283.238886 
L 109.834819 270.989772 
L 109.863892 274.052051 
L 109.892992 264.865215 
L 109.951275 280.176608 
L 109.980457 270.989772 
L 110.097462 277.114329 
L 110.126783 270.989772 
L 110.156131 280.176608 
L 110.185508 274.052051 
L 110.273804 280.176608 
L 110.391926 267.927494 
L 110.480813 264.865215 
L 110.569957 286.301165 
L 110.7191 274.052051 
L 110.778961 277.114329 
L 110.808934 274.052051 
L 110.868969 274.052051 
L 110.989389 270.989772 
L 111.140576 283.238886 
L 111.262061 267.927494 
L 111.353489 277.114329 
L 111.384025 274.052051 
L 111.414591 274.052051 
L 111.445188 280.176608 
L 111.506473 274.052051 
L 111.537161 274.052051 
L 111.660219 277.114329 
L 111.721932 264.865215 
L 111.752835 283.238886 
L 111.845731 280.176608 
L 111.876759 277.114329 
L 111.907818 280.176608 
L 111.938908 283.238886 
L 111.97003 267.927494 
L 112.032368 274.052051 
L 112.126113 280.176608 
L 112.157425 267.927494 
L 112.251552 274.052051 
L 112.282992 274.052051 
L 112.345969 270.989772 
L 112.377506 280.176608 
L 112.409075 267.927494 
L 112.472311 274.052051 
L 112.630974 280.176608 
L 112.662806 280.176608 
L 112.758499 270.989772 
L 112.790464 274.052051 
L 112.950789 280.176608 
L 113.04739 280.176608 
L 113.079658 267.927494 
L 113.176668 270.989772 
L 113.241514 277.114329 
L 113.273988 274.052051 
L 113.306497 274.052051 
L 113.404234 267.927494 
L 113.436882 280.176608 
L 113.469566 264.865215 
L 113.502285 277.114329 
L 113.535039 274.052051 
L 113.567829 277.114329 
L 113.633515 283.238886 
L 113.666411 277.114329 
L 113.699343 277.114329 
L 113.73231 280.176608 
L 113.798354 277.114329 
L 113.831429 277.114329 
L 113.864541 267.927494 
L 113.930874 270.989772 
L 113.964094 277.114329 
L 113.997352 274.052051 
L 114.030646 264.865215 
L 114.097344 267.927494 
L 114.16419 280.176608 
L 114.231185 274.052051 
L 114.264738 274.052051 
L 114.365622 280.176608 
L 114.433066 267.927494 
L 114.466845 274.052051 
L 114.500662 274.052051 
L 114.534517 264.865215 
L 114.56841 274.052051 
L 114.636311 283.238886 
L 114.704367 280.176608 
L 114.772577 264.865215 
L 114.875184 267.927494 
L 114.978144 280.176608 
L 115.012543 277.114329 
L 115.046982 277.114329 
L 115.08146 280.176608 
L 115.115978 270.989772 
L 115.185135 274.052051 
L 115.323931 280.176608 
L 115.358732 264.865215 
L 115.428455 277.114329 
L 115.498342 277.114329 
L 115.568394 270.989772 
L 115.603482 277.114329 
L 115.744251 283.238886 
L 115.885692 267.927494 
L 116.027813 277.114329 
L 116.099131 283.238886 
L 116.134855 280.176608 
L 116.278185 274.052051 
L 116.314127 274.052051 
L 116.323635 280.176608 
L 116.436292 218.931038 
L 116.52353 286.301165 
L 116.567384 283.238886 
L 116.699686 289.363443 
L 116.721843 289.363443 
L 116.855431 283.238886 
L 116.877804 283.238886 
L 116.990127 286.301165 
L 117.012684 286.301165 
L 117.035272 289.363443 
L 117.057891 283.238886 
L 117.103223 286.301165 
L 117.331754 286.301165 
L 117.35478 289.363443 
L 117.424047 286.301165 
L 117.4472 286.301165 
L 117.470384 289.363443 
L 117.4936 283.238886 
L 117.540127 286.301165 
L 117.610157 286.301165 
L 117.633564 283.238886 
L 117.703979 286.301165 
L 117.751084 286.301165 
L 117.774684 283.238886 
L 117.845681 286.301165 
L 117.869411 286.301165 
L 117.893174 289.363443 
L 117.916969 283.238886 
L 117.964658 286.301165 
L 118.012478 286.301165 
L 118.108511 283.238886 
L 118.229295 289.363443 
L 118.35091 283.238886 
L 118.448804 286.301165 
L 118.547236 283.238886 
L 118.671038 289.363443 
L 118.820725 283.238886 
L 118.921203 283.238886 
L 118.946409 286.301165 
L 119.022234 283.238886 
L 119.047579 283.238886 
L 119.072958 289.363443 
L 119.149305 283.238886 
L 119.251591 289.363443 
L 119.27725 283.238886 
L 119.35444 289.363443 
L 119.483797 286.301165 
L 119.561839 286.301165 
L 119.587924 283.238886 
L 119.666395 286.301165 
L 119.74519 286.301165 
L 119.771528 283.238886 
L 119.850756 286.301165 
L 119.903757 286.301165 
L 120.010196 283.238886 
L 120.144069 286.301165 
L 120.224835 283.238886 
L 120.251831 286.301165 
L 120.278864 289.363443 
L 120.360187 286.301165 
L 120.606173 286.301165 
L 120.71648 283.238886 
L 120.827394 286.301165 
L 120.938918 283.238886 
L 121.022965 286.301165 
L 121.107358 283.238886 
L 121.163814 280.176608 
L 121.220424 286.301165 
L 121.334113 286.301165 
L 121.448428 283.238886 
L 121.505822 283.238886 
L 121.563373 286.301165 
L 121.592207 283.238886 
L 121.621082 283.238886 
L 121.736977 286.301165 
L 121.76605 283.238886 
L 121.824317 286.301165 
L 121.882744 286.301165 
L 122.000079 283.238886 
L 122.029514 286.301165 
L 122.088505 283.238886 
L 122.147658 283.238886 
L 122.236693 286.301165 
L 122.296253 280.176608 
L 122.326095 283.238886 
L 122.445872 286.301165 
L 122.475919 286.301165 
L 122.566308 280.176608 
L 122.65707 286.301165 
L 122.687407 277.114329 
L 122.748207 286.301165 
L 122.900938 286.301165 
L 123.023879 283.238886 
L 123.11653 283.238886 
L 123.240658 286.301165 
L 123.365471 283.238886 
L 123.49097 286.301165 
L 123.585548 283.238886 
L 123.712259 286.301165 
L 123.744046 286.301165 
L 123.87163 280.176608 
L 123.967779 283.238886 
L 124.032098 286.301165 
L 124.064325 280.176608 
L 124.193673 286.301165 
L 124.323733 283.238886 
L 124.35636 283.238886 
L 124.389032 286.301165 
L 124.421748 283.238886 
L 124.45451 277.114329 
L 124.487317 286.301165 
L 124.520168 283.238886 
L 124.586007 286.301165 
L 124.618995 283.238886 
L 124.652028 283.238886 
L 124.685106 277.114329 
L 124.751399 283.238886 
L 124.784613 283.238886 
L 124.951374 274.052051 
L 125.018399 286.301165 
L 125.051981 280.176608 
L 125.085609 274.052051 
L 125.119284 280.176608 
L 125.186772 277.114329 
L 125.220585 283.238886 
L 125.254445 277.114329 
L 125.322305 280.176608 
L 125.356305 280.176608 
L 125.424446 286.301165 
L 125.458586 280.176608 
L 125.56129 286.301165 
L 125.595619 277.114329 
L 125.664419 283.238886 
L 125.767974 277.114329 
L 125.779259 286.301165 
L 125.883151 283.238886 
L 125.917815 286.301165 
L 125.952498 280.176608 
L 125.987199 283.238886 
L 126.091415 280.176608 
L 126.12619 286.301165 
L 126.195796 283.238886 
L 126.300341 277.114329 
L 126.40505 286.301165 
L 126.509921 280.176608 
L 126.544914 286.301165 
L 126.614954 280.176608 
L 126.685064 280.176608 
L 126.720146 286.301165 
L 126.790363 283.238886 
L 126.86065 283.238886 
L 126.895819 286.301165 
L 126.931007 280.176608 
L 126.966211 277.114329 
L 127.001434 286.301165 
L 127.07193 283.238886 
L 127.107204 283.238886 
L 127.142496 280.176608 
L 127.177805 283.238886 
L 127.213131 286.301165 
L 127.283834 283.238886 
L 127.390018 277.114329 
L 127.496356 286.301165 
L 127.531835 283.238886 
L 127.673924 280.176608 
L 127.780667 286.301165 
L 127.958907 280.176608 
L 128.030319 280.176608 
L 128.101798 283.238886 
L 128.137563 280.176608 
L 128.316633 280.176608 
L 128.352497 283.238886 
L 128.424273 280.176608 
L 128.460186 280.176608 
L 128.532061 286.301165 
L 128.568023 283.238886 
L 128.712034 280.176608 
L 128.748078 280.176608 
L 128.784138 283.238886 
L 128.856307 280.176608 
L 129.073204 280.176608 
L 129.218127 283.238886 
L 129.36331 280.176608 
L 129.435998 280.176608 
L 129.472366 286.301165 
L 129.545152 283.238886 
L 129.690917 280.176608 
L 129.727399 280.176608 
L 129.763897 277.114329 
L 129.836941 286.301165 
L 129.873488 280.176608 
L 129.910051 283.238886 
L 129.946629 280.176608 
L 130.093107 277.114329 
L 130.166444 277.114329 
L 130.27657 283.238886 
L 130.46044 277.114329 
L 130.570958 286.301165 
L 130.644718 283.238886 
L 130.681623 277.114329 
L 130.755481 280.176608 
L 130.829405 280.176608 
L 130.903396 277.114329 
L 130.977452 283.238886 
L 131.014504 283.238886 
L 131.051574 277.114329 
L 131.125762 280.176608 
L 131.385945 280.176608 
L 131.423181 286.301165 
L 131.497703 283.238886 
L 131.609612 277.114329 
L 131.759061 286.301165 
L 131.908782 280.176608 
L 131.946254 286.301165 
L 131.983744 277.114329 
L 132.096317 283.238886 
L 132.246656 277.114329 
L 132.284284 277.114329 
L 132.397273 280.176608 
L 132.43497 277.114329 
L 132.548169 283.238886 
L 132.661527 277.114329 
L 132.775044 286.301165 
L 132.812919 277.114329 
L 132.888722 280.176608 
L 132.926651 283.238886 
L 133.078546 274.052051 
L 133.116565 274.052051 
L 133.192658 283.238886 
L 133.230732 280.176608 
L 133.268825 283.238886 
L 133.306935 274.052051 
L 133.383212 280.176608 
L 133.459563 277.114329 
L 133.574229 283.238886 
L 133.650766 280.176608 
L 133.689064 286.301165 
L 133.72738 280.176608 
L 133.765714 277.114329 
L 133.804068 280.176608 
L 133.880833 280.176608 
L 133.919245 274.052051 
L 133.957675 283.238886 
L 134.073082 277.114329 
L 134.11159 286.301165 
L 134.188663 283.238886 
L 134.22723 283.238886 
L 134.304421 286.301165 
L 134.343046 277.114329 
L 134.459041 283.238886 
L 134.575215 274.052051 
L 134.652764 283.238886 
L 134.69157 277.114329 
L 134.808107 283.238886 
L 134.846994 280.176608 
L 134.885901 283.238886 
L 135.002746 286.301165 
L 135.041736 286.301165 
L 135.158831 280.176608 
L 135.197905 283.238886 
L 135.236999 277.114329 
L 135.276115 280.176608 
L 135.315252 283.238886 
L 135.354411 277.114329 
L 135.432791 280.176608 
L 135.511258 283.238886 
L 135.550524 277.114329 
L 135.589811 283.238886 
L 135.62912 283.238886 
L 135.668451 280.176608 
L 135.707804 283.238886 
L 135.747178 283.238886 
L 135.865435 274.052051 
L 135.904898 283.238886 
L 135.983872 280.176608 
L 136.023415 280.176608 
L 136.062968 286.301165 
L 136.142142 283.238886 
L 136.221406 283.238886 
L 136.261073 286.301165 
L 136.340475 280.176608 
L 136.380211 283.238886 
L 136.41997 280.176608 
L 136.539387 286.301165 
L 136.619115 277.114329 
L 136.659015 283.238886 
L 136.738885 280.176608 
L 136.858871 283.238886 
L 137.019189 283.238886 
L 137.139684 280.176608 
L 137.179898 286.301165 
L 137.260401 283.238886 
L 137.381343 280.176608 
L 137.421708 286.301165 
L 137.462097 280.176608 
L 137.542953 280.176608 
L 137.62391 283.238886 
L 137.664428 280.176608 
L 137.704971 286.301165 
L 137.786135 283.238886 
L 137.826757 283.238886 
L 137.989505 277.114329 
L 138.030258 286.301165 
L 138.071037 280.176608 
L 138.111844 274.052051 
L 138.152677 277.114329 
L 138.275339 286.301165 
L 138.398246 277.114329 
L 138.562508 286.301165 
L 138.685997 280.176608 
L 138.80974 283.238886 
L 138.97513 283.238886 
L 139.057998 277.114329 
L 139.099475 280.176608 
L 139.182518 283.238886 
L 139.265679 280.176608 
L 139.390643 283.238886 
L 139.515877 283.238886 
L 139.582219 261.802937 
L 139.607625 283.238886 
L 139.633148 283.238886 
L 139.7613 286.301165 
L 139.787041 286.301165 
L 139.916292 289.363443 
L 140.203831 289.363443 
L 140.335983 292.425722 
L 140.415714 289.363443 
L 140.442364 292.425722 
L 140.46905 292.425722 
L 140.603037 289.363443 
L 140.629945 289.363443 
L 140.65689 292.425722 
L 140.737948 289.363443 
L 141.231375 289.363443 
L 141.259147 286.301165 
L 141.314805 289.363443 
L 141.398579 289.363443 
L 141.454619 292.425722 
L 141.482698 289.363443 
L 141.937219 289.363443 
L 141.965958 286.301165 
L 142.023555 289.363443 
L 142.697368 289.363443 
L 142.727147 286.301165 
L 142.786827 289.363443 
L 142.816729 289.363443 
L 142.876654 286.301165 
L 142.906677 289.363443 
L 143.027183 289.363443 
L 143.057412 286.301165 
L 143.117994 289.363443 
L 143.45416 289.363443 
L 143.484971 286.301165 
L 143.546718 289.363443 
L 143.577655 289.363443 
L 143.608634 286.301165 
L 143.670718 289.363443 
L 143.826668 289.363443 
L 143.857986 286.301165 
L 143.920748 289.363443 
L 143.983681 289.363443 
L 144.046784 286.301165 
L 144.078401 289.363443 
L 144.173507 289.363443 
L 144.300918 286.301165 
L 144.429021 289.363443 
L 144.557819 289.363443 
L 144.687316 286.301165 
L 144.7198 286.301165 
L 144.850175 289.363443 
L 145.345396 289.363443 
L 145.378768 286.301165 
L 145.445648 289.363443 
L 146.15884 289.363443 
L 146.29698 286.301165 
L 146.366327 286.301165 
L 146.401071 289.363443 
L 146.470697 286.301165 
L 146.505581 286.301165 
L 146.540511 289.363443 
L 146.610511 286.301165 
L 146.645581 286.301165 
L 146.786332 289.363443 
L 146.821638 289.363443 
L 146.963332 286.301165 
L 147.105784 289.363443 
L 147.141515 289.363443 
L 147.28492 286.301165 
L 147.501464 286.301165 
L 147.610385 289.363443 
L 147.756292 286.301165 
L 148.385107 286.301165 
L 148.42254 289.363443 
L 148.460021 286.301165 
L 148.497553 286.301165 
L 148.572765 289.363443 
L 148.685956 286.301165 
L 148.761667 286.301165 
L 148.799598 289.363443 
L 148.837578 286.301165 
L 150.079784 286.301165 
L 150.159173 283.238886 
L 150.278647 286.301165 
L 150.318577 286.301165 
L 150.358559 289.363443 
L 150.398594 286.301165 
L 150.478821 286.301165 
L 150.519013 289.363443 
L 150.559259 286.301165 
L 150.923852 286.301165 
L 151.005459 283.238886 
L 151.128271 286.301165 
L 151.251566 283.238886 
L 151.416715 289.363443 
L 151.541146 286.301165 
L 151.749619 286.301165 
L 151.875359 283.238886 
L 151.917382 283.238886 
L 152.043782 286.301165 
L 152.255554 286.301165 
L 152.383283 283.238886 
L 152.511514 286.301165 
L 152.64025 286.301165 
L 152.769491 283.238886 
L 152.812684 283.238886 
L 152.942603 286.301165 
L 153.073032 283.238886 
L 153.379364 283.238886 
L 153.51151 286.301165 
L 153.644175 283.238886 
L 153.688513 286.301165 
L 153.732908 283.238886 
L 153.866444 283.238886 
L 154.000505 286.301165 
L 154.135094 283.238886 
L 154.270212 283.238886 
L 154.31537 286.301165 
L 154.360586 283.238886 
L 154.633134 283.238886 
L 154.678767 286.301165 
L 154.724461 283.238886 
L 155.370385 283.238886 
L 155.509736 286.301165 
L 155.602633 286.301165 
L 155.64908 283.238886 
L 155.695526 286.301165 
L 155.741971 289.363443 
L 155.788416 286.301165 
L 155.881302 286.301165 
L 155.927744 289.363443 
L 155.974185 286.301165 
L 156.020626 286.301165 
L 156.113505 283.238886 
L 156.159944 286.301165 
L 156.206382 283.238886 
L 156.299257 283.238886 
L 156.345693 289.363443 
L 156.39213 286.301165 
L 156.438566 283.238886 
L 156.485001 286.301165 
L 156.717175 286.301165 
L 156.76361 289.363443 
L 156.810044 286.301165 
L 157.413715 286.301165 
L 157.460155 283.238886 
L 157.506596 286.301165 
L 157.645924 286.301165 
L 157.692369 283.238886 
L 157.738814 286.301165 
L 157.83171 286.301165 
L 157.878159 283.238886 
L 157.92461 286.301165 
L 158.017517 286.301165 
L 158.11043 283.238886 
L 158.249813 286.301165 
L 158.342744 286.301165 
L 158.389213 283.238886 
L 158.435684 286.301165 
L 158.528634 286.301165 
L 158.668076 283.238886 
L 158.761051 283.238886 
L 158.807543 286.301165 
L 158.854037 283.238886 
L 158.947036 283.238886 
L 159.086557 286.301165 
L 159.133071 283.238886 
L 159.179588 286.301165 
L 159.226109 286.301165 
L 159.319162 283.238886 
L 159.41223 286.301165 
L 159.551864 283.238886 
L 159.691536 286.301165 
L 159.738102 283.238886 
L 159.784673 286.301165 
L 160.017603 286.301165 
L 160.157423 283.238886 
L 160.297293 286.301165 
L 160.390569 283.238886 
L 160.530528 286.301165 
L 160.670545 283.238886 
L 160.810622 286.301165 
L 160.904041 286.301165 
L 161.044225 283.238886 
L 161.090967 283.238886 
L 161.231242 286.301165 
L 161.324798 286.301165 
L 161.465194 283.238886 
L 161.652508 283.238886 
L 161.699359 286.301165 
L 161.746219 283.238886 
L 161.933752 283.238886 
L 161.980659 286.301165 
L 162.027576 283.238886 
L 162.591361 283.238886 
L 162.63843 286.301165 
L 162.685497 283.238886 
L 162.921009 283.238886 
L 163.062462 286.301165 
L 163.204028 283.238886 
L 163.251243 286.301165 
L 163.298471 283.238886 
L 163.392966 283.238886 
L 163.534811 286.301165 
L 163.641144 283.238886 
L 163.772579 243.429266 
L 163.912618 289.363443 
L 164.253417 289.363443 
L 164.368372 292.425722 
L 164.835026 292.425722 
L 164.953413 295.488 
L 165.525323 295.488 
L 165.647764 292.425722 
L 165.770922 295.488 
L 165.8948 292.425722 
L 167.774317 292.425722 
L 167.909837 289.363443 
L 168.046138 292.425722 
L 168.148879 289.363443 
L 168.183224 292.425722 
L 168.252062 289.363443 
L 168.321097 289.363443 
L 168.390331 292.425722 
L 168.425022 289.363443 
L 168.459762 289.363443 
L 168.599222 292.425722 
L 168.704341 289.363443 
L 168.739481 292.425722 
L 168.809911 289.363443 
L 173.922521 289.363443 
L 174.007328 286.301165 
L 174.049817 289.363443 
L 174.092363 286.301165 
L 174.134967 286.301165 
L 174.263121 289.363443 
L 174.391791 286.301165 
L 174.564157 286.301165 
L 174.650686 289.363443 
L 174.694038 286.301165 
L 174.737447 289.363443 
L 174.780914 289.363443 
L 174.901937 286.301165 
L 174.94562 289.363443 
L 174.989365 286.301165 
L 175.077029 286.301165 
L 175.208963 289.363443 
L 175.385694 289.363443 
L 175.474412 286.301165 
L 175.563365 289.363443 
L 175.697236 286.301165 
L 176.283508 286.301165 
L 176.329023 289.363443 
L 176.374598 286.301165 
L 176.649305 286.301165 
L 176.6953 289.363443 
L 176.741356 286.301165 
L 176.879884 286.301165 
L 176.926181 283.238886 
L 176.972539 286.301165 
L 177.018958 286.301165 
L 177.111976 289.363443 
L 177.251961 286.301165 
L 177.298744 286.301165 
L 177.345588 289.363443 
L 177.392494 286.301165 
L 178.103449 286.301165 
L 178.15134 283.238886 
L 178.199294 286.301165 
L 178.24731 286.301165 
L 178.39173 283.238886 
L 178.536713 283.238886 
L 178.585166 286.301165 
L 178.633682 283.238886 
L 178.68226 283.238886 
L 178.828373 286.301165 
L 179.024072 286.301165 
L 179.171512 283.238886 
L 179.220785 286.301165 
L 179.270122 283.238886 
L 179.418515 283.238886 
L 179.567484 286.301165 
L 179.667116 283.238886 
L 179.817047 286.301165 
L 179.867152 286.301165 
L 179.967558 283.238886 
L 180.017857 286.301165 
L 180.068221 283.238886 
L 180.118651 283.238886 
L 180.270328 286.301165 
L 180.321017 286.301165 
L 180.473476 283.238886 
L 180.626524 283.238886 
L 180.677672 286.301165 
L 180.728885 283.238886 
L 180.831509 283.238886 
L 180.98594 286.301165 
L 181.140967 283.238886 
L 181.296593 286.301165 
L 181.348602 283.238886 
L 181.400677 286.301165 
L 181.505029 286.301165 
L 181.662061 283.238886 
L 181.71454 283.238886 
L 181.819699 286.301165 
L 181.977946 283.238886 
L 182.030831 283.238886 
L 182.189893 286.301165 
L 182.296276 283.238886 
L 182.402933 286.301165 
L 182.563434 283.238886 
L 182.617072 283.238886 
L 182.778401 286.301165 
L 182.940355 283.238886 
L 183.048672 283.238886 
L 183.211672 286.301165 
L 183.375305 283.238886 
L 183.429989 283.238886 
L 183.484745 286.301165 
L 183.539571 283.238886 
L 183.814768 283.238886 
L 183.870021 280.176608 
L 183.925345 283.238886 
L 183.980741 283.238886 
L 184.036209 286.301165 
L 184.091749 283.238886 
L 184.147361 286.301165 
L 184.258801 283.238886 
L 184.426503 283.238886 
L 184.482549 286.301165 
L 184.538668 283.238886 
L 184.59486 286.301165 
L 184.763874 274.052051 
L 184.820274 283.238886 
L 184.876648 280.176608 
L 184.989307 283.238886 
L 185.382718 283.238886 
L 185.438809 286.301165 
L 185.550911 283.238886 
L 185.774801 283.238886 
L 185.83071 286.301165 
L 185.942453 280.176608 
L 186.054098 283.238886 
L 186.332799 283.238886 
L 186.38847 280.176608 
L 186.44412 286.301165 
L 186.499747 283.238886 
L 186.610936 286.301165 
L 186.777563 283.238886 
L 186.833064 283.238886 
L 186.888544 280.176608 
L 186.944005 283.238886 
L 187.165656 283.238886 
L 187.221022 286.301165 
L 187.276369 283.238886 
L 187.552842 283.238886 
L 187.608085 286.301165 
L 187.663312 283.238886 
L 187.828898 283.238886 
L 187.860793 277.114329 
L 187.92407 283.238886 
L 188.072831 289.363443 
L 188.835219 289.363443 
L 188.960072 292.425722 
L 189.531901 292.425722 
L 189.564154 289.363443 
L 189.628814 292.425722 
L 189.69368 292.425722 
L 189.824035 295.488 
L 189.922347 292.425722 
L 189.988149 295.488 
L 190.021129 292.425722 
L 190.054162 292.425722 
L 190.186818 295.488 
L 191.0699 295.488 
L 191.20901 292.425722 
L 192.207664 292.425722 
L 192.317282 289.363443 
L 192.427414 292.425722 
L 192.575058 289.363443 
L 192.612113 289.363443 
L 192.723624 292.425722 
L 192.798253 289.363443 
L 192.910631 292.425722 
L 193.023532 289.363443 
L 193.061282 289.363443 
L 193.174883 292.425722 
L 193.289011 289.363443 
L 193.480399 289.363443 
L 193.557367 292.425722 
L 193.673263 289.363443 
L 193.750823 289.363443 
L 193.789692 292.425722 
L 193.828621 289.363443 
L 197.449232 289.363443 
L 197.4936 286.301165 
L 197.538031 289.363443 
L 198.031007 289.363443 
L 198.076208 286.301165 
L 198.121474 289.363443 
L 198.348769 289.363443 
L 198.394422 286.301165 
L 198.440139 289.363443 
L 199.368125 289.363443 
L 199.415209 286.301165 
L 199.462359 289.363443 
L 199.509574 289.363443 
L 199.556854 286.301165 
L 199.604201 289.363443 
L 199.841917 289.363443 
L 199.985336 286.301165 
L 200.033274 286.301165 
L 200.081278 289.363443 
L 200.129348 286.301165 
L 200.177484 286.301165 
L 200.322289 289.363443 
L 200.370689 289.363443 
L 200.467689 286.301165 
L 200.613686 289.363443 
L 200.76028 286.301165 
L 200.809278 289.363443 
L 200.858342 286.301165 
L 201.055265 286.301165 
L 201.104662 289.363443 
L 201.154126 286.301165 
L 201.302919 286.301165 
L 201.352651 289.363443 
L 201.402449 286.301165 
L 201.702647 286.301165 
L 201.752915 289.363443 
L 201.80325 286.301165 
L 202.208355 286.301165 
L 202.361383 289.363443 
L 202.46374 286.301165 
L 202.51502 289.363443 
L 202.566368 286.301165 
L 202.617784 286.301165 
L 202.669268 289.363443 
L 202.720819 286.301165 
L 202.979597 286.301165 
L 203.031557 289.363443 
L 203.083585 286.301165 
L 203.187846 286.301165 
L 203.240079 289.363443 
L 203.29238 286.301165 
L 203.872217 286.301165 
L 203.925342 289.363443 
L 203.978536 286.301165 
L 204.031798 286.301165 
L 204.08513 289.363443 
L 204.138531 286.301165 
L 204.676347 286.301165 
L 204.730511 289.363443 
L 204.784744 286.301165 
L 204.947861 286.301165 
L 205.111608 283.238886 
L 205.16633 283.238886 
L 205.330916 286.301165 
L 205.551347 286.301165 
L 205.71741 283.238886 
L 205.772906 283.238886 
L 205.828472 286.301165 
L 205.939816 283.238886 
L 206.051443 286.301165 
L 206.107363 286.301165 
L 206.163354 283.238886 
L 206.27555 286.301165 
L 206.331754 286.301165 
L 206.444377 283.238886 
L 206.500795 283.238886 
L 206.613846 286.301165 
L 206.670479 283.238886 
L 206.727183 286.301165 
L 206.840807 283.238886 
L 206.897727 283.238886 
L 206.954718 286.301165 
L 207.068917 283.238886 
L 207.183404 283.238886 
L 207.240756 280.176608 
L 207.355677 283.238886 
L 207.818263 283.238886 
L 207.876414 286.301165 
L 208.051307 280.176608 
L 208.109751 283.238886 
L 208.168268 280.176608 
L 208.226859 283.238886 
L 208.285523 280.176608 
L 208.461959 286.301165 
L 208.579952 280.176608 
L 208.639007 283.238886 
L 208.698082 280.176608 
L 208.757176 283.238886 
L 208.875425 280.176608 
L 208.993754 283.238886 
L 209.171405 283.238886 
L 209.230665 280.176608 
L 209.349248 283.238886 
L 209.46792 283.238886 
L 209.586682 280.176608 
L 209.646097 280.176608 
L 209.705535 283.238886 
L 209.764996 280.176608 
L 209.883989 283.238886 
L 210.003078 283.238886 
L 210.122265 280.176608 
L 210.24155 283.238886 
L 210.420667 283.238886 
L 210.480425 280.176608 
L 210.600017 283.238886 
L 210.719715 280.176608 
L 210.959436 280.176608 
L 211.079462 283.238886 
L 211.319853 283.238886 
L 211.440222 280.176608 
L 211.560708 283.238886 
L 211.741662 283.238886 
L 211.802041 280.176608 
L 211.92289 283.238886 
L 212.043864 280.176608 
L 212.055386 283.238886 
L 212.409999 209.744203 
L 212.536368 289.363443 
L 212.85711 289.363443 
L 212.889494 292.425722 
L 212.95443 289.363443 
L 213.084984 289.363443 
L 213.216451 292.425722 
L 213.85359 292.425722 
L 213.990437 295.488 
L 214.301864 295.488 
L 214.336771 283.238886 
L 214.406765 289.363443 
L 214.689212 289.363443 
L 214.760444 292.425722 
L 214.796154 289.363443 
L 214.831925 289.363443 
L 214.97564 292.425722 
L 215.047874 292.425722 
L 215.084086 289.363443 
L 215.1567 292.425722 
L 216.162129 292.425722 
L 216.276778 295.488 
L 216.469185 295.488 
L 216.507866 289.363443 
L 216.546614 292.425722 
L 216.663258 295.488 
L 216.898361 295.488 
L 217.016824 292.425722 
L 217.740503 292.425722 
L 217.781362 289.363443 
L 217.82229 292.425722 
L 218.069317 292.425722 
L 218.110733 289.363443 
L 218.152218 292.425722 
L 218.570936 292.425722 
L 218.613196 289.363443 
L 218.655526 292.425722 
L 218.782943 292.425722 
L 218.825557 289.363443 
L 218.868243 292.425722 
L 218.911 292.425722 
L 219.039697 289.363443 
L 224.060722 289.363443 
L 224.111677 286.301165 
L 224.162707 289.363443 
L 224.93723 289.363443 
L 224.989471 286.301165 
L 225.041787 289.363443 
L 225.410122 289.363443 
L 225.569117 286.301165 
L 225.728794 289.363443 
L 225.782172 289.363443 
L 225.94276 286.301165 
L 226.104031 286.301165 
L 226.157939 289.363443 
L 226.211924 286.301165 
L 226.374334 286.301165 
L 226.537427 289.363443 
L 226.701203 289.363443 
L 226.865663 286.301165 
L 227.086007 286.301165 
L 227.252063 289.363443 
L 227.307567 289.363443 
L 227.418803 286.301165 
L 227.698224 286.301165 
L 227.754336 289.363443 
L 227.866789 286.301165 
L 228.092607 286.301165 
L 228.149251 289.363443 
L 228.262769 286.301165 
L 230.83727 286.301165 
L 230.8975 283.238886 
L 231.018189 286.301165 
L 231.626234 286.301165 
L 231.748764 283.238886 
L 231.871602 286.301165 
L 231.933136 286.301165 
L 232.056387 283.238886 
L 232.118026 283.238886 
L 232.241304 286.301165 
L 232.672808 286.301165 
L 232.796113 283.238886 
L 232.91943 286.301165 
L 232.981093 286.301165 
L 233.104432 283.238886 
L 233.227788 286.301165 
L 233.351163 283.238886 
L 233.47456 283.238886 
L 233.536267 286.301165 
L 233.6597 283.238886 
L 235.639649 283.238886 
L 235.701723 280.176608 
L 235.825916 283.238886 
L 236.210973 283.238886 
L 236.597142 188.308253 
L 236.728909 289.363443 
L 237.370172 289.363443 
L 237.438979 292.425722 
L 237.473477 289.363443 
L 237.577349 289.363443 
L 237.681793 292.425722 
L 237.716735 289.363443 
L 237.786811 292.425722 
L 238.721546 292.425722 
L 238.86935 295.488 
L 238.906471 292.425722 
L 238.94366 295.488 
L 239.548091 295.488 
L 239.663418 292.425722 
L 240.975074 292.425722 
L 241.016083 289.363443 
L 241.057168 292.425722 
L 241.222272 292.425722 
L 241.263739 289.363443 
L 241.305283 292.425722 
L 241.937756 292.425722 
L 242.066372 289.363443 
L 242.109403 289.363443 
L 242.152514 292.425722 
L 242.195705 289.363443 
L 242.325757 289.363443 
L 242.369269 292.425722 
L 242.412861 289.363443 
L 242.632037 289.363443 
L 242.676116 292.425722 
L 242.720277 289.363443 
L 243.944042 289.363443 
L 243.990551 283.238886 
L 244.037144 286.301165 
L 244.130589 292.425722 
L 244.177442 289.363443 
L 244.271408 289.363443 
L 244.31852 292.425722 
L 244.36572 289.363443 
L 250.499037 289.363443 
L 250.556721 286.301165 
L 250.672354 289.363443 
L 250.788342 286.301165 
L 250.846469 286.301165 
L 250.904685 289.363443 
L 250.962989 286.301165 
L 251.021382 289.363443 
L 251.138432 286.301165 
L 254.748828 286.301165 
L 254.812614 283.238886 
L 254.940441 286.301165 
L 255.390518 286.301165 
L 255.455155 283.238886 
L 255.584683 286.301165 
L 255.909984 286.301165 
L 256.040696 283.238886 
L 256.171747 286.301165 
L 256.303134 286.301165 
L 256.368954 283.238886 
L 256.500846 286.301165 
L 256.566919 283.238886 
L 256.699036 286.301165 
L 256.765058 283.238886 
L 256.831057 286.301165 
L 256.962985 283.238886 
L 257.028916 283.238886 
L 257.094824 286.301165 
L 257.226577 283.238886 
L 257.292422 283.238886 
L 257.424053 286.301165 
L 257.555605 286.301165 
L 257.621354 283.238886 
L 257.752796 286.301165 
L 257.884169 283.238886 
L 257.949831 283.238886 
L 258.015476 286.301165 
L 258.081106 283.238886 
L 258.212319 286.301165 
L 258.343474 283.238886 
L 258.40903 283.238886 
L 258.474573 286.301165 
L 258.540103 283.238886 
L 258.605621 286.301165 
L 258.736619 283.238886 
L 259.783181 283.238886 
L 259.848526 286.301165 
L 259.979201 283.238886 
L 260.175178 283.238886 
L 260.240496 286.301165 
L 260.320426 283.238886 
L 260.438111 261.802937 
L 260.572903 289.363443 
L 261.836048 289.363443 
L 261.945292 292.425722 
L 262.091931 289.363443 
L 262.20265 292.425722 
L 262.239699 289.363443 
L 262.276818 292.425722 
L 263.62199 292.425722 
L 263.741567 295.488 
L 264.063846 295.488 
L 264.104482 292.425722 
L 264.145197 295.488 
L 264.226863 295.488 
L 264.349955 292.425722 
L 265.274803 292.425722 
L 265.317784 289.363443 
L 265.360849 292.425722 
L 265.44723 292.425722 
L 265.490547 289.363443 
L 265.533947 292.425722 
L 265.621 292.425722 
L 265.752213 289.363443 
L 265.840113 292.425722 
L 265.972604 289.363443 
L 266.06136 289.363443 
L 266.105867 292.425722 
L 266.150461 289.363443 
L 271.786792 289.363443 
L 271.842323 286.301165 
L 271.9537 289.363443 
L 272.065501 289.363443 
L 272.121561 286.301165 
L 272.234 289.363443 
L 272.403459 289.363443 
L 272.460159 286.301165 
L 272.573882 289.363443 
L 272.745275 289.363443 
L 272.802622 286.301165 
L 272.917641 289.363443 
L 273.033095 283.238886 
L 273.207089 289.363443 
L 275.808549 289.363443 
L 275.934397 286.301165 
L 276.060672 289.363443 
L 276.123969 286.301165 
L 276.187372 289.363443 
L 276.250882 286.301165 
L 276.314497 289.363443 
L 276.442046 286.301165 
L 276.505979 286.301165 
L 276.570017 289.363443 
L 276.69841 286.301165 
L 276.762765 286.301165 
L 276.827225 289.363443 
L 276.956459 286.301165 
L 277.151097 286.301165 
L 277.227643 289.363443 
L 277.358154 286.301165 
L 277.554722 286.301165 
L 277.620452 289.363443 
L 277.752223 286.301165 
L 279.160536 286.301165 
L 279.296988 283.238886 
L 279.433839 286.301165 
L 279.57109 286.301165 
L 279.708737 283.238886 
L 279.846781 286.301165 
L 279.915951 286.301165 
L 280.054586 283.238886 
L 280.124051 286.301165 
L 280.193615 283.238886 
L 280.263276 286.301165 
L 280.333035 283.238886 
L 280.402892 286.301165 
L 280.472846 283.238886 
L 280.542898 286.301165 
L 280.683293 283.238886 
L 280.753635 286.301165 
L 280.894611 283.238886 
L 281.605251 283.238886 
L 281.67684 286.301165 
L 281.820301 283.238886 
L 281.892174 283.238886 
L 281.964139 286.301165 
L 282.107895 283.238886 
L 282.3231 283.238886 
L 282.394724 286.301165 
L 282.537811 283.238886 
L 283.392092 283.238886 
L 283.462976 286.301165 
L 283.604614 283.238886 
L 284.310348 283.238886 
L 284.380711 280.176608 
L 284.394265 286.301165 
L 284.751526 215.868759 
L 284.892678 289.363443 
L 286.029621 289.363443 
L 286.105423 292.425722 
L 286.143438 289.363443 
L 286.18153 292.425722 
L 286.527814 292.425722 
L 286.60562 289.363443 
L 286.722916 292.425722 
L 286.801508 292.425722 
L 286.840922 289.363443 
L 286.880416 292.425722 
L 287.039189 292.425722 
L 287.079082 289.363443 
L 287.119056 292.425722 
L 288.527316 292.425722 
L 288.656286 295.488 
L 288.960285 295.488 
L 289.091897 292.425722 
L 290.973234 292.425722 
L 291.117136 289.363443 
L 291.165298 292.425722 
L 291.213558 289.363443 
L 295.865347 289.363443 
L 295.923058 286.301165 
L 296.038824 289.363443 
L 296.271734 289.363443 
L 296.33025 286.301165 
L 296.447629 289.363443 
L 296.624569 289.363443 
L 296.683781 286.301165 
L 296.743111 289.363443 
L 296.802558 286.301165 
L 296.862121 289.363443 
L 296.981601 286.301165 
L 297.041517 286.301165 
L 297.10155 289.363443 
L 297.221972 286.301165 
L 297.282361 286.301165 
L 297.342867 289.363443 
L 297.464237 286.301165 
L 300.389892 286.301165 
L 300.456413 283.238886 
L 300.589835 286.301165 
L 300.92562 286.301165 
L 301.060829 283.238886 
L 301.128626 286.301165 
L 301.264605 283.238886 
L 301.4011 286.301165 
L 301.469541 283.238886 
L 301.60681 286.301165 
L 301.744599 286.301165 
L 301.882904 280.176608 
L 301.95225 289.363443 
L 302.021728 286.301165 
L 304.0921 286.301165 
L 304.165368 283.238886 
L 304.312271 286.301165 
L 305.054045 286.301165 
L 305.128881 283.238886 
L 305.278908 286.301165 
L 305.354099 286.301165 
L 305.429407 283.238886 
L 305.580376 286.301165 
L 305.656035 286.301165 
L 305.731811 283.238886 
L 305.807703 286.301165 
L 305.959834 283.238886 
L 306.112426 283.238886 
L 306.188894 286.301165 
L 306.342173 283.238886 
L 306.572942 283.238886 
L 306.650091 286.301165 
L 306.804725 283.238886 
L 307.2713 283.238886 
L 307.349449 280.176608 
L 307.506075 283.238886 
L 307.899541 283.238886 
L 307.978525 280.176608 
L 308.136175 283.238886 
L 308.371872 283.238886 
L 308.428864 274.052051 
L 308.46655 283.238886 
L 308.645717 289.363443 
L 311.321072 289.363443 
L 311.362761 292.425722 
L 311.404538 289.363443 
L 311.657058 289.363443 
L 311.784522 292.425722 
L 311.869948 292.425722 
L 311.955736 289.363443 
L 312.085098 292.425722 
L 312.171797 292.425722 
L 312.215285 289.363443 
L 312.258864 292.425722 
L 313.51735 292.425722 
L 313.656677 295.488 
L 313.93801 295.488 
L 314.080028 292.425722 
L 315.299405 292.425722 
L 315.399783 289.363443 
L 315.551153 292.425722 
L 315.754486 292.425722 
L 315.908123 289.363443 
L 321.061686 289.363443 
L 321.186295 286.301165 
L 325.452612 286.301165 
L 325.52369 283.238886 
L 325.666264 286.301165 
L 325.953093 286.301165 
L 326.097349 283.238886 
L 326.242168 286.301165 
L 326.387552 283.238886 
L 326.460455 283.238886 
L 326.533501 286.301165 
L 326.606688 283.238886 
L 326.680016 286.301165 
L 326.8271 283.238886 
L 326.974753 286.301165 
L 327.048793 283.238886 
L 327.122907 286.301165 
L 327.271121 283.238886 
L 327.419317 283.238886 
L 327.49341 286.301165 
L 327.641584 283.238886 
L 327.715668 283.238886 
L 327.789749 286.301165 
L 327.937906 283.238886 
L 328.900947 283.238886 
L 329.04914 286.301165 
L 329.123329 283.238886 
L 329.197438 286.301165 
L 329.345669 283.238886 
L 329.71635 283.238886 
L 329.790507 286.301165 
L 329.938844 283.238886 
L 330.235619 283.238886 
L 330.315834 280.176608 
L 330.557335 286.301165 
L 330.638134 283.238886 
L 330.800174 286.301165 
L 330.9628 286.301165 
L 331.126007 283.238886 
L 331.289791 283.238886 
L 331.371898 286.301165 
L 331.454148 283.238886 
L 331.53654 286.301165 
L 331.701749 283.238886 
L 332.284379 283.238886 
L 332.413742 277.114329 
L 332.454066 280.176608 
L 332.637958 289.363443 
L 337.617434 289.363443 
L 337.713472 292.425722 
L 337.858332 289.363443 
L 338.00416 292.425722 
L 338.697702 292.425722 
L 338.849149 295.488 
L 339.00161 292.425722 
L 339.726715 292.425722 
L 339.832158 289.363443 
L 339.885056 292.425722 
L 339.938072 289.363443 
L 340.366469 289.363443 
L 340.420557 292.425722 
L 340.474765 289.363443 
L 344.205879 289.363443 
L 344.268443 286.301165 
L 344.393979 289.363443 
L 344.965694 289.363443 
L 345.029909 286.301165 
L 345.094263 289.363443 
L 345.22339 286.301165 
L 345.353075 289.363443 
L 345.548656 289.363443 
L 345.61413 286.301165 
L 345.679746 289.363443 
L 345.811401 286.301165 
L 346.209773 286.301165 
L 346.276668 289.363443 
L 346.410886 286.301165 
L 349.217819 286.301165 
L 349.364408 283.238886 
L 349.5116 286.301165 
L 349.733526 286.301165 
L 349.882236 283.238886 
L 349.956819 286.301165 
L 350.031555 283.238886 
L 350.106443 286.301165 
L 350.256678 283.238886 
L 350.407525 286.301165 
L 350.483178 283.238886 
L 350.634945 286.301165 
L 350.787328 283.238886 
L 350.86375 286.301165 
L 351.017024 283.238886 
L 352.011786 283.238886 
L 352.088147 286.301165 
L 352.240807 283.238886 
L 352.850713 283.238886 
L 352.926876 286.301165 
L 353.079157 283.238886 
L 356.041419 283.238886 
L 356.117308 286.301165 
L 356.26909 283.238886 
L 356.367977 283.238886 
L 356.424627 277.114329 
L 356.461964 283.238886 
L 356.612976 289.363443 
L 357.993947 289.363443 
L 358.034849 292.425722 
L 358.076037 289.363443 
L 359.048638 289.363443 
L 359.092081 286.301165 
L 359.135621 289.363443 
L 362.547248 289.363443 
L 362.581103 292.425722 
L 362.632707 289.363443 
L 363.260863 289.363443 
L 363.420656 292.425722 
L 364.016189 292.425722 
L 364.181268 295.488 
L 364.291962 295.488 
L 364.403171 292.425722 
L 364.853218 292.425722 
L 364.910065 289.363443 
L 365.024155 292.425722 
L 365.081399 292.425722 
L 365.196288 289.363443 
L 365.485856 289.363443 
L 365.544174 292.425722 
L 365.661217 289.363443 
L 365.719943 292.425722 
L 365.837804 289.363443 
L 369.638867 289.363443 
L 369.706745 286.301165 
L 369.774777 289.363443 
L 369.842963 286.301165 
L 369.911304 289.363443 
L 370.048449 286.301165 
L 370.117255 286.301165 
L 370.186215 289.363443 
L 370.324604 286.301165 
L 372.550622 286.301165 
L 372.625003 283.238886 
L 372.699547 286.301165 
L 372.774254 283.238886 
L 372.924159 286.301165 
L 373.150246 286.301165 
L 373.225937 283.238886 
L 373.377814 286.301165 
L 373.606867 286.301165 
L 373.683549 283.238886 
L 373.83741 286.301165 
L 374.069448 286.301165 
L 374.147126 283.238886 
L 374.302984 286.301165 
L 374.381164 283.238886 
L 374.459511 286.301165 
L 374.616707 283.238886 
L 374.774574 286.301165 
L 374.933114 286.301165 
L 375.092327 283.238886 
L 375.814715 283.238886 
L 375.89494 286.301165 
L 376.055234 283.238886 
L 376.375218 283.238886 
L 376.455092 286.301165 
L 376.534919 283.238886 
L 376.6147 286.301165 
L 376.774124 283.238886 
L 377.092446 283.238886 
L 377.171921 286.301165 
L 377.330748 283.238886 
L 377.410101 283.238886 
L 377.489416 280.176608 
L 377.64793 283.238886 
L 380.245489 283.238886 
L 380.323789 270.989772 
L 380.477512 286.301165 
L 380.593771 289.363443 
L 382.654778 289.363443 
L 382.698304 292.425722 
L 382.74213 289.363443 
L 384.580599 289.363443 
L 384.725584 292.425722 
L 384.871604 289.363443 
L 384.920508 289.363443 
L 385.067918 292.425722 
L 385.166776 289.363443 
L 385.315947 292.425722 
L 385.872113 292.425722 
L 386.026343 295.488 
L 386.12978 295.488 
L 386.285865 292.425722 
L 386.975345 292.425722 
L 387.137533 289.363443 
L 387.191856 289.363443 
L 387.24631 292.425722 
L 387.300895 289.363443 
L 387.355611 289.363443 
L 387.46544 292.425722 
L 387.631177 289.363443 
L 387.854031 289.363443 
L 387.910081 283.238886 
L 387.966266 286.301165 
L 388.079039 289.363443 
L 388.767255 289.363443 
L 388.825512 292.425722 
L 388.942451 289.363443 
L 389.059956 292.425722 
L 390.390738 292.425722 
L 390.452927 289.363443 
L 390.515266 292.425722 
L 390.577757 289.363443 
L 390.640398 292.425722 
L 390.766137 289.363443 
L 393.55157 289.363443 
L 393.585424 292.425722 
L 393.655403 289.363443 
L 394.507062 289.363443 
L 394.651379 286.301165 
L 394.79638 286.301165 
L 394.869138 289.363443 
L 395.01517 286.301165 
L 398.083513 286.301165 
L 398.163899 283.238886 
L 398.32522 286.301165 
L 398.406155 283.238886 
L 398.487273 286.301165 
L 398.487273 286.301165 
" style="fill:none;stroke:#1f77b4;stroke-linecap:square;stroke-width:1.5;"/>
   </g>
   <g id="patch_3">
    <path d="M 57.6 307.584 
L 57.6 41.472 
" style="fill:none;stroke:#000000;stroke-linecap:square;stroke-linejoin:miter;stroke-width:0.8;"/>
   </g>
   <g id="patch_4">
    <path d="M 414.72 307.584 
L 414.72 41.472 
" style="fill:none;stroke:#000000;stroke-linecap:square;stroke-linejoin:miter;stroke-width:0.8;"/>
   </g>
   <g id="patch_5">
    <path d="M 57.6 307.584 
L 414.72 307.584 
" style="fill:none;stroke:#000000;stroke-linecap:square;stroke-linejoin:miter;stroke-width:0.8;"/>
   </g>
   <g id="patch_6">
    <path d="M 57.6 41.472 
L 414.72 41.472 
" style="fill:none;stroke:#000000;stroke-linecap:square;stroke-linejoin:miter;stroke-width:0.8;"/>
   </g>
  </g>
 </g>
 <defs>
  <clipPath id="pcc41caebeb">
   <rect height="266.112" width="357.12" x="57.6" y="41.472"/>
  </clipPath>
 </defs>
</svg>
