<?xml version="1.0" encoding="utf-8" standalone="no"?>
<!DOCTYPE svg PUBLIC "-//W3C//DTD SVG 1.1//EN"
  "http://www.w3.org/Graphics/SVG/1.1/DTD/svg11.dtd">
<!-- Created with matplotlib (https://matplotlib.org/) -->
<svg height="345.6pt" version="1.1" viewBox="0 0 460.8 345.6" width="460.8pt" xmlns="http://www.w3.org/2000/svg" xmlns:xlink="http://www.w3.org/1999/xlink">
 <metadata>
  <rdf:RDF xmlns:cc="http://creativecommons.org/ns#" xmlns:dc="http://purl.org/dc/elements/1.1/" xmlns:rdf="http://www.w3.org/1999/02/22-rdf-syntax-ns#">
   <cc:Work>
    <dc:type rdf:resource="http://purl.org/dc/dcmitype/StillImage"/>
    <dc:date>2022-10-18T23:14:40.481563</dc:date>
    <dc:format>image/svg+xml</dc:format>
    <dc:creator>
     <cc:Agent>
      <dc:title>Matplotlib v3.3.4, https://matplotlib.org/</dc:title>
     </cc:Agent>
    </dc:creator>
   </cc:Work>
  </rdf:RDF>
 </metadata>
 <defs>
  <style type="text/css">*{stroke-linecap:butt;stroke-linejoin:round;}</style>
 </defs>
 <g id="figure_1">
  <g id="patch_1">
   <path d="M 0 345.6 
L 460.8 345.6 
L 460.8 0 
L 0 0 
z
" style="fill:#ffffff;"/>
  </g>
  <g id="axes_1">
   <g id="patch_2">
    <path d="M 57.6 307.584 
L 414.72 307.584 
L 414.72 41.472 
L 57.6 41.472 
z
" style="fill:#ffffff;"/>
   </g>
   <g id="matplotlib.axis_1">
    <g id="xtick_1">
     <g id="line2d_1">
      <defs>
       <path d="M 0 0 
L 0 3.5 
" id="md26098b905" style="stroke:#000000;stroke-width:0.8;"/>
      </defs>
      <g>
       <use style="stroke:#000000;stroke-width:0.8;" x="73.561893" xlink:href="#md26098b905" y="307.584"/>
      </g>
     </g>
     <g id="text_1">
      <!-- 0.0 -->
      <g transform="translate(65.610331 322.182437)scale(0.1 -0.1)">
       <defs>
        <path d="M 31.78125 66.40625 
Q 24.171875 66.40625 20.328125 58.90625 
Q 16.5 51.421875 16.5 36.375 
Q 16.5 21.390625 20.328125 13.890625 
Q 24.171875 6.390625 31.78125 6.390625 
Q 39.453125 6.390625 43.28125 13.890625 
Q 47.125 21.390625 47.125 36.375 
Q 47.125 51.421875 43.28125 58.90625 
Q 39.453125 66.40625 31.78125 66.40625 
z
M 31.78125 74.21875 
Q 44.046875 74.21875 50.515625 64.515625 
Q 56.984375 54.828125 56.984375 36.375 
Q 56.984375 17.96875 50.515625 8.265625 
Q 44.046875 -1.421875 31.78125 -1.421875 
Q 19.53125 -1.421875 13.0625 8.265625 
Q 6.59375 17.96875 6.59375 36.375 
Q 6.59375 54.828125 13.0625 64.515625 
Q 19.53125 74.21875 31.78125 74.21875 
z
" id="DejaVuSans-48"/>
        <path d="M 10.6875 12.40625 
L 21 12.40625 
L 21 0 
L 10.6875 0 
z
" id="DejaVuSans-46"/>
       </defs>
       <use xlink:href="#DejaVuSans-48"/>
       <use x="63.623047" xlink:href="#DejaVuSans-46"/>
       <use x="95.410156" xlink:href="#DejaVuSans-48"/>
      </g>
     </g>
    </g>
    <g id="xtick_2">
     <g id="line2d_2">
      <g>
       <use style="stroke:#000000;stroke-width:0.8;" x="127.728708" xlink:href="#md26098b905" y="307.584"/>
      </g>
     </g>
     <g id="text_2">
      <!-- 0.2 -->
      <g transform="translate(119.777146 322.182437)scale(0.1 -0.1)">
       <defs>
        <path d="M 19.1875 8.296875 
L 53.609375 8.296875 
L 53.609375 0 
L 7.328125 0 
L 7.328125 8.296875 
Q 12.9375 14.109375 22.625 23.890625 
Q 32.328125 33.6875 34.8125 36.53125 
Q 39.546875 41.84375 41.421875 45.53125 
Q 43.3125 49.21875 43.3125 52.78125 
Q 43.3125 58.59375 39.234375 62.25 
Q 35.15625 65.921875 28.609375 65.921875 
Q 23.96875 65.921875 18.8125 64.3125 
Q 13.671875 62.703125 7.8125 59.421875 
L 7.8125 69.390625 
Q 13.765625 71.78125 18.9375 73 
Q 24.125 74.21875 28.421875 74.21875 
Q 39.75 74.21875 46.484375 68.546875 
Q 53.21875 62.890625 53.21875 53.421875 
Q 53.21875 48.921875 51.53125 44.890625 
Q 49.859375 40.875 45.40625 35.40625 
Q 44.1875 33.984375 37.640625 27.21875 
Q 31.109375 20.453125 19.1875 8.296875 
z
" id="DejaVuSans-50"/>
       </defs>
       <use xlink:href="#DejaVuSans-48"/>
       <use x="63.623047" xlink:href="#DejaVuSans-46"/>
       <use x="95.410156" xlink:href="#DejaVuSans-50"/>
      </g>
     </g>
    </g>
    <g id="xtick_3">
     <g id="line2d_3">
      <g>
       <use style="stroke:#000000;stroke-width:0.8;" x="181.895524" xlink:href="#md26098b905" y="307.584"/>
      </g>
     </g>
     <g id="text_3">
      <!-- 0.4 -->
      <g transform="translate(173.943961 322.182437)scale(0.1 -0.1)">
       <defs>
        <path d="M 37.796875 64.3125 
L 12.890625 25.390625 
L 37.796875 25.390625 
z
M 35.203125 72.90625 
L 47.609375 72.90625 
L 47.609375 25.390625 
L 58.015625 25.390625 
L 58.015625 17.1875 
L 47.609375 17.1875 
L 47.609375 0 
L 37.796875 0 
L 37.796875 17.1875 
L 4.890625 17.1875 
L 4.890625 26.703125 
z
" id="DejaVuSans-52"/>
       </defs>
       <use xlink:href="#DejaVuSans-48"/>
       <use x="63.623047" xlink:href="#DejaVuSans-46"/>
       <use x="95.410156" xlink:href="#DejaVuSans-52"/>
      </g>
     </g>
    </g>
    <g id="xtick_4">
     <g id="line2d_4">
      <g>
       <use style="stroke:#000000;stroke-width:0.8;" x="236.062339" xlink:href="#md26098b905" y="307.584"/>
      </g>
     </g>
     <g id="text_4">
      <!-- 0.6 -->
      <g transform="translate(228.110776 322.182437)scale(0.1 -0.1)">
       <defs>
        <path d="M 33.015625 40.375 
Q 26.375 40.375 22.484375 35.828125 
Q 18.609375 31.296875 18.609375 23.390625 
Q 18.609375 15.53125 22.484375 10.953125 
Q 26.375 6.390625 33.015625 6.390625 
Q 39.65625 6.390625 43.53125 10.953125 
Q 47.40625 15.53125 47.40625 23.390625 
Q 47.40625 31.296875 43.53125 35.828125 
Q 39.65625 40.375 33.015625 40.375 
z
M 52.59375 71.296875 
L 52.59375 62.3125 
Q 48.875 64.0625 45.09375 64.984375 
Q 41.3125 65.921875 37.59375 65.921875 
Q 27.828125 65.921875 22.671875 59.328125 
Q 17.53125 52.734375 16.796875 39.40625 
Q 19.671875 43.65625 24.015625 45.921875 
Q 28.375 48.1875 33.59375 48.1875 
Q 44.578125 48.1875 50.953125 41.515625 
Q 57.328125 34.859375 57.328125 23.390625 
Q 57.328125 12.15625 50.6875 5.359375 
Q 44.046875 -1.421875 33.015625 -1.421875 
Q 20.359375 -1.421875 13.671875 8.265625 
Q 6.984375 17.96875 6.984375 36.375 
Q 6.984375 53.65625 15.1875 63.9375 
Q 23.390625 74.21875 37.203125 74.21875 
Q 40.921875 74.21875 44.703125 73.484375 
Q 48.484375 72.75 52.59375 71.296875 
z
" id="DejaVuSans-54"/>
       </defs>
       <use xlink:href="#DejaVuSans-48"/>
       <use x="63.623047" xlink:href="#DejaVuSans-46"/>
       <use x="95.410156" xlink:href="#DejaVuSans-54"/>
      </g>
     </g>
    </g>
    <g id="xtick_5">
     <g id="line2d_5">
      <g>
       <use style="stroke:#000000;stroke-width:0.8;" x="290.229154" xlink:href="#md26098b905" y="307.584"/>
      </g>
     </g>
     <g id="text_5">
      <!-- 0.8 -->
      <g transform="translate(282.277591 322.182437)scale(0.1 -0.1)">
       <defs>
        <path d="M 31.78125 34.625 
Q 24.75 34.625 20.71875 30.859375 
Q 16.703125 27.09375 16.703125 20.515625 
Q 16.703125 13.921875 20.71875 10.15625 
Q 24.75 6.390625 31.78125 6.390625 
Q 38.8125 6.390625 42.859375 10.171875 
Q 46.921875 13.96875 46.921875 20.515625 
Q 46.921875 27.09375 42.890625 30.859375 
Q 38.875 34.625 31.78125 34.625 
z
M 21.921875 38.8125 
Q 15.578125 40.375 12.03125 44.71875 
Q 8.5 49.078125 8.5 55.328125 
Q 8.5 64.0625 14.71875 69.140625 
Q 20.953125 74.21875 31.78125 74.21875 
Q 42.671875 74.21875 48.875 69.140625 
Q 55.078125 64.0625 55.078125 55.328125 
Q 55.078125 49.078125 51.53125 44.71875 
Q 48 40.375 41.703125 38.8125 
Q 48.828125 37.15625 52.796875 32.3125 
Q 56.78125 27.484375 56.78125 20.515625 
Q 56.78125 9.90625 50.3125 4.234375 
Q 43.84375 -1.421875 31.78125 -1.421875 
Q 19.734375 -1.421875 13.25 4.234375 
Q 6.78125 9.90625 6.78125 20.515625 
Q 6.78125 27.484375 10.78125 32.3125 
Q 14.796875 37.15625 21.921875 38.8125 
z
M 18.3125 54.390625 
Q 18.3125 48.734375 21.84375 45.5625 
Q 25.390625 42.390625 31.78125 42.390625 
Q 38.140625 42.390625 41.71875 45.5625 
Q 45.3125 48.734375 45.3125 54.390625 
Q 45.3125 60.0625 41.71875 63.234375 
Q 38.140625 66.40625 31.78125 66.40625 
Q 25.390625 66.40625 21.84375 63.234375 
Q 18.3125 60.0625 18.3125 54.390625 
z
" id="DejaVuSans-56"/>
       </defs>
       <use xlink:href="#DejaVuSans-48"/>
       <use x="63.623047" xlink:href="#DejaVuSans-46"/>
       <use x="95.410156" xlink:href="#DejaVuSans-56"/>
      </g>
     </g>
    </g>
    <g id="xtick_6">
     <g id="line2d_6">
      <g>
       <use style="stroke:#000000;stroke-width:0.8;" x="344.395969" xlink:href="#md26098b905" y="307.584"/>
      </g>
     </g>
     <g id="text_6">
      <!-- 1.0 -->
      <g transform="translate(336.444406 322.182437)scale(0.1 -0.1)">
       <defs>
        <path d="M 12.40625 8.296875 
L 28.515625 8.296875 
L 28.515625 63.921875 
L 10.984375 60.40625 
L 10.984375 69.390625 
L 28.421875 72.90625 
L 38.28125 72.90625 
L 38.28125 8.296875 
L 54.390625 8.296875 
L 54.390625 0 
L 12.40625 0 
z
" id="DejaVuSans-49"/>
       </defs>
       <use xlink:href="#DejaVuSans-49"/>
       <use x="63.623047" xlink:href="#DejaVuSans-46"/>
       <use x="95.410156" xlink:href="#DejaVuSans-48"/>
      </g>
     </g>
    </g>
    <g id="xtick_7">
     <g id="line2d_7">
      <g>
       <use style="stroke:#000000;stroke-width:0.8;" x="398.562784" xlink:href="#md26098b905" y="307.584"/>
      </g>
     </g>
     <g id="text_7">
      <!-- 1.2 -->
      <g transform="translate(390.611222 322.182437)scale(0.1 -0.1)">
       <use xlink:href="#DejaVuSans-49"/>
       <use x="63.623047" xlink:href="#DejaVuSans-46"/>
       <use x="95.410156" xlink:href="#DejaVuSans-50"/>
      </g>
     </g>
    </g>
    <g id="text_8">
     <!-- time [days] -->
     <g transform="translate(207.570937 335.860562)scale(0.1 -0.1)">
      <defs>
       <path d="M 18.3125 70.21875 
L 18.3125 54.6875 
L 36.8125 54.6875 
L 36.8125 47.703125 
L 18.3125 47.703125 
L 18.3125 18.015625 
Q 18.3125 11.328125 20.140625 9.421875 
Q 21.96875 7.515625 27.59375 7.515625 
L 36.8125 7.515625 
L 36.8125 0 
L 27.59375 0 
Q 17.1875 0 13.234375 3.875 
Q 9.28125 7.765625 9.28125 18.015625 
L 9.28125 47.703125 
L 2.6875 47.703125 
L 2.6875 54.6875 
L 9.28125 54.6875 
L 9.28125 70.21875 
z
" id="DejaVuSans-116"/>
       <path d="M 9.421875 54.6875 
L 18.40625 54.6875 
L 18.40625 0 
L 9.421875 0 
z
M 9.421875 75.984375 
L 18.40625 75.984375 
L 18.40625 64.59375 
L 9.421875 64.59375 
z
" id="DejaVuSans-105"/>
       <path d="M 52 44.1875 
Q 55.375 50.25 60.0625 53.125 
Q 64.75 56 71.09375 56 
Q 79.640625 56 84.28125 50.015625 
Q 88.921875 44.046875 88.921875 33.015625 
L 88.921875 0 
L 79.890625 0 
L 79.890625 32.71875 
Q 79.890625 40.578125 77.09375 44.375 
Q 74.3125 48.1875 68.609375 48.1875 
Q 61.625 48.1875 57.5625 43.546875 
Q 53.515625 38.921875 53.515625 30.90625 
L 53.515625 0 
L 44.484375 0 
L 44.484375 32.71875 
Q 44.484375 40.625 41.703125 44.40625 
Q 38.921875 48.1875 33.109375 48.1875 
Q 26.21875 48.1875 22.15625 43.53125 
Q 18.109375 38.875 18.109375 30.90625 
L 18.109375 0 
L 9.078125 0 
L 9.078125 54.6875 
L 18.109375 54.6875 
L 18.109375 46.1875 
Q 21.1875 51.21875 25.484375 53.609375 
Q 29.78125 56 35.6875 56 
Q 41.65625 56 45.828125 52.96875 
Q 50 49.953125 52 44.1875 
z
" id="DejaVuSans-109"/>
       <path d="M 56.203125 29.59375 
L 56.203125 25.203125 
L 14.890625 25.203125 
Q 15.484375 15.921875 20.484375 11.0625 
Q 25.484375 6.203125 34.421875 6.203125 
Q 39.59375 6.203125 44.453125 7.46875 
Q 49.3125 8.734375 54.109375 11.28125 
L 54.109375 2.78125 
Q 49.265625 0.734375 44.1875 -0.34375 
Q 39.109375 -1.421875 33.890625 -1.421875 
Q 20.796875 -1.421875 13.15625 6.1875 
Q 5.515625 13.8125 5.515625 26.8125 
Q 5.515625 40.234375 12.765625 48.109375 
Q 20.015625 56 32.328125 56 
Q 43.359375 56 49.78125 48.890625 
Q 56.203125 41.796875 56.203125 29.59375 
z
M 47.21875 32.234375 
Q 47.125 39.59375 43.09375 43.984375 
Q 39.0625 48.390625 32.421875 48.390625 
Q 24.90625 48.390625 20.390625 44.140625 
Q 15.875 39.890625 15.1875 32.171875 
z
" id="DejaVuSans-101"/>
       <path id="DejaVuSans-32"/>
       <path d="M 8.59375 75.984375 
L 29.296875 75.984375 
L 29.296875 69 
L 17.578125 69 
L 17.578125 -6.203125 
L 29.296875 -6.203125 
L 29.296875 -13.1875 
L 8.59375 -13.1875 
z
" id="DejaVuSans-91"/>
       <path d="M 45.40625 46.390625 
L 45.40625 75.984375 
L 54.390625 75.984375 
L 54.390625 0 
L 45.40625 0 
L 45.40625 8.203125 
Q 42.578125 3.328125 38.25 0.953125 
Q 33.9375 -1.421875 27.875 -1.421875 
Q 17.96875 -1.421875 11.734375 6.484375 
Q 5.515625 14.40625 5.515625 27.296875 
Q 5.515625 40.1875 11.734375 48.09375 
Q 17.96875 56 27.875 56 
Q 33.9375 56 38.25 53.625 
Q 42.578125 51.265625 45.40625 46.390625 
z
M 14.796875 27.296875 
Q 14.796875 17.390625 18.875 11.75 
Q 22.953125 6.109375 30.078125 6.109375 
Q 37.203125 6.109375 41.296875 11.75 
Q 45.40625 17.390625 45.40625 27.296875 
Q 45.40625 37.203125 41.296875 42.84375 
Q 37.203125 48.484375 30.078125 48.484375 
Q 22.953125 48.484375 18.875 42.84375 
Q 14.796875 37.203125 14.796875 27.296875 
z
" id="DejaVuSans-100"/>
       <path d="M 34.28125 27.484375 
Q 23.390625 27.484375 19.1875 25 
Q 14.984375 22.515625 14.984375 16.5 
Q 14.984375 11.71875 18.140625 8.90625 
Q 21.296875 6.109375 26.703125 6.109375 
Q 34.1875 6.109375 38.703125 11.40625 
Q 43.21875 16.703125 43.21875 25.484375 
L 43.21875 27.484375 
z
M 52.203125 31.203125 
L 52.203125 0 
L 43.21875 0 
L 43.21875 8.296875 
Q 40.140625 3.328125 35.546875 0.953125 
Q 30.953125 -1.421875 24.3125 -1.421875 
Q 15.921875 -1.421875 10.953125 3.296875 
Q 6 8.015625 6 15.921875 
Q 6 25.140625 12.171875 29.828125 
Q 18.359375 34.515625 30.609375 34.515625 
L 43.21875 34.515625 
L 43.21875 35.40625 
Q 43.21875 41.609375 39.140625 45 
Q 35.0625 48.390625 27.6875 48.390625 
Q 23 48.390625 18.546875 47.265625 
Q 14.109375 46.140625 10.015625 43.890625 
L 10.015625 52.203125 
Q 14.9375 54.109375 19.578125 55.046875 
Q 24.21875 56 28.609375 56 
Q 40.484375 56 46.34375 49.84375 
Q 52.203125 43.703125 52.203125 31.203125 
z
" id="DejaVuSans-97"/>
       <path d="M 32.171875 -5.078125 
Q 28.375 -14.84375 24.75 -17.8125 
Q 21.140625 -20.796875 15.09375 -20.796875 
L 7.90625 -20.796875 
L 7.90625 -13.28125 
L 13.1875 -13.28125 
Q 16.890625 -13.28125 18.9375 -11.515625 
Q 21 -9.765625 23.484375 -3.21875 
L 25.09375 0.875 
L 2.984375 54.6875 
L 12.5 54.6875 
L 29.59375 11.921875 
L 46.6875 54.6875 
L 56.203125 54.6875 
z
" id="DejaVuSans-121"/>
       <path d="M 44.28125 53.078125 
L 44.28125 44.578125 
Q 40.484375 46.53125 36.375 47.5 
Q 32.28125 48.484375 27.875 48.484375 
Q 21.1875 48.484375 17.84375 46.4375 
Q 14.5 44.390625 14.5 40.28125 
Q 14.5 37.15625 16.890625 35.375 
Q 19.28125 33.59375 26.515625 31.984375 
L 29.59375 31.296875 
Q 39.15625 29.25 43.1875 25.515625 
Q 47.21875 21.78125 47.21875 15.09375 
Q 47.21875 7.46875 41.1875 3.015625 
Q 35.15625 -1.421875 24.609375 -1.421875 
Q 20.21875 -1.421875 15.453125 -0.5625 
Q 10.6875 0.296875 5.421875 2 
L 5.421875 11.28125 
Q 10.40625 8.6875 15.234375 7.390625 
Q 20.0625 6.109375 24.8125 6.109375 
Q 31.15625 6.109375 34.5625 8.28125 
Q 37.984375 10.453125 37.984375 14.40625 
Q 37.984375 18.0625 35.515625 20.015625 
Q 33.0625 21.96875 24.703125 23.78125 
L 21.578125 24.515625 
Q 13.234375 26.265625 9.515625 29.90625 
Q 5.8125 33.546875 5.8125 39.890625 
Q 5.8125 47.609375 11.28125 51.796875 
Q 16.75 56 26.8125 56 
Q 31.78125 56 36.171875 55.265625 
Q 40.578125 54.546875 44.28125 53.078125 
z
" id="DejaVuSans-115"/>
       <path d="M 30.421875 75.984375 
L 30.421875 -13.1875 
L 9.71875 -13.1875 
L 9.71875 -6.203125 
L 21.390625 -6.203125 
L 21.390625 69 
L 9.71875 69 
L 9.71875 75.984375 
z
" id="DejaVuSans-93"/>
      </defs>
      <use xlink:href="#DejaVuSans-116"/>
      <use x="39.208984" xlink:href="#DejaVuSans-105"/>
      <use x="66.992188" xlink:href="#DejaVuSans-109"/>
      <use x="164.404297" xlink:href="#DejaVuSans-101"/>
      <use x="225.927734" xlink:href="#DejaVuSans-32"/>
      <use x="257.714844" xlink:href="#DejaVuSans-91"/>
      <use x="296.728516" xlink:href="#DejaVuSans-100"/>
      <use x="360.205078" xlink:href="#DejaVuSans-97"/>
      <use x="421.484375" xlink:href="#DejaVuSans-121"/>
      <use x="480.664062" xlink:href="#DejaVuSans-115"/>
      <use x="532.763672" xlink:href="#DejaVuSans-93"/>
     </g>
    </g>
   </g>
   <g id="matplotlib.axis_2">
    <g id="ytick_1">
     <g id="line2d_8">
      <defs>
       <path d="M 0 0 
L -3.5 0 
" id="mdf89df4614" style="stroke:#000000;stroke-width:0.8;"/>
      </defs>
      <g>
       <use style="stroke:#000000;stroke-width:0.8;" x="57.6" xlink:href="#mdf89df4614" y="299.045647"/>
      </g>
     </g>
     <g id="text_9">
      <!-- 0 -->
      <g transform="translate(44.2375 302.844866)scale(0.1 -0.1)">
       <use xlink:href="#DejaVuSans-48"/>
      </g>
     </g>
    </g>
    <g id="ytick_2">
     <g id="line2d_9">
      <g>
       <use style="stroke:#000000;stroke-width:0.8;" x="57.6" xlink:href="#mdf89df4614" y="263.469176"/>
      </g>
     </g>
     <g id="text_10">
      <!-- 10 -->
      <g transform="translate(37.875 267.268395)scale(0.1 -0.1)">
       <use xlink:href="#DejaVuSans-49"/>
       <use x="63.623047" xlink:href="#DejaVuSans-48"/>
      </g>
     </g>
    </g>
    <g id="ytick_3">
     <g id="line2d_10">
      <g>
       <use style="stroke:#000000;stroke-width:0.8;" x="57.6" xlink:href="#mdf89df4614" y="227.892706"/>
      </g>
     </g>
     <g id="text_11">
      <!-- 20 -->
      <g transform="translate(37.875 231.691925)scale(0.1 -0.1)">
       <use xlink:href="#DejaVuSans-50"/>
       <use x="63.623047" xlink:href="#DejaVuSans-48"/>
      </g>
     </g>
    </g>
    <g id="ytick_4">
     <g id="line2d_11">
      <g>
       <use style="stroke:#000000;stroke-width:0.8;" x="57.6" xlink:href="#mdf89df4614" y="192.316235"/>
      </g>
     </g>
     <g id="text_12">
      <!-- 30 -->
      <g transform="translate(37.875 196.115454)scale(0.1 -0.1)">
       <defs>
        <path d="M 40.578125 39.3125 
Q 47.65625 37.796875 51.625 33 
Q 55.609375 28.21875 55.609375 21.1875 
Q 55.609375 10.40625 48.1875 4.484375 
Q 40.765625 -1.421875 27.09375 -1.421875 
Q 22.515625 -1.421875 17.65625 -0.515625 
Q 12.796875 0.390625 7.625 2.203125 
L 7.625 11.71875 
Q 11.71875 9.328125 16.59375 8.109375 
Q 21.484375 6.890625 26.8125 6.890625 
Q 36.078125 6.890625 40.9375 10.546875 
Q 45.796875 14.203125 45.796875 21.1875 
Q 45.796875 27.640625 41.28125 31.265625 
Q 36.765625 34.90625 28.71875 34.90625 
L 20.21875 34.90625 
L 20.21875 43.015625 
L 29.109375 43.015625 
Q 36.375 43.015625 40.234375 45.921875 
Q 44.09375 48.828125 44.09375 54.296875 
Q 44.09375 59.90625 40.109375 62.90625 
Q 36.140625 65.921875 28.71875 65.921875 
Q 24.65625 65.921875 20.015625 65.03125 
Q 15.375 64.15625 9.8125 62.3125 
L 9.8125 71.09375 
Q 15.4375 72.65625 20.34375 73.4375 
Q 25.25 74.21875 29.59375 74.21875 
Q 40.828125 74.21875 47.359375 69.109375 
Q 53.90625 64.015625 53.90625 55.328125 
Q 53.90625 49.265625 50.4375 45.09375 
Q 46.96875 40.921875 40.578125 39.3125 
z
" id="DejaVuSans-51"/>
       </defs>
       <use xlink:href="#DejaVuSans-51"/>
       <use x="63.623047" xlink:href="#DejaVuSans-48"/>
      </g>
     </g>
    </g>
    <g id="ytick_5">
     <g id="line2d_12">
      <g>
       <use style="stroke:#000000;stroke-width:0.8;" x="57.6" xlink:href="#mdf89df4614" y="156.739765"/>
      </g>
     </g>
     <g id="text_13">
      <!-- 40 -->
      <g transform="translate(37.875 160.538983)scale(0.1 -0.1)">
       <use xlink:href="#DejaVuSans-52"/>
       <use x="63.623047" xlink:href="#DejaVuSans-48"/>
      </g>
     </g>
    </g>
    <g id="ytick_6">
     <g id="line2d_13">
      <g>
       <use style="stroke:#000000;stroke-width:0.8;" x="57.6" xlink:href="#mdf89df4614" y="121.163294"/>
      </g>
     </g>
     <g id="text_14">
      <!-- 50 -->
      <g transform="translate(37.875 124.962513)scale(0.1 -0.1)">
       <defs>
        <path d="M 10.796875 72.90625 
L 49.515625 72.90625 
L 49.515625 64.59375 
L 19.828125 64.59375 
L 19.828125 46.734375 
Q 21.96875 47.46875 24.109375 47.828125 
Q 26.265625 48.1875 28.421875 48.1875 
Q 40.625 48.1875 47.75 41.5 
Q 54.890625 34.8125 54.890625 23.390625 
Q 54.890625 11.625 47.5625 5.09375 
Q 40.234375 -1.421875 26.90625 -1.421875 
Q 22.3125 -1.421875 17.546875 -0.640625 
Q 12.796875 0.140625 7.71875 1.703125 
L 7.71875 11.625 
Q 12.109375 9.234375 16.796875 8.0625 
Q 21.484375 6.890625 26.703125 6.890625 
Q 35.15625 6.890625 40.078125 11.328125 
Q 45.015625 15.765625 45.015625 23.390625 
Q 45.015625 31 40.078125 35.4375 
Q 35.15625 39.890625 26.703125 39.890625 
Q 22.75 39.890625 18.8125 39.015625 
Q 14.890625 38.140625 10.796875 36.28125 
z
" id="DejaVuSans-53"/>
       </defs>
       <use xlink:href="#DejaVuSans-53"/>
       <use x="63.623047" xlink:href="#DejaVuSans-48"/>
      </g>
     </g>
    </g>
    <g id="ytick_7">
     <g id="line2d_14">
      <g>
       <use style="stroke:#000000;stroke-width:0.8;" x="57.6" xlink:href="#mdf89df4614" y="85.586824"/>
      </g>
     </g>
     <g id="text_15">
      <!-- 60 -->
      <g transform="translate(37.875 89.386042)scale(0.1 -0.1)">
       <use xlink:href="#DejaVuSans-54"/>
       <use x="63.623047" xlink:href="#DejaVuSans-48"/>
      </g>
     </g>
    </g>
    <g id="ytick_8">
     <g id="line2d_15">
      <g>
       <use style="stroke:#000000;stroke-width:0.8;" x="57.6" xlink:href="#mdf89df4614" y="50.010353"/>
      </g>
     </g>
     <g id="text_16">
      <!-- 70 -->
      <g transform="translate(37.875 53.809572)scale(0.1 -0.1)">
       <defs>
        <path d="M 8.203125 72.90625 
L 55.078125 72.90625 
L 55.078125 68.703125 
L 28.609375 0 
L 18.3125 0 
L 43.21875 64.59375 
L 8.203125 64.59375 
z
" id="DejaVuSans-55"/>
       </defs>
       <use xlink:href="#DejaVuSans-55"/>
       <use x="63.623047" xlink:href="#DejaVuSans-48"/>
      </g>
     </g>
    </g>
    <g id="text_17">
     <!-- Iterations -->
     <g transform="translate(31.795312 198.341281)rotate(-90)scale(0.1 -0.1)">
      <defs>
       <path d="M 9.8125 72.90625 
L 19.671875 72.90625 
L 19.671875 0 
L 9.8125 0 
z
" id="DejaVuSans-73"/>
       <path d="M 41.109375 46.296875 
Q 39.59375 47.171875 37.8125 47.578125 
Q 36.03125 48 33.890625 48 
Q 26.265625 48 22.1875 43.046875 
Q 18.109375 38.09375 18.109375 28.8125 
L 18.109375 0 
L 9.078125 0 
L 9.078125 54.6875 
L 18.109375 54.6875 
L 18.109375 46.1875 
Q 20.953125 51.171875 25.484375 53.578125 
Q 30.03125 56 36.53125 56 
Q 37.453125 56 38.578125 55.875 
Q 39.703125 55.765625 41.0625 55.515625 
z
" id="DejaVuSans-114"/>
       <path d="M 30.609375 48.390625 
Q 23.390625 48.390625 19.1875 42.75 
Q 14.984375 37.109375 14.984375 27.296875 
Q 14.984375 17.484375 19.15625 11.84375 
Q 23.34375 6.203125 30.609375 6.203125 
Q 37.796875 6.203125 41.984375 11.859375 
Q 46.1875 17.53125 46.1875 27.296875 
Q 46.1875 37.015625 41.984375 42.703125 
Q 37.796875 48.390625 30.609375 48.390625 
z
M 30.609375 56 
Q 42.328125 56 49.015625 48.375 
Q 55.71875 40.765625 55.71875 27.296875 
Q 55.71875 13.875 49.015625 6.21875 
Q 42.328125 -1.421875 30.609375 -1.421875 
Q 18.84375 -1.421875 12.171875 6.21875 
Q 5.515625 13.875 5.515625 27.296875 
Q 5.515625 40.765625 12.171875 48.375 
Q 18.84375 56 30.609375 56 
z
" id="DejaVuSans-111"/>
       <path d="M 54.890625 33.015625 
L 54.890625 0 
L 45.90625 0 
L 45.90625 32.71875 
Q 45.90625 40.484375 42.875 44.328125 
Q 39.84375 48.1875 33.796875 48.1875 
Q 26.515625 48.1875 22.3125 43.546875 
Q 18.109375 38.921875 18.109375 30.90625 
L 18.109375 0 
L 9.078125 0 
L 9.078125 54.6875 
L 18.109375 54.6875 
L 18.109375 46.1875 
Q 21.34375 51.125 25.703125 53.5625 
Q 30.078125 56 35.796875 56 
Q 45.21875 56 50.046875 50.171875 
Q 54.890625 44.34375 54.890625 33.015625 
z
" id="DejaVuSans-110"/>
      </defs>
      <use xlink:href="#DejaVuSans-73"/>
      <use x="29.492188" xlink:href="#DejaVuSans-116"/>
      <use x="68.701172" xlink:href="#DejaVuSans-101"/>
      <use x="130.224609" xlink:href="#DejaVuSans-114"/>
      <use x="171.337891" xlink:href="#DejaVuSans-97"/>
      <use x="232.617188" xlink:href="#DejaVuSans-116"/>
      <use x="271.826172" xlink:href="#DejaVuSans-105"/>
      <use x="299.609375" xlink:href="#DejaVuSans-111"/>
      <use x="360.791016" xlink:href="#DejaVuSans-110"/>
      <use x="424.169922" xlink:href="#DejaVuSans-115"/>
     </g>
    </g>
   </g>
   <g id="line2d_16">
    <path clip-path="url(#p15bdd85514)" d="M 73.832727 259.911529 
L 73.83322 295.488 
L 73.943625 291.930353 
L 75.350521 291.930353 
L 75.429639 288.372706 
L 75.459133 291.930353 
L 75.550003 291.930353 
L 75.636543 288.372706 
L 75.660699 291.930353 
L 75.689188 291.930353 
L 75.797959 288.372706 
L 75.823737 291.930353 
L 75.907092 288.372706 
L 75.916022 288.372706 
L 75.920498 291.930353 
L 75.95204 267.026824 
L 75.997748 284.815059 
L 76.01161 288.372706 
L 76.110633 267.026824 
L 76.203298 284.815059 
L 76.139574 263.469176 
L 76.223189 277.699765 
L 76.228183 277.699765 
L 76.319539 263.469176 
L 76.248243 288.372706 
L 76.335039 270.584471 
L 76.382018 288.372706 
L 76.371516 256.353882 
L 76.445792 277.699765 
L 76.467344 288.372706 
L 76.472755 263.469176 
L 76.532894 263.469176 
L 76.599816 256.353882 
L 76.605455 288.372706 
L 76.6395 259.911529 
L 76.668142 284.815059 
L 76.74379 281.257412 
L 76.839287 249.238588 
L 76.857493 267.026824 
L 76.962501 242.123294 
L 76.881918 284.815059 
L 76.968777 256.353882 
L 77.05782 284.815059 
L 77.064268 252.796235 
L 77.083675 270.584471 
L 77.182289 245.680941 
L 77.103186 281.257412 
L 77.188959 256.353882 
L 77.29046 281.257412 
L 77.263123 249.238588 
L 77.304203 274.142118 
L 77.394767 235.008 
L 77.401823 281.257412 
L 77.408891 281.257412 
L 77.415973 281.257412 
L 77.531075 245.680941 
L 77.634625 281.257412 
L 77.560386 213.662118 
L 77.642126 277.699765 
L 77.725564 217.219765 
L 77.664711 281.257412 
L 77.748621 220.777412 
L 77.81858 284.815059 
L 77.865888 267.026824 
L 77.929812 281.257412 
L 77.921768 206.546824 
L 77.970265 270.584471 
L 77.978402 220.777412 
L 77.986555 281.257412 
L 78.085628 238.565647 
L 78.136036 277.699765 
L 78.119168 224.335059 
L 78.187038 267.026824 
L 78.238643 274.142118 
L 78.299624 210.104471 
L 78.334851 277.699765 
L 78.415146 256.353882 
L 78.442233 252.796235 
L 78.506074 284.815059 
L 78.55223 213.662118 
L 78.617639 259.911529 
L 78.636499 227.892706 
L 78.645958 270.584471 
L 78.731967 249.238588 
L 78.799974 277.699765 
L 78.790198 224.335059 
L 78.829422 270.584471 
L 78.908858 210.104471 
L 78.938991 252.796235 
L 79.010044 267.026824 
L 78.959185 238.565647 
L 79.020281 245.680941 
L 79.092548 178.085647 
L 79.061444 274.142118 
L 79.113394 242.123294 
L 79.208315 274.142118 
L 79.165901 195.873882 
L 79.229659 256.353882 
L 79.240366 227.892706 
L 79.305096 274.142118 
L 79.337779 252.796235 
L 79.34872 281.257412 
L 79.359686 192.316235 
L 79.437124 256.353882 
L 79.481913 277.699765 
L 79.561256 185.200941 
L 79.630258 274.142118 
L 79.665108 252.796235 
L 79.676778 156.739765 
L 79.700195 267.026824 
L 79.771089 263.469176 
L 79.842958 220.777412 
L 79.794936 270.584471 
L 79.879265 256.353882 
L 79.928065 270.584471 
L 79.97732 178.085647 
L 80.022186 227.892706 
L 80.061453 174.528 
L 80.102827 220.777412 
L 80.144667 213.662118 
L 80.186816 160.297412 
L 80.229262 188.758588 
L 80.272005 206.546824 
L 80.357011 156.739765 
L 80.399128 231.450353 
L 80.441516 149.624471 
L 80.48419 146.066824 
L 80.527154 242.123294 
L 80.570408 142.509176 
L 80.613956 178.085647 
L 80.6578 142.509176 
L 80.746382 117.605647 
L 80.791125 146.066824 
L 80.836172 53.568 
L 80.881525 114.048 
L 80.927187 192.316235 
L 81.019447 170.970353 
L 81.066049 160.297412 
L 81.160208 60.683294 
L 81.20777 188.758588 
L 81.303871 170.970353 
L 81.40129 110.490353 
L 81.4505 128.278588 
L 81.500047 149.624471 
L 81.549934 92.702118 
L 81.600162 235.008 
L 81.650735 167.412706 
L 81.701654 128.278588 
L 81.751329 220.777412 
L 81.801182 195.873882 
L 82.055372 74.913882 
L 82.107229 149.624471 
L 82.15943 135.393882 
L 82.211979 121.163294 
L 82.321521 291.930353 
L 82.43413 288.372706 
L 82.458503 288.372706 
L 82.466646 291.930353 
L 82.565118 288.372706 
L 84.895378 288.372706 
L 85.016634 284.815059 
L 85.11699 288.372706 
L 85.218391 284.815059 
L 85.309411 288.372706 
L 85.320847 284.815059 
L 85.332297 284.815059 
L 85.447523 288.372706 
L 85.564086 284.815059 
L 85.622874 284.815059 
L 85.682003 288.372706 
L 85.729553 284.815059 
L 85.75341 284.815059 
L 85.801292 288.372706 
L 85.861456 284.815059 
L 85.970635 284.815059 
L 85.982836 288.372706 
L 86.080961 284.815059 
L 86.167573 284.815059 
L 86.204909 288.372706 
L 86.267426 284.815059 
L 86.305112 284.815059 
L 86.317704 288.372706 
L 86.406257 284.815059 
L 86.48274 284.815059 
L 86.49554 288.372706 
L 86.585558 284.815059 
L 86.676321 281.257412 
L 86.689348 284.815059 
L 86.728522 284.815059 
L 86.807286 281.257412 
L 86.833666 284.815059 
L 86.99326 284.815059 
L 87.114456 281.257412 
L 87.141565 281.257412 
L 87.223282 284.815059 
L 87.250652 281.257412 
L 87.319362 281.257412 
L 87.388486 284.815059 
L 87.43016 281.257412 
L 87.444084 281.257412 
L 87.542028 284.815059 
L 87.654982 281.257412 
L 87.740418 281.257412 
L 87.826479 284.815059 
L 87.840884 281.257412 
L 87.898678 281.257412 
L 87.913171 284.815059 
L 88.000501 281.257412 
L 88.059079 281.257412 
L 88.147487 277.699765 
L 88.177102 284.815059 
L 88.191937 284.815059 
L 88.296295 277.699765 
L 88.416676 284.815059 
L 88.462128 274.142118 
L 88.538261 281.257412 
L 88.614871 288.372706 
L 88.630251 281.257412 
L 88.707441 284.815059 
L 88.738453 274.142118 
L 88.847613 284.815059 
L 88.926179 270.584471 
L 88.957746 284.815059 
L 88.973559 284.815059 
L 89.037014 270.584471 
L 89.084819 281.257412 
L 89.11679 281.257412 
L 89.164902 284.815059 
L 89.229339 267.026824 
L 89.245501 284.815059 
L 89.342907 274.142118 
L 89.391894 263.469176 
L 89.473965 284.815059 
L 89.556571 274.142118 
L 89.589765 277.699765 
L 89.673131 281.257412 
L 89.639719 267.026824 
L 89.689869 277.699765 
L 89.757046 281.257412 
L 89.807661 263.469176 
L 89.909495 284.815059 
L 89.926547 281.257412 
L 89.977837 281.257412 
L 89.99498 284.815059 
L 90.012145 274.142118 
L 90.046545 277.699765 
L 90.098317 267.026824 
L 90.11562 284.815059 
L 90.132947 274.142118 
L 90.237399 284.815059 
L 90.360334 277.699765 
L 90.377992 277.699765 
L 90.395673 281.257412 
L 90.413379 274.142118 
L 90.448862 274.142118 
L 90.52012 267.026824 
L 90.537996 281.257412 
L 90.663814 277.699765 
L 90.681887 277.699765 
L 90.699985 284.815059 
L 90.772628 277.699765 
L 90.827376 270.584471 
L 90.864001 277.699765 
L 90.900728 284.815059 
L 90.974491 281.257412 
L 91.030085 277.699765 
L 91.067278 281.257412 
L 91.123264 281.257412 
L 91.141979 270.584471 
L 91.16072 284.815059 
L 91.235951 274.142118 
L 91.254826 274.142118 
L 91.349603 284.815059 
L 91.36864 281.257412 
L 91.406795 270.584471 
L 91.502663 274.142118 
L 91.61862 281.257412 
L 91.696487 274.142118 
L 91.73559 277.699765 
L 91.755185 277.699765 
L 91.79446 270.584471 
L 91.83385 281.257412 
L 91.873356 274.142118 
L 91.972631 281.257412 
L 92.012547 270.584471 
L 92.072643 277.699765 
L 92.133007 270.584471 
L 92.193642 281.257412 
L 92.234216 274.142118 
L 92.315732 277.699765 
L 92.356674 277.699765 
L 92.43893 281.257412 
L 92.459573 270.584471 
L 92.500951 281.257412 
L 92.563255 274.142118 
L 92.60495 277.699765 
L 92.667733 270.584471 
L 92.773016 277.699765 
L 92.79417 270.584471 
L 92.879116 277.699765 
L 92.900435 277.699765 
L 92.921787 281.257412 
L 92.943173 274.142118 
L 92.986044 274.142118 
L 93.02905 274.142118 
L 93.050603 263.469176 
L 93.072191 277.699765 
L 93.115467 274.142118 
L 93.180639 277.699765 
L 93.202431 274.142118 
L 93.268017 270.584471 
L 93.24612 277.699765 
L 93.289948 277.699765 
L 93.311914 277.699765 
L 93.355952 281.257412 
L 93.378024 270.584471 
L 93.400131 274.142118 
L 93.488915 267.026824 
L 93.5112 281.257412 
L 93.600702 274.142118 
L 93.623168 281.257412 
L 93.645671 263.469176 
L 93.690786 270.584471 
L 93.758736 281.257412 
L 93.804221 274.142118 
L 93.849855 274.142118 
L 93.872729 267.026824 
L 93.89564 281.257412 
L 93.941576 270.584471 
L 93.987665 281.257412 
L 94.080301 277.699765 
L 94.150185 281.257412 
L 94.173558 263.469176 
L 94.291011 281.257412 
L 94.40946 259.911529 
L 94.43327 277.699765 
L 94.504946 270.584471 
L 94.552934 256.353882 
L 94.57699 277.699765 
L 94.601087 274.142118 
L 94.625225 274.142118 
L 94.649405 277.699765 
L 94.770934 263.469176 
L 94.893523 274.142118 
L 94.918169 259.911529 
L 94.992367 274.142118 
L 95.116906 259.911529 
L 95.141946 274.142118 
L 95.242553 270.584471 
L 95.267817 256.353882 
L 95.31848 274.142118 
L 95.34388 274.142118 
L 95.420355 267.026824 
L 95.445938 270.584471 
L 95.497244 259.911529 
L 95.548736 277.699765 
L 95.626326 256.353882 
L 95.67829 274.142118 
L 95.704343 274.142118 
L 95.730444 277.699765 
L 95.809035 259.911529 
L 95.835329 274.142118 
L 95.914504 277.699765 
L 95.967532 256.353882 
L 96.100972 274.142118 
L 96.235671 263.469176 
L 96.262764 277.699765 
L 96.344351 274.142118 
L 96.399002 274.142118 
L 96.405572 277.699765 
L 96.521806 135.393882 
L 96.646576 284.815059 
L 96.741171 267.026824 
L 96.757016 281.257412 
L 96.836587 270.584471 
L 96.80469 284.815059 
L 96.85257 281.257412 
L 96.932831 288.372706 
L 96.884605 274.142118 
L 96.948952 281.257412 
L 96.965097 281.257412 
L 96.981265 270.584471 
L 97.029908 288.372706 
L 97.062454 281.257412 
L 97.078762 288.372706 
L 97.127827 270.584471 
L 97.144229 277.699765 
L 97.177105 284.815059 
L 97.25971 267.026824 
L 97.359625 288.372706 
L 97.37091 284.815059 
L 97.471799 288.372706 
L 97.488698 263.469176 
L 97.590609 288.372706 
L 97.607681 284.815059 
L 97.710632 263.469176 
L 97.762445 288.372706 
L 97.831881 284.815059 
L 97.849303 267.026824 
L 97.936796 270.584471 
L 98.0959 284.815059 
L 98.131542 288.372706 
L 98.221103 267.026824 
L 98.329446 288.372706 
L 98.257111 259.911529 
L 98.347596 281.257412 
L 98.420462 288.372706 
L 98.457057 277.699765 
L 98.530569 267.026824 
L 98.56748 284.815059 
L 98.623003 267.026824 
L 98.678714 277.699765 
L 98.697326 288.372706 
L 98.771984 284.815059 
L 98.846975 274.142118 
L 98.865775 281.257412 
L 98.903438 284.815059 
L 98.9223 274.142118 
L 98.941184 281.257412 
L 98.979014 284.815059 
L 99.016927 267.026824 
L 99.035915 288.372706 
L 99.131168 284.815059 
L 99.150281 284.815059 
L 99.169416 281.257412 
L 99.188571 288.372706 
L 99.246161 284.815059 
L 99.2654 284.815059 
L 99.342563 277.699765 
L 99.323241 288.372706 
L 99.361906 281.257412 
L 99.439487 288.372706 
L 99.458935 284.815059 
L 99.517403 274.142118 
L 99.576059 281.257412 
L 99.615267 281.257412 
L 99.674237 267.026824 
L 99.693935 288.372706 
L 99.733394 277.699765 
L 99.753155 277.699765 
L 99.872158 288.372706 
L 99.892066 267.026824 
L 99.971903 284.815059 
L 100.011946 284.815059 
L 100.032 274.142118 
L 100.112421 281.257412 
L 100.132579 284.815059 
L 100.152757 277.699765 
L 100.213418 281.257412 
L 100.294591 277.699765 
L 100.314936 284.815059 
L 100.376098 277.699765 
L 100.396527 270.584471 
L 100.437447 281.257412 
L 100.457938 281.257412 
L 100.478451 281.257412 
L 100.540113 284.815059 
L 100.519538 270.584471 
L 100.560709 277.699765 
L 100.581325 277.699765 
L 100.601963 274.142118 
L 100.622621 281.257412 
L 100.684721 277.699765 
L 100.705463 277.699765 
L 100.767813 281.257412 
L 100.788638 277.699765 
L 100.851239 263.469176 
L 100.914027 270.584471 
L 101.040166 281.257412 
L 101.124675 281.257412 
L 101.145855 284.815059 
L 101.167055 274.142118 
L 101.188276 277.699765 
L 101.230781 281.257412 
L 101.273369 274.142118 
L 101.380204 281.257412 
L 101.423084 274.142118 
L 101.466047 281.257412 
L 101.48756 284.815059 
L 101.509094 274.142118 
L 101.552224 277.699765 
L 101.57382 270.584471 
L 101.660414 277.699765 
L 101.682114 274.142118 
L 101.769124 277.699765 
L 101.834601 274.142118 
L 101.878356 281.257412 
L 101.922195 277.699765 
L 101.98811 281.257412 
L 102.054212 277.699765 
L 102.120502 284.815059 
L 102.253645 274.142118 
L 102.342825 284.815059 
L 102.365172 277.699765 
L 102.432339 277.699765 
L 102.499694 284.815059 
L 102.544702 281.257412 
L 102.657587 274.142118 
L 102.770996 281.257412 
L 102.907779 281.257412 
L 103.02234 274.142118 
L 103.068312 284.815059 
L 103.137427 281.257412 
L 103.206731 284.815059 
L 103.229875 274.142118 
L 103.253039 284.815059 
L 103.345908 277.699765 
L 103.415781 277.699765 
L 103.439114 274.142118 
L 103.485844 277.699765 
L 103.50924 281.257412 
L 103.579556 277.699765 
L 103.697173 274.142118 
L 103.791647 277.699765 
L 103.862726 274.142118 
L 103.839012 281.257412 
L 103.886461 277.699765 
L 103.910218 284.815059 
L 103.981615 277.699765 
L 104.077109 274.142118 
L 104.124984 284.815059 
L 104.172945 274.142118 
L 104.245046 274.142118 
L 104.389825 284.815059 
L 104.535377 274.142118 
L 104.559711 274.142118 
L 104.584067 270.584471 
L 104.632843 277.699765 
L 104.657263 274.142118 
L 104.681705 274.142118 
L 104.706168 284.815059 
L 104.804238 281.257412 
L 104.927313 277.699765 
L 104.951993 277.699765 
L 105.050931 274.142118 
L 105.100531 277.699765 
L 105.150219 274.142118 
L 105.224914 274.142118 
L 105.299806 270.584471 
L 105.374896 281.257412 
L 105.425066 277.699765 
L 105.450185 281.257412 
L 105.475325 274.142118 
L 105.500487 274.142118 
L 105.550878 274.142118 
L 105.677243 277.699765 
L 105.727945 274.142118 
L 105.753329 281.257412 
L 105.778736 277.699765 
L 105.880585 284.815059 
L 106.0084 274.142118 
L 106.111057 284.815059 
L 106.136778 270.584471 
L 106.214076 274.142118 
L 106.369283 281.257412 
L 106.473211 270.584471 
L 106.525312 281.257412 
L 106.603636 277.699765 
L 106.62979 277.699765 
L 106.655967 281.257412 
L 106.682167 274.142118 
L 106.734636 277.699765 
L 106.813514 270.584471 
L 106.8926 281.257412 
L 106.945441 274.142118 
L 106.971896 274.142118 
L 106.998375 270.584471 
L 107.024877 281.257412 
L 107.051403 274.142118 
L 107.104525 284.815059 
L 107.131121 277.699765 
L 107.157741 270.584471 
L 107.184384 281.257412 
L 107.237741 277.699765 
L 107.291193 270.584471 
L 107.371549 281.257412 
L 107.398382 270.584471 
L 107.479024 274.142118 
L 107.532905 281.257412 
L 107.586882 277.699765 
L 107.613906 270.584471 
L 107.695124 274.142118 
L 107.722245 274.142118 
L 107.749391 267.026824 
L 107.830972 274.142118 
L 107.912773 270.584471 
L 108.022183 281.257412 
L 108.077035 274.142118 
L 108.104498 277.699765 
L 108.131986 284.815059 
L 108.159499 274.142118 
L 108.187036 281.257412 
L 108.269797 270.584471 
L 108.297434 277.699765 
L 108.325095 277.699765 
L 108.46378 270.584471 
L 108.519429 270.584471 
L 108.603093 274.142118 
L 108.658996 277.699765 
L 108.715 267.026824 
L 108.771107 281.257412 
L 108.855459 277.699765 
L 108.883628 281.257412 
L 108.911823 267.026824 
L 108.996561 277.699765 
L 109.10991 270.584471 
L 109.138312 274.142118 
L 109.195195 270.584471 
L 109.223676 263.469176 
L 109.252183 274.142118 
L 109.309277 267.026824 
L 109.337863 267.026824 
L 109.395115 274.142118 
L 109.423781 263.469176 
L 109.452474 281.257412 
L 109.509939 270.584471 
L 109.538711 270.584471 
L 109.596337 267.026824 
L 109.62519 270.584471 
L 109.65407 270.584471 
L 109.682977 274.142118 
L 109.711911 270.584471 
L 109.76986 267.026824 
L 109.827918 277.699765 
L 109.886086 274.142118 
L 109.91521 267.026824 
L 109.973542 270.584471 
L 110.061246 284.815059 
L 110.207973 263.469176 
L 110.296345 277.699765 
L 110.325858 274.142118 
L 110.3554 263.469176 
L 110.444193 270.584471 
L 110.473848 270.584471 
L 110.533243 281.257412 
L 110.562983 277.699765 
L 110.652362 263.469176 
L 110.682227 267.026824 
L 110.771965 281.257412 
L 110.831935 277.699765 
L 110.892022 281.257412 
L 110.952225 267.026824 
L 111.103249 277.699765 
L 111.163865 267.026824 
L 111.194218 270.584471 
L 111.224601 277.699765 
L 111.315929 274.142118 
L 111.376965 277.699765 
L 111.407528 274.142118 
L 111.468745 277.699765 
L 111.530083 267.026824 
L 111.683966 284.815059 
L 111.994055 259.911529 
L 112.181618 277.699765 
L 112.370333 256.353882 
L 112.465128 277.699765 
L 112.496791 274.142118 
L 112.591977 263.469176 
L 112.623772 267.026824 
L 112.751282 270.584471 
L 112.783242 270.584471 
L 112.815236 281.257412 
L 112.879325 270.584471 
L 112.943548 263.469176 
L 113.007907 267.026824 
L 113.072402 277.699765 
L 113.137033 274.142118 
L 113.201801 277.699765 
L 113.234237 263.469176 
L 113.266707 274.142118 
L 113.331752 267.026824 
L 113.364327 267.026824 
L 113.396937 270.584471 
L 113.527726 259.911529 
L 113.65908 277.699765 
L 113.692008 270.584471 
L 113.724971 263.469176 
L 113.791006 270.584471 
L 113.824077 267.026824 
L 113.890328 270.584471 
L 113.923508 270.584471 
L 113.989978 252.796235 
L 114.056594 259.911529 
L 114.089957 277.699765 
L 114.156794 270.584471 
L 114.223779 259.911529 
L 114.290914 274.142118 
L 114.324537 270.584471 
L 114.358198 263.469176 
L 114.391897 277.699765 
L 114.594886 256.353882 
L 114.730977 277.699765 
L 114.86769 256.353882 
L 114.936281 252.796235 
L 114.970635 267.026824 
L 115.005029 256.353882 
L 115.073937 267.026824 
L 115.10845 274.142118 
L 115.143003 270.584471 
L 115.177596 259.911529 
L 115.21223 274.142118 
L 115.246904 270.584471 
L 115.281618 267.026824 
L 115.316372 270.584471 
L 115.351168 281.257412 
L 115.386004 263.469176 
L 115.525757 274.142118 
L 115.560799 270.584471 
L 115.666172 263.469176 
L 115.70138 270.584471 
L 115.771921 267.026824 
L 115.807255 259.911529 
L 115.842631 277.699765 
L 115.91351 267.026824 
L 116.020148 263.469176 
L 116.127173 267.026824 
L 116.234589 256.353882 
L 116.320241 274.142118 
L 116.355196 259.911529 
L 116.398529 281.257412 
L 116.420264 277.699765 
L 116.573293 284.815059 
L 117.20047 284.815059 
L 117.223318 281.257412 
L 117.246198 288.372706 
L 117.292051 284.815059 
L 117.315025 284.815059 
L 117.33803 288.372706 
L 117.407235 284.815059 
L 117.546501 284.815059 
L 117.569823 281.257412 
L 117.639983 284.815059 
L 117.686916 284.815059 
L 117.757558 281.257412 
L 117.78117 284.815059 
L 117.875941 284.815059 
L 117.899715 288.372706 
L 117.971234 284.815059 
L 117.995138 281.257412 
L 118.06705 284.815059 
L 118.115155 284.815059 
L 118.139257 281.257412 
L 118.211762 284.815059 
L 118.235997 288.372706 
L 118.3089 284.815059 
L 118.382104 284.815059 
L 118.504782 281.257412 
L 118.603532 284.815059 
L 118.702824 281.257412 
L 118.827709 284.815059 
L 118.978705 284.815059 
L 119.029314 281.257412 
L 119.080062 284.815059 
L 119.105488 284.815059 
L 119.130949 281.257412 
L 119.156445 288.372706 
L 119.207542 284.815059 
L 119.25878 284.815059 
L 119.387491 281.257412 
L 119.41334 288.372706 
L 119.491098 281.257412 
L 119.517088 281.257412 
L 119.543115 277.699765 
L 119.595275 281.257412 
L 119.726303 284.815059 
L 119.858233 284.815059 
L 119.911259 277.699765 
L 119.991072 281.257412 
L 120.01775 281.257412 
L 120.044464 277.699765 
L 120.071214 284.815059 
L 120.098002 284.815059 
L 120.124826 284.815059 
L 120.151687 281.257412 
L 120.232492 284.815059 
L 120.259501 284.815059 
L 120.340751 277.699765 
L 120.367909 284.815059 
L 120.395104 284.815059 
L 120.476914 274.142118 
L 120.531641 281.257412 
L 120.614014 284.815059 
L 120.641547 274.142118 
L 120.724374 277.699765 
L 120.835341 284.815059 
L 120.974911 274.142118 
L 121.087258 284.815059 
L 121.171924 277.699765 
L 121.228562 284.815059 
L 121.25694 277.699765 
L 121.313812 277.699765 
L 121.428025 281.257412 
L 121.456677 281.257412 
L 121.485367 277.699765 
L 121.514098 284.815059 
L 121.542867 281.257412 
L 121.571677 284.815059 
L 121.629414 281.257412 
L 121.68731 277.699765 
L 121.716318 281.257412 
L 121.745365 281.257412 
L 121.80358 284.815059 
L 121.832748 281.257412 
L 121.979187 274.142118 
L 122.038045 274.142118 
L 122.156246 281.257412 
L 122.215591 274.142118 
L 122.245324 284.815059 
L 122.424584 270.584471 
L 122.514769 284.815059 
L 122.544914 281.257412 
L 122.5751 277.699765 
L 122.605327 284.815059 
L 122.635596 284.815059 
L 122.665906 277.699765 
L 122.757087 281.257412 
L 122.879248 281.257412 
L 122.971309 270.584471 
L 123.002081 274.142118 
L 123.094649 281.257412 
L 123.218668 274.142118 
L 123.280933 281.257412 
L 123.34337 277.699765 
L 123.405978 281.257412 
L 123.437347 277.699765 
L 123.468759 274.142118 
L 123.500213 281.257412 
L 123.531712 281.257412 
L 123.626466 274.142118 
L 123.658137 277.699765 
L 123.689852 274.142118 
L 123.753413 277.699765 
L 123.817149 281.257412 
L 123.849082 277.699765 
L 123.88106 274.142118 
L 123.913081 281.257412 
L 123.945147 281.257412 
L 124.009409 270.584471 
L 124.041607 277.699765 
L 124.106135 277.699765 
L 124.235725 281.257412 
L 124.398716 274.142118 
L 124.529917 284.815059 
L 124.595788 270.584471 
L 124.661841 277.699765 
L 124.694935 270.584471 
L 124.761261 274.142118 
L 124.794492 274.142118 
L 124.861091 267.026824 
L 124.89446 274.142118 
L 124.961335 274.142118 
L 125.028393 267.026824 
L 125.061992 274.142118 
L 125.095636 277.699765 
L 125.129327 267.026824 
L 125.196849 277.699765 
L 125.264556 270.584471 
L 125.332449 274.142118 
L 125.366466 274.142118 
L 125.40053 277.699765 
L 125.537254 267.026824 
L 125.674732 274.142118 
L 125.70922 267.026824 
L 125.743756 277.699765 
L 125.778339 270.584471 
L 125.789623 281.257412 
L 125.893543 277.699765 
L 126.032347 270.584471 
L 126.10186 277.699765 
L 126.136644 274.142118 
L 126.171447 274.142118 
L 126.275965 270.584471 
L 126.380646 277.699765 
L 126.415576 267.026824 
L 126.48549 270.584471 
L 126.520473 284.815059 
L 126.590495 277.699765 
L 126.625532 277.699765 
L 126.836128 267.026824 
L 126.976877 274.142118 
L 127.117904 270.584471 
L 127.153205 270.584471 
L 127.188522 267.026824 
L 127.223857 274.142118 
L 127.259208 274.142118 
L 127.329964 270.584471 
L 127.365367 274.142118 
L 127.400787 274.142118 
L 127.436224 281.257412 
L 127.471679 270.584471 
L 127.50715 274.142118 
L 127.542638 277.699765 
L 127.649204 267.026824 
L 127.791529 277.699765 
L 127.862791 267.026824 
L 127.934121 270.584471 
L 128.005517 270.584471 
L 128.07698 267.026824 
L 128.184298 281.257412 
L 128.327621 267.026824 
L 128.363493 267.026824 
L 128.507145 277.699765 
L 128.651059 263.469176 
L 128.831319 281.257412 
L 128.93967 267.026824 
L 128.97582 277.699765 
L 129.048168 270.584471 
L 129.120581 274.142118 
L 129.193059 267.026824 
L 129.229322 267.026824 
L 129.265602 277.699765 
L 129.338209 270.584471 
L 129.374538 270.584471 
L 129.410882 267.026824 
L 129.447242 274.142118 
L 129.483619 274.142118 
L 129.556421 270.584471 
L 129.592846 277.699765 
L 129.629288 267.026824 
L 129.702219 270.584471 
L 129.848276 277.699765 
L 129.957989 270.584471 
L 129.921402 281.257412 
L 129.994593 274.142118 
L 130.031212 277.699765 
L 130.177853 267.026824 
L 130.288004 281.257412 
L 130.36152 274.142118 
L 130.471915 267.026824 
L 130.508747 284.815059 
L 130.582458 270.584471 
L 130.619338 270.584471 
L 130.767023 267.026824 
L 130.951998 277.699765 
L 131.063182 270.584471 
L 131.100276 274.142118 
L 131.137387 270.584471 
L 131.211659 270.584471 
L 131.323191 277.699765 
L 131.472134 267.026824 
L 131.546707 277.699765 
L 131.584018 274.142118 
L 131.696054 263.469176 
L 131.733433 267.026824 
L 131.808242 277.699765 
L 131.845672 274.142118 
L 131.883119 267.026824 
L 131.920584 277.699765 
L 131.958065 277.699765 
L 131.995563 281.257412 
L 132.145729 270.584471 
L 132.183314 267.026824 
L 132.220916 277.699765 
L 132.296171 274.142118 
L 132.333825 270.584471 
L 132.371497 274.142118 
L 132.409186 277.699765 
L 132.484616 267.026824 
L 132.597894 281.257412 
L 132.673501 270.584471 
L 132.711331 274.142118 
L 132.749179 281.257412 
L 132.787045 270.584471 
L 132.824928 277.699765 
L 132.900749 267.026824 
L 132.976642 270.584471 
L 133.014616 270.584471 
L 133.052607 267.026824 
L 133.128645 274.142118 
L 133.166691 267.026824 
L 133.204756 270.584471 
L 133.242839 274.142118 
L 133.28094 267.026824 
L 133.31906 274.142118 
L 133.395354 274.142118 
L 133.433529 267.026824 
L 133.471723 277.699765 
L 133.509935 277.699765 
L 133.662972 270.584471 
L 133.701278 281.257412 
L 133.777947 277.699765 
L 133.893094 274.142118 
L 133.931514 274.142118 
L 133.969954 277.699765 
L 134.008413 270.584471 
L 134.046891 277.699765 
L 134.085388 277.699765 
L 134.123905 281.257412 
L 134.162442 277.699765 
L 134.278169 277.699765 
L 134.316783 281.257412 
L 134.432747 274.142118 
L 134.471441 274.142118 
L 134.510155 267.026824 
L 134.548889 270.584471 
L 134.626417 274.142118 
L 134.665212 267.026824 
L 134.704027 270.584471 
L 134.742862 284.815059 
L 134.820593 274.142118 
L 134.859489 270.584471 
L 134.898406 274.142118 
L 134.937344 284.815059 
L 135.015281 277.699765 
L 135.05428 274.142118 
L 135.093301 281.257412 
L 135.171404 277.699765 
L 135.210488 270.584471 
L 135.288718 274.142118 
L 135.406223 281.257412 
L 135.563196 267.026824 
L 135.602493 270.584471 
L 135.681154 284.815059 
L 135.720516 277.699765 
L 135.838737 274.142118 
L 135.917662 284.815059 
L 135.957157 277.699765 
L 135.996656 267.026824 
L 136.036209 284.815059 
L 136.115358 274.142118 
L 136.154967 284.815059 
L 136.234253 277.699765 
L 136.31363 274.142118 
L 136.393099 281.257412 
L 136.472662 267.026824 
L 136.512478 277.699765 
L 136.552318 277.699765 
L 136.592181 281.257412 
L 136.711912 274.142118 
L 136.871887 284.815059 
L 137.032249 274.142118 
L 137.233253 284.815059 
L 137.313828 277.699765 
L 137.354153 281.257412 
L 137.434879 274.142118 
L 137.47528 281.257412 
L 137.556158 277.699765 
L 137.596636 277.699765 
L 137.637139 284.815059 
L 137.677668 274.142118 
L 137.718222 277.699765 
L 137.758803 270.584471 
L 137.79941 281.257412 
L 137.840042 274.142118 
L 138.002837 284.815059 
L 138.125211 270.584471 
L 138.206929 281.257412 
L 138.247828 274.142118 
L 138.329708 274.142118 
L 138.411697 277.699765 
L 138.452733 274.142118 
L 138.493797 281.257412 
L 138.534888 277.699765 
L 138.617154 274.142118 
L 138.740764 284.815059 
L 138.823313 277.699765 
L 138.947349 284.815059 
L 138.988752 274.142118 
L 139.071645 281.257412 
L 139.196204 274.142118 
L 139.237782 281.257412 
L 139.321028 277.699765 
L 139.362695 270.584471 
L 139.404393 274.142118 
L 139.536999 281.257412 
L 139.562713 270.584471 
L 139.639039 284.815059 
L 139.715889 284.815059 
L 139.818866 288.372706 
L 139.844702 284.815059 
L 139.922425 288.372706 
L 140.078848 288.372706 
L 140.210197 284.815059 
L 140.342457 288.372706 
L 140.395617 288.372706 
L 140.529159 284.815059 
L 140.663624 288.372706 
L 140.690628 288.372706 
L 140.826206 284.815059 
L 141.045079 284.815059 
L 141.127778 288.372706 
L 141.155421 284.815059 
L 141.266369 284.815059 
L 141.377929 288.372706 
L 141.490102 284.815059 
L 141.546419 288.372706 
L 141.574636 284.815059 
L 141.602891 284.815059 
L 141.631186 288.372706 
L 141.68789 284.815059 
L 141.716301 284.815059 
L 141.801767 288.372706 
L 141.830334 284.815059 
L 141.887585 288.372706 
L 141.944993 288.372706 
L 142.060281 284.815059 
L 142.089202 284.815059 
L 142.118163 288.372706 
L 142.176203 284.815059 
L 142.263561 284.815059 
L 142.380597 288.372706 
L 142.498274 284.815059 
L 142.676 284.815059 
L 142.705763 288.372706 
L 142.765411 284.815059 
L 142.855188 284.815059 
L 142.885195 288.372706 
L 142.945333 284.815059 
L 143.005635 284.815059 
L 143.035848 288.372706 
L 143.096397 284.815059 
L 143.463175 284.815059 
L 143.586771 288.372706 
L 143.711041 284.815059 
L 143.77343 284.815059 
L 143.867331 288.372706 
L 143.993129 284.815059 
L 144.119612 288.372706 
L 144.15134 288.372706 
L 144.278682 284.815059 
L 144.406717 284.815059 
L 144.438834 288.372706 
L 144.503199 284.815059 
L 144.795004 284.815059 
L 144.893064 288.372706 
L 145.02443 284.815059 
L 145.090379 284.815059 
L 145.12342 288.372706 
L 145.189637 284.815059 
L 145.322606 284.815059 
L 145.422804 288.372706 
L 145.489828 284.815059 
L 145.523408 288.372706 
L 145.557033 288.372706 
L 145.691986 284.815059 
L 145.793677 284.815059 
L 145.929905 288.372706 
L 145.998294 288.372706 
L 146.135623 284.815059 
L 146.377727 284.815059 
L 146.447317 288.372706 
L 146.482182 284.815059 
L 146.552053 284.815059 
L 146.587058 281.257412 
L 146.657209 284.815059 
L 147.225213 284.815059 
L 147.261117 281.257412 
L 147.333069 284.815059 
L 147.477549 284.815059 
L 147.550078 281.257412 
L 147.586415 284.815059 
L 147.6228 284.815059 
L 147.768825 281.257412 
L 147.805453 281.257412 
L 147.842129 284.815059 
L 147.915628 281.257412 
L 147.952451 281.257412 
L 148.100231 284.815059 
L 148.137299 281.257412 
L 148.174415 284.815059 
L 148.211581 288.372706 
L 148.323376 281.257412 
L 148.435615 284.815059 
L 148.510689 281.257412 
L 148.623673 284.815059 
L 148.661434 281.257412 
L 148.699245 284.815059 
L 148.737106 284.815059 
L 148.85099 281.257412 
L 148.927164 284.815059 
L 149.003539 281.257412 
L 149.041802 284.815059 
L 149.080116 281.257412 
L 149.156895 281.257412 
L 149.272444 284.815059 
L 149.311063 284.815059 
L 149.427223 281.257412 
L 149.543843 284.815059 
L 149.582819 284.815059 
L 149.700055 281.257412 
L 149.817755 284.815059 
L 149.857092 281.257412 
L 149.89648 284.815059 
L 149.93592 284.815059 
L 150.054553 281.257412 
L 150.173654 281.257412 
L 150.253315 284.815059 
L 150.373201 281.257412 
L 150.49356 284.815059 
L 150.614393 284.815059 
L 150.735703 281.257412 
L 150.816842 281.257412 
L 150.857491 284.815059 
L 150.898194 281.257412 
L 150.93895 281.257412 
L 151.020622 284.815059 
L 151.102509 281.257412 
L 151.225742 284.815059 
L 151.308167 284.815059 
L 151.34946 281.257412 
L 151.390807 284.815059 
L 151.723543 284.815059 
L 151.84922 281.257412 
L 151.891222 281.257412 
L 151.933278 284.815059 
L 151.97539 281.257412 
L 152.017558 281.257412 
L 152.14439 284.815059 
L 152.271721 277.699765 
L 152.399553 281.257412 
L 152.570777 281.257412 
L 152.613723 277.699765 
L 152.656725 281.257412 
L 152.699784 281.257412 
L 152.742899 277.699765 
L 152.78607 281.257412 
L 152.829298 281.257412 
L 152.915923 277.699765 
L 153.046286 281.257412 
L 153.264697 281.257412 
L 153.308551 277.699765 
L 153.352463 281.257412 
L 153.396431 281.257412 
L 153.484541 277.699765 
L 153.572882 281.257412 
L 153.661454 277.699765 
L 153.705827 281.257412 
L 153.750259 277.699765 
L 153.883901 277.699765 
L 153.928566 274.142118 
L 153.973288 277.699765 
L 154.06291 277.699765 
L 154.107808 274.142118 
L 154.152766 277.699765 
L 154.242858 277.699765 
L 154.287992 281.257412 
L 154.333186 277.699765 
L 154.423751 277.699765 
L 154.469122 281.257412 
L 154.514553 277.699765 
L 154.560044 277.699765 
L 154.651204 281.257412 
L 154.788393 277.699765 
L 154.926123 281.257412 
L 155.064397 277.699765 
L 155.156882 281.257412 
L 155.296066 277.699765 
L 155.342534 277.699765 
L 155.48194 281.257412 
L 155.574872 281.257412 
L 155.714263 284.815059 
L 155.807186 284.815059 
L 155.853646 288.372706 
L 155.900106 284.815059 
L 155.993022 281.257412 
L 156.039479 284.815059 
L 156.085936 281.257412 
L 156.225301 281.257412 
L 156.364661 288.372706 
L 156.457565 284.815059 
L 156.504017 288.372706 
L 156.550468 284.815059 
L 156.64337 284.815059 
L 156.736272 288.372706 
L 156.922073 281.257412 
L 157.061426 288.372706 
L 157.107877 284.815059 
L 157.154329 288.372706 
L 157.293686 288.372706 
L 157.340139 281.257412 
L 157.386594 284.815059 
L 157.433048 284.815059 
L 157.52596 288.372706 
L 157.618876 281.257412 
L 157.665335 284.815059 
L 157.711795 288.372706 
L 157.758256 284.815059 
L 157.944114 284.815059 
L 158.083522 281.257412 
L 158.17647 281.257412 
L 158.315904 288.372706 
L 158.501846 281.257412 
L 158.827338 281.257412 
L 158.920361 284.815059 
L 158.966877 281.257412 
L 159.013396 284.815059 
L 159.106444 284.815059 
L 159.246042 281.257412 
L 159.292582 281.257412 
L 159.432225 284.815059 
L 159.47878 284.815059 
L 159.618472 281.257412 
L 159.758204 281.257412 
L 159.897977 284.815059 
L 159.944579 284.815059 
L 159.991185 281.257412 
L 160.037796 284.815059 
L 160.131035 284.815059 
L 160.224295 281.257412 
L 160.364229 284.815059 
L 160.410885 284.815059 
L 160.550891 281.257412 
L 160.64426 284.815059 
L 160.737656 281.257412 
L 160.784363 284.815059 
L 160.831078 281.257412 
L 160.971265 281.257412 
L 161.018008 284.815059 
L 161.064759 281.257412 
L 161.158284 281.257412 
L 161.205058 284.815059 
L 161.25184 277.699765 
L 161.298629 281.257412 
L 161.345427 281.257412 
L 161.48587 284.815059 
L 161.626391 281.257412 
L 161.673249 281.257412 
L 161.813876 284.815059 
L 162.001512 277.699765 
L 162.142341 281.257412 
L 162.189304 277.699765 
L 162.236278 281.257412 
L 162.377261 281.257412 
L 162.424277 284.815059 
L 162.471304 281.257412 
L 162.518342 281.257412 
L 162.659512 284.815059 
L 162.800798 277.699765 
L 162.989346 284.815059 
L 163.130886 281.257412 
L 163.225311 281.257412 
L 163.272542 284.815059 
L 163.319787 281.257412 
L 163.367045 281.257412 
L 163.5089 284.815059 
L 163.65088 267.026824 
L 163.679735 277.699765 
L 163.819207 284.815059 
L 163.847238 284.815059 
L 163.959791 288.372706 
L 164.016322 284.815059 
L 164.044651 288.372706 
L 164.129892 288.372706 
L 164.244138 291.930353 
L 164.330268 288.372706 
L 164.445702 291.930353 
L 164.474668 291.930353 
L 164.561819 288.372706 
L 164.678621 291.930353 
L 165.152749 291.930353 
L 165.273028 295.488 
L 165.885089 295.488 
L 165.978449 288.372706 
L 166.040916 295.488 
L 166.072218 291.930353 
L 166.134959 295.488 
L 166.197882 288.372706 
L 174.50929 288.372706 
L 174.595687 284.815059 
L 174.725715 288.372706 
L 175.031144 288.372706 
L 175.075009 284.815059 
L 175.118933 288.372706 
L 175.162916 288.372706 
L 175.295213 284.815059 
L 175.383705 288.372706 
L 175.428039 284.815059 
L 175.472431 288.372706 
L 175.605962 288.372706 
L 175.65059 284.815059 
L 175.695277 288.372706 
L 175.740024 288.372706 
L 175.874618 284.815059 
L 175.964643 284.815059 
L 176.009745 288.372706 
L 176.054907 284.815059 
L 176.327127 284.815059 
L 176.418346 288.372706 
L 176.509804 284.815059 
L 176.555623 288.372706 
L 176.601503 284.815059 
L 176.785622 284.815059 
L 176.831803 288.372706 
L 176.878044 284.815059 
L 177.11016 284.815059 
L 177.203431 288.372706 
L 177.343796 284.815059 
L 177.390706 284.815059 
L 177.531804 288.372706 
L 177.57896 288.372706 
L 177.720794 284.815059 
L 178.729251 284.815059 
L 178.777961 288.372706 
L 178.826733 284.815059 
L 178.973428 281.257412 
L 179.120692 284.815059 
L 179.219186 284.815059 
L 179.367404 281.257412 
L 179.416937 288.372706 
L 179.466534 281.257412 
L 179.61571 288.372706 
L 179.765464 281.257412 
L 179.915797 284.815059 
L 180.016342 284.815059 
L 180.066711 281.257412 
L 180.117146 284.815059 
L 180.370293 284.815059 
L 180.421118 281.257412 
L 180.472009 284.815059 
L 180.625073 284.815059 
L 180.676226 288.372706 
L 180.727444 284.815059 
L 180.881495 284.815059 
L 180.932978 281.257412 
L 180.984526 284.815059 
L 181.036141 284.815059 
L 181.087822 281.257412 
L 181.13957 284.815059 
L 181.243265 284.815059 
L 181.295213 281.257412 
L 181.347227 284.815059 
L 181.451456 284.815059 
L 181.503671 281.257412 
L 181.555953 284.815059 
L 181.660719 284.815059 
L 181.818374 281.257412 
L 181.976638 284.815059 
L 182.135513 284.815059 
L 182.295002 281.257412 
L 182.348302 281.257412 
L 182.401671 284.815059 
L 182.455108 281.257412 
L 182.508614 281.257412 
L 182.562189 284.815059 
L 182.615833 281.257412 
L 182.669546 281.257412 
L 182.8311 284.815059 
L 182.993279 281.257412 
L 183.210496 281.257412 
L 183.374146 284.815059 
L 183.428837 284.815059 
L 183.593333 281.257412 
L 183.758469 284.815059 
L 183.813656 277.699765 
L 183.868915 284.815059 
L 183.979648 284.815059 
L 184.090668 281.257412 
L 184.257737 281.257412 
L 184.313572 277.699765 
L 184.369478 284.815059 
L 184.425458 281.257412 
L 184.48151 281.257412 
L 184.537635 277.699765 
L 184.593833 284.815059 
L 184.650104 281.257412 
L 184.706448 281.257412 
L 184.762865 263.469176 
L 184.819275 274.142118 
L 184.932012 281.257412 
L 185.325687 281.257412 
L 185.381815 284.815059 
L 185.437915 277.699765 
L 185.493989 281.257412 
L 185.718019 281.257412 
L 185.773963 277.699765 
L 185.885774 281.257412 
L 185.941642 281.257412 
L 185.997486 284.815059 
L 186.109101 281.257412 
L 186.164874 284.815059 
L 186.276348 281.257412 
L 186.721355 281.257412 
L 186.776885 277.699765 
L 186.832395 281.257412 
L 186.887884 281.257412 
L 186.943354 277.699765 
L 186.998804 281.257412 
L 187.054234 281.257412 
L 187.220413 277.699765 
L 187.331106 281.257412 
L 187.497014 277.699765 
L 187.607534 277.699765 
L 187.66277 281.257412 
L 187.717989 277.699765 
L 187.828379 277.699765 
L 187.890649 274.142118 
L 187.920191 277.699765 
L 188.068954 284.815059 
L 188.218971 284.815059 
L 188.309572 288.372706 
L 188.43106 284.815059 
L 188.461555 284.815059 
L 188.584027 288.372706 
L 189.592588 288.372706 
L 189.689811 295.488 
L 189.722322 291.930353 
L 189.7875 295.488 
L 189.91848 295.488 
L 189.951355 291.930353 
L 190.017263 295.488 
L 190.21625 295.488 
L 190.249599 291.930353 
L 190.316456 295.488 
L 190.552135 295.488 
L 190.586018 291.930353 
L 190.653944 295.488 
L 190.722086 295.488 
L 190.756238 291.930353 
L 190.824704 295.488 
L 190.893386 295.488 
L 191.031405 291.930353 
L 191.170298 295.488 
L 191.275044 295.488 
L 191.31007 291.930353 
L 191.380286 295.488 
L 191.556798 295.488 
L 191.627792 288.372706 
L 191.69901 291.930353 
L 191.734702 295.488 
L 191.770451 291.930353 
L 191.842116 288.372706 
L 191.878033 295.488 
L 191.950037 288.372706 
L 191.986123 288.372706 
L 192.058465 291.930353 
L 192.09472 288.372706 
L 199.176823 288.372706 
L 199.223648 284.815059 
L 199.270537 288.372706 
L 199.458751 288.372706 
L 199.600598 284.815059 
L 199.695492 288.372706 
L 199.790648 284.815059 
L 199.933875 288.372706 
L 199.98175 284.815059 
L 200.02969 288.372706 
L 200.270381 288.372706 
L 200.415589 284.815059 
L 200.707794 284.815059 
L 200.756728 288.372706 
L 200.805728 284.815059 
L 201.249725 284.815059 
L 201.299391 288.372706 
L 201.349125 284.815059 
L 201.749407 284.815059 
L 201.799745 281.257412 
L 201.850149 284.815059 
L 201.900621 284.815059 
L 202.001767 281.257412 
L 202.153992 284.815059 
L 202.306825 284.815059 
L 202.357904 288.372706 
L 202.409051 284.815059 
L 202.562899 284.815059 
L 202.665803 288.372706 
L 202.820669 284.815059 
L 202.872427 288.372706 
L 202.924253 284.815059 
L 203.184406 284.815059 
L 203.236641 281.257412 
L 203.288945 284.815059 
L 203.341317 284.815059 
L 203.446267 281.257412 
L 203.498844 288.372706 
L 203.55149 281.257412 
L 203.709841 284.815059 
L 203.762762 284.815059 
L 203.815751 288.372706 
L 203.975134 281.257412 
L 204.081733 288.372706 
L 204.135137 284.815059 
L 204.242151 284.815059 
L 204.295762 288.372706 
L 204.349442 284.815059 
L 204.510898 284.815059 
L 204.67298 281.257412 
L 204.727146 281.257412 
L 204.781382 277.699765 
L 204.835687 281.257412 
L 204.944507 281.257412 
L 204.999022 277.699765 
L 205.053607 281.257412 
L 205.492807 281.257412 
L 205.658667 277.699765 
L 205.825161 281.257412 
L 205.936511 277.699765 
L 206.048144 277.699765 
L 206.104067 284.815059 
L 206.160061 277.699765 
L 206.272262 284.815059 
L 206.328469 284.815059 
L 206.384748 281.257412 
L 206.441097 284.815059 
L 206.497519 281.257412 
L 206.554011 284.815059 
L 206.723918 277.699765 
L 206.837548 281.257412 
L 206.951465 277.699765 
L 207.065669 281.257412 
L 207.180162 277.699765 
L 207.237517 277.699765 
L 207.294944 274.142118 
L 207.410016 281.257412 
L 207.525377 277.699765 
L 207.583167 281.257412 
L 207.641029 277.699765 
L 207.698965 284.815059 
L 207.756973 281.257412 
L 207.873208 281.257412 
L 207.989735 274.142118 
L 208.106556 277.699765 
L 208.22367 277.699765 
L 208.282337 281.257412 
L 208.399893 277.699765 
L 208.458782 281.257412 
L 208.576781 274.142118 
L 208.754011 281.257412 
L 208.872264 277.699765 
L 208.990598 281.257412 
L 209.049795 277.699765 
L 209.227516 284.815059 
L 209.286799 284.815059 
L 209.346103 277.699765 
L 209.40543 284.815059 
L 209.464779 277.699765 
L 209.52415 284.815059 
L 209.583544 277.699765 
L 209.642961 281.257412 
L 209.761864 277.699765 
L 209.880861 281.257412 
L 209.940395 281.257412 
L 210.059536 274.142118 
L 210.178776 281.257412 
L 210.357822 274.142118 
L 210.417555 274.142118 
L 210.477314 281.257412 
L 210.537099 274.142118 
L 210.59691 277.699765 
L 210.656747 277.699765 
L 210.716612 274.142118 
L 210.776503 281.257412 
L 210.836421 274.142118 
L 210.896366 277.699765 
L 210.956339 277.699765 
L 211.076368 274.142118 
L 211.136425 281.257412 
L 211.19651 277.699765 
L 211.256623 277.699765 
L 211.316766 274.142118 
L 211.376937 277.699765 
L 211.437137 274.142118 
L 211.557627 277.699765 
L 211.617916 274.142118 
L 211.738585 277.699765 
L 211.798965 274.142118 
L 211.980291 281.257412 
L 212.040795 277.699765 
L 212.052166 281.257412 
L 212.406664 188.758588 
L 212.533036 284.815059 
L 212.564859 284.815059 
L 212.692711 288.372706 
L 212.724814 288.372706 
L 212.82146 284.815059 
L 212.951111 288.372706 
L 213.545854 288.372706 
L 213.680573 295.488 
L 213.816235 288.372706 
L 213.952848 295.488 
L 214.090419 291.930353 
L 214.124962 291.930353 
L 214.263741 295.488 
L 214.298588 295.488 
L 214.333495 281.257412 
L 214.403492 288.372706 
L 215.520357 288.372706 
L 215.5574 295.488 
L 215.63168 291.930353 
L 215.743584 291.930353 
L 215.781015 288.372706 
L 215.818512 291.930353 
L 215.8937 291.930353 
L 215.969149 295.488 
L 216.006972 288.372706 
L 216.044861 295.488 
L 216.120835 295.488 
L 216.158921 291.930353 
L 216.197073 295.488 
L 216.311925 295.488 
L 216.350341 291.930353 
L 216.388824 295.488 
L 216.46599 295.488 
L 216.543422 288.372706 
L 216.660071 295.488 
L 216.699088 291.930353 
L 216.738173 295.488 
L 216.934606 295.488 
L 216.974095 291.930353 
L 217.013652 295.488 
L 217.212457 295.488 
L 217.332559 291.930353 
L 217.37273 291.930353 
L 217.412969 295.488 
L 217.453277 291.930353 
L 217.574615 288.372706 
L 222.759498 288.372706 
L 222.808498 284.815059 
L 222.857573 288.372706 
L 222.955948 288.372706 
L 223.005248 284.815059 
L 223.054623 288.372706 
L 223.104073 288.372706 
L 223.203199 284.815059 
L 223.352453 288.372706 
L 225.039065 288.372706 
L 225.143932 284.815059 
L 225.3018 288.372706 
L 225.407424 288.372706 
L 225.56643 284.815059 
L 225.672813 288.372706 
L 225.886489 281.257412 
L 225.993782 288.372706 
L 226.155292 284.815059 
L 226.20928 288.372706 
L 226.263344 284.815059 
L 226.3717 284.815059 
L 226.534804 288.372706 
L 226.589324 284.815059 
L 226.64392 288.372706 
L 226.698592 288.372706 
L 226.863063 284.815059 
L 226.973091 288.372706 
L 227.138702 284.815059 
L 227.24949 288.372706 
L 227.360581 284.815059 
L 227.471977 284.815059 
L 227.527789 281.257412 
L 227.639641 284.815059 
L 227.807989 284.815059 
L 227.864257 288.372706 
L 227.977022 284.815059 
L 228.717411 284.815059 
L 228.774897 281.257412 
L 228.890097 284.815059 
L 228.947811 281.257412 
L 229.063469 284.815059 
L 229.47067 284.815059 
L 229.529146 281.257412 
L 229.646328 284.815059 
L 230.058868 284.815059 
L 230.177424 281.257412 
L 230.415452 281.257412 
L 230.534925 284.815059 
L 230.594776 281.257412 
L 230.654703 284.815059 
L 230.714708 281.257412 
L 230.774788 284.815059 
L 230.895179 281.257412 
L 230.955489 284.815059 
L 231.015876 281.257412 
L 231.07634 284.815059 
L 231.13688 281.257412 
L 231.258191 284.815059 
L 231.318961 284.815059 
L 231.440732 281.257412 
L 231.501732 281.257412 
L 231.56281 284.815059 
L 231.623964 281.257412 
L 231.685195 284.815059 
L 231.746503 281.257412 
L 231.807888 284.815059 
L 231.930888 281.257412 
L 232.054146 281.257412 
L 232.177429 284.815059 
L 232.239071 281.257412 
L 232.362357 284.815059 
L 232.485646 281.257412 
L 232.793904 281.257412 
L 232.855564 284.815059 
L 232.978892 281.257412 
L 233.040562 281.257412 
L 233.102236 284.815059 
L 233.225597 281.257412 
L 233.966242 281.257412 
L 234.028008 277.699765 
L 234.151565 281.257412 
L 234.213357 281.257412 
L 234.275157 277.699765 
L 234.336967 284.815059 
L 234.398786 277.699765 
L 234.460615 281.257412 
L 234.522454 277.699765 
L 234.646163 281.257412 
L 234.955628 281.257412 
L 235.017556 284.815059 
L 235.079496 281.257412 
L 235.141449 284.815059 
L 235.265393 281.257412 
L 235.637552 281.257412 
L 235.76172 277.699765 
L 235.885949 281.257412 
L 236.208421 281.257412 
L 236.594222 192.316235 
L 236.725995 288.372706 
L 237.367296 288.372706 
L 237.40167 291.930353 
L 237.470607 288.372706 
L 237.644055 288.372706 
L 237.783959 291.930353 
L 237.889562 288.372706 
L 237.995745 291.930353 
L 238.138234 288.372706 
L 238.28177 291.930353 
L 238.499058 291.930353 
L 238.645251 295.488 
L 238.681968 291.930353 
L 238.755603 295.488 
L 238.82951 295.488 
L 238.866565 291.930353 
L 238.903688 295.488 
L 238.97814 295.488 
L 239.015469 291.930353 
L 239.052866 295.488 
L 239.622168 295.488 
L 239.660684 291.930353 
L 239.69927 295.488 
L 239.815459 295.488 
L 239.932292 291.930353 
L 239.97138 295.488 
L 240.010541 291.930353 
L 240.049773 291.930353 
L 240.167908 288.372706 
L 240.446112 288.372706 
L 240.48615 291.930353 
L 240.526262 288.372706 
L 243.941597 288.372706 
L 243.988109 281.257412 
L 244.034706 284.815059 
L 244.175014 288.372706 
L 248.588724 288.372706 
L 248.643378 284.815059 
L 248.698122 288.372706 
L 248.973185 288.372706 
L 249.083836 284.815059 
L 249.194845 288.372706 
L 249.250484 288.372706 
L 249.306212 284.815059 
L 249.417936 288.372706 
L 249.473932 284.815059 
L 249.530018 288.372706 
L 249.586192 284.815059 
L 249.642456 288.372706 
L 249.69881 284.815059 
L 249.811784 288.372706 
L 249.868404 284.815059 
L 249.981913 288.372706 
L 250.152845 288.372706 
L 250.267244 284.815059 
L 250.324577 284.815059 
L 250.43951 288.372706 
L 250.554798 284.815059 
L 250.728396 284.815059 
L 250.786439 288.372706 
L 250.902792 284.815059 
L 251.136559 284.815059 
L 251.195222 288.372706 
L 251.312812 284.815059 
L 251.549052 284.815059 
L 251.608333 288.372706 
L 251.727157 284.815059 
L 252.025757 284.815059 
L 252.085741 288.372706 
L 252.20597 284.815059 
L 252.32655 284.815059 
L 252.386971 288.372706 
L 252.508075 284.815059 
L 252.812363 284.815059 
L 252.873482 281.257412 
L 252.995981 284.815059 
L 253.489447 284.815059 
L 253.55152 281.257412 
L 253.675926 284.815059 
L 253.988448 284.815059 
L 254.11406 281.257412 
L 254.176994 284.815059 
L 254.303121 281.257412 
L 254.366314 284.815059 
L 254.492955 281.257412 
L 254.556404 284.815059 
L 254.619939 281.257412 
L 254.747265 284.815059 
L 255.324453 284.815059 
L 255.38901 281.257412 
L 255.51838 284.815059 
L 255.778135 284.815059 
L 255.843286 281.257412 
L 255.973841 284.815059 
L 256.235963 284.815059 
L 256.301704 281.257412 
L 256.43344 284.815059 
L 256.499434 284.815059 
L 256.565512 281.257412 
L 256.697635 284.815059 
L 256.76366 284.815059 
L 256.89564 281.257412 
L 256.961596 284.815059 
L 257.093441 281.257412 
L 257.15933 281.257412 
L 257.291047 284.815059 
L 257.488472 284.815059 
L 257.554242 281.257412 
L 257.619993 284.815059 
L 257.685726 281.257412 
L 257.751441 284.815059 
L 257.817138 281.257412 
L 257.948484 284.815059 
L 258.014132 281.257412 
L 258.145381 284.815059 
L 258.604301 284.815059 
L 258.669808 281.257412 
L 258.735304 284.815059 
L 258.800788 281.257412 
L 258.931723 284.815059 
L 259.062616 281.257412 
L 259.19347 284.815059 
L 259.258883 281.257412 
L 259.324288 284.815059 
L 259.455073 281.257412 
L 259.520454 281.257412 
L 259.651194 284.815059 
L 259.716554 284.815059 
L 259.847256 281.257412 
L 259.912599 281.257412 
L 259.977936 284.815059 
L 260.108597 281.257412 
L 260.318181 281.257412 
L 260.509601 245.680941 
L 260.644915 288.372706 
L 262.096765 288.372706 
L 262.133619 291.930353 
L 262.20754 288.372706 
L 262.619218 288.372706 
L 262.657076 291.930353 
L 262.695007 288.372706 
L 262.809239 288.372706 
L 262.885761 291.930353 
L 262.962577 288.372706 
L 263.078358 291.930353 
L 263.19481 291.930353 
L 263.233777 288.372706 
L 263.272819 295.488 
L 263.35113 291.930353 
L 263.469163 295.488 
L 263.50866 295.488 
L 263.548232 291.930353 
L 263.587882 295.488 
L 263.66741 295.488 
L 263.707289 291.930353 
L 263.747246 295.488 
L 263.907845 295.488 
L 263.948189 291.930353 
L 263.988611 295.488 
L 264.110348 295.488 
L 264.151083 291.930353 
L 264.191898 295.488 
L 264.355948 295.488 
L 264.479821 291.930353 
L 264.604415 295.488 
L 264.729734 291.930353 
L 264.855784 291.930353 
L 264.982567 288.372706 
L 271.246845 288.372706 
L 271.301357 284.815059 
L 271.355974 288.372706 
L 271.410694 288.372706 
L 271.465519 284.815059 
L 271.520448 288.372706 
L 271.907891 288.372706 
L 272.019538 284.815059 
L 272.07552 284.815059 
L 272.187804 288.372706 
L 272.244106 288.372706 
L 272.300515 284.815059 
L 272.35703 288.372706 
L 272.413653 284.815059 
L 272.470383 288.372706 
L 272.52722 284.815059 
L 272.641218 288.372706 
L 272.698378 284.815059 
L 272.755647 288.372706 
L 272.813023 284.815059 
L 272.870508 288.372706 
L 273.043616 277.699765 
L 273.2177 288.372706 
L 273.275947 284.815059 
L 273.392769 288.372706 
L 273.451343 284.815059 
L 273.568821 288.372706 
L 273.627723 288.372706 
L 273.745854 284.815059 
L 273.864422 288.372706 
L 273.923869 288.372706 
L 273.983425 284.815059 
L 274.102864 288.372706 
L 274.463787 288.372706 
L 274.524321 284.815059 
L 274.645714 288.372706 
L 274.706572 288.372706 
L 274.767539 284.815059 
L 274.889797 288.372706 
L 275.19733 288.372706 
L 275.321097 284.815059 
L 275.383142 288.372706 
L 275.445294 284.815059 
L 275.507553 288.372706 
L 275.632393 284.815059 
L 275.694974 284.815059 
L 275.757662 288.372706 
L 275.820456 284.815059 
L 275.946365 288.372706 
L 276.136027 288.372706 
L 276.263 284.815059 
L 276.582286 284.815059 
L 276.64646 288.372706 
L 276.775124 284.815059 
L 277.490267 284.815059 
L 277.555906 288.372706 
L 277.687493 284.815059 
L 279.230188 284.815059 
L 279.298475 281.257412 
L 279.43535 284.815059 
L 279.64141 284.815059 
L 279.710295 281.257412 
L 279.779279 284.815059 
L 279.848362 281.257412 
L 279.917544 284.815059 
L 279.986824 281.257412 
L 280.12568 284.815059 
L 280.264928 281.257412 
L 280.334699 281.257412 
L 280.404567 284.815059 
L 280.474533 281.257412 
L 280.614757 284.815059 
L 280.75537 281.257412 
L 280.825821 281.257412 
L 280.967013 284.815059 
L 281.037753 284.815059 
L 281.10859 281.257412 
L 281.179523 284.815059 
L 281.321676 281.257412 
L 281.392895 284.815059 
L 281.46421 281.257412 
L 281.535621 284.815059 
L 281.607126 281.257412 
L 281.678726 284.815059 
L 281.750422 281.257412 
L 281.894096 284.815059 
L 282.037967 281.257412 
L 282.109816 281.257412 
L 282.253343 284.815059 
L 282.325022 281.257412 
L 282.468217 284.815059 
L 282.539733 281.257412 
L 282.682609 284.815059 
L 282.825279 281.257412 
L 282.896539 281.257412 
L 283.038912 284.815059 
L 283.110026 284.815059 
L 283.181093 281.257412 
L 283.252114 284.815059 
L 283.323089 281.257412 
L 283.394018 284.815059 
L 283.535744 281.257412 
L 283.748011 281.257412 
L 283.818683 284.815059 
L 283.959906 281.257412 
L 284.171445 281.257412 
L 284.241883 277.699765 
L 284.394572 281.257412 
L 284.675006 235.008 
L 284.815621 288.372706 
L 287.721999 288.372706 
L 287.763279 291.930353 
L 287.804643 288.372706 
L 288.05459 288.372706 
L 288.180705 291.930353 
L 288.307589 291.930353 
L 288.435245 295.488 
L 288.563679 291.930353 
L 288.692896 295.488 
L 288.736144 291.930353 
L 288.779479 295.488 
L 289.085296 295.488 
L 289.129339 291.930353 
L 289.173472 295.488 
L 289.306409 295.488 
L 289.440158 291.930353 
L 289.66489 291.930353 
L 289.800828 288.372706 
L 295.857972 288.372706 
L 295.915677 284.815059 
L 296.031429 288.372706 
L 296.264314 288.372706 
L 296.322824 284.815059 
L 296.381449 288.372706 
L 296.440191 284.815059 
L 296.558021 288.372706 
L 296.617111 288.372706 
L 296.735641 284.815059 
L 296.795081 288.372706 
L 296.914313 284.815059 
L 297.034014 288.372706 
L 297.094042 284.815059 
L 297.214451 288.372706 
L 297.335333 288.372706 
L 297.45669 284.815059 
L 297.517547 288.372706 
L 297.639618 284.815059 
L 297.762168 284.815059 
L 297.823623 281.257412 
L 297.946892 284.815059 
L 299.528829 284.815059 
L 299.593709 281.257412 
L 299.658713 284.815059 
L 299.723842 281.257412 
L 299.854476 284.815059 
L 299.919982 281.257412 
L 300.051368 284.815059 
L 300.183259 281.257412 
L 300.315654 284.815059 
L 300.382042 281.257412 
L 300.515197 284.815059 
L 300.783033 284.815059 
L 300.85031 281.257412 
L 300.98525 284.815059 
L 301.052911 281.257412 
L 301.18862 284.815059 
L 301.324843 281.257412 
L 301.461582 284.815059 
L 301.530146 284.815059 
L 301.598838 281.257412 
L 301.736613 284.815059 
L 301.805695 277.699765 
L 301.874905 281.257412 
L 302.013715 284.815059 
L 304.083904 284.815059 
L 304.157166 281.257412 
L 304.304057 284.815059 
L 305.345808 284.815059 
L 305.421111 281.257412 
L 305.572069 284.815059 
L 305.647724 284.815059 
L 305.723495 281.257412 
L 305.799382 284.815059 
L 305.875384 281.257412 
L 306.027736 284.815059 
L 306.104085 281.257412 
L 306.180548 284.815059 
L 306.333816 281.257412 
L 306.487539 281.257412 
L 306.564571 284.815059 
L 306.718971 281.257412 
L 306.79634 281.257412 
L 306.87382 284.815059 
L 307.029115 281.257412 
L 307.106929 284.815059 
L 307.184853 281.257412 
L 307.262887 284.815059 
L 307.419286 281.257412 
L 308.363492 281.257412 
L 308.441866 267.026824 
L 308.585871 284.815059 
L 308.62183 284.815059 
L 308.766327 288.372706 
L 312.671409 288.372706 
L 312.805364 291.930353 
L 312.850206 288.372706 
L 312.895142 291.930353 
L 313.030526 291.930353 
L 313.075845 295.488 
L 313.121261 291.930353 
L 313.166774 291.930353 
L 313.303892 295.488 
L 313.349793 291.930353 
L 313.395791 295.488 
L 313.627253 295.488 
L 313.673841 291.930353 
L 313.720529 295.488 
L 313.908273 295.488 
L 313.95546 291.930353 
L 314.002746 295.488 
L 314.192901 295.488 
L 314.336582 291.930353 
L 314.529588 291.930353 
L 314.675423 288.372706 
L 320.409408 288.372706 
L 320.470313 284.815059 
L 320.5925 288.372706 
L 320.900185 288.372706 
L 320.962103 284.815059 
L 321.086323 288.372706 
L 321.273614 288.372706 
L 321.399117 284.815059 
L 321.462062 288.372706 
L 321.588339 284.815059 
L 321.651672 284.815059 
L 321.715134 288.372706 
L 321.842449 284.815059 
L 322.034398 284.815059 
L 322.098642 288.372706 
L 322.227524 284.815059 
L 327.523803 284.815059 
L 327.671976 281.257412 
L 327.820139 284.815059 
L 328.042372 284.815059 
L 328.116448 281.257412 
L 328.190524 284.815059 
L 328.338677 281.257412 
L 328.412754 284.815059 
L 328.486832 277.699765 
L 328.709079 284.815059 
L 328.783166 281.257412 
L 328.857256 284.815059 
L 329.005446 281.257412 
L 329.672631 281.257412 
L 329.746784 284.815059 
L 329.895113 281.257412 
L 330.266082 281.257412 
L 330.42678 277.699765 
L 330.588065 284.815059 
L 330.912408 284.815059 
L 330.99386 281.257412 
L 331.157197 284.815059 
L 331.239083 284.815059 
L 331.321111 281.257412 
L 331.485598 284.815059 
L 331.650652 281.257412 
L 331.81627 284.815059 
L 331.982447 281.257412 
L 332.065744 281.257412 
L 332.232752 284.815059 
L 332.316461 281.257412 
L 332.400308 284.815059 
L 332.415113 281.257412 
L 332.815064 224.335059 
L 332.964801 288.372706 
L 338.38852 288.372706 
L 338.537967 295.488 
L 338.688415 291.930353 
L 338.839871 295.488 
L 338.941405 295.488 
L 338.992342 291.930353 
L 339.043392 295.488 
L 339.145834 295.488 
L 339.300354 291.930353 
L 339.612508 291.930353 
L 339.770155 288.372706 
L 345.162846 288.372706 
L 345.227512 284.815059 
L 345.292317 288.372706 
L 345.357263 284.815059 
L 345.422349 288.372706 
L 345.552942 284.815059 
L 345.948108 284.815059 
L 346.014466 288.372706 
L 346.147608 284.815059 
L 350.112987 284.815059 
L 350.263295 281.257412 
L 350.414215 284.815059 
L 350.565748 284.815059 
L 350.717896 281.257412 
L 350.794201 281.257412 
L 350.87066 284.815059 
L 350.947273 281.257412 
L 351.023963 284.815059 
L 351.177262 281.257412 
L 351.253872 284.815059 
L 351.407015 281.257412 
L 351.636545 281.257412 
L 351.713008 284.815059 
L 351.789448 281.257412 
L 351.865866 284.815059 
L 352.018638 281.257412 
L 352.094992 281.257412 
L 352.171327 284.815059 
L 352.247641 281.257412 
L 352.400212 284.815059 
L 352.47647 284.815059 
L 352.628933 281.257412 
L 352.705139 284.815059 
L 352.781328 281.257412 
L 352.93366 284.815059 
L 353.009802 284.815059 
L 353.08593 281.257412 
L 353.238144 284.815059 
L 353.390305 281.257412 
L 353.618454 281.257412 
L 353.694481 284.815059 
L 353.770497 281.257412 
L 353.846503 284.815059 
L 353.998486 281.257412 
L 354.302346 281.257412 
L 354.378292 284.815059 
L 354.530163 281.257412 
L 354.606089 281.257412 
L 354.757925 284.815059 
L 354.909741 281.257412 
L 355.06154 284.815059 
L 355.137435 284.815059 
L 355.213326 281.257412 
L 355.289215 284.815059 
L 355.440987 281.257412 
L 355.516871 281.257412 
L 355.592753 284.815059 
L 355.744517 281.257412 
L 355.896281 281.257412 
L 355.972164 284.815059 
L 356.123934 281.257412 
L 356.199822 284.815059 
L 356.275712 281.257412 
L 356.351605 284.815059 
L 356.368174 281.257412 
L 356.477674 263.469176 
L 356.590672 284.815059 
L 356.628607 284.815059 
L 356.74293 288.372706 
L 359.067395 288.372706 
L 359.154491 284.815059 
L 359.285873 288.372706 
L 363.841506 288.372706 
L 364.060295 295.488 
L 364.225727 291.930353 
L 364.281128 295.488 
L 364.336658 291.930353 
L 364.392317 295.488 
L 364.504025 291.930353 
L 364.899118 291.930353 
L 365.013188 288.372706 
L 369.899494 288.372706 
L 370.036617 284.815059 
L 370.105411 284.815059 
L 370.174361 288.372706 
L 370.312727 284.815059 
L 374.368677 284.815059 
L 374.525516 281.257412 
L 374.683025 284.815059 
L 374.762032 281.257412 
L 374.920549 284.815059 
L 375.07974 281.257412 
L 375.239606 284.815059 
L 375.400148 281.257412 
L 375.5611 281.257412 
L 375.641493 284.815059 
L 375.721831 281.257412 
L 375.882346 284.815059 
L 376.042651 284.815059 
L 376.122727 281.257412 
L 376.202753 284.815059 
L 376.282729 281.257412 
L 376.442536 284.815059 
L 376.602154 281.257412 
L 376.761589 284.815059 
L 376.841239 284.815059 
L 377.000409 281.257412 
L 377.238846 281.257412 
L 377.318244 284.815059 
L 377.47692 281.257412 
L 377.635443 281.257412 
L 377.714648 284.815059 
L 377.793816 281.257412 
L 377.952045 284.815059 
L 378.031108 281.257412 
L 378.18913 284.815059 
L 378.268092 281.257412 
L 378.425919 284.815059 
L 378.504785 284.815059 
L 378.662427 281.257412 
L 379.134663 281.257412 
L 379.213275 284.815059 
L 379.370422 281.257412 
L 379.448958 284.815059 
L 379.527471 281.257412 
L 379.60596 284.815059 
L 379.76287 281.257412 
L 379.998073 281.257412 
L 380.076433 284.815059 
L 380.233093 281.257412 
L 380.311395 281.257412 
L 380.322415 284.815059 
L 380.412994 267.026824 
L 380.450991 281.257412 
L 380.489644 281.257412 
L 380.645105 288.372706 
L 385.435601 288.372706 
L 385.485877 291.930353 
L 385.536273 288.372706 
L 385.586789 288.372706 
L 385.739062 295.488 
L 385.892428 291.930353 
L 386.046897 295.488 
L 386.098633 291.930353 
L 386.150492 295.488 
L 386.254585 295.488 
L 386.411661 291.930353 
L 386.675975 291.930353 
L 386.836092 288.372706 
L 387.877414 288.372706 
L 387.989823 284.815059 
L 388.102772 288.372706 
L 389.441714 288.372706 
L 389.561702 295.488 
L 389.621914 291.930353 
L 389.682272 295.488 
L 389.803426 291.930353 
L 390.355931 291.930353 
L 390.480352 288.372706 
L 394.722471 288.372706 
L 394.867868 284.815059 
L 398.487273 284.815059 
L 398.487273 284.815059 
" style="fill:none;stroke:#1f77b4;stroke-linecap:square;stroke-width:1.5;"/>
   </g>
   <g id="patch_3">
    <path d="M 57.6 307.584 
L 57.6 41.472 
" style="fill:none;stroke:#000000;stroke-linecap:square;stroke-linejoin:miter;stroke-width:0.8;"/>
   </g>
   <g id="patch_4">
    <path d="M 414.72 307.584 
L 414.72 41.472 
" style="fill:none;stroke:#000000;stroke-linecap:square;stroke-linejoin:miter;stroke-width:0.8;"/>
   </g>
   <g id="patch_5">
    <path d="M 57.6 307.584 
L 414.72 307.584 
" style="fill:none;stroke:#000000;stroke-linecap:square;stroke-linejoin:miter;stroke-width:0.8;"/>
   </g>
   <g id="patch_6">
    <path d="M 57.6 41.472 
L 414.72 41.472 
" style="fill:none;stroke:#000000;stroke-linecap:square;stroke-linejoin:miter;stroke-width:0.8;"/>
   </g>
  </g>
 </g>
 <defs>
  <clipPath id="p15bdd85514">
   <rect height="266.112" width="357.12" x="57.6" y="41.472"/>
  </clipPath>
 </defs>
</svg>
