<?xml version="1.0" encoding="utf-8" standalone="no"?>
<!DOCTYPE svg PUBLIC "-//W3C//DTD SVG 1.1//EN"
  "http://www.w3.org/Graphics/SVG/1.1/DTD/svg11.dtd">
<!-- Created with matplotlib (https://matplotlib.org/) -->
<svg height="345.6pt" version="1.1" viewBox="0 0 460.8 345.6" width="460.8pt" xmlns="http://www.w3.org/2000/svg" xmlns:xlink="http://www.w3.org/1999/xlink">
 <metadata>
  <rdf:RDF xmlns:cc="http://creativecommons.org/ns#" xmlns:dc="http://purl.org/dc/elements/1.1/" xmlns:rdf="http://www.w3.org/1999/02/22-rdf-syntax-ns#">
   <cc:Work>
    <dc:type rdf:resource="http://purl.org/dc/dcmitype/StillImage"/>
    <dc:date>2022-10-18T01:40:38.548201</dc:date>
    <dc:format>image/svg+xml</dc:format>
    <dc:creator>
     <cc:Agent>
      <dc:title>Matplotlib v3.3.4, https://matplotlib.org/</dc:title>
     </cc:Agent>
    </dc:creator>
   </cc:Work>
  </rdf:RDF>
 </metadata>
 <defs>
  <style type="text/css">*{stroke-linecap:butt;stroke-linejoin:round;}</style>
 </defs>
 <g id="figure_1">
  <g id="patch_1">
   <path d="M 0 345.6 
L 460.8 345.6 
L 460.8 0 
L 0 0 
z
" style="fill:#ffffff;"/>
  </g>
  <g id="axes_1">
   <g id="patch_2">
    <path d="M 57.6 307.584 
L 414.72 307.584 
L 414.72 41.472 
L 57.6 41.472 
z
" style="fill:#ffffff;"/>
   </g>
   <g id="matplotlib.axis_1">
    <g id="xtick_1">
     <g id="line2d_1">
      <defs>
       <path d="M 0 0 
L 0 3.5 
" id="m8b6172ea59" style="stroke:#000000;stroke-width:0.8;"/>
      </defs>
      <g>
       <use style="stroke:#000000;stroke-width:0.8;" x="70.895623" xlink:href="#m8b6172ea59" y="307.584"/>
      </g>
     </g>
     <g id="text_1">
      <!-- 0.00 -->
      <g transform="translate(59.76281 322.182437)scale(0.1 -0.1)">
       <defs>
        <path d="M 31.78125 66.40625 
Q 24.171875 66.40625 20.328125 58.90625 
Q 16.5 51.421875 16.5 36.375 
Q 16.5 21.390625 20.328125 13.890625 
Q 24.171875 6.390625 31.78125 6.390625 
Q 39.453125 6.390625 43.28125 13.890625 
Q 47.125 21.390625 47.125 36.375 
Q 47.125 51.421875 43.28125 58.90625 
Q 39.453125 66.40625 31.78125 66.40625 
z
M 31.78125 74.21875 
Q 44.046875 74.21875 50.515625 64.515625 
Q 56.984375 54.828125 56.984375 36.375 
Q 56.984375 17.96875 50.515625 8.265625 
Q 44.046875 -1.421875 31.78125 -1.421875 
Q 19.53125 -1.421875 13.0625 8.265625 
Q 6.59375 17.96875 6.59375 36.375 
Q 6.59375 54.828125 13.0625 64.515625 
Q 19.53125 74.21875 31.78125 74.21875 
z
" id="DejaVuSans-48"/>
        <path d="M 10.6875 12.40625 
L 21 12.40625 
L 21 0 
L 10.6875 0 
z
" id="DejaVuSans-46"/>
       </defs>
       <use xlink:href="#DejaVuSans-48"/>
       <use x="63.623047" xlink:href="#DejaVuSans-46"/>
       <use x="95.410156" xlink:href="#DejaVuSans-48"/>
       <use x="159.033203" xlink:href="#DejaVuSans-48"/>
      </g>
     </g>
    </g>
    <g id="xtick_2">
     <g id="line2d_2">
      <g>
       <use style="stroke:#000000;stroke-width:0.8;" x="129.637711" xlink:href="#m8b6172ea59" y="307.584"/>
      </g>
     </g>
     <g id="text_2">
      <!-- 0.02 -->
      <g transform="translate(118.504898 322.182437)scale(0.1 -0.1)">
       <defs>
        <path d="M 19.1875 8.296875 
L 53.609375 8.296875 
L 53.609375 0 
L 7.328125 0 
L 7.328125 8.296875 
Q 12.9375 14.109375 22.625 23.890625 
Q 32.328125 33.6875 34.8125 36.53125 
Q 39.546875 41.84375 41.421875 45.53125 
Q 43.3125 49.21875 43.3125 52.78125 
Q 43.3125 58.59375 39.234375 62.25 
Q 35.15625 65.921875 28.609375 65.921875 
Q 23.96875 65.921875 18.8125 64.3125 
Q 13.671875 62.703125 7.8125 59.421875 
L 7.8125 69.390625 
Q 13.765625 71.78125 18.9375 73 
Q 24.125 74.21875 28.421875 74.21875 
Q 39.75 74.21875 46.484375 68.546875 
Q 53.21875 62.890625 53.21875 53.421875 
Q 53.21875 48.921875 51.53125 44.890625 
Q 49.859375 40.875 45.40625 35.40625 
Q 44.1875 33.984375 37.640625 27.21875 
Q 31.109375 20.453125 19.1875 8.296875 
z
" id="DejaVuSans-50"/>
       </defs>
       <use xlink:href="#DejaVuSans-48"/>
       <use x="63.623047" xlink:href="#DejaVuSans-46"/>
       <use x="95.410156" xlink:href="#DejaVuSans-48"/>
       <use x="159.033203" xlink:href="#DejaVuSans-50"/>
      </g>
     </g>
    </g>
    <g id="xtick_3">
     <g id="line2d_3">
      <g>
       <use style="stroke:#000000;stroke-width:0.8;" x="188.379798" xlink:href="#m8b6172ea59" y="307.584"/>
      </g>
     </g>
     <g id="text_3">
      <!-- 0.04 -->
      <g transform="translate(177.246986 322.182437)scale(0.1 -0.1)">
       <defs>
        <path d="M 37.796875 64.3125 
L 12.890625 25.390625 
L 37.796875 25.390625 
z
M 35.203125 72.90625 
L 47.609375 72.90625 
L 47.609375 25.390625 
L 58.015625 25.390625 
L 58.015625 17.1875 
L 47.609375 17.1875 
L 47.609375 0 
L 37.796875 0 
L 37.796875 17.1875 
L 4.890625 17.1875 
L 4.890625 26.703125 
z
" id="DejaVuSans-52"/>
       </defs>
       <use xlink:href="#DejaVuSans-48"/>
       <use x="63.623047" xlink:href="#DejaVuSans-46"/>
       <use x="95.410156" xlink:href="#DejaVuSans-48"/>
       <use x="159.033203" xlink:href="#DejaVuSans-52"/>
      </g>
     </g>
    </g>
    <g id="xtick_4">
     <g id="line2d_4">
      <g>
       <use style="stroke:#000000;stroke-width:0.8;" x="247.121886" xlink:href="#m8b6172ea59" y="307.584"/>
      </g>
     </g>
     <g id="text_4">
      <!-- 0.06 -->
      <g transform="translate(235.989074 322.182437)scale(0.1 -0.1)">
       <defs>
        <path d="M 33.015625 40.375 
Q 26.375 40.375 22.484375 35.828125 
Q 18.609375 31.296875 18.609375 23.390625 
Q 18.609375 15.53125 22.484375 10.953125 
Q 26.375 6.390625 33.015625 6.390625 
Q 39.65625 6.390625 43.53125 10.953125 
Q 47.40625 15.53125 47.40625 23.390625 
Q 47.40625 31.296875 43.53125 35.828125 
Q 39.65625 40.375 33.015625 40.375 
z
M 52.59375 71.296875 
L 52.59375 62.3125 
Q 48.875 64.0625 45.09375 64.984375 
Q 41.3125 65.921875 37.59375 65.921875 
Q 27.828125 65.921875 22.671875 59.328125 
Q 17.53125 52.734375 16.796875 39.40625 
Q 19.671875 43.65625 24.015625 45.921875 
Q 28.375 48.1875 33.59375 48.1875 
Q 44.578125 48.1875 50.953125 41.515625 
Q 57.328125 34.859375 57.328125 23.390625 
Q 57.328125 12.15625 50.6875 5.359375 
Q 44.046875 -1.421875 33.015625 -1.421875 
Q 20.359375 -1.421875 13.671875 8.265625 
Q 6.984375 17.96875 6.984375 36.375 
Q 6.984375 53.65625 15.1875 63.9375 
Q 23.390625 74.21875 37.203125 74.21875 
Q 40.921875 74.21875 44.703125 73.484375 
Q 48.484375 72.75 52.59375 71.296875 
z
" id="DejaVuSans-54"/>
       </defs>
       <use xlink:href="#DejaVuSans-48"/>
       <use x="63.623047" xlink:href="#DejaVuSans-46"/>
       <use x="95.410156" xlink:href="#DejaVuSans-48"/>
       <use x="159.033203" xlink:href="#DejaVuSans-54"/>
      </g>
     </g>
    </g>
    <g id="xtick_5">
     <g id="line2d_5">
      <g>
       <use style="stroke:#000000;stroke-width:0.8;" x="305.863974" xlink:href="#m8b6172ea59" y="307.584"/>
      </g>
     </g>
     <g id="text_5">
      <!-- 0.08 -->
      <g transform="translate(294.731161 322.182437)scale(0.1 -0.1)">
       <defs>
        <path d="M 31.78125 34.625 
Q 24.75 34.625 20.71875 30.859375 
Q 16.703125 27.09375 16.703125 20.515625 
Q 16.703125 13.921875 20.71875 10.15625 
Q 24.75 6.390625 31.78125 6.390625 
Q 38.8125 6.390625 42.859375 10.171875 
Q 46.921875 13.96875 46.921875 20.515625 
Q 46.921875 27.09375 42.890625 30.859375 
Q 38.875 34.625 31.78125 34.625 
z
M 21.921875 38.8125 
Q 15.578125 40.375 12.03125 44.71875 
Q 8.5 49.078125 8.5 55.328125 
Q 8.5 64.0625 14.71875 69.140625 
Q 20.953125 74.21875 31.78125 74.21875 
Q 42.671875 74.21875 48.875 69.140625 
Q 55.078125 64.0625 55.078125 55.328125 
Q 55.078125 49.078125 51.53125 44.71875 
Q 48 40.375 41.703125 38.8125 
Q 48.828125 37.15625 52.796875 32.3125 
Q 56.78125 27.484375 56.78125 20.515625 
Q 56.78125 9.90625 50.3125 4.234375 
Q 43.84375 -1.421875 31.78125 -1.421875 
Q 19.734375 -1.421875 13.25 4.234375 
Q 6.78125 9.90625 6.78125 20.515625 
Q 6.78125 27.484375 10.78125 32.3125 
Q 14.796875 37.15625 21.921875 38.8125 
z
M 18.3125 54.390625 
Q 18.3125 48.734375 21.84375 45.5625 
Q 25.390625 42.390625 31.78125 42.390625 
Q 38.140625 42.390625 41.71875 45.5625 
Q 45.3125 48.734375 45.3125 54.390625 
Q 45.3125 60.0625 41.71875 63.234375 
Q 38.140625 66.40625 31.78125 66.40625 
Q 25.390625 66.40625 21.84375 63.234375 
Q 18.3125 60.0625 18.3125 54.390625 
z
" id="DejaVuSans-56"/>
       </defs>
       <use xlink:href="#DejaVuSans-48"/>
       <use x="63.623047" xlink:href="#DejaVuSans-46"/>
       <use x="95.410156" xlink:href="#DejaVuSans-48"/>
       <use x="159.033203" xlink:href="#DejaVuSans-56"/>
      </g>
     </g>
    </g>
    <g id="xtick_6">
     <g id="line2d_6">
      <g>
       <use style="stroke:#000000;stroke-width:0.8;" x="364.606062" xlink:href="#m8b6172ea59" y="307.584"/>
      </g>
     </g>
     <g id="text_6">
      <!-- 0.10 -->
      <g transform="translate(353.473249 322.182437)scale(0.1 -0.1)">
       <defs>
        <path d="M 12.40625 8.296875 
L 28.515625 8.296875 
L 28.515625 63.921875 
L 10.984375 60.40625 
L 10.984375 69.390625 
L 28.421875 72.90625 
L 38.28125 72.90625 
L 38.28125 8.296875 
L 54.390625 8.296875 
L 54.390625 0 
L 12.40625 0 
z
" id="DejaVuSans-49"/>
       </defs>
       <use xlink:href="#DejaVuSans-48"/>
       <use x="63.623047" xlink:href="#DejaVuSans-46"/>
       <use x="95.410156" xlink:href="#DejaVuSans-49"/>
       <use x="159.033203" xlink:href="#DejaVuSans-48"/>
      </g>
     </g>
    </g>
    <g id="text_7">
     <!-- time [days] -->
     <g transform="translate(207.570937 335.860562)scale(0.1 -0.1)">
      <defs>
       <path d="M 18.3125 70.21875 
L 18.3125 54.6875 
L 36.8125 54.6875 
L 36.8125 47.703125 
L 18.3125 47.703125 
L 18.3125 18.015625 
Q 18.3125 11.328125 20.140625 9.421875 
Q 21.96875 7.515625 27.59375 7.515625 
L 36.8125 7.515625 
L 36.8125 0 
L 27.59375 0 
Q 17.1875 0 13.234375 3.875 
Q 9.28125 7.765625 9.28125 18.015625 
L 9.28125 47.703125 
L 2.6875 47.703125 
L 2.6875 54.6875 
L 9.28125 54.6875 
L 9.28125 70.21875 
z
" id="DejaVuSans-116"/>
       <path d="M 9.421875 54.6875 
L 18.40625 54.6875 
L 18.40625 0 
L 9.421875 0 
z
M 9.421875 75.984375 
L 18.40625 75.984375 
L 18.40625 64.59375 
L 9.421875 64.59375 
z
" id="DejaVuSans-105"/>
       <path d="M 52 44.1875 
Q 55.375 50.25 60.0625 53.125 
Q 64.75 56 71.09375 56 
Q 79.640625 56 84.28125 50.015625 
Q 88.921875 44.046875 88.921875 33.015625 
L 88.921875 0 
L 79.890625 0 
L 79.890625 32.71875 
Q 79.890625 40.578125 77.09375 44.375 
Q 74.3125 48.1875 68.609375 48.1875 
Q 61.625 48.1875 57.5625 43.546875 
Q 53.515625 38.921875 53.515625 30.90625 
L 53.515625 0 
L 44.484375 0 
L 44.484375 32.71875 
Q 44.484375 40.625 41.703125 44.40625 
Q 38.921875 48.1875 33.109375 48.1875 
Q 26.21875 48.1875 22.15625 43.53125 
Q 18.109375 38.875 18.109375 30.90625 
L 18.109375 0 
L 9.078125 0 
L 9.078125 54.6875 
L 18.109375 54.6875 
L 18.109375 46.1875 
Q 21.1875 51.21875 25.484375 53.609375 
Q 29.78125 56 35.6875 56 
Q 41.65625 56 45.828125 52.96875 
Q 50 49.953125 52 44.1875 
z
" id="DejaVuSans-109"/>
       <path d="M 56.203125 29.59375 
L 56.203125 25.203125 
L 14.890625 25.203125 
Q 15.484375 15.921875 20.484375 11.0625 
Q 25.484375 6.203125 34.421875 6.203125 
Q 39.59375 6.203125 44.453125 7.46875 
Q 49.3125 8.734375 54.109375 11.28125 
L 54.109375 2.78125 
Q 49.265625 0.734375 44.1875 -0.34375 
Q 39.109375 -1.421875 33.890625 -1.421875 
Q 20.796875 -1.421875 13.15625 6.1875 
Q 5.515625 13.8125 5.515625 26.8125 
Q 5.515625 40.234375 12.765625 48.109375 
Q 20.015625 56 32.328125 56 
Q 43.359375 56 49.78125 48.890625 
Q 56.203125 41.796875 56.203125 29.59375 
z
M 47.21875 32.234375 
Q 47.125 39.59375 43.09375 43.984375 
Q 39.0625 48.390625 32.421875 48.390625 
Q 24.90625 48.390625 20.390625 44.140625 
Q 15.875 39.890625 15.1875 32.171875 
z
" id="DejaVuSans-101"/>
       <path id="DejaVuSans-32"/>
       <path d="M 8.59375 75.984375 
L 29.296875 75.984375 
L 29.296875 69 
L 17.578125 69 
L 17.578125 -6.203125 
L 29.296875 -6.203125 
L 29.296875 -13.1875 
L 8.59375 -13.1875 
z
" id="DejaVuSans-91"/>
       <path d="M 45.40625 46.390625 
L 45.40625 75.984375 
L 54.390625 75.984375 
L 54.390625 0 
L 45.40625 0 
L 45.40625 8.203125 
Q 42.578125 3.328125 38.25 0.953125 
Q 33.9375 -1.421875 27.875 -1.421875 
Q 17.96875 -1.421875 11.734375 6.484375 
Q 5.515625 14.40625 5.515625 27.296875 
Q 5.515625 40.1875 11.734375 48.09375 
Q 17.96875 56 27.875 56 
Q 33.9375 56 38.25 53.625 
Q 42.578125 51.265625 45.40625 46.390625 
z
M 14.796875 27.296875 
Q 14.796875 17.390625 18.875 11.75 
Q 22.953125 6.109375 30.078125 6.109375 
Q 37.203125 6.109375 41.296875 11.75 
Q 45.40625 17.390625 45.40625 27.296875 
Q 45.40625 37.203125 41.296875 42.84375 
Q 37.203125 48.484375 30.078125 48.484375 
Q 22.953125 48.484375 18.875 42.84375 
Q 14.796875 37.203125 14.796875 27.296875 
z
" id="DejaVuSans-100"/>
       <path d="M 34.28125 27.484375 
Q 23.390625 27.484375 19.1875 25 
Q 14.984375 22.515625 14.984375 16.5 
Q 14.984375 11.71875 18.140625 8.90625 
Q 21.296875 6.109375 26.703125 6.109375 
Q 34.1875 6.109375 38.703125 11.40625 
Q 43.21875 16.703125 43.21875 25.484375 
L 43.21875 27.484375 
z
M 52.203125 31.203125 
L 52.203125 0 
L 43.21875 0 
L 43.21875 8.296875 
Q 40.140625 3.328125 35.546875 0.953125 
Q 30.953125 -1.421875 24.3125 -1.421875 
Q 15.921875 -1.421875 10.953125 3.296875 
Q 6 8.015625 6 15.921875 
Q 6 25.140625 12.171875 29.828125 
Q 18.359375 34.515625 30.609375 34.515625 
L 43.21875 34.515625 
L 43.21875 35.40625 
Q 43.21875 41.609375 39.140625 45 
Q 35.0625 48.390625 27.6875 48.390625 
Q 23 48.390625 18.546875 47.265625 
Q 14.109375 46.140625 10.015625 43.890625 
L 10.015625 52.203125 
Q 14.9375 54.109375 19.578125 55.046875 
Q 24.21875 56 28.609375 56 
Q 40.484375 56 46.34375 49.84375 
Q 52.203125 43.703125 52.203125 31.203125 
z
" id="DejaVuSans-97"/>
       <path d="M 32.171875 -5.078125 
Q 28.375 -14.84375 24.75 -17.8125 
Q 21.140625 -20.796875 15.09375 -20.796875 
L 7.90625 -20.796875 
L 7.90625 -13.28125 
L 13.1875 -13.28125 
Q 16.890625 -13.28125 18.9375 -11.515625 
Q 21 -9.765625 23.484375 -3.21875 
L 25.09375 0.875 
L 2.984375 54.6875 
L 12.5 54.6875 
L 29.59375 11.921875 
L 46.6875 54.6875 
L 56.203125 54.6875 
z
" id="DejaVuSans-121"/>
       <path d="M 44.28125 53.078125 
L 44.28125 44.578125 
Q 40.484375 46.53125 36.375 47.5 
Q 32.28125 48.484375 27.875 48.484375 
Q 21.1875 48.484375 17.84375 46.4375 
Q 14.5 44.390625 14.5 40.28125 
Q 14.5 37.15625 16.890625 35.375 
Q 19.28125 33.59375 26.515625 31.984375 
L 29.59375 31.296875 
Q 39.15625 29.25 43.1875 25.515625 
Q 47.21875 21.78125 47.21875 15.09375 
Q 47.21875 7.46875 41.1875 3.015625 
Q 35.15625 -1.421875 24.609375 -1.421875 
Q 20.21875 -1.421875 15.453125 -0.5625 
Q 10.6875 0.296875 5.421875 2 
L 5.421875 11.28125 
Q 10.40625 8.6875 15.234375 7.390625 
Q 20.0625 6.109375 24.8125 6.109375 
Q 31.15625 6.109375 34.5625 8.28125 
Q 37.984375 10.453125 37.984375 14.40625 
Q 37.984375 18.0625 35.515625 20.015625 
Q 33.0625 21.96875 24.703125 23.78125 
L 21.578125 24.515625 
Q 13.234375 26.265625 9.515625 29.90625 
Q 5.8125 33.546875 5.8125 39.890625 
Q 5.8125 47.609375 11.28125 51.796875 
Q 16.75 56 26.8125 56 
Q 31.78125 56 36.171875 55.265625 
Q 40.578125 54.546875 44.28125 53.078125 
z
" id="DejaVuSans-115"/>
       <path d="M 30.421875 75.984375 
L 30.421875 -13.1875 
L 9.71875 -13.1875 
L 9.71875 -6.203125 
L 21.390625 -6.203125 
L 21.390625 69 
L 9.71875 69 
L 9.71875 75.984375 
z
" id="DejaVuSans-93"/>
      </defs>
      <use xlink:href="#DejaVuSans-116"/>
      <use x="39.208984" xlink:href="#DejaVuSans-105"/>
      <use x="66.992188" xlink:href="#DejaVuSans-109"/>
      <use x="164.404297" xlink:href="#DejaVuSans-101"/>
      <use x="225.927734" xlink:href="#DejaVuSans-32"/>
      <use x="257.714844" xlink:href="#DejaVuSans-91"/>
      <use x="296.728516" xlink:href="#DejaVuSans-100"/>
      <use x="360.205078" xlink:href="#DejaVuSans-97"/>
      <use x="421.484375" xlink:href="#DejaVuSans-121"/>
      <use x="480.664062" xlink:href="#DejaVuSans-115"/>
      <use x="532.763672" xlink:href="#DejaVuSans-93"/>
     </g>
    </g>
   </g>
   <g id="matplotlib.axis_2">
    <g id="ytick_1">
     <g id="line2d_7">
      <defs>
       <path d="M 0 0 
L -3.5 0 
" id="m36dc6caf49" style="stroke:#000000;stroke-width:0.8;"/>
      </defs>
      <g>
       <use style="stroke:#000000;stroke-width:0.8;" x="57.6" xlink:href="#m36dc6caf49" y="298.757189"/>
      </g>
     </g>
     <g id="text_8">
      <!-- 0 -->
      <g transform="translate(44.2375 302.556408)scale(0.1 -0.1)">
       <use xlink:href="#DejaVuSans-48"/>
      </g>
     </g>
    </g>
    <g id="ytick_2">
     <g id="line2d_8">
      <g>
       <use style="stroke:#000000;stroke-width:0.8;" x="57.6" xlink:href="#m36dc6caf49" y="266.065297"/>
      </g>
     </g>
     <g id="text_9">
      <!-- 10 -->
      <g transform="translate(37.875 269.864516)scale(0.1 -0.1)">
       <use xlink:href="#DejaVuSans-49"/>
       <use x="63.623047" xlink:href="#DejaVuSans-48"/>
      </g>
     </g>
    </g>
    <g id="ytick_3">
     <g id="line2d_9">
      <g>
       <use style="stroke:#000000;stroke-width:0.8;" x="57.6" xlink:href="#m36dc6caf49" y="233.373405"/>
      </g>
     </g>
     <g id="text_10">
      <!-- 20 -->
      <g transform="translate(37.875 237.172624)scale(0.1 -0.1)">
       <use xlink:href="#DejaVuSans-50"/>
       <use x="63.623047" xlink:href="#DejaVuSans-48"/>
      </g>
     </g>
    </g>
    <g id="ytick_4">
     <g id="line2d_10">
      <g>
       <use style="stroke:#000000;stroke-width:0.8;" x="57.6" xlink:href="#m36dc6caf49" y="200.681514"/>
      </g>
     </g>
     <g id="text_11">
      <!-- 30 -->
      <g transform="translate(37.875 204.480732)scale(0.1 -0.1)">
       <defs>
        <path d="M 40.578125 39.3125 
Q 47.65625 37.796875 51.625 33 
Q 55.609375 28.21875 55.609375 21.1875 
Q 55.609375 10.40625 48.1875 4.484375 
Q 40.765625 -1.421875 27.09375 -1.421875 
Q 22.515625 -1.421875 17.65625 -0.515625 
Q 12.796875 0.390625 7.625 2.203125 
L 7.625 11.71875 
Q 11.71875 9.328125 16.59375 8.109375 
Q 21.484375 6.890625 26.8125 6.890625 
Q 36.078125 6.890625 40.9375 10.546875 
Q 45.796875 14.203125 45.796875 21.1875 
Q 45.796875 27.640625 41.28125 31.265625 
Q 36.765625 34.90625 28.71875 34.90625 
L 20.21875 34.90625 
L 20.21875 43.015625 
L 29.109375 43.015625 
Q 36.375 43.015625 40.234375 45.921875 
Q 44.09375 48.828125 44.09375 54.296875 
Q 44.09375 59.90625 40.109375 62.90625 
Q 36.140625 65.921875 28.71875 65.921875 
Q 24.65625 65.921875 20.015625 65.03125 
Q 15.375 64.15625 9.8125 62.3125 
L 9.8125 71.09375 
Q 15.4375 72.65625 20.34375 73.4375 
Q 25.25 74.21875 29.59375 74.21875 
Q 40.828125 74.21875 47.359375 69.109375 
Q 53.90625 64.015625 53.90625 55.328125 
Q 53.90625 49.265625 50.4375 45.09375 
Q 46.96875 40.921875 40.578125 39.3125 
z
" id="DejaVuSans-51"/>
       </defs>
       <use xlink:href="#DejaVuSans-51"/>
       <use x="63.623047" xlink:href="#DejaVuSans-48"/>
      </g>
     </g>
    </g>
    <g id="ytick_5">
     <g id="line2d_11">
      <g>
       <use style="stroke:#000000;stroke-width:0.8;" x="57.6" xlink:href="#m36dc6caf49" y="167.989622"/>
      </g>
     </g>
     <g id="text_12">
      <!-- 40 -->
      <g transform="translate(37.875 171.78884)scale(0.1 -0.1)">
       <use xlink:href="#DejaVuSans-52"/>
       <use x="63.623047" xlink:href="#DejaVuSans-48"/>
      </g>
     </g>
    </g>
    <g id="ytick_6">
     <g id="line2d_12">
      <g>
       <use style="stroke:#000000;stroke-width:0.8;" x="57.6" xlink:href="#m36dc6caf49" y="135.29773"/>
      </g>
     </g>
     <g id="text_13">
      <!-- 50 -->
      <g transform="translate(37.875 139.096948)scale(0.1 -0.1)">
       <defs>
        <path d="M 10.796875 72.90625 
L 49.515625 72.90625 
L 49.515625 64.59375 
L 19.828125 64.59375 
L 19.828125 46.734375 
Q 21.96875 47.46875 24.109375 47.828125 
Q 26.265625 48.1875 28.421875 48.1875 
Q 40.625 48.1875 47.75 41.5 
Q 54.890625 34.8125 54.890625 23.390625 
Q 54.890625 11.625 47.5625 5.09375 
Q 40.234375 -1.421875 26.90625 -1.421875 
Q 22.3125 -1.421875 17.546875 -0.640625 
Q 12.796875 0.140625 7.71875 1.703125 
L 7.71875 11.625 
Q 12.109375 9.234375 16.796875 8.0625 
Q 21.484375 6.890625 26.703125 6.890625 
Q 35.15625 6.890625 40.078125 11.328125 
Q 45.015625 15.765625 45.015625 23.390625 
Q 45.015625 31 40.078125 35.4375 
Q 35.15625 39.890625 26.703125 39.890625 
Q 22.75 39.890625 18.8125 39.015625 
Q 14.890625 38.140625 10.796875 36.28125 
z
" id="DejaVuSans-53"/>
       </defs>
       <use xlink:href="#DejaVuSans-53"/>
       <use x="63.623047" xlink:href="#DejaVuSans-48"/>
      </g>
     </g>
    </g>
    <g id="ytick_7">
     <g id="line2d_13">
      <g>
       <use style="stroke:#000000;stroke-width:0.8;" x="57.6" xlink:href="#m36dc6caf49" y="102.605838"/>
      </g>
     </g>
     <g id="text_14">
      <!-- 60 -->
      <g transform="translate(37.875 106.405057)scale(0.1 -0.1)">
       <use xlink:href="#DejaVuSans-54"/>
       <use x="63.623047" xlink:href="#DejaVuSans-48"/>
      </g>
     </g>
    </g>
    <g id="ytick_8">
     <g id="line2d_14">
      <g>
       <use style="stroke:#000000;stroke-width:0.8;" x="57.6" xlink:href="#m36dc6caf49" y="69.913946"/>
      </g>
     </g>
     <g id="text_15">
      <!-- 70 -->
      <g transform="translate(37.875 73.713165)scale(0.1 -0.1)">
       <defs>
        <path d="M 8.203125 72.90625 
L 55.078125 72.90625 
L 55.078125 68.703125 
L 28.609375 0 
L 18.3125 0 
L 43.21875 64.59375 
L 8.203125 64.59375 
z
" id="DejaVuSans-55"/>
       </defs>
       <use xlink:href="#DejaVuSans-55"/>
       <use x="63.623047" xlink:href="#DejaVuSans-48"/>
      </g>
     </g>
    </g>
    <g id="text_16">
     <!-- Iterations -->
     <g transform="translate(31.795312 198.341281)rotate(-90)scale(0.1 -0.1)">
      <defs>
       <path d="M 9.8125 72.90625 
L 19.671875 72.90625 
L 19.671875 0 
L 9.8125 0 
z
" id="DejaVuSans-73"/>
       <path d="M 41.109375 46.296875 
Q 39.59375 47.171875 37.8125 47.578125 
Q 36.03125 48 33.890625 48 
Q 26.265625 48 22.1875 43.046875 
Q 18.109375 38.09375 18.109375 28.8125 
L 18.109375 0 
L 9.078125 0 
L 9.078125 54.6875 
L 18.109375 54.6875 
L 18.109375 46.1875 
Q 20.953125 51.171875 25.484375 53.578125 
Q 30.03125 56 36.53125 56 
Q 37.453125 56 38.578125 55.875 
Q 39.703125 55.765625 41.0625 55.515625 
z
" id="DejaVuSans-114"/>
       <path d="M 30.609375 48.390625 
Q 23.390625 48.390625 19.1875 42.75 
Q 14.984375 37.109375 14.984375 27.296875 
Q 14.984375 17.484375 19.15625 11.84375 
Q 23.34375 6.203125 30.609375 6.203125 
Q 37.796875 6.203125 41.984375 11.859375 
Q 46.1875 17.53125 46.1875 27.296875 
Q 46.1875 37.015625 41.984375 42.703125 
Q 37.796875 48.390625 30.609375 48.390625 
z
M 30.609375 56 
Q 42.328125 56 49.015625 48.375 
Q 55.71875 40.765625 55.71875 27.296875 
Q 55.71875 13.875 49.015625 6.21875 
Q 42.328125 -1.421875 30.609375 -1.421875 
Q 18.84375 -1.421875 12.171875 6.21875 
Q 5.515625 13.875 5.515625 27.296875 
Q 5.515625 40.765625 12.171875 48.375 
Q 18.84375 56 30.609375 56 
z
" id="DejaVuSans-111"/>
       <path d="M 54.890625 33.015625 
L 54.890625 0 
L 45.90625 0 
L 45.90625 32.71875 
Q 45.90625 40.484375 42.875 44.328125 
Q 39.84375 48.1875 33.796875 48.1875 
Q 26.515625 48.1875 22.3125 43.546875 
Q 18.109375 38.921875 18.109375 30.90625 
L 18.109375 0 
L 9.078125 0 
L 9.078125 54.6875 
L 18.109375 54.6875 
L 18.109375 46.1875 
Q 21.34375 51.125 25.703125 53.5625 
Q 30.078125 56 35.796875 56 
Q 45.21875 56 50.046875 50.171875 
Q 54.890625 44.34375 54.890625 33.015625 
z
" id="DejaVuSans-110"/>
      </defs>
      <use xlink:href="#DejaVuSans-73"/>
      <use x="29.492188" xlink:href="#DejaVuSans-116"/>
      <use x="68.701172" xlink:href="#DejaVuSans-101"/>
      <use x="130.224609" xlink:href="#DejaVuSans-114"/>
      <use x="171.337891" xlink:href="#DejaVuSans-97"/>
      <use x="232.617188" xlink:href="#DejaVuSans-116"/>
      <use x="271.826172" xlink:href="#DejaVuSans-105"/>
      <use x="299.609375" xlink:href="#DejaVuSans-111"/>
      <use x="360.791016" xlink:href="#DejaVuSans-110"/>
      <use x="424.169922" xlink:href="#DejaVuSans-115"/>
     </g>
    </g>
   </g>
   <g id="line2d_15">
    <path clip-path="url(#p0a57dc08eb)" d="M 73.832727 259.526919 
L 73.83807 295.488 
L 73.948667 292.218811 
L 77.609898 292.218811 
L 77.734694 288.949622 
L 80.743052 288.949622 
L 80.865919 292.218811 
L 80.91622 288.949622 
L 80.960847 292.218811 
L 82.655834 292.218811 
L 82.783348 288.949622 
L 82.937831 288.949622 
L 82.963735 292.218811 
L 83.041714 288.949622 
L 83.357699 288.949622 
L 83.437721 292.218811 
L 83.464487 288.949622 
L 84.71758 288.949622 
L 84.746532 285.680432 
L 84.804583 288.949622 
L 84.950575 288.949622 
L 85.009318 285.680432 
L 85.038765 288.949622 
L 85.068261 288.949622 
L 85.186747 285.680432 
L 85.216494 285.680432 
L 85.246291 288.949622 
L 85.306037 285.680432 
L 85.60781 285.680432 
L 85.72995 288.949622 
L 86.672666 288.949622 
L 86.704914 282.411243 
L 86.769573 288.949622 
L 86.801984 288.949622 
L 86.932171 282.411243 
L 87.063232 288.949622 
L 87.195172 282.411243 
L 87.261474 288.949622 
L 87.327998 285.680432 
L 87.361343 285.680432 
L 87.495283 282.411243 
L 87.528908 282.411243 
L 87.562589 288.949622 
L 87.63012 282.411243 
L 87.799936 288.949622 
L 87.936812 282.411243 
L 88.040069 288.949622 
L 88.178551 282.411243 
L 88.213316 282.411243 
L 88.248139 288.949622 
L 88.317959 285.680432 
L 88.388012 282.411243 
L 88.458298 288.949622 
L 88.493529 285.680432 
L 88.564167 282.411243 
L 88.70615 288.949622 
L 89.320225 288.949622 
L 89.35689 282.411243 
L 89.430403 288.949622 
L 91.230116 288.949622 
L 91.269953 285.680432 
L 91.309856 288.949622 
L 91.349825 288.949622 
L 91.389861 285.680432 
L 91.429963 288.949622 
L 91.510367 288.949622 
L 91.550669 285.680432 
L 91.591039 288.949622 
L 91.631475 288.949622 
L 91.753186 285.680432 
L 91.875505 288.949622 
L 91.95739 285.680432 
L 91.998435 288.949622 
L 92.039547 285.680432 
L 92.496316 285.680432 
L 92.538255 288.949622 
L 92.580264 285.680432 
L 95.701409 285.680432 
L 95.748686 282.411243 
L 95.796042 285.680432 
L 96.129761 285.680432 
L 96.225828 282.411243 
L 96.322217 285.680432 
L 96.41893 282.411243 
L 96.467408 285.680432 
L 96.515967 282.411243 
L 96.564607 282.411243 
L 96.711017 285.680432 
L 96.809034 282.411243 
L 96.956676 285.680432 
L 97.105062 282.411243 
L 97.254197 285.680432 
L 97.354038 285.680432 
L 97.50443 282.411243 
L 97.756773 282.411243 
L 97.807497 285.680432 
L 97.858306 282.411243 
L 98.011247 282.411243 
L 98.062399 285.680432 
L 98.113637 282.411243 
L 98.526664 282.411243 
L 98.682991 285.680432 
L 98.892662 279.142054 
L 98.998029 282.411243 
L 99.050847 279.142054 
L 99.103754 282.411243 
L 99.15675 282.411243 
L 99.209836 279.142054 
L 99.263012 285.680432 
L 99.316277 279.142054 
L 99.42308 279.142054 
L 99.637772 285.680432 
L 99.691673 285.680432 
L 99.853925 279.142054 
L 100.017004 285.680432 
L 100.180915 279.142054 
L 100.235738 282.411243 
L 100.290654 279.142054 
L 100.400767 279.142054 
L 100.56664 285.680432 
L 100.677693 275.872865 
L 100.733361 282.411243 
L 100.789125 279.142054 
L 100.900937 279.142054 
L 101.01313 275.872865 
L 101.125707 282.411243 
L 101.18214 275.872865 
L 101.238669 279.142054 
L 101.295295 282.411243 
L 101.352017 275.872865 
L 101.465753 285.680432 
L 101.579878 275.872865 
L 101.637087 285.680432 
L 101.694395 282.411243 
L 101.7518 279.142054 
L 101.809303 282.411243 
L 101.866905 279.142054 
L 101.924606 285.680432 
L 102.040305 279.142054 
L 102.1564 285.680432 
L 102.272895 275.872865 
L 102.448389 288.949622 
L 102.624789 279.142054 
L 102.683791 285.680432 
L 102.742895 282.411243 
L 102.861409 285.680432 
L 102.980331 275.872865 
L 103.039946 282.411243 
L 103.099663 279.142054 
L 103.159484 279.142054 
L 103.219408 282.411243 
L 103.279436 275.872865 
L 103.339567 285.680432 
L 103.460141 275.872865 
L 103.520584 282.411243 
L 103.581132 279.142054 
L 103.641784 272.603676 
L 103.702542 275.872865 
L 103.763405 275.872865 
L 103.824373 285.680432 
L 103.885446 275.872865 
L 103.946626 282.411243 
L 104.007912 279.142054 
L 104.069303 282.411243 
L 104.130802 272.603676 
L 104.254119 282.411243 
L 104.439898 275.872865 
L 104.50204 282.411243 
L 104.56429 272.603676 
L 104.626649 279.142054 
L 104.689115 279.142054 
L 104.751691 285.680432 
L 104.814376 282.411243 
L 104.877169 285.680432 
L 105.066208 272.603676 
L 105.256238 272.603676 
L 105.319803 282.411243 
L 105.383478 279.142054 
L 105.447265 275.872865 
L 105.511164 282.411243 
L 105.575174 279.142054 
L 105.639297 272.603676 
L 105.703531 285.680432 
L 105.767879 272.603676 
L 105.832339 275.872865 
L 105.896912 285.680432 
L 106.026397 272.603676 
L 106.091311 272.603676 
L 106.22148 275.872865 
L 106.286736 272.603676 
L 106.352106 279.142054 
L 106.417592 275.872865 
L 106.483193 275.872865 
L 106.548909 285.680432 
L 106.614741 269.334486 
L 106.680689 272.603676 
L 106.879231 285.680432 
L 106.945646 266.065297 
L 107.012177 279.142054 
L 107.145593 275.872865 
L 107.212478 279.142054 
L 107.279481 266.065297 
L 107.413843 282.411243 
L 107.481203 269.334486 
L 107.548682 282.411243 
L 107.683998 266.065297 
L 107.751837 285.680432 
L 107.819795 269.334486 
L 107.887875 275.872865 
L 108.024396 282.411243 
L 108.092839 269.334486 
L 108.161404 272.603676 
L 108.23009 285.680432 
L 108.298899 282.411243 
L 108.506062 266.065297 
L 108.575363 285.680432 
L 108.783992 266.065297 
L 108.853813 282.411243 
L 108.993782 266.065297 
L 109.134253 282.411243 
L 109.275227 262.796108 
L 109.345903 275.872865 
L 109.416706 269.334486 
L 109.558694 262.796108 
L 109.629879 285.680432 
L 109.701193 282.411243 
L 109.772634 282.411243 
L 109.844204 266.065297 
L 110.059687 285.680432 
L 110.131774 285.680432 
L 110.203991 266.065297 
L 110.348816 285.680432 
L 110.421425 279.142054 
L 110.494164 285.680432 
L 110.713174 266.065297 
L 110.786442 279.142054 
L 110.933376 269.334486 
L 111.007042 279.142054 
L 111.080843 272.603676 
L 111.154777 275.872865 
L 111.228846 282.411243 
L 111.303049 262.796108 
L 111.377387 285.680432 
L 111.451861 272.603676 
L 111.676096 285.680432 
L 111.826268 272.603676 
L 111.90156 285.680432 
L 111.976989 282.411243 
L 112.356208 256.25773 
L 112.432469 285.680432 
L 112.50887 266.065297 
L 112.58541 272.603676 
L 112.662092 282.411243 
L 112.738914 259.526919 
L 112.815877 285.680432 
L 112.892982 269.334486 
L 112.970229 282.411243 
L 113.125149 262.796108 
L 113.202823 279.142054 
L 113.28064 266.065297 
L 113.358601 275.872865 
L 113.436706 266.065297 
L 113.514955 285.680432 
L 113.750571 262.796108 
L 113.8294 285.680432 
L 113.908376 282.411243 
L 113.987498 259.526919 
L 114.225746 279.142054 
L 114.385316 272.603676 
L 114.465323 279.142054 
L 114.706242 269.334486 
L 114.786847 252.988541 
L 114.867603 282.411243 
L 114.94851 272.603676 
L 115.110777 285.680432 
L 115.192139 285.680432 
L 115.273652 282.411243 
L 115.355318 266.065297 
L 115.437138 275.872865 
L 115.601237 259.526919 
L 115.765953 285.680432 
L 115.931288 252.988541 
L 116.01419 282.411243 
L 116.097247 269.334486 
L 116.180461 282.411243 
L 116.263832 266.065297 
L 116.347361 282.411243 
L 116.514891 256.25773 
L 116.598893 262.796108 
L 116.683055 282.411243 
L 116.767376 266.065297 
L 116.851857 275.872865 
L 116.936498 262.796108 
L 117.021299 282.411243 
L 117.106262 279.142054 
L 117.191386 275.872865 
L 117.276671 252.988541 
L 117.44773 275.872865 
L 117.533503 252.988541 
L 117.791807 285.680432 
L 118.051594 246.450162 
L 118.138521 285.680432 
L 118.312875 272.603676 
L 118.400303 266.065297 
L 118.487898 282.411243 
L 118.575662 279.142054 
L 118.663595 272.603676 
L 118.751697 279.142054 
L 118.928409 262.796108 
L 119.017021 282.411243 
L 119.105804 252.988541 
L 119.283884 282.411243 
L 119.373182 249.719351 
L 119.462653 266.065297 
L 119.552297 252.988541 
L 119.732107 282.411243 
L 119.822274 282.411243 
L 120.184696 256.25773 
L 120.275742 285.680432 
L 120.641708 252.988541 
L 120.733647 272.603676 
L 120.825765 266.065297 
L 121.010544 279.142054 
L 121.103205 259.526919 
L 121.196047 272.603676 
L 121.289072 266.065297 
L 121.38228 285.680432 
L 121.569246 262.796108 
L 121.663006 262.796108 
L 121.851079 256.25773 
L 121.945395 220.296649 
L 122.229461 256.25773 
L 122.324525 220.296649 
L 122.419777 256.25773 
L 122.515218 249.719351 
L 122.610849 252.988541 
L 122.706669 233.373405 
L 122.802681 272.603676 
L 123.188642 246.450162 
L 123.285614 259.526919 
L 123.38278 243.180973 
L 123.577695 269.334486 
L 123.871534 259.526919 
L 123.969874 249.719351 
L 124.068412 275.872865 
L 124.167147 272.603676 
L 124.266082 266.065297 
L 124.365216 249.719351 
L 124.46455 275.872865 
L 124.564084 246.450162 
L 124.663819 259.526919 
L 124.763756 249.719351 
L 124.863896 252.988541 
L 124.964238 236.642595 
L 125.064783 256.25773 
L 125.165532 252.988541 
L 125.367645 275.872865 
L 125.46901 256.25773 
L 125.67236 272.603676 
L 125.774345 259.526919 
L 125.876539 279.142054 
L 125.978942 272.603676 
L 126.081554 249.719351 
L 126.287408 262.796108 
L 126.390652 252.988541 
L 126.494108 259.526919 
L 126.597776 279.142054 
L 126.805752 256.25773 
L 126.910062 275.872865 
L 127.014586 262.796108 
L 127.224282 272.603676 
L 127.329455 256.25773 
L 127.434846 272.603676 
L 127.646283 259.526919 
L 127.75233 259.526919 
L 127.858598 256.25773 
L 127.965086 272.603676 
L 128.071796 223.565838 
L 128.285883 249.719351 
L 128.393261 252.988541 
L 128.500864 272.603676 
L 128.716745 223.565838 
L 128.825024 226.835027 
L 128.93353 249.719351 
L 129.042264 243.180973 
L 129.151226 252.988541 
L 129.369839 239.911784 
L 129.47949 252.988541 
L 129.589372 249.719351 
L 129.809834 275.872865 
L 130.031228 226.835027 
L 130.142277 230.104216 
L 130.365082 259.526919 
L 130.47684 252.988541 
L 130.588835 213.75827 
L 130.813542 269.334486 
L 130.926254 249.719351 
L 131.039208 259.526919 
L 131.265839 233.373405 
L 131.379519 259.526919 
L 131.493443 220.296649 
L 131.607611 266.065297 
L 131.722024 266.065297 
L 131.836683 269.334486 
L 131.951589 239.911784 
L 132.066743 246.450162 
L 132.182145 213.75827 
L 132.297796 256.25773 
L 132.413697 246.450162 
L 132.646252 269.334486 
L 132.762908 249.719351 
L 132.879817 256.25773 
L 132.99698 223.565838 
L 133.232071 266.065297 
L 133.35 226.835027 
L 133.468188 246.450162 
L 133.586633 236.642595 
L 133.824301 190.873946 
L 133.943526 266.065297 
L 134.18276 249.719351 
L 134.302772 266.065297 
L 134.423048 226.835027 
L 134.543589 233.373405 
L 134.664396 249.719351 
L 134.785469 226.835027 
L 134.90681 259.526919 
L 135.028419 252.988541 
L 135.150298 239.911784 
L 135.272447 272.603676 
L 135.517559 233.373405 
L 135.640524 246.450162 
L 135.887277 230.104216 
L 136.135133 249.719351 
L 136.259476 252.988541 
L 136.384099 252.988541 
L 136.634182 269.334486 
L 136.759645 246.450162 
L 136.885391 259.526919 
L 137.01142 233.373405 
L 137.264331 259.526919 
L 137.391216 256.25773 
L 137.518387 236.642595 
L 137.645847 269.334486 
L 137.773595 230.104216 
L 138.029964 272.603676 
L 138.158586 239.911784 
L 138.287501 239.911784 
L 138.41671 269.334486 
L 138.806112 233.373405 
L 138.936508 252.988541 
L 139.067203 249.719351 
L 139.198199 262.796108 
L 139.329496 194.143135 
L 139.461095 239.911784 
L 139.725204 223.565838 
L 139.857717 239.911784 
L 139.990537 236.642595 
L 140.123664 252.988541 
L 140.2571 230.104216 
L 140.390846 236.642595 
L 140.524903 230.104216 
L 140.659272 262.796108 
L 140.793955 252.988541 
L 141.210756 164.720432 
L 141.657467 151.643676 
L 142.109902 164.720432 
L 142.565751 63.375568 
L 143.024813 158.182054 
L 143.487091 135.29773 
L 143.952607 161.451243 
L 144.406461 200.681514 
L 144.861957 161.451243 
L 145.320399 164.720432 
L 145.781932 145.105297 
L 146.24659 151.643676 
L 146.714398 118.951784 
L 147.185378 154.912865 
L 147.659553 102.605838 
L 148.136947 154.912865 
L 148.617583 151.643676 
L 149.101485 128.759351 
L 149.588675 177.797189 
L 150.07918 210.489081 
L 150.573022 148.374486 
L 151.070225 151.643676 
L 151.570815 105.875027 
L 152.074817 181.066378 
L 152.582254 148.374486 
L 153.607538 122.220973 
L 154.125435 132.028541 
L 154.64687 53.568 
L 155.171869 99.336649 
L 155.700458 177.797189 
L 156.232662 128.759351 
L 156.76851 154.912865 
L 157.308027 164.720432 
L 157.85124 115.682595 
L 158.398177 171.258811 
L 158.948865 145.105297 
L 159.503331 184.335568 
L 160.044249 151.643676 
L 160.587093 187.604757 
L 161.13338 164.720432 
L 162.236834 99.336649 
L 162.794066 174.528 
L 163.355005 197.412324 
L 163.919676 122.220973 
L 164.488107 171.258811 
L 165.060323 135.29773 
L 165.636352 171.258811 
L 165.741035 288.949622 
L 165.929852 285.680432 
L 166.102459 288.949622 
L 178.955934 288.949622 
L 179.159096 285.680432 
L 179.464718 285.680432 
L 179.566827 288.949622 
L 179.771397 285.680432 
L 179.873859 288.949622 
L 180.079137 285.680432 
L 180.491114 285.680432 
L 180.594405 288.949622 
L 180.801344 285.680432 
L 180.904992 285.680432 
L 181.008759 288.949622 
L 181.216652 285.680432 
L 188.015832 285.680432 
L 188.127767 288.949622 
L 188.239831 285.680432 
L 188.689374 285.680432 
L 188.802082 288.949622 
L 188.91492 285.680432 
L 193.891409 285.680432 
L 194.010087 282.411243 
L 194.128901 285.680432 
L 195.444902 285.680432 
L 195.565364 282.411243 
L 195.685966 282.411243 
L 195.806705 285.680432 
L 195.927584 285.680432 
L 196.048602 282.411243 
L 196.534065 282.411243 
L 196.65578 285.680432 
L 196.777635 282.411243 
L 196.89963 282.411243 
L 197.021765 285.680432 
L 197.144041 282.411243 
L 197.266457 285.680432 
L 197.389015 282.411243 
L 197.511713 282.411243 
L 197.634553 285.680432 
L 197.757534 282.411243 
L 198.127326 282.411243 
L 198.250875 285.680432 
L 198.374565 285.680432 
L 198.498398 282.411243 
L 198.622374 285.680432 
L 198.746492 282.411243 
L 198.870753 285.680432 
L 198.995158 285.680432 
L 199.119706 282.411243 
L 199.244397 285.680432 
L 199.369232 282.411243 
L 199.494211 285.680432 
L 199.619334 282.411243 
L 199.744601 282.411243 
L 199.870013 285.680432 
L 199.995569 282.411243 
L 200.12127 282.411243 
L 200.247116 285.680432 
L 200.373108 285.680432 
L 200.499244 282.411243 
L 200.625526 285.680432 
L 200.751954 285.680432 
L 200.878528 282.411243 
L 201.005248 285.680432 
L 201.132114 282.411243 
L 201.259127 282.411243 
L 201.386286 285.680432 
L 201.513593 282.411243 
L 202.152334 282.411243 
L 202.280525 285.680432 
L 202.408865 282.411243 
L 202.66599 282.411243 
L 202.794775 285.680432 
L 202.92371 282.411243 
L 203.052794 282.411243 
L 203.182027 285.680432 
L 203.31141 285.680432 
L 203.440942 282.411243 
L 203.960574 282.411243 
L 204.090859 285.680432 
L 204.221294 282.411243 
L 204.351881 285.680432 
L 204.482619 282.411243 
L 204.613508 285.680432 
L 204.74455 282.411243 
L 204.875743 285.680432 
L 205.007089 282.411243 
L 205.666108 282.411243 
L 205.798371 279.142054 
L 205.930788 285.680432 
L 206.063359 285.680432 
L 206.196084 279.142054 
L 206.328963 285.680432 
L 206.461997 282.411243 
L 206.595185 285.680432 
L 206.728529 282.411243 
L 206.995681 282.411243 
L 207.129491 279.142054 
L 207.263456 282.411243 
L 207.397578 279.142054 
L 207.666289 285.680432 
L 207.80088 285.680432 
L 207.935628 282.411243 
L 208.070532 282.411243 
L 208.205594 285.680432 
L 208.340814 285.680432 
L 208.476191 282.411243 
L 208.74742 282.411243 
L 208.883272 279.142054 
L 209.019283 282.411243 
L 209.155452 282.411243 
L 209.291781 279.142054 
L 209.428269 282.411243 
L 209.564916 279.142054 
L 209.838691 279.142054 
L 209.975819 282.411243 
L 210.250555 282.411243 
L 210.388165 285.680432 
L 210.525936 282.411243 
L 210.663868 285.680432 
L 210.801962 279.142054 
L 211.078636 279.142054 
L 211.217216 285.680432 
L 211.355959 279.142054 
L 211.633934 279.142054 
L 211.912561 285.680432 
L 212.191844 279.142054 
L 212.331731 285.680432 
L 212.471784 279.142054 
L 212.612 282.411243 
L 212.752382 279.142054 
L 212.892929 285.680432 
L 213.315564 275.872865 
L 213.598151 282.411243 
L 214.023283 282.411243 
L 214.165328 279.142054 
L 214.449922 279.142054 
L 214.592471 285.680432 
L 214.878075 279.142054 
L 215.02113 282.411243 
L 215.164354 279.142054 
L 215.307748 282.411243 
L 215.73895 282.411243 
L 215.883024 279.142054 
L 216.02727 285.680432 
L 216.171686 279.142054 
L 216.461033 285.680432 
L 216.605964 285.680432 
L 216.751068 279.142054 
L 216.896343 282.411243 
L 217.041792 282.411243 
L 217.187413 275.872865 
L 217.333207 282.411243 
L 217.479175 275.872865 
L 217.625317 279.142054 
L 218.211626 279.142054 
L 218.358641 285.680432 
L 218.653196 279.142054 
L 218.948455 285.680432 
L 219.24442 272.603676 
L 219.392667 279.142054 
L 219.689695 279.142054 
L 219.838476 282.411243 
L 219.987435 282.411243 
L 220.136573 275.872865 
L 220.285889 275.872865 
L 220.435384 282.411243 
L 220.585059 272.603676 
L 220.734913 275.872865 
L 220.884947 285.680432 
L 221.035161 282.411243 
L 221.185556 275.872865 
L 221.336132 285.680432 
L 221.486889 282.411243 
L 221.637827 272.603676 
L 222.091733 282.411243 
L 222.2434 272.603676 
L 222.547282 282.411243 
L 222.699498 272.603676 
L 222.851899 282.411243 
L 223.157252 272.603676 
L 223.310205 275.872865 
L 223.463343 272.603676 
L 223.616667 282.411243 
L 223.770177 282.411243 
L 223.923872 279.142054 
L 224.077754 282.411243 
L 224.231822 279.142054 
L 224.386077 282.411243 
L 224.540519 279.142054 
L 224.695149 282.411243 
L 224.849967 275.872865 
L 225.004973 282.411243 
L 225.160167 279.142054 
L 225.31555 282.411243 
L 225.782836 282.411243 
L 225.938978 269.334486 
L 226.09531 282.411243 
L 226.408547 272.603676 
L 226.565452 282.411243 
L 226.879838 275.872865 
L 227.03732 275.872865 
L 227.194994 282.411243 
L 227.352862 282.411243 
L 227.669177 269.334486 
L 227.827626 282.411243 
L 227.986269 279.142054 
L 228.145107 282.411243 
L 228.30414 282.411243 
L 228.463369 279.142054 
L 228.782414 279.142054 
L 228.942231 282.411243 
L 229.102245 272.603676 
L 229.422864 282.411243 
L 229.583471 272.603676 
L 229.744276 275.872865 
L 229.905279 282.411243 
L 231.200499 282.411243 
L 231.363306 279.142054 
L 231.526316 272.603676 
L 231.689528 279.142054 
L 231.852942 269.334486 
L 232.016561 279.142054 
L 232.180383 275.872865 
L 232.344409 282.411243 
L 232.508639 279.142054 
L 232.673074 282.411243 
L 232.837715 282.411243 
L 233.002561 279.142054 
L 233.332871 279.142054 
L 233.498337 282.411243 
L 233.664009 279.142054 
L 233.829889 279.142054 
L 233.995976 282.411243 
L 234.162272 279.142054 
L 234.328777 279.142054 
L 234.495491 275.872865 
L 234.662414 275.872865 
L 234.829547 282.411243 
L 235.164444 282.411243 
L 235.332209 275.872865 
L 235.500185 279.142054 
L 235.668373 275.872865 
L 235.836774 282.411243 
L 236.005387 272.603676 
L 236.174213 275.872865 
L 236.343253 282.411243 
L 236.512506 272.603676 
L 236.851656 279.142054 
L 237.021554 266.065297 
L 237.191667 279.142054 
L 237.361996 269.334486 
L 237.532541 275.872865 
L 237.703303 272.603676 
L 237.874283 279.142054 
L 238.04548 272.603676 
L 238.216895 279.142054 
L 238.388528 272.603676 
L 238.56038 279.142054 
L 238.732452 269.334486 
L 238.904743 269.334486 
L 239.077255 282.411243 
L 239.249987 282.411243 
L 239.42294 272.603676 
L 239.596115 275.872865 
L 239.769511 269.334486 
L 239.94313 282.411243 
L 240.116972 279.142054 
L 240.291037 272.603676 
L 240.814576 282.411243 
L 240.989538 272.603676 
L 241.34014 266.065297 
L 241.691647 282.411243 
L 241.867741 275.872865 
L 242.044063 279.142054 
L 242.220613 285.680432 
L 242.397392 279.142054 
L 242.5744 282.411243 
L 242.751638 279.142054 
L 242.929106 279.142054 
L 243.106804 275.872865 
L 243.284733 282.411243 
L 243.462894 269.334486 
L 243.819912 279.142054 
L 244.177861 272.603676 
L 244.357187 279.142054 
L 244.536746 279.142054 
L 244.716541 282.411243 
L 244.896571 269.334486 
L 245.076836 275.872865 
L 245.438077 275.872865 
L 245.619053 279.142054 
L 245.981719 269.334486 
L 246.16341 282.411243 
L 246.34534 272.603676 
L 246.52751 275.872865 
L 246.70992 269.334486 
L 246.892572 269.334486 
L 247.075464 282.411243 
L 247.258598 279.142054 
L 247.625594 279.142054 
L 247.809457 282.411243 
L 247.993564 282.411243 
L 248.177915 272.603676 
L 248.362511 269.334486 
L 248.547352 279.142054 
L 248.73244 262.796108 
L 248.917774 279.142054 
L 249.103355 275.872865 
L 249.289184 275.872865 
L 249.47526 279.142054 
L 249.661527 269.334486 
L 250.034989 279.142054 
L 250.222065 282.411243 
L 250.409391 279.142054 
L 250.596969 266.065297 
L 250.784798 279.142054 
L 250.97288 269.334486 
L 251.161216 282.411243 
L 251.349804 279.142054 
L 251.727745 279.142054 
L 251.917098 266.065297 
L 252.106706 275.872865 
L 252.296571 279.142054 
L 252.486693 279.142054 
L 252.677073 275.872865 
L 252.867711 279.142054 
L 253.058607 275.872865 
L 253.249762 266.065297 
L 253.441178 262.796108 
L 253.632854 266.065297 
L 253.824791 262.796108 
L 254.016989 269.334486 
L 254.20945 269.334486 
L 254.402173 272.603676 
L 254.59516 272.603676 
L 254.788411 279.142054 
L 255.175707 279.142054 
L 255.369753 269.334486 
L 255.564066 272.603676 
L 255.758646 279.142054 
L 255.953493 275.872865 
L 256.148608 275.872865 
L 256.343993 269.334486 
L 256.931765 279.142054 
L 257.324968 272.603676 
L 257.521979 275.872865 
L 257.719262 272.603676 
L 257.916819 275.872865 
L 258.114651 272.603676 
L 258.312758 272.603676 
L 258.511141 279.142054 
L 258.7098 275.872865 
L 258.908736 269.334486 
L 259.307442 275.872865 
L 259.507213 275.872865 
L 259.707264 279.142054 
L 259.907595 269.334486 
L 260.108208 279.142054 
L 260.309101 269.334486 
L 260.510278 279.142054 
L 261.115507 279.142054 
L 261.317819 269.334486 
L 261.520417 272.603676 
L 261.723301 279.142054 
L 261.926473 275.872865 
L 262.129932 279.142054 
L 262.33368 275.872865 
L 262.537717 269.334486 
L 262.742043 279.142054 
L 262.946661 272.603676 
L 263.35677 272.603676 
L 263.562263 266.065297 
L 263.76805 282.411243 
L 264.387177 262.796108 
L 264.594145 275.872865 
L 264.801409 266.065297 
L 265.216832 279.142054 
L 265.424992 269.334486 
L 265.633452 279.142054 
L 266.051274 262.796108 
L 266.260639 262.796108 
L 266.470306 272.603676 
L 266.680277 269.334486 
L 267.101133 259.526919 
L 267.31202 272.603676 
L 267.523213 262.796108 
L 267.946523 275.872865 
L 268.158641 269.334486 
L 268.37107 272.603676 
L 268.583809 262.796108 
L 268.796859 269.334486 
L 269.010221 266.065297 
L 269.223897 272.603676 
L 269.437886 266.065297 
L 269.652191 279.142054 
L 270.081746 272.603676 
L 270.296999 279.142054 
L 270.944668 269.334486 
L 271.161197 269.334486 
L 271.378047 272.603676 
L 271.595219 272.603676 
L 271.812715 266.065297 
L 272.030534 279.142054 
L 272.248677 275.872865 
L 272.467146 275.872865 
L 272.685941 272.603676 
L 272.905063 266.065297 
L 273.344291 275.872865 
L 273.5644 259.526919 
L 273.784839 269.334486 
L 274.005609 272.603676 
L 274.226712 279.142054 
L 274.448147 269.334486 
L 274.669917 275.872865 
L 274.892022 275.872865 
L 275.114462 272.603676 
L 275.33724 282.411243 
L 275.560354 279.142054 
L 275.783808 272.603676 
L 276.0076 279.142054 
L 276.231733 272.603676 
L 276.906184 272.603676 
L 277.131687 279.142054 
L 277.357535 279.142054 
L 277.58373 269.334486 
L 277.810271 272.603676 
L 278.03716 266.065297 
L 278.264397 275.872865 
L 278.948212 275.872865 
L 279.176854 279.142054 
L 279.405849 262.796108 
L 279.635199 262.796108 
L 279.864904 269.334486 
L 280.094966 272.603676 
L 280.325385 272.603676 
L 280.556163 275.872865 
L 280.7873 275.872865 
L 281.018797 272.603676 
L 281.250656 272.603676 
L 281.482877 275.872865 
L 281.715461 275.872865 
L 281.94841 272.603676 
L 282.181725 266.065297 
L 282.415406 269.334486 
L 282.649454 275.872865 
L 282.883871 259.526919 
L 283.118657 275.872865 
L 283.353815 279.142054 
L 283.589343 272.603676 
L 283.825245 275.872865 
L 284.06152 272.603676 
L 284.29817 262.796108 
L 284.535196 275.872865 
L 284.772599 262.796108 
L 285.01038 275.872865 
L 285.24854 269.334486 
L 285.487081 272.603676 
L 285.726003 272.603676 
L 285.965307 269.334486 
L 286.445067 275.872865 
L 286.685525 269.334486 
L 286.92637 266.065297 
L 287.167602 269.334486 
L 287.409224 269.334486 
L 287.651236 272.603676 
L 287.89364 262.796108 
L 288.136436 266.065297 
L 288.379626 272.603676 
L 288.867191 272.603676 
L 289.111568 275.872865 
L 289.356344 269.334486 
L 289.601519 266.065297 
L 289.847095 275.872865 
L 290.339454 269.334486 
L 290.586239 269.334486 
L 290.83343 272.603676 
L 291.081027 272.603676 
L 291.329032 275.872865 
L 291.577446 269.334486 
L 291.82627 269.334486 
L 292.075506 272.603676 
L 292.325154 262.796108 
L 292.575217 275.872865 
L 292.825695 272.603676 
L 293.076589 266.065297 
L 293.327901 262.796108 
L 293.579632 279.142054 
L 293.831783 272.603676 
L 294.084356 275.872865 
L 294.337352 272.603676 
L 294.590772 272.603676 
L 294.844617 275.872865 
L 295.098889 269.334486 
L 295.353589 272.603676 
L 295.608718 279.142054 
L 295.864278 266.065297 
L 296.120271 272.603676 
L 296.376696 269.334486 
L 296.633556 275.872865 
L 296.890852 272.603676 
L 297.148585 272.603676 
L 297.406757 269.334486 
L 297.665369 272.603676 
L 297.924423 269.334486 
L 298.183919 269.334486 
L 298.44386 266.065297 
L 298.704246 275.872865 
L 298.965079 259.526919 
L 299.226361 266.065297 
L 299.488092 266.065297 
L 299.750275 269.334486 
L 300.01291 266.065297 
L 300.539544 272.603676 
L 300.803546 252.988541 
L 301.068006 269.334486 
L 301.332926 272.603676 
L 301.598307 266.065297 
L 301.864152 272.603676 
L 302.13046 272.603676 
L 302.664476 266.065297 
L 303.200366 272.603676 
L 303.469019 269.334486 
L 303.738144 272.603676 
L 304.007745 269.334486 
L 304.277821 269.334486 
L 304.548376 275.872865 
L 304.81941 259.526919 
L 305.090926 269.334486 
L 305.362923 272.603676 
L 305.635405 272.603676 
L 305.908373 262.796108 
L 306.455772 275.872865 
L 306.730207 269.334486 
L 307.005134 272.603676 
L 307.280555 269.334486 
L 307.832884 269.334486 
L 308.109796 256.25773 
L 308.387208 259.526919 
L 308.665122 269.334486 
L 308.94354 246.450162 
L 309.222464 272.603676 
L 309.501894 275.872865 
L 309.781834 266.065297 
L 310.062284 275.872865 
L 310.343246 275.872865 
L 310.624722 269.334486 
L 311.189222 275.872865 
L 311.47225 275.872865 
L 311.755799 272.603676 
L 312.324467 272.603676 
L 312.60959 259.526919 
L 312.89524 266.065297 
L 313.468132 272.603676 
L 314.043158 272.603676 
L 314.331476 269.334486 
L 314.620333 269.334486 
L 314.909731 256.25773 
L 315.199671 269.334486 
L 315.781188 269.334486 
L 316.364897 262.796108 
L 316.65758 275.872865 
L 316.950816 266.065297 
L 317.244609 272.603676 
L 317.538959 275.872865 
L 317.833869 269.334486 
L 318.129342 266.065297 
L 318.425378 256.25773 
L 318.858443 275.872865 
L 319.023569 256.25773 
L 319.358109 275.872865 
L 319.525702 282.411243 
L 319.693537 272.603676 
L 319.861618 275.872865 
L 320.029946 272.603676 
L 320.19852 279.142054 
L 320.367341 279.142054 
L 320.536408 266.065297 
L 320.705721 266.065297 
L 320.875279 285.680432 
L 321.045084 272.603676 
L 321.215134 282.411243 
L 321.385429 282.411243 
L 321.555971 275.872865 
L 321.726759 262.796108 
L 322.2406 279.142054 
L 322.584396 269.334486 
L 322.756664 275.872865 
L 322.929181 266.065297 
L 323.101946 279.142054 
L 323.274959 279.142054 
L 323.448221 275.872865 
L 323.621732 285.680432 
L 323.795493 275.872865 
L 324.143764 275.872865 
L 324.318275 272.603676 
L 324.493038 285.680432 
L 324.843317 272.603676 
L 325.018834 279.142054 
L 325.194605 269.334486 
L 325.370628 266.065297 
L 325.546904 279.142054 
L 325.723435 272.603676 
L 325.900219 275.872865 
L 326.077258 269.334486 
L 326.254552 282.411243 
L 326.432101 266.065297 
L 326.609906 269.334486 
L 326.966286 279.142054 
L 327.144861 262.796108 
L 327.323694 272.603676 
L 327.682133 279.142054 
L 327.861741 266.065297 
L 328.041608 275.872865 
L 328.402122 269.334486 
L 328.763677 275.872865 
L 328.944847 282.411243 
L 329.126279 275.872865 
L 329.307973 282.411243 
L 329.489929 272.603676 
L 329.854633 285.680432 
L 330.03738 266.065297 
L 330.587212 282.411243 
L 330.771021 279.142054 
L 330.955096 266.065297 
L 331.139437 266.065297 
L 331.324046 269.334486 
L 331.508923 269.334486 
L 331.694068 285.680432 
L 331.879482 279.142054 
L 332.437339 279.142054 
L 332.623832 272.603676 
L 332.810595 285.680432 
L 332.997631 272.603676 
L 333.184938 272.603676 
L 333.372517 256.25773 
L 333.56037 275.872865 
L 333.748495 269.334486 
L 334.125569 279.142054 
L 334.503741 285.680432 
L 335.073068 266.065297 
L 335.263397 279.142054 
L 335.454004 259.526919 
L 335.644889 256.25773 
L 335.836053 275.872865 
L 336.027496 279.142054 
L 336.219218 272.603676 
L 336.41122 282.411243 
L 336.603503 275.872865 
L 336.796067 282.411243 
L 336.988912 275.872865 
L 337.18204 279.142054 
L 337.37545 269.334486 
L 337.569142 282.411243 
L 337.763119 275.872865 
L 337.957379 282.411243 
L 338.151924 272.603676 
L 338.346753 269.334486 
L 338.541868 279.142054 
L 338.737269 279.142054 
L 338.932957 285.680432 
L 339.128931 272.603676 
L 339.325193 269.334486 
L 339.521743 269.334486 
L 339.718582 279.142054 
L 339.915709 279.142054 
L 340.113126 282.411243 
L 340.310832 279.142054 
L 340.50883 269.334486 
L 340.707118 279.142054 
L 340.905698 275.872865 
L 341.104569 282.411243 
L 341.303734 275.872865 
L 341.503191 282.411243 
L 341.702942 275.872865 
L 341.902973 279.142054 
L 342.303714 269.334486 
L 342.504425 275.872865 
L 342.705362 272.603676 
L 342.906525 272.603676 
L 343.107915 262.796108 
L 343.309531 266.065297 
L 343.511373 262.796108 
L 343.713442 262.796108 
L 343.915737 272.603676 
L 344.118258 259.526919 
L 344.321005 279.142054 
L 344.523978 272.603676 
L 344.930604 282.411243 
L 345.134256 279.142054 
L 345.542239 259.526919 
L 345.74657 275.872865 
L 345.951128 279.142054 
L 346.360921 272.603676 
L 346.566158 272.603676 
L 346.77162 262.796108 
L 346.977309 275.872865 
L 347.183224 272.603676 
L 347.389366 262.796108 
L 347.595734 282.411243 
L 347.802328 272.603676 
L 348.009149 272.603676 
L 348.216196 269.334486 
L 348.42347 275.872865 
L 348.63097 275.872865 
L 348.838696 272.603676 
L 349.046649 272.603676 
L 349.463233 279.142054 
L 349.671865 272.603676 
L 349.880723 279.142054 
L 350.089808 279.142054 
L 350.299119 269.334486 
L 350.508656 266.065297 
L 350.92841 282.411243 
L 351.34907 269.334486 
L 351.559739 282.411243 
L 351.770635 269.334486 
L 351.981758 266.065297 
L 352.404681 275.872865 
L 352.616483 279.142054 
L 352.82851 275.872865 
L 353.040765 269.334486 
L 353.253245 272.603676 
L 353.465952 279.142054 
L 353.678885 272.603676 
L 353.892045 279.142054 
L 354.105431 279.142054 
L 354.319044 275.872865 
L 354.532882 279.142054 
L 354.746947 269.334486 
L 354.961239 282.411243 
L 355.175757 282.411243 
L 355.605471 275.872865 
L 355.820668 279.142054 
L 356.036091 272.603676 
L 356.25174 279.142054 
L 356.467616 272.603676 
L 356.683718 279.142054 
L 356.900046 275.872865 
L 357.116601 275.872865 
L 357.333382 282.411243 
L 357.550389 275.872865 
L 357.767622 282.411243 
L 358.202767 272.603676 
L 358.638818 282.411243 
L 358.857182 275.872865 
L 359.075773 279.142054 
L 359.294589 275.872865 
L 359.513633 279.142054 
L 359.732902 279.142054 
L 359.952397 275.872865 
L 360.392066 275.872865 
L 360.61224 282.411243 
L 360.83264 272.603676 
L 361.053266 279.142054 
L 361.274118 269.334486 
L 361.495196 279.142054 
L 361.716501 279.142054 
L 361.938031 275.872865 
L 362.159788 275.872865 
L 362.38177 279.142054 
L 363.049074 269.334486 
L 363.271961 275.872865 
L 363.495073 269.334486 
L 363.718412 272.603676 
L 363.941977 272.603676 
L 364.165768 279.142054 
L 364.389784 275.872865 
L 364.614027 279.142054 
L 364.838496 272.603676 
L 365.288111 279.142054 
L 365.73863 279.142054 
L 365.964228 275.872865 
L 366.190052 279.142054 
L 366.416102 275.872865 
L 366.642378 279.142054 
L 366.86888 275.872865 
L 367.322562 275.872865 
L 367.549741 279.142054 
L 367.777147 275.872865 
L 368.004778 279.142054 
L 368.232635 275.872865 
L 368.460718 279.142054 
L 368.689027 279.142054 
L 368.917561 275.872865 
L 369.146322 275.872865 
L 369.375308 279.142054 
L 369.60452 272.603676 
L 369.833958 279.142054 
L 370.063622 279.142054 
L 370.293511 275.872865 
L 370.753968 275.872865 
L 370.984535 279.142054 
L 371.215327 279.142054 
L 371.446346 285.680432 
L 371.67759 275.872865 
L 372.372678 275.872865 
L 372.837198 269.334486 
L 373.069797 275.872865 
L 373.535673 275.872865 
L 373.768949 272.603676 
L 374.23618 279.142054 
L 374.470133 275.872865 
L 374.704313 279.142054 
L 375.17335 279.142054 
L 375.408207 275.872865 
L 377.295194 275.872865 
L 377.532083 279.142054 
L 377.769199 275.872865 
L 378.006541 269.334486 
L 378.244108 275.872865 
L 378.481902 272.603676 
L 378.719921 279.142054 
L 379.196638 272.603676 
L 379.435335 282.411243 
L 379.674258 275.872865 
L 379.913408 272.603676 
L 380.152783 279.142054 
L 380.392385 275.872865 
L 380.632212 279.142054 
L 380.872266 275.872865 
L 381.112545 279.142054 
L 381.353051 279.142054 
L 381.834742 272.603676 
L 382.800837 272.603676 
L 383.285242 279.142054 
L 383.527784 275.872865 
L 384.013547 275.872865 
L 384.256769 272.603676 
L 384.743891 272.603676 
L 384.987792 275.872865 
L 385.231919 275.872865 
L 385.476273 272.603676 
L 385.720854 272.603676 
L 385.965661 275.872865 
L 386.210695 275.872865 
L 386.455956 272.603676 
L 386.701443 279.142054 
L 386.947157 272.603676 
L 387.439266 279.142054 
L 387.685661 275.872865 
L 387.932283 275.872865 
L 388.179132 279.142054 
L 388.426208 279.142054 
L 388.921041 272.603676 
L 389.416784 279.142054 
L 389.664995 272.603676 
L 389.913435 275.872865 
L 390.410996 275.872865 
L 390.660117 272.603676 
L 391.408848 272.603676 
L 391.65888 279.142054 
L 391.90914 272.603676 
L 392.159627 279.142054 
L 392.410343 272.603676 
L 392.661287 275.872865 
L 392.912458 275.872865 
L 393.163858 279.142054 
L 393.415486 272.603676 
L 393.667342 282.411243 
L 393.919426 275.872865 
L 394.171739 279.142054 
L 394.42428 272.603676 
L 394.677049 279.142054 
L 394.930048 272.603676 
L 395.183274 275.872865 
L 395.428033 275.872865 
L 395.681715 272.603676 
L 395.935618 272.603676 
L 396.444115 279.142054 
L 396.698707 272.603676 
L 397.719368 272.603676 
L 397.975107 279.142054 
L 398.487273 272.603676 
L 398.487273 272.603676 
" style="fill:none;stroke:#1f77b4;stroke-linecap:square;stroke-width:1.5;"/>
   </g>
   <g id="patch_3">
    <path d="M 57.6 307.584 
L 57.6 41.472 
" style="fill:none;stroke:#000000;stroke-linecap:square;stroke-linejoin:miter;stroke-width:0.8;"/>
   </g>
   <g id="patch_4">
    <path d="M 414.72 307.584 
L 414.72 41.472 
" style="fill:none;stroke:#000000;stroke-linecap:square;stroke-linejoin:miter;stroke-width:0.8;"/>
   </g>
   <g id="patch_5">
    <path d="M 57.6 307.584 
L 414.72 307.584 
" style="fill:none;stroke:#000000;stroke-linecap:square;stroke-linejoin:miter;stroke-width:0.8;"/>
   </g>
   <g id="patch_6">
    <path d="M 57.6 41.472 
L 414.72 41.472 
" style="fill:none;stroke:#000000;stroke-linecap:square;stroke-linejoin:miter;stroke-width:0.8;"/>
   </g>
  </g>
 </g>
 <defs>
  <clipPath id="p0a57dc08eb">
   <rect height="266.112" width="357.12" x="57.6" y="41.472"/>
  </clipPath>
 </defs>
</svg>
