<?xml version="1.0" encoding="utf-8" standalone="no"?>
<!DOCTYPE svg PUBLIC "-//W3C//DTD SVG 1.1//EN"
  "http://www.w3.org/Graphics/SVG/1.1/DTD/svg11.dtd">
<!-- Created with matplotlib (https://matplotlib.org/) -->
<svg height="345.6pt" version="1.1" viewBox="0 0 460.8 345.6" width="460.8pt" xmlns="http://www.w3.org/2000/svg" xmlns:xlink="http://www.w3.org/1999/xlink">
 <metadata>
  <rdf:RDF xmlns:cc="http://creativecommons.org/ns#" xmlns:dc="http://purl.org/dc/elements/1.1/" xmlns:rdf="http://www.w3.org/1999/02/22-rdf-syntax-ns#">
   <cc:Work>
    <dc:type rdf:resource="http://purl.org/dc/dcmitype/StillImage"/>
    <dc:date>2022-10-17T22:52:40.802402</dc:date>
    <dc:format>image/svg+xml</dc:format>
    <dc:creator>
     <cc:Agent>
      <dc:title>Matplotlib v3.3.4, https://matplotlib.org/</dc:title>
     </cc:Agent>
    </dc:creator>
   </cc:Work>
  </rdf:RDF>
 </metadata>
 <defs>
  <style type="text/css">*{stroke-linecap:butt;stroke-linejoin:round;}</style>
 </defs>
 <g id="figure_1">
  <g id="patch_1">
   <path d="M 0 345.6 
L 460.8 345.6 
L 460.8 0 
L 0 0 
z
" style="fill:#ffffff;"/>
  </g>
  <g id="axes_1">
   <g id="patch_2">
    <path d="M 57.6 307.584 
L 414.72 307.584 
L 414.72 41.472 
L 57.6 41.472 
z
" style="fill:#ffffff;"/>
   </g>
   <g id="matplotlib.axis_1">
    <g id="xtick_1">
     <g id="line2d_1">
      <defs>
       <path d="M 0 0 
L 0 3.5 
" id="mb228ba4ad4" style="stroke:#000000;stroke-width:0.8;"/>
      </defs>
      <g>
       <use style="stroke:#000000;stroke-width:0.8;" x="73.813939" xlink:href="#mb228ba4ad4" y="307.584"/>
      </g>
     </g>
     <g id="text_1">
      <!-- 0.0 -->
      <g transform="translate(65.862377 322.182437)scale(0.1 -0.1)">
       <defs>
        <path d="M 31.78125 66.40625 
Q 24.171875 66.40625 20.328125 58.90625 
Q 16.5 51.421875 16.5 36.375 
Q 16.5 21.390625 20.328125 13.890625 
Q 24.171875 6.390625 31.78125 6.390625 
Q 39.453125 6.390625 43.28125 13.890625 
Q 47.125 21.390625 47.125 36.375 
Q 47.125 51.421875 43.28125 58.90625 
Q 39.453125 66.40625 31.78125 66.40625 
z
M 31.78125 74.21875 
Q 44.046875 74.21875 50.515625 64.515625 
Q 56.984375 54.828125 56.984375 36.375 
Q 56.984375 17.96875 50.515625 8.265625 
Q 44.046875 -1.421875 31.78125 -1.421875 
Q 19.53125 -1.421875 13.0625 8.265625 
Q 6.59375 17.96875 6.59375 36.375 
Q 6.59375 54.828125 13.0625 64.515625 
Q 19.53125 74.21875 31.78125 74.21875 
z
" id="DejaVuSans-48"/>
        <path d="M 10.6875 12.40625 
L 21 12.40625 
L 21 0 
L 10.6875 0 
z
" id="DejaVuSans-46"/>
       </defs>
       <use xlink:href="#DejaVuSans-48"/>
       <use x="63.623047" xlink:href="#DejaVuSans-46"/>
       <use x="95.410156" xlink:href="#DejaVuSans-48"/>
      </g>
     </g>
    </g>
    <g id="xtick_2">
     <g id="line2d_2">
      <g>
       <use style="stroke:#000000;stroke-width:0.8;" x="114.396136" xlink:href="#mb228ba4ad4" y="307.584"/>
      </g>
     </g>
     <g id="text_2">
      <!-- 2.5 -->
      <g transform="translate(106.444573 322.182437)scale(0.1 -0.1)">
       <defs>
        <path d="M 19.1875 8.296875 
L 53.609375 8.296875 
L 53.609375 0 
L 7.328125 0 
L 7.328125 8.296875 
Q 12.9375 14.109375 22.625 23.890625 
Q 32.328125 33.6875 34.8125 36.53125 
Q 39.546875 41.84375 41.421875 45.53125 
Q 43.3125 49.21875 43.3125 52.78125 
Q 43.3125 58.59375 39.234375 62.25 
Q 35.15625 65.921875 28.609375 65.921875 
Q 23.96875 65.921875 18.8125 64.3125 
Q 13.671875 62.703125 7.8125 59.421875 
L 7.8125 69.390625 
Q 13.765625 71.78125 18.9375 73 
Q 24.125 74.21875 28.421875 74.21875 
Q 39.75 74.21875 46.484375 68.546875 
Q 53.21875 62.890625 53.21875 53.421875 
Q 53.21875 48.921875 51.53125 44.890625 
Q 49.859375 40.875 45.40625 35.40625 
Q 44.1875 33.984375 37.640625 27.21875 
Q 31.109375 20.453125 19.1875 8.296875 
z
" id="DejaVuSans-50"/>
        <path d="M 10.796875 72.90625 
L 49.515625 72.90625 
L 49.515625 64.59375 
L 19.828125 64.59375 
L 19.828125 46.734375 
Q 21.96875 47.46875 24.109375 47.828125 
Q 26.265625 48.1875 28.421875 48.1875 
Q 40.625 48.1875 47.75 41.5 
Q 54.890625 34.8125 54.890625 23.390625 
Q 54.890625 11.625 47.5625 5.09375 
Q 40.234375 -1.421875 26.90625 -1.421875 
Q 22.3125 -1.421875 17.546875 -0.640625 
Q 12.796875 0.140625 7.71875 1.703125 
L 7.71875 11.625 
Q 12.109375 9.234375 16.796875 8.0625 
Q 21.484375 6.890625 26.703125 6.890625 
Q 35.15625 6.890625 40.078125 11.328125 
Q 45.015625 15.765625 45.015625 23.390625 
Q 45.015625 31 40.078125 35.4375 
Q 35.15625 39.890625 26.703125 39.890625 
Q 22.75 39.890625 18.8125 39.015625 
Q 14.890625 38.140625 10.796875 36.28125 
z
" id="DejaVuSans-53"/>
       </defs>
       <use xlink:href="#DejaVuSans-50"/>
       <use x="63.623047" xlink:href="#DejaVuSans-46"/>
       <use x="95.410156" xlink:href="#DejaVuSans-53"/>
      </g>
     </g>
    </g>
    <g id="xtick_3">
     <g id="line2d_3">
      <g>
       <use style="stroke:#000000;stroke-width:0.8;" x="154.978332" xlink:href="#mb228ba4ad4" y="307.584"/>
      </g>
     </g>
     <g id="text_3">
      <!-- 5.0 -->
      <g transform="translate(147.026769 322.182437)scale(0.1 -0.1)">
       <use xlink:href="#DejaVuSans-53"/>
       <use x="63.623047" xlink:href="#DejaVuSans-46"/>
       <use x="95.410156" xlink:href="#DejaVuSans-48"/>
      </g>
     </g>
    </g>
    <g id="xtick_4">
     <g id="line2d_4">
      <g>
       <use style="stroke:#000000;stroke-width:0.8;" x="195.560528" xlink:href="#mb228ba4ad4" y="307.584"/>
      </g>
     </g>
     <g id="text_4">
      <!-- 7.5 -->
      <g transform="translate(187.608966 322.182437)scale(0.1 -0.1)">
       <defs>
        <path d="M 8.203125 72.90625 
L 55.078125 72.90625 
L 55.078125 68.703125 
L 28.609375 0 
L 18.3125 0 
L 43.21875 64.59375 
L 8.203125 64.59375 
z
" id="DejaVuSans-55"/>
       </defs>
       <use xlink:href="#DejaVuSans-55"/>
       <use x="63.623047" xlink:href="#DejaVuSans-46"/>
       <use x="95.410156" xlink:href="#DejaVuSans-53"/>
      </g>
     </g>
    </g>
    <g id="xtick_5">
     <g id="line2d_5">
      <g>
       <use style="stroke:#000000;stroke-width:0.8;" x="236.142725" xlink:href="#mb228ba4ad4" y="307.584"/>
      </g>
     </g>
     <g id="text_5">
      <!-- 10.0 -->
      <g transform="translate(225.009912 322.182437)scale(0.1 -0.1)">
       <defs>
        <path d="M 12.40625 8.296875 
L 28.515625 8.296875 
L 28.515625 63.921875 
L 10.984375 60.40625 
L 10.984375 69.390625 
L 28.421875 72.90625 
L 38.28125 72.90625 
L 38.28125 8.296875 
L 54.390625 8.296875 
L 54.390625 0 
L 12.40625 0 
z
" id="DejaVuSans-49"/>
       </defs>
       <use xlink:href="#DejaVuSans-49"/>
       <use x="63.623047" xlink:href="#DejaVuSans-48"/>
       <use x="127.246094" xlink:href="#DejaVuSans-46"/>
       <use x="159.033203" xlink:href="#DejaVuSans-48"/>
      </g>
     </g>
    </g>
    <g id="xtick_6">
     <g id="line2d_6">
      <g>
       <use style="stroke:#000000;stroke-width:0.8;" x="276.724921" xlink:href="#mb228ba4ad4" y="307.584"/>
      </g>
     </g>
     <g id="text_6">
      <!-- 12.5 -->
      <g transform="translate(265.592108 322.182437)scale(0.1 -0.1)">
       <use xlink:href="#DejaVuSans-49"/>
       <use x="63.623047" xlink:href="#DejaVuSans-50"/>
       <use x="127.246094" xlink:href="#DejaVuSans-46"/>
       <use x="159.033203" xlink:href="#DejaVuSans-53"/>
      </g>
     </g>
    </g>
    <g id="xtick_7">
     <g id="line2d_7">
      <g>
       <use style="stroke:#000000;stroke-width:0.8;" x="317.307117" xlink:href="#mb228ba4ad4" y="307.584"/>
      </g>
     </g>
     <g id="text_7">
      <!-- 15.0 -->
      <g transform="translate(306.174305 322.182437)scale(0.1 -0.1)">
       <use xlink:href="#DejaVuSans-49"/>
       <use x="63.623047" xlink:href="#DejaVuSans-53"/>
       <use x="127.246094" xlink:href="#DejaVuSans-46"/>
       <use x="159.033203" xlink:href="#DejaVuSans-48"/>
      </g>
     </g>
    </g>
    <g id="xtick_8">
     <g id="line2d_8">
      <g>
       <use style="stroke:#000000;stroke-width:0.8;" x="357.889314" xlink:href="#mb228ba4ad4" y="307.584"/>
      </g>
     </g>
     <g id="text_8">
      <!-- 17.5 -->
      <g transform="translate(346.756501 322.182437)scale(0.1 -0.1)">
       <use xlink:href="#DejaVuSans-49"/>
       <use x="63.623047" xlink:href="#DejaVuSans-55"/>
       <use x="127.246094" xlink:href="#DejaVuSans-46"/>
       <use x="159.033203" xlink:href="#DejaVuSans-53"/>
      </g>
     </g>
    </g>
    <g id="xtick_9">
     <g id="line2d_9">
      <g>
       <use style="stroke:#000000;stroke-width:0.8;" x="398.47151" xlink:href="#mb228ba4ad4" y="307.584"/>
      </g>
     </g>
     <g id="text_9">
      <!-- 20.0 -->
      <g transform="translate(387.338698 322.182437)scale(0.1 -0.1)">
       <use xlink:href="#DejaVuSans-50"/>
       <use x="63.623047" xlink:href="#DejaVuSans-48"/>
       <use x="127.246094" xlink:href="#DejaVuSans-46"/>
       <use x="159.033203" xlink:href="#DejaVuSans-48"/>
      </g>
     </g>
    </g>
    <g id="text_10">
     <!-- time [days] -->
     <g transform="translate(207.570937 335.860562)scale(0.1 -0.1)">
      <defs>
       <path d="M 18.3125 70.21875 
L 18.3125 54.6875 
L 36.8125 54.6875 
L 36.8125 47.703125 
L 18.3125 47.703125 
L 18.3125 18.015625 
Q 18.3125 11.328125 20.140625 9.421875 
Q 21.96875 7.515625 27.59375 7.515625 
L 36.8125 7.515625 
L 36.8125 0 
L 27.59375 0 
Q 17.1875 0 13.234375 3.875 
Q 9.28125 7.765625 9.28125 18.015625 
L 9.28125 47.703125 
L 2.6875 47.703125 
L 2.6875 54.6875 
L 9.28125 54.6875 
L 9.28125 70.21875 
z
" id="DejaVuSans-116"/>
       <path d="M 9.421875 54.6875 
L 18.40625 54.6875 
L 18.40625 0 
L 9.421875 0 
z
M 9.421875 75.984375 
L 18.40625 75.984375 
L 18.40625 64.59375 
L 9.421875 64.59375 
z
" id="DejaVuSans-105"/>
       <path d="M 52 44.1875 
Q 55.375 50.25 60.0625 53.125 
Q 64.75 56 71.09375 56 
Q 79.640625 56 84.28125 50.015625 
Q 88.921875 44.046875 88.921875 33.015625 
L 88.921875 0 
L 79.890625 0 
L 79.890625 32.71875 
Q 79.890625 40.578125 77.09375 44.375 
Q 74.3125 48.1875 68.609375 48.1875 
Q 61.625 48.1875 57.5625 43.546875 
Q 53.515625 38.921875 53.515625 30.90625 
L 53.515625 0 
L 44.484375 0 
L 44.484375 32.71875 
Q 44.484375 40.625 41.703125 44.40625 
Q 38.921875 48.1875 33.109375 48.1875 
Q 26.21875 48.1875 22.15625 43.53125 
Q 18.109375 38.875 18.109375 30.90625 
L 18.109375 0 
L 9.078125 0 
L 9.078125 54.6875 
L 18.109375 54.6875 
L 18.109375 46.1875 
Q 21.1875 51.21875 25.484375 53.609375 
Q 29.78125 56 35.6875 56 
Q 41.65625 56 45.828125 52.96875 
Q 50 49.953125 52 44.1875 
z
" id="DejaVuSans-109"/>
       <path d="M 56.203125 29.59375 
L 56.203125 25.203125 
L 14.890625 25.203125 
Q 15.484375 15.921875 20.484375 11.0625 
Q 25.484375 6.203125 34.421875 6.203125 
Q 39.59375 6.203125 44.453125 7.46875 
Q 49.3125 8.734375 54.109375 11.28125 
L 54.109375 2.78125 
Q 49.265625 0.734375 44.1875 -0.34375 
Q 39.109375 -1.421875 33.890625 -1.421875 
Q 20.796875 -1.421875 13.15625 6.1875 
Q 5.515625 13.8125 5.515625 26.8125 
Q 5.515625 40.234375 12.765625 48.109375 
Q 20.015625 56 32.328125 56 
Q 43.359375 56 49.78125 48.890625 
Q 56.203125 41.796875 56.203125 29.59375 
z
M 47.21875 32.234375 
Q 47.125 39.59375 43.09375 43.984375 
Q 39.0625 48.390625 32.421875 48.390625 
Q 24.90625 48.390625 20.390625 44.140625 
Q 15.875 39.890625 15.1875 32.171875 
z
" id="DejaVuSans-101"/>
       <path id="DejaVuSans-32"/>
       <path d="M 8.59375 75.984375 
L 29.296875 75.984375 
L 29.296875 69 
L 17.578125 69 
L 17.578125 -6.203125 
L 29.296875 -6.203125 
L 29.296875 -13.1875 
L 8.59375 -13.1875 
z
" id="DejaVuSans-91"/>
       <path d="M 45.40625 46.390625 
L 45.40625 75.984375 
L 54.390625 75.984375 
L 54.390625 0 
L 45.40625 0 
L 45.40625 8.203125 
Q 42.578125 3.328125 38.25 0.953125 
Q 33.9375 -1.421875 27.875 -1.421875 
Q 17.96875 -1.421875 11.734375 6.484375 
Q 5.515625 14.40625 5.515625 27.296875 
Q 5.515625 40.1875 11.734375 48.09375 
Q 17.96875 56 27.875 56 
Q 33.9375 56 38.25 53.625 
Q 42.578125 51.265625 45.40625 46.390625 
z
M 14.796875 27.296875 
Q 14.796875 17.390625 18.875 11.75 
Q 22.953125 6.109375 30.078125 6.109375 
Q 37.203125 6.109375 41.296875 11.75 
Q 45.40625 17.390625 45.40625 27.296875 
Q 45.40625 37.203125 41.296875 42.84375 
Q 37.203125 48.484375 30.078125 48.484375 
Q 22.953125 48.484375 18.875 42.84375 
Q 14.796875 37.203125 14.796875 27.296875 
z
" id="DejaVuSans-100"/>
       <path d="M 34.28125 27.484375 
Q 23.390625 27.484375 19.1875 25 
Q 14.984375 22.515625 14.984375 16.5 
Q 14.984375 11.71875 18.140625 8.90625 
Q 21.296875 6.109375 26.703125 6.109375 
Q 34.1875 6.109375 38.703125 11.40625 
Q 43.21875 16.703125 43.21875 25.484375 
L 43.21875 27.484375 
z
M 52.203125 31.203125 
L 52.203125 0 
L 43.21875 0 
L 43.21875 8.296875 
Q 40.140625 3.328125 35.546875 0.953125 
Q 30.953125 -1.421875 24.3125 -1.421875 
Q 15.921875 -1.421875 10.953125 3.296875 
Q 6 8.015625 6 15.921875 
Q 6 25.140625 12.171875 29.828125 
Q 18.359375 34.515625 30.609375 34.515625 
L 43.21875 34.515625 
L 43.21875 35.40625 
Q 43.21875 41.609375 39.140625 45 
Q 35.0625 48.390625 27.6875 48.390625 
Q 23 48.390625 18.546875 47.265625 
Q 14.109375 46.140625 10.015625 43.890625 
L 10.015625 52.203125 
Q 14.9375 54.109375 19.578125 55.046875 
Q 24.21875 56 28.609375 56 
Q 40.484375 56 46.34375 49.84375 
Q 52.203125 43.703125 52.203125 31.203125 
z
" id="DejaVuSans-97"/>
       <path d="M 32.171875 -5.078125 
Q 28.375 -14.84375 24.75 -17.8125 
Q 21.140625 -20.796875 15.09375 -20.796875 
L 7.90625 -20.796875 
L 7.90625 -13.28125 
L 13.1875 -13.28125 
Q 16.890625 -13.28125 18.9375 -11.515625 
Q 21 -9.765625 23.484375 -3.21875 
L 25.09375 0.875 
L 2.984375 54.6875 
L 12.5 54.6875 
L 29.59375 11.921875 
L 46.6875 54.6875 
L 56.203125 54.6875 
z
" id="DejaVuSans-121"/>
       <path d="M 44.28125 53.078125 
L 44.28125 44.578125 
Q 40.484375 46.53125 36.375 47.5 
Q 32.28125 48.484375 27.875 48.484375 
Q 21.1875 48.484375 17.84375 46.4375 
Q 14.5 44.390625 14.5 40.28125 
Q 14.5 37.15625 16.890625 35.375 
Q 19.28125 33.59375 26.515625 31.984375 
L 29.59375 31.296875 
Q 39.15625 29.25 43.1875 25.515625 
Q 47.21875 21.78125 47.21875 15.09375 
Q 47.21875 7.46875 41.1875 3.015625 
Q 35.15625 -1.421875 24.609375 -1.421875 
Q 20.21875 -1.421875 15.453125 -0.5625 
Q 10.6875 0.296875 5.421875 2 
L 5.421875 11.28125 
Q 10.40625 8.6875 15.234375 7.390625 
Q 20.0625 6.109375 24.8125 6.109375 
Q 31.15625 6.109375 34.5625 8.28125 
Q 37.984375 10.453125 37.984375 14.40625 
Q 37.984375 18.0625 35.515625 20.015625 
Q 33.0625 21.96875 24.703125 23.78125 
L 21.578125 24.515625 
Q 13.234375 26.265625 9.515625 29.90625 
Q 5.8125 33.546875 5.8125 39.890625 
Q 5.8125 47.609375 11.28125 51.796875 
Q 16.75 56 26.8125 56 
Q 31.78125 56 36.171875 55.265625 
Q 40.578125 54.546875 44.28125 53.078125 
z
" id="DejaVuSans-115"/>
       <path d="M 30.421875 75.984375 
L 30.421875 -13.1875 
L 9.71875 -13.1875 
L 9.71875 -6.203125 
L 21.390625 -6.203125 
L 21.390625 69 
L 9.71875 69 
L 9.71875 75.984375 
z
" id="DejaVuSans-93"/>
      </defs>
      <use xlink:href="#DejaVuSans-116"/>
      <use x="39.208984" xlink:href="#DejaVuSans-105"/>
      <use x="66.992188" xlink:href="#DejaVuSans-109"/>
      <use x="164.404297" xlink:href="#DejaVuSans-101"/>
      <use x="225.927734" xlink:href="#DejaVuSans-32"/>
      <use x="257.714844" xlink:href="#DejaVuSans-91"/>
      <use x="296.728516" xlink:href="#DejaVuSans-100"/>
      <use x="360.205078" xlink:href="#DejaVuSans-97"/>
      <use x="421.484375" xlink:href="#DejaVuSans-121"/>
      <use x="480.664062" xlink:href="#DejaVuSans-115"/>
      <use x="532.763672" xlink:href="#DejaVuSans-93"/>
     </g>
    </g>
   </g>
   <g id="matplotlib.axis_2">
    <g id="ytick_1">
     <g id="line2d_10">
      <defs>
       <path d="M 0 0 
L -3.5 0 
" id="m7aa232f539" style="stroke:#000000;stroke-width:0.8;"/>
      </defs>
      <g>
       <use style="stroke:#000000;stroke-width:0.8;" x="57.6" xlink:href="#m7aa232f539" y="295.488"/>
      </g>
     </g>
     <g id="text_11">
      <!-- 0.0 -->
      <g transform="translate(34.696875 299.287219)scale(0.1 -0.1)">
       <use xlink:href="#DejaVuSans-48"/>
       <use x="63.623047" xlink:href="#DejaVuSans-46"/>
       <use x="95.410156" xlink:href="#DejaVuSans-48"/>
      </g>
     </g>
    </g>
    <g id="ytick_2">
     <g id="line2d_11">
      <g>
       <use style="stroke:#000000;stroke-width:0.8;" x="57.6" xlink:href="#m7aa232f539" y="240.900882"/>
      </g>
     </g>
     <g id="text_12">
      <!-- 0.2 -->
      <g transform="translate(34.696875 244.7001)scale(0.1 -0.1)">
       <use xlink:href="#DejaVuSans-48"/>
       <use x="63.623047" xlink:href="#DejaVuSans-46"/>
       <use x="95.410156" xlink:href="#DejaVuSans-50"/>
      </g>
     </g>
    </g>
    <g id="ytick_3">
     <g id="line2d_12">
      <g>
       <use style="stroke:#000000;stroke-width:0.8;" x="57.6" xlink:href="#m7aa232f539" y="186.313763"/>
      </g>
     </g>
     <g id="text_13">
      <!-- 0.4 -->
      <g transform="translate(34.696875 190.112982)scale(0.1 -0.1)">
       <defs>
        <path d="M 37.796875 64.3125 
L 12.890625 25.390625 
L 37.796875 25.390625 
z
M 35.203125 72.90625 
L 47.609375 72.90625 
L 47.609375 25.390625 
L 58.015625 25.390625 
L 58.015625 17.1875 
L 47.609375 17.1875 
L 47.609375 0 
L 37.796875 0 
L 37.796875 17.1875 
L 4.890625 17.1875 
L 4.890625 26.703125 
z
" id="DejaVuSans-52"/>
       </defs>
       <use xlink:href="#DejaVuSans-48"/>
       <use x="63.623047" xlink:href="#DejaVuSans-46"/>
       <use x="95.410156" xlink:href="#DejaVuSans-52"/>
      </g>
     </g>
    </g>
    <g id="ytick_4">
     <g id="line2d_13">
      <g>
       <use style="stroke:#000000;stroke-width:0.8;" x="57.6" xlink:href="#m7aa232f539" y="131.726645"/>
      </g>
     </g>
     <g id="text_14">
      <!-- 0.6 -->
      <g transform="translate(34.696875 135.525864)scale(0.1 -0.1)">
       <defs>
        <path d="M 33.015625 40.375 
Q 26.375 40.375 22.484375 35.828125 
Q 18.609375 31.296875 18.609375 23.390625 
Q 18.609375 15.53125 22.484375 10.953125 
Q 26.375 6.390625 33.015625 6.390625 
Q 39.65625 6.390625 43.53125 10.953125 
Q 47.40625 15.53125 47.40625 23.390625 
Q 47.40625 31.296875 43.53125 35.828125 
Q 39.65625 40.375 33.015625 40.375 
z
M 52.59375 71.296875 
L 52.59375 62.3125 
Q 48.875 64.0625 45.09375 64.984375 
Q 41.3125 65.921875 37.59375 65.921875 
Q 27.828125 65.921875 22.671875 59.328125 
Q 17.53125 52.734375 16.796875 39.40625 
Q 19.671875 43.65625 24.015625 45.921875 
Q 28.375 48.1875 33.59375 48.1875 
Q 44.578125 48.1875 50.953125 41.515625 
Q 57.328125 34.859375 57.328125 23.390625 
Q 57.328125 12.15625 50.6875 5.359375 
Q 44.046875 -1.421875 33.015625 -1.421875 
Q 20.359375 -1.421875 13.671875 8.265625 
Q 6.984375 17.96875 6.984375 36.375 
Q 6.984375 53.65625 15.1875 63.9375 
Q 23.390625 74.21875 37.203125 74.21875 
Q 40.921875 74.21875 44.703125 73.484375 
Q 48.484375 72.75 52.59375 71.296875 
z
" id="DejaVuSans-54"/>
       </defs>
       <use xlink:href="#DejaVuSans-48"/>
       <use x="63.623047" xlink:href="#DejaVuSans-46"/>
       <use x="95.410156" xlink:href="#DejaVuSans-54"/>
      </g>
     </g>
    </g>
    <g id="ytick_5">
     <g id="line2d_14">
      <g>
       <use style="stroke:#000000;stroke-width:0.8;" x="57.6" xlink:href="#m7aa232f539" y="77.139527"/>
      </g>
     </g>
     <g id="text_15">
      <!-- 0.8 -->
      <g transform="translate(34.696875 80.938746)scale(0.1 -0.1)">
       <defs>
        <path d="M 31.78125 34.625 
Q 24.75 34.625 20.71875 30.859375 
Q 16.703125 27.09375 16.703125 20.515625 
Q 16.703125 13.921875 20.71875 10.15625 
Q 24.75 6.390625 31.78125 6.390625 
Q 38.8125 6.390625 42.859375 10.171875 
Q 46.921875 13.96875 46.921875 20.515625 
Q 46.921875 27.09375 42.890625 30.859375 
Q 38.875 34.625 31.78125 34.625 
z
M 21.921875 38.8125 
Q 15.578125 40.375 12.03125 44.71875 
Q 8.5 49.078125 8.5 55.328125 
Q 8.5 64.0625 14.71875 69.140625 
Q 20.953125 74.21875 31.78125 74.21875 
Q 42.671875 74.21875 48.875 69.140625 
Q 55.078125 64.0625 55.078125 55.328125 
Q 55.078125 49.078125 51.53125 44.71875 
Q 48 40.375 41.703125 38.8125 
Q 48.828125 37.15625 52.796875 32.3125 
Q 56.78125 27.484375 56.78125 20.515625 
Q 56.78125 9.90625 50.3125 4.234375 
Q 43.84375 -1.421875 31.78125 -1.421875 
Q 19.734375 -1.421875 13.25 4.234375 
Q 6.78125 9.90625 6.78125 20.515625 
Q 6.78125 27.484375 10.78125 32.3125 
Q 14.796875 37.15625 21.921875 38.8125 
z
M 18.3125 54.390625 
Q 18.3125 48.734375 21.84375 45.5625 
Q 25.390625 42.390625 31.78125 42.390625 
Q 38.140625 42.390625 41.71875 45.5625 
Q 45.3125 48.734375 45.3125 54.390625 
Q 45.3125 60.0625 41.71875 63.234375 
Q 38.140625 66.40625 31.78125 66.40625 
Q 25.390625 66.40625 21.84375 63.234375 
Q 18.3125 60.0625 18.3125 54.390625 
z
" id="DejaVuSans-56"/>
       </defs>
       <use xlink:href="#DejaVuSans-48"/>
       <use x="63.623047" xlink:href="#DejaVuSans-46"/>
       <use x="95.410156" xlink:href="#DejaVuSans-56"/>
      </g>
     </g>
    </g>
    <g id="text_16">
     <!-- Oil production[m³] -->
     <g transform="translate(28.617187 220.453781)rotate(-90)scale(0.1 -0.1)">
      <defs>
       <path d="M 39.40625 66.21875 
Q 28.65625 66.21875 22.328125 58.203125 
Q 16.015625 50.203125 16.015625 36.375 
Q 16.015625 22.609375 22.328125 14.59375 
Q 28.65625 6.59375 39.40625 6.59375 
Q 50.140625 6.59375 56.421875 14.59375 
Q 62.703125 22.609375 62.703125 36.375 
Q 62.703125 50.203125 56.421875 58.203125 
Q 50.140625 66.21875 39.40625 66.21875 
z
M 39.40625 74.21875 
Q 54.734375 74.21875 63.90625 63.9375 
Q 73.09375 53.65625 73.09375 36.375 
Q 73.09375 19.140625 63.90625 8.859375 
Q 54.734375 -1.421875 39.40625 -1.421875 
Q 24.03125 -1.421875 14.8125 8.828125 
Q 5.609375 19.09375 5.609375 36.375 
Q 5.609375 53.65625 14.8125 63.9375 
Q 24.03125 74.21875 39.40625 74.21875 
z
" id="DejaVuSans-79"/>
       <path d="M 9.421875 75.984375 
L 18.40625 75.984375 
L 18.40625 0 
L 9.421875 0 
z
" id="DejaVuSans-108"/>
       <path d="M 18.109375 8.203125 
L 18.109375 -20.796875 
L 9.078125 -20.796875 
L 9.078125 54.6875 
L 18.109375 54.6875 
L 18.109375 46.390625 
Q 20.953125 51.265625 25.265625 53.625 
Q 29.59375 56 35.59375 56 
Q 45.5625 56 51.78125 48.09375 
Q 58.015625 40.1875 58.015625 27.296875 
Q 58.015625 14.40625 51.78125 6.484375 
Q 45.5625 -1.421875 35.59375 -1.421875 
Q 29.59375 -1.421875 25.265625 0.953125 
Q 20.953125 3.328125 18.109375 8.203125 
z
M 48.6875 27.296875 
Q 48.6875 37.203125 44.609375 42.84375 
Q 40.53125 48.484375 33.40625 48.484375 
Q 26.265625 48.484375 22.1875 42.84375 
Q 18.109375 37.203125 18.109375 27.296875 
Q 18.109375 17.390625 22.1875 11.75 
Q 26.265625 6.109375 33.40625 6.109375 
Q 40.53125 6.109375 44.609375 11.75 
Q 48.6875 17.390625 48.6875 27.296875 
z
" id="DejaVuSans-112"/>
       <path d="M 41.109375 46.296875 
Q 39.59375 47.171875 37.8125 47.578125 
Q 36.03125 48 33.890625 48 
Q 26.265625 48 22.1875 43.046875 
Q 18.109375 38.09375 18.109375 28.8125 
L 18.109375 0 
L 9.078125 0 
L 9.078125 54.6875 
L 18.109375 54.6875 
L 18.109375 46.1875 
Q 20.953125 51.171875 25.484375 53.578125 
Q 30.03125 56 36.53125 56 
Q 37.453125 56 38.578125 55.875 
Q 39.703125 55.765625 41.0625 55.515625 
z
" id="DejaVuSans-114"/>
       <path d="M 30.609375 48.390625 
Q 23.390625 48.390625 19.1875 42.75 
Q 14.984375 37.109375 14.984375 27.296875 
Q 14.984375 17.484375 19.15625 11.84375 
Q 23.34375 6.203125 30.609375 6.203125 
Q 37.796875 6.203125 41.984375 11.859375 
Q 46.1875 17.53125 46.1875 27.296875 
Q 46.1875 37.015625 41.984375 42.703125 
Q 37.796875 48.390625 30.609375 48.390625 
z
M 30.609375 56 
Q 42.328125 56 49.015625 48.375 
Q 55.71875 40.765625 55.71875 27.296875 
Q 55.71875 13.875 49.015625 6.21875 
Q 42.328125 -1.421875 30.609375 -1.421875 
Q 18.84375 -1.421875 12.171875 6.21875 
Q 5.515625 13.875 5.515625 27.296875 
Q 5.515625 40.765625 12.171875 48.375 
Q 18.84375 56 30.609375 56 
z
" id="DejaVuSans-111"/>
       <path d="M 8.5 21.578125 
L 8.5 54.6875 
L 17.484375 54.6875 
L 17.484375 21.921875 
Q 17.484375 14.15625 20.5 10.265625 
Q 23.53125 6.390625 29.59375 6.390625 
Q 36.859375 6.390625 41.078125 11.03125 
Q 45.3125 15.671875 45.3125 23.6875 
L 45.3125 54.6875 
L 54.296875 54.6875 
L 54.296875 0 
L 45.3125 0 
L 45.3125 8.40625 
Q 42.046875 3.421875 37.71875 1 
Q 33.40625 -1.421875 27.6875 -1.421875 
Q 18.265625 -1.421875 13.375 4.4375 
Q 8.5 10.296875 8.5 21.578125 
z
M 31.109375 56 
z
" id="DejaVuSans-117"/>
       <path d="M 48.78125 52.59375 
L 48.78125 44.1875 
Q 44.96875 46.296875 41.140625 47.34375 
Q 37.3125 48.390625 33.40625 48.390625 
Q 24.65625 48.390625 19.8125 42.84375 
Q 14.984375 37.3125 14.984375 27.296875 
Q 14.984375 17.28125 19.8125 11.734375 
Q 24.65625 6.203125 33.40625 6.203125 
Q 37.3125 6.203125 41.140625 7.25 
Q 44.96875 8.296875 48.78125 10.40625 
L 48.78125 2.09375 
Q 45.015625 0.34375 40.984375 -0.53125 
Q 36.96875 -1.421875 32.421875 -1.421875 
Q 20.0625 -1.421875 12.78125 6.34375 
Q 5.515625 14.109375 5.515625 27.296875 
Q 5.515625 40.671875 12.859375 48.328125 
Q 20.21875 56 33.015625 56 
Q 37.15625 56 41.109375 55.140625 
Q 45.0625 54.296875 48.78125 52.59375 
z
" id="DejaVuSans-99"/>
       <path d="M 54.890625 33.015625 
L 54.890625 0 
L 45.90625 0 
L 45.90625 32.71875 
Q 45.90625 40.484375 42.875 44.328125 
Q 39.84375 48.1875 33.796875 48.1875 
Q 26.515625 48.1875 22.3125 43.546875 
Q 18.109375 38.921875 18.109375 30.90625 
L 18.109375 0 
L 9.078125 0 
L 9.078125 54.6875 
L 18.109375 54.6875 
L 18.109375 46.1875 
Q 21.34375 51.125 25.703125 53.5625 
Q 30.078125 56 35.796875 56 
Q 45.21875 56 50.046875 50.171875 
Q 54.890625 44.34375 54.890625 33.015625 
z
" id="DejaVuSans-110"/>
       <path d="M 25.59375 54.6875 
Q 30.078125 53.8125 32.546875 51.140625 
Q 35.015625 48.484375 35.015625 44.484375 
Q 35.015625 38.421875 30.375 35.15625 
Q 25.734375 31.890625 17.09375 31.890625 
Q 14.3125 31.890625 11.25 32.390625 
Q 8.203125 32.90625 4.78125 33.890625 
L 4.78125 39.796875 
Q 7.328125 38.484375 10.234375 37.84375 
Q 13.140625 37.203125 16.40625 37.203125 
Q 21.734375 37.203125 24.65625 39.125 
Q 27.59375 41.0625 27.59375 44.484375 
Q 27.59375 48.09375 24.875 49.953125 
Q 22.171875 51.8125 16.890625 51.8125 
L 12.703125 51.8125 
L 12.703125 57.078125 
L 17.28125 57.078125 
Q 21.875 57.078125 24.234375 58.609375 
Q 26.609375 60.15625 26.609375 63.09375 
Q 26.609375 65.921875 24.171875 67.40625 
Q 21.734375 68.890625 17.09375 68.890625 
Q 15.140625 68.890625 12.640625 68.453125 
Q 10.15625 68.015625 6.203125 66.890625 
L 6.203125 72.515625 
Q 9.765625 73.34375 12.890625 73.78125 
Q 16.015625 74.21875 18.703125 74.21875 
Q 25.734375 74.21875 29.859375 71.328125 
Q 33.984375 68.453125 33.984375 63.625 
Q 33.984375 60.25 31.78125 57.90625 
Q 29.59375 55.5625 25.59375 54.6875 
z
" id="DejaVuSans-179"/>
      </defs>
      <use xlink:href="#DejaVuSans-79"/>
      <use x="78.710938" xlink:href="#DejaVuSans-105"/>
      <use x="106.494141" xlink:href="#DejaVuSans-108"/>
      <use x="134.277344" xlink:href="#DejaVuSans-32"/>
      <use x="166.064453" xlink:href="#DejaVuSans-112"/>
      <use x="229.541016" xlink:href="#DejaVuSans-114"/>
      <use x="268.404297" xlink:href="#DejaVuSans-111"/>
      <use x="329.585938" xlink:href="#DejaVuSans-100"/>
      <use x="393.0625" xlink:href="#DejaVuSans-117"/>
      <use x="456.441406" xlink:href="#DejaVuSans-99"/>
      <use x="511.421875" xlink:href="#DejaVuSans-116"/>
      <use x="550.630859" xlink:href="#DejaVuSans-105"/>
      <use x="578.414062" xlink:href="#DejaVuSans-111"/>
      <use x="639.595703" xlink:href="#DejaVuSans-110"/>
      <use x="702.974609" xlink:href="#DejaVuSans-91"/>
      <use x="741.988281" xlink:href="#DejaVuSans-109"/>
      <use x="839.400391" xlink:href="#DejaVuSans-179"/>
      <use x="879.488281" xlink:href="#DejaVuSans-93"/>
     </g>
    </g>
   </g>
   <g id="line2d_15">
    <path clip-path="url(#pf5bfbf99ed)" d="M 73.832727 295.488 
L 74.868035 295.488 
L 75.211272 294.053445 
L 75.667516 294.053445 
L 75.895014 293.580477 
L 76.008605 293.580477 
L 76.235465 293.110147 
L 76.348733 293.110147 
L 76.800705 291.709756 
L 76.913419 291.709756 
L 77.475275 289.864828 
L 78.145618 289.864828 
L 78.479144 288.95996 
L 78.922083 288.95996 
L 79.142779 288.513025 
L 80.129265 288.513025 
L 80.564063 287.206932 
L 80.88862 287.206932 
L 81.104237 286.777033 
L 81.319235 286.777033 
L 81.533604 286.351069 
L 81.640547 286.351069 
L 82.278732 284.246365 
L 82.384499 284.246365 
L 82.595504 283.830569 
L 82.700738 283.830569 
L 83.015336 283.006365 
L 83.119828 283.006365 
L 83.535838 281.78476 
L 83.948637 281.78476 
L 84.256015 280.988418 
L 84.864713 280.988418 
L 85.365383 279.44561 
L 85.859622 279.44561 
L 86.250086 278.325765 
L 86.539907 278.325765 
L 86.635918 277.806806 
L 86.771691 277.806806 
L 86.907497 277.288742 
L 87.179192 277.288742 
L 87.315083 276.771906 
L 87.586963 276.771906 
L 87.722957 276.256221 
L 87.995064 276.256221 
L 88.539826 274.199669 
L 88.948964 274.199669 
L 89.222037 273.174839 
L 89.358678 273.174839 
L 89.495393 272.66301 
L 89.906012 272.66301 
L 90.043055 272.151949 
L 90.317418 272.151949 
L 90.592175 271.130811 
L 90.867355 271.130811 
L 91.005113 270.620567 
L 91.280984 270.620567 
L 91.69574 269.090294 
L 91.834261 269.090294 
L 91.972923 268.580174 
L 92.11173 268.580174 
L 92.250687 268.069958 
L 92.529065 268.069958 
L 92.668495 267.559487 
L 93.368233 267.559487 
L 93.649419 266.536478 
L 93.931399 266.536478 
L 94.214213 265.51507 
L 94.632123 265.51507 
L 94.768767 265.026815 
L 95.038518 265.026815 
L 95.17171 264.551913 
L 95.694173 264.551913 
L 95.822381 264.096444 
L 96.326408 264.096444 
L 96.573454 263.222405 
L 97.296425 263.222405 
L 97.531726 262.394961 
L 97.648361 262.394961 
L 97.994311 261.586065 
L 98.334493 261.586065 
L 98.558167 261.194221 
L 99.106776 261.194221 
L 99.322088 260.818978 
L 99.954236 260.818978 
L 100.364472 259.753368 
L 100.465658 259.753368 
L 100.864991 258.719603 
L 101.061451 258.719603 
L 101.448067 257.726692 
L 101.543424 257.726692 
L 101.7326 257.402322 
L 101.826426 257.402322 
L 102.012567 257.083753 
L 103.174967 257.083753 
L 103.346471 256.515368 
L 103.68836 256.515368 
L 103.85875 255.938316 
L 104.199435 255.938316 
L 104.540777 254.784308 
L 105.576121 254.784308 
L 105.751147 254.19571 
L 106.640982 254.19571 
L 106.822343 253.588857 
L 107.188968 253.588857 
L 107.374358 252.970185 
L 107.749612 252.970185 
L 107.939604 252.337937 
L 108.131257 252.337937 
L 108.324636 251.69566 
L 108.519807 251.69566 
L 108.716836 251.042567 
L 109.116733 251.042567 
L 109.507184 249.78949 
L 110.947936 249.78949 
L 111.284766 248.712258 
L 111.936301 248.712258 
L 112.095012 248.206588 
L 112.562113 248.206588 
L 112.714975 247.720969 
L 113.165662 247.720969 
L 113.892642 245.421743 
L 114.592476 245.421743 
L 114.729429 244.991213 
L 114.86542 244.991213 
L 115.000463 244.567324 
L 115.134575 244.567324 
L 115.267768 244.149872 
L 115.400056 244.149872 
L 115.53145 243.738673 
L 115.661962 243.738673 
L 115.791602 243.333566 
L 116.920581 243.333566 
L 117.162545 242.583632 
L 117.282214 242.583632 
L 117.401336 242.215175 
L 117.519596 242.215175 
L 117.753764 241.852043 
L 118.212979 241.852043 
L 118.438078 241.5044 
L 118.660208 241.5044 
L 118.879395 241.166772 
L 119.309041 241.166772 
L 119.72722 240.207146 
L 119.932074 240.207146 
L 120.234137 239.59152 
L 120.333447 239.59152 
L 120.723896 238.698602 
L 120.915099 238.698602 
L 121.586535 236.940706 
L 121.992413 236.940706 
L 122.194622 236.329157 
L 122.798868 236.329157 
L 122.999511 235.725105 
L 123.199747 235.725105 
L 124.39135 232.157411 
L 124.588125 232.157411 
L 124.979978 230.991065 
L 125.369519 230.991065 
L 125.563414 230.416154 
L 125.949453 230.416154 
L 126.141603 229.848206 
L 126.333181 229.848206 
L 126.524193 229.284773 
L 126.904555 229.284773 
L 127.282767 228.173018 
L 127.846255 228.173018 
L 128.405458 226.537865 
L 128.960752 226.537865 
L 129.145049 226.001463 
L 129.328969 226.001463 
L 129.512527 225.471534 
L 129.694588 225.471534 
L 130.228039 223.939643 
L 130.744679 223.939643 
L 130.913461 223.456554 
L 131.410245 223.456554 
L 131.733909 222.533085 
L 132.208878 222.533085 
L 132.364524 222.090416 
L 132.974471 222.090416 
L 133.12392 221.666877 
L 133.996659 221.666877 
L 134.278852 220.871314 
L 134.830838 220.871314 
L 134.966319 220.490793 
L 135.88764 220.490793 
L 136.015495 220.133978 
L 136.393564 220.133978 
L 136.517781 219.787809 
L 137.125634 219.787809 
L 137.244591 219.457542 
L 137.36269 219.457542 
L 137.826601 218.489798 
L 137.940481 218.489798 
L 138.277166 217.867119 
L 138.497538 217.867119 
L 138.928645 216.972891 
L 139.551765 216.972891 
L 139.753344 216.695451 
L 139.951922 216.695451 
L 140.24425 216.162317 
L 141.18686 216.162317 
L 141.755901 214.601045 
L 142.715087 214.601045 
L 142.908666 214.073148 
L 143.493234 214.073148 
L 143.68944 213.539886 
L 144.28244 213.539886 
L 144.681677 212.458907 
L 145.695047 212.458907 
L 145.900578 211.905444 
L 146.107136 211.905444 
L 146.733301 210.223571 
L 147.156157 210.223571 
L 147.364612 209.677752 
L 147.569556 209.677752 
L 147.970885 208.625578 
L 148.553805 208.625578 
L 148.743496 208.129364 
L 148.931051 208.129364 
L 149.116559 207.644621 
L 149.48175 207.644621 
L 149.661576 207.175542 
L 151.041123 207.175542 
L 151.371214 206.319587 
L 151.534233 206.319587 
L 151.69594 205.90094 
L 152.330135 205.90094 
L 152.485637 205.499647 
L 152.63996 205.499647 
L 152.94514 204.713349 
L 153.542073 204.713349 
L 153.68859 204.337164 
L 154.121812 204.337164 
L 154.264146 203.97263 
L 154.685058 203.97263 
L 154.823362 203.619287 
L 155.366777 203.619287 
L 155.500216 203.27977 
L 155.632556 203.27977 
L 156.024474 202.283547 
L 156.153202 202.283547 
L 156.407891 201.637261 
L 156.906319 201.637261 
L 157.150134 201.02064 
L 157.627143 201.02064 
L 157.975742 200.434922 
L 158.316619 200.434922 
L 158.649891 199.876661 
L 159.08263 199.876661 
L 159.398624 199.346982 
L 159.707421 199.346982 
L 160.009154 198.593432 
L 160.108184 197.945307 
L 160.365923 197.945307 
L 160.621182 197.308627 
L 161.626051 197.308627 
L 162.118801 196.08697 
L 162.362915 196.08697 
L 162.605587 195.48663 
L 164.267414 195.48663 
L 164.499967 194.915341 
L 165.191002 194.915341 
L 165.419227 194.356614 
L 165.872649 194.356614 
L 166.097896 193.806567 
L 166.982043 193.806567 
L 167.195019 193.293904 
L 167.611953 193.293904 
L 167.816238 192.802593 
L 168.414065 192.802593 
L 168.608728 192.33515 
L 168.801253 192.33515 
L 168.99173 191.878177 
L 169.180239 191.878177 
L 169.366852 191.430914 
L 169.551638 191.430914 
L 169.734657 190.992718 
L 171.478268 190.992718 
L 171.644798 190.59644 
L 171.810023 190.59644 
L 172.298088 189.437035 
L 172.458308 189.437035 
L 172.775155 188.68588 
L 172.931814 188.68588 
L 173.087318 188.317755 
L 173.547029 188.317755 
L 173.69804 187.96108 
L 174.867558 187.96108 
L 175.009056 187.628554 
L 175.149535 187.628554 
L 175.289004 187.301154 
L 175.70137 187.301154 
L 175.836872 186.983799 
L 176.237442 186.983799 
L 176.369028 186.676214 
L 176.499651 186.676214 
L 176.629317 186.373428 
L 176.75803 186.373428 
L 176.885794 186.075386 
L 177.012615 186.075386 
L 177.138496 185.782031 
L 177.993717 185.782031 
L 178.346577 185.236183 
L 179.248613 185.236183 
L 179.465474 184.984714 
L 179.99292 184.984714 
L 180.198122 184.747432 
L 180.329689 184.747432 
L 180.741641 183.797907 
L 181.155001 183.797907 
L 181.362282 183.318121 
L 181.778024 183.318121 
L 182.195401 182.354466 
L 182.404738 182.354466 
L 182.824786 181.386669 
L 183.035533 181.386669 
L 183.246785 180.900784 
L 183.458561 180.900784 
L 183.67088 180.413121 
L 184.097223 180.413121 
L 184.311286 179.922473 
L 184.52597 179.922473 
L 184.957287 178.935572 
L 185.828321 178.935572 
L 186.047961 178.43492 
L 186.268403 178.43492 
L 186.489669 177.931263 
L 186.711786 177.931263 
L 186.934779 177.432147 
L 187.155244 177.432147 
L 187.371978 176.949334 
L 188.208738 176.949334 
L 188.411318 176.498223 
L 188.611516 176.498223 
L 188.809445 176.057747 
L 189.005205 176.057747 
L 189.390574 175.200924 
L 189.768264 175.200924 
L 189.954401 174.787677 
L 190.138811 174.787677 
L 190.321548 174.382337 
L 190.502664 174.382337 
L 190.860209 173.590177 
L 191.89805 173.590177 
L 192.233215 172.850525 
L 192.398889 172.850525 
L 192.726523 172.128593 
L 193.367429 172.128593 
L 193.524755 171.782899 
L 194.445321 171.782899 
L 194.89103 170.807485 
L 195.037498 170.807485 
L 195.327327 170.17431 
L 195.613057 170.17431 
L 195.7544 169.866055 
L 196.446092 169.866055 
L 196.581468 169.571655 
L 196.849297 169.571655 
L 196.981757 169.284005 
L 197.756411 169.284005 
L 198.130996 168.473476 
L 198.376072 168.473476 
L 199.659099 165.965176 
L 199.880856 165.965176 
L 200.207029 165.498073 
L 200.314049 165.498073 
L 200.525563 165.270248 
L 200.630067 165.270248 
L 200.744027 164.616433 
L 201.047534 163.980439 
L 201.348309 163.980439 
L 201.941889 162.714128 
L 202.524499 162.714128 
L 202.811838 162.102838 
L 203.096654 162.102838 
L 203.379043 161.502874 
L 203.659099 161.502874 
L 203.93691 160.913411 
L 205.295104 160.913411 
L 205.561071 160.353421 
L 206.080445 160.353421 
L 206.573898 159.328415 
L 206.812868 159.328415 
L 207.047249 158.840907 
L 207.277402 158.840907 
L 207.50365 158.370059 
L 208.161597 158.370059 
L 208.374705 157.926523 
L 208.58501 157.926523 
L 208.997807 157.067701 
L 209.200559 157.067701 
L 209.989745 155.427478 
L 210.182026 155.427478 
L 210.37245 155.032163 
L 211.116784 155.032163 
L 211.298787 154.655057 
L 211.479249 154.655057 
L 211.658208 154.284565 
L 212.011763 154.284565 
L 212.359712 153.565304 
L 212.531656 153.565304 
L 212.702281 153.212987 
L 213.039664 153.212987 
L 213.206465 152.869028 
L 214.181925 152.869028 
L 214.340419 152.543234 
L 214.497781 152.543234 
L 214.809155 151.903912 
L 214.963187 151.903912 
L 215.116128 151.590245 
L 215.568492 151.590245 
L 215.717153 151.285902 
L 215.864763 151.285902 
L 216.011328 150.986119 
L 216.444815 150.986119 
L 216.728654 150.406352 
L 216.869091 150.406352 
L 217.008496 150.122075 
L 217.146903 150.122075 
L 217.420736 149.564288 
L 217.690614 149.564288 
L 217.824081 149.292822 
L 218.47685 149.292822 
L 218.604518 149.033782 
L 218.981822 149.033782 
L 219.350655 148.535842 
L 219.711127 148.535842 
L 220.293638 147.590782 
L 220.743518 147.590782 
L 221.179389 146.933343 
L 221.286206 146.933343 
L 221.607182 146.054864 
L 221.829005 145.605558 
L 222.273464 145.605558 
L 222.496016 145.155402 
L 223.388423 145.155402 
L 223.612142 144.70419 
L 224.510001 144.70419 
L 224.735304 144.251058 
L 226.323962 144.251058 
L 226.5528 143.792869 
L 226.782171 143.792869 
L 227.242597 142.872279 
L 227.473693 142.872279 
L 227.705409 142.409627 
L 227.937765 142.409627 
L 228.168269 141.959186 
L 228.394712 141.959186 
L 228.617414 141.523129 
L 229.891284 141.523129 
L 230.09463 141.125176 
L 230.295737 141.125176 
L 230.691612 140.350867 
L 230.886548 140.350867 
L 231.079583 139.973556 
L 231.460214 139.973556 
L 231.647928 139.606988 
L 232.382615 139.606988 
L 232.56246 139.256399 
L 232.740849 139.256399 
L 232.917815 138.911679 
L 233.440471 138.911679 
L 233.782298 138.246973 
L 233.951298 138.246973 
L 234.119048 137.921095 
L 234.939674 137.921095 
L 235.10028 137.609849 
L 235.575293 137.609849 
L 235.731399 137.307815 
L 236.193155 137.307815 
L 236.344915 137.014665 
L 236.941363 137.014665 
L 237.233323 136.451938 
L 237.377757 136.451938 
L 237.521008 136.175552 
L 237.663524 136.175552 
L 237.804922 135.903548 
L 237.945285 135.903548 
L 238.223014 135.369714 
L 238.766559 135.369714 
L 238.899986 135.113785 
L 239.163916 135.113785 
L 239.423973 134.61561 
L 239.932588 134.61561 
L 240.304107 134.140366 
L 240.54711 134.140366 
L 240.786411 133.911122 
L 241.138491 133.911122 
L 241.595294 133.257718 
L 242.254024 133.257718 
L 242.364267 132.641697 
L 245.293943 132.641697 
L 245.609104 132.049135 
L 246.23003 132.049135 
L 246.823338 130.967268 
L 247.103503 130.967268 
L 247.375174 130.467288 
L 248.148684 130.467288 
L 248.39491 130.012035 
L 250.000171 130.012035 
L 250.42891 129.217402 
L 251.655641 129.217402 
L 251.852557 128.85279 
L 252.621604 128.85279 
L 252.809515 128.505296 
L 253.180479 128.505296 
L 253.363619 128.166931 
L 253.545251 128.166931 
L 253.904131 127.504401 
L 254.257379 127.504401 
L 254.431963 127.182481 
L 254.777172 127.182481 
L 254.947844 126.868103 
L 256.429158 126.868103 
L 256.587935 126.576691 
L 258.115589 126.576691 
L 258.262508 126.308123 
L 258.697024 126.308123 
L 258.839842 126.04747 
L 259.811158 126.04747 
L 259.945931 125.802146 
L 260.861963 125.802146 
L 261.240088 125.344647 
L 261.36423 125.344647 
L 261.609688 125.121271 
L 261.731012 125.121271 
L 262.089413 124.688579 
L 262.207037 124.688579 
L 262.439549 124.477415 
L 262.554445 124.477415 
L 262.781542 124.271341 
L 262.893752 124.271341 
L 263.22509 123.870832 
L 263.333789 123.870832 
L 263.693152 123.022511 
L 264.633969 123.022511 
L 264.869257 122.596001 
L 265.104584 122.596001 
L 265.810958 121.317352 
L 266.282384 121.317352 
L 266.518309 120.891077 
L 266.990678 120.891077 
L 268.175585 118.755033 
L 269.128954 118.755033 
L 269.368224 118.325074 
L 270.316526 118.325074 
L 270.544743 117.92271 
L 271.638108 117.92271 
L 271.848439 117.551729 
L 272.261864 117.551729 
L 272.865473 116.487513 
L 273.451285 116.487513 
L 274.207732 115.155576 
L 274.758344 115.155576 
L 274.938909 114.838106 
L 275.118046 114.838106 
L 275.295783 114.525793 
L 275.820871 114.525793 
L 275.993274 114.223224 
L 277.328036 114.223224 
L 277.489559 113.940575 
L 277.649943 113.940575 
L 278.43513 112.568395 
L 279.193207 112.568395 
L 279.489043 112.053138 
L 279.780686 112.053138 
L 279.924999 111.801982 
L 280.351745 111.801982 
L 280.631185 111.316284 
L 281.178065 111.316284 
L 281.312307 111.083363 
L 281.445565 111.083363 
L 281.577844 110.85399 
L 281.709146 110.85399 
L 282.476668 109.742094 
L 282.847556 109.742094 
L 283.564127 108.711512 
L 283.680338 108.711512 
L 284.136157 108.121179 
L 284.358719 108.121179 
L 284.577771 107.93177 
L 284.808829 107.93177 
L 285.43956 106.834965 
L 287.061216 106.834965 
L 287.394158 106.255401 
L 288.396543 106.255401 
L 288.70725 105.742495 
L 289.840873 105.742495 
L 290.361163 104.870036 
L 290.858602 104.870036 
L 291.100011 104.46392 
L 292.897929 104.46392 
L 293.109253 104.107639 
L 293.931049 104.107639 
L 294.719742 102.778724 
L 295.850198 102.778724 
L 296.033107 102.471071 
L 297.786143 102.471071 
L 297.954369 102.188969 
L 298.287202 102.188969 
L 298.451839 101.91313 
L 299.098821 101.91313 
L 299.572219 101.121414 
L 299.882319 101.121414 
L 300.339378 100.35819 
L 300.489599 100.35819 
L 300.638766 100.109331 
L 301.368935 100.109331 
L 301.511879 99.871281 
L 302.348271 99.871281 
L 302.48416 99.645447 
L 302.619057 99.645447 
L 302.752966 99.423034 
L 303.148797 99.423034 
L 303.91427 98.36296 
L 304.405521 98.36296 
L 304.645525 98.163629 
L 304.881826 98.163629 
L 305.114462 97.970603 
L 305.790754 97.970603 
L 305.900369 97.55949 
L 306.147562 97.155183 
L 307.566125 97.151105 
L 307.811889 96.744146 
L 308.303043 96.744146 
L 308.793821 95.932579 
L 309.284387 95.932579 
L 309.529644 95.527554 
L 310.265561 95.527554 
L 310.510988 95.12286 
L 310.756511 95.12286 
L 311.002152 94.718119 
L 311.49387 94.718119 
L 311.986314 93.908426 
L 312.943372 93.908426 
L 313.172521 93.538033 
L 314.482515 93.538033 
L 314.691545 93.199858 
L 315.900301 93.199858 
L 316.287824 92.573359 
L 317.772914 92.573359 
L 317.951895 92.284565 
L 318.997781 92.284565 
L 319.336257 91.739457 
L 319.503672 91.739457 
L 320.161517 90.681155 
L 320.483524 90.681155 
L 320.801034 90.171071 
L 321.114121 90.171071 
L 321.269027 89.922458 
L 322.027457 89.922458 
L 322.175968 89.684775 
L 323.604322 89.684775 
L 323.877848 89.247911 
L 324.013117 89.247911 
L 324.147397 89.033588 
L 324.280689 89.033588 
L 324.674683 88.613071 
L 324.804065 88.613071 
L 325.186419 88.206955 
L 325.311952 88.206955 
L 325.682851 87.813396 
L 325.804597 87.813396 
L 326.164237 87.430629 
L 326.51557 87.430629 
L 326.745239 87.24752 
L 326.97131 87.24752 
L 327.303759 86.58156 
L 328.848181 86.58156 
L 329.481244 85.565587 
L 330.124064 85.565587 
L 330.449287 85.044438 
L 331.419257 85.044438 
L 331.718542 84.585849 
L 332.559103 84.585849 
L 332.823999 84.176149 
L 333.082587 84.176149 
L 333.335487 83.784039 
L 335.738187 83.783772 
L 336.156924 83.130491 
L 336.568621 83.130491 
L 336.771266 82.814963 
L 337.755304 82.814963 
L 337.946754 82.517017 
L 338.324719 82.517017 
L 338.511322 82.226757 
L 339.062084 82.226757 
L 339.242769 81.945925 
L 339.776529 81.945925 
L 339.951769 81.673794 
L 340.46976 81.673794 
L 340.808836 81.147801 
L 341.308399 81.147801 
L 341.635568 80.64091 
L 341.958151 80.64091 
L 342.276228 80.148609 
L 342.589874 80.148609 
L 342.745054 79.908648 
L 342.899151 79.908648 
L 343.052169 79.672154 
L 343.355 79.672154 
L 343.504823 79.441031 
L 344.665879 79.441031 
L 344.9459 79.009649 
L 345.221887 79.009649 
L 345.358378 78.799566 
L 346.286114 78.799566 
L 346.794813 78.211398 
L 346.91959 78.211398 
L 347.883931 76.921349 
L 348.000305 76.921349 
L 348.343979 76.569132 
L 348.456738 76.569132 
L 348.679589 76.397955 
L 348.846927 76.397955 
L 349.105169 76.004045 
L 349.877375 76.004045 
L 350.133945 75.610005 
L 350.645875 75.610005 
L 350.901276 75.218153 
L 351.411066 75.218153 
L 351.665501 74.828159 
L 352.173572 74.828159 
L 352.427255 74.439689 
L 354.198653 74.439689 
L 354.451361 74.053692 
L 354.704049 74.053692 
L 354.954515 73.67918 
L 355.909424 73.67918 
L 356.138497 73.335151 
L 356.586846 73.335151 
L 357.023386 72.678971 
L 357.237623 72.678971 
L 357.44935 72.36063 
L 358.070601 72.36063 
L 358.273366 72.055756 
L 359.064965 72.055756 
L 359.258326 71.765143 
L 359.828393 71.765143 
L 360.015226 71.4845 
L 360.200534 71.4845 
L 360.38435 71.208482 
L 360.566709 71.208482 
L 360.747642 70.936893 
L 361.105345 70.936893 
L 361.282166 70.671634 
L 361.631866 70.671634 
L 361.804786 70.412389 
L 362.484037 70.412389 
L 362.650823 70.162623 
L 362.980859 70.162623 
L 363.144135 69.918283 
L 363.306264 69.918283 
L 363.627124 69.438405 
L 363.785874 69.438405 
L 363.943516 69.202778 
L 364.490386 69.105754 
L 364.540972 69.010427 
L 364.704012 68.773688 
L 365.311195 68.773688 
L 365.458206 68.554571 
L 366.318254 68.554571 
L 366.458025 68.346511 
L 366.734544 68.346511 
L 366.871298 68.143086 
L 367.670995 68.143086 
L 368.057619 67.758895 
L 368.18456 67.758895 
L 368.435565 67.571961 
L 370.400575 67.571961 
L 370.69843 67.129836 
L 371.600948 67.129836 
L 372.212022 66.215773 
L 372.831051 66.215773 
L 373.775411 64.805367 
L 374.094635 64.805367 
L 374.408511 64.359845 
L 376.330265 64.359845 
L 376.822658 63.645994 
L 377.529415 63.645994 
L 377.757698 63.314213 
L 378.204679 63.314213 
L 378.423746 62.995574 
L 378.640078 62.995574 
L 379.06508 62.377192 
L 379.480649 62.377192 
L 379.685151 62.0796 
L 380.286531 62.0796 
L 380.48319 61.79347 
L 380.678055 61.79347 
L 380.871182 61.512532 
L 382.71648 61.512532 
L 382.893173 61.255932 
L 383.068549 61.255932 
L 383.24263 61.003222 
L 383.586985 61.003222 
L 383.757294 60.756135 
L 384.094259 60.756135 
L 384.426449 60.274547 
L 385.076899 60.274547 
L 385.236673 60.043196 
L 385.395331 60.043196 
L 385.70933 59.588785 
L 385.864687 59.588785 
L 386.018959 59.365653 
L 386.324273 59.365653 
L 386.475328 59.147323 
L 387.068979 59.147323 
L 387.214776 58.936824 
L 387.928354 58.936824 
L 388.068011 58.735471 
L 388.751213 58.735471 
L 389.149205 58.352055 
L 389.792971 58.352055 
L 390.167669 57.99305 
L 390.412717 57.99305 
L 390.77325 57.647956 
L 390.891569 57.647956 
L 391.125445 57.479498 
L 391.241012 57.479498 
L 391.469429 57.315058 
L 392.075862 57.315058 
L 392.883523 56.152732 
L 393.151342 56.152732 
L 393.418468 55.76872 
L 396.318759 55.76872 
L 397.620179 53.911616 
L 398.124048 53.911616 
L 398.368332 53.568 
L 398.368332 53.568 
" style="fill:none;stroke:#1f77b4;stroke-linecap:square;stroke-width:1.5;"/>
   </g>
   <g id="line2d_16">
    <path clip-path="url(#pf5bfbf99ed)" d="M 73.832727 295.091053 
L 74.178874 295.091053 
L 74.408977 294.69647 
L 74.523883 294.69647 
L 74.982501 293.52078 
L 75.096824 293.52078 
L 75.66726 291.967457 
L 76.573965 291.967457 
L 76.799437 291.586071 
L 76.911985 291.586071 
L 77.136695 291.206701 
L 77.248856 291.206701 
L 77.472777 290.829386 
L 77.584536 290.829386 
L 78.252153 288.961087 
L 78.804476 288.961087 
L 79.024329 288.593871 
L 79.462109 288.593871 
L 79.788702 287.870231 
L 80.005573 287.870231 
L 80.221739 287.511603 
L 81.079036 287.511603 
L 81.291437 287.161334 
L 81.608526 287.161334 
L 81.923749 286.470472 
L 82.028399 286.470472 
L 82.237046 286.128211 
L 82.444811 286.128211 
L 82.754763 285.453008 
L 82.960241 285.453008 
L 83.266576 284.787161 
L 83.570895 284.787161 
L 83.973015 283.807742 
L 84.370963 283.807742 
L 84.568324 283.488185 
L 84.666593 283.488185 
L 84.959722 282.857647 
L 85.153721 282.857647 
L 85.633605 281.621923 
L 86.385605 281.621923 
L 86.478188 281.186493 
L 86.613918 281.186493 
L 86.749668 280.751601 
L 86.885433 280.751601 
L 87.021214 280.317237 
L 87.15701 280.317237 
L 87.428656 279.449785 
L 87.836273 279.449785 
L 88.108129 278.584745 
L 88.788239 278.584745 
L 88.924354 278.153617 
L 89.060503 278.153617 
L 89.196688 277.722869 
L 89.741835 277.722869 
L 89.878233 277.292954 
L 90.01468 277.292954 
L 90.15118 276.863318 
L 90.834551 276.863318 
L 90.971422 276.434295 
L 91.519675 276.434295 
L 91.794322 275.576634 
L 91.93179 275.576634 
L 92.069363 275.147749 
L 92.344842 275.147749 
L 92.48276 274.718651 
L 92.897302 274.718651 
L 93.035769 274.288981 
L 93.452141 274.288981 
L 93.591284 273.858335 
L 93.730619 273.858335 
L 93.870157 273.427019 
L 94.149886 273.427019 
L 94.430568 272.561328 
L 94.712313 272.561328 
L 94.853622 272.12643 
L 95.565239 272.12643 
L 95.70872 271.686392 
L 95.85264 271.686392 
L 96.141902 270.800486 
L 96.579789 270.800486 
L 96.726946 270.350868 
L 97.023265 270.350868 
L 97.172506 269.895561 
L 97.322525 269.895561 
L 97.473364 269.435827 
L 97.925846 269.435827 
L 98.071269 269.005725 
L 98.213622 269.005725 
L 98.353056 268.593398 
L 98.489718 268.593398 
L 98.755285 267.808119 
L 98.884457 267.808119 
L 99.011392 267.432755 
L 99.13621 267.432755 
L 99.259028 267.069539 
L 99.732422 267.069539 
L 100.071365 266.397155 
L 100.505972 266.397155 
L 100.821247 265.775613 
L 101.628173 265.775613 
L 101.823843 265.486072 
L 101.920928 265.486072 
L 102.113716 265.201112 
L 102.588481 265.201112 
L 102.775848 264.924915 
L 102.869039 264.924915 
L 103.054487 264.651877 
L 103.421898 264.651877 
L 103.603981 264.384453 
L 103.785045 264.384453 
L 103.96513 264.120402 
L 104.144269 264.120402 
L 104.499817 263.340798 
L 104.588151 263.340798 
L 104.764171 263.083674 
L 104.851861 263.083674 
L 105.026608 262.828727 
L 105.113668 262.828727 
L 105.287168 262.575914 
L 105.717344 262.575914 
L 105.802773 261.958162 
L 106.465056 261.958162 
L 106.692685 261.293337 
L 107.153662 261.293337 
L 107.387139 260.613264 
L 107.860384 260.613264 
L 108.342414 259.213932 
L 108.586871 259.213932 
L 108.833701 258.499188 
L 109.334713 258.499188 
L 109.589014 257.765116 
L 110.632938 257.765116 
L 110.89358 257.049814 
L 111.14545 257.049814 
L 111.38961 256.377601 
L 111.62685 256.377601 
L 111.857815 255.740773 
L 112.083051 255.740773 
L 112.30303 255.133772 
L 112.518157 255.133772 
L 112.728786 254.552407 
L 112.935231 254.552407 
L 113.336634 253.444621 
L 113.532057 253.444621 
L 113.913332 252.393012 
L 114.099522 252.393012 
L 114.282948 251.887477 
L 114.463743 251.887477 
L 114.642029 251.396461 
L 115.3322 251.396461 
L 115.499461 250.936764 
L 115.98982 250.936764 
L 116.307861 250.064486 
L 116.619347 250.064486 
L 116.772759 249.644439 
L 117.075151 249.644439 
L 117.371911 248.833298 
L 118.231292 248.833298 
L 118.370347 248.454627 
L 118.508283 248.454627 
L 118.780903 247.713149 
L 119.182046 247.713149 
L 119.574359 246.648985 
L 119.958359 246.648985 
L 120.209973 245.968266 
L 120.458228 245.968266 
L 120.703242 245.306649 
L 121.302294 245.306649 
L 121.536801 244.990015 
L 121.883367 244.990015 
L 122.111071 244.683297 
L 122.447819 244.683297 
L 122.996864 243.508657 
L 123.319349 243.508657 
L 123.53158 243.224456 
L 123.741676 243.224456 
L 124.257943 242.120942 
L 124.461003 242.120942 
L 124.66217 241.852811 
L 125.157125 241.852811 
L 125.28483 241.327823 
L 125.481924 241.327823 
L 125.678854 240.804934 
L 127.245749 240.804934 
L 127.635709 239.776824 
L 128.025198 239.776824 
L 128.414329 238.753965 
L 129.191967 238.753965 
L 129.386328 238.245153 
L 130.74791 238.245153 
L 130.942743 237.738099 
L 131.723457 237.738099 
L 131.919055 237.230916 
L 132.114849 237.230916 
L 132.310855 236.723416 
L 132.702667 236.723416 
L 133.268537 235.289324 
L 133.63036 235.289324 
L 133.80712 234.841619 
L 135.90587 234.841619 
L 136.348229 233.726462 
L 137.196442 233.726462 
L 137.738103 232.365913 
L 138.133244 232.365913 
L 138.391771 231.718064 
L 138.519634 231.718064 
L 138.772667 231.084725 
L 138.897877 231.084725 
L 139.145779 230.464953 
L 140.569557 230.464953 
L 141.134345 229.340385 
L 141.356091 229.340385 
L 141.575573 229.067465 
L 141.684488 229.067465 
L 142.221152 228.001655 
L 142.745358 228.001655 
L 142.951757 227.746294 
L 143.054279 227.746294 
L 143.258004 227.494525 
L 143.66034 227.494525 
L 144.154143 226.52183 
L 144.251742 226.52183 
L 144.491885 225.928017 
L 145.464583 225.928017 
L 145.711597 225.318189 
L 145.960239 225.318189 
L 146.21055 224.701245 
L 146.46257 224.701245 
L 146.971913 223.448494 
L 147.229322 223.448494 
L 147.488617 222.812099 
L 147.749843 222.812099 
L 148.013049 222.167218 
L 150.115174 222.167218 
L 150.353898 221.606324 
L 151.035897 221.606324 
L 151.253277 221.094662 
L 151.880195 221.094662 
L 152.081623 220.620402 
L 152.474443 220.620402 
L 152.666191 220.169071 
L 152.855041 220.169071 
L 153.224596 219.299633 
L 154.610161 219.299633 
L 154.774363 218.914387 
L 155.256607 218.914387 
L 155.414085 218.545433 
L 156.028935 218.545433 
L 156.179096 218.194265 
L 156.766663 218.194265 
L 156.910452 217.858627 
L 157.194519 217.858627 
L 157.334853 217.531426 
L 157.474088 217.531426 
L 157.61225 217.209532 
L 158.020531 217.209532 
L 158.15463 216.897573 
L 158.287766 216.897573 
L 158.419959 216.590278 
L 158.811069 216.590278 
L 159.067426 215.99535 
L 160.420517 215.99535 
L 160.657063 215.721328 
L 160.774326 215.721328 
L 161.464393 214.396122 
L 161.801171 214.396122 
L 162.351041 213.384745 
L 162.567174 213.384745 
L 162.781215 213.138514 
L 163.098475 213.138514 
L 163.307525 212.89844 
L 163.821913 212.89844 
L 164.257388 212.132989 
L 164.952774 212.132989 
L 165.870523 210.042689 
L 166.098457 210.042689 
L 166.552687 209.010917 
L 167.004883 209.010917 
L 167.230271 208.500159 
L 167.455215 208.500159 
L 167.679735 207.992052 
L 169.019047 207.992052 
L 169.241144 207.491759 
L 169.46297 207.491759 
L 169.684544 206.993299 
L 171.009702 206.993299 
L 171.230014 206.506739 
L 171.447179 206.506739 
L 171.660249 206.038594 
L 171.869491 206.038594 
L 172.075135 205.586714 
L 172.277383 205.586714 
L 172.672403 204.718826 
L 173.428698 204.718826 
L 173.611469 204.317643 
L 173.970172 204.317643 
L 174.662585 202.799547 
L 175.325413 202.799547 
L 175.486938 202.446107 
L 175.962263 202.446107 
L 176.117765 202.106292 
L 176.271865 202.106292 
L 176.726109 201.114645 
L 176.874951 201.114645 
L 177.022559 200.792736 
L 177.743074 200.792736 
L 178.162275 199.880717 
L 178.572385 199.880717 
L 178.707162 199.587996 
L 179.237118 199.587996 
L 179.367403 199.305508 
L 180.006349 199.305508 
L 180.256382 198.764552 
L 180.38026 198.764552 
L 180.747489 198.233834 
L 181.108343 198.233834 
L 181.463109 197.722198 
L 182.041566 197.722198 
L 182.49343 196.993822 
L 182.60495 196.993822 
L 182.826309 196.755387 
L 183.045476 196.755387 
L 183.262506 196.521912 
L 183.370238 196.521912 
L 183.690375 196.063226 
L 184.006061 196.063226 
L 184.214126 195.840018 
L 185.882252 195.840018 
L 186.390882 194.747781 
L 186.904937 194.747781 
L 187.164088 194.192588 
L 188.215703 194.192588 
L 188.751063 193.049965 
L 190.097652 193.049965 
L 190.598793 192.019739 
L 191.075583 192.019739 
L 191.306048 191.544861 
L 192.598969 191.544861 
L 192.801805 191.126441 
L 193.001546 191.126441 
L 193.392351 190.320399 
L 193.772469 190.320399 
L 193.958813 189.936248 
L 194.504178 189.936248 
L 194.857226 189.209111 
L 195.540653 189.209111 
L 195.707145 188.866685 
L 196.19699 188.866685 
L 196.357215 188.537522 
L 196.829302 188.537522 
L 196.983927 188.220241 
L 197.289275 188.220241 
L 197.440062 187.911116 
L 198.745456 187.911116 
L 199.023952 187.342021 
L 200.872785 187.342021 
L 201.123953 186.831257 
L 201.372186 186.831257 
L 201.617573 186.5813 
L 202.57225 186.5813 
L 203.034485 185.879992 
L 203.821137 185.879992 
L 204.366828 184.997732 
L 205.756409 184.997732 
L 206.013137 184.481999 
L 206.523343 184.481999 
L 206.776897 183.973515 
L 207.029464 183.973515 
L 207.531777 182.967595 
L 209.018427 182.967595 
L 209.263558 182.47877 
L 210.237548 182.47877 
L 210.720983 181.517679 
L 211.202309 181.517679 
L 211.442241 181.041605 
L 211.9162 181.041605 
L 212.145784 180.59506 
L 212.808458 180.59506 
L 213.021551 180.18018 
L 213.231122 180.18018 
L 213.640454 179.383105 
L 214.232319 179.383105 
L 214.424252 179.009447 
L 214.613701 179.009447 
L 214.800772 178.645345 
L 215.168153 178.645345 
L 215.348636 178.294238 
L 216.221922 178.294238 
L 216.391199 177.965346 
L 216.558814 177.965346 
L 216.724815 177.642972 
L 216.889252 177.642972 
L 217.052166 177.326749 
L 217.532194 177.326749 
L 217.689425 177.021876 
L 217.999927 177.021876 
L 218.153262 176.724793 
L 218.305361 176.724793 
L 218.60596 176.142786 
L 219.193496 176.142786 
L 219.764048 175.040233 
L 220.318912 175.040233 
L 220.455311 174.777125 
L 221.385886 174.777125 
L 221.644413 174.279594 
L 221.772515 174.279594 
L 222.026453 173.791288 
L 223.133936 173.791288 
L 223.608903 173.107803 
L 223.72609 173.107803 
L 224.074044 172.662461 
L 224.416751 172.662461 
L 224.642403 172.446173 
L 225.523625 172.446173 
L 226.036971 171.188775 
L 226.539768 170.223831 
L 227.046113 170.223831 
L 227.30072 169.736037 
L 227.812953 169.736037 
L 228.070638 169.243139 
L 228.85033 169.243139 
L 229.906604 167.228703 
L 231.789197 167.228703 
L 232.044428 166.759299 
L 232.293271 166.759299 
L 232.53626 166.311645 
L 233.006456 166.311645 
L 233.234415 165.891017 
L 234.314309 165.891017 
L 234.519871 165.511276 
L 235.313052 165.511276 
L 235.504737 165.157203 
L 236.428769 165.157203 
L 236.607294 164.827686 
L 236.783898 164.827686 
L 236.958645 164.505252 
L 237.806546 164.505252 
L 237.971315 164.201591 
L 238.134587 164.201591 
L 238.296402 163.903505 
L 238.929841 163.903505 
L 239.084916 163.618163 
L 239.391343 163.618163 
L 239.842092 162.789566 
L 239.990074 162.789566 
L 240.282777 162.251958 
L 241.275201 162.251958 
L 241.413159 161.999099 
L 241.821678 161.999099 
L 242.089687 161.508148 
L 242.87429 161.508148 
L 243.256237 161.04152 
L 243.631685 161.04152 
L 243.878508 160.815686 
L 244.243723 160.815686 
L 244.483956 160.596164 
L 244.603125 160.596164 
L 245.073677 159.954129 
L 245.189823 159.954129 
L 245.420375 159.743872 
L 246.098628 159.743872 
L 246.430543 159.342078 
L 248.476406 159.342078 
L 249.027559 158.347666 
L 249.57309 158.347666 
L 249.843866 157.859913 
L 250.381663 157.859913 
L 250.648771 157.37943 
L 251.179612 157.37943 
L 251.968017 155.963818 
L 253.747772 155.963818 
L 254.442504 154.742733 
L 254.665307 154.742733 
L 254.884182 154.35762 
L 255.311046 154.35762 
L 255.519432 153.99077 
L 255.926969 153.99077 
L 256.126418 153.639594 
L 257.085382 153.639594 
L 257.270239 153.314206 
L 257.812473 153.314206 
L 258.164385 152.695109 
L 258.67911 152.695109 
L 258.847391 152.399278 
L 259.505285 152.399278 
L 259.825656 151.836666 
L 260.140693 151.836666 
L 260.296292 151.563608 
L 260.6038 151.563608 
L 260.755765 151.297097 
L 261.056244 151.297097 
L 261.204808 151.036718 
L 261.498699 151.036718 
L 261.64407 150.782102 
L 261.788418 150.782102 
L 262.074124 150.281962 
L 262.634086 150.281962 
L 262.77179 150.041199 
L 263.842794 150.041199 
L 264.102539 149.588006 
L 264.231276 149.588006 
L 264.486536 149.364806 
L 264.61308 149.364806 
L 264.864048 149.145517 
L 264.988491 149.145517 
L 265.600676 148.291752 
L 266.196936 148.291752 
L 266.431206 148.087669 
L 266.547465 148.087669 
L 266.778263 147.886745 
L 267.120269 147.886745 
L 267.56873 147.3019 
L 267.899636 147.3019 
L 269.169795 145.089106 
L 270.977961 145.089106 
L 271.239642 144.635058 
L 273.640158 144.635058 
L 273.91003 144.183972 
L 274.172342 144.183972 
L 274.427843 143.755706 
L 274.677144 143.755706 
L 274.920748 143.346666 
L 275.84615 143.346666 
L 276.066838 142.975213 
L 277.712949 142.975213 
L 277.906109 142.649774 
L 278.096871 142.649774 
L 278.655699 141.708372 
L 278.837766 141.708372 
L 279.017855 141.40507 
L 279.546902 141.40507 
L 279.719712 141.114165 
L 280.060344 141.114165 
L 280.228263 140.831614 
L 280.559535 140.831614 
L 280.722969 140.556741 
L 281.045625 140.556741 
L 281.204919 140.28897 
L 281.676511 140.286496 
L 281.676525 140.02598 
L 281.831809 140.023509 
L 281.831823 139.765134 
L 282.732798 139.765134 
L 282.879165 139.519597 
L 283.024502 139.519597 
L 283.595932 138.561658 
L 284.152341 138.561658 
L 284.289218 138.332747 
L 284.694721 138.332747 
L 284.82824 138.109382 
L 284.960952 138.109382 
L 285.092871 137.888781 
L 285.483986 137.888781 
L 285.995062 137.247853 
L 286.862651 137.247853 
L 287.104632 137.045589 
L 287.344115 137.045589 
L 287.698791 136.650679 
L 288.506175 136.650679 
L 288.731911 136.462532 
L 289.066587 136.462532 
L 289.177123 135.942165 
L 289.488881 135.423962 
L 290.717482 135.423962 
L 291.318431 134.431582 
L 291.61582 134.431582 
L 291.911246 133.944173 
L 292.496485 133.944173 
L 292.786428 133.466333 
L 294.21179 133.466333 
L 294.49238 133.004924 
L 295.831345 133.004924 
L 296.079639 132.604973 
L 296.55997 132.604973 
L 297.021159 131.860415 
L 297.682252 131.860415 
L 297.895377 131.515829 
L 298.105209 131.515829 
L 298.311917 131.181505 
L 298.91477 131.181505 
L 299.110396 130.865011 
L 299.494333 130.865011 
L 299.869155 130.258616 
L 300.23554 130.258616 
L 300.594075 129.678711 
L 301.289604 129.678711 
L 301.459317 129.40437 
L 301.62746 129.40437 
L 301.794076 129.135105 
L 302.285173 129.135105 
L 302.446081 128.875213 
L 303.231192 128.875213 
L 303.384537 128.627772 
L 303.536719 128.627772 
L 303.687764 128.384123 
L 303.837695 128.384123 
L 303.986536 128.14411 
L 304.426734 128.14411 
L 304.571425 127.91095 
L 304.715129 127.91095 
L 304.999646 127.452675 
L 305.557588 127.452675 
L 305.694706 127.231591 
L 305.83124 127.231591 
L 305.966806 127.013527 
L 306.632436 127.013527 
L 307.0225 126.594514 
L 307.532346 126.594514 
L 307.783064 126.392782 
L 308.1541 126.392782 
L 308.519295 126.001418 
L 308.639769 126.001418 
L 308.878876 125.809366 
L 309.23305 125.809366 
L 309.466262 125.622226 
L 310.039527 125.622226 
L 310.265065 125.441476 
L 310.377969 125.441476 
L 310.488648 125.26374 
L 311.00083 125.26374 
L 311.256897 124.852477 
L 311.770325 124.852477 
L 312.027739 124.439489 
L 312.544079 124.439489 
L 312.803052 124.024447 
L 313.322728 124.024447 
L 313.844878 123.188676 
L 315.428288 123.188676 
L 315.694952 122.76299 
L 316.50025 122.76299 
L 316.767613 122.349725 
L 317.027812 122.349725 
L 317.281525 121.956519 
L 317.771635 121.956519 
L 318.0089 121.587928 
L 319.130435 121.587928 
L 319.343544 121.256083 
L 319.553395 121.256083 
L 319.760151 120.934012 
L 319.963964 120.934012 
L 320.164971 120.620821 
L 322.221134 120.620821 
L 322.569374 120.078335 
L 322.910972 120.078335 
L 323.575721 119.043324 
L 323.899518 119.043324 
L 324.059399 118.794531 
L 325.73834 118.794531 
L 326.029397 118.342445 
L 326.458621 118.342445 
L 326.599804 118.123308 
L 326.740069 118.123308 
L 326.879432 117.907065 
L 327.830916 117.907065 
L 328.356921 117.296474 
L 328.486529 117.296474 
L 328.743553 117.096926 
L 328.870989 117.096926 
L 329.249109 116.705762 
L 329.621146 116.705762 
L 329.865911 116.516044 
L 330.108145 116.516044 
L 330.703078 115.780834 
L 331.283526 115.780834 
L 331.511843 115.604294 
L 331.73803 115.604294 
L 331.962137 115.431124 
L 332.82005 115.431124 
L 333.486661 114.410602 
L 334.141122 114.410602 
L 334.784287 113.427062 
L 339.11948 113.427062 
L 339.359986 113.066471 
L 339.595595 113.066471 
L 339.826642 112.719645 
L 341.134058 112.719645 
L 341.339911 112.40997 
L 341.743105 112.40997 
L 342.328454 111.529031 
L 342.518812 111.529031 
L 342.706945 111.245866 
L 343.076865 111.245866 
L 343.616972 110.432994 
L 343.793328 110.432994 
L 343.967942 110.170239 
L 344.140867 110.170239 
L 344.312152 109.912531 
L 344.816636 109.912531 
L 344.981816 109.6641 
L 345.307935 109.6641 
L 345.468947 109.422016 
L 345.78704 109.422016 
L 345.944183 109.185832 
L 346.254808 109.185832 
L 346.408343 108.955158 
L 346.711987 108.955158 
L 346.862143 108.72965 
L 347.452179 108.72965 
L 347.597143 108.512091 
L 347.741126 108.512091 
L 347.884148 108.297508 
L 348.585414 108.297508 
L 348.722855 108.091053 
L 349.531122 108.091053 
L 350.183121 107.309025 
L 351.189338 107.309025 
L 351.434256 107.125515 
L 351.555766 107.125515 
L 352.506125 105.8815 
L 352.737947 105.8815 
L 352.967572 105.709807 
L 353.195051 105.709807 
L 353.420435 105.541389 
L 353.791043 105.541389 
L 354.567741 104.378807 
L 355.086657 104.378807 
L 355.34652 103.9903 
L 356.127995 103.9903 
L 356.389194 103.600266 
L 358.22998 103.600266 
L 358.760663 102.809833 
L 359.561423 102.809833 
L 359.827764 102.425086 
L 360.087128 102.425086 
L 360.340164 102.058595 
L 361.066246 102.058595 
L 361.29857 101.721089 
L 361.970703 101.721089 
L 362.610406 100.789992 
L 364.745422 100.789992 
L 364.92626 100.52648 
L 365.803513 100.52648 
L 366.142838 100.032183 
L 366.803627 100.032183 
L 366.965327 99.796744 
L 367.442579 99.796744 
L 367.599148 99.56887 
L 367.754507 99.56887 
L 367.908684 99.344529 
L 368.061703 99.344529 
L 368.213589 99.123571 
L 368.514057 99.123571 
L 368.956822 98.479769 
L 369.533195 98.479769 
L 369.674913 98.273862 
L 369.815713 98.273862 
L 369.955613 98.07065 
L 370.370993 98.07065 
L 370.371 97.871991 
L 370.507928 97.871991 
L 370.507935 97.674594 
L 370.643075 97.477347 
L 370.77814 97.477347 
L 371.177739 97.089643 
L 371.309387 97.089643 
L 371.699837 96.711054 
L 372.083768 96.711054 
L 372.336235 96.527615 
L 373.199045 96.527615 
L 373.439892 96.352861 
L 373.678334 96.352861 
L 374.148236 95.842657 
L 374.494773 95.842657 
L 374.723091 95.677261 
L 374.949304 95.677261 
L 375.061636 95.158325 
L 375.419208 95.158325 
L 375.777868 94.63381 
L 378.61019 94.63381 
L 378.948712 94.149781 
L 381.093653 94.149781 
L 381.361683 93.774325 
L 381.877247 93.774325 
L 382.125928 93.424761 
L 382.607392 93.424761 
L 383.295139 92.455389 
L 383.516343 92.455389 
L 383.733915 92.148336 
L 384.366732 92.148336 
L 384.571587 91.858943 
L 385.556195 91.858943 
L 385.745938 91.590728 
L 386.302418 91.590728 
L 386.483911 91.334154 
L 386.663516 91.334154 
L 387.364239 90.343623 
L 388.039089 90.343623 
L 388.367687 89.879306 
L 388.6908 89.879306 
L 388.850383 89.653877 
L 389.321605 89.653877 
L 389.476263 89.435486 
L 389.933357 89.435486 
L 390.380617 88.80425 
L 391.389084 88.80425 
L 391.529398 88.606424 
L 392.217894 88.606424 
L 392.885906 87.852559 
L 393.147715 87.852559 
L 393.534925 87.48923 
L 393.789516 87.48923 
L 394.041358 87.31161 
L 394.290524 87.31161 
L 394.659411 86.965858 
L 395.022659 86.965858 
L 395.380479 86.630724 
L 395.498581 86.630724 
L 395.849471 86.302238 
L 395.965318 86.302238 
L 396.195378 86.14039 
L 396.536477 86.14039 
L 396.649137 85.770168 
L 397.437026 85.770168 
L 397.962108 85.031324 
L 398.487273 85.031324 
L 398.487273 85.031324 
" style="fill:none;stroke:#ff7f0e;stroke-linecap:square;stroke-width:1.5;"/>
   </g>
   <g id="patch_3">
    <path d="M 57.6 307.584 
L 57.6 41.472 
" style="fill:none;stroke:#000000;stroke-linecap:square;stroke-linejoin:miter;stroke-width:0.8;"/>
   </g>
   <g id="patch_4">
    <path d="M 414.72 307.584 
L 414.72 41.472 
" style="fill:none;stroke:#000000;stroke-linecap:square;stroke-linejoin:miter;stroke-width:0.8;"/>
   </g>
   <g id="patch_5">
    <path d="M 57.6 307.584 
L 414.72 307.584 
" style="fill:none;stroke:#000000;stroke-linecap:square;stroke-linejoin:miter;stroke-width:0.8;"/>
   </g>
   <g id="patch_6">
    <path d="M 57.6 41.472 
L 414.72 41.472 
" style="fill:none;stroke:#000000;stroke-linecap:square;stroke-linejoin:miter;stroke-width:0.8;"/>
   </g>
   <g id="legend_1">
    <g id="patch_7">
     <path d="M 64.6 78.82825 
L 142.6625 78.82825 
Q 144.6625 78.82825 144.6625 76.82825 
L 144.6625 48.472 
Q 144.6625 46.472 142.6625 46.472 
L 64.6 46.472 
Q 62.6 46.472 62.6 48.472 
L 62.6 76.82825 
Q 62.6 78.82825 64.6 78.82825 
z
" style="fill:#ffffff;opacity:0.8;stroke:#cccccc;stroke-linejoin:miter;"/>
    </g>
    <g id="line2d_17">
     <path d="M 66.6 54.570437 
L 86.6 54.570437 
" style="fill:none;stroke:#1f77b4;stroke-linecap:square;stroke-width:1.5;"/>
    </g>
    <g id="line2d_18"/>
    <g id="text_17">
     <!-- Finescale -->
     <g transform="translate(94.6 58.070437)scale(0.1 -0.1)">
      <defs>
       <path d="M 9.8125 72.90625 
L 51.703125 72.90625 
L 51.703125 64.59375 
L 19.671875 64.59375 
L 19.671875 43.109375 
L 48.578125 43.109375 
L 48.578125 34.8125 
L 19.671875 34.8125 
L 19.671875 0 
L 9.8125 0 
z
" id="DejaVuSans-70"/>
      </defs>
      <use xlink:href="#DejaVuSans-70"/>
      <use x="50.269531" xlink:href="#DejaVuSans-105"/>
      <use x="78.052734" xlink:href="#DejaVuSans-110"/>
      <use x="141.431641" xlink:href="#DejaVuSans-101"/>
      <use x="202.955078" xlink:href="#DejaVuSans-115"/>
      <use x="255.054688" xlink:href="#DejaVuSans-99"/>
      <use x="310.035156" xlink:href="#DejaVuSans-97"/>
      <use x="371.314453" xlink:href="#DejaVuSans-108"/>
      <use x="399.097656" xlink:href="#DejaVuSans-101"/>
     </g>
    </g>
    <g id="line2d_19">
     <path d="M 66.6 69.248562 
L 86.6 69.248562 
" style="fill:none;stroke:#ff7f0e;stroke-linecap:square;stroke-width:1.5;"/>
    </g>
    <g id="line2d_20"/>
    <g id="text_18">
     <!-- Adm -->
     <g transform="translate(94.6 72.748562)scale(0.1 -0.1)">
      <defs>
       <path d="M 34.1875 63.1875 
L 20.796875 26.90625 
L 47.609375 26.90625 
z
M 28.609375 72.90625 
L 39.796875 72.90625 
L 67.578125 0 
L 57.328125 0 
L 50.6875 18.703125 
L 17.828125 18.703125 
L 11.1875 0 
L 0.78125 0 
z
" id="DejaVuSans-65"/>
      </defs>
      <use xlink:href="#DejaVuSans-65"/>
      <use x="66.658203" xlink:href="#DejaVuSans-100"/>
      <use x="130.134766" xlink:href="#DejaVuSans-109"/>
     </g>
    </g>
   </g>
  </g>
 </g>
 <defs>
  <clipPath id="pf5bfbf99ed">
   <rect height="266.112" width="357.12" x="57.6" y="41.472"/>
  </clipPath>
 </defs>
</svg>
