<?xml version="1.0" encoding="utf-8" standalone="no"?>
<!DOCTYPE svg PUBLIC "-//W3C//DTD SVG 1.1//EN"
  "http://www.w3.org/Graphics/SVG/1.1/DTD/svg11.dtd">
<!-- Created with matplotlib (https://matplotlib.org/) -->
<svg height="345.6pt" version="1.1" viewBox="0 0 460.8 345.6" width="460.8pt" xmlns="http://www.w3.org/2000/svg" xmlns:xlink="http://www.w3.org/1999/xlink">
 <metadata>
  <rdf:RDF xmlns:cc="http://creativecommons.org/ns#" xmlns:dc="http://purl.org/dc/elements/1.1/" xmlns:rdf="http://www.w3.org/1999/02/22-rdf-syntax-ns#">
   <cc:Work>
    <dc:type rdf:resource="http://purl.org/dc/dcmitype/StillImage"/>
    <dc:date>2022-10-18T01:32:08.465642</dc:date>
    <dc:format>image/svg+xml</dc:format>
    <dc:creator>
     <cc:Agent>
      <dc:title>Matplotlib v3.3.4, https://matplotlib.org/</dc:title>
     </cc:Agent>
    </dc:creator>
   </cc:Work>
  </rdf:RDF>
 </metadata>
 <defs>
  <style type="text/css">*{stroke-linecap:butt;stroke-linejoin:round;}</style>
 </defs>
 <g id="figure_1">
  <g id="patch_1">
   <path d="M 0 345.6 
L 460.8 345.6 
L 460.8 0 
L 0 0 
z
" style="fill:#ffffff;"/>
  </g>
  <g id="axes_1">
   <g id="patch_2">
    <path d="M 57.6 307.584 
L 414.72 307.584 
L 414.72 41.472 
L 57.6 41.472 
z
" style="fill:#ffffff;"/>
   </g>
   <g id="matplotlib.axis_1">
    <g id="xtick_1">
     <g id="line2d_1">
      <defs>
       <path d="M 0 0 
L 0 3.5 
" id="me856ba2b13" style="stroke:#000000;stroke-width:0.8;"/>
      </defs>
      <g>
       <use style="stroke:#000000;stroke-width:0.8;" x="73.56193" xlink:href="#me856ba2b13" y="307.584"/>
      </g>
     </g>
     <g id="text_1">
      <!-- 0.0 -->
      <g transform="translate(65.610367 322.182437)scale(0.1 -0.1)">
       <defs>
        <path d="M 31.78125 66.40625 
Q 24.171875 66.40625 20.328125 58.90625 
Q 16.5 51.421875 16.5 36.375 
Q 16.5 21.390625 20.328125 13.890625 
Q 24.171875 6.390625 31.78125 6.390625 
Q 39.453125 6.390625 43.28125 13.890625 
Q 47.125 21.390625 47.125 36.375 
Q 47.125 51.421875 43.28125 58.90625 
Q 39.453125 66.40625 31.78125 66.40625 
z
M 31.78125 74.21875 
Q 44.046875 74.21875 50.515625 64.515625 
Q 56.984375 54.828125 56.984375 36.375 
Q 56.984375 17.96875 50.515625 8.265625 
Q 44.046875 -1.421875 31.78125 -1.421875 
Q 19.53125 -1.421875 13.0625 8.265625 
Q 6.59375 17.96875 6.59375 36.375 
Q 6.59375 54.828125 13.0625 64.515625 
Q 19.53125 74.21875 31.78125 74.21875 
z
" id="DejaVuSans-48"/>
        <path d="M 10.6875 12.40625 
L 21 12.40625 
L 21 0 
L 10.6875 0 
z
" id="DejaVuSans-46"/>
       </defs>
       <use xlink:href="#DejaVuSans-48"/>
       <use x="63.623047" xlink:href="#DejaVuSans-46"/>
       <use x="95.410156" xlink:href="#DejaVuSans-48"/>
      </g>
     </g>
    </g>
    <g id="xtick_2">
     <g id="line2d_2">
      <g>
       <use style="stroke:#000000;stroke-width:0.8;" x="127.721391" xlink:href="#me856ba2b13" y="307.584"/>
      </g>
     </g>
     <g id="text_2">
      <!-- 0.2 -->
      <g transform="translate(119.769829 322.182437)scale(0.1 -0.1)">
       <defs>
        <path d="M 19.1875 8.296875 
L 53.609375 8.296875 
L 53.609375 0 
L 7.328125 0 
L 7.328125 8.296875 
Q 12.9375 14.109375 22.625 23.890625 
Q 32.328125 33.6875 34.8125 36.53125 
Q 39.546875 41.84375 41.421875 45.53125 
Q 43.3125 49.21875 43.3125 52.78125 
Q 43.3125 58.59375 39.234375 62.25 
Q 35.15625 65.921875 28.609375 65.921875 
Q 23.96875 65.921875 18.8125 64.3125 
Q 13.671875 62.703125 7.8125 59.421875 
L 7.8125 69.390625 
Q 13.765625 71.78125 18.9375 73 
Q 24.125 74.21875 28.421875 74.21875 
Q 39.75 74.21875 46.484375 68.546875 
Q 53.21875 62.890625 53.21875 53.421875 
Q 53.21875 48.921875 51.53125 44.890625 
Q 49.859375 40.875 45.40625 35.40625 
Q 44.1875 33.984375 37.640625 27.21875 
Q 31.109375 20.453125 19.1875 8.296875 
z
" id="DejaVuSans-50"/>
       </defs>
       <use xlink:href="#DejaVuSans-48"/>
       <use x="63.623047" xlink:href="#DejaVuSans-46"/>
       <use x="95.410156" xlink:href="#DejaVuSans-50"/>
      </g>
     </g>
    </g>
    <g id="xtick_3">
     <g id="line2d_3">
      <g>
       <use style="stroke:#000000;stroke-width:0.8;" x="181.880852" xlink:href="#me856ba2b13" y="307.584"/>
      </g>
     </g>
     <g id="text_3">
      <!-- 0.4 -->
      <g transform="translate(173.92929 322.182437)scale(0.1 -0.1)">
       <defs>
        <path d="M 37.796875 64.3125 
L 12.890625 25.390625 
L 37.796875 25.390625 
z
M 35.203125 72.90625 
L 47.609375 72.90625 
L 47.609375 25.390625 
L 58.015625 25.390625 
L 58.015625 17.1875 
L 47.609375 17.1875 
L 47.609375 0 
L 37.796875 0 
L 37.796875 17.1875 
L 4.890625 17.1875 
L 4.890625 26.703125 
z
" id="DejaVuSans-52"/>
       </defs>
       <use xlink:href="#DejaVuSans-48"/>
       <use x="63.623047" xlink:href="#DejaVuSans-46"/>
       <use x="95.410156" xlink:href="#DejaVuSans-52"/>
      </g>
     </g>
    </g>
    <g id="xtick_4">
     <g id="line2d_4">
      <g>
       <use style="stroke:#000000;stroke-width:0.8;" x="236.040313" xlink:href="#me856ba2b13" y="307.584"/>
      </g>
     </g>
     <g id="text_4">
      <!-- 0.6 -->
      <g transform="translate(228.088751 322.182437)scale(0.1 -0.1)">
       <defs>
        <path d="M 33.015625 40.375 
Q 26.375 40.375 22.484375 35.828125 
Q 18.609375 31.296875 18.609375 23.390625 
Q 18.609375 15.53125 22.484375 10.953125 
Q 26.375 6.390625 33.015625 6.390625 
Q 39.65625 6.390625 43.53125 10.953125 
Q 47.40625 15.53125 47.40625 23.390625 
Q 47.40625 31.296875 43.53125 35.828125 
Q 39.65625 40.375 33.015625 40.375 
z
M 52.59375 71.296875 
L 52.59375 62.3125 
Q 48.875 64.0625 45.09375 64.984375 
Q 41.3125 65.921875 37.59375 65.921875 
Q 27.828125 65.921875 22.671875 59.328125 
Q 17.53125 52.734375 16.796875 39.40625 
Q 19.671875 43.65625 24.015625 45.921875 
Q 28.375 48.1875 33.59375 48.1875 
Q 44.578125 48.1875 50.953125 41.515625 
Q 57.328125 34.859375 57.328125 23.390625 
Q 57.328125 12.15625 50.6875 5.359375 
Q 44.046875 -1.421875 33.015625 -1.421875 
Q 20.359375 -1.421875 13.671875 8.265625 
Q 6.984375 17.96875 6.984375 36.375 
Q 6.984375 53.65625 15.1875 63.9375 
Q 23.390625 74.21875 37.203125 74.21875 
Q 40.921875 74.21875 44.703125 73.484375 
Q 48.484375 72.75 52.59375 71.296875 
z
" id="DejaVuSans-54"/>
       </defs>
       <use xlink:href="#DejaVuSans-48"/>
       <use x="63.623047" xlink:href="#DejaVuSans-46"/>
       <use x="95.410156" xlink:href="#DejaVuSans-54"/>
      </g>
     </g>
    </g>
    <g id="xtick_5">
     <g id="line2d_5">
      <g>
       <use style="stroke:#000000;stroke-width:0.8;" x="290.199775" xlink:href="#me856ba2b13" y="307.584"/>
      </g>
     </g>
     <g id="text_5">
      <!-- 0.8 -->
      <g transform="translate(282.248212 322.182437)scale(0.1 -0.1)">
       <defs>
        <path d="M 31.78125 34.625 
Q 24.75 34.625 20.71875 30.859375 
Q 16.703125 27.09375 16.703125 20.515625 
Q 16.703125 13.921875 20.71875 10.15625 
Q 24.75 6.390625 31.78125 6.390625 
Q 38.8125 6.390625 42.859375 10.171875 
Q 46.921875 13.96875 46.921875 20.515625 
Q 46.921875 27.09375 42.890625 30.859375 
Q 38.875 34.625 31.78125 34.625 
z
M 21.921875 38.8125 
Q 15.578125 40.375 12.03125 44.71875 
Q 8.5 49.078125 8.5 55.328125 
Q 8.5 64.0625 14.71875 69.140625 
Q 20.953125 74.21875 31.78125 74.21875 
Q 42.671875 74.21875 48.875 69.140625 
Q 55.078125 64.0625 55.078125 55.328125 
Q 55.078125 49.078125 51.53125 44.71875 
Q 48 40.375 41.703125 38.8125 
Q 48.828125 37.15625 52.796875 32.3125 
Q 56.78125 27.484375 56.78125 20.515625 
Q 56.78125 9.90625 50.3125 4.234375 
Q 43.84375 -1.421875 31.78125 -1.421875 
Q 19.734375 -1.421875 13.25 4.234375 
Q 6.78125 9.90625 6.78125 20.515625 
Q 6.78125 27.484375 10.78125 32.3125 
Q 14.796875 37.15625 21.921875 38.8125 
z
M 18.3125 54.390625 
Q 18.3125 48.734375 21.84375 45.5625 
Q 25.390625 42.390625 31.78125 42.390625 
Q 38.140625 42.390625 41.71875 45.5625 
Q 45.3125 48.734375 45.3125 54.390625 
Q 45.3125 60.0625 41.71875 63.234375 
Q 38.140625 66.40625 31.78125 66.40625 
Q 25.390625 66.40625 21.84375 63.234375 
Q 18.3125 60.0625 18.3125 54.390625 
z
" id="DejaVuSans-56"/>
       </defs>
       <use xlink:href="#DejaVuSans-48"/>
       <use x="63.623047" xlink:href="#DejaVuSans-46"/>
       <use x="95.410156" xlink:href="#DejaVuSans-56"/>
      </g>
     </g>
    </g>
    <g id="xtick_6">
     <g id="line2d_6">
      <g>
       <use style="stroke:#000000;stroke-width:0.8;" x="344.359236" xlink:href="#me856ba2b13" y="307.584"/>
      </g>
     </g>
     <g id="text_6">
      <!-- 1.0 -->
      <g transform="translate(336.407673 322.182437)scale(0.1 -0.1)">
       <defs>
        <path d="M 12.40625 8.296875 
L 28.515625 8.296875 
L 28.515625 63.921875 
L 10.984375 60.40625 
L 10.984375 69.390625 
L 28.421875 72.90625 
L 38.28125 72.90625 
L 38.28125 8.296875 
L 54.390625 8.296875 
L 54.390625 0 
L 12.40625 0 
z
" id="DejaVuSans-49"/>
       </defs>
       <use xlink:href="#DejaVuSans-49"/>
       <use x="63.623047" xlink:href="#DejaVuSans-46"/>
       <use x="95.410156" xlink:href="#DejaVuSans-48"/>
      </g>
     </g>
    </g>
    <g id="xtick_7">
     <g id="line2d_7">
      <g>
       <use style="stroke:#000000;stroke-width:0.8;" x="398.518697" xlink:href="#me856ba2b13" y="307.584"/>
      </g>
     </g>
     <g id="text_7">
      <!-- 1.2 -->
      <g transform="translate(390.567134 322.182437)scale(0.1 -0.1)">
       <use xlink:href="#DejaVuSans-49"/>
       <use x="63.623047" xlink:href="#DejaVuSans-46"/>
       <use x="95.410156" xlink:href="#DejaVuSans-50"/>
      </g>
     </g>
    </g>
    <g id="text_8">
     <!-- time [days] -->
     <g transform="translate(207.570937 335.860562)scale(0.1 -0.1)">
      <defs>
       <path d="M 18.3125 70.21875 
L 18.3125 54.6875 
L 36.8125 54.6875 
L 36.8125 47.703125 
L 18.3125 47.703125 
L 18.3125 18.015625 
Q 18.3125 11.328125 20.140625 9.421875 
Q 21.96875 7.515625 27.59375 7.515625 
L 36.8125 7.515625 
L 36.8125 0 
L 27.59375 0 
Q 17.1875 0 13.234375 3.875 
Q 9.28125 7.765625 9.28125 18.015625 
L 9.28125 47.703125 
L 2.6875 47.703125 
L 2.6875 54.6875 
L 9.28125 54.6875 
L 9.28125 70.21875 
z
" id="DejaVuSans-116"/>
       <path d="M 9.421875 54.6875 
L 18.40625 54.6875 
L 18.40625 0 
L 9.421875 0 
z
M 9.421875 75.984375 
L 18.40625 75.984375 
L 18.40625 64.59375 
L 9.421875 64.59375 
z
" id="DejaVuSans-105"/>
       <path d="M 52 44.1875 
Q 55.375 50.25 60.0625 53.125 
Q 64.75 56 71.09375 56 
Q 79.640625 56 84.28125 50.015625 
Q 88.921875 44.046875 88.921875 33.015625 
L 88.921875 0 
L 79.890625 0 
L 79.890625 32.71875 
Q 79.890625 40.578125 77.09375 44.375 
Q 74.3125 48.1875 68.609375 48.1875 
Q 61.625 48.1875 57.5625 43.546875 
Q 53.515625 38.921875 53.515625 30.90625 
L 53.515625 0 
L 44.484375 0 
L 44.484375 32.71875 
Q 44.484375 40.625 41.703125 44.40625 
Q 38.921875 48.1875 33.109375 48.1875 
Q 26.21875 48.1875 22.15625 43.53125 
Q 18.109375 38.875 18.109375 30.90625 
L 18.109375 0 
L 9.078125 0 
L 9.078125 54.6875 
L 18.109375 54.6875 
L 18.109375 46.1875 
Q 21.1875 51.21875 25.484375 53.609375 
Q 29.78125 56 35.6875 56 
Q 41.65625 56 45.828125 52.96875 
Q 50 49.953125 52 44.1875 
z
" id="DejaVuSans-109"/>
       <path d="M 56.203125 29.59375 
L 56.203125 25.203125 
L 14.890625 25.203125 
Q 15.484375 15.921875 20.484375 11.0625 
Q 25.484375 6.203125 34.421875 6.203125 
Q 39.59375 6.203125 44.453125 7.46875 
Q 49.3125 8.734375 54.109375 11.28125 
L 54.109375 2.78125 
Q 49.265625 0.734375 44.1875 -0.34375 
Q 39.109375 -1.421875 33.890625 -1.421875 
Q 20.796875 -1.421875 13.15625 6.1875 
Q 5.515625 13.8125 5.515625 26.8125 
Q 5.515625 40.234375 12.765625 48.109375 
Q 20.015625 56 32.328125 56 
Q 43.359375 56 49.78125 48.890625 
Q 56.203125 41.796875 56.203125 29.59375 
z
M 47.21875 32.234375 
Q 47.125 39.59375 43.09375 43.984375 
Q 39.0625 48.390625 32.421875 48.390625 
Q 24.90625 48.390625 20.390625 44.140625 
Q 15.875 39.890625 15.1875 32.171875 
z
" id="DejaVuSans-101"/>
       <path id="DejaVuSans-32"/>
       <path d="M 8.59375 75.984375 
L 29.296875 75.984375 
L 29.296875 69 
L 17.578125 69 
L 17.578125 -6.203125 
L 29.296875 -6.203125 
L 29.296875 -13.1875 
L 8.59375 -13.1875 
z
" id="DejaVuSans-91"/>
       <path d="M 45.40625 46.390625 
L 45.40625 75.984375 
L 54.390625 75.984375 
L 54.390625 0 
L 45.40625 0 
L 45.40625 8.203125 
Q 42.578125 3.328125 38.25 0.953125 
Q 33.9375 -1.421875 27.875 -1.421875 
Q 17.96875 -1.421875 11.734375 6.484375 
Q 5.515625 14.40625 5.515625 27.296875 
Q 5.515625 40.1875 11.734375 48.09375 
Q 17.96875 56 27.875 56 
Q 33.9375 56 38.25 53.625 
Q 42.578125 51.265625 45.40625 46.390625 
z
M 14.796875 27.296875 
Q 14.796875 17.390625 18.875 11.75 
Q 22.953125 6.109375 30.078125 6.109375 
Q 37.203125 6.109375 41.296875 11.75 
Q 45.40625 17.390625 45.40625 27.296875 
Q 45.40625 37.203125 41.296875 42.84375 
Q 37.203125 48.484375 30.078125 48.484375 
Q 22.953125 48.484375 18.875 42.84375 
Q 14.796875 37.203125 14.796875 27.296875 
z
" id="DejaVuSans-100"/>
       <path d="M 34.28125 27.484375 
Q 23.390625 27.484375 19.1875 25 
Q 14.984375 22.515625 14.984375 16.5 
Q 14.984375 11.71875 18.140625 8.90625 
Q 21.296875 6.109375 26.703125 6.109375 
Q 34.1875 6.109375 38.703125 11.40625 
Q 43.21875 16.703125 43.21875 25.484375 
L 43.21875 27.484375 
z
M 52.203125 31.203125 
L 52.203125 0 
L 43.21875 0 
L 43.21875 8.296875 
Q 40.140625 3.328125 35.546875 0.953125 
Q 30.953125 -1.421875 24.3125 -1.421875 
Q 15.921875 -1.421875 10.953125 3.296875 
Q 6 8.015625 6 15.921875 
Q 6 25.140625 12.171875 29.828125 
Q 18.359375 34.515625 30.609375 34.515625 
L 43.21875 34.515625 
L 43.21875 35.40625 
Q 43.21875 41.609375 39.140625 45 
Q 35.0625 48.390625 27.6875 48.390625 
Q 23 48.390625 18.546875 47.265625 
Q 14.109375 46.140625 10.015625 43.890625 
L 10.015625 52.203125 
Q 14.9375 54.109375 19.578125 55.046875 
Q 24.21875 56 28.609375 56 
Q 40.484375 56 46.34375 49.84375 
Q 52.203125 43.703125 52.203125 31.203125 
z
" id="DejaVuSans-97"/>
       <path d="M 32.171875 -5.078125 
Q 28.375 -14.84375 24.75 -17.8125 
Q 21.140625 -20.796875 15.09375 -20.796875 
L 7.90625 -20.796875 
L 7.90625 -13.28125 
L 13.1875 -13.28125 
Q 16.890625 -13.28125 18.9375 -11.515625 
Q 21 -9.765625 23.484375 -3.21875 
L 25.09375 0.875 
L 2.984375 54.6875 
L 12.5 54.6875 
L 29.59375 11.921875 
L 46.6875 54.6875 
L 56.203125 54.6875 
z
" id="DejaVuSans-121"/>
       <path d="M 44.28125 53.078125 
L 44.28125 44.578125 
Q 40.484375 46.53125 36.375 47.5 
Q 32.28125 48.484375 27.875 48.484375 
Q 21.1875 48.484375 17.84375 46.4375 
Q 14.5 44.390625 14.5 40.28125 
Q 14.5 37.15625 16.890625 35.375 
Q 19.28125 33.59375 26.515625 31.984375 
L 29.59375 31.296875 
Q 39.15625 29.25 43.1875 25.515625 
Q 47.21875 21.78125 47.21875 15.09375 
Q 47.21875 7.46875 41.1875 3.015625 
Q 35.15625 -1.421875 24.609375 -1.421875 
Q 20.21875 -1.421875 15.453125 -0.5625 
Q 10.6875 0.296875 5.421875 2 
L 5.421875 11.28125 
Q 10.40625 8.6875 15.234375 7.390625 
Q 20.0625 6.109375 24.8125 6.109375 
Q 31.15625 6.109375 34.5625 8.28125 
Q 37.984375 10.453125 37.984375 14.40625 
Q 37.984375 18.0625 35.515625 20.015625 
Q 33.0625 21.96875 24.703125 23.78125 
L 21.578125 24.515625 
Q 13.234375 26.265625 9.515625 29.90625 
Q 5.8125 33.546875 5.8125 39.890625 
Q 5.8125 47.609375 11.28125 51.796875 
Q 16.75 56 26.8125 56 
Q 31.78125 56 36.171875 55.265625 
Q 40.578125 54.546875 44.28125 53.078125 
z
" id="DejaVuSans-115"/>
       <path d="M 30.421875 75.984375 
L 30.421875 -13.1875 
L 9.71875 -13.1875 
L 9.71875 -6.203125 
L 21.390625 -6.203125 
L 21.390625 69 
L 9.71875 69 
L 9.71875 75.984375 
z
" id="DejaVuSans-93"/>
      </defs>
      <use xlink:href="#DejaVuSans-116"/>
      <use x="39.208984" xlink:href="#DejaVuSans-105"/>
      <use x="66.992188" xlink:href="#DejaVuSans-109"/>
      <use x="164.404297" xlink:href="#DejaVuSans-101"/>
      <use x="225.927734" xlink:href="#DejaVuSans-32"/>
      <use x="257.714844" xlink:href="#DejaVuSans-91"/>
      <use x="296.728516" xlink:href="#DejaVuSans-100"/>
      <use x="360.205078" xlink:href="#DejaVuSans-97"/>
      <use x="421.484375" xlink:href="#DejaVuSans-121"/>
      <use x="480.664062" xlink:href="#DejaVuSans-115"/>
      <use x="532.763672" xlink:href="#DejaVuSans-93"/>
     </g>
    </g>
   </g>
   <g id="matplotlib.axis_2">
    <g id="ytick_1">
     <g id="line2d_8">
      <defs>
       <path d="M 0 0 
L -3.5 0 
" id="m1ab4e7a076" style="stroke:#000000;stroke-width:0.8;"/>
      </defs>
      <g>
       <use style="stroke:#000000;stroke-width:0.8;" x="57.6" xlink:href="#m1ab4e7a076" y="298.671158"/>
      </g>
     </g>
     <g id="text_9">
      <!-- 0 -->
      <g transform="translate(44.2375 302.470377)scale(0.1 -0.1)">
       <use xlink:href="#DejaVuSans-48"/>
      </g>
     </g>
    </g>
    <g id="ytick_2">
     <g id="line2d_9">
      <g>
       <use style="stroke:#000000;stroke-width:0.8;" x="57.6" xlink:href="#m1ab4e7a076" y="266.839579"/>
      </g>
     </g>
     <g id="text_10">
      <!-- 10 -->
      <g transform="translate(37.875 270.638798)scale(0.1 -0.1)">
       <use xlink:href="#DejaVuSans-49"/>
       <use x="63.623047" xlink:href="#DejaVuSans-48"/>
      </g>
     </g>
    </g>
    <g id="ytick_3">
     <g id="line2d_10">
      <g>
       <use style="stroke:#000000;stroke-width:0.8;" x="57.6" xlink:href="#m1ab4e7a076" y="235.008"/>
      </g>
     </g>
     <g id="text_11">
      <!-- 20 -->
      <g transform="translate(37.875 238.807219)scale(0.1 -0.1)">
       <use xlink:href="#DejaVuSans-50"/>
       <use x="63.623047" xlink:href="#DejaVuSans-48"/>
      </g>
     </g>
    </g>
    <g id="ytick_4">
     <g id="line2d_11">
      <g>
       <use style="stroke:#000000;stroke-width:0.8;" x="57.6" xlink:href="#m1ab4e7a076" y="203.176421"/>
      </g>
     </g>
     <g id="text_12">
      <!-- 30 -->
      <g transform="translate(37.875 206.97564)scale(0.1 -0.1)">
       <defs>
        <path d="M 40.578125 39.3125 
Q 47.65625 37.796875 51.625 33 
Q 55.609375 28.21875 55.609375 21.1875 
Q 55.609375 10.40625 48.1875 4.484375 
Q 40.765625 -1.421875 27.09375 -1.421875 
Q 22.515625 -1.421875 17.65625 -0.515625 
Q 12.796875 0.390625 7.625 2.203125 
L 7.625 11.71875 
Q 11.71875 9.328125 16.59375 8.109375 
Q 21.484375 6.890625 26.8125 6.890625 
Q 36.078125 6.890625 40.9375 10.546875 
Q 45.796875 14.203125 45.796875 21.1875 
Q 45.796875 27.640625 41.28125 31.265625 
Q 36.765625 34.90625 28.71875 34.90625 
L 20.21875 34.90625 
L 20.21875 43.015625 
L 29.109375 43.015625 
Q 36.375 43.015625 40.234375 45.921875 
Q 44.09375 48.828125 44.09375 54.296875 
Q 44.09375 59.90625 40.109375 62.90625 
Q 36.140625 65.921875 28.71875 65.921875 
Q 24.65625 65.921875 20.015625 65.03125 
Q 15.375 64.15625 9.8125 62.3125 
L 9.8125 71.09375 
Q 15.4375 72.65625 20.34375 73.4375 
Q 25.25 74.21875 29.59375 74.21875 
Q 40.828125 74.21875 47.359375 69.109375 
Q 53.90625 64.015625 53.90625 55.328125 
Q 53.90625 49.265625 50.4375 45.09375 
Q 46.96875 40.921875 40.578125 39.3125 
z
" id="DejaVuSans-51"/>
       </defs>
       <use xlink:href="#DejaVuSans-51"/>
       <use x="63.623047" xlink:href="#DejaVuSans-48"/>
      </g>
     </g>
    </g>
    <g id="ytick_5">
     <g id="line2d_12">
      <g>
       <use style="stroke:#000000;stroke-width:0.8;" x="57.6" xlink:href="#m1ab4e7a076" y="171.344842"/>
      </g>
     </g>
     <g id="text_13">
      <!-- 40 -->
      <g transform="translate(37.875 175.144061)scale(0.1 -0.1)">
       <use xlink:href="#DejaVuSans-52"/>
       <use x="63.623047" xlink:href="#DejaVuSans-48"/>
      </g>
     </g>
    </g>
    <g id="ytick_6">
     <g id="line2d_13">
      <g>
       <use style="stroke:#000000;stroke-width:0.8;" x="57.6" xlink:href="#m1ab4e7a076" y="139.513263"/>
      </g>
     </g>
     <g id="text_14">
      <!-- 50 -->
      <g transform="translate(37.875 143.312482)scale(0.1 -0.1)">
       <defs>
        <path d="M 10.796875 72.90625 
L 49.515625 72.90625 
L 49.515625 64.59375 
L 19.828125 64.59375 
L 19.828125 46.734375 
Q 21.96875 47.46875 24.109375 47.828125 
Q 26.265625 48.1875 28.421875 48.1875 
Q 40.625 48.1875 47.75 41.5 
Q 54.890625 34.8125 54.890625 23.390625 
Q 54.890625 11.625 47.5625 5.09375 
Q 40.234375 -1.421875 26.90625 -1.421875 
Q 22.3125 -1.421875 17.546875 -0.640625 
Q 12.796875 0.140625 7.71875 1.703125 
L 7.71875 11.625 
Q 12.109375 9.234375 16.796875 8.0625 
Q 21.484375 6.890625 26.703125 6.890625 
Q 35.15625 6.890625 40.078125 11.328125 
Q 45.015625 15.765625 45.015625 23.390625 
Q 45.015625 31 40.078125 35.4375 
Q 35.15625 39.890625 26.703125 39.890625 
Q 22.75 39.890625 18.8125 39.015625 
Q 14.890625 38.140625 10.796875 36.28125 
z
" id="DejaVuSans-53"/>
       </defs>
       <use xlink:href="#DejaVuSans-53"/>
       <use x="63.623047" xlink:href="#DejaVuSans-48"/>
      </g>
     </g>
    </g>
    <g id="ytick_7">
     <g id="line2d_14">
      <g>
       <use style="stroke:#000000;stroke-width:0.8;" x="57.6" xlink:href="#m1ab4e7a076" y="107.681684"/>
      </g>
     </g>
     <g id="text_15">
      <!-- 60 -->
      <g transform="translate(37.875 111.480903)scale(0.1 -0.1)">
       <use xlink:href="#DejaVuSans-54"/>
       <use x="63.623047" xlink:href="#DejaVuSans-48"/>
      </g>
     </g>
    </g>
    <g id="ytick_8">
     <g id="line2d_15">
      <g>
       <use style="stroke:#000000;stroke-width:0.8;" x="57.6" xlink:href="#m1ab4e7a076" y="75.850105"/>
      </g>
     </g>
     <g id="text_16">
      <!-- 70 -->
      <g transform="translate(37.875 79.649324)scale(0.1 -0.1)">
       <defs>
        <path d="M 8.203125 72.90625 
L 55.078125 72.90625 
L 55.078125 68.703125 
L 28.609375 0 
L 18.3125 0 
L 43.21875 64.59375 
L 8.203125 64.59375 
z
" id="DejaVuSans-55"/>
       </defs>
       <use xlink:href="#DejaVuSans-55"/>
       <use x="63.623047" xlink:href="#DejaVuSans-48"/>
      </g>
     </g>
    </g>
    <g id="ytick_9">
     <g id="line2d_16">
      <g>
       <use style="stroke:#000000;stroke-width:0.8;" x="57.6" xlink:href="#m1ab4e7a076" y="44.018526"/>
      </g>
     </g>
     <g id="text_17">
      <!-- 80 -->
      <g transform="translate(37.875 47.817745)scale(0.1 -0.1)">
       <use xlink:href="#DejaVuSans-56"/>
       <use x="63.623047" xlink:href="#DejaVuSans-48"/>
      </g>
     </g>
    </g>
    <g id="text_18">
     <!-- Iterations -->
     <g transform="translate(31.795312 198.341281)rotate(-90)scale(0.1 -0.1)">
      <defs>
       <path d="M 9.8125 72.90625 
L 19.671875 72.90625 
L 19.671875 0 
L 9.8125 0 
z
" id="DejaVuSans-73"/>
       <path d="M 41.109375 46.296875 
Q 39.59375 47.171875 37.8125 47.578125 
Q 36.03125 48 33.890625 48 
Q 26.265625 48 22.1875 43.046875 
Q 18.109375 38.09375 18.109375 28.8125 
L 18.109375 0 
L 9.078125 0 
L 9.078125 54.6875 
L 18.109375 54.6875 
L 18.109375 46.1875 
Q 20.953125 51.171875 25.484375 53.578125 
Q 30.03125 56 36.53125 56 
Q 37.453125 56 38.578125 55.875 
Q 39.703125 55.765625 41.0625 55.515625 
z
" id="DejaVuSans-114"/>
       <path d="M 30.609375 48.390625 
Q 23.390625 48.390625 19.1875 42.75 
Q 14.984375 37.109375 14.984375 27.296875 
Q 14.984375 17.484375 19.15625 11.84375 
Q 23.34375 6.203125 30.609375 6.203125 
Q 37.796875 6.203125 41.984375 11.859375 
Q 46.1875 17.53125 46.1875 27.296875 
Q 46.1875 37.015625 41.984375 42.703125 
Q 37.796875 48.390625 30.609375 48.390625 
z
M 30.609375 56 
Q 42.328125 56 49.015625 48.375 
Q 55.71875 40.765625 55.71875 27.296875 
Q 55.71875 13.875 49.015625 6.21875 
Q 42.328125 -1.421875 30.609375 -1.421875 
Q 18.84375 -1.421875 12.171875 6.21875 
Q 5.515625 13.875 5.515625 27.296875 
Q 5.515625 40.765625 12.171875 48.375 
Q 18.84375 56 30.609375 56 
z
" id="DejaVuSans-111"/>
       <path d="M 54.890625 33.015625 
L 54.890625 0 
L 45.90625 0 
L 45.90625 32.71875 
Q 45.90625 40.484375 42.875 44.328125 
Q 39.84375 48.1875 33.796875 48.1875 
Q 26.515625 48.1875 22.3125 43.546875 
Q 18.109375 38.921875 18.109375 30.90625 
L 18.109375 0 
L 9.078125 0 
L 9.078125 54.6875 
L 18.109375 54.6875 
L 18.109375 46.1875 
Q 21.34375 51.125 25.703125 53.5625 
Q 30.078125 56 35.796875 56 
Q 45.21875 56 50.046875 50.171875 
Q 54.890625 44.34375 54.890625 33.015625 
z
" id="DejaVuSans-110"/>
      </defs>
      <use xlink:href="#DejaVuSans-73"/>
      <use x="29.492188" xlink:href="#DejaVuSans-116"/>
      <use x="68.701172" xlink:href="#DejaVuSans-101"/>
      <use x="130.224609" xlink:href="#DejaVuSans-114"/>
      <use x="171.337891" xlink:href="#DejaVuSans-97"/>
      <use x="232.617188" xlink:href="#DejaVuSans-116"/>
      <use x="271.826172" xlink:href="#DejaVuSans-105"/>
      <use x="299.609375" xlink:href="#DejaVuSans-111"/>
      <use x="360.791016" xlink:href="#DejaVuSans-110"/>
      <use x="424.169922" xlink:href="#DejaVuSans-115"/>
     </g>
    </g>
   </g>
   <g id="line2d_17">
    <path clip-path="url(#p399d47e2fa)" d="M 73.832727 263.656421 
L 73.833219 295.488 
L 73.944162 292.304842 
L 74.481167 292.304842 
L 74.485795 289.121684 
L 74.591154 292.304842 
L 75.277578 292.304842 
L 75.38592 289.121684 
L 75.49998 292.304842 
L 75.612125 289.121684 
L 75.62006 289.121684 
L 75.680421 292.304842 
L 75.729805 289.121684 
L 75.814336 289.121684 
L 75.919569 285.938526 
L 75.924046 289.121684 
L 75.946544 289.121684 
L 76.066622 266.839579 
L 76.104638 289.121684 
L 76.177315 273.205895 
L 76.201954 263.656421 
L 76.197009 289.121684 
L 76.266998 266.839579 
L 76.364686 285.938526 
L 76.323169 260.473263 
L 76.375154 273.205895 
L 76.428036 260.473263 
L 76.396198 285.938526 
L 76.465595 273.205895 
L 76.564278 285.938526 
L 76.481831 257.290105 
L 76.569851 263.656421 
L 76.631791 254.106947 
L 76.626111 285.938526 
L 76.64318 276.389053 
L 76.729873 285.938526 
L 76.689135 254.106947 
L 76.753377 282.755368 
L 76.788941 250.923789 
L 76.782988 285.938526 
L 76.873396 263.656421 
L 76.928798 260.473263 
L 76.985089 285.938526 
L 77.087415 247.740632 
L 77.100412 263.656421 
L 77.192711 282.755368 
L 77.199394 257.290105 
L 77.212794 276.389053 
L 77.219513 276.389053 
L 77.273701 244.557474 
L 77.253288 282.755368 
L 77.328681 273.205895 
L 77.349506 282.755368 
L 77.342552 257.290105 
L 77.384469 276.389053 
L 77.398544 231.824842 
L 77.405601 279.572211 
L 77.491302 250.923789 
L 77.513025 279.572211 
L 77.527574 241.374316 
L 77.601135 276.389053 
L 77.698837 235.008 
L 77.683651 279.572211 
L 77.706452 266.839579 
L 77.729381 279.572211 
L 77.721724 241.374316 
L 77.806758 257.290105 
L 77.885615 228.641684 
L 77.877661 282.755368 
L 77.901567 270.022737 
L 77.933655 247.740632 
L 77.965991 279.572211 
L 78.023179 247.740632 
L 77.990406 282.755368 
L 78.072817 263.656421 
L 78.097853 247.740632 
L 78.165336 279.572211 
L 78.173846 238.191158 
L 78.277275 260.473263 
L 78.329915 222.275368 
L 78.374263 279.572211 
L 78.383186 225.458526 
L 78.410061 279.572211 
L 78.464298 215.909053 
L 78.491662 222.275368 
L 78.631001 279.572211 
L 78.649903 225.458526 
L 78.745582 235.008 
L 78.843255 276.389053 
L 78.863035 257.290105 
L 78.902842 209.542737 
L 78.882897 266.839579 
L 78.973312 254.106947 
L 79.024288 266.839579 
L 79.04483 231.824842 
L 79.055134 250.923789 
L 79.138358 203.176421 
L 79.127877 270.022737 
L 79.159387 266.839579 
L 79.180507 215.909053 
L 79.191101 279.572211 
L 79.265901 250.923789 
L 79.341846 273.205895 
L 79.330926 215.909053 
L 79.363758 241.374316 
L 79.37475 244.557474 
L 79.385767 206.359579 
L 79.396807 273.205895 
L 79.474774 231.824842 
L 79.519871 279.572211 
L 79.565371 209.542737 
L 79.588273 238.191158 
L 79.6576 273.205895 
L 79.634387 219.092211 
L 79.680917 266.839579 
L 79.739674 228.641684 
L 79.787163 260.473263 
L 79.799102 263.656421 
L 79.81107 250.923789 
L 79.823064 219.092211 
L 79.835086 260.473263 
L 79.920018 228.641684 
L 79.981531 270.022737 
L 79.993919 212.725895 
L 80.006336 184.077474 
L 80.085949 206.359579 
L 80.127662 161.795368 
L 80.169689 228.641684 
L 80.254634 164.978526 
L 80.297552 209.542737 
L 80.381391 219.092211 
L 80.423658 184.077474 
L 80.46621 206.359579 
L 80.509049 206.359579 
L 80.639319 158.612211 
L 80.817178 215.909053 
L 80.8624 98.132211 
L 80.907931 161.795368 
L 81.046391 171.344842 
L 81.093175 161.795368 
L 81.140278 228.641684 
L 81.187702 177.711158 
L 81.380662 53.568 
L 81.479132 174.528 
L 81.528874 136.330105 
L 81.578956 193.626947 
L 81.629381 114.048 
L 81.680153 184.077474 
L 81.781143 228.641684 
L 81.881557 174.528 
L 81.932256 177.711158 
L 81.983292 158.612211 
L 82.034666 199.993263 
L 82.086383 152.245895 
L 82.508629 292.304842 
L 82.51681 289.121684 
L 82.525 289.121684 
L 82.632348 292.304842 
L 82.749793 289.121684 
L 82.869169 292.304842 
L 82.87777 292.304842 
L 82.98177 289.121684 
L 83.096082 292.304842 
L 83.212128 289.121684 
L 83.230137 289.121684 
L 83.329931 292.304842 
L 83.339066 289.121684 
L 83.366535 289.121684 
L 83.384901 292.304842 
L 83.477367 289.121684 
L 83.505315 289.121684 
L 83.514653 292.304842 
L 83.608623 289.121684 
L 84.4421 289.121684 
L 84.525749 285.938526 
L 84.546781 289.121684 
L 84.557316 289.121684 
L 84.673994 285.938526 
L 84.716788 285.938526 
L 84.727518 289.121684 
L 84.824638 285.938526 
L 84.879028 285.938526 
L 84.889944 289.121684 
L 84.98875 285.938526 
L 85.07744 285.938526 
L 85.155714 289.121684 
L 85.178194 285.938526 
L 85.382858 285.938526 
L 85.394353 289.121684 
L 85.486792 285.938526 
L 85.556682 285.938526 
L 85.59181 289.121684 
L 85.66243 285.938526 
L 85.841138 285.938526 
L 85.853163 289.121684 
L 85.949863 285.938526 
L 85.974178 285.938526 
L 86.0843 289.121684 
L 86.195579 285.938526 
L 86.308032 285.938526 
L 86.3206 289.121684 
L 86.408987 285.938526 
L 86.472566 285.938526 
L 86.485326 289.121684 
L 86.498102 282.755368 
L 86.57507 285.938526 
L 86.665554 285.938526 
L 86.678541 289.121684 
L 86.769881 285.938526 
L 86.782992 285.938526 
L 86.861979 282.755368 
L 86.848776 289.121684 
L 86.888433 285.938526 
L 86.91495 285.938526 
L 86.968172 282.755368 
L 87.021647 285.938526 
L 87.035056 285.938526 
L 87.115842 282.755368 
L 87.129363 285.938526 
L 87.1429 289.121684 
L 87.156453 282.755368 
L 87.238111 285.938526 
L 87.320356 282.755368 
L 87.347903 285.938526 
L 87.361701 285.938526 
L 87.472684 282.755368 
L 87.570675 285.938526 
L 87.669497 282.755368 
L 87.783468 289.121684 
L 87.855264 279.572211 
L 87.913017 282.755368 
L 87.971053 279.572211 
L 88.029374 285.938526 
L 88.146877 282.755368 
L 88.176434 282.755368 
L 88.206064 279.572211 
L 88.265544 285.938526 
L 88.355318 279.572211 
L 88.370345 282.755368 
L 88.385392 282.755368 
L 88.460903 285.938526 
L 88.476062 282.755368 
L 88.598016 279.572211 
L 88.613346 279.572211 
L 88.705734 282.755368 
L 88.814404 270.022737 
L 88.830007 285.938526 
L 88.924041 270.022737 
L 89.05054 282.755368 
L 89.13026 285.938526 
L 89.162291 276.389053 
L 89.226601 282.755368 
L 89.24273 270.022737 
L 89.25888 266.839579 
L 89.275051 282.755368 
L 89.291243 273.205895 
L 89.356219 266.839579 
L 89.405172 279.572211 
L 89.421532 279.572211 
L 89.487186 270.022737 
L 89.503653 276.389053 
L 89.520141 285.938526 
L 89.553182 270.022737 
L 89.619524 279.572211 
L 89.669509 270.022737 
L 89.719692 282.755368 
L 89.736463 273.205895 
L 89.770072 285.938526 
L 89.78691 270.022737 
L 89.837558 273.205895 
L 89.871435 273.205895 
L 89.888407 266.839579 
L 89.956521 282.755368 
L 89.990714 270.022737 
L 90.076598 279.572211 
L 90.14572 285.938526 
L 90.111113 273.205895 
L 90.18042 279.572211 
L 90.197806 279.572211 
L 90.267582 273.205895 
L 90.285084 279.572211 
L 90.355334 282.755368 
L 90.372955 276.389053 
L 90.390601 279.572211 
L 90.408271 279.572211 
L 90.479191 270.022737 
L 90.514797 273.205895 
L 90.640188 276.389053 
L 90.6582 270.022737 
L 90.730495 273.205895 
L 90.803192 282.755368 
L 90.85798 279.572211 
L 90.876293 282.755368 
L 90.894632 276.389053 
L 90.931387 279.572211 
L 90.949803 273.205895 
L 91.023726 282.755368 
L 91.042272 282.755368 
L 91.079441 276.389053 
L 91.116715 282.755368 
L 91.135392 285.938526 
L 91.154095 273.205895 
L 91.172824 279.572211 
L 91.229172 273.205895 
L 91.248008 276.389053 
L 91.342591 282.755368 
L 91.361588 279.572211 
L 91.476147 285.938526 
L 91.591699 270.022737 
L 91.611055 273.205895 
L 91.727784 282.755368 
L 91.825841 276.389053 
L 91.885021 282.755368 
L 91.865265 273.205895 
L 91.924619 279.572211 
L 92.044119 273.205895 
L 92.104268 285.938526 
L 92.144517 282.755368 
L 92.184886 273.205895 
L 92.245667 279.572211 
L 92.265988 282.755368 
L 92.28634 276.389053 
L 92.347579 266.839579 
L 92.368053 273.205895 
L 92.409096 282.755368 
L 92.429663 266.839579 
L 92.491554 279.572211 
L 92.512247 273.205895 
L 92.574516 276.389053 
L 92.595336 282.755368 
L 92.678934 276.389053 
L 92.720926 279.572211 
L 92.741971 270.022737 
L 92.763048 273.205895 
L 92.784158 266.839579 
L 92.8053 279.572211 
L 92.847684 273.205895 
L 92.911506 279.572211 
L 92.95422 273.205895 
L 93.061591 279.572211 
L 93.083167 276.389053 
L 93.104776 276.389053 
L 93.12642 279.572211 
L 93.148097 276.389053 
L 93.169809 266.839579 
L 93.235152 279.572211 
L 93.257002 270.022737 
L 93.300806 279.572211 
L 93.388835 276.389053 
L 93.433061 270.022737 
L 93.455227 279.572211 
L 93.499667 276.389053 
L 93.52194 279.572211 
L 93.54425 276.389053 
L 93.566595 270.022737 
L 93.63385 279.572211 
L 93.656341 273.205895 
L 93.724034 282.755368 
L 93.769347 263.656421 
L 93.837595 270.022737 
L 93.86042 270.022737 
L 93.883282 266.839579 
L 93.906181 270.022737 
L 93.952094 266.839579 
L 94.021249 282.755368 
L 94.137276 266.839579 
L 94.160598 279.572211 
L 94.254278 276.389053 
L 94.372269 266.839579 
L 94.443545 282.755368 
L 94.491264 279.572211 
L 94.515186 263.656421 
L 94.587195 279.572211 
L 94.708039 273.205895 
L 94.781048 279.572211 
L 94.805469 266.839579 
L 94.878988 270.022737 
L 94.928214 282.755368 
L 94.952892 263.656421 
L 94.977614 279.572211 
L 95.076936 263.656421 
L 95.101876 273.205895 
L 95.15189 263.656421 
L 95.202081 273.205895 
L 95.277704 282.755368 
L 95.303002 273.205895 
L 95.328345 273.205895 
L 95.353734 279.572211 
L 95.404649 270.022737 
L 95.455747 266.839579 
L 95.532743 279.572211 
L 95.558501 257.290105 
L 95.636058 276.389053 
L 95.76627 270.022737 
L 95.792456 270.022737 
L 95.844973 266.839579 
L 95.950593 279.572211 
L 96.057003 273.205895 
L 96.110507 276.389053 
L 96.137335 263.656421 
L 96.218122 276.389053 
L 96.245152 276.389053 
L 96.299368 279.572211 
L 96.326553 276.389053 
L 96.443094 270.022737 
L 96.473939 282.755368 
L 96.551437 279.572211 
L 96.567006 279.572211 
L 96.676617 266.839579 
L 96.59821 285.938526 
L 96.692367 273.205895 
L 96.723934 285.938526 
L 96.755592 270.022737 
L 96.819182 282.755368 
L 96.915255 279.572211 
L 96.979766 282.755368 
L 96.995952 276.389053 
L 97.01216 276.389053 
L 97.044648 273.205895 
L 97.126278 289.121684 
L 97.225013 279.572211 
L 97.241552 282.755368 
L 97.274701 282.755368 
L 97.307947 270.022737 
L 97.341288 285.938526 
L 97.374726 285.938526 
L 97.391481 285.938526 
L 97.475621 276.389053 
L 97.425064 289.121684 
L 97.492523 285.938526 
L 97.509448 285.938526 
L 97.611519 270.022737 
L 97.68006 289.121684 
L 97.64574 266.839579 
L 97.731729 285.938526 
L 97.835743 276.389053 
L 97.888092 285.938526 
L 97.870617 263.656421 
L 97.958247 282.755368 
L 97.975849 273.205895 
L 98.028812 285.938526 
L 98.046518 282.755368 
L 98.064249 285.938526 
L 98.082007 266.839579 
L 98.189099 270.022737 
L 98.351511 285.938526 
L 98.369689 279.572211 
L 98.406126 289.121684 
L 98.460982 285.938526 
L 98.589895 266.839579 
L 98.516081 289.121684 
L 98.608401 273.205895 
L 98.682636 270.022737 
L 98.701247 285.938526 
L 98.719878 266.839579 
L 98.813349 273.205895 
L 98.850884 289.121684 
L 98.926203 282.755368 
L 98.963987 282.755368 
L 99.001855 270.022737 
L 99.039807 285.938526 
L 99.077842 285.938526 
L 99.115961 273.205895 
L 99.192448 276.389053 
L 99.269269 285.938526 
L 99.307805 279.572211 
L 99.327104 282.755368 
L 99.346425 266.839579 
L 99.385127 285.938526 
L 99.423914 282.755368 
L 99.501737 285.938526 
L 99.521245 276.389053 
L 99.599485 270.022737 
L 99.638731 285.938526 
L 99.697755 276.389053 
L 99.737209 285.938526 
L 99.776747 289.121684 
L 99.856073 276.389053 
L 99.955699 285.938526 
L 99.975687 279.572211 
L 100.116185 285.938526 
L 100.176712 276.389053 
L 100.237426 279.572211 
L 100.278006 279.572211 
L 100.359417 276.389053 
L 100.379822 279.572211 
L 100.441162 279.572211 
L 100.564403 282.755368 
L 100.605651 285.938526 
L 100.688395 273.205895 
L 100.771473 285.938526 
L 100.813136 279.572211 
L 100.834 282.755368 
L 100.854884 276.389053 
L 100.896714 279.572211 
L 100.980625 276.389053 
L 100.959616 282.755368 
L 101.001654 279.572211 
L 101.022705 279.572211 
L 101.085981 276.389053 
L 101.12827 279.572211 
L 101.191859 282.755368 
L 101.213097 276.389053 
L 101.234355 276.389053 
L 101.255635 273.205895 
L 101.276935 279.572211 
L 101.298256 276.389053 
L 101.405174 285.938526 
L 101.42662 282.755368 
L 101.491083 282.755368 
L 101.620571 276.389053 
L 101.707313 273.205895 
L 101.750809 279.572211 
L 101.772588 279.572211 
L 101.9037 282.755368 
L 101.925625 282.755368 
L 102.013533 279.572211 
L 102.035562 285.938526 
L 102.14602 276.389053 
L 102.234762 285.938526 
L 102.256999 273.205895 
L 102.323837 285.938526 
L 102.3685 285.938526 
L 102.435651 276.389053 
L 102.480522 282.755368 
L 102.525477 282.755368 
L 102.547986 279.572211 
L 102.593067 285.938526 
L 102.615638 282.755368 
L 102.638231 282.755368 
L 102.660844 279.572211 
L 102.683478 285.938526 
L 102.728809 282.755368 
L 102.751506 282.755368 
L 102.774224 285.938526 
L 102.819723 282.755368 
L 102.888128 279.572211 
L 102.910971 282.755368 
L 102.933836 282.755368 
L 102.956721 285.938526 
L 103.025504 282.755368 
L 103.094474 282.755368 
L 103.186729 285.938526 
L 103.302521 282.755368 
L 103.348985 285.938526 
L 103.395533 282.755368 
L 103.512272 279.572211 
L 103.629539 282.755368 
L 103.676593 282.755368 
L 103.7946 279.572211 
L 103.818264 285.938526 
L 103.889386 282.755368 
L 104.008347 279.572211 
L 104.032203 285.938526 
L 104.12784 282.755368 
L 104.151802 282.755368 
L 104.271934 279.572211 
L 104.320137 279.572211 
L 104.416799 285.938526 
L 104.368425 276.389053 
L 104.441018 282.755368 
L 104.465259 282.755368 
L 104.586784 279.572211 
L 104.757823 279.572211 
L 104.782344 282.755368 
L 104.856036 279.572211 
L 104.880643 279.572211 
L 104.954595 282.755368 
L 104.929922 276.389053 
L 104.979289 279.572211 
L 105.028742 279.572211 
L 105.053502 276.389053 
L 105.078283 282.755368 
L 105.127911 279.572211 
L 105.152757 279.572211 
L 105.252362 285.938526 
L 105.277318 276.389053 
L 105.377362 279.572211 
L 105.402428 279.572211 
L 105.427516 273.205895 
L 105.452626 282.755368 
L 105.502912 279.572211 
L 105.553286 276.389053 
L 105.578506 285.938526 
L 105.6543 279.572211 
L 105.679609 276.389053 
L 105.730294 282.755368 
L 105.75567 279.572211 
L 105.781068 279.572211 
L 105.857395 276.389053 
L 105.83193 285.938526 
L 105.882883 279.572211 
L 105.908392 279.572211 
L 105.985056 285.938526 
L 106.036277 273.205895 
L 106.087588 282.755368 
L 106.164723 279.572211 
L 106.21626 282.755368 
L 106.267887 273.205895 
L 106.397353 282.755368 
L 106.475306 273.205895 
L 106.501336 276.389053 
L 106.579563 282.755368 
L 106.605685 276.389053 
L 106.63183 276.389053 
L 106.684188 282.755368 
L 106.736639 276.389053 
L 106.762899 276.389053 
L 106.841818 285.938526 
L 106.920947 282.755368 
L 106.947369 282.755368 
L 107.053294 273.205895 
L 107.106396 282.755368 
L 107.159593 276.389053 
L 107.239565 276.389053 
L 107.266269 285.938526 
L 107.319749 270.022737 
L 107.346525 276.389053 
L 107.373324 270.022737 
L 107.426995 276.389053 
L 107.48076 282.755368 
L 107.507679 279.572211 
L 107.534621 273.205895 
L 107.615593 276.389053 
L 107.723893 279.572211 
L 107.805371 282.755368 
L 107.859812 276.389053 
L 107.968985 282.755368 
L 108.023719 273.205895 
L 108.078551 279.572211 
L 108.106004 279.572211 
L 108.243639 276.389053 
L 108.271241 276.389053 
L 108.326519 285.938526 
L 108.354195 273.205895 
L 108.381896 273.205895 
L 108.465151 279.572211 
L 108.492953 273.205895 
L 108.52078 279.572211 
L 108.604412 276.389053 
L 108.63234 279.572211 
L 108.660294 270.022737 
L 108.744307 273.205895 
L 108.772362 273.205895 
L 108.856682 279.572211 
L 108.884841 276.389053 
L 108.913024 270.022737 
L 108.969469 279.572211 
L 108.997731 279.572211 
L 109.082671 273.205895 
L 109.196289 279.572211 
L 109.310326 270.022737 
L 109.338902 273.205895 
L 109.367503 276.389053 
L 109.396132 273.205895 
L 109.424787 266.839579 
L 109.453468 285.938526 
L 109.539672 279.572211 
L 109.568461 282.755368 
L 109.597276 279.572211 
L 109.683882 276.389053 
L 109.741755 279.572211 
L 109.770732 276.389053 
L 109.799736 276.389053 
L 109.828768 279.572211 
L 109.886912 276.389053 
L 109.974334 270.022737 
L 110.00353 273.205895 
L 110.091283 282.755368 
L 110.120589 276.389053 
L 110.149923 279.572211 
L 110.208674 276.389053 
L 110.238092 276.389053 
L 110.267538 273.205895 
L 110.297011 276.389053 
L 110.326513 279.572211 
L 110.415187 266.839579 
L 110.504116 282.755368 
L 110.533816 276.389053 
L 110.623087 279.572211 
L 110.652889 266.839579 
L 110.802403 279.572211 
L 110.892454 276.389053 
L 110.952634 270.022737 
L 110.982767 282.755368 
L 111.133879 266.839579 
L 111.194531 282.755368 
L 111.224902 270.022737 
L 111.285733 263.656421 
L 111.316193 266.839579 
L 111.346684 276.389053 
L 111.407756 270.022737 
L 111.438337 270.022737 
L 111.468948 266.839579 
L 111.49959 273.205895 
L 111.530263 279.572211 
L 111.560966 276.389053 
L 111.622463 279.572211 
L 111.653258 266.839579 
L 111.745828 285.938526 
L 111.838676 282.755368 
L 111.994049 273.205895 
L 112.08765 270.022737 
L 112.181538 279.572211 
L 112.307168 263.656421 
L 112.40173 276.389053 
L 112.433316 270.022737 
L 112.496584 266.839579 
L 112.528268 276.389053 
L 112.591733 263.656421 
L 112.65533 266.839579 
L 112.750973 279.572211 
L 112.782921 263.656421 
L 112.878965 270.022737 
L 112.943163 263.656421 
L 112.975312 282.755368 
L 113.071964 266.839579 
L 113.10425 279.572211 
L 113.168923 270.022737 
L 113.201312 266.839579 
L 113.233735 273.205895 
L 113.266192 273.205895 
L 113.298684 260.473263 
L 113.363772 270.022737 
L 113.396369 270.022737 
L 113.461667 273.205895 
L 113.527105 276.389053 
L 113.592685 260.473263 
L 113.691321 270.022737 
L 113.724272 266.839579 
L 113.757258 263.656421 
L 113.79028 270.022737 
L 113.889562 279.572211 
L 114.022448 266.839579 
L 114.089111 263.656421 
L 114.155921 276.389053 
L 114.222879 279.572211 
L 114.289987 266.839579 
L 114.323597 279.572211 
L 114.424652 276.389053 
L 114.458413 263.656421 
L 114.559923 266.839579 
L 114.695806 279.572211 
L 114.832308 270.022737 
L 114.866531 276.389053 
L 114.900793 270.022737 
L 115.038235 263.656421 
L 115.107194 250.923789 
L 115.141734 279.572211 
L 115.245592 276.389053 
L 115.280293 279.572211 
L 115.315033 273.205895 
L 115.454403 266.839579 
L 115.524334 279.572211 
L 115.559362 263.656421 
L 115.629541 270.022737 
L 115.735122 266.839579 
L 115.805719 263.656421 
L 115.841081 276.389053 
L 115.876485 257.290105 
L 115.947421 266.839579 
L 115.982953 266.839579 
L 116.054145 276.389053 
L 116.089806 266.839579 
L 116.12551 266.839579 
L 116.197048 270.022737 
L 116.232882 254.106947 
L 116.304682 266.839579 
L 116.41709 282.755368 
L 116.438849 279.572211 
L 116.570063 285.938526 
L 116.858147 285.938526 
L 116.880522 289.121684 
L 116.947831 285.938526 
L 117.197014 285.938526 
L 117.219853 289.121684 
L 117.288561 285.938526 
L 117.311526 285.938526 
L 117.334523 289.121684 
L 117.403703 285.938526 
L 117.706787 285.938526 
L 117.730326 289.121684 
L 117.801135 285.938526 
L 118.111359 285.938526 
L 118.135452 289.121684 
L 118.20793 285.938526 
L 118.402667 285.938526 
L 118.427159 282.755368 
L 118.500839 285.938526 
L 118.574822 285.938526 
L 118.673941 282.755368 
L 118.798606 285.938526 
L 118.823642 285.938526 
L 118.898955 282.755368 
L 118.924129 285.938526 
L 119.050516 285.938526 
L 119.101314 282.755368 
L 119.152251 285.938526 
L 119.280208 285.938526 
L 119.409045 282.755368 
L 119.460828 282.755368 
L 119.590909 285.938526 
L 119.669387 282.755368 
L 119.695618 285.938526 
L 119.800903 285.938526 
L 119.906768 279.572211 
L 120.039919 289.121684 
L 120.200912 282.755368 
L 120.254871 282.755368 
L 120.336088 285.938526 
L 120.363235 282.755368 
L 120.417641 282.755368 
L 120.472196 279.572211 
L 120.499529 282.755368 
L 120.60924 285.938526 
L 120.636762 276.389053 
L 120.719556 282.755368 
L 120.747229 282.755368 
L 120.830478 279.572211 
L 120.858304 282.755368 
L 120.942011 282.755368 
L 120.998008 285.938526 
L 121.026064 279.572211 
L 121.110463 282.755368 
L 121.166923 279.572211 
L 121.195211 285.938526 
L 121.251903 282.755368 
L 121.365757 279.572211 
L 121.422918 282.755368 
L 121.451558 279.572211 
L 121.480237 279.572211 
L 121.508955 276.389053 
L 121.537713 279.572211 
L 121.682095 285.938526 
L 121.769202 279.572211 
L 121.798317 285.938526 
L 121.856667 279.572211 
L 121.885903 279.572211 
L 122.003246 282.755368 
L 122.06216 276.389053 
L 122.121236 279.572211 
L 122.239875 285.938526 
L 122.299439 276.389053 
L 122.359167 279.572211 
L 122.389093 279.572211 
L 122.419059 276.389053 
L 122.449067 282.755368 
L 122.479116 282.755368 
L 122.629981 276.389053 
L 122.720999 279.572211 
L 122.751421 276.389053 
L 122.812391 279.572211 
L 122.873529 276.389053 
L 122.904161 282.755368 
L 122.99631 273.205895 
L 123.02711 279.572211 
L 123.119766 282.755368 
L 123.181749 276.389053 
L 123.212804 279.572211 
L 123.243902 282.755368 
L 123.275042 276.389053 
L 123.306226 279.572211 
L 123.337452 279.572211 
L 123.400033 273.205895 
L 123.462786 276.389053 
L 123.494227 279.572211 
L 123.525712 273.205895 
L 123.557239 273.205895 
L 123.715528 282.755368 
L 123.874908 273.205895 
L 124.035385 279.572211 
L 124.067612 279.572211 
L 124.099885 273.205895 
L 124.164562 276.389053 
L 124.229417 276.389053 
L 124.29445 273.205895 
L 124.327034 279.572211 
L 124.359663 276.389053 
L 124.425054 279.572211 
L 124.457817 279.572211 
L 124.490626 276.389053 
L 124.523479 282.755368 
L 124.556378 282.755368 
L 124.655345 273.205895 
L 124.688424 279.572211 
L 124.75472 276.389053 
L 124.821199 273.205895 
L 124.88786 270.022737 
L 124.92126 279.572211 
L 124.988196 273.205895 
L 125.021734 279.572211 
L 125.223929 270.022737 
L 125.325653 282.755368 
L 125.393703 276.389053 
L 125.427798 276.389053 
L 125.46194 279.572211 
L 125.496129 270.022737 
L 125.564649 276.389053 
L 125.598979 276.389053 
L 125.736774 270.022737 
L 125.840539 282.755368 
L 125.944478 279.572211 
L 126.083325 273.205895 
L 126.187653 276.389053 
L 126.292146 270.022737 
L 126.396803 282.755368 
L 126.431724 276.389053 
L 126.501621 279.572211 
L 126.606601 273.205895 
L 126.676676 282.755368 
L 126.817039 270.022737 
L 127.02811 279.572211 
L 127.13388 273.205895 
L 127.20448 279.572211 
L 127.239805 270.022737 
L 127.275148 285.938526 
L 127.310508 273.205895 
L 127.381279 270.022737 
L 127.487564 279.572211 
L 127.558505 270.022737 
L 127.594001 279.572211 
L 127.70059 270.022737 
L 127.736154 279.572211 
L 127.807331 273.205895 
L 127.842945 270.022737 
L 127.878575 276.389053 
L 127.949886 279.572211 
L 128.021264 270.022737 
L 128.056977 279.572211 
L 128.199998 266.839579 
L 128.307437 279.572211 
L 128.343282 273.205895 
L 128.450919 270.022737 
L 128.594664 279.572211 
L 128.702644 270.022737 
L 128.846846 279.572211 
L 128.991309 266.839579 
L 129.136031 276.389053 
L 129.172253 266.839579 
L 129.244744 270.022737 
L 129.3173 270.022737 
L 129.462606 273.205895 
L 129.535356 273.205895 
L 129.571755 285.938526 
L 129.644602 279.572211 
L 129.68105 276.389053 
L 129.753995 279.572211 
L 129.790491 279.572211 
L 129.827004 285.938526 
L 129.900078 282.755368 
L 130.04642 270.022737 
L 130.266421 279.572211 
L 130.376641 270.022737 
L 130.413413 282.755368 
L 130.487007 276.389053 
L 130.523829 279.572211 
L 130.597521 276.389053 
L 130.671279 276.389053 
L 130.708182 282.755368 
L 130.782038 276.389053 
L 130.929947 273.205895 
L 130.966966 276.389053 
L 131.004001 270.022737 
L 131.041053 270.022737 
L 131.189425 282.755368 
L 131.226559 270.022737 
L 131.300879 276.389053 
L 131.338063 273.205895 
L 131.375265 279.572211 
L 131.449718 276.389053 
L 131.561523 266.839579 
L 131.598825 279.572211 
L 131.67348 270.022737 
L 131.748203 279.572211 
L 131.785589 270.022737 
L 131.822993 273.205895 
L 131.897852 279.572211 
L 131.935307 273.205895 
L 131.972779 279.572211 
L 132.010268 279.572211 
L 132.160398 270.022737 
L 132.273176 279.572211 
L 132.348449 270.022737 
L 132.386111 273.205895 
L 132.423791 273.205895 
L 132.536937 276.389053 
L 132.574687 270.022737 
L 132.650241 273.205895 
L 132.725865 273.205895 
L 132.801561 276.389053 
L 132.877329 270.022737 
L 132.91524 273.205895 
L 132.953168 273.205895 
L 132.991115 270.022737 
L 133.02908 273.205895 
L 133.067063 279.572211 
L 133.105064 273.205895 
L 133.181121 273.205895 
L 133.219177 282.755368 
L 133.295344 276.389053 
L 133.333456 279.572211 
L 133.371585 273.205895 
L 133.4479 276.389053 
L 133.524289 273.205895 
L 133.600753 279.572211 
L 133.639014 273.205895 
L 133.715591 276.389053 
L 133.753908 279.572211 
L 133.868973 273.205895 
L 133.98421 282.755368 
L 134.09962 270.022737 
L 134.138129 285.938526 
L 134.215206 276.389053 
L 134.330968 282.755368 
L 134.446908 270.022737 
L 134.485595 282.755368 
L 134.524301 279.572211 
L 134.563028 270.022737 
L 134.640541 276.389053 
L 134.679328 273.205895 
L 134.718135 276.389053 
L 134.756963 282.755368 
L 134.795811 276.389053 
L 134.834679 273.205895 
L 134.873568 282.755368 
L 134.951408 276.389053 
L 134.990359 273.205895 
L 135.107336 282.755368 
L 135.185426 273.205895 
L 135.224502 279.572211 
L 135.2636 279.572211 
L 135.302719 273.205895 
L 135.341859 276.389053 
L 135.38102 282.755368 
L 135.420203 276.389053 
L 135.459407 276.389053 
L 135.498632 282.755368 
L 135.53788 279.572211 
L 135.577149 273.205895 
L 135.655752 276.389053 
L 135.695086 276.389053 
L 135.734442 279.572211 
L 135.813221 273.205895 
L 135.931555 279.572211 
L 135.971025 273.205895 
L 136.010549 282.755368 
L 136.050084 276.389053 
L 136.168823 282.755368 
L 136.248096 279.572211 
L 136.367179 282.755368 
L 136.48647 273.205895 
L 136.52628 276.389053 
L 136.566114 273.205895 
L 136.605971 273.205895 
L 136.765637 282.755368 
L 136.885638 279.572211 
L 136.96576 279.572211 
L 137.086125 273.205895 
L 137.166491 282.755368 
L 137.206712 276.389053 
L 137.367842 285.938526 
L 137.529376 276.389053 
L 137.569823 285.938526 
L 137.610295 282.755368 
L 137.731868 270.022737 
L 137.772444 273.205895 
L 137.813046 273.205895 
L 137.894329 282.755368 
L 137.93501 273.205895 
L 137.975718 285.938526 
L 138.016452 276.389053 
L 138.098 282.755368 
L 138.220523 276.389053 
L 138.261418 276.389053 
L 138.384268 282.755368 
L 138.425272 282.755368 
L 138.466304 276.389053 
L 138.507364 282.755368 
L 138.548452 282.755368 
L 138.589568 279.572211 
L 138.630711 282.755368 
L 138.671883 282.755368 
L 138.713083 279.572211 
L 138.754311 285.938526 
L 138.795567 279.572211 
L 138.878166 279.572211 
L 138.960879 285.938526 
L 139.043708 279.572211 
L 139.085166 282.755368 
L 139.126653 282.755368 
L 139.16817 276.389053 
L 139.209716 285.938526 
L 139.334532 276.389053 
L 139.417891 282.755368 
L 139.459616 279.572211 
L 139.501371 282.755368 
L 139.523735 279.572211 
L 139.554892 276.389053 
L 139.580297 282.755368 
L 139.631295 282.755368 
L 139.759454 285.938526 
L 139.83679 285.938526 
L 139.966409 289.121684 
L 140.307657 289.121684 
L 140.413895 285.938526 
L 140.547518 289.121684 
L 140.682063 289.121684 
L 140.817536 285.938526 
L 140.844743 289.121684 
L 140.926587 285.938526 
L 140.953944 285.938526 
L 141.091291 289.121684 
L 141.201849 289.121684 
L 141.257356 285.938526 
L 141.285167 289.121684 
L 141.368828 289.121684 
L 141.480913 285.938526 
L 141.593614 289.121684 
L 141.992966 289.121684 
L 142.108479 285.938526 
L 142.224626 289.121684 
L 142.253762 289.121684 
L 142.282938 285.938526 
L 142.341409 289.121684 
L 142.576899 289.121684 
L 142.665873 285.938526 
L 142.785074 289.121684 
L 142.844918 285.938526 
L 142.874901 289.121684 
L 143.268427 289.121684 
L 143.39092 285.938526 
L 144.076665 285.938526 
L 144.171772 289.121684 
L 144.299184 285.938526 
L 144.588396 285.938526 
L 144.685585 289.121684 
L 144.815785 285.938526 
L 145.510979 285.938526 
L 145.64564 289.121684 
L 145.781026 285.938526 
L 145.814987 289.121684 
L 145.883045 285.938526 
L 146.122691 285.938526 
L 146.157111 282.755368 
L 146.226087 285.938526 
L 146.503849 285.938526 
L 146.538779 282.755368 
L 146.608779 285.938526 
L 146.749341 285.938526 
L 146.784599 282.755368 
L 146.855256 285.938526 
L 147.068364 285.938526 
L 147.104047 282.755368 
L 147.175558 285.938526 
L 147.319152 285.938526 
L 147.35517 289.121684 
L 147.391237 285.938526 
L 147.535982 282.755368 
L 147.572289 282.755368 
L 147.608644 285.938526 
L 147.681499 282.755368 
L 147.717999 282.755368 
L 147.864486 285.938526 
L 148.011753 282.755368 
L 148.08568 282.755368 
L 148.159803 289.121684 
L 148.196938 285.938526 
L 148.234123 285.938526 
L 148.30864 282.755368 
L 148.420786 285.938526 
L 148.458267 282.755368 
L 148.495798 285.938526 
L 148.722028 285.938526 
L 148.759907 282.755368 
L 148.797837 285.938526 
L 148.835817 285.938526 
L 148.873847 282.755368 
L 148.911928 285.938526 
L 148.950058 285.938526 
L 148.988239 282.755368 
L 149.026471 285.938526 
L 149.103085 285.938526 
L 149.141468 282.755368 
L 149.179902 285.938526 
L 149.411572 285.938526 
L 149.528095 282.755368 
L 149.606034 285.938526 
L 149.684178 282.755368 
L 149.723327 285.938526 
L 149.762527 282.755368 
L 149.80178 282.755368 
L 149.919847 285.938526 
L 149.959306 285.938526 
L 150.077996 282.755368 
L 150.197154 285.938526 
L 150.236978 282.755368 
L 150.276854 285.938526 
L 150.557458 285.938526 
L 150.638105 282.755368 
L 150.678508 285.938526 
L 150.718964 282.755368 
L 150.922042 282.755368 
L 151.044529 285.938526 
L 151.085465 282.755368 
L 151.126454 285.938526 
L 151.456312 285.938526 
L 151.497787 282.755368 
L 151.539317 285.938526 
L 151.62254 285.938526 
L 151.664234 282.755368 
L 151.705982 285.938526 
L 151.747784 285.938526 
L 151.873521 282.755368 
L 152.041938 282.755368 
L 152.168831 285.938526 
L 152.296223 282.755368 
L 152.338798 282.755368 
L 152.466857 279.572211 
L 152.59542 282.755368 
L 152.638386 279.572211 
L 152.681409 282.755368 
L 152.984147 282.755368 
L 153.027622 279.572211 
L 153.071154 282.755368 
L 153.202091 282.755368 
L 153.333543 279.572211 
L 153.421464 282.755368 
L 153.465512 279.572211 
L 153.509616 282.755368 
L 153.642277 282.755368 
L 153.686613 279.572211 
L 153.731007 282.755368 
L 153.81997 282.755368 
L 153.909165 279.572211 
L 154.043397 282.755368 
L 154.133178 282.755368 
L 154.178157 279.572211 
L 154.223195 282.755368 
L 154.313447 282.755368 
L 154.403937 279.572211 
L 154.44927 282.755368 
L 154.494663 279.572211 
L 154.540116 279.572211 
L 154.6312 282.755368 
L 154.768275 279.572211 
L 154.90589 279.572211 
L 154.997934 282.755368 
L 155.136455 279.572211 
L 155.229106 279.572211 
L 155.275523 266.839579 
L 155.321953 279.572211 
L 155.507673 285.938526 
L 155.5541 279.572211 
L 155.600527 285.938526 
L 155.646953 282.755368 
L 155.693379 285.938526 
L 155.739803 285.938526 
L 155.786227 282.755368 
L 155.832649 285.938526 
L 155.879071 285.938526 
L 155.925493 282.755368 
L 155.971913 285.938526 
L 156.111171 285.938526 
L 156.204007 282.755368 
L 156.343257 285.938526 
L 156.621748 285.938526 
L 156.760991 289.121684 
L 156.807405 289.121684 
L 156.993064 282.755368 
L 157.132311 285.938526 
L 157.782207 285.938526 
L 157.921498 282.755368 
L 158.014366 282.755368 
L 158.153681 285.938526 
L 158.432363 285.938526 
L 158.478817 282.755368 
L 158.525274 285.938526 
L 158.757598 285.938526 
L 158.804071 282.755368 
L 158.850547 285.938526 
L 158.943508 285.938526 
L 158.989993 282.755368 
L 159.036482 285.938526 
L 159.082974 285.938526 
L 159.222471 282.755368 
L 159.362001 285.938526 
L 159.501568 285.938526 
L 159.641173 282.755368 
L 159.780818 285.938526 
L 159.920507 285.938526 
L 159.96708 282.755368 
L 160.013659 285.938526 
L 160.153426 285.938526 
L 160.246632 282.755368 
L 160.386484 285.938526 
L 160.433114 285.938526 
L 160.57304 282.755368 
L 160.619695 285.938526 
L 160.666356 282.755368 
L 160.7597 282.755368 
L 160.806382 279.572211 
L 160.853071 282.755368 
L 160.899767 285.938526 
L 160.94647 282.755368 
L 161.1801 282.755368 
L 161.226849 285.938526 
L 161.273607 282.755368 
L 161.367146 282.755368 
L 161.413927 285.938526 
L 161.460718 279.572211 
L 161.507517 282.755368 
L 161.554324 282.755368 
L 161.601141 285.938526 
L 161.647966 282.755368 
L 161.6948 282.755368 
L 161.741644 285.938526 
L 161.788497 279.572211 
L 161.835359 282.755368 
L 161.88223 282.755368 
L 161.929111 279.572211 
L 161.976002 285.938526 
L 162.022903 282.755368 
L 162.774739 282.755368 
L 162.821825 285.938526 
L 162.868924 282.755368 
L 162.963158 282.755368 
L 163.010293 279.572211 
L 163.057441 282.755368 
L 163.198961 282.755368 
L 163.24616 285.938526 
L 163.293373 282.755368 
L 163.529637 282.755368 
L 163.576931 285.938526 
L 163.633926 282.755368 
L 163.921702 174.528 
L 164.034485 289.121684 
L 164.320027 289.121684 
L 164.435434 292.304842 
L 164.933564 292.304842 
L 165.052589 295.488 
L 165.719828 295.488 
L 165.75067 292.304842 
L 165.812488 295.488 
L 165.967825 295.488 
L 166.092913 292.304842 
L 166.124298 295.488 
L 166.187207 292.304842 
L 166.21873 292.304842 
L 166.2503 295.488 
L 166.313576 292.304842 
L 166.440681 289.121684 
L 166.472573 295.488 
L 166.536496 289.121684 
L 174.367235 289.121684 
L 174.496358 285.938526 
L 174.626 289.121684 
L 175.681982 289.121684 
L 175.816357 285.938526 
L 175.906236 285.938526 
L 175.951264 289.121684 
L 175.996352 285.938526 
L 176.0415 285.938526 
L 176.177299 289.121684 
L 176.313635 285.938526 
L 176.3592 285.938526 
L 176.404825 289.121684 
L 176.45051 285.938526 
L 176.496254 285.938526 
L 176.633849 289.121684 
L 176.72588 289.121684 
L 176.864379 285.938526 
L 176.910666 289.121684 
L 176.957014 285.938526 
L 177.143011 285.938526 
L 177.189663 289.121684 
L 177.236375 285.938526 
L 177.423834 285.938526 
L 177.565071 289.121684 
L 177.70686 285.938526 
L 178.666362 285.938526 
L 178.714992 289.121684 
L 178.763686 285.938526 
L 179.008098 285.938526 
L 179.106306 282.755368 
L 179.254094 285.938526 
L 179.303483 285.938526 
L 179.352937 282.755368 
L 179.402454 289.121684 
L 179.452035 282.755368 
L 179.551389 289.121684 
L 179.601162 285.938526 
L 179.750866 285.938526 
L 179.850991 289.121684 
L 180.001662 285.938526 
L 180.102432 285.938526 
L 180.152915 282.755368 
L 180.203463 285.938526 
L 180.406304 285.938526 
L 180.508117 289.121684 
L 180.559121 282.755368 
L 180.610192 285.938526 
L 180.866529 285.938526 
L 180.917994 289.121684 
L 180.969525 285.938526 
L 181.384169 285.938526 
L 181.488497 282.755368 
L 181.645493 285.938526 
L 181.803095 282.755368 
L 181.961305 285.938526 
L 182.014178 285.938526 
L 182.173204 282.755368 
L 182.226349 282.755368 
L 182.279562 285.938526 
L 182.332844 282.755368 
L 182.653979 282.755368 
L 182.815479 285.938526 
L 182.869451 285.938526 
L 182.977603 282.755368 
L 183.140356 285.938526 
L 183.194747 285.938526 
L 183.249208 282.755368 
L 183.303739 285.938526 
L 183.467756 285.938526 
L 183.632409 282.755368 
L 183.687435 282.755368 
L 183.742533 285.938526 
L 183.797701 282.755368 
L 183.908253 282.755368 
L 184.074618 285.938526 
L 184.185888 282.755368 
L 184.241631 285.938526 
L 184.297446 279.572211 
L 184.353334 282.755368 
L 184.409294 282.755368 
L 184.465327 285.938526 
L 184.577611 282.755368 
L 184.633863 282.755368 
L 184.690188 285.938526 
L 184.802967 276.389053 
L 184.859322 282.755368 
L 184.915648 279.572211 
L 185.028212 282.755368 
L 185.140662 282.755368 
L 185.196844 285.938526 
L 185.309126 282.755368 
L 185.980596 282.755368 
L 186.036389 285.938526 
L 186.147903 282.755368 
L 186.426285 282.755368 
L 186.481894 279.572211 
L 186.648594 285.938526 
L 186.870568 279.572211 
L 187.03684 282.755368 
L 187.20294 282.755368 
L 187.313582 279.572211 
L 187.368876 282.755368 
L 187.424153 279.572211 
L 187.755463 279.572211 
L 187.810625 282.755368 
L 187.851356 270.022737 
L 187.912881 282.755368 
L 187.942529 282.755368 
L 188.061645 285.938526 
L 188.181563 285.938526 
L 188.302268 289.121684 
L 188.423758 285.938526 
L 188.484798 285.938526 
L 188.607469 289.121684 
L 189.617656 289.121684 
L 189.747597 295.488 
L 190.783152 295.488 
L 190.817412 292.304842 
L 190.886094 295.488 
L 191.024111 295.488 
L 191.058752 292.304842 
L 191.128198 295.488 
L 191.197863 295.488 
L 191.232778 289.121684 
L 191.302773 292.304842 
L 191.337853 292.304842 
L 191.478727 295.488 
L 191.514085 295.488 
L 191.62049 292.304842 
L 191.65607 295.488 
L 191.727398 292.304842 
L 191.870727 289.121684 
L 192.051154 289.121684 
L 192.160089 292.304842 
L 192.306132 289.121684 
L 199.309747 289.121684 
L 199.356763 285.938526 
L 199.403845 289.121684 
L 200.214277 289.121684 
L 200.262542 285.938526 
L 200.310874 289.121684 
L 200.602254 289.121684 
L 200.748839 285.938526 
L 200.945217 285.938526 
L 200.994478 289.121684 
L 201.043806 285.938526 
L 201.64095 285.938526 
L 201.791744 282.755368 
L 201.842143 285.938526 
L 201.892609 282.755368 
L 201.943143 282.755368 
L 202.095148 285.938526 
L 202.196823 282.755368 
L 202.349841 289.121684 
L 202.503467 285.938526 
L 202.864304 285.938526 
L 202.916124 289.121684 
L 202.968012 285.938526 
L 203.019968 285.938526 
L 203.124085 289.121684 
L 203.280773 285.938526 
L 203.490647 285.938526 
L 203.648773 282.755368 
L 203.701619 282.755368 
L 203.860569 285.938526 
L 204.073466 285.938526 
L 204.126863 289.121684 
L 204.180329 285.938526 
L 204.233864 282.755368 
L 204.287469 285.938526 
L 204.341142 289.121684 
L 204.394885 285.938526 
L 204.502579 285.938526 
L 204.66464 282.755368 
L 204.881695 282.755368 
L 204.936134 279.572211 
L 204.990642 282.755368 
L 205.539574 282.755368 
L 205.594853 279.572211 
L 205.650203 282.755368 
L 205.983786 282.755368 
L 206.039631 285.938526 
L 206.151533 282.755368 
L 206.31992 282.755368 
L 206.432534 285.938526 
L 206.658618 276.389053 
L 206.77209 282.755368 
L 206.828933 279.572211 
L 206.942835 282.755368 
L 206.999894 276.389053 
L 207.057025 279.572211 
L 207.114228 276.389053 
L 207.228851 282.755368 
L 207.343762 282.755368 
L 207.401327 279.572211 
L 207.458964 282.755368 
L 207.516673 276.389053 
L 207.574455 282.755368 
L 207.63231 279.572211 
L 207.690238 279.572211 
L 207.806312 282.755368 
L 207.864458 279.572211 
L 207.98097 282.755368 
L 208.156288 276.389053 
L 208.214875 282.755368 
L 208.273534 279.572211 
L 208.391075 276.389053 
L 208.567936 282.755368 
L 208.686045 279.572211 
L 208.745129 279.572211 
L 208.804233 282.755368 
L 208.863357 279.572211 
L 208.981666 282.755368 
L 209.040852 279.572211 
L 209.159287 282.755368 
L 209.277807 282.755368 
L 209.3371 279.572211 
L 209.396415 282.755368 
L 209.455752 279.572211 
L 209.515112 282.755368 
L 209.574494 276.389053 
L 209.633899 282.755368 
L 209.693327 279.572211 
L 209.812254 285.938526 
L 209.990822 276.389053 
L 210.16961 282.755368 
L 210.229256 282.755368 
L 210.348623 276.389053 
L 210.408345 279.572211 
L 210.527867 276.389053 
L 210.647493 282.755368 
L 210.767227 279.572211 
L 210.827134 279.572211 
L 210.887068 282.755368 
L 211.067038 276.389053 
L 211.127084 276.389053 
L 211.187159 279.572211 
L 211.307394 276.389053 
L 211.367554 282.755368 
L 211.427744 276.389053 
L 211.487964 279.572211 
L 211.608492 279.572211 
L 211.668801 282.755368 
L 211.849911 273.205895 
L 212.041216 282.755368 
L 212.1309 270.022737 
L 212.161804 279.572211 
L 212.349817 289.121684 
L 212.476258 285.938526 
L 212.60359 289.121684 
L 213.253737 289.121684 
L 213.286842 292.304842 
L 213.353226 289.121684 
L 213.453237 289.121684 
L 213.587401 292.304842 
L 213.68864 289.121684 
L 213.824451 295.488 
L 213.961215 292.304842 
L 214.098938 295.488 
L 214.168161 295.488 
L 214.307337 282.755368 
L 214.342282 285.938526 
L 214.482677 289.121684 
L 215.456469 289.121684 
L 215.567525 295.488 
L 215.716503 289.121684 
L 215.753909 289.121684 
L 215.904186 295.488 
L 215.941919 292.304842 
L 215.979717 295.488 
L 216.055509 295.488 
L 216.093504 289.121684 
L 216.131565 295.488 
L 216.246142 295.488 
L 216.284467 292.304842 
L 216.322858 295.488 
L 216.399839 295.488 
L 216.51581 289.121684 
L 216.632382 295.488 
L 216.671373 292.304842 
L 216.710431 295.488 
L 216.906733 295.488 
L 216.946196 292.304842 
L 216.985727 295.488 
L 217.104726 295.488 
L 217.224338 292.304842 
L 217.344564 295.488 
L 217.425058 289.121684 
L 217.465408 292.304842 
L 217.66819 292.304842 
L 217.790688 289.121684 
L 223.570336 289.121684 
L 223.670901 285.938526 
L 223.822313 289.121684 
L 224.229399 289.121684 
L 224.280624 285.938526 
L 224.331925 289.121684 
L 225.110517 289.121684 
L 225.215617 285.938526 
L 225.373834 289.121684 
L 225.532733 285.938526 
L 225.692314 289.121684 
L 225.9598 289.121684 
L 226.067325 285.938526 
L 226.121202 289.121684 
L 226.175154 285.938526 
L 226.283286 285.938526 
L 226.391722 289.121684 
L 226.500462 285.938526 
L 226.609505 289.121684 
L 226.77364 285.938526 
L 226.883442 285.938526 
L 227.048716 289.121684 
L 227.159278 289.121684 
L 227.325691 285.938526 
L 227.437013 282.755368 
L 227.548639 289.121684 
L 227.604566 285.938526 
L 227.660569 289.121684 
L 227.716648 285.938526 
L 227.829035 289.121684 
L 227.941725 285.938526 
L 228.054719 285.938526 
L 228.111331 289.121684 
L 228.224781 285.938526 
L 228.624255 285.938526 
L 228.681627 282.755368 
L 228.7966 285.938526 
L 228.969629 285.938526 
L 229.085363 282.755368 
L 229.259535 289.121684 
L 229.376031 285.938526 
L 229.727347 285.938526 
L 229.786167 282.755368 
L 229.845062 285.938526 
L 229.904035 282.755368 
L 230.022208 285.938526 
L 230.20004 285.938526 
L 230.25947 282.755368 
L 230.37856 285.938526 
L 230.617656 285.938526 
L 230.677621 282.755368 
L 230.797781 285.938526 
L 230.857976 285.938526 
L 230.978595 282.755368 
L 231.039019 282.755368 
L 231.099521 285.938526 
L 231.160098 282.755368 
L 231.281483 285.938526 
L 231.525175 285.938526 
L 231.647481 282.755368 
L 231.708749 285.938526 
L 231.831516 282.755368 
L 232.201081 282.755368 
L 232.262705 285.938526 
L 232.324328 282.755368 
L 232.385953 285.938526 
L 232.447579 282.755368 
L 232.570837 285.938526 
L 232.632468 282.755368 
L 232.694102 285.938526 
L 232.755739 282.755368 
L 232.817379 285.938526 
L 232.940668 282.755368 
L 233.12563 282.755368 
L 233.187293 279.572211 
L 233.310634 282.755368 
L 233.742506 282.755368 
L 233.804229 285.938526 
L 233.927697 279.572211 
L 234.051196 282.755368 
L 234.112958 279.572211 
L 234.236509 285.938526 
L 234.360097 282.755368 
L 234.607391 282.755368 
L 234.66924 279.572211 
L 234.792973 282.755368 
L 234.916751 282.755368 
L 234.978658 279.572211 
L 235.102509 282.755368 
L 235.288381 282.755368 
L 235.412363 279.572211 
L 235.474375 282.755368 
L 235.598441 279.572211 
L 235.722566 279.572211 
L 235.846752 282.755368 
L 235.971 279.572211 
L 236.095313 282.755368 
L 236.178329 282.755368 
L 236.226541 276.389053 
L 236.258714 282.755368 
L 236.388487 285.938526 
L 236.421085 285.938526 
L 236.486466 289.121684 
L 236.519247 285.938526 
L 236.55209 285.938526 
L 236.684068 289.121684 
L 237.987215 289.121684 
L 238.129728 295.488 
L 238.2373 292.304842 
L 238.381652 295.488 
L 238.490614 292.304842 
L 238.636832 295.488 
L 238.821121 295.488 
L 238.858183 292.304842 
L 238.895312 295.488 
L 239.11953 295.488 
L 239.15714 292.304842 
L 239.19482 295.488 
L 239.652433 295.488 
L 239.768427 292.304842 
L 239.885063 292.304842 
L 239.924086 295.488 
L 239.963181 292.304842 
L 240.278549 292.304842 
L 240.398019 289.121684 
L 240.43799 289.121684 
L 240.478034 292.304842 
L 240.518153 289.121684 
L 243.887577 289.121684 
L 243.93401 282.755368 
L 243.980528 285.938526 
L 244.120598 289.121684 
L 249.466847 289.121684 
L 249.522935 285.938526 
L 249.635377 289.121684 
L 249.691732 285.938526 
L 249.80471 289.121684 
L 250.260182 289.121684 
L 250.317516 285.938526 
L 250.374939 289.121684 
L 250.490052 285.938526 
L 250.547742 285.938526 
L 250.60552 289.121684 
L 250.721342 285.938526 
L 250.95405 285.938526 
L 251.070934 289.121684 
L 251.188173 285.938526 
L 251.246924 285.938526 
L 251.305764 289.121684 
L 251.364692 285.938526 
L 251.423708 289.121684 
L 251.601285 282.755368 
L 251.779653 289.121684 
L 251.839285 285.938526 
L 251.899005 289.121684 
L 252.018708 285.938526 
L 252.078691 289.121684 
L 252.198919 285.938526 
L 252.561703 285.938526 
L 252.622472 289.121684 
L 252.805304 282.755368 
L 252.927626 285.938526 
L 253.111761 285.938526 
L 253.173313 282.755368 
L 253.296677 285.938526 
L 253.358489 282.755368 
L 253.544444 289.121684 
L 253.668846 285.938526 
L 253.731176 285.938526 
L 253.793592 282.755368 
L 253.918683 285.938526 
L 253.981358 282.755368 
L 254.044119 285.938526 
L 254.106965 282.755368 
L 254.232916 285.938526 
L 254.29602 282.755368 
L 254.35921 285.938526 
L 254.485847 282.755368 
L 254.676443 282.755368 
L 254.803935 285.938526 
L 255.446502 285.938526 
L 255.511226 282.755368 
L 255.576035 285.938526 
L 255.705906 282.755368 
L 255.770969 282.755368 
L 255.901347 285.938526 
L 256.097549 285.938526 
L 256.228772 282.755368 
L 256.360331 285.938526 
L 256.558301 285.938526 
L 256.624349 282.755368 
L 256.756373 285.938526 
L 256.822349 282.755368 
L 256.888303 285.938526 
L 256.954233 282.755368 
L 257.086029 285.938526 
L 257.151894 282.755368 
L 257.217739 285.938526 
L 257.283563 282.755368 
L 257.349367 285.938526 
L 257.415152 282.755368 
L 257.480917 285.938526 
L 257.546663 282.755368 
L 257.612391 285.938526 
L 257.678101 282.755368 
L 257.809468 285.938526 
L 257.875126 282.755368 
L 258.006393 285.938526 
L 258.072003 285.938526 
L 258.203178 282.755368 
L 258.268744 282.755368 
L 258.334295 285.938526 
L 258.465357 279.572211 
L 258.530868 285.938526 
L 258.596367 282.755368 
L 258.661854 285.938526 
L 258.792792 282.755368 
L 259.185352 282.755368 
L 259.250746 285.938526 
L 259.381508 282.755368 
L 259.446877 285.938526 
L 259.577592 282.755368 
L 259.708281 282.755368 
L 259.773616 285.938526 
L 259.90427 282.755368 
L 259.969589 282.755368 
L 260.034903 285.938526 
L 260.165519 282.755368 
L 260.306334 285.938526 
L 260.398922 266.839579 
L 260.533572 285.938526 
L 260.567473 285.938526 
L 260.703736 289.121684 
L 262.955078 289.121684 
L 263.070955 295.488 
L 263.187504 292.304842 
L 263.226503 295.488 
L 263.265578 292.304842 
L 263.304728 292.304842 
L 263.422632 295.488 
L 263.54122 292.304842 
L 263.660497 295.488 
L 263.740399 295.488 
L 263.780466 292.304842 
L 263.82061 295.488 
L 264.063112 295.488 
L 264.103803 292.304842 
L 264.144573 295.488 
L 264.390853 295.488 
L 264.515068 292.304842 
L 264.556634 295.488 
L 264.59828 292.304842 
L 265.061749 292.304842 
L 265.189872 289.121684 
L 270.759731 289.121684 
L 270.813357 285.938526 
L 270.867086 289.121684 
L 271.907628 289.121684 
L 271.963442 285.938526 
L 272.075387 289.121684 
L 272.244102 289.121684 
L 272.300553 285.938526 
L 272.413778 289.121684 
L 272.641515 289.121684 
L 272.698719 285.938526 
L 272.813451 289.121684 
L 272.87098 285.938526 
L 272.928617 289.121684 
L 272.986363 282.755368 
L 273.044217 285.938526 
L 273.160251 285.938526 
L 273.276723 289.121684 
L 273.335123 285.938526 
L 273.45225 289.121684 
L 273.510977 285.938526 
L 273.628759 289.121684 
L 273.746977 285.938526 
L 273.86563 289.121684 
L 274.708371 289.121684 
L 274.830496 285.938526 
L 274.891721 289.121684 
L 274.953053 285.938526 
L 275.014493 289.121684 
L 275.076041 285.938526 
L 275.137696 289.121684 
L 275.199459 285.938526 
L 275.26133 289.121684 
L 275.323308 285.938526 
L 275.447586 289.121684 
L 275.509885 285.938526 
L 275.634806 289.121684 
L 275.885929 289.121684 
L 276.012131 285.938526 
L 276.138757 285.938526 
L 276.265809 289.121684 
L 276.329493 285.938526 
L 276.393284 289.121684 
L 276.45718 285.938526 
L 276.521181 289.121684 
L 276.585288 285.938526 
L 276.713818 289.121684 
L 276.842769 285.938526 
L 276.97214 289.121684 
L 277.101928 285.938526 
L 277.16698 285.938526 
L 277.232135 289.121684 
L 277.362758 285.938526 
L 277.493797 285.938526 
L 277.625251 289.121684 
L 277.691133 289.121684 
L 277.823206 285.938526 
L 279.166411 285.938526 
L 279.234632 282.755368 
L 279.371374 285.938526 
L 279.439895 285.938526 
L 279.508515 282.755368 
L 279.577234 285.938526 
L 279.71497 282.755368 
L 280.26986 282.755368 
L 280.339662 285.938526 
L 280.479559 282.755368 
L 280.619845 285.938526 
L 280.760519 282.755368 
L 281.327066 282.755368 
L 281.398315 285.938526 
L 281.541099 282.755368 
L 281.827805 282.755368 
L 281.899718 285.938526 
L 282.043479 282.755368 
L 282.473407 282.755368 
L 282.616284 285.938526 
L 282.758955 285.938526 
L 282.830214 282.755368 
L 282.972586 285.938526 
L 283.114765 282.755368 
L 283.185784 285.938526 
L 283.327685 282.755368 
L 283.398567 282.755368 
L 283.469406 285.938526 
L 283.610954 282.755368 
L 283.964095 282.755368 
L 284.034604 279.572211 
L 284.175506 282.755368 
L 284.245901 279.572211 
L 284.316259 282.755368 
L 284.361935 276.389053 
L 284.399394 279.572211 
L 284.608159 289.121684 
L 288.189415 289.121684 
L 288.359003 295.488 
L 288.487098 292.304842 
L 288.615974 295.488 
L 288.659107 292.304842 
L 288.702327 295.488 
L 288.832515 295.488 
L 288.876087 292.304842 
L 288.919748 295.488 
L 289.051262 295.488 
L 289.095279 292.304842 
L 289.139384 295.488 
L 289.227864 295.488 
L 289.361259 292.304842 
L 289.585396 292.304842 
L 289.630496 289.121684 
L 289.675689 292.304842 
L 289.857379 292.304842 
L 289.994617 289.121684 
L 290.178906 289.121684 
L 290.225213 292.304842 
L 290.271613 289.121684 
L 295.819694 289.121684 
L 295.877363 285.938526 
L 295.993043 289.121684 
L 296.401549 289.121684 
L 296.519306 285.938526 
L 296.637528 289.121684 
L 297.296132 289.121684 
L 297.417413 285.938526 
L 297.600227 285.938526 
L 297.722701 289.121684 
L 297.845653 285.938526 
L 298.84669 285.938526 
L 298.910292 282.755368 
L 299.037865 285.938526 
L 299.101836 285.938526 
L 299.165931 282.755368 
L 299.294492 285.938526 
L 299.358959 282.755368 
L 299.488265 285.938526 
L 299.879175 285.938526 
L 299.944766 282.755368 
L 300.076323 285.938526 
L 300.14229 282.755368 
L 300.274604 285.938526 
L 300.340951 285.938526 
L 300.407424 282.755368 
L 300.540751 285.938526 
L 300.808931 285.938526 
L 300.943787 282.755368 
L 301.011408 285.938526 
L 301.079156 282.755368 
L 301.215038 285.938526 
L 301.283173 282.755368 
L 301.419828 285.938526 
L 301.557 282.755368 
L 301.62578 285.938526 
L 301.76373 279.572211 
L 302.041182 289.121684 
L 302.180687 285.938526 
L 302.250634 289.121684 
L 302.320709 282.755368 
L 302.390913 285.938526 
L 302.461246 289.121684 
L 302.531707 285.938526 
L 302.602295 289.121684 
L 302.743856 285.938526 
L 302.885926 289.121684 
L 303.028502 285.938526 
L 303.967476 285.938526 
L 304.040573 282.755368 
L 304.187134 285.938526 
L 304.260598 285.938526 
L 304.334183 282.755368 
L 304.40789 285.938526 
L 304.481718 282.755368 
L 304.629737 285.938526 
L 304.703928 282.755368 
L 304.852668 285.938526 
L 305.076674 285.938526 
L 305.226605 282.755368 
L 305.377007 285.938526 
L 305.52788 282.755368 
L 305.679219 285.938526 
L 306.059594 285.938526 
L 306.212549 282.755368 
L 306.289197 285.938526 
L 306.442835 282.755368 
L 306.674138 282.755368 
L 306.751464 285.938526 
L 306.828902 282.755368 
L 306.906451 285.938526 
L 307.061882 282.755368 
L 307.295857 282.755368 
L 307.374068 285.938526 
L 307.530819 282.755368 
L 308.39634 282.755368 
L 308.406625 285.938526 
L 308.46464 276.389053 
L 308.499854 282.755368 
L 308.571679 282.755368 
L 308.752399 289.121684 
L 312.886649 289.121684 
L 312.931741 295.488 
L 312.976928 292.304842 
L 313.022212 289.121684 
L 313.15864 295.488 
L 313.295939 292.304842 
L 313.434116 295.488 
L 313.573177 292.304842 
L 313.713126 295.488 
L 313.948367 295.488 
L 313.995716 292.304842 
L 314.043165 295.488 
L 314.090716 295.488 
L 314.233976 292.304842 
L 314.718162 292.304842 
L 314.865437 289.121684 
L 321.464564 289.121684 
L 321.527714 285.938526 
L 321.654404 289.121684 
L 321.845412 289.121684 
L 321.973402 285.938526 
L 322.101914 285.938526 
L 322.166366 289.121684 
L 322.23095 285.938526 
L 322.295665 289.121684 
L 322.360512 285.938526 
L 322.425491 289.121684 
L 322.490601 285.938526 
L 322.555844 289.121684 
L 322.686727 285.938526 
L 322.950085 285.938526 
L 323.016257 289.121684 
L 323.149003 285.938526 
L 324.024967 285.938526 
L 324.093297 282.755368 
L 324.230366 285.938526 
L 324.367981 285.938526 
L 324.436994 282.755368 
L 324.575431 285.938526 
L 324.853955 285.938526 
L 324.923931 282.755368 
L 324.994045 285.938526 
L 325.064297 282.755368 
L 325.205218 285.938526 
L 325.275887 285.938526 
L 325.417641 282.755368 
L 325.559952 285.938526 
L 326.571843 285.938526 
L 326.718657 282.755368 
L 326.86604 285.938526 
L 327.458543 285.938526 
L 327.532621 282.755368 
L 327.680769 285.938526 
L 327.754839 285.938526 
L 327.828907 282.755368 
L 327.902974 285.938526 
L 327.97704 282.755368 
L 328.051105 285.938526 
L 328.12517 282.755368 
L 328.199235 285.938526 
L 328.347366 282.755368 
L 329.014051 282.755368 
L 329.08823 285.938526 
L 329.236431 282.755368 
L 329.310539 285.938526 
L 329.458772 282.755368 
L 329.532898 282.755368 
L 329.60703 285.938526 
L 329.681169 282.755368 
L 329.755316 285.938526 
L 329.829471 282.755368 
L 329.903633 285.938526 
L 330.051983 282.755368 
L 330.200369 282.755368 
L 330.280588 279.572211 
L 330.522101 285.938526 
L 330.602903 282.755368 
L 330.764951 285.938526 
L 330.927583 285.938526 
L 331.009118 282.755368 
L 331.17262 285.938526 
L 331.336697 282.755368 
L 331.501345 282.755368 
L 331.666559 285.938526 
L 331.749377 282.755368 
L 331.832335 285.938526 
L 331.998668 282.755368 
L 332.082042 282.755368 
L 332.165555 285.938526 
L 332.249204 282.755368 
L 332.33299 285.938526 
L 332.412064 279.572211 
L 332.448579 282.755368 
L 332.595882 285.938526 
L 332.632917 285.938526 
L 332.744516 289.121684 
L 338.354251 289.121684 
L 338.503651 295.488 
L 338.654052 292.304842 
L 338.70441 292.304842 
L 338.856155 295.488 
L 339.008918 295.488 
L 339.060065 292.304842 
L 339.111327 295.488 
L 339.162703 295.488 
L 339.317519 292.304842 
L 339.369355 292.304842 
L 339.421306 289.121684 
L 339.473373 292.304842 
L 339.735452 292.304842 
L 339.894106 289.121684 
L 345.11348 289.121684 
L 345.242854 285.938526 
L 345.372787 289.121684 
L 345.437964 289.121684 
L 345.503282 285.938526 
L 345.63434 289.121684 
L 345.831987 289.121684 
L 345.898152 285.938526 
L 346.03091 289.121684 
L 346.298136 289.121684 
L 346.3653 285.938526 
L 346.500059 289.121684 
L 346.635393 285.938526 
L 346.771304 289.121684 
L 346.907794 285.938526 
L 347.044864 285.938526 
L 347.113617 289.121684 
L 347.251561 285.938526 
L 348.376254 285.938526 
L 348.447806 282.755368 
L 348.591356 285.938526 
L 349.687131 285.938526 
L 349.761392 282.755368 
L 349.91037 285.938526 
L 350.059958 282.755368 
L 350.210156 285.938526 
L 350.285485 282.755368 
L 350.360967 285.938526 
L 350.436602 282.755368 
L 350.512391 285.938526 
L 350.588333 282.755368 
L 350.664429 285.938526 
L 350.817083 282.755368 
L 351.046978 282.755368 
L 351.123606 285.938526 
L 351.276784 282.755368 
L 351.429861 282.755368 
L 351.58284 285.938526 
L 351.735726 282.755368 
L 351.96489 282.755368 
L 352.117561 285.938526 
L 352.270152 282.755368 
L 352.346419 282.755368 
L 352.422668 285.938526 
L 352.575112 282.755368 
L 352.651308 285.938526 
L 352.803651 282.755368 
L 353.640518 282.755368 
L 353.716524 285.938526 
L 353.868504 282.755368 
L 353.94448 285.938526 
L 354.096405 282.755368 
L 354.248297 285.938526 
L 354.400159 282.755368 
L 354.47608 285.938526 
L 354.627903 282.755368 
L 354.703807 285.938526 
L 354.779705 282.755368 
L 354.855599 285.938526 
L 354.931489 282.755368 
L 355.083258 285.938526 
L 355.235014 282.755368 
L 355.993723 282.755368 
L 356.069596 285.938526 
L 356.14547 282.755368 
L 356.221348 285.938526 
L 356.373857 276.389053 
L 356.524255 285.938526 
L 356.562116 285.938526 
L 356.676221 289.121684 
L 358.996299 289.121684 
L 359.083229 285.938526 
L 359.214361 289.121684 
L 363.76114 289.121684 
L 363.924719 295.488 
L 364.089443 292.304842 
L 364.144607 292.304842 
L 364.31087 295.488 
L 364.422358 292.304842 
L 364.816674 292.304842 
L 364.873531 289.121684 
L 364.930519 292.304842 
L 364.987641 289.121684 
L 365.044895 292.304842 
L 365.102283 289.121684 
L 365.159804 292.304842 
L 365.275248 289.121684 
L 370.012797 289.121684 
L 370.081613 285.938526 
L 370.219713 289.121684 
L 370.919605 289.121684 
L 371.061475 285.938526 
L 372.589768 285.938526 
L 372.664324 282.755368 
L 372.813925 285.938526 
L 373.190796 285.938526 
L 373.266664 282.755368 
L 373.418894 285.938526 
L 374.977766 285.938526 
L 375.057468 282.755368 
L 375.217379 285.938526 
L 375.458442 285.938526 
L 375.619228 282.755368 
L 375.779795 285.938526 
L 376.1003 285.938526 
L 376.1803 282.755368 
L 376.26025 285.938526 
L 376.420006 282.755368 
L 376.579573 285.938526 
L 376.659288 282.755368 
L 376.738957 285.938526 
L 376.898165 282.755368 
L 376.977704 282.755368 
L 377.057201 285.938526 
L 377.136656 282.755368 
L 377.295444 285.938526 
L 377.691732 285.938526 
L 377.849988 282.755368 
L 378.008103 282.755368 
L 378.08711 285.938526 
L 378.245023 282.755368 
L 378.639252 282.755368 
L 378.796735 285.938526 
L 378.875434 282.755368 
L 378.954105 285.938526 
L 379.032749 282.755368 
L 379.111367 285.938526 
L 379.189959 282.755368 
L 379.268525 285.938526 
L 379.347067 282.755368 
L 379.425584 285.938526 
L 379.582548 282.755368 
L 379.660995 285.938526 
L 379.817824 282.755368 
L 379.896206 282.755368 
L 379.974568 285.938526 
L 380.05291 282.755368 
L 380.131232 285.938526 
L 380.209534 282.755368 
L 380.279446 273.205895 
L 380.319171 279.572211 
L 380.473214 285.938526 
L 380.511971 285.938526 
L 380.628791 289.121684 
L 385.62556 289.121684 
L 385.778336 295.488 
L 385.932209 292.304842 
L 386.08719 295.488 
L 386.243286 292.304842 
L 386.611899 292.304842 
L 386.771779 289.121684 
L 386.932814 292.304842 
L 387.095014 289.121684 
L 387.149341 292.304842 
L 387.203799 289.121684 
L 387.811564 289.121684 
L 387.923807 285.938526 
L 388.036588 289.121684 
L 389.674164 289.121684 
L 389.795432 292.304842 
L 390.162776 292.304842 
L 390.22452 289.121684 
L 390.286414 292.304842 
L 390.348457 289.121684 
L 390.41065 292.304842 
L 390.472994 289.121684 
L 390.535489 292.304842 
L 390.660933 289.121684 
L 395.602625 289.121684 
L 395.752318 285.938526 
L 395.827428 285.938526 
L 395.902713 289.121684 
L 396.053811 285.938526 
L 397.44569 285.938526 
L 397.524721 282.755368 
L 397.683326 285.938526 
L 398.487273 285.938526 
L 398.487273 285.938526 
" style="fill:none;stroke:#1f77b4;stroke-linecap:square;stroke-width:1.5;"/>
   </g>
   <g id="patch_3">
    <path d="M 57.6 307.584 
L 57.6 41.472 
" style="fill:none;stroke:#000000;stroke-linecap:square;stroke-linejoin:miter;stroke-width:0.8;"/>
   </g>
   <g id="patch_4">
    <path d="M 414.72 307.584 
L 414.72 41.472 
" style="fill:none;stroke:#000000;stroke-linecap:square;stroke-linejoin:miter;stroke-width:0.8;"/>
   </g>
   <g id="patch_5">
    <path d="M 57.6 307.584 
L 414.72 307.584 
" style="fill:none;stroke:#000000;stroke-linecap:square;stroke-linejoin:miter;stroke-width:0.8;"/>
   </g>
   <g id="patch_6">
    <path d="M 57.6 41.472 
L 414.72 41.472 
" style="fill:none;stroke:#000000;stroke-linecap:square;stroke-linejoin:miter;stroke-width:0.8;"/>
   </g>
  </g>
 </g>
 <defs>
  <clipPath id="p399d47e2fa">
   <rect height="266.112" width="357.12" x="57.6" y="41.472"/>
  </clipPath>
 </defs>
</svg>
