<?xml version="1.0" encoding="utf-8" standalone="no"?>
<!DOCTYPE svg PUBLIC "-//W3C//DTD SVG 1.1//EN"
  "http://www.w3.org/Graphics/SVG/1.1/DTD/svg11.dtd">
<!-- Created with matplotlib (https://matplotlib.org/) -->
<svg height="345.6pt" version="1.1" viewBox="0 0 460.8 345.6" width="460.8pt" xmlns="http://www.w3.org/2000/svg" xmlns:xlink="http://www.w3.org/1999/xlink">
 <metadata>
  <rdf:RDF xmlns:cc="http://creativecommons.org/ns#" xmlns:dc="http://purl.org/dc/elements/1.1/" xmlns:rdf="http://www.w3.org/1999/02/22-rdf-syntax-ns#">
   <cc:Work>
    <dc:type rdf:resource="http://purl.org/dc/dcmitype/StillImage"/>
    <dc:date>2022-10-17T23:02:37.970577</dc:date>
    <dc:format>image/svg+xml</dc:format>
    <dc:creator>
     <cc:Agent>
      <dc:title>Matplotlib v3.3.4, https://matplotlib.org/</dc:title>
     </cc:Agent>
    </dc:creator>
   </cc:Work>
  </rdf:RDF>
 </metadata>
 <defs>
  <style type="text/css">*{stroke-linecap:butt;stroke-linejoin:round;}</style>
 </defs>
 <g id="figure_1">
  <g id="patch_1">
   <path d="M 0 345.6 
L 460.8 345.6 
L 460.8 0 
L 0 0 
z
" style="fill:#ffffff;"/>
  </g>
  <g id="axes_1">
   <g id="patch_2">
    <path d="M 57.6 307.584 
L 414.72 307.584 
L 414.72 41.472 
L 57.6 41.472 
z
" style="fill:#ffffff;"/>
   </g>
   <g id="matplotlib.axis_1">
    <g id="xtick_1">
     <g id="line2d_1">
      <defs>
       <path d="M 0 0 
L 0 3.5 
" id="mdd62bbc2b7" style="stroke:#000000;stroke-width:0.8;"/>
      </defs>
      <g>
       <use style="stroke:#000000;stroke-width:0.8;" x="73.813939" xlink:href="#mdd62bbc2b7" y="307.584"/>
      </g>
     </g>
     <g id="text_1">
      <!-- 0.0 -->
      <g transform="translate(65.862377 322.182437)scale(0.1 -0.1)">
       <defs>
        <path d="M 31.78125 66.40625 
Q 24.171875 66.40625 20.328125 58.90625 
Q 16.5 51.421875 16.5 36.375 
Q 16.5 21.390625 20.328125 13.890625 
Q 24.171875 6.390625 31.78125 6.390625 
Q 39.453125 6.390625 43.28125 13.890625 
Q 47.125 21.390625 47.125 36.375 
Q 47.125 51.421875 43.28125 58.90625 
Q 39.453125 66.40625 31.78125 66.40625 
z
M 31.78125 74.21875 
Q 44.046875 74.21875 50.515625 64.515625 
Q 56.984375 54.828125 56.984375 36.375 
Q 56.984375 17.96875 50.515625 8.265625 
Q 44.046875 -1.421875 31.78125 -1.421875 
Q 19.53125 -1.421875 13.0625 8.265625 
Q 6.59375 17.96875 6.59375 36.375 
Q 6.59375 54.828125 13.0625 64.515625 
Q 19.53125 74.21875 31.78125 74.21875 
z
" id="DejaVuSans-48"/>
        <path d="M 10.6875 12.40625 
L 21 12.40625 
L 21 0 
L 10.6875 0 
z
" id="DejaVuSans-46"/>
       </defs>
       <use xlink:href="#DejaVuSans-48"/>
       <use x="63.623047" xlink:href="#DejaVuSans-46"/>
       <use x="95.410156" xlink:href="#DejaVuSans-48"/>
      </g>
     </g>
    </g>
    <g id="xtick_2">
     <g id="line2d_2">
      <g>
       <use style="stroke:#000000;stroke-width:0.8;" x="114.396136" xlink:href="#mdd62bbc2b7" y="307.584"/>
      </g>
     </g>
     <g id="text_2">
      <!-- 2.5 -->
      <g transform="translate(106.444573 322.182437)scale(0.1 -0.1)">
       <defs>
        <path d="M 19.1875 8.296875 
L 53.609375 8.296875 
L 53.609375 0 
L 7.328125 0 
L 7.328125 8.296875 
Q 12.9375 14.109375 22.625 23.890625 
Q 32.328125 33.6875 34.8125 36.53125 
Q 39.546875 41.84375 41.421875 45.53125 
Q 43.3125 49.21875 43.3125 52.78125 
Q 43.3125 58.59375 39.234375 62.25 
Q 35.15625 65.921875 28.609375 65.921875 
Q 23.96875 65.921875 18.8125 64.3125 
Q 13.671875 62.703125 7.8125 59.421875 
L 7.8125 69.390625 
Q 13.765625 71.78125 18.9375 73 
Q 24.125 74.21875 28.421875 74.21875 
Q 39.75 74.21875 46.484375 68.546875 
Q 53.21875 62.890625 53.21875 53.421875 
Q 53.21875 48.921875 51.53125 44.890625 
Q 49.859375 40.875 45.40625 35.40625 
Q 44.1875 33.984375 37.640625 27.21875 
Q 31.109375 20.453125 19.1875 8.296875 
z
" id="DejaVuSans-50"/>
        <path d="M 10.796875 72.90625 
L 49.515625 72.90625 
L 49.515625 64.59375 
L 19.828125 64.59375 
L 19.828125 46.734375 
Q 21.96875 47.46875 24.109375 47.828125 
Q 26.265625 48.1875 28.421875 48.1875 
Q 40.625 48.1875 47.75 41.5 
Q 54.890625 34.8125 54.890625 23.390625 
Q 54.890625 11.625 47.5625 5.09375 
Q 40.234375 -1.421875 26.90625 -1.421875 
Q 22.3125 -1.421875 17.546875 -0.640625 
Q 12.796875 0.140625 7.71875 1.703125 
L 7.71875 11.625 
Q 12.109375 9.234375 16.796875 8.0625 
Q 21.484375 6.890625 26.703125 6.890625 
Q 35.15625 6.890625 40.078125 11.328125 
Q 45.015625 15.765625 45.015625 23.390625 
Q 45.015625 31 40.078125 35.4375 
Q 35.15625 39.890625 26.703125 39.890625 
Q 22.75 39.890625 18.8125 39.015625 
Q 14.890625 38.140625 10.796875 36.28125 
z
" id="DejaVuSans-53"/>
       </defs>
       <use xlink:href="#DejaVuSans-50"/>
       <use x="63.623047" xlink:href="#DejaVuSans-46"/>
       <use x="95.410156" xlink:href="#DejaVuSans-53"/>
      </g>
     </g>
    </g>
    <g id="xtick_3">
     <g id="line2d_3">
      <g>
       <use style="stroke:#000000;stroke-width:0.8;" x="154.978332" xlink:href="#mdd62bbc2b7" y="307.584"/>
      </g>
     </g>
     <g id="text_3">
      <!-- 5.0 -->
      <g transform="translate(147.026769 322.182437)scale(0.1 -0.1)">
       <use xlink:href="#DejaVuSans-53"/>
       <use x="63.623047" xlink:href="#DejaVuSans-46"/>
       <use x="95.410156" xlink:href="#DejaVuSans-48"/>
      </g>
     </g>
    </g>
    <g id="xtick_4">
     <g id="line2d_4">
      <g>
       <use style="stroke:#000000;stroke-width:0.8;" x="195.560528" xlink:href="#mdd62bbc2b7" y="307.584"/>
      </g>
     </g>
     <g id="text_4">
      <!-- 7.5 -->
      <g transform="translate(187.608966 322.182437)scale(0.1 -0.1)">
       <defs>
        <path d="M 8.203125 72.90625 
L 55.078125 72.90625 
L 55.078125 68.703125 
L 28.609375 0 
L 18.3125 0 
L 43.21875 64.59375 
L 8.203125 64.59375 
z
" id="DejaVuSans-55"/>
       </defs>
       <use xlink:href="#DejaVuSans-55"/>
       <use x="63.623047" xlink:href="#DejaVuSans-46"/>
       <use x="95.410156" xlink:href="#DejaVuSans-53"/>
      </g>
     </g>
    </g>
    <g id="xtick_5">
     <g id="line2d_5">
      <g>
       <use style="stroke:#000000;stroke-width:0.8;" x="236.142725" xlink:href="#mdd62bbc2b7" y="307.584"/>
      </g>
     </g>
     <g id="text_5">
      <!-- 10.0 -->
      <g transform="translate(225.009912 322.182437)scale(0.1 -0.1)">
       <defs>
        <path d="M 12.40625 8.296875 
L 28.515625 8.296875 
L 28.515625 63.921875 
L 10.984375 60.40625 
L 10.984375 69.390625 
L 28.421875 72.90625 
L 38.28125 72.90625 
L 38.28125 8.296875 
L 54.390625 8.296875 
L 54.390625 0 
L 12.40625 0 
z
" id="DejaVuSans-49"/>
       </defs>
       <use xlink:href="#DejaVuSans-49"/>
       <use x="63.623047" xlink:href="#DejaVuSans-48"/>
       <use x="127.246094" xlink:href="#DejaVuSans-46"/>
       <use x="159.033203" xlink:href="#DejaVuSans-48"/>
      </g>
     </g>
    </g>
    <g id="xtick_6">
     <g id="line2d_6">
      <g>
       <use style="stroke:#000000;stroke-width:0.8;" x="276.724921" xlink:href="#mdd62bbc2b7" y="307.584"/>
      </g>
     </g>
     <g id="text_6">
      <!-- 12.5 -->
      <g transform="translate(265.592108 322.182437)scale(0.1 -0.1)">
       <use xlink:href="#DejaVuSans-49"/>
       <use x="63.623047" xlink:href="#DejaVuSans-50"/>
       <use x="127.246094" xlink:href="#DejaVuSans-46"/>
       <use x="159.033203" xlink:href="#DejaVuSans-53"/>
      </g>
     </g>
    </g>
    <g id="xtick_7">
     <g id="line2d_7">
      <g>
       <use style="stroke:#000000;stroke-width:0.8;" x="317.307117" xlink:href="#mdd62bbc2b7" y="307.584"/>
      </g>
     </g>
     <g id="text_7">
      <!-- 15.0 -->
      <g transform="translate(306.174305 322.182437)scale(0.1 -0.1)">
       <use xlink:href="#DejaVuSans-49"/>
       <use x="63.623047" xlink:href="#DejaVuSans-53"/>
       <use x="127.246094" xlink:href="#DejaVuSans-46"/>
       <use x="159.033203" xlink:href="#DejaVuSans-48"/>
      </g>
     </g>
    </g>
    <g id="xtick_8">
     <g id="line2d_8">
      <g>
       <use style="stroke:#000000;stroke-width:0.8;" x="357.889314" xlink:href="#mdd62bbc2b7" y="307.584"/>
      </g>
     </g>
     <g id="text_8">
      <!-- 17.5 -->
      <g transform="translate(346.756501 322.182437)scale(0.1 -0.1)">
       <use xlink:href="#DejaVuSans-49"/>
       <use x="63.623047" xlink:href="#DejaVuSans-55"/>
       <use x="127.246094" xlink:href="#DejaVuSans-46"/>
       <use x="159.033203" xlink:href="#DejaVuSans-53"/>
      </g>
     </g>
    </g>
    <g id="xtick_9">
     <g id="line2d_9">
      <g>
       <use style="stroke:#000000;stroke-width:0.8;" x="398.47151" xlink:href="#mdd62bbc2b7" y="307.584"/>
      </g>
     </g>
     <g id="text_9">
      <!-- 20.0 -->
      <g transform="translate(387.338698 322.182437)scale(0.1 -0.1)">
       <use xlink:href="#DejaVuSans-50"/>
       <use x="63.623047" xlink:href="#DejaVuSans-48"/>
       <use x="127.246094" xlink:href="#DejaVuSans-46"/>
       <use x="159.033203" xlink:href="#DejaVuSans-48"/>
      </g>
     </g>
    </g>
    <g id="text_10">
     <!-- time [days] -->
     <g transform="translate(207.570937 335.860562)scale(0.1 -0.1)">
      <defs>
       <path d="M 18.3125 70.21875 
L 18.3125 54.6875 
L 36.8125 54.6875 
L 36.8125 47.703125 
L 18.3125 47.703125 
L 18.3125 18.015625 
Q 18.3125 11.328125 20.140625 9.421875 
Q 21.96875 7.515625 27.59375 7.515625 
L 36.8125 7.515625 
L 36.8125 0 
L 27.59375 0 
Q 17.1875 0 13.234375 3.875 
Q 9.28125 7.765625 9.28125 18.015625 
L 9.28125 47.703125 
L 2.6875 47.703125 
L 2.6875 54.6875 
L 9.28125 54.6875 
L 9.28125 70.21875 
z
" id="DejaVuSans-116"/>
       <path d="M 9.421875 54.6875 
L 18.40625 54.6875 
L 18.40625 0 
L 9.421875 0 
z
M 9.421875 75.984375 
L 18.40625 75.984375 
L 18.40625 64.59375 
L 9.421875 64.59375 
z
" id="DejaVuSans-105"/>
       <path d="M 52 44.1875 
Q 55.375 50.25 60.0625 53.125 
Q 64.75 56 71.09375 56 
Q 79.640625 56 84.28125 50.015625 
Q 88.921875 44.046875 88.921875 33.015625 
L 88.921875 0 
L 79.890625 0 
L 79.890625 32.71875 
Q 79.890625 40.578125 77.09375 44.375 
Q 74.3125 48.1875 68.609375 48.1875 
Q 61.625 48.1875 57.5625 43.546875 
Q 53.515625 38.921875 53.515625 30.90625 
L 53.515625 0 
L 44.484375 0 
L 44.484375 32.71875 
Q 44.484375 40.625 41.703125 44.40625 
Q 38.921875 48.1875 33.109375 48.1875 
Q 26.21875 48.1875 22.15625 43.53125 
Q 18.109375 38.875 18.109375 30.90625 
L 18.109375 0 
L 9.078125 0 
L 9.078125 54.6875 
L 18.109375 54.6875 
L 18.109375 46.1875 
Q 21.1875 51.21875 25.484375 53.609375 
Q 29.78125 56 35.6875 56 
Q 41.65625 56 45.828125 52.96875 
Q 50 49.953125 52 44.1875 
z
" id="DejaVuSans-109"/>
       <path d="M 56.203125 29.59375 
L 56.203125 25.203125 
L 14.890625 25.203125 
Q 15.484375 15.921875 20.484375 11.0625 
Q 25.484375 6.203125 34.421875 6.203125 
Q 39.59375 6.203125 44.453125 7.46875 
Q 49.3125 8.734375 54.109375 11.28125 
L 54.109375 2.78125 
Q 49.265625 0.734375 44.1875 -0.34375 
Q 39.109375 -1.421875 33.890625 -1.421875 
Q 20.796875 -1.421875 13.15625 6.1875 
Q 5.515625 13.8125 5.515625 26.8125 
Q 5.515625 40.234375 12.765625 48.109375 
Q 20.015625 56 32.328125 56 
Q 43.359375 56 49.78125 48.890625 
Q 56.203125 41.796875 56.203125 29.59375 
z
M 47.21875 32.234375 
Q 47.125 39.59375 43.09375 43.984375 
Q 39.0625 48.390625 32.421875 48.390625 
Q 24.90625 48.390625 20.390625 44.140625 
Q 15.875 39.890625 15.1875 32.171875 
z
" id="DejaVuSans-101"/>
       <path id="DejaVuSans-32"/>
       <path d="M 8.59375 75.984375 
L 29.296875 75.984375 
L 29.296875 69 
L 17.578125 69 
L 17.578125 -6.203125 
L 29.296875 -6.203125 
L 29.296875 -13.1875 
L 8.59375 -13.1875 
z
" id="DejaVuSans-91"/>
       <path d="M 45.40625 46.390625 
L 45.40625 75.984375 
L 54.390625 75.984375 
L 54.390625 0 
L 45.40625 0 
L 45.40625 8.203125 
Q 42.578125 3.328125 38.25 0.953125 
Q 33.9375 -1.421875 27.875 -1.421875 
Q 17.96875 -1.421875 11.734375 6.484375 
Q 5.515625 14.40625 5.515625 27.296875 
Q 5.515625 40.1875 11.734375 48.09375 
Q 17.96875 56 27.875 56 
Q 33.9375 56 38.25 53.625 
Q 42.578125 51.265625 45.40625 46.390625 
z
M 14.796875 27.296875 
Q 14.796875 17.390625 18.875 11.75 
Q 22.953125 6.109375 30.078125 6.109375 
Q 37.203125 6.109375 41.296875 11.75 
Q 45.40625 17.390625 45.40625 27.296875 
Q 45.40625 37.203125 41.296875 42.84375 
Q 37.203125 48.484375 30.078125 48.484375 
Q 22.953125 48.484375 18.875 42.84375 
Q 14.796875 37.203125 14.796875 27.296875 
z
" id="DejaVuSans-100"/>
       <path d="M 34.28125 27.484375 
Q 23.390625 27.484375 19.1875 25 
Q 14.984375 22.515625 14.984375 16.5 
Q 14.984375 11.71875 18.140625 8.90625 
Q 21.296875 6.109375 26.703125 6.109375 
Q 34.1875 6.109375 38.703125 11.40625 
Q 43.21875 16.703125 43.21875 25.484375 
L 43.21875 27.484375 
z
M 52.203125 31.203125 
L 52.203125 0 
L 43.21875 0 
L 43.21875 8.296875 
Q 40.140625 3.328125 35.546875 0.953125 
Q 30.953125 -1.421875 24.3125 -1.421875 
Q 15.921875 -1.421875 10.953125 3.296875 
Q 6 8.015625 6 15.921875 
Q 6 25.140625 12.171875 29.828125 
Q 18.359375 34.515625 30.609375 34.515625 
L 43.21875 34.515625 
L 43.21875 35.40625 
Q 43.21875 41.609375 39.140625 45 
Q 35.0625 48.390625 27.6875 48.390625 
Q 23 48.390625 18.546875 47.265625 
Q 14.109375 46.140625 10.015625 43.890625 
L 10.015625 52.203125 
Q 14.9375 54.109375 19.578125 55.046875 
Q 24.21875 56 28.609375 56 
Q 40.484375 56 46.34375 49.84375 
Q 52.203125 43.703125 52.203125 31.203125 
z
" id="DejaVuSans-97"/>
       <path d="M 32.171875 -5.078125 
Q 28.375 -14.84375 24.75 -17.8125 
Q 21.140625 -20.796875 15.09375 -20.796875 
L 7.90625 -20.796875 
L 7.90625 -13.28125 
L 13.1875 -13.28125 
Q 16.890625 -13.28125 18.9375 -11.515625 
Q 21 -9.765625 23.484375 -3.21875 
L 25.09375 0.875 
L 2.984375 54.6875 
L 12.5 54.6875 
L 29.59375 11.921875 
L 46.6875 54.6875 
L 56.203125 54.6875 
z
" id="DejaVuSans-121"/>
       <path d="M 44.28125 53.078125 
L 44.28125 44.578125 
Q 40.484375 46.53125 36.375 47.5 
Q 32.28125 48.484375 27.875 48.484375 
Q 21.1875 48.484375 17.84375 46.4375 
Q 14.5 44.390625 14.5 40.28125 
Q 14.5 37.15625 16.890625 35.375 
Q 19.28125 33.59375 26.515625 31.984375 
L 29.59375 31.296875 
Q 39.15625 29.25 43.1875 25.515625 
Q 47.21875 21.78125 47.21875 15.09375 
Q 47.21875 7.46875 41.1875 3.015625 
Q 35.15625 -1.421875 24.609375 -1.421875 
Q 20.21875 -1.421875 15.453125 -0.5625 
Q 10.6875 0.296875 5.421875 2 
L 5.421875 11.28125 
Q 10.40625 8.6875 15.234375 7.390625 
Q 20.0625 6.109375 24.8125 6.109375 
Q 31.15625 6.109375 34.5625 8.28125 
Q 37.984375 10.453125 37.984375 14.40625 
Q 37.984375 18.0625 35.515625 20.015625 
Q 33.0625 21.96875 24.703125 23.78125 
L 21.578125 24.515625 
Q 13.234375 26.265625 9.515625 29.90625 
Q 5.8125 33.546875 5.8125 39.890625 
Q 5.8125 47.609375 11.28125 51.796875 
Q 16.75 56 26.8125 56 
Q 31.78125 56 36.171875 55.265625 
Q 40.578125 54.546875 44.28125 53.078125 
z
" id="DejaVuSans-115"/>
       <path d="M 30.421875 75.984375 
L 30.421875 -13.1875 
L 9.71875 -13.1875 
L 9.71875 -6.203125 
L 21.390625 -6.203125 
L 21.390625 69 
L 9.71875 69 
L 9.71875 75.984375 
z
" id="DejaVuSans-93"/>
      </defs>
      <use xlink:href="#DejaVuSans-116"/>
      <use x="39.208984" xlink:href="#DejaVuSans-105"/>
      <use x="66.992188" xlink:href="#DejaVuSans-109"/>
      <use x="164.404297" xlink:href="#DejaVuSans-101"/>
      <use x="225.927734" xlink:href="#DejaVuSans-32"/>
      <use x="257.714844" xlink:href="#DejaVuSans-91"/>
      <use x="296.728516" xlink:href="#DejaVuSans-100"/>
      <use x="360.205078" xlink:href="#DejaVuSans-97"/>
      <use x="421.484375" xlink:href="#DejaVuSans-121"/>
      <use x="480.664062" xlink:href="#DejaVuSans-115"/>
      <use x="532.763672" xlink:href="#DejaVuSans-93"/>
     </g>
    </g>
   </g>
   <g id="matplotlib.axis_2">
    <g id="ytick_1">
     <g id="line2d_10">
      <defs>
       <path d="M 0 0 
L -3.5 0 
" id="mb7c3c11c15" style="stroke:#000000;stroke-width:0.8;"/>
      </defs>
      <g>
       <use style="stroke:#000000;stroke-width:0.8;" x="57.6" xlink:href="#mb7c3c11c15" y="295.488"/>
      </g>
     </g>
     <g id="text_11">
      <!-- 0.0 -->
      <g transform="translate(34.696875 299.287219)scale(0.1 -0.1)">
       <use xlink:href="#DejaVuSans-48"/>
       <use x="63.623047" xlink:href="#DejaVuSans-46"/>
       <use x="95.410156" xlink:href="#DejaVuSans-48"/>
      </g>
     </g>
    </g>
    <g id="ytick_2">
     <g id="line2d_11">
      <g>
       <use style="stroke:#000000;stroke-width:0.8;" x="57.6" xlink:href="#mb7c3c11c15" y="240.900882"/>
      </g>
     </g>
     <g id="text_12">
      <!-- 0.2 -->
      <g transform="translate(34.696875 244.7001)scale(0.1 -0.1)">
       <use xlink:href="#DejaVuSans-48"/>
       <use x="63.623047" xlink:href="#DejaVuSans-46"/>
       <use x="95.410156" xlink:href="#DejaVuSans-50"/>
      </g>
     </g>
    </g>
    <g id="ytick_3">
     <g id="line2d_12">
      <g>
       <use style="stroke:#000000;stroke-width:0.8;" x="57.6" xlink:href="#mb7c3c11c15" y="186.313763"/>
      </g>
     </g>
     <g id="text_13">
      <!-- 0.4 -->
      <g transform="translate(34.696875 190.112982)scale(0.1 -0.1)">
       <defs>
        <path d="M 37.796875 64.3125 
L 12.890625 25.390625 
L 37.796875 25.390625 
z
M 35.203125 72.90625 
L 47.609375 72.90625 
L 47.609375 25.390625 
L 58.015625 25.390625 
L 58.015625 17.1875 
L 47.609375 17.1875 
L 47.609375 0 
L 37.796875 0 
L 37.796875 17.1875 
L 4.890625 17.1875 
L 4.890625 26.703125 
z
" id="DejaVuSans-52"/>
       </defs>
       <use xlink:href="#DejaVuSans-48"/>
       <use x="63.623047" xlink:href="#DejaVuSans-46"/>
       <use x="95.410156" xlink:href="#DejaVuSans-52"/>
      </g>
     </g>
    </g>
    <g id="ytick_4">
     <g id="line2d_13">
      <g>
       <use style="stroke:#000000;stroke-width:0.8;" x="57.6" xlink:href="#mb7c3c11c15" y="131.726645"/>
      </g>
     </g>
     <g id="text_14">
      <!-- 0.6 -->
      <g transform="translate(34.696875 135.525864)scale(0.1 -0.1)">
       <defs>
        <path d="M 33.015625 40.375 
Q 26.375 40.375 22.484375 35.828125 
Q 18.609375 31.296875 18.609375 23.390625 
Q 18.609375 15.53125 22.484375 10.953125 
Q 26.375 6.390625 33.015625 6.390625 
Q 39.65625 6.390625 43.53125 10.953125 
Q 47.40625 15.53125 47.40625 23.390625 
Q 47.40625 31.296875 43.53125 35.828125 
Q 39.65625 40.375 33.015625 40.375 
z
M 52.59375 71.296875 
L 52.59375 62.3125 
Q 48.875 64.0625 45.09375 64.984375 
Q 41.3125 65.921875 37.59375 65.921875 
Q 27.828125 65.921875 22.671875 59.328125 
Q 17.53125 52.734375 16.796875 39.40625 
Q 19.671875 43.65625 24.015625 45.921875 
Q 28.375 48.1875 33.59375 48.1875 
Q 44.578125 48.1875 50.953125 41.515625 
Q 57.328125 34.859375 57.328125 23.390625 
Q 57.328125 12.15625 50.6875 5.359375 
Q 44.046875 -1.421875 33.015625 -1.421875 
Q 20.359375 -1.421875 13.671875 8.265625 
Q 6.984375 17.96875 6.984375 36.375 
Q 6.984375 53.65625 15.1875 63.9375 
Q 23.390625 74.21875 37.203125 74.21875 
Q 40.921875 74.21875 44.703125 73.484375 
Q 48.484375 72.75 52.59375 71.296875 
z
" id="DejaVuSans-54"/>
       </defs>
       <use xlink:href="#DejaVuSans-48"/>
       <use x="63.623047" xlink:href="#DejaVuSans-46"/>
       <use x="95.410156" xlink:href="#DejaVuSans-54"/>
      </g>
     </g>
    </g>
    <g id="ytick_5">
     <g id="line2d_14">
      <g>
       <use style="stroke:#000000;stroke-width:0.8;" x="57.6" xlink:href="#mb7c3c11c15" y="77.139527"/>
      </g>
     </g>
     <g id="text_15">
      <!-- 0.8 -->
      <g transform="translate(34.696875 80.938746)scale(0.1 -0.1)">
       <defs>
        <path d="M 31.78125 34.625 
Q 24.75 34.625 20.71875 30.859375 
Q 16.703125 27.09375 16.703125 20.515625 
Q 16.703125 13.921875 20.71875 10.15625 
Q 24.75 6.390625 31.78125 6.390625 
Q 38.8125 6.390625 42.859375 10.171875 
Q 46.921875 13.96875 46.921875 20.515625 
Q 46.921875 27.09375 42.890625 30.859375 
Q 38.875 34.625 31.78125 34.625 
z
M 21.921875 38.8125 
Q 15.578125 40.375 12.03125 44.71875 
Q 8.5 49.078125 8.5 55.328125 
Q 8.5 64.0625 14.71875 69.140625 
Q 20.953125 74.21875 31.78125 74.21875 
Q 42.671875 74.21875 48.875 69.140625 
Q 55.078125 64.0625 55.078125 55.328125 
Q 55.078125 49.078125 51.53125 44.71875 
Q 48 40.375 41.703125 38.8125 
Q 48.828125 37.15625 52.796875 32.3125 
Q 56.78125 27.484375 56.78125 20.515625 
Q 56.78125 9.90625 50.3125 4.234375 
Q 43.84375 -1.421875 31.78125 -1.421875 
Q 19.734375 -1.421875 13.25 4.234375 
Q 6.78125 9.90625 6.78125 20.515625 
Q 6.78125 27.484375 10.78125 32.3125 
Q 14.796875 37.15625 21.921875 38.8125 
z
M 18.3125 54.390625 
Q 18.3125 48.734375 21.84375 45.5625 
Q 25.390625 42.390625 31.78125 42.390625 
Q 38.140625 42.390625 41.71875 45.5625 
Q 45.3125 48.734375 45.3125 54.390625 
Q 45.3125 60.0625 41.71875 63.234375 
Q 38.140625 66.40625 31.78125 66.40625 
Q 25.390625 66.40625 21.84375 63.234375 
Q 18.3125 60.0625 18.3125 54.390625 
z
" id="DejaVuSans-56"/>
       </defs>
       <use xlink:href="#DejaVuSans-48"/>
       <use x="63.623047" xlink:href="#DejaVuSans-46"/>
       <use x="95.410156" xlink:href="#DejaVuSans-56"/>
      </g>
     </g>
    </g>
    <g id="text_16">
     <!-- Oil production[m³] -->
     <g transform="translate(28.617187 220.453781)rotate(-90)scale(0.1 -0.1)">
      <defs>
       <path d="M 39.40625 66.21875 
Q 28.65625 66.21875 22.328125 58.203125 
Q 16.015625 50.203125 16.015625 36.375 
Q 16.015625 22.609375 22.328125 14.59375 
Q 28.65625 6.59375 39.40625 6.59375 
Q 50.140625 6.59375 56.421875 14.59375 
Q 62.703125 22.609375 62.703125 36.375 
Q 62.703125 50.203125 56.421875 58.203125 
Q 50.140625 66.21875 39.40625 66.21875 
z
M 39.40625 74.21875 
Q 54.734375 74.21875 63.90625 63.9375 
Q 73.09375 53.65625 73.09375 36.375 
Q 73.09375 19.140625 63.90625 8.859375 
Q 54.734375 -1.421875 39.40625 -1.421875 
Q 24.03125 -1.421875 14.8125 8.828125 
Q 5.609375 19.09375 5.609375 36.375 
Q 5.609375 53.65625 14.8125 63.9375 
Q 24.03125 74.21875 39.40625 74.21875 
z
" id="DejaVuSans-79"/>
       <path d="M 9.421875 75.984375 
L 18.40625 75.984375 
L 18.40625 0 
L 9.421875 0 
z
" id="DejaVuSans-108"/>
       <path d="M 18.109375 8.203125 
L 18.109375 -20.796875 
L 9.078125 -20.796875 
L 9.078125 54.6875 
L 18.109375 54.6875 
L 18.109375 46.390625 
Q 20.953125 51.265625 25.265625 53.625 
Q 29.59375 56 35.59375 56 
Q 45.5625 56 51.78125 48.09375 
Q 58.015625 40.1875 58.015625 27.296875 
Q 58.015625 14.40625 51.78125 6.484375 
Q 45.5625 -1.421875 35.59375 -1.421875 
Q 29.59375 -1.421875 25.265625 0.953125 
Q 20.953125 3.328125 18.109375 8.203125 
z
M 48.6875 27.296875 
Q 48.6875 37.203125 44.609375 42.84375 
Q 40.53125 48.484375 33.40625 48.484375 
Q 26.265625 48.484375 22.1875 42.84375 
Q 18.109375 37.203125 18.109375 27.296875 
Q 18.109375 17.390625 22.1875 11.75 
Q 26.265625 6.109375 33.40625 6.109375 
Q 40.53125 6.109375 44.609375 11.75 
Q 48.6875 17.390625 48.6875 27.296875 
z
" id="DejaVuSans-112"/>
       <path d="M 41.109375 46.296875 
Q 39.59375 47.171875 37.8125 47.578125 
Q 36.03125 48 33.890625 48 
Q 26.265625 48 22.1875 43.046875 
Q 18.109375 38.09375 18.109375 28.8125 
L 18.109375 0 
L 9.078125 0 
L 9.078125 54.6875 
L 18.109375 54.6875 
L 18.109375 46.1875 
Q 20.953125 51.171875 25.484375 53.578125 
Q 30.03125 56 36.53125 56 
Q 37.453125 56 38.578125 55.875 
Q 39.703125 55.765625 41.0625 55.515625 
z
" id="DejaVuSans-114"/>
       <path d="M 30.609375 48.390625 
Q 23.390625 48.390625 19.1875 42.75 
Q 14.984375 37.109375 14.984375 27.296875 
Q 14.984375 17.484375 19.15625 11.84375 
Q 23.34375 6.203125 30.609375 6.203125 
Q 37.796875 6.203125 41.984375 11.859375 
Q 46.1875 17.53125 46.1875 27.296875 
Q 46.1875 37.015625 41.984375 42.703125 
Q 37.796875 48.390625 30.609375 48.390625 
z
M 30.609375 56 
Q 42.328125 56 49.015625 48.375 
Q 55.71875 40.765625 55.71875 27.296875 
Q 55.71875 13.875 49.015625 6.21875 
Q 42.328125 -1.421875 30.609375 -1.421875 
Q 18.84375 -1.421875 12.171875 6.21875 
Q 5.515625 13.875 5.515625 27.296875 
Q 5.515625 40.765625 12.171875 48.375 
Q 18.84375 56 30.609375 56 
z
" id="DejaVuSans-111"/>
       <path d="M 8.5 21.578125 
L 8.5 54.6875 
L 17.484375 54.6875 
L 17.484375 21.921875 
Q 17.484375 14.15625 20.5 10.265625 
Q 23.53125 6.390625 29.59375 6.390625 
Q 36.859375 6.390625 41.078125 11.03125 
Q 45.3125 15.671875 45.3125 23.6875 
L 45.3125 54.6875 
L 54.296875 54.6875 
L 54.296875 0 
L 45.3125 0 
L 45.3125 8.40625 
Q 42.046875 3.421875 37.71875 1 
Q 33.40625 -1.421875 27.6875 -1.421875 
Q 18.265625 -1.421875 13.375 4.4375 
Q 8.5 10.296875 8.5 21.578125 
z
M 31.109375 56 
z
" id="DejaVuSans-117"/>
       <path d="M 48.78125 52.59375 
L 48.78125 44.1875 
Q 44.96875 46.296875 41.140625 47.34375 
Q 37.3125 48.390625 33.40625 48.390625 
Q 24.65625 48.390625 19.8125 42.84375 
Q 14.984375 37.3125 14.984375 27.296875 
Q 14.984375 17.28125 19.8125 11.734375 
Q 24.65625 6.203125 33.40625 6.203125 
Q 37.3125 6.203125 41.140625 7.25 
Q 44.96875 8.296875 48.78125 10.40625 
L 48.78125 2.09375 
Q 45.015625 0.34375 40.984375 -0.53125 
Q 36.96875 -1.421875 32.421875 -1.421875 
Q 20.0625 -1.421875 12.78125 6.34375 
Q 5.515625 14.109375 5.515625 27.296875 
Q 5.515625 40.671875 12.859375 48.328125 
Q 20.21875 56 33.015625 56 
Q 37.15625 56 41.109375 55.140625 
Q 45.0625 54.296875 48.78125 52.59375 
z
" id="DejaVuSans-99"/>
       <path d="M 54.890625 33.015625 
L 54.890625 0 
L 45.90625 0 
L 45.90625 32.71875 
Q 45.90625 40.484375 42.875 44.328125 
Q 39.84375 48.1875 33.796875 48.1875 
Q 26.515625 48.1875 22.3125 43.546875 
Q 18.109375 38.921875 18.109375 30.90625 
L 18.109375 0 
L 9.078125 0 
L 9.078125 54.6875 
L 18.109375 54.6875 
L 18.109375 46.1875 
Q 21.34375 51.125 25.703125 53.5625 
Q 30.078125 56 35.796875 56 
Q 45.21875 56 50.046875 50.171875 
Q 54.890625 44.34375 54.890625 33.015625 
z
" id="DejaVuSans-110"/>
       <path d="M 25.59375 54.6875 
Q 30.078125 53.8125 32.546875 51.140625 
Q 35.015625 48.484375 35.015625 44.484375 
Q 35.015625 38.421875 30.375 35.15625 
Q 25.734375 31.890625 17.09375 31.890625 
Q 14.3125 31.890625 11.25 32.390625 
Q 8.203125 32.90625 4.78125 33.890625 
L 4.78125 39.796875 
Q 7.328125 38.484375 10.234375 37.84375 
Q 13.140625 37.203125 16.40625 37.203125 
Q 21.734375 37.203125 24.65625 39.125 
Q 27.59375 41.0625 27.59375 44.484375 
Q 27.59375 48.09375 24.875 49.953125 
Q 22.171875 51.8125 16.890625 51.8125 
L 12.703125 51.8125 
L 12.703125 57.078125 
L 17.28125 57.078125 
Q 21.875 57.078125 24.234375 58.609375 
Q 26.609375 60.15625 26.609375 63.09375 
Q 26.609375 65.921875 24.171875 67.40625 
Q 21.734375 68.890625 17.09375 68.890625 
Q 15.140625 68.890625 12.640625 68.453125 
Q 10.15625 68.015625 6.203125 66.890625 
L 6.203125 72.515625 
Q 9.765625 73.34375 12.890625 73.78125 
Q 16.015625 74.21875 18.703125 74.21875 
Q 25.734375 74.21875 29.859375 71.328125 
Q 33.984375 68.453125 33.984375 63.625 
Q 33.984375 60.25 31.78125 57.90625 
Q 29.59375 55.5625 25.59375 54.6875 
z
" id="DejaVuSans-179"/>
      </defs>
      <use xlink:href="#DejaVuSans-79"/>
      <use x="78.710938" xlink:href="#DejaVuSans-105"/>
      <use x="106.494141" xlink:href="#DejaVuSans-108"/>
      <use x="134.277344" xlink:href="#DejaVuSans-32"/>
      <use x="166.064453" xlink:href="#DejaVuSans-112"/>
      <use x="229.541016" xlink:href="#DejaVuSans-114"/>
      <use x="268.404297" xlink:href="#DejaVuSans-111"/>
      <use x="329.585938" xlink:href="#DejaVuSans-100"/>
      <use x="393.0625" xlink:href="#DejaVuSans-117"/>
      <use x="456.441406" xlink:href="#DejaVuSans-99"/>
      <use x="511.421875" xlink:href="#DejaVuSans-116"/>
      <use x="550.630859" xlink:href="#DejaVuSans-105"/>
      <use x="578.414062" xlink:href="#DejaVuSans-111"/>
      <use x="639.595703" xlink:href="#DejaVuSans-110"/>
      <use x="702.974609" xlink:href="#DejaVuSans-91"/>
      <use x="741.988281" xlink:href="#DejaVuSans-109"/>
      <use x="839.400391" xlink:href="#DejaVuSans-179"/>
      <use x="879.488281" xlink:href="#DejaVuSans-93"/>
     </g>
    </g>
   </g>
   <g id="line2d_15">
    <path clip-path="url(#pfe0ab9a8aa)" d="M 73.832727 295.488 
L 74.868035 295.488 
L 75.211272 294.053445 
L 75.667516 294.053445 
L 75.895014 293.580477 
L 76.008605 293.580477 
L 76.235465 293.110147 
L 76.348733 293.110147 
L 76.800705 291.709756 
L 76.913419 291.709756 
L 77.475275 289.864828 
L 78.145618 289.864828 
L 78.479144 288.95996 
L 78.922083 288.95996 
L 79.142779 288.513025 
L 80.129265 288.513025 
L 80.564063 287.206932 
L 80.88862 287.206932 
L 81.104237 286.777033 
L 81.319235 286.777033 
L 81.533604 286.351069 
L 81.640547 286.351069 
L 82.278732 284.246365 
L 82.384499 284.246365 
L 82.595504 283.830569 
L 82.700738 283.830569 
L 83.015336 283.006365 
L 83.119828 283.006365 
L 83.535838 281.78476 
L 83.948637 281.78476 
L 84.256015 280.988418 
L 84.864713 280.988418 
L 85.365383 279.44561 
L 85.859622 279.44561 
L 86.250086 278.325765 
L 86.539907 278.325765 
L 86.635918 277.806806 
L 86.771691 277.806806 
L 86.907497 277.288742 
L 87.179192 277.288742 
L 87.315083 276.771906 
L 87.586963 276.771906 
L 87.722957 276.256221 
L 87.995064 276.256221 
L 88.539826 274.199669 
L 88.948964 274.199669 
L 89.222037 273.174839 
L 89.358678 273.174839 
L 89.495393 272.66301 
L 89.906012 272.66301 
L 90.043055 272.151949 
L 90.317418 272.151949 
L 90.592175 271.130811 
L 90.867355 271.130811 
L 91.005113 270.620567 
L 91.280984 270.620567 
L 91.69574 269.090294 
L 91.834261 269.090294 
L 91.972923 268.580174 
L 92.11173 268.580174 
L 92.250687 268.069958 
L 92.529065 268.069958 
L 92.668495 267.559487 
L 93.368233 267.559487 
L 93.649419 266.536478 
L 93.931399 266.536478 
L 94.214213 265.51507 
L 94.632123 265.51507 
L 94.768767 265.026815 
L 95.038518 265.026815 
L 95.17171 264.551913 
L 95.694173 264.551913 
L 95.822381 264.096444 
L 96.326408 264.096444 
L 96.573454 263.222405 
L 97.296425 263.222405 
L 97.531726 262.394961 
L 97.648361 262.394961 
L 97.994311 261.586065 
L 98.334493 261.586065 
L 98.558167 261.194221 
L 99.106776 261.194221 
L 99.322088 260.818978 
L 99.954236 260.818978 
L 100.364472 259.753368 
L 100.465658 259.753368 
L 100.864991 258.719603 
L 101.061451 258.719603 
L 101.448067 257.726692 
L 101.543424 257.726692 
L 101.7326 257.402322 
L 101.826426 257.402322 
L 102.012567 257.083753 
L 103.174967 257.083753 
L 103.346471 256.515368 
L 103.68836 256.515368 
L 103.85875 255.938316 
L 104.199435 255.938316 
L 104.540777 254.784308 
L 105.576121 254.784308 
L 105.751147 254.19571 
L 106.640982 254.19571 
L 106.822343 253.588857 
L 107.188968 253.588857 
L 107.374358 252.970185 
L 107.749612 252.970185 
L 107.939604 252.337937 
L 108.131257 252.337937 
L 108.324636 251.69566 
L 108.519807 251.69566 
L 108.716836 251.042567 
L 109.116733 251.042567 
L 109.507184 249.78949 
L 110.947936 249.78949 
L 111.284766 248.712258 
L 111.936301 248.712258 
L 112.095012 248.206588 
L 112.562113 248.206588 
L 112.714975 247.720969 
L 113.165662 247.720969 
L 113.892642 245.421743 
L 114.592476 245.421743 
L 114.729429 244.991213 
L 114.86542 244.991213 
L 115.000463 244.567324 
L 115.134575 244.567324 
L 115.267768 244.149872 
L 115.400056 244.149872 
L 115.53145 243.738673 
L 115.661962 243.738673 
L 115.791602 243.333566 
L 116.920581 243.333566 
L 117.162545 242.583632 
L 117.282214 242.583632 
L 117.401336 242.215175 
L 117.519596 242.215175 
L 117.753764 241.852043 
L 118.212979 241.852043 
L 118.438078 241.5044 
L 118.660208 241.5044 
L 118.879395 241.166772 
L 119.309041 241.166772 
L 119.72722 240.207146 
L 119.932074 240.207146 
L 120.234137 239.59152 
L 120.333447 239.59152 
L 120.723896 238.698602 
L 120.915099 238.698602 
L 121.586535 236.940706 
L 121.992413 236.940706 
L 122.194622 236.329157 
L 122.798868 236.329157 
L 122.999511 235.725105 
L 123.199747 235.725105 
L 124.39135 232.157411 
L 124.588125 232.157411 
L 124.979978 230.991065 
L 125.369519 230.991065 
L 125.563414 230.416154 
L 125.949453 230.416154 
L 126.141603 229.848206 
L 126.333181 229.848206 
L 126.524193 229.284773 
L 126.904555 229.284773 
L 127.282767 228.173018 
L 127.846255 228.173018 
L 128.405458 226.537865 
L 128.960752 226.537865 
L 129.145049 226.001463 
L 129.328969 226.001463 
L 129.512527 225.471534 
L 129.694588 225.471534 
L 130.228039 223.939643 
L 130.744679 223.939643 
L 130.913461 223.456554 
L 131.410245 223.456554 
L 131.733909 222.533085 
L 132.208878 222.533085 
L 132.364524 222.090416 
L 132.974471 222.090416 
L 133.12392 221.666877 
L 133.996659 221.666877 
L 134.278852 220.871314 
L 134.830838 220.871314 
L 134.966319 220.490793 
L 135.88764 220.490793 
L 136.015495 220.133978 
L 136.393564 220.133978 
L 136.517781 219.787809 
L 137.125634 219.787809 
L 137.244591 219.457542 
L 137.36269 219.457542 
L 137.826601 218.489798 
L 137.940481 218.489798 
L 138.277166 217.867119 
L 138.497538 217.867119 
L 138.928645 216.972891 
L 139.551765 216.972891 
L 139.753344 216.695451 
L 139.951922 216.695451 
L 140.24425 216.162317 
L 141.18686 216.162317 
L 141.755901 214.601045 
L 142.715087 214.601045 
L 142.908666 214.073148 
L 143.493234 214.073148 
L 143.68944 213.539886 
L 144.28244 213.539886 
L 144.681677 212.458907 
L 145.695047 212.458907 
L 145.900578 211.905444 
L 146.107136 211.905444 
L 146.733301 210.223571 
L 147.156157 210.223571 
L 147.364612 209.677752 
L 147.569556 209.677752 
L 147.970885 208.625578 
L 148.553805 208.625578 
L 148.743496 208.129364 
L 148.931051 208.129364 
L 149.116559 207.644621 
L 149.48175 207.644621 
L 149.661576 207.175542 
L 151.041123 207.175542 
L 151.371214 206.319587 
L 151.534233 206.319587 
L 151.69594 205.90094 
L 152.330135 205.90094 
L 152.485637 205.499647 
L 152.63996 205.499647 
L 152.94514 204.713349 
L 153.542073 204.713349 
L 153.68859 204.337164 
L 154.121812 204.337164 
L 154.264146 203.97263 
L 154.685058 203.97263 
L 154.823362 203.619287 
L 155.366777 203.619287 
L 155.500216 203.27977 
L 155.632556 203.27977 
L 156.024474 202.283547 
L 156.153202 202.283547 
L 156.407891 201.637261 
L 156.906319 201.637261 
L 157.150134 201.02064 
L 157.627143 201.02064 
L 157.975742 200.434922 
L 158.316619 200.434922 
L 158.649891 199.876661 
L 159.08263 199.876661 
L 159.398624 199.346982 
L 159.707421 199.346982 
L 160.009154 198.593432 
L 160.108184 197.945307 
L 160.365923 197.945307 
L 160.621182 197.308627 
L 161.626051 197.308627 
L 162.118801 196.08697 
L 162.362915 196.08697 
L 162.605587 195.48663 
L 164.267414 195.48663 
L 164.499967 194.915341 
L 165.191002 194.915341 
L 165.419227 194.356614 
L 165.872649 194.356614 
L 166.097896 193.806567 
L 166.982043 193.806567 
L 167.195019 193.293904 
L 167.611953 193.293904 
L 167.816238 192.802593 
L 168.414065 192.802593 
L 168.608728 192.33515 
L 168.801253 192.33515 
L 168.99173 191.878177 
L 169.180239 191.878177 
L 169.366852 191.430914 
L 169.551638 191.430914 
L 169.734657 190.992718 
L 171.478268 190.992718 
L 171.644798 190.59644 
L 171.810023 190.59644 
L 172.298088 189.437035 
L 172.458308 189.437035 
L 172.775155 188.68588 
L 172.931814 188.68588 
L 173.087318 188.317755 
L 173.547029 188.317755 
L 173.69804 187.96108 
L 174.867558 187.96108 
L 175.009056 187.628554 
L 175.149535 187.628554 
L 175.289004 187.301154 
L 175.70137 187.301154 
L 175.836872 186.983799 
L 176.237442 186.983799 
L 176.369028 186.676214 
L 176.499651 186.676214 
L 176.629317 186.373428 
L 176.75803 186.373428 
L 176.885794 186.075386 
L 177.012615 186.075386 
L 177.138496 185.782031 
L 177.993717 185.782031 
L 178.346577 185.236183 
L 179.248613 185.236183 
L 179.465474 184.984714 
L 179.99292 184.984714 
L 180.198122 184.747432 
L 180.329689 184.747432 
L 180.741641 183.797907 
L 181.155001 183.797907 
L 181.362282 183.318121 
L 181.778024 183.318121 
L 182.195401 182.354466 
L 182.404738 182.354466 
L 182.824786 181.386669 
L 183.035533 181.386669 
L 183.246785 180.900784 
L 183.458561 180.900784 
L 183.67088 180.413121 
L 184.097223 180.413121 
L 184.311286 179.922473 
L 184.52597 179.922473 
L 184.957287 178.935572 
L 185.828321 178.935572 
L 186.047961 178.43492 
L 186.268403 178.43492 
L 186.489669 177.931263 
L 186.711786 177.931263 
L 186.934779 177.432147 
L 187.155244 177.432147 
L 187.371978 176.949334 
L 188.208738 176.949334 
L 188.411318 176.498223 
L 188.611516 176.498223 
L 188.809445 176.057747 
L 189.005205 176.057747 
L 189.390574 175.200924 
L 189.768264 175.200924 
L 189.954401 174.787677 
L 190.138811 174.787677 
L 190.321548 174.382337 
L 190.502664 174.382337 
L 190.860209 173.590177 
L 191.89805 173.590177 
L 192.233215 172.850525 
L 192.398889 172.850525 
L 192.726523 172.128593 
L 193.367429 172.128593 
L 193.524755 171.782899 
L 194.445321 171.782899 
L 194.89103 170.807485 
L 195.037498 170.807485 
L 195.327327 170.17431 
L 195.613057 170.17431 
L 195.7544 169.866055 
L 196.446092 169.866055 
L 196.581468 169.571655 
L 196.849297 169.571655 
L 196.981757 169.284005 
L 197.756411 169.284005 
L 198.130996 168.473476 
L 198.376072 168.473476 
L 199.659099 165.965176 
L 199.880856 165.965176 
L 200.207029 165.498073 
L 200.314049 165.498073 
L 200.525563 165.270248 
L 200.630067 165.270248 
L 200.744027 164.616433 
L 201.047534 163.980439 
L 201.348309 163.980439 
L 201.941889 162.714128 
L 202.524499 162.714128 
L 202.811838 162.102838 
L 203.096654 162.102838 
L 203.379043 161.502874 
L 203.659099 161.502874 
L 203.93691 160.913411 
L 205.295104 160.913411 
L 205.561071 160.353421 
L 206.080445 160.353421 
L 206.573898 159.328415 
L 206.812868 159.328415 
L 207.047249 158.840907 
L 207.277402 158.840907 
L 207.50365 158.370059 
L 208.161597 158.370059 
L 208.374705 157.926523 
L 208.58501 157.926523 
L 208.997807 157.067701 
L 209.200559 157.067701 
L 209.989745 155.427478 
L 210.182026 155.427478 
L 210.37245 155.032163 
L 211.116784 155.032163 
L 211.298787 154.655057 
L 211.479249 154.655057 
L 211.658208 154.284565 
L 212.011763 154.284565 
L 212.359712 153.565304 
L 212.531656 153.565304 
L 212.702281 153.212987 
L 213.039664 153.212987 
L 213.206465 152.869028 
L 214.181925 152.869028 
L 214.340419 152.543234 
L 214.497781 152.543234 
L 214.809155 151.903912 
L 214.963187 151.903912 
L 215.116128 151.590245 
L 215.568492 151.590245 
L 215.717153 151.285902 
L 215.864763 151.285902 
L 216.011328 150.986119 
L 216.444815 150.986119 
L 216.728654 150.406352 
L 216.869091 150.406352 
L 217.008496 150.122075 
L 217.146903 150.122075 
L 217.420736 149.564288 
L 217.690614 149.564288 
L 217.824081 149.292822 
L 218.47685 149.292822 
L 218.604518 149.033782 
L 218.981822 149.033782 
L 219.350655 148.535842 
L 219.711127 148.535842 
L 220.293638 147.590782 
L 220.743518 147.590782 
L 221.179389 146.933343 
L 221.286206 146.933343 
L 221.607182 146.054864 
L 221.829005 145.605558 
L 222.273464 145.605558 
L 222.496016 145.155402 
L 223.388423 145.155402 
L 223.612142 144.70419 
L 224.510001 144.70419 
L 224.735304 144.251058 
L 226.323962 144.251058 
L 226.5528 143.792869 
L 226.782171 143.792869 
L 227.242597 142.872279 
L 227.473693 142.872279 
L 227.705409 142.409627 
L 227.937765 142.409627 
L 228.168269 141.959186 
L 228.394712 141.959186 
L 228.617414 141.523129 
L 229.891284 141.523129 
L 230.09463 141.125176 
L 230.295737 141.125176 
L 230.691612 140.350867 
L 230.886548 140.350867 
L 231.079583 139.973556 
L 231.460214 139.973556 
L 231.647928 139.606988 
L 232.382615 139.606988 
L 232.56246 139.256399 
L 232.740849 139.256399 
L 232.917815 138.911679 
L 233.440471 138.911679 
L 233.782298 138.246973 
L 233.951298 138.246973 
L 234.119048 137.921095 
L 234.939674 137.921095 
L 235.10028 137.609849 
L 235.575293 137.609849 
L 235.731399 137.307815 
L 236.193155 137.307815 
L 236.344915 137.014665 
L 236.941363 137.014665 
L 237.233323 136.451938 
L 237.377757 136.451938 
L 237.521008 136.175552 
L 237.663524 136.175552 
L 237.804922 135.903548 
L 237.945285 135.903548 
L 238.223014 135.369714 
L 238.766559 135.369714 
L 238.899986 135.113785 
L 239.163916 135.113785 
L 239.423973 134.61561 
L 239.932588 134.61561 
L 240.304107 134.140366 
L 240.54711 134.140366 
L 240.786411 133.911122 
L 241.138491 133.911122 
L 241.595294 133.257718 
L 242.254024 133.257718 
L 242.364267 132.641697 
L 245.293943 132.641697 
L 245.609104 132.049135 
L 246.23003 132.049135 
L 246.823338 130.967268 
L 247.103503 130.967268 
L 247.375174 130.467288 
L 248.148684 130.467288 
L 248.39491 130.012035 
L 250.000171 130.012035 
L 250.42891 129.217402 
L 251.655641 129.217402 
L 251.852557 128.85279 
L 252.621604 128.85279 
L 252.809515 128.505296 
L 253.180479 128.505296 
L 253.363619 128.166931 
L 253.545251 128.166931 
L 253.904131 127.504401 
L 254.257379 127.504401 
L 254.431963 127.182481 
L 254.777172 127.182481 
L 254.947844 126.868103 
L 256.429158 126.868103 
L 256.587935 126.576691 
L 258.115589 126.576691 
L 258.262508 126.308123 
L 258.697024 126.308123 
L 258.839842 126.04747 
L 259.811158 126.04747 
L 259.945931 125.802146 
L 260.861963 125.802146 
L 261.240088 125.344647 
L 261.36423 125.344647 
L 261.609688 125.121271 
L 261.731012 125.121271 
L 262.089413 124.688579 
L 262.207037 124.688579 
L 262.439549 124.477415 
L 262.554445 124.477415 
L 262.781542 124.271341 
L 262.893752 124.271341 
L 263.22509 123.870832 
L 263.333789 123.870832 
L 263.693152 123.022511 
L 264.633969 123.022511 
L 264.869257 122.596001 
L 265.104584 122.596001 
L 265.810958 121.317352 
L 266.282384 121.317352 
L 266.518309 120.891077 
L 266.990678 120.891077 
L 268.175585 118.755033 
L 269.128954 118.755033 
L 269.368224 118.325074 
L 270.316526 118.325074 
L 270.544743 117.92271 
L 271.638108 117.92271 
L 271.848439 117.551729 
L 272.261864 117.551729 
L 272.865473 116.487513 
L 273.451285 116.487513 
L 274.207732 115.155576 
L 274.758344 115.155576 
L 274.938909 114.838106 
L 275.118046 114.838106 
L 275.295783 114.525793 
L 275.820871 114.525793 
L 275.993274 114.223224 
L 277.328036 114.223224 
L 277.489559 113.940575 
L 277.649943 113.940575 
L 278.43513 112.568395 
L 279.193207 112.568395 
L 279.489043 112.053138 
L 279.780686 112.053138 
L 279.924999 111.801982 
L 280.351745 111.801982 
L 280.631185 111.316284 
L 281.178065 111.316284 
L 281.312307 111.083363 
L 281.445565 111.083363 
L 281.577844 110.85399 
L 281.709146 110.85399 
L 282.476668 109.742094 
L 282.847556 109.742094 
L 283.564127 108.711512 
L 283.680338 108.711512 
L 284.136157 108.121179 
L 284.358719 108.121179 
L 284.577771 107.93177 
L 284.808829 107.93177 
L 285.43956 106.834965 
L 287.061216 106.834965 
L 287.394158 106.255401 
L 288.396543 106.255401 
L 288.70725 105.742495 
L 289.840873 105.742495 
L 290.361163 104.870036 
L 290.858602 104.870036 
L 291.100011 104.46392 
L 292.897929 104.46392 
L 293.109253 104.107639 
L 293.931049 104.107639 
L 294.719742 102.778724 
L 295.850198 102.778724 
L 296.033107 102.471071 
L 297.786143 102.471071 
L 297.954369 102.188969 
L 298.287202 102.188969 
L 298.451839 101.91313 
L 299.098821 101.91313 
L 299.572219 101.121414 
L 299.882319 101.121414 
L 300.339378 100.35819 
L 300.489599 100.35819 
L 300.638766 100.109331 
L 301.368935 100.109331 
L 301.511879 99.871281 
L 302.348271 99.871281 
L 302.48416 99.645447 
L 302.619057 99.645447 
L 302.752966 99.423034 
L 303.148797 99.423034 
L 303.91427 98.36296 
L 304.405521 98.36296 
L 304.645525 98.163629 
L 304.881826 98.163629 
L 305.114462 97.970603 
L 305.790754 97.970603 
L 305.900369 97.55949 
L 306.147562 97.155183 
L 307.566125 97.151105 
L 307.811889 96.744146 
L 308.303043 96.744146 
L 308.793821 95.932579 
L 309.284387 95.932579 
L 309.529644 95.527554 
L 310.265561 95.527554 
L 310.510988 95.12286 
L 310.756511 95.12286 
L 311.002152 94.718119 
L 311.49387 94.718119 
L 311.986314 93.908426 
L 312.943372 93.908426 
L 313.172521 93.538033 
L 314.482515 93.538033 
L 314.691545 93.199858 
L 315.900301 93.199858 
L 316.287824 92.573359 
L 317.772914 92.573359 
L 317.951895 92.284565 
L 318.997781 92.284565 
L 319.336257 91.739457 
L 319.503672 91.739457 
L 320.161517 90.681155 
L 320.483524 90.681155 
L 320.801034 90.171071 
L 321.114121 90.171071 
L 321.269027 89.922458 
L 322.027457 89.922458 
L 322.175968 89.684775 
L 323.604322 89.684775 
L 323.877848 89.247911 
L 324.013117 89.247911 
L 324.147397 89.033588 
L 324.280689 89.033588 
L 324.674683 88.613071 
L 324.804065 88.613071 
L 325.186419 88.206955 
L 325.311952 88.206955 
L 325.682851 87.813396 
L 325.804597 87.813396 
L 326.164237 87.430629 
L 326.51557 87.430629 
L 326.745239 87.24752 
L 326.97131 87.24752 
L 327.303759 86.58156 
L 328.848181 86.58156 
L 329.481244 85.565587 
L 330.124064 85.565587 
L 330.449287 85.044438 
L 331.419257 85.044438 
L 331.718542 84.585849 
L 332.559103 84.585849 
L 332.823999 84.176149 
L 333.082587 84.176149 
L 333.335487 83.784039 
L 335.738187 83.783772 
L 336.156924 83.130491 
L 336.568621 83.130491 
L 336.771266 82.814963 
L 337.755304 82.814963 
L 337.946754 82.517017 
L 338.324719 82.517017 
L 338.511322 82.226757 
L 339.062084 82.226757 
L 339.242769 81.945925 
L 339.776529 81.945925 
L 339.951769 81.673794 
L 340.46976 81.673794 
L 340.808836 81.147801 
L 341.308399 81.147801 
L 341.635568 80.64091 
L 341.958151 80.64091 
L 342.276228 80.148609 
L 342.589874 80.148609 
L 342.745054 79.908648 
L 342.899151 79.908648 
L 343.052169 79.672154 
L 343.355 79.672154 
L 343.504823 79.441031 
L 344.665879 79.441031 
L 344.9459 79.009649 
L 345.221887 79.009649 
L 345.358378 78.799566 
L 346.286114 78.799566 
L 346.794813 78.211398 
L 346.91959 78.211398 
L 347.883931 76.921349 
L 348.000305 76.921349 
L 348.343979 76.569132 
L 348.456738 76.569132 
L 348.679589 76.397955 
L 348.846927 76.397955 
L 349.105169 76.004045 
L 349.877375 76.004045 
L 350.133945 75.610005 
L 350.645875 75.610005 
L 350.901276 75.218153 
L 351.411066 75.218153 
L 351.665501 74.828159 
L 352.173572 74.828159 
L 352.427255 74.439689 
L 354.198653 74.439689 
L 354.451361 74.053692 
L 354.704049 74.053692 
L 354.954515 73.67918 
L 355.909424 73.67918 
L 356.138497 73.335151 
L 356.586846 73.335151 
L 357.023386 72.678971 
L 357.237623 72.678971 
L 357.44935 72.36063 
L 358.070601 72.36063 
L 358.273366 72.055756 
L 359.064965 72.055756 
L 359.258326 71.765143 
L 359.828393 71.765143 
L 360.015226 71.4845 
L 360.200534 71.4845 
L 360.38435 71.208482 
L 360.566709 71.208482 
L 360.747642 70.936893 
L 361.105345 70.936893 
L 361.282166 70.671634 
L 361.631866 70.671634 
L 361.804786 70.412389 
L 362.484037 70.412389 
L 362.650823 70.162623 
L 362.980859 70.162623 
L 363.144135 69.918283 
L 363.306264 69.918283 
L 363.627124 69.438405 
L 363.785874 69.438405 
L 363.943516 69.202778 
L 364.490386 69.105754 
L 364.540972 69.010427 
L 364.704012 68.773688 
L 365.311195 68.773688 
L 365.458206 68.554571 
L 366.318254 68.554571 
L 366.458025 68.346511 
L 366.734544 68.346511 
L 366.871298 68.143086 
L 367.670995 68.143086 
L 368.057619 67.758895 
L 368.18456 67.758895 
L 368.435565 67.571961 
L 370.400575 67.571961 
L 370.69843 67.129836 
L 371.600948 67.129836 
L 372.212022 66.215773 
L 372.831051 66.215773 
L 373.775411 64.805367 
L 374.094635 64.805367 
L 374.408511 64.359845 
L 376.330265 64.359845 
L 376.822658 63.645994 
L 377.529415 63.645994 
L 377.757698 63.314213 
L 378.204679 63.314213 
L 378.423746 62.995574 
L 378.640078 62.995574 
L 379.06508 62.377192 
L 379.480649 62.377192 
L 379.685151 62.0796 
L 380.286531 62.0796 
L 380.48319 61.79347 
L 380.678055 61.79347 
L 380.871182 61.512532 
L 382.71648 61.512532 
L 382.893173 61.255932 
L 383.068549 61.255932 
L 383.24263 61.003222 
L 383.586985 61.003222 
L 383.757294 60.756135 
L 384.094259 60.756135 
L 384.426449 60.274547 
L 385.076899 60.274547 
L 385.236673 60.043196 
L 385.395331 60.043196 
L 385.70933 59.588785 
L 385.864687 59.588785 
L 386.018959 59.365653 
L 386.324273 59.365653 
L 386.475328 59.147323 
L 387.068979 59.147323 
L 387.214776 58.936824 
L 387.928354 58.936824 
L 388.068011 58.735471 
L 388.751213 58.735471 
L 389.149205 58.352055 
L 389.792971 58.352055 
L 390.167669 57.99305 
L 390.412717 57.99305 
L 390.77325 57.647956 
L 390.891569 57.647956 
L 391.125445 57.479498 
L 391.241012 57.479498 
L 391.469429 57.315058 
L 392.075862 57.315058 
L 392.883523 56.152732 
L 393.151342 56.152732 
L 393.418468 55.76872 
L 396.318759 55.76872 
L 397.620179 53.911616 
L 398.124048 53.911616 
L 398.368332 53.568 
L 398.368332 53.568 
" style="fill:none;stroke:#1f77b4;stroke-linecap:square;stroke-width:1.5;"/>
   </g>
   <g id="line2d_16">
    <path clip-path="url(#pfe0ab9a8aa)" d="M 73.832727 295.091053 
L 74.178874 295.091053 
L 74.408977 294.69647 
L 74.523883 294.69647 
L 74.982501 293.52078 
L 75.096824 293.52078 
L 75.66726 291.967457 
L 76.573965 291.967457 
L 76.799437 291.586071 
L 76.911985 291.586071 
L 77.136695 291.206701 
L 77.248856 291.206701 
L 77.472777 290.829386 
L 77.584536 290.829386 
L 78.252153 288.961087 
L 79.024329 288.961087 
L 79.352909 288.230453 
L 79.571143 288.230453 
L 79.788702 287.868631 
L 80.005573 287.868631 
L 80.221739 287.510002 
L 80.651893 287.510002 
L 80.865849 287.156324 
L 81.185336 287.156324 
L 81.397337 286.806921 
L 81.713811 286.806921 
L 82.132832 285.775595 
L 82.444811 285.775595 
L 82.651675 285.437047 
L 82.754763 285.437047 
L 82.960241 285.101348 
L 83.16477 285.101348 
L 83.87287 283.127157 
L 84.666593 283.127157 
L 84.862294 282.810805 
L 84.959722 282.810805 
L 85.346561 281.875945 
L 85.728685 281.875945 
L 85.917932 281.571818 
L 86.885433 281.571818 
L 87.021214 281.137453 
L 87.15701 281.137453 
L 87.292824 280.703602 
L 87.428656 280.703602 
L 87.564508 280.270249 
L 87.836273 280.270249 
L 87.972189 279.837614 
L 88.108129 279.837614 
L 88.380087 278.973476 
L 88.516108 278.973476 
L 88.652158 278.541943 
L 89.196688 278.541943 
L 89.332912 278.111376 
L 89.469177 278.111376 
L 89.605483 277.68115 
L 90.01468 277.68115 
L 90.15118 277.251514 
L 90.834551 277.251514 
L 91.108366 276.393532 
L 92.069363 276.393532 
L 92.207045 275.964595 
L 92.344842 275.964595 
L 92.48276 275.535497 
L 92.620804 275.535497 
L 92.758983 275.106158 
L 92.897302 275.106158 
L 93.035769 274.676489 
L 94.009909 274.676489 
L 94.290102 273.811768 
L 94.853622 273.811768 
L 94.995244 273.376168 
L 95.137197 273.376168 
L 95.2795 272.938989 
L 96.726946 272.938989 
L 96.874758 272.487594 
L 98.071269 272.487594 
L 98.353056 271.654283 
L 99.011392 271.654283 
L 99.259028 270.921948 
L 99.379955 270.921948 
L 100.071365 269.215199 
L 100.398966 269.215199 
L 100.821247 268.277196 
L 101.628173 268.277196 
L 102.113716 267.128329 
L 102.494279 267.128329 
L 102.775848 266.574814 
L 103.146763 266.574814 
L 103.330461 266.304683 
L 103.421898 266.304683 
L 103.694637 265.770703 
L 103.875208 265.770703 
L 104.322491 264.723239 
L 104.411264 264.723239 
L 104.588151 264.464633 
L 104.764171 264.464633 
L 104.939339 264.208966 
L 105.113668 264.208966 
L 105.459847 263.45403 
L 106.239243 263.45403 
L 106.465056 262.793948 
L 106.692685 262.793948 
L 107.153662 261.44938 
L 107.860384 261.44938 
L 108.100271 260.752641 
L 108.586871 260.752641 
L 108.833701 260.037897 
L 110.89358 260.037897 
L 111.14545 259.345298 
L 111.857815 259.345298 
L 112.083051 258.72398 
L 112.728786 258.72398 
L 112.935231 258.154165 
L 113.72423 258.154165 
L 113.913332 257.632665 
L 114.642029 257.632665 
L 114.817918 257.148437 
L 115.3322 257.148437 
L 115.499461 256.68874 
L 116.149687 256.68874 
L 116.307861 256.255026 
L 117.075151 256.255026 
L 117.224216 255.847485 
L 117.371911 255.847485 
L 117.518276 255.447722 
L 118.370347 255.447722 
L 118.508283 255.072281 
L 119.04934 255.072281 
L 119.182046 254.711962 
L 119.313772 254.711962 
L 119.444536 254.357259 
L 119.703259 254.357259 
L 119.958359 253.666453 
L 120.084594 253.666453 
L 120.209973 253.327331 
L 120.581133 253.327331 
L 120.703242 252.997674 
L 121.064908 252.997674 
L 121.419901 252.360212 
L 122.111071 252.360212 
L 122.336198 252.057248 
L 122.558824 252.057248 
L 122.996864 251.175041 
L 123.425735 251.175041 
L 123.949693 250.053652 
L 124.05294 250.053652 
L 124.257943 249.779953 
L 124.66217 249.779953 
L 124.960479 249.250353 
L 125.28483 249.250353 
L 125.481924 248.72627 
L 125.678854 248.72627 
L 126.071886 247.683822 
L 126.268032 247.683822 
L 126.463956 247.165136 
L 127.050556 247.165136 
L 127.635709 245.62183 
L 128.025198 245.62183 
L 128.219802 245.110111 
L 128.608796 245.110111 
L 128.803215 244.600016 
L 129.386328 244.600016 
L 129.580699 244.091556 
L 130.553186 244.091556 
L 130.74791 243.584415 
L 131.1377 243.584415 
L 131.332795 243.077423 
L 131.528042 243.077423 
L 131.723457 242.570342 
L 131.919055 242.570342 
L 132.114849 242.063019 
L 132.310855 242.063019 
L 132.507088 241.557616 
L 133.80712 241.557616 
L 133.981293 241.116563 
L 134.322351 241.116563 
L 134.48945 240.693753 
L 135.137152 240.693753 
L 135.294304 240.296735 
L 135.449691 240.296735 
L 135.90587 239.145485 
L 136.05479 239.145485 
L 136.202228 238.773806 
L 136.348229 238.773806 
L 136.49284 238.409526 
L 136.636102 238.409526 
L 137.05819 237.347479 
L 138.002535 237.347479 
L 138.133244 237.019739 
L 138.262982 237.019739 
L 138.391771 236.697066 
L 138.646593 236.697066 
L 138.772667 236.381565 
L 139.390444 236.381565 
L 139.511604 236.079067 
L 139.988795 236.079067 
L 140.223102 235.785976 
L 140.339247 235.785976 
L 140.569557 235.49854 
L 140.797311 235.49854 
L 141.022599 235.217836 
L 141.356091 235.217836 
L 142.008036 233.870613 
L 142.114847 233.870613 
L 142.432277 233.345875 
L 142.848785 233.345875 
L 143.054279 233.091729 
L 143.15636 233.091729 
L 143.359218 232.841123 
L 143.859043 232.841123 
L 144.056164 232.598228 
L 144.251742 232.598228 
L 144.732872 231.407679 
L 145.960239 231.407679 
L 146.21055 230.790736 
L 146.716344 230.790736 
L 146.971913 230.162416 
L 147.749843 230.162416 
L 148.013049 229.517535 
L 148.278282 229.517535 
L 148.545593 228.863736 
L 148.815031 228.863736 
L 149.617269 226.968948 
L 149.869858 226.968948 
L 150.586608 225.285036 
L 151.253277 225.285036 
L 151.880195 223.809033 
L 152.474443 223.809033 
L 153.224596 222.04383 
L 153.760354 222.04383 
L 153.934399 221.63484 
L 154.27621 221.63484 
L 154.444132 221.240604 
L 155.414085 221.240604 
L 155.724434 220.513884 
L 156.179096 220.513884 
L 156.327915 220.165985 
L 156.766663 220.165985 
L 156.910452 219.830348 
L 157.053062 219.830348 
L 157.334853 219.1732 
L 157.61225 219.1732 
L 157.749363 218.85387 
L 158.419959 218.85387 
L 158.551229 218.548836 
L 159.570202 218.548836 
L 159.816834 217.977411 
L 159.939027 217.977411 
L 160.420517 217.143269 
L 160.774326 216.598539 
L 160.890928 216.598539 
L 161.350941 215.80379 
L 161.689499 215.80379 
L 162.022792 215.292595 
L 162.132759 215.292595 
L 162.567174 214.542188 
L 162.674452 214.542188 
L 162.887468 214.297221 
L 163.307525 214.297221 
L 163.617539 213.822927 
L 164.024497 213.822927 
L 164.257388 213.289581 
L 164.721702 213.289581 
L 165.183164 212.237121 
L 165.642013 212.237121 
L 165.870523 211.717187 
L 166.098457 211.717187 
L 166.779028 210.171807 
L 167.004882 210.171807 
L 167.230271 209.661049 
L 167.679735 209.661049 
L 168.573967 207.640693 
L 168.796661 207.640693 
L 169.241144 206.639124 
L 169.905885 206.639124 
L 170.347935 205.646301 
L 170.568681 205.646301 
L 170.789264 205.151688 
L 171.660249 205.151688 
L 171.869491 204.69191 
L 172.075135 204.69191 
L 172.277383 204.247505 
L 173.243518 204.247505 
L 173.428698 203.840944 
L 174.146282 203.840944 
L 174.320338 203.459276 
L 174.83091 203.459276 
L 174.997452 203.094515 
L 175.486938 203.094515 
L 175.646892 202.744627 
L 176.117765 202.744627 
L 176.271865 202.40799 
L 177.022559 202.40799 
L 177.314189 201.772317 
L 177.60122 201.772317 
L 177.883853 201.157101 
L 178.162275 201.157101 
L 178.299961 200.857755 
L 178.707162 200.857755 
L 179.237118 199.707718 
L 179.367403 199.707718 
L 179.496838 199.427168 
L 180.503397 199.427168 
L 180.747489 199.162641 
L 180.868467 199.162641 
L 181.108343 198.902957 
L 181.227262 198.902957 
L 181.580058 198.395812 
L 182.155415 198.395812 
L 182.60495 197.66879 
L 182.826309 197.66879 
L 183.154255 197.199393 
L 183.477455 197.199393 
L 183.690375 196.970627 
L 184.110329 196.970627 
L 184.214126 196.601761 
L 185.629885 196.601761 
L 185.882252 196.059284 
L 186.135906 196.059284 
L 186.390882 195.511929 
L 186.904937 195.511929 
L 187.164088 194.956736 
L 188.215703 194.956736 
L 188.482554 194.386997 
L 188.751063 194.386997 
L 189.293228 193.231457 
L 190.097652 193.231457 
L 190.598793 192.201231 
L 191.531744 192.201231 
L 191.752999 191.745032 
L 193.001546 191.745032 
L 193.392351 190.93899 
L 194.857226 190.93899 
L 195.030818 190.581587 
L 195.372472 190.581587 
L 195.540653 190.235594 
L 196.357215 190.235594 
L 196.829302 189.266317 
L 197.289275 189.266317 
L 197.440062 188.957192 
L 197.738008 188.957192 
L 197.885222 188.655667 
L 198.176264 188.655667 
L 198.320139 188.361255 
L 198.885196 188.361255 
L 199.023952 188.077756 
L 200.100745 188.077756 
L 200.231286 187.811237 
L 200.36127 187.811237 
L 200.618591 187.287338 
L 200.872785 187.287338 
L 200.998742 187.031161 
L 201.123953 187.031161 
L 201.49523 186.526663 
L 202.219118 186.526663 
L 202.455168 186.286743 
L 202.57225 186.286743 
L 202.80457 186.05083 
L 202.919824 186.05083 
L 203.148561 185.818765 
L 203.93132 185.818765 
L 204.366828 185.159019 
L 204.474432 185.159019 
L 204.794282 184.353118 
L 204.979542 183.827148 
L 206.013137 183.827148 
L 206.268769 183.313909 
L 207.531777 183.313909 
L 208.030543 182.316222 
L 209.018427 182.316222 
L 209.263558 181.827397 
L 210.237548 181.827397 
L 210.720983 180.866305 
L 210.961898 180.866305 
L 211.681715 179.447085 
L 211.9162 179.447085 
L 212.370827 178.562671 
L 213.021551 178.562671 
L 213.231122 178.154607 
L 214.037792 178.154607 
L 214.424252 177.402203 
L 215.168153 177.402203 
L 215.348636 177.051095 
L 215.703573 177.051095 
L 215.878167 176.711646 
L 216.05093 176.711646 
L 216.391199 176.050454 
L 216.889251 176.050454 
L 217.532194 174.802959 
L 217.845325 174.802959 
L 217.999927 174.503342 
L 218.153262 174.503342 
L 218.305361 174.208736 
L 218.90194 174.208736 
L 219.193496 173.644858 
L 219.622928 173.644858 
L 219.904189 173.101643 
L 220.318912 173.101643 
L 220.590817 172.577223 
L 221.255437 172.577223 
L 221.385886 172.326073 
L 221.899858 172.326073 
L 222.026453 172.082671 
L 222.152313 172.082671 
L 222.401867 171.842207 
L 222.770939 171.842207 
L 223.37268 170.917516 
L 223.608903 170.917516 
L 224.303086 169.807089 
L 224.416751 169.807089 
L 224.642403 169.590801 
L 224.865865 169.590801 
L 225.415277 168.750464 
L 225.631476 168.750464 
L 225.786539 168.270722 
L 226.036971 168.270722 
L 226.287957 167.788954 
L 226.539768 167.788954 
L 226.792473 167.304295 
L 227.556324 167.304295 
L 227.812953 166.813152 
L 230.98394 166.813152 
L 231.256837 166.302686 
L 231.526932 166.302686 
L 231.789197 165.820935 
L 232.293271 165.820935 
L 232.53626 165.373281 
L 233.006456 165.373281 
L 233.234415 164.952653 
L 234.105535 164.952653 
L 234.722383 163.813142 
L 235.504737 163.813142 
L 235.694005 163.463565 
L 237.806546 163.463565 
L 237.971315 163.159905 
L 238.615815 163.159905 
L 238.929841 162.581887 
L 239.692993 162.581887 
L 239.990074 162.035972 
L 240.282777 162.035972 
L 240.427543 161.770178 
L 240.855744 161.770178 
L 241.136324 161.255597 
L 241.413159 161.255597 
L 241.686382 160.755001 
L 241.95597 160.755001 
L 242.089687 160.510439 
L 242.485547 160.510439 
L 242.745479 160.035127 
L 243.129657 160.035127 
L 243.382094 159.803914 
L 243.631685 159.803914 
L 243.878508 159.57808 
L 244.000907 159.57808 
L 244.483956 158.915815 
L 244.603125 158.915815 
L 245.189823 158.060131 
L 245.305386 158.060131 
L 245.534796 157.850967 
L 246.098628 157.850967 
L 246.320422 157.649086 
L 247.071313 157.649086 
L 247.355648 157.134731 
L 247.638273 157.134731 
L 248.198599 156.122338 
L 249.301003 156.122338 
L 249.57309 155.631997 
L 250.914741 155.631997 
L 251.179612 155.155975 
L 252.747867 155.155975 
L 253.006074 154.700965 
L 253.259262 154.700965 
L 253.747772 153.8436 
L 255.311046 153.8436 
L 255.724688 153.11538 
L 255.926969 153.11538 
L 256.126418 152.764204 
L 256.323164 152.764204 
L 256.517327 152.422341 
L 256.709017 152.422341 
L 256.898338 152.08904 
L 259.014107 152.08904 
L 259.1793 151.798744 
L 259.666154 151.798744 
L 259.983825 151.240985 
L 260.6038 151.240985 
L 260.755765 150.974474 
L 260.906571 150.974474 
L 261.056244 150.712094 
L 261.64407 150.712094 
L 261.788418 150.459324 
L 263.044563 150.459324 
L 263.179511 150.223052 
L 263.447328 150.223052 
L 263.711764 149.761369 
L 264.486536 149.761369 
L 264.738914 149.540795 
L 265.721169 149.540795 
L 266.078909 149.124944 
L 266.431206 149.124944 
L 267.006817 148.32428 
L 267.120269 148.32428 
L 267.56873 147.740378 
L 270.457264 147.740378 
L 270.977961 146.836319 
L 271.239642 146.836319 
L 271.502251 146.38086 
L 273.099069 146.38086 
L 273.369025 145.914095 
L 274.427843 145.914095 
L 274.677144 145.495824 
L 275.159093 145.495824 
L 275.621478 144.718293 
L 276.283778 144.718293 
L 276.497181 144.358928 
L 277.906109 144.358928 
L 278.096871 144.037537 
L 278.471579 144.037537 
L 278.655699 143.727391 
L 279.196032 143.727391 
L 279.372361 143.430485 
L 279.890842 143.430485 
L 280.060344 143.14523 
L 280.394646 143.14523 
L 280.559535 142.867866 
L 282.585379 142.867843 
L 282.732798 142.620494 
L 282.879165 142.620494 
L 283.168829 142.134715 
L 283.7364 142.134715 
L 283.875947 141.900942 
L 284.014589 141.900942 
L 284.289218 141.441356 
L 284.425085 141.441356 
L 284.560382 141.215136 
L 284.694721 141.215136 
L 284.82824 140.991771 
L 285.354377 140.991771 
L 285.740975 140.55984 
L 286.618106 140.55984 
L 286.862651 140.355346 
L 287.104632 140.355346 
L 287.344115 140.155254 
L 287.462939 140.155254 
L 287.698791 139.958318 
L 287.932298 139.958318 
L 288.392503 139.383457 
L 288.506175 139.383457 
L 288.843988 139.008989 
L 288.955544 139.008989 
L 289.488881 138.306249 
L 289.799539 138.306249 
L 290.10782 137.796484 
L 291.019009 137.796484 
L 291.318431 137.302124 
L 291.911246 137.302124 
L 292.204779 136.818016 
L 294.21179 136.818016 
L 294.49238 136.356607 
L 294.771595 136.356607 
L 295.04789 135.913861 
L 295.316088 135.913861 
L 295.577014 135.494416 
L 296.792791 135.494416 
L 297.465648 134.407468 
L 298.105209 134.407468 
L 299.110396 132.781424 
L 299.30355 132.781424 
L 299.494333 132.47276 
L 299.682839 132.47276 
L 300.053364 131.873344 
L 300.415755 131.873344 
L 300.594075 131.584935 
L 300.945278 131.584935 
L 301.289604 131.028234 
L 302.122894 131.028234 
L 302.285173 130.766087 
L 303.384537 130.766087 
L 303.536719 130.520562 
L 304.281035 130.520562 
L 304.571425 130.052579 
L 304.715129 130.052579 
L 304.857864 129.822654 
L 304.999646 129.822654 
L 305.140493 129.595849 
L 305.280422 129.595849 
L 305.557588 129.149973 
L 305.694706 129.149973 
L 305.966806 128.712445 
L 306.500893 128.712445 
L 306.76321 128.50104 
L 307.151037 128.50104 
L 307.40595 128.295811 
L 307.658047 128.295811 
L 307.907406 128.095213 
L 308.031081 128.095213 
L 308.519295 127.508669 
L 308.639769 127.508669 
L 309.11558 126.937499 
L 309.349942 126.937499 
L 309.582017 126.751306 
L 309.811861 126.751306 
L 310.152559 126.387154 
L 310.489554 126.385682 
L 310.489561 125.975326 
L 311.00083 125.975326 
L 311.513386 125.152261 
L 312.027739 125.152261 
L 313.322728 123.076859 
L 313.844878 123.076859 
L 314.106946 122.657609 
L 314.6332 122.657609 
L 314.897441 122.235336 
L 316.50025 122.235336 
L 317.281525 121.026082 
L 319.553395 121.026082 
L 319.760151 120.704011 
L 320.943337 120.704011 
L 321.132032 120.409947 
L 321.502974 120.409947 
L 321.865827 119.844538 
L 322.221134 119.844538 
L 322.396109 119.57195 
L 323.899518 119.57195 
L 324.059399 119.323157 
L 325.294011 119.323157 
L 325.591283 118.861201 
L 326.029397 118.861201 
L 326.173434 118.637525 
L 327.017908 118.637525 
L 327.292234 118.211802 
L 327.697465 118.211802 
L 327.830916 118.004966 
L 328.095455 118.004966 
L 328.743553 117.203196 
L 329.123757 117.203196 
L 329.373785 117.009258 
L 329.497794 117.009258 
L 329.743849 116.818506 
L 329.98734 116.818506 
L 330.228334 116.63181 
L 330.585279 116.63181 
L 330.936946 116.268915 
L 331.053029 116.268915 
L 331.283526 116.090628 
L 331.511843 116.090628 
L 331.73803 115.915793 
L 332.14193 115.915793 
L 332.481957 115.392654 
L 333.486661 115.392654 
L 334.464064 113.897393 
L 335.416983 113.897393 
L 336.039975 112.945723 
L 336.348054 112.945723 
L 336.653965 112.478743 
L 338.364487 112.478743 
L 338.622199 112.093389 
L 338.873696 112.093389 
L 339.11948 111.725165 
L 340.712295 111.722699 
L 340.712307 111.398206 
L 342.135783 111.398206 
L 342.518812 110.821714 
L 342.892936 110.821714 
L 343.076865 110.544881 
L 343.438817 110.544881 
L 343.616972 110.276765 
L 343.967942 110.276765 
L 344.140867 110.01657 
L 344.981816 110.01657 
L 345.14557 109.770308 
L 345.78704 109.770308 
L 346.254808 109.067347 
L 346.560728 109.067347 
L 346.862143 108.614645 
L 347.741126 108.614645 
L 348.026225 108.186926 
L 348.99563 108.186926 
L 349.130708 107.984525 
L 349.398442 107.984525 
L 349.663027 107.785806 
L 350.565588 107.785806 
L 350.941837 107.410673 
L 351.065915 107.410673 
L 351.555766 106.860128 
L 351.676656 106.860128 
L 351.916602 106.68046 
L 352.154155 106.68046 
L 352.389373 106.504445 
L 352.737947 106.504445 
L 353.081576 106.162716 
L 353.420435 106.162716 
L 353.532357 105.77535 
L 354.827071 105.77535 
L 355.086657 105.387138 
L 355.34652 105.387138 
L 355.606682 104.998302 
L 355.867166 104.998302 
L 356.127995 104.608702 
L 357.438165 104.608702 
L 357.965507 103.822542 
L 358.22998 103.822542 
L 358.760663 103.032108 
L 360.087128 103.032108 
L 360.340164 102.665617 
L 360.587408 102.665617 
L 360.829306 102.314651 
L 361.29857 102.314651 
L 361.750544 101.657576 
L 361.970703 101.657576 
L 362.187273 101.342438 
L 362.400448 101.342438 
L 362.610406 101.036763 
L 363.222519 101.036763 
L 363.421086 100.747492 
L 364.001979 100.747492 
L 364.377864 100.199764 
L 365.105224 100.199764 
L 365.282377 99.941639 
L 366.965327 99.941639 
L 367.125698 99.708158 
L 367.442579 99.708158 
L 367.599148 99.480284 
L 367.754507 99.480284 
L 367.908684 99.255943 
L 368.810264 99.255943 
L 368.956822 99.042867 
L 369.390544 99.042867 
L 369.674913 98.629671 
L 369.955613 98.629671 
L 370.094627 98.427996 
L 370.370993 98.427986 
L 370.371 98.229327 
L 370.643075 98.229317 
L 370.91213 98.033679 
L 371.045324 98.033679 
L 371.440279 97.650599 
L 371.699837 97.650599 
L 371.956498 97.464023 
L 372.46145 97.464023 
L 372.833131 97.104142 
L 372.955732 97.104142 
L 373.319773 96.75279 
L 373.439892 96.75279 
L 373.796671 96.408628 
L 373.914429 96.408628 
L 374.148236 96.239134 
L 374.264298 96.239134 
L 374.609198 95.905932 
L 375.419208 95.905932 
L 375.777868 95.381417 
L 376.504443 95.381417 
L 376.865054 94.865313 
L 377.221588 94.865313 
L 377.574211 94.360798 
L 378.268361 94.360798 
L 378.61019 93.871958 
L 378.948712 93.871958 
L 379.284058 93.392553 
L 381.622675 93.392553 
L 381.877247 93.03506 
L 382.369177 93.03506 
L 382.607392 92.699682 
L 385.745938 92.699682 
L 385.933504 92.434534 
L 387.017307 92.434534 
L 387.191604 92.188153 
L 387.704713 92.188153 
L 387.872642 91.950824 
L 389.476263 91.950824 
L 389.782115 91.519002 
L 390.673613 91.519002 
L 390.962647 91.111283 
L 391.389084 91.111283 
L 391.529398 90.913456 
L 391.807221 90.913456 
L 392.353085 90.336094 
L 392.753868 90.336094 
L 393.277508 89.782622 
L 393.662569 89.782622 
L 393.915776 89.604014 
L 394.041358 89.604014 
L 394.290524 89.428332 
L 394.659411 89.428332 
L 395.142526 88.918692 
L 395.965318 88.918692 
L 396.195378 88.756844 
L 396.309603 88.756844 
L 396.536477 88.597301 
L 396.649137 88.597301 
L 396.911844 88.227336 
L 397.174464 88.227336 
L 397.437026 87.857738 
L 398.22467 87.857738 
L 398.487273 87.488472 
L 398.487273 87.488472 
" style="fill:none;stroke:#ff7f0e;stroke-linecap:square;stroke-width:1.5;"/>
   </g>
   <g id="patch_3">
    <path d="M 57.6 307.584 
L 57.6 41.472 
" style="fill:none;stroke:#000000;stroke-linecap:square;stroke-linejoin:miter;stroke-width:0.8;"/>
   </g>
   <g id="patch_4">
    <path d="M 414.72 307.584 
L 414.72 41.472 
" style="fill:none;stroke:#000000;stroke-linecap:square;stroke-linejoin:miter;stroke-width:0.8;"/>
   </g>
   <g id="patch_5">
    <path d="M 57.6 307.584 
L 414.72 307.584 
" style="fill:none;stroke:#000000;stroke-linecap:square;stroke-linejoin:miter;stroke-width:0.8;"/>
   </g>
   <g id="patch_6">
    <path d="M 57.6 41.472 
L 414.72 41.472 
" style="fill:none;stroke:#000000;stroke-linecap:square;stroke-linejoin:miter;stroke-width:0.8;"/>
   </g>
   <g id="legend_1">
    <g id="patch_7">
     <path d="M 64.6 78.82825 
L 142.6625 78.82825 
Q 144.6625 78.82825 144.6625 76.82825 
L 144.6625 48.472 
Q 144.6625 46.472 142.6625 46.472 
L 64.6 46.472 
Q 62.6 46.472 62.6 48.472 
L 62.6 76.82825 
Q 62.6 78.82825 64.6 78.82825 
z
" style="fill:#ffffff;opacity:0.8;stroke:#cccccc;stroke-linejoin:miter;"/>
    </g>
    <g id="line2d_17">
     <path d="M 66.6 54.570437 
L 86.6 54.570437 
" style="fill:none;stroke:#1f77b4;stroke-linecap:square;stroke-width:1.5;"/>
    </g>
    <g id="line2d_18"/>
    <g id="text_17">
     <!-- Finescale -->
     <g transform="translate(94.6 58.070437)scale(0.1 -0.1)">
      <defs>
       <path d="M 9.8125 72.90625 
L 51.703125 72.90625 
L 51.703125 64.59375 
L 19.671875 64.59375 
L 19.671875 43.109375 
L 48.578125 43.109375 
L 48.578125 34.8125 
L 19.671875 34.8125 
L 19.671875 0 
L 9.8125 0 
z
" id="DejaVuSans-70"/>
      </defs>
      <use xlink:href="#DejaVuSans-70"/>
      <use x="50.269531" xlink:href="#DejaVuSans-105"/>
      <use x="78.052734" xlink:href="#DejaVuSans-110"/>
      <use x="141.431641" xlink:href="#DejaVuSans-101"/>
      <use x="202.955078" xlink:href="#DejaVuSans-115"/>
      <use x="255.054688" xlink:href="#DejaVuSans-99"/>
      <use x="310.035156" xlink:href="#DejaVuSans-97"/>
      <use x="371.314453" xlink:href="#DejaVuSans-108"/>
      <use x="399.097656" xlink:href="#DejaVuSans-101"/>
     </g>
    </g>
    <g id="line2d_19">
     <path d="M 66.6 69.248562 
L 86.6 69.248562 
" style="fill:none;stroke:#ff7f0e;stroke-linecap:square;stroke-width:1.5;"/>
    </g>
    <g id="line2d_20"/>
    <g id="text_18">
     <!-- Adm -->
     <g transform="translate(94.6 72.748562)scale(0.1 -0.1)">
      <defs>
       <path d="M 34.1875 63.1875 
L 20.796875 26.90625 
L 47.609375 26.90625 
z
M 28.609375 72.90625 
L 39.796875 72.90625 
L 67.578125 0 
L 57.328125 0 
L 50.6875 18.703125 
L 17.828125 18.703125 
L 11.1875 0 
L 0.78125 0 
z
" id="DejaVuSans-65"/>
      </defs>
      <use xlink:href="#DejaVuSans-65"/>
      <use x="66.658203" xlink:href="#DejaVuSans-100"/>
      <use x="130.134766" xlink:href="#DejaVuSans-109"/>
     </g>
    </g>
   </g>
  </g>
 </g>
 <defs>
  <clipPath id="pfe0ab9a8aa">
   <rect height="266.112" width="357.12" x="57.6" y="41.472"/>
  </clipPath>
 </defs>
</svg>
