<?xml version="1.0" encoding="utf-8" standalone="no"?>
<!DOCTYPE svg PUBLIC "-//W3C//DTD SVG 1.1//EN"
  "http://www.w3.org/Graphics/SVG/1.1/DTD/svg11.dtd">
<!-- Created with matplotlib (https://matplotlib.org/) -->
<svg height="345.6pt" version="1.1" viewBox="0 0 460.8 345.6" width="460.8pt" xmlns="http://www.w3.org/2000/svg" xmlns:xlink="http://www.w3.org/1999/xlink">
 <metadata>
  <rdf:RDF xmlns:cc="http://creativecommons.org/ns#" xmlns:dc="http://purl.org/dc/elements/1.1/" xmlns:rdf="http://www.w3.org/1999/02/22-rdf-syntax-ns#">
   <cc:Work>
    <dc:type rdf:resource="http://purl.org/dc/dcmitype/StillImage"/>
    <dc:date>2022-10-18T02:03:39.654491</dc:date>
    <dc:format>image/svg+xml</dc:format>
    <dc:creator>
     <cc:Agent>
      <dc:title>Matplotlib v3.3.4, https://matplotlib.org/</dc:title>
     </cc:Agent>
    </dc:creator>
   </cc:Work>
  </rdf:RDF>
 </metadata>
 <defs>
  <style type="text/css">*{stroke-linecap:butt;stroke-linejoin:round;}</style>
 </defs>
 <g id="figure_1">
  <g id="patch_1">
   <path d="M 0 345.6 
L 460.8 345.6 
L 460.8 0 
L 0 0 
z
" style="fill:#ffffff;"/>
  </g>
  <g id="axes_1">
   <g id="patch_2">
    <path d="M 57.6 307.584 
L 414.72 307.584 
L 414.72 41.472 
L 57.6 41.472 
z
" style="fill:#ffffff;"/>
   </g>
   <g id="matplotlib.axis_1">
    <g id="xtick_1">
     <g id="line2d_1">
      <defs>
       <path d="M 0 0 
L 0 3.5 
" id="m1fc1e352ed" style="stroke:#000000;stroke-width:0.8;"/>
      </defs>
      <g>
       <use style="stroke:#000000;stroke-width:0.8;" x="73.56191" xlink:href="#m1fc1e352ed" y="307.584"/>
      </g>
     </g>
     <g id="text_1">
      <!-- 0.0 -->
      <g transform="translate(65.610347 322.182437)scale(0.1 -0.1)">
       <defs>
        <path d="M 31.78125 66.40625 
Q 24.171875 66.40625 20.328125 58.90625 
Q 16.5 51.421875 16.5 36.375 
Q 16.5 21.390625 20.328125 13.890625 
Q 24.171875 6.390625 31.78125 6.390625 
Q 39.453125 6.390625 43.28125 13.890625 
Q 47.125 21.390625 47.125 36.375 
Q 47.125 51.421875 43.28125 58.90625 
Q 39.453125 66.40625 31.78125 66.40625 
z
M 31.78125 74.21875 
Q 44.046875 74.21875 50.515625 64.515625 
Q 56.984375 54.828125 56.984375 36.375 
Q 56.984375 17.96875 50.515625 8.265625 
Q 44.046875 -1.421875 31.78125 -1.421875 
Q 19.53125 -1.421875 13.0625 8.265625 
Q 6.59375 17.96875 6.59375 36.375 
Q 6.59375 54.828125 13.0625 64.515625 
Q 19.53125 74.21875 31.78125 74.21875 
z
" id="DejaVuSans-48"/>
        <path d="M 10.6875 12.40625 
L 21 12.40625 
L 21 0 
L 10.6875 0 
z
" id="DejaVuSans-46"/>
       </defs>
       <use xlink:href="#DejaVuSans-48"/>
       <use x="63.623047" xlink:href="#DejaVuSans-46"/>
       <use x="95.410156" xlink:href="#DejaVuSans-48"/>
      </g>
     </g>
    </g>
    <g id="xtick_2">
     <g id="line2d_2">
      <g>
       <use style="stroke:#000000;stroke-width:0.8;" x="127.725431" xlink:href="#m1fc1e352ed" y="307.584"/>
      </g>
     </g>
     <g id="text_2">
      <!-- 0.2 -->
      <g transform="translate(119.773868 322.182437)scale(0.1 -0.1)">
       <defs>
        <path d="M 19.1875 8.296875 
L 53.609375 8.296875 
L 53.609375 0 
L 7.328125 0 
L 7.328125 8.296875 
Q 12.9375 14.109375 22.625 23.890625 
Q 32.328125 33.6875 34.8125 36.53125 
Q 39.546875 41.84375 41.421875 45.53125 
Q 43.3125 49.21875 43.3125 52.78125 
Q 43.3125 58.59375 39.234375 62.25 
Q 35.15625 65.921875 28.609375 65.921875 
Q 23.96875 65.921875 18.8125 64.3125 
Q 13.671875 62.703125 7.8125 59.421875 
L 7.8125 69.390625 
Q 13.765625 71.78125 18.9375 73 
Q 24.125 74.21875 28.421875 74.21875 
Q 39.75 74.21875 46.484375 68.546875 
Q 53.21875 62.890625 53.21875 53.421875 
Q 53.21875 48.921875 51.53125 44.890625 
Q 49.859375 40.875 45.40625 35.40625 
Q 44.1875 33.984375 37.640625 27.21875 
Q 31.109375 20.453125 19.1875 8.296875 
z
" id="DejaVuSans-50"/>
       </defs>
       <use xlink:href="#DejaVuSans-48"/>
       <use x="63.623047" xlink:href="#DejaVuSans-46"/>
       <use x="95.410156" xlink:href="#DejaVuSans-50"/>
      </g>
     </g>
    </g>
    <g id="xtick_3">
     <g id="line2d_3">
      <g>
       <use style="stroke:#000000;stroke-width:0.8;" x="181.888952" xlink:href="#m1fc1e352ed" y="307.584"/>
      </g>
     </g>
     <g id="text_3">
      <!-- 0.4 -->
      <g transform="translate(173.937389 322.182437)scale(0.1 -0.1)">
       <defs>
        <path d="M 37.796875 64.3125 
L 12.890625 25.390625 
L 37.796875 25.390625 
z
M 35.203125 72.90625 
L 47.609375 72.90625 
L 47.609375 25.390625 
L 58.015625 25.390625 
L 58.015625 17.1875 
L 47.609375 17.1875 
L 47.609375 0 
L 37.796875 0 
L 37.796875 17.1875 
L 4.890625 17.1875 
L 4.890625 26.703125 
z
" id="DejaVuSans-52"/>
       </defs>
       <use xlink:href="#DejaVuSans-48"/>
       <use x="63.623047" xlink:href="#DejaVuSans-46"/>
       <use x="95.410156" xlink:href="#DejaVuSans-52"/>
      </g>
     </g>
    </g>
    <g id="xtick_4">
     <g id="line2d_4">
      <g>
       <use style="stroke:#000000;stroke-width:0.8;" x="236.052473" xlink:href="#m1fc1e352ed" y="307.584"/>
      </g>
     </g>
     <g id="text_4">
      <!-- 0.6 -->
      <g transform="translate(228.100911 322.182437)scale(0.1 -0.1)">
       <defs>
        <path d="M 33.015625 40.375 
Q 26.375 40.375 22.484375 35.828125 
Q 18.609375 31.296875 18.609375 23.390625 
Q 18.609375 15.53125 22.484375 10.953125 
Q 26.375 6.390625 33.015625 6.390625 
Q 39.65625 6.390625 43.53125 10.953125 
Q 47.40625 15.53125 47.40625 23.390625 
Q 47.40625 31.296875 43.53125 35.828125 
Q 39.65625 40.375 33.015625 40.375 
z
M 52.59375 71.296875 
L 52.59375 62.3125 
Q 48.875 64.0625 45.09375 64.984375 
Q 41.3125 65.921875 37.59375 65.921875 
Q 27.828125 65.921875 22.671875 59.328125 
Q 17.53125 52.734375 16.796875 39.40625 
Q 19.671875 43.65625 24.015625 45.921875 
Q 28.375 48.1875 33.59375 48.1875 
Q 44.578125 48.1875 50.953125 41.515625 
Q 57.328125 34.859375 57.328125 23.390625 
Q 57.328125 12.15625 50.6875 5.359375 
Q 44.046875 -1.421875 33.015625 -1.421875 
Q 20.359375 -1.421875 13.671875 8.265625 
Q 6.984375 17.96875 6.984375 36.375 
Q 6.984375 53.65625 15.1875 63.9375 
Q 23.390625 74.21875 37.203125 74.21875 
Q 40.921875 74.21875 44.703125 73.484375 
Q 48.484375 72.75 52.59375 71.296875 
z
" id="DejaVuSans-54"/>
       </defs>
       <use xlink:href="#DejaVuSans-48"/>
       <use x="63.623047" xlink:href="#DejaVuSans-46"/>
       <use x="95.410156" xlink:href="#DejaVuSans-54"/>
      </g>
     </g>
    </g>
    <g id="xtick_5">
     <g id="line2d_5">
      <g>
       <use style="stroke:#000000;stroke-width:0.8;" x="290.215994" xlink:href="#m1fc1e352ed" y="307.584"/>
      </g>
     </g>
     <g id="text_5">
      <!-- 0.8 -->
      <g transform="translate(282.264432 322.182437)scale(0.1 -0.1)">
       <defs>
        <path d="M 31.78125 34.625 
Q 24.75 34.625 20.71875 30.859375 
Q 16.703125 27.09375 16.703125 20.515625 
Q 16.703125 13.921875 20.71875 10.15625 
Q 24.75 6.390625 31.78125 6.390625 
Q 38.8125 6.390625 42.859375 10.171875 
Q 46.921875 13.96875 46.921875 20.515625 
Q 46.921875 27.09375 42.890625 30.859375 
Q 38.875 34.625 31.78125 34.625 
z
M 21.921875 38.8125 
Q 15.578125 40.375 12.03125 44.71875 
Q 8.5 49.078125 8.5 55.328125 
Q 8.5 64.0625 14.71875 69.140625 
Q 20.953125 74.21875 31.78125 74.21875 
Q 42.671875 74.21875 48.875 69.140625 
Q 55.078125 64.0625 55.078125 55.328125 
Q 55.078125 49.078125 51.53125 44.71875 
Q 48 40.375 41.703125 38.8125 
Q 48.828125 37.15625 52.796875 32.3125 
Q 56.78125 27.484375 56.78125 20.515625 
Q 56.78125 9.90625 50.3125 4.234375 
Q 43.84375 -1.421875 31.78125 -1.421875 
Q 19.734375 -1.421875 13.25 4.234375 
Q 6.78125 9.90625 6.78125 20.515625 
Q 6.78125 27.484375 10.78125 32.3125 
Q 14.796875 37.15625 21.921875 38.8125 
z
M 18.3125 54.390625 
Q 18.3125 48.734375 21.84375 45.5625 
Q 25.390625 42.390625 31.78125 42.390625 
Q 38.140625 42.390625 41.71875 45.5625 
Q 45.3125 48.734375 45.3125 54.390625 
Q 45.3125 60.0625 41.71875 63.234375 
Q 38.140625 66.40625 31.78125 66.40625 
Q 25.390625 66.40625 21.84375 63.234375 
Q 18.3125 60.0625 18.3125 54.390625 
z
" id="DejaVuSans-56"/>
       </defs>
       <use xlink:href="#DejaVuSans-48"/>
       <use x="63.623047" xlink:href="#DejaVuSans-46"/>
       <use x="95.410156" xlink:href="#DejaVuSans-56"/>
      </g>
     </g>
    </g>
    <g id="xtick_6">
     <g id="line2d_6">
      <g>
       <use style="stroke:#000000;stroke-width:0.8;" x="344.379515" xlink:href="#m1fc1e352ed" y="307.584"/>
      </g>
     </g>
     <g id="text_6">
      <!-- 1.0 -->
      <g transform="translate(336.427953 322.182437)scale(0.1 -0.1)">
       <defs>
        <path d="M 12.40625 8.296875 
L 28.515625 8.296875 
L 28.515625 63.921875 
L 10.984375 60.40625 
L 10.984375 69.390625 
L 28.421875 72.90625 
L 38.28125 72.90625 
L 38.28125 8.296875 
L 54.390625 8.296875 
L 54.390625 0 
L 12.40625 0 
z
" id="DejaVuSans-49"/>
       </defs>
       <use xlink:href="#DejaVuSans-49"/>
       <use x="63.623047" xlink:href="#DejaVuSans-46"/>
       <use x="95.410156" xlink:href="#DejaVuSans-48"/>
      </g>
     </g>
    </g>
    <g id="xtick_7">
     <g id="line2d_7">
      <g>
       <use style="stroke:#000000;stroke-width:0.8;" x="398.543036" xlink:href="#m1fc1e352ed" y="307.584"/>
      </g>
     </g>
     <g id="text_7">
      <!-- 1.2 -->
      <g transform="translate(390.591474 322.182437)scale(0.1 -0.1)">
       <use xlink:href="#DejaVuSans-49"/>
       <use x="63.623047" xlink:href="#DejaVuSans-46"/>
       <use x="95.410156" xlink:href="#DejaVuSans-50"/>
      </g>
     </g>
    </g>
    <g id="text_8">
     <!-- time [days] -->
     <g transform="translate(207.570937 335.860562)scale(0.1 -0.1)">
      <defs>
       <path d="M 18.3125 70.21875 
L 18.3125 54.6875 
L 36.8125 54.6875 
L 36.8125 47.703125 
L 18.3125 47.703125 
L 18.3125 18.015625 
Q 18.3125 11.328125 20.140625 9.421875 
Q 21.96875 7.515625 27.59375 7.515625 
L 36.8125 7.515625 
L 36.8125 0 
L 27.59375 0 
Q 17.1875 0 13.234375 3.875 
Q 9.28125 7.765625 9.28125 18.015625 
L 9.28125 47.703125 
L 2.6875 47.703125 
L 2.6875 54.6875 
L 9.28125 54.6875 
L 9.28125 70.21875 
z
" id="DejaVuSans-116"/>
       <path d="M 9.421875 54.6875 
L 18.40625 54.6875 
L 18.40625 0 
L 9.421875 0 
z
M 9.421875 75.984375 
L 18.40625 75.984375 
L 18.40625 64.59375 
L 9.421875 64.59375 
z
" id="DejaVuSans-105"/>
       <path d="M 52 44.1875 
Q 55.375 50.25 60.0625 53.125 
Q 64.75 56 71.09375 56 
Q 79.640625 56 84.28125 50.015625 
Q 88.921875 44.046875 88.921875 33.015625 
L 88.921875 0 
L 79.890625 0 
L 79.890625 32.71875 
Q 79.890625 40.578125 77.09375 44.375 
Q 74.3125 48.1875 68.609375 48.1875 
Q 61.625 48.1875 57.5625 43.546875 
Q 53.515625 38.921875 53.515625 30.90625 
L 53.515625 0 
L 44.484375 0 
L 44.484375 32.71875 
Q 44.484375 40.625 41.703125 44.40625 
Q 38.921875 48.1875 33.109375 48.1875 
Q 26.21875 48.1875 22.15625 43.53125 
Q 18.109375 38.875 18.109375 30.90625 
L 18.109375 0 
L 9.078125 0 
L 9.078125 54.6875 
L 18.109375 54.6875 
L 18.109375 46.1875 
Q 21.1875 51.21875 25.484375 53.609375 
Q 29.78125 56 35.6875 56 
Q 41.65625 56 45.828125 52.96875 
Q 50 49.953125 52 44.1875 
z
" id="DejaVuSans-109"/>
       <path d="M 56.203125 29.59375 
L 56.203125 25.203125 
L 14.890625 25.203125 
Q 15.484375 15.921875 20.484375 11.0625 
Q 25.484375 6.203125 34.421875 6.203125 
Q 39.59375 6.203125 44.453125 7.46875 
Q 49.3125 8.734375 54.109375 11.28125 
L 54.109375 2.78125 
Q 49.265625 0.734375 44.1875 -0.34375 
Q 39.109375 -1.421875 33.890625 -1.421875 
Q 20.796875 -1.421875 13.15625 6.1875 
Q 5.515625 13.8125 5.515625 26.8125 
Q 5.515625 40.234375 12.765625 48.109375 
Q 20.015625 56 32.328125 56 
Q 43.359375 56 49.78125 48.890625 
Q 56.203125 41.796875 56.203125 29.59375 
z
M 47.21875 32.234375 
Q 47.125 39.59375 43.09375 43.984375 
Q 39.0625 48.390625 32.421875 48.390625 
Q 24.90625 48.390625 20.390625 44.140625 
Q 15.875 39.890625 15.1875 32.171875 
z
" id="DejaVuSans-101"/>
       <path id="DejaVuSans-32"/>
       <path d="M 8.59375 75.984375 
L 29.296875 75.984375 
L 29.296875 69 
L 17.578125 69 
L 17.578125 -6.203125 
L 29.296875 -6.203125 
L 29.296875 -13.1875 
L 8.59375 -13.1875 
z
" id="DejaVuSans-91"/>
       <path d="M 45.40625 46.390625 
L 45.40625 75.984375 
L 54.390625 75.984375 
L 54.390625 0 
L 45.40625 0 
L 45.40625 8.203125 
Q 42.578125 3.328125 38.25 0.953125 
Q 33.9375 -1.421875 27.875 -1.421875 
Q 17.96875 -1.421875 11.734375 6.484375 
Q 5.515625 14.40625 5.515625 27.296875 
Q 5.515625 40.1875 11.734375 48.09375 
Q 17.96875 56 27.875 56 
Q 33.9375 56 38.25 53.625 
Q 42.578125 51.265625 45.40625 46.390625 
z
M 14.796875 27.296875 
Q 14.796875 17.390625 18.875 11.75 
Q 22.953125 6.109375 30.078125 6.109375 
Q 37.203125 6.109375 41.296875 11.75 
Q 45.40625 17.390625 45.40625 27.296875 
Q 45.40625 37.203125 41.296875 42.84375 
Q 37.203125 48.484375 30.078125 48.484375 
Q 22.953125 48.484375 18.875 42.84375 
Q 14.796875 37.203125 14.796875 27.296875 
z
" id="DejaVuSans-100"/>
       <path d="M 34.28125 27.484375 
Q 23.390625 27.484375 19.1875 25 
Q 14.984375 22.515625 14.984375 16.5 
Q 14.984375 11.71875 18.140625 8.90625 
Q 21.296875 6.109375 26.703125 6.109375 
Q 34.1875 6.109375 38.703125 11.40625 
Q 43.21875 16.703125 43.21875 25.484375 
L 43.21875 27.484375 
z
M 52.203125 31.203125 
L 52.203125 0 
L 43.21875 0 
L 43.21875 8.296875 
Q 40.140625 3.328125 35.546875 0.953125 
Q 30.953125 -1.421875 24.3125 -1.421875 
Q 15.921875 -1.421875 10.953125 3.296875 
Q 6 8.015625 6 15.921875 
Q 6 25.140625 12.171875 29.828125 
Q 18.359375 34.515625 30.609375 34.515625 
L 43.21875 34.515625 
L 43.21875 35.40625 
Q 43.21875 41.609375 39.140625 45 
Q 35.0625 48.390625 27.6875 48.390625 
Q 23 48.390625 18.546875 47.265625 
Q 14.109375 46.140625 10.015625 43.890625 
L 10.015625 52.203125 
Q 14.9375 54.109375 19.578125 55.046875 
Q 24.21875 56 28.609375 56 
Q 40.484375 56 46.34375 49.84375 
Q 52.203125 43.703125 52.203125 31.203125 
z
" id="DejaVuSans-97"/>
       <path d="M 32.171875 -5.078125 
Q 28.375 -14.84375 24.75 -17.8125 
Q 21.140625 -20.796875 15.09375 -20.796875 
L 7.90625 -20.796875 
L 7.90625 -13.28125 
L 13.1875 -13.28125 
Q 16.890625 -13.28125 18.9375 -11.515625 
Q 21 -9.765625 23.484375 -3.21875 
L 25.09375 0.875 
L 2.984375 54.6875 
L 12.5 54.6875 
L 29.59375 11.921875 
L 46.6875 54.6875 
L 56.203125 54.6875 
z
" id="DejaVuSans-121"/>
       <path d="M 44.28125 53.078125 
L 44.28125 44.578125 
Q 40.484375 46.53125 36.375 47.5 
Q 32.28125 48.484375 27.875 48.484375 
Q 21.1875 48.484375 17.84375 46.4375 
Q 14.5 44.390625 14.5 40.28125 
Q 14.5 37.15625 16.890625 35.375 
Q 19.28125 33.59375 26.515625 31.984375 
L 29.59375 31.296875 
Q 39.15625 29.25 43.1875 25.515625 
Q 47.21875 21.78125 47.21875 15.09375 
Q 47.21875 7.46875 41.1875 3.015625 
Q 35.15625 -1.421875 24.609375 -1.421875 
Q 20.21875 -1.421875 15.453125 -0.5625 
Q 10.6875 0.296875 5.421875 2 
L 5.421875 11.28125 
Q 10.40625 8.6875 15.234375 7.390625 
Q 20.0625 6.109375 24.8125 6.109375 
Q 31.15625 6.109375 34.5625 8.28125 
Q 37.984375 10.453125 37.984375 14.40625 
Q 37.984375 18.0625 35.515625 20.015625 
Q 33.0625 21.96875 24.703125 23.78125 
L 21.578125 24.515625 
Q 13.234375 26.265625 9.515625 29.90625 
Q 5.8125 33.546875 5.8125 39.890625 
Q 5.8125 47.609375 11.28125 51.796875 
Q 16.75 56 26.8125 56 
Q 31.78125 56 36.171875 55.265625 
Q 40.578125 54.546875 44.28125 53.078125 
z
" id="DejaVuSans-115"/>
       <path d="M 30.421875 75.984375 
L 30.421875 -13.1875 
L 9.71875 -13.1875 
L 9.71875 -6.203125 
L 21.390625 -6.203125 
L 21.390625 69 
L 9.71875 69 
L 9.71875 75.984375 
z
" id="DejaVuSans-93"/>
      </defs>
      <use xlink:href="#DejaVuSans-116"/>
      <use x="39.208984" xlink:href="#DejaVuSans-105"/>
      <use x="66.992188" xlink:href="#DejaVuSans-109"/>
      <use x="164.404297" xlink:href="#DejaVuSans-101"/>
      <use x="225.927734" xlink:href="#DejaVuSans-32"/>
      <use x="257.714844" xlink:href="#DejaVuSans-91"/>
      <use x="296.728516" xlink:href="#DejaVuSans-100"/>
      <use x="360.205078" xlink:href="#DejaVuSans-97"/>
      <use x="421.484375" xlink:href="#DejaVuSans-121"/>
      <use x="480.664062" xlink:href="#DejaVuSans-115"/>
      <use x="532.763672" xlink:href="#DejaVuSans-93"/>
     </g>
    </g>
   </g>
   <g id="matplotlib.axis_2">
    <g id="ytick_1">
     <g id="line2d_8">
      <defs>
       <path d="M 0 0 
L -3.5 0 
" id="m9242b3a040" style="stroke:#000000;stroke-width:0.8;"/>
      </defs>
      <g>
       <use style="stroke:#000000;stroke-width:0.8;" x="57.6" xlink:href="#m9242b3a040" y="299.153455"/>
      </g>
     </g>
     <g id="text_9">
      <!-- 0 -->
      <g transform="translate(44.2375 302.952673)scale(0.1 -0.1)">
       <use xlink:href="#DejaVuSans-48"/>
      </g>
     </g>
    </g>
    <g id="ytick_2">
     <g id="line2d_9">
      <g>
       <use style="stroke:#000000;stroke-width:0.8;" x="57.6" xlink:href="#m9242b3a040" y="262.498909"/>
      </g>
     </g>
     <g id="text_10">
      <!-- 10 -->
      <g transform="translate(37.875 266.298128)scale(0.1 -0.1)">
       <use xlink:href="#DejaVuSans-49"/>
       <use x="63.623047" xlink:href="#DejaVuSans-48"/>
      </g>
     </g>
    </g>
    <g id="ytick_3">
     <g id="line2d_10">
      <g>
       <use style="stroke:#000000;stroke-width:0.8;" x="57.6" xlink:href="#m9242b3a040" y="225.844364"/>
      </g>
     </g>
     <g id="text_11">
      <!-- 20 -->
      <g transform="translate(37.875 229.643582)scale(0.1 -0.1)">
       <use xlink:href="#DejaVuSans-50"/>
       <use x="63.623047" xlink:href="#DejaVuSans-48"/>
      </g>
     </g>
    </g>
    <g id="ytick_4">
     <g id="line2d_11">
      <g>
       <use style="stroke:#000000;stroke-width:0.8;" x="57.6" xlink:href="#m9242b3a040" y="189.189818"/>
      </g>
     </g>
     <g id="text_12">
      <!-- 30 -->
      <g transform="translate(37.875 192.989037)scale(0.1 -0.1)">
       <defs>
        <path d="M 40.578125 39.3125 
Q 47.65625 37.796875 51.625 33 
Q 55.609375 28.21875 55.609375 21.1875 
Q 55.609375 10.40625 48.1875 4.484375 
Q 40.765625 -1.421875 27.09375 -1.421875 
Q 22.515625 -1.421875 17.65625 -0.515625 
Q 12.796875 0.390625 7.625 2.203125 
L 7.625 11.71875 
Q 11.71875 9.328125 16.59375 8.109375 
Q 21.484375 6.890625 26.8125 6.890625 
Q 36.078125 6.890625 40.9375 10.546875 
Q 45.796875 14.203125 45.796875 21.1875 
Q 45.796875 27.640625 41.28125 31.265625 
Q 36.765625 34.90625 28.71875 34.90625 
L 20.21875 34.90625 
L 20.21875 43.015625 
L 29.109375 43.015625 
Q 36.375 43.015625 40.234375 45.921875 
Q 44.09375 48.828125 44.09375 54.296875 
Q 44.09375 59.90625 40.109375 62.90625 
Q 36.140625 65.921875 28.71875 65.921875 
Q 24.65625 65.921875 20.015625 65.03125 
Q 15.375 64.15625 9.8125 62.3125 
L 9.8125 71.09375 
Q 15.4375 72.65625 20.34375 73.4375 
Q 25.25 74.21875 29.59375 74.21875 
Q 40.828125 74.21875 47.359375 69.109375 
Q 53.90625 64.015625 53.90625 55.328125 
Q 53.90625 49.265625 50.4375 45.09375 
Q 46.96875 40.921875 40.578125 39.3125 
z
" id="DejaVuSans-51"/>
       </defs>
       <use xlink:href="#DejaVuSans-51"/>
       <use x="63.623047" xlink:href="#DejaVuSans-48"/>
      </g>
     </g>
    </g>
    <g id="ytick_5">
     <g id="line2d_12">
      <g>
       <use style="stroke:#000000;stroke-width:0.8;" x="57.6" xlink:href="#m9242b3a040" y="152.535273"/>
      </g>
     </g>
     <g id="text_13">
      <!-- 40 -->
      <g transform="translate(37.875 156.334491)scale(0.1 -0.1)">
       <use xlink:href="#DejaVuSans-52"/>
       <use x="63.623047" xlink:href="#DejaVuSans-48"/>
      </g>
     </g>
    </g>
    <g id="ytick_6">
     <g id="line2d_13">
      <g>
       <use style="stroke:#000000;stroke-width:0.8;" x="57.6" xlink:href="#m9242b3a040" y="115.880727"/>
      </g>
     </g>
     <g id="text_14">
      <!-- 50 -->
      <g transform="translate(37.875 119.679946)scale(0.1 -0.1)">
       <defs>
        <path d="M 10.796875 72.90625 
L 49.515625 72.90625 
L 49.515625 64.59375 
L 19.828125 64.59375 
L 19.828125 46.734375 
Q 21.96875 47.46875 24.109375 47.828125 
Q 26.265625 48.1875 28.421875 48.1875 
Q 40.625 48.1875 47.75 41.5 
Q 54.890625 34.8125 54.890625 23.390625 
Q 54.890625 11.625 47.5625 5.09375 
Q 40.234375 -1.421875 26.90625 -1.421875 
Q 22.3125 -1.421875 17.546875 -0.640625 
Q 12.796875 0.140625 7.71875 1.703125 
L 7.71875 11.625 
Q 12.109375 9.234375 16.796875 8.0625 
Q 21.484375 6.890625 26.703125 6.890625 
Q 35.15625 6.890625 40.078125 11.328125 
Q 45.015625 15.765625 45.015625 23.390625 
Q 45.015625 31 40.078125 35.4375 
Q 35.15625 39.890625 26.703125 39.890625 
Q 22.75 39.890625 18.8125 39.015625 
Q 14.890625 38.140625 10.796875 36.28125 
z
" id="DejaVuSans-53"/>
       </defs>
       <use xlink:href="#DejaVuSans-53"/>
       <use x="63.623047" xlink:href="#DejaVuSans-48"/>
      </g>
     </g>
    </g>
    <g id="ytick_7">
     <g id="line2d_14">
      <g>
       <use style="stroke:#000000;stroke-width:0.8;" x="57.6" xlink:href="#m9242b3a040" y="79.226182"/>
      </g>
     </g>
     <g id="text_15">
      <!-- 60 -->
      <g transform="translate(37.875 83.025401)scale(0.1 -0.1)">
       <use xlink:href="#DejaVuSans-54"/>
       <use x="63.623047" xlink:href="#DejaVuSans-48"/>
      </g>
     </g>
    </g>
    <g id="ytick_8">
     <g id="line2d_15">
      <g>
       <use style="stroke:#000000;stroke-width:0.8;" x="57.6" xlink:href="#m9242b3a040" y="42.571636"/>
      </g>
     </g>
     <g id="text_16">
      <!-- 70 -->
      <g transform="translate(37.875 46.370855)scale(0.1 -0.1)">
       <defs>
        <path d="M 8.203125 72.90625 
L 55.078125 72.90625 
L 55.078125 68.703125 
L 28.609375 0 
L 18.3125 0 
L 43.21875 64.59375 
L 8.203125 64.59375 
z
" id="DejaVuSans-55"/>
       </defs>
       <use xlink:href="#DejaVuSans-55"/>
       <use x="63.623047" xlink:href="#DejaVuSans-48"/>
      </g>
     </g>
    </g>
    <g id="text_17">
     <!-- Iterations -->
     <g transform="translate(31.795312 198.341281)rotate(-90)scale(0.1 -0.1)">
      <defs>
       <path d="M 9.8125 72.90625 
L 19.671875 72.90625 
L 19.671875 0 
L 9.8125 0 
z
" id="DejaVuSans-73"/>
       <path d="M 41.109375 46.296875 
Q 39.59375 47.171875 37.8125 47.578125 
Q 36.03125 48 33.890625 48 
Q 26.265625 48 22.1875 43.046875 
Q 18.109375 38.09375 18.109375 28.8125 
L 18.109375 0 
L 9.078125 0 
L 9.078125 54.6875 
L 18.109375 54.6875 
L 18.109375 46.1875 
Q 20.953125 51.171875 25.484375 53.578125 
Q 30.03125 56 36.53125 56 
Q 37.453125 56 38.578125 55.875 
Q 39.703125 55.765625 41.0625 55.515625 
z
" id="DejaVuSans-114"/>
       <path d="M 30.609375 48.390625 
Q 23.390625 48.390625 19.1875 42.75 
Q 14.984375 37.109375 14.984375 27.296875 
Q 14.984375 17.484375 19.15625 11.84375 
Q 23.34375 6.203125 30.609375 6.203125 
Q 37.796875 6.203125 41.984375 11.859375 
Q 46.1875 17.53125 46.1875 27.296875 
Q 46.1875 37.015625 41.984375 42.703125 
Q 37.796875 48.390625 30.609375 48.390625 
z
M 30.609375 56 
Q 42.328125 56 49.015625 48.375 
Q 55.71875 40.765625 55.71875 27.296875 
Q 55.71875 13.875 49.015625 6.21875 
Q 42.328125 -1.421875 30.609375 -1.421875 
Q 18.84375 -1.421875 12.171875 6.21875 
Q 5.515625 13.875 5.515625 27.296875 
Q 5.515625 40.765625 12.171875 48.375 
Q 18.84375 56 30.609375 56 
z
" id="DejaVuSans-111"/>
       <path d="M 54.890625 33.015625 
L 54.890625 0 
L 45.90625 0 
L 45.90625 32.71875 
Q 45.90625 40.484375 42.875 44.328125 
Q 39.84375 48.1875 33.796875 48.1875 
Q 26.515625 48.1875 22.3125 43.546875 
Q 18.109375 38.921875 18.109375 30.90625 
L 18.109375 0 
L 9.078125 0 
L 9.078125 54.6875 
L 18.109375 54.6875 
L 18.109375 46.1875 
Q 21.34375 51.125 25.703125 53.5625 
Q 30.078125 56 35.796875 56 
Q 45.21875 56 50.046875 50.171875 
Q 54.890625 44.34375 54.890625 33.015625 
z
" id="DejaVuSans-110"/>
      </defs>
      <use xlink:href="#DejaVuSans-73"/>
      <use x="29.492188" xlink:href="#DejaVuSans-116"/>
      <use x="68.701172" xlink:href="#DejaVuSans-101"/>
      <use x="130.224609" xlink:href="#DejaVuSans-114"/>
      <use x="171.337891" xlink:href="#DejaVuSans-97"/>
      <use x="232.617188" xlink:href="#DejaVuSans-116"/>
      <use x="271.826172" xlink:href="#DejaVuSans-105"/>
      <use x="299.609375" xlink:href="#DejaVuSans-111"/>
      <use x="360.791016" xlink:href="#DejaVuSans-110"/>
      <use x="424.169922" xlink:href="#DejaVuSans-115"/>
     </g>
    </g>
   </g>
   <g id="line2d_16">
    <path clip-path="url(#p7653579d97)" d="M 73.832727 258.833455 
L 73.833219 295.488 
L 73.943323 291.822545 
L 75.058393 291.822545 
L 75.174464 284.491636 
L 75.177702 284.491636 
L 75.284196 280.826182 
L 75.287616 288.157091 
L 75.367864 280.826182 
L 75.396502 284.491636 
L 75.488486 288.157091 
L 75.410965 280.826182 
L 75.503561 284.491636 
L 75.607974 277.160727 
L 75.522545 288.157091 
L 75.615896 280.826182 
L 75.692484 288.157091 
L 75.672094 277.160727 
L 75.721316 284.491636 
L 75.763092 273.495273 
L 75.733776 288.157091 
L 75.831399 284.491636 
L 75.923865 273.495273 
L 75.84441 288.157091 
L 75.950886 277.160727 
L 76.052323 269.829818 
L 76.066449 288.157091 
L 76.157585 266.164364 
L 76.182058 277.160727 
L 76.256733 288.157091 
L 76.2117 266.164364 
L 76.287139 277.160727 
L 76.359306 266.164364 
L 76.297344 288.157091 
L 76.396041 280.826182 
L 76.411919 258.833455 
L 76.470844 288.157091 
L 76.503457 273.495273 
L 76.56413 262.498909 
L 76.614635 288.157091 
L 76.694783 258.833455 
L 76.729734 277.160727 
L 76.735594 277.160727 
L 76.75914 288.157091 
L 76.84892 262.498909 
L 76.861071 288.157091 
L 76.959833 266.164364 
L 76.966099 266.164364 
L 77.022996 284.491636 
L 77.029374 251.502545 
L 77.055 269.829818 
L 77.061437 244.171636 
L 77.152754 288.157091 
L 77.165987 262.498909 
L 77.25997 280.826182 
L 77.205975 258.833455 
L 77.266774 273.495273 
L 77.342446 244.171636 
L 77.280421 280.826182 
L 77.377347 255.168 
L 77.384366 280.826182 
L 77.476788 240.506182 
L 77.48399 277.160727 
L 77.491205 229.509818 
L 77.512929 280.826182 
L 77.593626 262.498909 
L 77.630855 277.160727 
L 77.608476 247.837091 
L 77.683564 258.833455 
L 77.691151 244.171636 
L 77.729297 280.826182 
L 77.791085 262.498909 
L 77.845921 277.160727 
L 77.861723 247.837091 
L 77.893508 266.164364 
L 77.982182 233.175273 
L 77.909492 273.495273 
L 77.998506 258.833455 
L 78.089428 277.160727 
L 78.014894 240.506182 
L 78.09779 273.495273 
L 78.165276 225.844364 
L 78.199417 255.168 
L 78.207994 280.826182 
L 78.242471 240.506182 
L 78.303464 244.171636 
L 78.329864 277.160727 
L 78.374214 247.837091 
L 78.383138 222.178909 
L 78.392079 273.495273 
L 78.473357 273.495273 
L 78.537599 211.182545 
L 78.546851 280.826182 
L 78.584045 233.175273 
L 78.593391 273.495273 
L 78.697465 247.837091 
L 78.784382 273.495273 
L 78.716641 207.517091 
L 78.813715 266.164364 
L 78.882875 222.178909 
L 78.872933 269.829818 
L 78.922851 255.168 
L 78.932897 262.498909 
L 78.953054 229.509818 
L 79.003818 247.837091 
L 79.086165 218.513455 
L 79.044817 269.829818 
L 79.106972 233.175273 
L 79.117409 277.160727 
L 79.138349 207.517091 
L 79.201712 229.509818 
L 79.212352 200.186182 
L 79.244411 266.164364 
L 79.298307 225.844364 
L 79.38577 262.498909 
L 79.396811 207.517091 
L 79.418966 255.168 
L 79.452382 211.182545 
L 79.474782 269.829818 
L 79.497282 222.178909 
L 79.508569 273.495273 
L 79.576822 211.182545 
L 79.599777 258.833455 
L 79.716111 192.855273 
L 79.799126 273.495273 
L 79.739695 181.858909 
L 79.835111 266.164364 
L 79.883479 192.855273 
L 79.944568 196.520727 
L 80.006369 266.164364 
L 80.044798 200.186182 
L 80.085984 141.538909 
L 80.127697 163.531636 
L 80.254671 225.844364 
L 80.423699 112.215273 
L 80.509092 181.858909 
L 80.639365 64.564364 
L 80.772308 207.517091 
L 80.817226 178.193455 
L 80.86245 53.568 
L 80.907981 203.851636 
L 80.953822 137.873455 
L 81.046443 159.866182 
L 81.093228 196.520727 
L 81.140332 170.862545 
L 81.187757 104.884364 
L 81.235506 181.858909 
L 81.283582 115.880727 
L 81.331986 203.851636 
L 81.38072 126.877091 
L 81.479193 178.193455 
L 81.579018 145.204364 
L 81.731338 181.858909 
L 81.831258 104.884364 
L 81.881625 189.189818 
L 81.932325 90.222545 
L 82.086455 192.855273 
L 82.138516 148.869818 
L 82.190924 178.193455 
L 82.243681 170.862545 
L 82.29679 178.193455 
L 82.418257 291.822545 
L 83.077266 291.822545 
L 83.184061 288.157091 
L 83.283266 291.822545 
L 83.292348 288.157091 
L 83.301439 288.157091 
L 83.392938 291.822545 
L 83.411364 288.157091 
L 83.569718 288.157091 
L 83.683379 291.822545 
L 83.692922 291.822545 
L 83.808296 288.157091 
L 85.369945 288.157091 
L 85.427479 284.491636 
L 85.473745 288.157091 
L 85.496958 288.157091 
L 85.543546 284.491636 
L 85.602083 288.157091 
L 85.625593 288.157091 
L 85.74396 284.491636 
L 85.755872 284.491636 
L 85.803658 288.157091 
L 85.863704 284.491636 
L 86.119731 284.491636 
L 86.144442 288.157091 
L 86.218921 284.491636 
L 87.127692 284.491636 
L 87.181929 280.826182 
L 87.236424 284.491636 
L 87.291181 284.491636 
L 87.37381 280.826182 
L 87.346201 288.157091 
L 87.401485 284.491636 
L 87.470965 284.491636 
L 87.583006 288.157091 
L 87.597087 280.826182 
L 87.696135 284.491636 
L 87.738842 284.491636 
L 87.853491 280.826182 
L 87.8679 280.826182 
L 87.954729 288.157091 
L 87.983814 284.491636 
L 87.998383 284.491636 
L 88.01297 288.157091 
L 88.042198 280.826182 
L 88.086174 280.826182 
L 88.100868 280.826182 
L 88.21908 284.491636 
L 88.293557 284.491636 
L 88.398603 280.826182 
L 88.459041 288.157091 
L 88.489373 284.491636 
L 88.611461 277.160727 
L 88.626809 284.491636 
L 88.719298 280.826182 
L 88.750283 280.826182 
L 88.765805 273.495273 
L 88.781347 284.491636 
L 88.85935 280.826182 
L 88.922109 284.491636 
L 88.937848 273.495273 
L 88.969388 280.826182 
L 89.064489 273.495273 
L 89.08041 277.160727 
L 89.112314 277.160727 
L 89.192431 288.157091 
L 89.224622 280.826182 
L 89.273065 284.491636 
L 89.321695 277.160727 
L 89.35422 273.495273 
L 89.435902 284.491636 
L 89.551152 273.495273 
L 89.617483 280.826182 
L 89.584274 269.829818 
L 89.650779 273.495273 
L 89.66746 269.829818 
L 89.700888 277.160727 
L 89.717634 273.495273 
L 89.768007 284.491636 
L 89.81858 273.495273 
L 89.886322 284.491636 
L 89.920329 277.160727 
L 89.988613 288.157091 
L 90.022892 262.498909 
L 90.04006 288.157091 
L 90.126281 277.160727 
L 90.160929 284.491636 
L 90.19567 269.829818 
L 90.213076 284.491636 
L 90.300458 266.164364 
L 90.4061 280.826182 
L 90.494796 273.495273 
L 90.512608 280.826182 
L 90.619994 269.829818 
L 90.5841 284.491636 
L 90.637978 273.495273 
L 90.692078 266.164364 
L 90.764561 280.826182 
L 90.837447 262.498909 
L 90.855732 284.491636 
L 90.892378 269.829818 
L 90.965978 284.491636 
L 91.002932 273.495273 
L 91.133095 284.491636 
L 91.226858 269.829818 
L 91.26455 266.164364 
L 91.321289 284.491636 
L 91.340256 269.829818 
L 91.416396 277.160727 
L 91.435499 284.491636 
L 91.45463 266.164364 
L 91.531428 280.826182 
L 91.550697 280.826182 
L 91.628052 284.491636 
L 91.608671 277.160727 
L 91.647461 280.826182 
L 91.686363 280.826182 
L 91.784116 277.160727 
L 91.862834 280.826182 
L 91.882586 277.160727 
L 91.902367 273.495273 
L 91.922177 284.491636 
L 91.961885 277.160727 
L 92.00171 284.491636 
L 92.041653 280.826182 
L 92.06167 266.164364 
L 92.081715 284.491636 
L 92.142032 273.495273 
L 92.162198 288.157091 
L 92.243163 280.826182 
L 92.283828 280.826182 
L 92.304206 284.491636 
L 92.345055 277.160727 
L 92.365525 280.826182 
L 92.468344 273.495273 
L 92.50969 284.491636 
L 92.551163 262.498909 
L 92.571946 273.495273 
L 92.592762 273.495273 
L 92.634489 288.157091 
L 92.718327 284.491636 
L 92.845059 269.829818 
L 92.930204 280.826182 
L 92.951573 269.829818 
L 92.972976 266.164364 
L 92.994412 277.160727 
L 93.015882 277.160727 
L 93.037385 284.491636 
L 93.102098 280.826182 
L 93.145411 262.498909 
L 93.210636 273.495273 
L 93.276172 280.826182 
L 93.320037 277.160727 
L 93.342022 273.495273 
L 93.386097 280.826182 
L 93.408187 280.826182 
L 93.430313 280.826182 
L 93.496905 269.829818 
L 93.541479 273.495273 
L 93.676068 284.491636 
L 93.743856 273.495273 
L 93.789234 277.160727 
L 93.880436 266.164364 
L 93.83476 280.826182 
L 93.926263 269.829818 
L 93.995288 284.491636 
L 94.041495 280.826182 
L 94.181046 262.498909 
L 94.274861 280.826182 
L 94.298414 273.495273 
L 94.369312 269.829818 
L 94.393025 280.826182 
L 94.416778 266.164364 
L 94.48828 280.826182 
L 94.512196 280.826182 
L 94.608268 273.495273 
L 94.656552 269.829818 
L 94.680757 280.826182 
L 94.705003 262.498909 
L 94.777995 284.491636 
L 94.925126 255.168 
L 95.073812 280.826182 
L 95.148747 266.164364 
L 95.198926 273.495273 
L 95.224082 280.826182 
L 95.249284 273.495273 
L 95.27453 262.498909 
L 95.299822 280.826182 
L 95.350541 266.164364 
L 95.426963 258.833455 
L 95.478141 273.495273 
L 95.503799 269.829818 
L 95.555256 277.160727 
L 95.581055 277.160727 
L 95.632794 262.498909 
L 95.684722 277.160727 
L 95.710757 280.826182 
L 95.73684 269.829818 
L 95.762972 277.160727 
L 95.789151 258.833455 
L 95.867979 280.826182 
L 95.973768 266.164364 
L 96.000339 277.160727 
L 96.026959 277.160727 
L 96.080349 273.495273 
L 96.107119 280.826182 
L 96.133939 277.160727 
L 96.16081 277.160727 
L 96.187732 280.826182 
L 96.241728 277.160727 
L 96.268803 258.833455 
L 96.350336 262.498909 
L 96.411569 280.826182 
L 96.527855 112.215273 
L 96.652618 284.491636 
L 96.69981 284.491636 
L 96.731385 288.157091 
L 96.747207 280.826182 
L 96.763052 280.826182 
L 96.842617 269.829818 
L 96.810722 288.157091 
L 96.858599 277.160727 
L 96.954974 288.157091 
L 96.890632 273.495273 
L 96.987285 284.491636 
L 97.035924 288.157091 
L 97.101105 273.495273 
L 97.216078 288.157091 
L 97.232597 288.157091 
L 97.348904 269.829818 
L 97.432702 288.157091 
L 97.483273 277.160727 
L 97.517109 288.157091 
L 97.551043 269.829818 
L 97.585075 288.157091 
L 97.653437 284.491636 
L 97.670589 273.495273 
L 97.687767 288.157091 
L 97.756726 277.160727 
L 97.826087 288.157091 
L 97.878374 284.491636 
L 97.948445 288.157091 
L 98.001268 273.495273 
L 98.125423 288.157091 
L 98.143263 288.157091 
L 98.250854 273.495273 
L 98.359395 288.157091 
L 98.468896 273.495273 
L 98.48724 277.160727 
L 98.560879 284.491636 
L 98.524009 269.829818 
L 98.597832 280.826182 
L 98.61634 280.826182 
L 98.709192 266.164364 
L 98.653418 288.157091 
L 98.727825 277.160727 
L 98.746479 284.491636 
L 98.802566 266.164364 
L 98.821303 258.833455 
L 98.840061 284.491636 
L 98.85884 277.160727 
L 98.990877 288.157091 
L 99.104864 262.498909 
L 99.219603 284.491636 
L 99.238799 284.491636 
L 99.296513 288.157091 
L 99.354414 269.829818 
L 99.393119 288.157091 
L 99.451334 277.160727 
L 99.47078 273.495273 
L 99.490248 284.491636 
L 99.509736 280.826182 
L 99.587897 288.157091 
L 99.60749 284.491636 
L 99.725484 273.495273 
L 99.745222 288.157091 
L 99.804563 269.829818 
L 99.844228 284.491636 
L 99.883976 284.491636 
L 99.943755 288.157091 
L 100.003722 280.826182 
L 100.124218 284.491636 
L 100.184748 277.160727 
L 100.225205 284.491636 
L 100.245465 284.491636 
L 100.387868 273.495273 
L 100.51074 284.491636 
L 100.551865 284.491636 
L 100.572458 277.160727 
L 100.655039 284.491636 
L 100.737954 284.491636 
L 100.883857 273.495273 
L 101.030779 280.826182 
L 101.051852 280.826182 
L 101.136349 277.160727 
L 101.157525 280.826182 
L 101.178722 280.826182 
L 101.263719 277.160727 
L 101.327685 284.491636 
L 101.370433 280.826182 
L 101.413264 280.826182 
L 101.477667 284.491636 
L 101.499176 280.826182 
L 101.563829 277.160727 
L 101.542258 284.491636 
L 101.585422 284.491636 
L 101.650324 284.491636 
L 101.780692 277.160727 
L 101.802493 284.491636 
L 101.889904 280.826182 
L 101.911809 280.826182 
L 101.977648 273.495273 
L 101.955681 284.491636 
L 101.999637 277.160727 
L 102.021646 284.491636 
L 102.087798 273.495273 
L 102.132003 273.495273 
L 102.220665 284.491636 
L 102.242882 277.160727 
L 102.26512 273.495273 
L 102.30966 280.826182 
L 102.354282 280.826182 
L 102.376625 273.495273 
L 102.443778 280.826182 
L 102.488651 280.826182 
L 102.556117 284.491636 
L 102.578648 277.160727 
L 102.646365 284.491636 
L 102.668979 284.491636 
L 102.71427 280.826182 
L 102.759644 284.491636 
L 102.805103 284.491636 
L 102.827863 280.826182 
L 102.873447 284.491636 
L 102.896271 288.157091 
L 102.964866 284.491636 
L 103.010702 284.491636 
L 103.102624 280.826182 
L 103.171786 288.157091 
L 103.217999 284.491636 
L 103.264297 280.826182 
L 103.310678 284.491636 
L 103.380408 284.491636 
L 103.497045 280.826182 
L 103.567281 284.491636 
L 103.590735 280.826182 
L 103.637707 280.826182 
L 103.661224 277.160727 
L 103.684763 284.491636 
L 103.731903 280.826182 
L 103.779129 280.826182 
L 103.897563 284.491636 
L 104.016528 277.160727 
L 104.159988 284.491636 
L 104.183973 284.491636 
L 104.304217 280.826182 
L 104.376619 280.826182 
L 104.497719 284.491636 
L 104.54631 277.160727 
L 104.619357 280.826182 
L 104.962811 280.826182 
L 105.012223 277.160727 
L 105.036962 284.491636 
L 105.061722 280.826182 
L 105.086504 280.826182 
L 105.111308 277.160727 
L 105.136134 284.491636 
L 105.185851 280.826182 
L 105.235656 280.826182 
L 105.260591 269.829818 
L 105.335528 284.491636 
L 105.460863 273.495273 
L 105.611993 280.826182 
L 105.687856 280.826182 
L 105.713189 284.491636 
L 105.738543 266.164364 
L 105.814741 277.160727 
L 105.840184 277.160727 
L 105.86565 273.495273 
L 105.891139 280.826182 
L 105.91665 280.826182 
L 106.018917 284.491636 
L 106.070185 277.160727 
L 106.121544 280.826182 
L 106.147257 284.491636 
L 106.198751 277.160727 
L 106.224532 280.826182 
L 106.250335 280.826182 
L 106.353777 277.160727 
L 106.457582 280.826182 
L 106.587853 273.495273 
L 106.692484 284.491636 
L 106.718699 277.160727 
L 106.771199 280.826182 
L 106.797483 273.495273 
L 106.823791 280.826182 
L 106.902854 273.495273 
L 107.061609 280.826182 
L 107.167914 277.160727 
L 107.194549 280.826182 
L 107.24789 273.495273 
L 107.274596 277.160727 
L 107.32808 277.160727 
L 107.435331 273.495273 
L 107.4891 284.491636 
L 107.51602 269.829818 
L 107.569932 280.826182 
L 107.705134 266.164364 
L 107.81373 277.160727 
L 107.84094 273.495273 
L 107.868174 280.826182 
L 107.895433 284.491636 
L 107.950023 280.826182 
L 107.977355 273.495273 
L 108.059498 280.826182 
L 108.141862 269.829818 
L 108.169366 284.491636 
L 108.252027 273.495273 
L 108.27963 273.495273 
L 108.36259 262.498909 
L 108.445775 280.826182 
L 108.473554 277.160727 
L 108.501357 277.160727 
L 108.612824 273.495273 
L 108.66871 269.829818 
L 108.724697 280.826182 
L 108.80887 273.495273 
L 108.836978 277.160727 
L 108.921459 280.826182 
L 108.949671 262.498909 
L 109.006172 273.495273 
L 109.147879 284.491636 
L 109.176299 269.829818 
L 109.261715 277.160727 
L 109.318791 280.826182 
L 109.347369 269.829818 
L 109.375973 284.491636 
L 109.43326 273.495273 
L 109.519391 280.826182 
L 109.548155 277.160727 
L 109.576946 269.829818 
L 109.634607 277.160727 
L 109.663479 277.160727 
L 109.779234 273.495273 
L 109.837274 277.160727 
L 109.866335 273.495273 
L 109.895424 262.498909 
L 109.924539 277.160727 
L 109.982853 266.164364 
L 110.099812 277.160727 
L 110.217214 266.164364 
L 110.335063 280.826182 
L 110.394156 269.829818 
L 110.453362 273.495273 
L 110.601875 262.498909 
L 110.691324 280.826182 
L 110.721199 277.160727 
L 110.751102 277.160727 
L 110.840987 273.495273 
L 110.871007 277.160727 
L 110.901056 273.495273 
L 111.05174 262.498909 
L 111.142504 273.495273 
L 111.172818 269.829818 
L 111.203162 269.829818 
L 111.233536 277.160727 
L 111.294373 269.829818 
L 111.324837 269.829818 
L 111.385854 280.826182 
L 111.446993 273.495273 
L 111.477608 277.160727 
L 111.508253 258.833455 
L 111.569634 269.829818 
L 111.631138 277.160727 
L 111.661937 266.164364 
L 111.692765 273.495273 
L 111.723625 269.829818 
L 111.785438 280.826182 
L 111.816391 269.829818 
L 111.847374 258.833455 
L 111.87839 280.826182 
L 111.909436 273.495273 
L 111.971623 277.160727 
L 112.033936 258.833455 
L 112.096375 269.829818 
L 112.158942 266.164364 
L 112.221636 277.160727 
L 112.315918 273.495273 
L 112.378934 280.826182 
L 112.442079 277.160727 
L 112.505355 269.829818 
L 112.537042 280.826182 
L 112.568762 262.498909 
L 112.600515 273.495273 
L 112.664119 277.160727 
L 112.695971 266.164364 
L 112.835036 280.826182 
L 112.899123 258.833455 
L 112.931221 262.498909 
L 113.05995 277.160727 
L 113.092217 266.164364 
L 113.156854 273.495273 
L 113.221629 277.160727 
L 113.254068 273.495273 
L 113.286542 273.495273 
L 113.351593 255.168 
L 113.384171 273.495273 
L 113.416784 273.495273 
L 113.449432 269.829818 
L 113.482115 280.826182 
L 113.547587 273.495273 
L 113.580376 273.495273 
L 113.613201 269.829818 
L 113.646061 277.160727 
L 113.678956 277.160727 
L 113.744855 266.164364 
L 113.777858 277.160727 
L 113.910231 262.498909 
L 113.976635 277.160727 
L 114.009892 266.164364 
L 114.043186 262.498909 
L 114.109884 266.164364 
L 114.143288 266.164364 
L 114.310866 273.495273 
L 114.344494 266.164364 
L 114.378159 280.826182 
L 114.411862 273.495273 
L 114.445603 277.160727 
L 114.479382 273.495273 
L 114.513199 269.829818 
L 114.547054 277.160727 
L 114.580947 273.495273 
L 114.614879 277.160727 
L 114.682857 262.498909 
L 114.716904 277.160727 
L 114.819278 262.498909 
L 114.922003 273.495273 
L 114.956323 258.833455 
L 115.025082 266.164364 
L 115.197676 273.495273 
L 115.232315 273.495273 
L 115.266994 266.164364 
L 115.301714 280.826182 
L 115.336474 273.495273 
L 115.406117 277.160727 
L 115.441 262.498909 
L 115.580941 280.826182 
L 115.61603 258.833455 
L 115.686333 266.164364 
L 115.756802 273.495273 
L 115.7921 262.498909 
L 115.82744 280.826182 
L 116.076011 266.164364 
L 116.183187 273.495273 
L 116.218999 266.164364 
L 116.290753 273.495273 
L 116.326697 269.829818 
L 116.434985 284.491636 
L 116.4786 284.491636 
L 116.610185 288.157091 
L 116.787345 288.157091 
L 116.809628 284.491636 
L 116.87666 288.157091 
L 116.921502 288.157091 
L 116.988996 284.491636 
L 117.011556 288.157091 
L 117.056769 288.157091 
L 117.079422 284.491636 
L 117.147567 288.157091 
L 117.193153 288.157091 
L 117.307666 284.491636 
L 117.422966 288.157091 
L 117.515776 288.157091 
L 117.632507 284.491636 
L 117.750039 288.157091 
L 117.773642 288.157091 
L 117.892144 284.491636 
L 117.915943 284.491636 
L 118.035423 288.157091 
L 118.107505 288.157091 
L 118.204077 284.491636 
L 118.301179 288.157091 
L 118.423309 284.491636 
L 118.570973 284.491636 
L 118.694958 288.157091 
L 118.79476 288.157091 
L 118.895111 280.826182 
L 118.920285 284.491636 
L 119.046673 288.157091 
L 119.072055 288.157091 
L 119.173931 284.491636 
L 119.302066 288.157091 
L 119.327798 288.157091 
L 119.456992 284.491636 
L 119.508918 284.491636 
L 119.534934 280.826182 
L 119.587075 284.491636 
L 119.691786 288.157091 
L 119.797073 284.491636 
L 119.849934 280.826182 
L 119.90294 288.157091 
L 120.062834 280.826182 
L 120.197088 284.491636 
L 120.305157 280.826182 
L 120.359415 284.491636 
L 120.3866 273.495273 
L 120.468378 284.491636 
L 120.495712 284.491636 
L 120.523084 280.826182 
L 120.550493 288.157091 
L 120.605425 284.491636 
L 120.632948 284.491636 
L 120.798879 277.160727 
L 120.882358 280.826182 
L 120.910261 273.495273 
L 120.938202 288.157091 
L 120.966182 277.160727 
L 121.050352 284.491636 
L 121.078486 280.826182 
L 121.191408 284.491636 
L 121.304951 280.826182 
L 121.333435 288.157091 
L 121.390519 280.826182 
L 121.41912 280.826182 
L 121.533917 288.157091 
L 121.62043 277.160727 
L 121.649346 284.491636 
L 121.678303 284.491636 
L 121.794527 277.160727 
L 121.911391 284.491636 
L 121.940708 273.495273 
L 122.028899 280.826182 
L 122.058376 284.491636 
L 122.087895 273.495273 
L 122.147053 280.826182 
L 122.236095 284.491636 
L 122.325505 277.160727 
L 122.35539 284.491636 
L 122.445292 280.826182 
L 122.475342 280.826182 
L 122.505433 277.160727 
L 122.565739 280.826182 
L 122.656509 280.826182 
L 122.686849 277.160727 
L 122.71723 280.826182 
L 122.808625 284.491636 
L 122.931072 280.826182 
L 122.961789 280.826182 
L 123.023349 284.491636 
L 123.054193 280.826182 
L 123.146978 280.826182 
L 123.177991 284.491636 
L 123.209047 277.160727 
L 123.240146 277.160727 
L 123.364968 280.826182 
L 123.396281 280.826182 
L 123.427637 284.491636 
L 123.459035 277.160727 
L 123.553491 277.160727 
L 123.648336 284.491636 
L 123.680038 277.160727 
L 123.743573 284.491636 
L 123.903175 273.495273 
L 123.999464 280.826182 
L 124.128467 277.160727 
L 124.225685 280.826182 
L 124.355934 277.160727 
L 124.421327 284.491636 
L 124.4869 280.826182 
L 124.519754 280.826182 
L 124.585598 269.829818 
L 124.618588 277.160727 
L 124.651623 280.826182 
L 124.684704 277.160727 
L 124.71783 269.829818 
L 124.751001 280.826182 
L 124.784218 277.160727 
L 124.817481 273.495273 
L 124.884144 277.160727 
L 124.95099 277.160727 
L 124.984482 266.164364 
L 125.018021 284.491636 
L 125.051605 277.160727 
L 125.118912 280.826182 
L 125.152635 273.495273 
L 125.287992 280.826182 
L 125.424095 273.495273 
L 125.526665 277.160727 
L 125.664084 269.829818 
L 125.802246 280.826182 
L 125.836865 277.160727 
L 125.871503 277.160727 
L 126.010243 280.826182 
L 126.149279 273.495273 
L 126.323485 280.826182 
L 126.358381 280.826182 
L 126.498145 273.495273 
L 126.638195 277.160727 
L 126.673251 269.829818 
L 126.708326 280.826182 
L 126.743418 273.495273 
L 126.813656 273.495273 
L 126.848801 277.160727 
L 126.883963 273.495273 
L 126.919143 269.829818 
L 126.989555 273.495273 
L 127.024788 280.826182 
L 127.060037 269.829818 
L 127.095304 273.495273 
L 127.16589 273.495273 
L 127.236544 269.829818 
L 127.307267 277.160727 
L 127.378059 280.826182 
L 127.448918 273.495273 
L 127.519846 269.829818 
L 127.555335 277.160727 
L 127.733034 269.829818 
L 127.875495 277.160727 
L 127.982516 266.164364 
L 128.018223 277.160727 
L 128.089687 269.829818 
L 128.161217 266.164364 
L 128.268635 277.160727 
L 128.412091 266.164364 
L 128.555809 273.495273 
L 128.59178 269.829818 
L 128.627767 277.160727 
L 128.66377 277.160727 
L 128.84403 266.164364 
L 129.097077 280.826182 
L 129.205769 266.164364 
L 129.242032 273.495273 
L 129.314606 269.829818 
L 129.42359 269.829818 
L 129.532718 280.826182 
L 129.605552 277.160727 
L 129.641993 273.495273 
L 129.67845 280.826182 
L 129.751413 280.826182 
L 129.897533 277.160727 
L 129.934103 280.826182 
L 129.970689 273.495273 
L 130.007292 269.829818 
L 130.043911 280.826182 
L 130.117198 269.829818 
L 130.153866 266.164364 
L 130.190549 273.495273 
L 130.337447 280.826182 
L 130.374213 269.829818 
L 130.447792 273.495273 
L 130.484606 273.495273 
L 130.595146 266.164364 
L 130.632025 284.491636 
L 130.705833 280.826182 
L 130.816668 273.495273 
L 130.92765 277.160727 
L 131.112951 262.498909 
L 131.150061 273.495273 
L 131.224331 266.164364 
L 131.33586 277.160727 
L 131.447539 266.164364 
L 131.522076 280.826182 
L 131.59668 277.160727 
L 131.634007 280.826182 
L 131.746091 269.829818 
L 131.783486 280.826182 
L 131.820898 266.164364 
L 131.858327 277.160727 
L 131.970716 269.829818 
L 132.008213 269.829818 
L 132.045728 266.164364 
L 132.195958 277.160727 
L 132.233559 273.495273 
L 132.271177 280.826182 
L 132.346466 277.160727 
L 132.421824 266.164364 
L 132.459529 269.829818 
L 132.497252 269.829818 
L 132.572751 280.826182 
L 132.610526 269.829818 
L 132.64832 277.160727 
L 132.686131 280.826182 
L 132.799671 266.164364 
L 132.913373 280.826182 
L 132.951309 273.495273 
L 133.027236 277.160727 
L 133.065226 273.495273 
L 133.103235 277.160727 
L 133.179307 277.160727 
L 133.21737 266.164364 
L 133.255452 280.826182 
L 133.293552 273.495273 
L 133.331671 269.829818 
L 133.369808 273.495273 
L 133.407963 284.491636 
L 133.446137 273.495273 
L 133.48433 273.495273 
L 133.522541 269.829818 
L 133.560771 280.826182 
L 133.637287 277.160727 
L 133.752203 273.495273 
L 133.790546 277.160727 
L 133.828908 266.164364 
L 133.867289 269.829818 
L 133.982547 277.160727 
L 134.021005 273.495273 
L 134.097979 280.826182 
L 134.136495 266.164364 
L 134.175031 273.495273 
L 134.213586 280.826182 
L 134.25216 277.160727 
L 134.290755 269.829818 
L 134.329369 273.495273 
L 134.368002 284.491636 
L 134.406656 269.829818 
L 134.445329 277.160727 
L 134.484022 277.160727 
L 134.522735 269.829818 
L 134.600222 273.495273 
L 134.755437 280.826182 
L 134.794292 280.826182 
L 134.872063 273.495273 
L 134.910979 277.160727 
L 135.027851 273.495273 
L 135.10587 277.160727 
L 135.14491 273.495273 
L 135.183972 277.160727 
L 135.262159 280.826182 
L 135.379598 273.495273 
L 135.418787 284.491636 
L 135.457997 277.160727 
L 135.575758 273.495273 
L 135.733076 284.491636 
L 135.77246 284.491636 
L 135.890746 269.829818 
L 136.009225 284.491636 
L 136.088329 266.164364 
L 136.127914 273.495273 
L 136.167523 284.491636 
L 136.246808 280.826182 
L 136.365908 280.826182 
L 136.445423 273.495273 
L 136.485216 284.491636 
L 136.564871 280.826182 
L 136.644621 273.495273 
L 136.724465 280.826182 
L 136.764423 277.160727 
L 136.804405 277.160727 
L 136.844411 273.495273 
L 136.884441 277.160727 
L 136.964573 277.160727 
L 137.004676 280.826182 
L 137.044803 266.164364 
L 137.084955 273.495273 
L 137.165332 280.826182 
L 137.205557 277.160727 
L 137.245808 273.495273 
L 137.286083 277.160727 
L 137.326383 277.160727 
L 137.447435 284.491636 
L 137.487837 277.160727 
L 137.568716 280.826182 
L 137.609193 280.826182 
L 137.649697 273.495273 
L 137.730781 277.160727 
L 137.81197 277.160727 
L 137.852603 280.826182 
L 137.893263 273.495273 
L 137.933949 277.160727 
L 137.974661 284.491636 
L 138.0154 277.160727 
L 138.056166 277.160727 
L 138.178623 284.491636 
L 138.260396 280.826182 
L 138.301323 284.491636 
L 138.38326 273.495273 
L 138.424269 280.826182 
L 138.465306 280.826182 
L 138.50637 273.495273 
L 138.547463 277.160727 
L 138.629731 280.826182 
L 138.670907 277.160727 
L 138.712112 280.826182 
L 138.753345 284.491636 
L 138.794606 273.495273 
L 138.877213 277.160727 
L 138.959935 284.491636 
L 139.084236 273.495273 
L 139.125727 277.160727 
L 139.167248 273.495273 
L 139.208799 273.495273 
L 139.375296 280.826182 
L 139.500484 266.164364 
L 139.71853 288.157091 
L 139.821473 288.157091 
L 139.8473 291.822545 
L 139.924998 288.157091 
L 140.133784 288.157091 
L 140.265455 291.822545 
L 140.398037 288.157091 
L 140.451326 291.822545 
L 140.504762 288.157091 
L 140.531536 288.157091 
L 140.558346 291.822545 
L 140.638998 288.157091 
L 143.557149 288.157091 
L 143.5881 284.491636 
L 143.650129 288.157091 
L 143.743488 288.157091 
L 143.86856 284.491636 
L 143.994313 288.157091 
L 144.12075 284.491636 
L 144.152467 284.491636 
L 144.279764 288.157091 
L 144.311696 288.157091 
L 144.343671 284.491636 
L 144.407752 288.157091 
L 144.439857 288.157091 
L 144.504199 284.491636 
L 144.536435 288.157091 
L 144.568714 288.157091 
L 144.698271 284.491636 
L 144.828529 288.157091 
L 144.893922 288.157091 
L 145.02524 284.491636 
L 145.05818 284.491636 
L 145.157268 288.157091 
L 145.256757 284.491636 
L 145.390036 288.157091 
L 145.524035 284.491636 
L 145.625008 288.157091 
L 145.658757 284.491636 
L 145.72639 288.157091 
L 147.622643 288.157091 
L 147.768613 284.491636 
L 147.91536 288.157091 
L 147.952169 288.157091 
L 147.989027 284.491636 
L 148.062889 288.157091 
L 148.099893 288.157091 
L 148.211202 284.491636 
L 148.285653 288.157091 
L 148.322953 284.491636 
L 148.360303 288.157091 
L 148.472648 288.157091 
L 148.510195 284.491636 
L 148.547792 288.157091 
L 148.623136 288.157091 
L 148.69868 284.491636 
L 148.736527 288.157091 
L 148.774423 284.491636 
L 149.041106 284.491636 
L 149.079405 288.157091 
L 149.117755 284.491636 
L 149.271661 284.491636 
L 149.310264 288.157091 
L 149.348918 284.491636 
L 149.816763 284.491636 
L 149.895458 288.157091 
L 150.013889 284.491636 
L 150.693885 284.491636 
L 150.734359 288.157091 
L 150.774886 284.491636 
L 151.101024 284.491636 
L 151.142032 280.826182 
L 151.183094 284.491636 
L 151.680052 284.491636 
L 151.721819 280.826182 
L 151.76364 284.491636 
L 151.973569 284.491636 
L 152.100187 280.826182 
L 152.142504 280.826182 
L 152.227303 284.491636 
L 152.354919 280.826182 
L 152.483036 284.491636 
L 152.654642 284.491636 
L 152.697684 280.826182 
L 152.740782 284.491636 
L 152.827148 284.491636 
L 152.870415 288.157091 
L 152.913739 284.491636 
L 152.95712 280.826182 
L 153.000558 284.491636 
L 153.044052 284.491636 
L 153.131212 280.826182 
L 153.26238 284.491636 
L 153.350111 280.826182 
L 153.482139 284.491636 
L 153.526263 284.491636 
L 153.658984 280.826182 
L 153.792226 284.491636 
L 153.925992 280.826182 
L 154.015462 280.826182 
L 154.060285 284.491636 
L 154.105166 280.826182 
L 154.150106 280.826182 
L 154.195105 284.491636 
L 154.240163 280.826182 
L 154.28528 280.826182 
L 154.330457 284.491636 
L 154.375692 280.826182 
L 154.877214 280.826182 
L 154.923166 284.491636 
L 154.969179 280.826182 
L 155.061386 280.826182 
L 155.153836 284.491636 
L 155.292966 277.160727 
L 155.432278 280.826182 
L 155.710882 280.826182 
L 155.803744 284.491636 
L 155.896602 280.826182 
L 155.989457 284.491636 
L 156.08231 280.826182 
L 156.221584 284.491636 
L 156.268008 280.826182 
L 156.314432 284.491636 
L 156.360855 284.491636 
L 156.407277 280.826182 
L 156.441129 288.157091 
L 156.53397 284.491636 
L 156.719656 284.491636 
L 156.812498 280.826182 
L 156.951762 284.491636 
L 156.998184 280.826182 
L 157.044606 284.491636 
L 157.230298 284.491636 
L 157.369572 280.826182 
L 157.462425 288.157091 
L 157.508853 284.491636 
L 157.601712 284.491636 
L 157.741007 280.826182 
L 157.787441 284.491636 
L 157.833877 280.826182 
L 157.880314 280.826182 
L 158.019633 284.491636 
L 158.158968 280.826182 
L 158.251866 284.491636 
L 158.39123 280.826182 
L 158.48415 280.826182 
L 158.623548 284.491636 
L 158.902417 284.491636 
L 159.041892 280.826182 
L 159.088391 284.491636 
L 159.134893 280.826182 
L 159.181398 280.826182 
L 159.320937 284.491636 
L 159.367457 280.826182 
L 159.413981 284.491636 
L 159.507043 284.491636 
L 159.55358 280.826182 
L 159.600121 284.491636 
L 159.693217 284.491636 
L 159.786331 280.826182 
L 159.926039 284.491636 
L 159.972619 284.491636 
L 160.065793 280.826182 
L 160.205596 284.491636 
L 160.298826 284.491636 
L 160.438715 280.826182 
L 160.485357 284.491636 
L 160.532005 280.826182 
L 160.625321 280.826182 
L 160.671989 284.491636 
L 160.718664 280.826182 
L 160.812033 280.826182 
L 160.858728 284.491636 
L 160.905431 280.826182 
L 161.185801 280.826182 
L 161.232557 284.491636 
L 161.27932 280.826182 
L 161.372871 280.826182 
L 161.419659 277.160727 
L 161.513261 284.491636 
L 161.653729 280.826182 
L 161.700569 280.826182 
L 161.747419 284.491636 
L 161.794278 280.826182 
L 161.888024 280.826182 
L 161.934911 284.491636 
L 161.981808 280.826182 
L 162.028715 280.826182 
L 162.075631 284.491636 
L 162.122558 280.826182 
L 162.216443 280.826182 
L 162.2634 277.160727 
L 162.310369 280.826182 
L 162.357347 280.826182 
L 162.404337 284.491636 
L 162.451338 280.826182 
L 162.63944 280.826182 
L 162.780647 277.160727 
L 162.82774 284.491636 
L 162.874844 280.826182 
L 162.921961 277.160727 
L 162.96909 280.826182 
L 163.016232 280.826182 
L 163.063385 284.491636 
L 163.110552 280.826182 
L 163.252129 280.826182 
L 163.299347 284.491636 
L 163.346579 280.826182 
L 163.393824 277.160727 
L 163.441083 280.826182 
L 163.535641 284.491636 
L 163.630256 280.826182 
L 163.63994 284.491636 
L 163.927716 174.528 
L 164.040509 288.157091 
L 164.182761 288.157091 
L 164.297327 291.822545 
L 164.821324 291.822545 
L 164.939662 295.488 
L 165.329089 295.488 
L 165.450411 291.822545 
L 165.480853 291.822545 
L 165.511339 295.488 
L 165.572445 291.822545 
L 167.357666 291.822545 
L 167.457453 288.157091 
L 167.557671 291.822545 
L 167.691972 288.157091 
L 167.793206 291.822545 
L 167.928866 288.157091 
L 167.962903 288.157091 
L 168.031123 291.822545 
L 168.065307 288.157091 
L 168.271441 288.157091 
L 168.30597 291.822545 
L 168.375175 288.157091 
L 168.583981 288.157091 
L 168.689056 291.822545 
L 168.829858 288.157091 
L 173.905093 288.157091 
L 174.032337 284.491636 
L 174.160095 288.157091 
L 174.288368 284.491636 
L 174.33124 284.491636 
L 174.460203 288.157091 
L 174.589683 284.491636 
L 174.676293 284.491636 
L 174.719684 288.157091 
L 174.763133 284.491636 
L 174.893829 284.491636 
L 175.025048 288.157091 
L 175.068905 284.491636 
L 175.112819 288.157091 
L 175.156792 288.157091 
L 175.289061 284.491636 
L 175.644362 284.491636 
L 175.689039 288.157091 
L 175.733776 284.491636 
L 176.503388 284.491636 
L 176.595067 280.826182 
L 176.733036 284.491636 
L 177.951679 284.491636 
L 177.999378 280.826182 
L 178.047139 284.491636 
L 178.238805 284.491636 
L 178.286877 280.826182 
L 178.335011 284.491636 
L 178.383208 284.491636 
L 178.431467 280.826182 
L 178.479789 284.491636 
L 178.528173 284.491636 
L 178.57662 280.826182 
L 178.625129 284.491636 
L 178.673701 284.491636 
L 178.819795 280.826182 
L 178.868619 280.826182 
L 179.01547 284.491636 
L 179.064547 284.491636 
L 179.113687 280.826182 
L 179.162891 284.491636 
L 179.459449 284.491636 
L 179.60859 280.826182 
L 179.758309 284.491636 
L 179.908607 280.826182 
L 180.009128 280.826182 
L 180.109909 284.491636 
L 180.210949 280.826182 
L 180.362997 284.491636 
L 180.41381 280.826182 
L 180.464688 284.491636 
L 180.566641 284.491636 
L 180.668857 280.826182 
L 180.822674 284.491636 
L 181.080356 284.491636 
L 181.235762 280.826182 
L 181.287697 284.491636 
L 181.339699 280.826182 
L 181.391768 280.826182 
L 181.548376 284.491636 
L 181.600712 284.491636 
L 181.758127 280.826182 
L 181.96896 280.826182 
L 182.127797 284.491636 
L 182.340534 277.160727 
L 182.500807 280.826182 
L 182.608 280.826182 
L 182.6617 277.160727 
L 182.715469 280.826182 
L 182.769307 284.491636 
L 182.823215 280.826182 
L 182.931239 280.826182 
L 183.093798 284.491636 
L 183.20252 280.826182 
L 183.256986 284.491636 
L 183.311522 280.826182 
L 183.971483 280.826182 
L 184.026943 284.491636 
L 184.082476 280.826182 
L 184.13808 284.491636 
L 184.249504 280.826182 
L 184.305325 280.826182 
L 184.361218 284.491636 
L 184.529333 277.160727 
L 184.585517 277.160727 
L 184.641774 280.826182 
L 184.754508 273.495273 
L 184.923591 280.826182 
L 184.979894 277.160727 
L 185.092415 280.826182 
L 185.148632 280.826182 
L 185.260983 277.160727 
L 185.317117 284.491636 
L 185.373224 280.826182 
L 185.485356 280.826182 
L 185.541382 277.160727 
L 185.653356 280.826182 
L 185.709304 277.160727 
L 185.765226 280.826182 
L 185.821124 277.160727 
L 185.876996 280.826182 
L 185.932844 277.160727 
L 186.044467 280.826182 
L 186.267429 280.826182 
L 186.323111 277.160727 
L 186.378772 280.826182 
L 186.490026 277.160727 
L 186.54562 280.826182 
L 186.601193 277.160727 
L 186.767786 280.826182 
L 186.878745 280.826182 
L 187.045037 277.160727 
L 187.100428 277.160727 
L 187.211156 280.826182 
L 187.377112 277.160727 
L 187.487661 280.826182 
L 187.598143 277.160727 
L 187.653359 280.826182 
L 187.708559 277.160727 
L 187.763743 277.160727 
L 187.858565 269.829818 
L 188.039153 288.157091 
L 188.738326 288.157091 
L 188.769317 291.822545 
L 188.831448 288.157091 
L 188.862588 288.157091 
L 188.956309 291.822545 
L 189.05048 288.157091 
L 189.176748 291.822545 
L 189.528172 291.822545 
L 189.560426 288.157091 
L 189.62509 291.822545 
L 190.017428 291.822545 
L 190.14988 295.488 
L 190.183125 291.822545 
L 190.249774 295.488 
L 190.824902 295.488 
L 190.962491 291.822545 
L 192.387061 291.822545 
L 192.534483 288.157091 
L 192.571482 291.822545 
L 192.608538 288.157091 
L 192.682824 288.157091 
L 192.720053 291.822545 
L 192.75734 288.157091 
L 198.118041 288.157091 
L 198.163372 284.491636 
L 198.208767 288.157091 
L 199.08357 288.157091 
L 199.130262 284.491636 
L 199.177019 288.157091 
L 199.27073 288.157091 
L 199.411787 284.491636 
L 199.553433 288.157091 
L 199.600779 288.157091 
L 199.648191 284.491636 
L 199.695669 288.157091 
L 199.743212 288.157091 
L 199.886236 284.491636 
L 200.029853 288.157091 
L 200.174064 284.491636 
L 201.051844 284.491636 
L 201.101242 288.157091 
L 201.150706 284.491636 
L 201.850229 284.491636 
L 201.900698 280.826182 
L 201.951235 284.491636 
L 202.001839 284.491636 
L 202.052511 280.826182 
L 202.10325 284.491636 
L 202.255871 284.491636 
L 202.30688 288.157091 
L 202.357957 284.491636 
L 203.028126 284.491636 
L 203.132249 280.826182 
L 203.288946 284.491636 
L 203.604188 284.491636 
L 203.656969 280.826182 
L 203.709818 284.491636 
L 204.188558 284.491636 
L 204.349381 280.826182 
L 204.456942 280.826182 
L 204.564781 284.491636 
L 204.781294 277.160727 
L 204.835596 284.491636 
L 204.889967 280.826182 
L 204.944409 280.826182 
L 204.998921 277.160727 
L 205.162874 284.491636 
L 205.327458 280.826182 
L 205.38246 280.826182 
L 205.547887 284.491636 
L 205.713947 280.826182 
L 205.825007 284.491636 
L 205.880643 284.491636 
L 205.992127 280.826182 
L 206.047975 284.491636 
L 206.159885 280.826182 
L 206.215946 280.826182 
L 206.328282 277.160727 
L 206.384557 284.491636 
L 206.440903 280.826182 
L 206.49732 280.826182 
L 206.553809 277.160727 
L 206.667001 280.826182 
L 206.723705 277.160727 
L 206.78048 280.826182 
L 206.894246 277.160727 
L 207.008299 277.160727 
L 207.065433 280.826182 
L 207.12264 277.160727 
L 207.179919 280.826182 
L 207.294693 277.160727 
L 207.352189 280.826182 
L 207.467397 277.160727 
L 207.582896 277.160727 
L 207.640755 273.495273 
L 207.698686 280.826182 
L 207.75669 277.160727 
L 207.814767 280.826182 
L 207.872917 277.160727 
L 207.989437 280.826182 
L 208.10625 277.160727 
L 208.164766 284.491636 
L 208.223356 277.160727 
L 208.282019 280.826182 
L 208.399567 277.160727 
L 208.517411 277.160727 
L 208.576441 280.826182 
L 208.63549 277.160727 
L 208.694559 280.826182 
L 208.812757 277.160727 
L 208.931035 277.160727 
L 208.990205 280.826182 
L 209.108607 277.160727 
L 209.286369 277.160727 
L 209.345667 280.826182 
L 209.404986 277.160727 
L 209.464328 280.826182 
L 209.523692 277.160727 
L 209.583079 280.826182 
L 209.701922 277.160727 
L 209.820858 277.160727 
L 209.880362 280.826182 
L 209.939889 273.495273 
L 209.999441 284.491636 
L 210.059017 280.826182 
L 210.118617 277.160727 
L 210.178243 280.826182 
L 210.297568 277.160727 
L 210.596331 277.160727 
L 210.716021 280.826182 
L 210.775905 277.160727 
L 210.835817 280.826182 
L 210.955723 273.495273 
L 211.135791 284.491636 
L 211.255977 280.826182 
L 211.316114 280.826182 
L 211.376279 273.495273 
L 211.436474 284.491636 
L 211.496698 277.160727 
L 211.617235 277.160727 
L 211.737893 280.826182 
L 211.798267 277.160727 
L 211.919109 280.826182 
L 211.979576 277.160727 
L 212.050239 284.491636 
L 212.16506 247.837091 
L 212.289903 288.157091 
L 212.766812 288.157091 
L 212.863703 291.822545 
L 212.896112 288.157091 
L 212.961101 291.822545 
L 213.091759 291.822545 
L 213.124566 288.157091 
L 213.190352 291.822545 
L 214.032313 291.822545 
L 214.170469 295.488 
L 214.274722 295.488 
L 214.309595 280.826182 
L 214.379522 288.157091 
L 214.555417 288.157091 
L 214.590781 291.822545 
L 214.661696 288.157091 
L 214.84007 288.157091 
L 214.875933 291.822545 
L 214.947846 288.157091 
L 214.983896 288.157091 
L 215.12873 291.822545 
L 216.209476 291.822545 
L 216.32441 295.488 
L 216.439942 295.488 
L 216.517296 288.157091 
L 216.556073 291.822545 
L 216.672805 295.488 
L 216.790141 291.822545 
L 217.791738 291.822545 
L 217.832696 288.157091 
L 217.873723 291.822545 
L 217.91482 291.822545 
L 217.997222 288.157091 
L 218.038528 291.822545 
L 218.079904 288.157091 
L 218.121349 288.157091 
L 218.204451 291.822545 
L 218.287832 288.157091 
L 218.329628 291.822545 
L 218.371495 288.157091 
L 218.539665 288.157091 
L 218.624175 291.822545 
L 218.75147 288.157091 
L 222.19364 288.157091 
L 222.241769 284.491636 
L 222.289973 288.157091 
L 222.532113 288.157091 
L 222.580765 284.491636 
L 222.629492 288.157091 
L 222.776124 288.157091 
L 222.825151 284.491636 
L 222.874253 288.157091 
L 222.923431 288.157091 
L 223.071413 284.491636 
L 223.12089 284.491636 
L 223.170443 288.157091 
L 223.220071 284.491636 
L 224.02436 284.491636 
L 224.075269 288.157091 
L 224.126254 284.491636 
L 226.717237 284.491636 
L 226.77201 280.826182 
L 226.826859 284.491636 
L 227.379531 284.491636 
L 227.435216 280.826182 
L 227.546814 284.491636 
L 228.16604 284.491636 
L 228.279615 280.826182 
L 228.393494 284.491636 
L 228.507678 280.826182 
L 228.564884 280.826182 
L 228.622166 284.491636 
L 228.679525 280.826182 
L 228.736959 284.491636 
L 228.79447 280.826182 
L 228.852056 284.491636 
L 228.967458 280.826182 
L 229.025273 284.491636 
L 229.083164 280.826182 
L 229.199175 284.491636 
L 229.257295 280.826182 
L 229.315491 284.491636 
L 229.432112 280.826182 
L 229.490536 284.491636 
L 229.607614 280.826182 
L 229.666268 284.491636 
L 229.783803 280.826182 
L 230.197581 280.826182 
L 230.256998 284.491636 
L 230.37606 280.826182 
L 231.03637 280.826182 
L 231.096858 284.491636 
L 231.218062 280.826182 
L 231.27878 284.491636 
L 231.339574 280.826182 
L 231.400445 284.491636 
L 231.522417 280.826182 
L 231.828691 280.826182 
L 231.951739 277.160727 
L 232.074996 280.826182 
L 232.136624 280.826182 
L 232.198252 277.160727 
L 232.32151 280.826182 
L 232.568041 280.826182 
L 232.629677 277.160727 
L 232.752959 280.826182 
L 232.937903 280.826182 
L 233.061216 277.160727 
L 233.184547 280.826182 
L 233.307896 280.826182 
L 233.431267 277.160727 
L 233.492961 277.160727 
L 233.554661 280.826182 
L 233.616367 277.160727 
L 233.67808 280.826182 
L 233.739799 277.160727 
L 233.801526 280.826182 
L 233.86326 277.160727 
L 233.925001 280.826182 
L 234.048508 277.160727 
L 234.233832 277.160727 
L 234.295625 280.826182 
L 234.419239 277.160727 
L 234.790325 277.160727 
L 234.914109 280.826182 
L 234.976019 280.826182 
L 235.099876 277.160727 
L 235.161823 277.160727 
L 235.223783 280.826182 
L 235.285756 277.160727 
L 235.409742 280.826182 
L 235.782043 280.826182 
L 235.906264 277.160727 
L 235.968398 280.826182 
L 236.092715 277.160727 
L 236.154898 277.160727 
L 236.20574 269.829818 
L 236.239823 280.826182 
L 236.40186 288.157091 
L 236.697485 288.157091 
L 236.730637 291.822545 
L 236.797122 288.157091 
L 236.897308 288.157091 
L 237.031747 291.822545 
L 237.099336 291.822545 
L 237.201183 288.157091 
L 237.33785 291.822545 
L 238.909069 291.822545 
L 239.020886 295.488 
L 239.360062 295.488 
L 239.474375 291.822545 
L 240.733901 291.822545 
L 240.774473 288.157091 
L 240.81512 291.822545 
L 240.855843 291.822545 
L 240.978463 288.157091 
L 241.019488 288.157091 
L 241.060589 291.822545 
L 241.101766 288.157091 
L 243.902109 288.157091 
L 243.995074 284.491636 
L 244.135166 288.157091 
L 244.607769 288.157091 
L 244.655507 291.822545 
L 244.703332 288.157091 
L 246.894805 288.157091 
L 247.050481 284.491636 
L 247.206961 288.157091 
L 247.311728 284.491636 
L 247.469549 288.157091 
L 247.522335 284.491636 
L 247.57521 288.157091 
L 247.628175 288.157091 
L 247.681229 284.491636 
L 247.734372 288.157091 
L 247.947842 288.157091 
L 248.108884 284.491636 
L 251.676345 284.491636 
L 251.795362 280.826182 
L 251.855002 284.491636 
L 251.974547 280.826182 
L 252.03445 284.491636 
L 252.094442 280.826182 
L 252.154521 284.491636 
L 252.274941 280.826182 
L 252.516831 280.826182 
L 252.6383 284.491636 
L 252.882283 284.491636 
L 252.943497 280.826182 
L 253.004797 284.491636 
L 253.066184 280.826182 
L 253.127658 284.491636 
L 253.250865 280.826182 
L 253.312599 284.491636 
L 253.37442 280.826182 
L 253.436327 284.491636 
L 253.5604 280.826182 
L 254.312081 280.826182 
L 254.375279 277.160727 
L 254.501933 280.826182 
L 255.204637 280.826182 
L 255.26903 284.491636 
L 255.398071 280.826182 
L 255.462719 280.826182 
L 255.527452 284.491636 
L 255.722158 277.160727 
L 255.917626 284.491636 
L 256.048361 280.826182 
L 256.113854 280.826182 
L 256.179432 277.160727 
L 256.310841 280.826182 
L 256.442587 277.160727 
L 256.574664 280.826182 
L 256.706745 277.160727 
L 256.83873 280.826182 
L 257.036537 280.826182 
L 257.102428 277.160727 
L 257.234147 280.826182 
L 257.299976 280.826182 
L 257.365785 277.160727 
L 257.497344 280.826182 
L 257.891581 280.826182 
L 257.957228 277.160727 
L 258.088473 280.826182 
L 258.219657 280.826182 
L 258.285228 277.160727 
L 258.350784 280.826182 
L 258.481856 277.160727 
L 258.547372 277.160727 
L 258.678367 280.826182 
L 258.809315 277.160727 
L 258.874773 277.160727 
L 259.005655 280.826182 
L 259.136498 280.826182 
L 259.267304 277.160727 
L 259.398076 277.160727 
L 259.528817 280.826182 
L 259.594176 280.826182 
L 259.724875 277.160727 
L 259.85555 277.160727 
L 259.986203 280.826182 
L 260.051523 277.160727 
L 260.116838 280.826182 
L 260.182149 277.160727 
L 260.247456 280.826182 
L 260.31276 277.160727 
L 260.322479 284.491636 
L 260.385083 266.164364 
L 260.418287 280.826182 
L 260.451956 280.826182 
L 260.621227 288.157091 
L 260.964707 288.157091 
L 261.069043 291.822545 
L 261.209092 288.157091 
L 261.244272 288.157091 
L 261.385667 291.822545 
L 261.421185 288.157091 
L 261.492426 291.822545 
L 261.599798 291.822545 
L 261.671723 288.157091 
L 261.707788 291.822545 
L 263.8019 291.822545 
L 263.922629 295.488 
L 264.125405 295.488 
L 264.248015 291.822545 
L 265.427351 291.822545 
L 265.557543 288.157091 
L 265.688493 288.157091 
L 265.732313 291.822545 
L 265.776217 288.157091 
L 265.908442 288.157091 
L 265.952688 291.822545 
L 265.99702 288.157091 
L 269.323426 288.157091 
L 269.476272 284.491636 
L 269.578661 288.157091 
L 269.732983 284.491636 
L 269.784621 284.491636 
L 269.836359 288.157091 
L 269.888196 284.491636 
L 269.992168 284.491636 
L 270.044304 288.157091 
L 270.096541 284.491636 
L 270.571194 284.491636 
L 270.624439 288.157091 
L 270.677787 284.491636 
L 272.954779 284.491636 
L 273.012555 280.826182 
L 273.128428 284.491636 
L 275.787695 284.491636 
L 275.913528 280.826182 
L 276.039788 284.491636 
L 276.229975 284.491636 
L 276.293583 280.826182 
L 276.357296 284.491636 
L 276.485041 280.826182 
L 276.549072 280.826182 
L 276.677449 284.491636 
L 276.741796 284.491636 
L 276.806248 280.826182 
L 276.935467 284.491636 
L 277.000233 284.491636 
L 277.065104 280.826182 
L 277.19516 284.491636 
L 277.391026 284.491636 
L 277.456522 280.826182 
L 277.587826 284.491636 
L 277.653633 284.491636 
L 277.719544 280.826182 
L 277.851675 284.491636 
L 277.984218 280.826182 
L 278.384306 280.826182 
L 278.451345 284.491636 
L 278.585727 280.826182 
L 278.65307 284.491636 
L 278.855707 277.160727 
L 278.991303 280.826182 
L 280.021006 280.826182 
L 280.090444 277.160727 
L 280.229616 280.826182 
L 280.299349 280.826182 
L 280.439106 277.160727 
L 280.509131 280.826182 
L 280.579254 277.160727 
L 280.719789 280.826182 
L 280.860711 277.160727 
L 281.00202 280.826182 
L 281.072818 280.826182 
L 281.214702 277.160727 
L 281.285788 277.160727 
L 281.428246 280.826182 
L 281.642647 280.826182 
L 281.786055 277.160727 
L 281.929841 280.826182 
L 282.145376 280.826182 
L 282.217106 277.160727 
L 282.288781 280.826182 
L 282.431966 277.160727 
L 282.503478 280.826182 
L 282.574936 277.160727 
L 282.646343 280.826182 
L 282.789003 277.160727 
L 282.931462 277.160727 
L 283.002619 280.826182 
L 283.073727 277.160727 
L 283.215803 280.826182 
L 283.286771 277.160727 
L 283.428573 280.826182 
L 283.570199 277.160727 
L 283.711654 280.826182 
L 283.852944 277.160727 
L 284.064578 277.160727 
L 284.135046 280.826182 
L 284.205475 277.160727 
L 284.368439 280.826182 
L 284.420239 273.495273 
L 284.45473 280.826182 
L 284.629015 288.157091 
L 285.27131 288.157091 
L 285.417214 291.822545 
L 285.490605 288.157091 
L 285.527411 291.822545 
L 285.56429 291.822545 
L 285.675371 288.157091 
L 285.712546 288.157091 
L 285.82452 291.822545 
L 285.861994 291.822545 
L 285.937167 288.157091 
L 286.050493 291.822545 
L 286.164503 288.157091 
L 286.202658 291.822545 
L 286.240891 288.157091 
L 286.394589 288.157091 
L 286.433207 291.822545 
L 286.471902 288.157091 
L 286.510675 288.157091 
L 286.549526 291.822545 
L 286.588456 288.157091 
L 286.666549 288.157091 
L 286.739566 291.822545 
L 286.778888 288.157091 
L 286.818278 291.822545 
L 286.857748 291.822545 
L 286.897298 288.157091 
L 286.936927 291.822545 
L 286.976636 291.822545 
L 287.016425 288.157091 
L 287.056295 291.822545 
L 288.718906 291.822545 
L 288.849111 295.488 
L 289.111908 295.488 
L 289.244511 291.822545 
L 290.149457 291.822545 
L 290.195676 288.157091 
L 290.241988 291.822545 
L 290.334896 291.822545 
L 290.381491 288.157091 
L 290.428181 291.822545 
L 290.521846 291.822545 
L 290.663058 288.157091 
L 290.710319 291.822545 
L 290.757677 288.157091 
L 290.805131 288.157091 
L 290.852682 291.822545 
L 290.900329 288.157091 
L 294.05089 288.157091 
L 294.105 284.491636 
L 294.159219 288.157091 
L 294.213548 288.157091 
L 294.322531 284.491636 
L 294.377186 288.157091 
L 294.431951 284.491636 
L 294.707425 284.491636 
L 294.762851 288.157091 
L 294.818388 284.491636 
L 295.894878 284.491636 
L 295.952668 288.157091 
L 296.068593 284.491636 
L 296.833375 284.491636 
L 296.89302 280.826182 
L 297.012663 284.491636 
L 297.19301 284.491636 
L 297.253362 280.826182 
L 297.374422 284.491636 
L 297.617969 284.491636 
L 297.679154 280.826182 
L 297.801883 284.491636 
L 297.863427 280.826182 
L 297.986876 284.491636 
L 298.110808 280.826182 
L 298.235223 280.826182 
L 298.297612 284.491636 
L 298.422754 280.826182 
L 298.485508 284.491636 
L 298.611381 280.826182 
L 298.674501 284.491636 
L 298.801108 280.826182 
L 298.864595 280.826182 
L 298.991939 284.491636 
L 299.119775 280.826182 
L 301.438071 280.826182 
L 301.506602 277.160727 
L 301.644051 280.826182 
L 301.71297 280.826182 
L 301.782019 273.495273 
L 301.920501 284.491636 
L 302.059506 284.491636 
L 302.19903 280.826182 
L 302.268986 284.491636 
L 302.409284 280.826182 
L 304.27921 280.826182 
L 304.352805 277.160727 
L 304.426522 280.826182 
L 304.50036 277.160727 
L 304.648398 280.826182 
L 304.796917 280.826182 
L 304.945916 277.160727 
L 305.095391 280.826182 
L 305.245341 277.160727 
L 305.320493 280.826182 
L 305.395763 277.160727 
L 305.546654 280.826182 
L 305.622275 277.160727 
L 305.773867 280.826182 
L 305.925921 277.160727 
L 306.002121 277.160727 
L 306.078437 280.826182 
L 306.231411 277.160727 
L 306.38484 277.160727 
L 306.461726 280.826182 
L 306.615835 277.160727 
L 307.003069 277.160727 
L 307.08085 280.826182 
L 307.236743 277.160727 
L 307.785814 277.160727 
L 307.864686 280.826182 
L 308.022556 277.160727 
L 308.415449 277.160727 
L 308.425464 284.491636 
L 308.476351 269.829818 
L 308.511469 280.826182 
L 308.583283 280.826182 
L 308.763973 288.157091 
L 309.317891 288.157091 
L 309.355439 291.822545 
L 309.393064 288.157091 
L 312.058805 288.157091 
L 312.188995 291.822545 
L 312.232575 288.157091 
L 312.276249 291.822545 
L 312.320014 291.822545 
L 312.363872 288.157091 
L 312.407824 291.822545 
L 312.451868 291.822545 
L 312.496006 288.157091 
L 312.540237 291.822545 
L 312.673495 291.822545 
L 312.718103 288.157091 
L 312.762806 291.822545 
L 314.053791 291.822545 
L 314.101333 295.488 
L 314.148976 291.822545 
L 314.244567 291.822545 
L 314.292515 295.488 
L 314.340565 291.822545 
L 315.223166 291.822545 
L 315.373577 288.157091 
L 315.474385 291.822545 
L 315.575622 288.157091 
L 315.626402 291.822545 
L 315.67729 288.157091 
L 318.251112 288.157091 
L 318.307555 284.491636 
L 318.420795 288.157091 
L 318.534512 284.491636 
L 318.8209 284.491636 
L 318.878538 288.157091 
L 318.994177 284.491636 
L 321.982623 284.491636 
L 322.046803 280.826182 
L 322.111113 284.491636 
L 322.240128 280.826182 
L 322.304832 280.826182 
L 322.369668 284.491636 
L 322.499735 280.826182 
L 322.630331 284.491636 
L 322.893113 284.491636 
L 323.025302 280.826182 
L 323.158026 280.826182 
L 323.224589 284.491636 
L 323.358116 280.826182 
L 323.425081 284.491636 
L 323.559416 280.826182 
L 323.965662 280.826182 
L 324.033845 284.491636 
L 324.170618 280.826182 
L 324.239209 280.826182 
L 324.307937 284.491636 
L 324.445803 280.826182 
L 325.002763 280.826182 
L 325.073004 284.491636 
L 325.213902 280.826182 
L 326.215808 280.826182 
L 326.288425 277.160727 
L 326.434084 280.826182 
L 327.3188 280.826182 
L 327.392892 277.160727 
L 327.46698 280.826182 
L 327.615146 277.160727 
L 327.689225 277.160727 
L 327.837377 280.826182 
L 327.985522 280.826182 
L 328.059594 277.160727 
L 328.133665 280.826182 
L 328.207736 277.160727 
L 328.355879 280.826182 
L 328.504027 277.160727 
L 328.652181 277.160727 
L 328.800346 280.826182 
L 328.874433 280.826182 
L 329.022617 277.160727 
L 329.096801 280.826182 
L 329.245013 277.160727 
L 329.319127 277.160727 
L 329.393246 280.826182 
L 329.541501 277.160727 
L 329.689784 277.160727 
L 329.763936 280.826182 
L 329.912262 277.160727 
L 330.134815 277.160727 
L 330.209018 280.826182 
L 330.289226 273.495273 
L 330.530708 280.826182 
L 330.6115 280.826182 
L 330.773527 277.160727 
L 330.936139 280.826182 
L 331.099333 280.826182 
L 331.263104 277.160727 
L 331.345204 280.826182 
L 331.427447 277.160727 
L 331.59236 280.826182 
L 331.757836 277.160727 
L 331.840785 280.826182 
L 332.0071 277.160727 
L 332.090466 280.826182 
L 332.25761 277.160727 
L 332.341387 277.160727 
L 332.4083 266.164364 
L 332.446479 277.160727 
L 332.630546 284.491636 
L 332.742012 288.157091 
L 333.348958 288.157091 
L 333.387438 291.822545 
L 333.426189 288.157091 
L 337.90344 288.157091 
L 337.952087 291.822545 
L 338.000843 288.157091 
L 338.246252 288.157091 
L 338.394814 291.822545 
L 340.419135 291.822545 
L 340.473385 288.157091 
L 340.527757 291.822545 
L 340.801433 291.822545 
L 340.911757 288.157091 
L 340.967103 291.822545 
L 341.022573 288.157091 
L 341.245685 288.157091 
L 341.301773 291.822545 
L 341.414322 288.157091 
L 343.163676 288.157091 
L 343.224003 284.491636 
L 343.284462 288.157091 
L 343.40578 284.491636 
L 343.711409 284.491636 
L 343.772937 288.157091 
L 343.896397 284.491636 
L 346.414116 284.491636 
L 346.481491 280.826182 
L 346.616673 284.491636 
L 346.752432 284.491636 
L 346.820528 280.826182 
L 346.888769 284.491636 
L 346.957154 280.826182 
L 347.094361 284.491636 
L 347.163183 280.826182 
L 347.301264 284.491636 
L 347.509481 284.491636 
L 347.649026 280.826182 
L 350.338161 280.826182 
L 350.413716 277.160727 
L 350.489423 280.826182 
L 350.565285 277.160727 
L 350.6413 280.826182 
L 350.717469 277.160727 
L 350.870269 280.826182 
L 350.9469 277.160727 
L 351.100226 280.826182 
L 351.176849 280.826182 
L 351.330017 277.160727 
L 351.559583 277.160727 
L 351.712507 280.826182 
L 351.788936 277.160727 
L 351.941726 280.826182 
L 352.01809 280.826182 
L 352.170755 277.160727 
L 352.323342 280.826182 
L 352.399607 277.160727 
L 352.552084 280.826182 
L 352.856833 280.826182 
L 352.93298 277.160727 
L 353.085231 280.826182 
L 353.237425 277.160727 
L 353.389566 280.826182 
L 353.921696 280.826182 
L 353.997674 277.160727 
L 354.149603 280.826182 
L 354.3015 280.826182 
L 354.453368 277.160727 
L 354.529293 277.160727 
L 354.605211 280.826182 
L 354.681123 277.160727 
L 354.832933 280.826182 
L 354.908832 277.160727 
L 354.984726 280.826182 
L 355.060616 277.160727 
L 355.136503 280.826182 
L 355.212388 277.160727 
L 355.364149 280.826182 
L 355.515904 277.160727 
L 355.59178 280.826182 
L 355.74353 277.160727 
L 355.895281 280.826182 
L 356.047036 277.160727 
L 356.198798 277.160727 
L 356.274682 280.826182 
L 356.350569 277.160727 
L 356.363026 284.491636 
L 356.611108 211.182545 
L 356.76323 288.157091 
L 358.034268 288.157091 
L 358.075507 284.491636 
L 358.116808 288.157091 
L 359.049337 288.157091 
L 359.180123 284.491636 
L 359.311802 288.157091 
L 363.987204 288.157091 
L 364.04209 291.822545 
L 364.097104 288.157091 
L 364.262916 288.157091 
L 364.374102 291.822545 
L 366.165229 291.822545 
L 366.22518 288.157091 
L 366.285271 291.822545 
L 366.405871 288.157091 
L 366.46638 291.822545 
L 366.58782 288.157091 
L 368.478287 288.157091 
L 368.543575 284.491636 
L 368.609011 288.157091 
L 368.674598 284.491636 
L 368.740334 288.157091 
L 368.872258 284.491636 
L 371.712519 284.491636 
L 371.785104 280.826182 
L 371.857849 284.491636 
L 371.930755 280.826182 
L 372.003823 284.491636 
L 372.077052 280.826182 
L 372.150443 284.491636 
L 372.223996 280.826182 
L 372.371589 284.491636 
L 372.445628 284.491636 
L 372.594196 280.826182 
L 372.743417 280.826182 
L 372.818272 284.491636 
L 372.968475 280.826182 
L 373.499361 280.826182 
L 373.575862 284.491636 
L 373.729361 280.826182 
L 374.664334 280.826182 
L 374.743336 277.160727 
L 374.901844 280.826182 
L 375.301063 280.826182 
L 375.381413 277.160727 
L 375.542349 280.826182 
L 375.622734 280.826182 
L 375.703063 277.160727 
L 375.863562 280.826182 
L 375.943732 280.826182 
L 376.023851 277.160727 
L 376.183936 280.826182 
L 376.263904 277.160727 
L 376.423695 280.826182 
L 377.140496 280.826182 
L 377.219926 277.160727 
L 377.299316 280.826182 
L 377.457976 277.160727 
L 377.537248 277.160727 
L 377.616483 280.826182 
L 377.774841 277.160727 
L 377.933055 277.160727 
L 378.012109 280.826182 
L 378.170117 277.160727 
L 378.327992 280.826182 
L 378.406882 280.826182 
L 378.485741 277.160727 
L 378.643368 280.826182 
L 378.722136 277.160727 
L 378.879588 280.826182 
L 379.036929 277.160727 
L 379.115559 277.160727 
L 379.194163 280.826182 
L 379.272741 277.160727 
L 379.429824 280.826182 
L 379.586811 277.160727 
L 379.66527 277.160727 
L 379.743706 280.826182 
L 379.900515 277.160727 
L 379.978887 280.826182 
L 380.135572 277.160727 
L 380.303377 284.491636 
L 380.404394 255.168 
L 380.558703 284.491636 
L 380.597629 284.491636 
L 380.71495 288.157091 
L 382.662497 288.157091 
L 382.706307 284.491636 
L 382.750188 288.157091 
L 386.564191 288.157091 
L 386.670348 291.822545 
L 386.830542 288.157091 
L 386.884196 288.157091 
L 387.045936 291.822545 
L 387.318106 291.822545 
L 387.482985 288.157091 
L 387.53821 288.157091 
L 387.704686 291.822545 
L 387.81634 288.157091 
L 387.872369 288.157091 
L 387.928533 280.826182 
L 387.984832 284.491636 
L 388.041264 284.491636 
L 388.097835 288.157091 
L 388.154543 284.491636 
L 388.26837 288.157091 
L 388.382749 288.157091 
L 388.440146 284.491636 
L 388.555357 288.157091 
L 389.199073 288.157091 
L 389.258446 284.491636 
L 389.377624 288.157091 
L 389.43743 288.157091 
L 389.49738 284.491636 
L 389.617717 288.157091 
L 390.917027 288.157091 
L 390.980559 291.822545 
L 391.044245 288.157091 
L 391.108085 291.822545 
L 391.236228 288.157091 
L 391.494376 288.157091 
L 391.559304 291.822545 
L 391.689628 288.157091 
L 391.820583 291.822545 
L 391.952169 288.157091 
L 392.018201 288.157091 
L 392.084391 291.822545 
L 392.21725 288.157091 
L 392.35075 291.822545 
L 392.417741 288.157091 
L 392.552206 291.822545 
L 392.619681 291.822545 
L 392.755117 288.157091 
L 394.360067 288.157091 
L 394.43186 284.491636 
L 394.575956 288.157091 
L 394.648261 288.157091 
L 394.793383 284.491636 
L 397.053865 284.491636 
L 397.13196 280.826182 
L 397.288691 284.491636 
L 397.446142 284.491636 
L 397.604317 280.826182 
L 398.002926 280.826182 
L 398.083194 284.491636 
L 398.244277 280.826182 
L 398.487273 280.826182 
L 398.487273 280.826182 
" style="fill:none;stroke:#1f77b4;stroke-linecap:square;stroke-width:1.5;"/>
   </g>
   <g id="patch_3">
    <path d="M 57.6 307.584 
L 57.6 41.472 
" style="fill:none;stroke:#000000;stroke-linecap:square;stroke-linejoin:miter;stroke-width:0.8;"/>
   </g>
   <g id="patch_4">
    <path d="M 414.72 307.584 
L 414.72 41.472 
" style="fill:none;stroke:#000000;stroke-linecap:square;stroke-linejoin:miter;stroke-width:0.8;"/>
   </g>
   <g id="patch_5">
    <path d="M 57.6 307.584 
L 414.72 307.584 
" style="fill:none;stroke:#000000;stroke-linecap:square;stroke-linejoin:miter;stroke-width:0.8;"/>
   </g>
   <g id="patch_6">
    <path d="M 57.6 41.472 
L 414.72 41.472 
" style="fill:none;stroke:#000000;stroke-linecap:square;stroke-linejoin:miter;stroke-width:0.8;"/>
   </g>
  </g>
 </g>
 <defs>
  <clipPath id="p7653579d97">
   <rect height="266.112" width="357.12" x="57.6" y="41.472"/>
  </clipPath>
 </defs>
</svg>
