<?xml version="1.0" encoding="utf-8" standalone="no"?>
<!DOCTYPE svg PUBLIC "-//W3C//DTD SVG 1.1//EN"
  "http://www.w3.org/Graphics/SVG/1.1/DTD/svg11.dtd">
<!-- Created with matplotlib (https://matplotlib.org/) -->
<svg height="345.6pt" version="1.1" viewBox="0 0 460.8 345.6" width="460.8pt" xmlns="http://www.w3.org/2000/svg" xmlns:xlink="http://www.w3.org/1999/xlink">
 <metadata>
  <rdf:RDF xmlns:cc="http://creativecommons.org/ns#" xmlns:dc="http://purl.org/dc/elements/1.1/" xmlns:rdf="http://www.w3.org/1999/02/22-rdf-syntax-ns#">
   <cc:Work>
    <dc:type rdf:resource="http://purl.org/dc/dcmitype/StillImage"/>
    <dc:date>2022-10-18T21:36:47.025147</dc:date>
    <dc:format>image/svg+xml</dc:format>
    <dc:creator>
     <cc:Agent>
      <dc:title>Matplotlib v3.3.4, https://matplotlib.org/</dc:title>
     </cc:Agent>
    </dc:creator>
   </cc:Work>
  </rdf:RDF>
 </metadata>
 <defs>
  <style type="text/css">*{stroke-linecap:butt;stroke-linejoin:round;}</style>
 </defs>
 <g id="figure_1">
  <g id="patch_1">
   <path d="M 0 345.6 
L 460.8 345.6 
L 460.8 0 
L 0 0 
z
" style="fill:#ffffff;"/>
  </g>
  <g id="axes_1">
   <g id="patch_2">
    <path d="M 57.6 307.584 
L 414.72 307.584 
L 414.72 41.472 
L 57.6 41.472 
z
" style="fill:#ffffff;"/>
   </g>
   <g id="matplotlib.axis_1">
    <g id="xtick_1">
     <g id="line2d_1">
      <defs>
       <path d="M 0 0 
L 0 3.5 
" id="mdae3c0fa2b" style="stroke:#000000;stroke-width:0.8;"/>
      </defs>
      <g>
       <use style="stroke:#000000;stroke-width:0.8;" x="73.56194" xlink:href="#mdae3c0fa2b" y="307.584"/>
      </g>
     </g>
     <g id="text_1">
      <!-- 0.0 -->
      <g transform="translate(65.610377 322.182437)scale(0.1 -0.1)">
       <defs>
        <path d="M 31.78125 66.40625 
Q 24.171875 66.40625 20.328125 58.90625 
Q 16.5 51.421875 16.5 36.375 
Q 16.5 21.390625 20.328125 13.890625 
Q 24.171875 6.390625 31.78125 6.390625 
Q 39.453125 6.390625 43.28125 13.890625 
Q 47.125 21.390625 47.125 36.375 
Q 47.125 51.421875 43.28125 58.90625 
Q 39.453125 66.40625 31.78125 66.40625 
z
M 31.78125 74.21875 
Q 44.046875 74.21875 50.515625 64.515625 
Q 56.984375 54.828125 56.984375 36.375 
Q 56.984375 17.96875 50.515625 8.265625 
Q 44.046875 -1.421875 31.78125 -1.421875 
Q 19.53125 -1.421875 13.0625 8.265625 
Q 6.59375 17.96875 6.59375 36.375 
Q 6.59375 54.828125 13.0625 64.515625 
Q 19.53125 74.21875 31.78125 74.21875 
z
" id="DejaVuSans-48"/>
        <path d="M 10.6875 12.40625 
L 21 12.40625 
L 21 0 
L 10.6875 0 
z
" id="DejaVuSans-46"/>
       </defs>
       <use xlink:href="#DejaVuSans-48"/>
       <use x="63.623047" xlink:href="#DejaVuSans-46"/>
       <use x="95.410156" xlink:href="#DejaVuSans-48"/>
      </g>
     </g>
    </g>
    <g id="xtick_2">
     <g id="line2d_2">
      <g>
       <use style="stroke:#000000;stroke-width:0.8;" x="127.719422" xlink:href="#mdae3c0fa2b" y="307.584"/>
      </g>
     </g>
     <g id="text_2">
      <!-- 0.2 -->
      <g transform="translate(119.767859 322.182437)scale(0.1 -0.1)">
       <defs>
        <path d="M 19.1875 8.296875 
L 53.609375 8.296875 
L 53.609375 0 
L 7.328125 0 
L 7.328125 8.296875 
Q 12.9375 14.109375 22.625 23.890625 
Q 32.328125 33.6875 34.8125 36.53125 
Q 39.546875 41.84375 41.421875 45.53125 
Q 43.3125 49.21875 43.3125 52.78125 
Q 43.3125 58.59375 39.234375 62.25 
Q 35.15625 65.921875 28.609375 65.921875 
Q 23.96875 65.921875 18.8125 64.3125 
Q 13.671875 62.703125 7.8125 59.421875 
L 7.8125 69.390625 
Q 13.765625 71.78125 18.9375 73 
Q 24.125 74.21875 28.421875 74.21875 
Q 39.75 74.21875 46.484375 68.546875 
Q 53.21875 62.890625 53.21875 53.421875 
Q 53.21875 48.921875 51.53125 44.890625 
Q 49.859375 40.875 45.40625 35.40625 
Q 44.1875 33.984375 37.640625 27.21875 
Q 31.109375 20.453125 19.1875 8.296875 
z
" id="DejaVuSans-50"/>
       </defs>
       <use xlink:href="#DejaVuSans-48"/>
       <use x="63.623047" xlink:href="#DejaVuSans-46"/>
       <use x="95.410156" xlink:href="#DejaVuSans-50"/>
      </g>
     </g>
    </g>
    <g id="xtick_3">
     <g id="line2d_3">
      <g>
       <use style="stroke:#000000;stroke-width:0.8;" x="181.876904" xlink:href="#mdae3c0fa2b" y="307.584"/>
      </g>
     </g>
     <g id="text_3">
      <!-- 0.4 -->
      <g transform="translate(173.925342 322.182437)scale(0.1 -0.1)">
       <defs>
        <path d="M 37.796875 64.3125 
L 12.890625 25.390625 
L 37.796875 25.390625 
z
M 35.203125 72.90625 
L 47.609375 72.90625 
L 47.609375 25.390625 
L 58.015625 25.390625 
L 58.015625 17.1875 
L 47.609375 17.1875 
L 47.609375 0 
L 37.796875 0 
L 37.796875 17.1875 
L 4.890625 17.1875 
L 4.890625 26.703125 
z
" id="DejaVuSans-52"/>
       </defs>
       <use xlink:href="#DejaVuSans-48"/>
       <use x="63.623047" xlink:href="#DejaVuSans-46"/>
       <use x="95.410156" xlink:href="#DejaVuSans-52"/>
      </g>
     </g>
    </g>
    <g id="xtick_4">
     <g id="line2d_4">
      <g>
       <use style="stroke:#000000;stroke-width:0.8;" x="236.034386" xlink:href="#mdae3c0fa2b" y="307.584"/>
      </g>
     </g>
     <g id="text_4">
      <!-- 0.6 -->
      <g transform="translate(228.082824 322.182437)scale(0.1 -0.1)">
       <defs>
        <path d="M 33.015625 40.375 
Q 26.375 40.375 22.484375 35.828125 
Q 18.609375 31.296875 18.609375 23.390625 
Q 18.609375 15.53125 22.484375 10.953125 
Q 26.375 6.390625 33.015625 6.390625 
Q 39.65625 6.390625 43.53125 10.953125 
Q 47.40625 15.53125 47.40625 23.390625 
Q 47.40625 31.296875 43.53125 35.828125 
Q 39.65625 40.375 33.015625 40.375 
z
M 52.59375 71.296875 
L 52.59375 62.3125 
Q 48.875 64.0625 45.09375 64.984375 
Q 41.3125 65.921875 37.59375 65.921875 
Q 27.828125 65.921875 22.671875 59.328125 
Q 17.53125 52.734375 16.796875 39.40625 
Q 19.671875 43.65625 24.015625 45.921875 
Q 28.375 48.1875 33.59375 48.1875 
Q 44.578125 48.1875 50.953125 41.515625 
Q 57.328125 34.859375 57.328125 23.390625 
Q 57.328125 12.15625 50.6875 5.359375 
Q 44.046875 -1.421875 33.015625 -1.421875 
Q 20.359375 -1.421875 13.671875 8.265625 
Q 6.984375 17.96875 6.984375 36.375 
Q 6.984375 53.65625 15.1875 63.9375 
Q 23.390625 74.21875 37.203125 74.21875 
Q 40.921875 74.21875 44.703125 73.484375 
Q 48.484375 72.75 52.59375 71.296875 
z
" id="DejaVuSans-54"/>
       </defs>
       <use xlink:href="#DejaVuSans-48"/>
       <use x="63.623047" xlink:href="#DejaVuSans-46"/>
       <use x="95.410156" xlink:href="#DejaVuSans-54"/>
      </g>
     </g>
    </g>
    <g id="xtick_5">
     <g id="line2d_5">
      <g>
       <use style="stroke:#000000;stroke-width:0.8;" x="290.191868" xlink:href="#mdae3c0fa2b" y="307.584"/>
      </g>
     </g>
     <g id="text_5">
      <!-- 0.8 -->
      <g transform="translate(282.240306 322.182437)scale(0.1 -0.1)">
       <defs>
        <path d="M 31.78125 34.625 
Q 24.75 34.625 20.71875 30.859375 
Q 16.703125 27.09375 16.703125 20.515625 
Q 16.703125 13.921875 20.71875 10.15625 
Q 24.75 6.390625 31.78125 6.390625 
Q 38.8125 6.390625 42.859375 10.171875 
Q 46.921875 13.96875 46.921875 20.515625 
Q 46.921875 27.09375 42.890625 30.859375 
Q 38.875 34.625 31.78125 34.625 
z
M 21.921875 38.8125 
Q 15.578125 40.375 12.03125 44.71875 
Q 8.5 49.078125 8.5 55.328125 
Q 8.5 64.0625 14.71875 69.140625 
Q 20.953125 74.21875 31.78125 74.21875 
Q 42.671875 74.21875 48.875 69.140625 
Q 55.078125 64.0625 55.078125 55.328125 
Q 55.078125 49.078125 51.53125 44.71875 
Q 48 40.375 41.703125 38.8125 
Q 48.828125 37.15625 52.796875 32.3125 
Q 56.78125 27.484375 56.78125 20.515625 
Q 56.78125 9.90625 50.3125 4.234375 
Q 43.84375 -1.421875 31.78125 -1.421875 
Q 19.734375 -1.421875 13.25 4.234375 
Q 6.78125 9.90625 6.78125 20.515625 
Q 6.78125 27.484375 10.78125 32.3125 
Q 14.796875 37.15625 21.921875 38.8125 
z
M 18.3125 54.390625 
Q 18.3125 48.734375 21.84375 45.5625 
Q 25.390625 42.390625 31.78125 42.390625 
Q 38.140625 42.390625 41.71875 45.5625 
Q 45.3125 48.734375 45.3125 54.390625 
Q 45.3125 60.0625 41.71875 63.234375 
Q 38.140625 66.40625 31.78125 66.40625 
Q 25.390625 66.40625 21.84375 63.234375 
Q 18.3125 60.0625 18.3125 54.390625 
z
" id="DejaVuSans-56"/>
       </defs>
       <use xlink:href="#DejaVuSans-48"/>
       <use x="63.623047" xlink:href="#DejaVuSans-46"/>
       <use x="95.410156" xlink:href="#DejaVuSans-56"/>
      </g>
     </g>
    </g>
    <g id="xtick_6">
     <g id="line2d_6">
      <g>
       <use style="stroke:#000000;stroke-width:0.8;" x="344.34935" xlink:href="#mdae3c0fa2b" y="307.584"/>
      </g>
     </g>
     <g id="text_6">
      <!-- 1.0 -->
      <g transform="translate(336.397788 322.182437)scale(0.1 -0.1)">
       <defs>
        <path d="M 12.40625 8.296875 
L 28.515625 8.296875 
L 28.515625 63.921875 
L 10.984375 60.40625 
L 10.984375 69.390625 
L 28.421875 72.90625 
L 38.28125 72.90625 
L 38.28125 8.296875 
L 54.390625 8.296875 
L 54.390625 0 
L 12.40625 0 
z
" id="DejaVuSans-49"/>
       </defs>
       <use xlink:href="#DejaVuSans-49"/>
       <use x="63.623047" xlink:href="#DejaVuSans-46"/>
       <use x="95.410156" xlink:href="#DejaVuSans-48"/>
      </g>
     </g>
    </g>
    <g id="xtick_7">
     <g id="line2d_7">
      <g>
       <use style="stroke:#000000;stroke-width:0.8;" x="398.506832" xlink:href="#mdae3c0fa2b" y="307.584"/>
      </g>
     </g>
     <g id="text_7">
      <!-- 1.2 -->
      <g transform="translate(390.55527 322.182437)scale(0.1 -0.1)">
       <use xlink:href="#DejaVuSans-49"/>
       <use x="63.623047" xlink:href="#DejaVuSans-46"/>
       <use x="95.410156" xlink:href="#DejaVuSans-50"/>
      </g>
     </g>
    </g>
    <g id="text_8">
     <!-- time [days] -->
     <g transform="translate(207.570937 335.860562)scale(0.1 -0.1)">
      <defs>
       <path d="M 18.3125 70.21875 
L 18.3125 54.6875 
L 36.8125 54.6875 
L 36.8125 47.703125 
L 18.3125 47.703125 
L 18.3125 18.015625 
Q 18.3125 11.328125 20.140625 9.421875 
Q 21.96875 7.515625 27.59375 7.515625 
L 36.8125 7.515625 
L 36.8125 0 
L 27.59375 0 
Q 17.1875 0 13.234375 3.875 
Q 9.28125 7.765625 9.28125 18.015625 
L 9.28125 47.703125 
L 2.6875 47.703125 
L 2.6875 54.6875 
L 9.28125 54.6875 
L 9.28125 70.21875 
z
" id="DejaVuSans-116"/>
       <path d="M 9.421875 54.6875 
L 18.40625 54.6875 
L 18.40625 0 
L 9.421875 0 
z
M 9.421875 75.984375 
L 18.40625 75.984375 
L 18.40625 64.59375 
L 9.421875 64.59375 
z
" id="DejaVuSans-105"/>
       <path d="M 52 44.1875 
Q 55.375 50.25 60.0625 53.125 
Q 64.75 56 71.09375 56 
Q 79.640625 56 84.28125 50.015625 
Q 88.921875 44.046875 88.921875 33.015625 
L 88.921875 0 
L 79.890625 0 
L 79.890625 32.71875 
Q 79.890625 40.578125 77.09375 44.375 
Q 74.3125 48.1875 68.609375 48.1875 
Q 61.625 48.1875 57.5625 43.546875 
Q 53.515625 38.921875 53.515625 30.90625 
L 53.515625 0 
L 44.484375 0 
L 44.484375 32.71875 
Q 44.484375 40.625 41.703125 44.40625 
Q 38.921875 48.1875 33.109375 48.1875 
Q 26.21875 48.1875 22.15625 43.53125 
Q 18.109375 38.875 18.109375 30.90625 
L 18.109375 0 
L 9.078125 0 
L 9.078125 54.6875 
L 18.109375 54.6875 
L 18.109375 46.1875 
Q 21.1875 51.21875 25.484375 53.609375 
Q 29.78125 56 35.6875 56 
Q 41.65625 56 45.828125 52.96875 
Q 50 49.953125 52 44.1875 
z
" id="DejaVuSans-109"/>
       <path d="M 56.203125 29.59375 
L 56.203125 25.203125 
L 14.890625 25.203125 
Q 15.484375 15.921875 20.484375 11.0625 
Q 25.484375 6.203125 34.421875 6.203125 
Q 39.59375 6.203125 44.453125 7.46875 
Q 49.3125 8.734375 54.109375 11.28125 
L 54.109375 2.78125 
Q 49.265625 0.734375 44.1875 -0.34375 
Q 39.109375 -1.421875 33.890625 -1.421875 
Q 20.796875 -1.421875 13.15625 6.1875 
Q 5.515625 13.8125 5.515625 26.8125 
Q 5.515625 40.234375 12.765625 48.109375 
Q 20.015625 56 32.328125 56 
Q 43.359375 56 49.78125 48.890625 
Q 56.203125 41.796875 56.203125 29.59375 
z
M 47.21875 32.234375 
Q 47.125 39.59375 43.09375 43.984375 
Q 39.0625 48.390625 32.421875 48.390625 
Q 24.90625 48.390625 20.390625 44.140625 
Q 15.875 39.890625 15.1875 32.171875 
z
" id="DejaVuSans-101"/>
       <path id="DejaVuSans-32"/>
       <path d="M 8.59375 75.984375 
L 29.296875 75.984375 
L 29.296875 69 
L 17.578125 69 
L 17.578125 -6.203125 
L 29.296875 -6.203125 
L 29.296875 -13.1875 
L 8.59375 -13.1875 
z
" id="DejaVuSans-91"/>
       <path d="M 45.40625 46.390625 
L 45.40625 75.984375 
L 54.390625 75.984375 
L 54.390625 0 
L 45.40625 0 
L 45.40625 8.203125 
Q 42.578125 3.328125 38.25 0.953125 
Q 33.9375 -1.421875 27.875 -1.421875 
Q 17.96875 -1.421875 11.734375 6.484375 
Q 5.515625 14.40625 5.515625 27.296875 
Q 5.515625 40.1875 11.734375 48.09375 
Q 17.96875 56 27.875 56 
Q 33.9375 56 38.25 53.625 
Q 42.578125 51.265625 45.40625 46.390625 
z
M 14.796875 27.296875 
Q 14.796875 17.390625 18.875 11.75 
Q 22.953125 6.109375 30.078125 6.109375 
Q 37.203125 6.109375 41.296875 11.75 
Q 45.40625 17.390625 45.40625 27.296875 
Q 45.40625 37.203125 41.296875 42.84375 
Q 37.203125 48.484375 30.078125 48.484375 
Q 22.953125 48.484375 18.875 42.84375 
Q 14.796875 37.203125 14.796875 27.296875 
z
" id="DejaVuSans-100"/>
       <path d="M 34.28125 27.484375 
Q 23.390625 27.484375 19.1875 25 
Q 14.984375 22.515625 14.984375 16.5 
Q 14.984375 11.71875 18.140625 8.90625 
Q 21.296875 6.109375 26.703125 6.109375 
Q 34.1875 6.109375 38.703125 11.40625 
Q 43.21875 16.703125 43.21875 25.484375 
L 43.21875 27.484375 
z
M 52.203125 31.203125 
L 52.203125 0 
L 43.21875 0 
L 43.21875 8.296875 
Q 40.140625 3.328125 35.546875 0.953125 
Q 30.953125 -1.421875 24.3125 -1.421875 
Q 15.921875 -1.421875 10.953125 3.296875 
Q 6 8.015625 6 15.921875 
Q 6 25.140625 12.171875 29.828125 
Q 18.359375 34.515625 30.609375 34.515625 
L 43.21875 34.515625 
L 43.21875 35.40625 
Q 43.21875 41.609375 39.140625 45 
Q 35.0625 48.390625 27.6875 48.390625 
Q 23 48.390625 18.546875 47.265625 
Q 14.109375 46.140625 10.015625 43.890625 
L 10.015625 52.203125 
Q 14.9375 54.109375 19.578125 55.046875 
Q 24.21875 56 28.609375 56 
Q 40.484375 56 46.34375 49.84375 
Q 52.203125 43.703125 52.203125 31.203125 
z
" id="DejaVuSans-97"/>
       <path d="M 32.171875 -5.078125 
Q 28.375 -14.84375 24.75 -17.8125 
Q 21.140625 -20.796875 15.09375 -20.796875 
L 7.90625 -20.796875 
L 7.90625 -13.28125 
L 13.1875 -13.28125 
Q 16.890625 -13.28125 18.9375 -11.515625 
Q 21 -9.765625 23.484375 -3.21875 
L 25.09375 0.875 
L 2.984375 54.6875 
L 12.5 54.6875 
L 29.59375 11.921875 
L 46.6875 54.6875 
L 56.203125 54.6875 
z
" id="DejaVuSans-121"/>
       <path d="M 44.28125 53.078125 
L 44.28125 44.578125 
Q 40.484375 46.53125 36.375 47.5 
Q 32.28125 48.484375 27.875 48.484375 
Q 21.1875 48.484375 17.84375 46.4375 
Q 14.5 44.390625 14.5 40.28125 
Q 14.5 37.15625 16.890625 35.375 
Q 19.28125 33.59375 26.515625 31.984375 
L 29.59375 31.296875 
Q 39.15625 29.25 43.1875 25.515625 
Q 47.21875 21.78125 47.21875 15.09375 
Q 47.21875 7.46875 41.1875 3.015625 
Q 35.15625 -1.421875 24.609375 -1.421875 
Q 20.21875 -1.421875 15.453125 -0.5625 
Q 10.6875 0.296875 5.421875 2 
L 5.421875 11.28125 
Q 10.40625 8.6875 15.234375 7.390625 
Q 20.0625 6.109375 24.8125 6.109375 
Q 31.15625 6.109375 34.5625 8.28125 
Q 37.984375 10.453125 37.984375 14.40625 
Q 37.984375 18.0625 35.515625 20.015625 
Q 33.0625 21.96875 24.703125 23.78125 
L 21.578125 24.515625 
Q 13.234375 26.265625 9.515625 29.90625 
Q 5.8125 33.546875 5.8125 39.890625 
Q 5.8125 47.609375 11.28125 51.796875 
Q 16.75 56 26.8125 56 
Q 31.78125 56 36.171875 55.265625 
Q 40.578125 54.546875 44.28125 53.078125 
z
" id="DejaVuSans-115"/>
       <path d="M 30.421875 75.984375 
L 30.421875 -13.1875 
L 9.71875 -13.1875 
L 9.71875 -6.203125 
L 21.390625 -6.203125 
L 21.390625 69 
L 9.71875 69 
L 9.71875 75.984375 
z
" id="DejaVuSans-93"/>
      </defs>
      <use xlink:href="#DejaVuSans-116"/>
      <use x="39.208984" xlink:href="#DejaVuSans-105"/>
      <use x="66.992188" xlink:href="#DejaVuSans-109"/>
      <use x="164.404297" xlink:href="#DejaVuSans-101"/>
      <use x="225.927734" xlink:href="#DejaVuSans-32"/>
      <use x="257.714844" xlink:href="#DejaVuSans-91"/>
      <use x="296.728516" xlink:href="#DejaVuSans-100"/>
      <use x="360.205078" xlink:href="#DejaVuSans-97"/>
      <use x="421.484375" xlink:href="#DejaVuSans-121"/>
      <use x="480.664062" xlink:href="#DejaVuSans-115"/>
      <use x="532.763672" xlink:href="#DejaVuSans-93"/>
     </g>
    </g>
   </g>
   <g id="matplotlib.axis_2">
    <g id="ytick_1">
     <g id="line2d_8">
      <defs>
       <path d="M 0 0 
L -3.5 0 
" id="m8725bc7921" style="stroke:#000000;stroke-width:0.8;"/>
      </defs>
      <g>
       <use style="stroke:#000000;stroke-width:0.8;" x="57.6" xlink:href="#m8725bc7921" y="298.994087"/>
      </g>
     </g>
     <g id="text_9">
      <!-- 0 -->
      <g transform="translate(44.2375 302.793306)scale(0.1 -0.1)">
       <use xlink:href="#DejaVuSans-48"/>
      </g>
     </g>
    </g>
    <g id="ytick_2">
     <g id="line2d_9">
      <g>
       <use style="stroke:#000000;stroke-width:0.8;" x="57.6" xlink:href="#m8725bc7921" y="263.933217"/>
      </g>
     </g>
     <g id="text_10">
      <!-- 10 -->
      <g transform="translate(37.875 267.732436)scale(0.1 -0.1)">
       <use xlink:href="#DejaVuSans-49"/>
       <use x="63.623047" xlink:href="#DejaVuSans-48"/>
      </g>
     </g>
    </g>
    <g id="ytick_3">
     <g id="line2d_10">
      <g>
       <use style="stroke:#000000;stroke-width:0.8;" x="57.6" xlink:href="#m8725bc7921" y="228.872348"/>
      </g>
     </g>
     <g id="text_11">
      <!-- 20 -->
      <g transform="translate(37.875 232.671567)scale(0.1 -0.1)">
       <use xlink:href="#DejaVuSans-50"/>
       <use x="63.623047" xlink:href="#DejaVuSans-48"/>
      </g>
     </g>
    </g>
    <g id="ytick_4">
     <g id="line2d_11">
      <g>
       <use style="stroke:#000000;stroke-width:0.8;" x="57.6" xlink:href="#m8725bc7921" y="193.811478"/>
      </g>
     </g>
     <g id="text_12">
      <!-- 30 -->
      <g transform="translate(37.875 197.610697)scale(0.1 -0.1)">
       <defs>
        <path d="M 40.578125 39.3125 
Q 47.65625 37.796875 51.625 33 
Q 55.609375 28.21875 55.609375 21.1875 
Q 55.609375 10.40625 48.1875 4.484375 
Q 40.765625 -1.421875 27.09375 -1.421875 
Q 22.515625 -1.421875 17.65625 -0.515625 
Q 12.796875 0.390625 7.625 2.203125 
L 7.625 11.71875 
Q 11.71875 9.328125 16.59375 8.109375 
Q 21.484375 6.890625 26.8125 6.890625 
Q 36.078125 6.890625 40.9375 10.546875 
Q 45.796875 14.203125 45.796875 21.1875 
Q 45.796875 27.640625 41.28125 31.265625 
Q 36.765625 34.90625 28.71875 34.90625 
L 20.21875 34.90625 
L 20.21875 43.015625 
L 29.109375 43.015625 
Q 36.375 43.015625 40.234375 45.921875 
Q 44.09375 48.828125 44.09375 54.296875 
Q 44.09375 59.90625 40.109375 62.90625 
Q 36.140625 65.921875 28.71875 65.921875 
Q 24.65625 65.921875 20.015625 65.03125 
Q 15.375 64.15625 9.8125 62.3125 
L 9.8125 71.09375 
Q 15.4375 72.65625 20.34375 73.4375 
Q 25.25 74.21875 29.59375 74.21875 
Q 40.828125 74.21875 47.359375 69.109375 
Q 53.90625 64.015625 53.90625 55.328125 
Q 53.90625 49.265625 50.4375 45.09375 
Q 46.96875 40.921875 40.578125 39.3125 
z
" id="DejaVuSans-51"/>
       </defs>
       <use xlink:href="#DejaVuSans-51"/>
       <use x="63.623047" xlink:href="#DejaVuSans-48"/>
      </g>
     </g>
    </g>
    <g id="ytick_5">
     <g id="line2d_12">
      <g>
       <use style="stroke:#000000;stroke-width:0.8;" x="57.6" xlink:href="#m8725bc7921" y="158.750609"/>
      </g>
     </g>
     <g id="text_13">
      <!-- 40 -->
      <g transform="translate(37.875 162.549827)scale(0.1 -0.1)">
       <use xlink:href="#DejaVuSans-52"/>
       <use x="63.623047" xlink:href="#DejaVuSans-48"/>
      </g>
     </g>
    </g>
    <g id="ytick_6">
     <g id="line2d_13">
      <g>
       <use style="stroke:#000000;stroke-width:0.8;" x="57.6" xlink:href="#m8725bc7921" y="123.689739"/>
      </g>
     </g>
     <g id="text_14">
      <!-- 50 -->
      <g transform="translate(37.875 127.488958)scale(0.1 -0.1)">
       <defs>
        <path d="M 10.796875 72.90625 
L 49.515625 72.90625 
L 49.515625 64.59375 
L 19.828125 64.59375 
L 19.828125 46.734375 
Q 21.96875 47.46875 24.109375 47.828125 
Q 26.265625 48.1875 28.421875 48.1875 
Q 40.625 48.1875 47.75 41.5 
Q 54.890625 34.8125 54.890625 23.390625 
Q 54.890625 11.625 47.5625 5.09375 
Q 40.234375 -1.421875 26.90625 -1.421875 
Q 22.3125 -1.421875 17.546875 -0.640625 
Q 12.796875 0.140625 7.71875 1.703125 
L 7.71875 11.625 
Q 12.109375 9.234375 16.796875 8.0625 
Q 21.484375 6.890625 26.703125 6.890625 
Q 35.15625 6.890625 40.078125 11.328125 
Q 45.015625 15.765625 45.015625 23.390625 
Q 45.015625 31 40.078125 35.4375 
Q 35.15625 39.890625 26.703125 39.890625 
Q 22.75 39.890625 18.8125 39.015625 
Q 14.890625 38.140625 10.796875 36.28125 
z
" id="DejaVuSans-53"/>
       </defs>
       <use xlink:href="#DejaVuSans-53"/>
       <use x="63.623047" xlink:href="#DejaVuSans-48"/>
      </g>
     </g>
    </g>
    <g id="ytick_7">
     <g id="line2d_14">
      <g>
       <use style="stroke:#000000;stroke-width:0.8;" x="57.6" xlink:href="#m8725bc7921" y="88.62887"/>
      </g>
     </g>
     <g id="text_15">
      <!-- 60 -->
      <g transform="translate(37.875 92.428088)scale(0.1 -0.1)">
       <use xlink:href="#DejaVuSans-54"/>
       <use x="63.623047" xlink:href="#DejaVuSans-48"/>
      </g>
     </g>
    </g>
    <g id="ytick_8">
     <g id="line2d_15">
      <g>
       <use style="stroke:#000000;stroke-width:0.8;" x="57.6" xlink:href="#m8725bc7921" y="53.568"/>
      </g>
     </g>
     <g id="text_16">
      <!-- 70 -->
      <g transform="translate(37.875 57.367219)scale(0.1 -0.1)">
       <defs>
        <path d="M 8.203125 72.90625 
L 55.078125 72.90625 
L 55.078125 68.703125 
L 28.609375 0 
L 18.3125 0 
L 43.21875 64.59375 
L 8.203125 64.59375 
z
" id="DejaVuSans-55"/>
       </defs>
       <use xlink:href="#DejaVuSans-55"/>
       <use x="63.623047" xlink:href="#DejaVuSans-48"/>
      </g>
     </g>
    </g>
    <g id="text_17">
     <!-- Iterations -->
     <g transform="translate(31.795312 198.341281)rotate(-90)scale(0.1 -0.1)">
      <defs>
       <path d="M 9.8125 72.90625 
L 19.671875 72.90625 
L 19.671875 0 
L 9.8125 0 
z
" id="DejaVuSans-73"/>
       <path d="M 41.109375 46.296875 
Q 39.59375 47.171875 37.8125 47.578125 
Q 36.03125 48 33.890625 48 
Q 26.265625 48 22.1875 43.046875 
Q 18.109375 38.09375 18.109375 28.8125 
L 18.109375 0 
L 9.078125 0 
L 9.078125 54.6875 
L 18.109375 54.6875 
L 18.109375 46.1875 
Q 20.953125 51.171875 25.484375 53.578125 
Q 30.03125 56 36.53125 56 
Q 37.453125 56 38.578125 55.875 
Q 39.703125 55.765625 41.0625 55.515625 
z
" id="DejaVuSans-114"/>
       <path d="M 30.609375 48.390625 
Q 23.390625 48.390625 19.1875 42.75 
Q 14.984375 37.109375 14.984375 27.296875 
Q 14.984375 17.484375 19.15625 11.84375 
Q 23.34375 6.203125 30.609375 6.203125 
Q 37.796875 6.203125 41.984375 11.859375 
Q 46.1875 17.53125 46.1875 27.296875 
Q 46.1875 37.015625 41.984375 42.703125 
Q 37.796875 48.390625 30.609375 48.390625 
z
M 30.609375 56 
Q 42.328125 56 49.015625 48.375 
Q 55.71875 40.765625 55.71875 27.296875 
Q 55.71875 13.875 49.015625 6.21875 
Q 42.328125 -1.421875 30.609375 -1.421875 
Q 18.84375 -1.421875 12.171875 6.21875 
Q 5.515625 13.875 5.515625 27.296875 
Q 5.515625 40.765625 12.171875 48.375 
Q 18.84375 56 30.609375 56 
z
" id="DejaVuSans-111"/>
       <path d="M 54.890625 33.015625 
L 54.890625 0 
L 45.90625 0 
L 45.90625 32.71875 
Q 45.90625 40.484375 42.875 44.328125 
Q 39.84375 48.1875 33.796875 48.1875 
Q 26.515625 48.1875 22.3125 43.546875 
Q 18.109375 38.921875 18.109375 30.90625 
L 18.109375 0 
L 9.078125 0 
L 9.078125 54.6875 
L 18.109375 54.6875 
L 18.109375 46.1875 
Q 21.34375 51.125 25.703125 53.5625 
Q 30.078125 56 35.796875 56 
Q 45.21875 56 50.046875 50.171875 
Q 54.890625 44.34375 54.890625 33.015625 
z
" id="DejaVuSans-110"/>
      </defs>
      <use xlink:href="#DejaVuSans-73"/>
      <use x="29.492188" xlink:href="#DejaVuSans-116"/>
      <use x="68.701172" xlink:href="#DejaVuSans-101"/>
      <use x="130.224609" xlink:href="#DejaVuSans-114"/>
      <use x="171.337891" xlink:href="#DejaVuSans-97"/>
      <use x="232.617188" xlink:href="#DejaVuSans-116"/>
      <use x="271.826172" xlink:href="#DejaVuSans-105"/>
      <use x="299.609375" xlink:href="#DejaVuSans-111"/>
      <use x="360.791016" xlink:href="#DejaVuSans-110"/>
      <use x="424.169922" xlink:href="#DejaVuSans-115"/>
     </g>
    </g>
   </g>
   <g id="line2d_16">
    <path clip-path="url(#p723609b60a)" d="M 73.832727 260.42713 
L 73.833219 295.488 
L 73.944252 291.981913 
L 74.481155 291.981913 
L 74.485763 288.475826 
L 74.591116 291.981913 
L 75.126691 291.981913 
L 75.233711 288.475826 
L 75.237047 291.981913 
L 75.294609 291.981913 
L 75.39303 288.475826 
L 75.403849 291.981913 
L 75.407467 291.981913 
L 75.526479 277.957565 
L 75.631929 288.475826 
L 75.635926 281.463652 
L 75.64394 281.463652 
L 75.668143 274.451478 
L 75.680335 288.475826 
L 75.750586 277.957565 
L 75.844502 288.475826 
L 75.827169 270.945391 
L 75.857577 277.957565 
L 75.919473 270.945391 
L 75.950968 288.475826 
L 75.960035 277.957565 
L 76.033675 288.475826 
L 76.04302 267.439304 
L 76.06652 281.463652 
L 76.128554 263.933217 
L 76.104534 288.475826 
L 76.177208 270.945391 
L 76.221705 260.42713 
L 76.28719 288.475826 
L 76.354138 260.42713 
L 76.396081 288.475826 
L 76.525415 260.42713 
L 76.53092 270.945391 
L 76.536435 270.945391 
L 76.558591 256.921043 
L 76.643052 284.969739 
L 76.700593 249.90887 
L 76.660209 288.475826 
L 76.759145 260.42713 
L 76.765056 260.42713 
L 76.842858 288.475826 
L 76.788807 256.921043 
L 76.87937 277.957565 
L 76.984946 235.884522 
L 76.922458 281.463652 
L 76.991256 249.90887 
L 76.997577 284.969739 
L 77.016608 242.896696 
L 77.100263 281.463652 
L 77.185889 232.378435 
L 77.199241 284.969739 
L 77.205935 249.90887 
L 77.232832 288.475826 
L 77.259924 246.402783 
L 77.314703 284.969739 
L 77.370285 246.402783 
L 77.426686 274.451478 
L 77.433795 274.451478 
L 77.46236 277.957565 
L 77.542009 235.884522 
L 77.660804 284.969739 
L 77.783212 246.402783 
L 77.790986 256.921043 
L 77.814396 277.957565 
L 77.853709 232.378435 
L 77.877478 253.414957 
L 77.933469 207.835826 
L 77.925425 281.463652 
L 77.990217 235.884522 
L 78.064312 277.957565 
L 78.080954 225.366261 
L 78.106038 274.451478 
L 78.16514 211.341913 
L 78.242327 225.366261 
L 78.312096 284.969739 
L 78.277073 204.329739 
L 78.347397 221.860174 
L 78.391919 274.451478 
L 78.455003 235.884522 
L 78.464088 207.835826 
L 78.537425 260.42713 
L 78.565234 232.378435 
L 78.649684 270.945391 
L 78.593212 200.823652 
L 78.659164 249.90887 
L 78.668663 200.823652 
L 78.697276 281.463652 
L 78.764731 242.896696 
L 78.803717 179.78713 
L 78.784184 281.463652 
L 78.872727 211.341913 
L 78.973079 263.933217 
L 78.98323 260.42713 
L 79.034312 214.848 
L 79.024052 284.969739 
L 79.106743 225.366261 
L 79.169693 260.42713 
L 79.180264 214.848 
L 79.212113 221.860174 
L 79.276433 270.945391 
L 79.2549 204.329739 
L 79.341596 260.42713 
L 79.42982 151.738435 
L 79.374499 274.451478 
L 79.440957 249.90887 
L 79.452119 270.945391 
L 79.463306 218.354087 
L 79.530949 235.884522 
L 79.553697 204.329739 
L 79.611015 267.439304 
L 79.634123 228.872348 
L 79.66898 256.921043 
L 79.657335 207.835826 
L 79.751237 249.90887 
L 79.798831 193.811478 
L 79.846862 263.933217 
L 79.858939 256.921043 
L 79.919741 214.848 
L 79.895336 274.451478 
L 79.968891 225.366261 
L 79.98125 263.933217 
L 80.006055 172.774957 
L 80.044481 81.616696 
L 80.085664 123.689739 
L 80.211722 235.884522 
L 80.254341 81.616696 
L 80.339099 158.750609 
L 80.381092 228.872348 
L 80.423357 116.677565 
L 80.551873 172.774957 
L 80.595293 155.244522 
L 80.639009 225.366261 
L 80.727331 197.317565 
L 80.771943 120.183652 
L 80.816858 158.750609 
L 80.862079 172.774957 
L 80.907607 130.701913 
L 80.953446 246.402783 
L 80.999596 200.823652 
L 81.139943 53.568 
L 81.283184 148.232348 
L 81.380316 113.171478 
L 81.429381 60.580174 
L 81.528521 176.281043 
L 81.578601 155.244522 
L 81.629025 186.799304 
L 81.780779 71.098435 
L 81.881189 183.293217 
L 81.982918 95.641043 
L 82.034291 200.823652 
L 82.086005 172.774957 
L 82.296327 81.616696 
L 82.36241 291.981913 
L 82.410592 288.475826 
L 85.065472 288.475826 
L 85.110068 284.969739 
L 85.166102 288.475826 
L 85.199878 288.475826 
L 85.23377 284.969739 
L 85.301906 288.475826 
L 85.370515 288.475826 
L 85.47432 284.969739 
L 85.485921 288.475826 
L 85.579208 284.969739 
L 85.73265 284.969739 
L 85.780329 288.475826 
L 85.840239 284.969739 
L 86.13269 284.969739 
L 86.157431 288.475826 
L 86.232001 284.969739 
L 86.420726 284.969739 
L 86.497149 288.475826 
L 86.522742 284.969739 
L 86.716624 284.969739 
L 86.722265 288.475826 
L 86.761479 281.463652 
L 86.827136 284.969739 
L 86.866717 284.969739 
L 86.906438 281.463652 
L 86.95962 288.475826 
L 86.972955 284.969739 
L 87.013055 284.969739 
L 87.12069 281.463652 
L 87.229355 284.969739 
L 87.297799 288.475826 
L 87.339063 281.463652 
L 87.366655 288.475826 
L 87.449829 284.969739 
L 87.561665 281.463652 
L 87.603883 288.475826 
L 87.660412 284.969739 
L 87.74572 281.463652 
L 87.759999 284.969739 
L 87.774295 284.969739 
L 87.88929 281.463652 
L 88.005414 284.969739 
L 88.02001 284.969739 
L 88.15218 277.957565 
L 88.226242 288.475826 
L 88.285823 284.969739 
L 88.300764 284.969739 
L 88.315724 277.957565 
L 88.405873 281.463652 
L 88.420963 281.463652 
L 88.542365 284.969739 
L 88.603523 288.475826 
L 88.664988 281.463652 
L 88.71129 284.969739 
L 88.742255 277.957565 
L 88.80442 281.463652 
L 88.866901 274.451478 
L 88.945448 270.945391 
L 88.977007 281.463652 
L 89.072167 267.439304 
L 89.088098 277.957565 
L 89.120022 274.451478 
L 89.184114 277.957565 
L 89.200189 281.463652 
L 89.2324 267.439304 
L 89.264695 277.957565 
L 89.345796 274.451478 
L 89.313293 281.463652 
L 89.362079 277.957565 
L 89.394709 267.439304 
L 89.476655 281.463652 
L 89.59228 274.451478 
L 89.725726 281.463652 
L 89.776131 270.945391 
L 89.826736 281.463652 
L 89.860585 281.463652 
L 89.96267 270.945391 
L 89.928551 284.969739 
L 89.979764 277.957565 
L 90.065575 274.451478 
L 90.082806 284.969739 
L 90.100061 267.439304 
L 90.18668 281.463652 
L 90.308931 274.451478 
L 90.414644 284.969739 
L 90.521224 274.451478 
L 90.610711 281.463652 
L 90.628682 277.957565 
L 90.700815 281.463652 
L 90.737031 274.451478 
L 90.882904 281.463652 
L 90.901252 281.463652 
L 90.919626 284.969739 
L 90.974903 274.451478 
L 90.99338 274.451478 
L 91.067549 281.463652 
L 91.10479 277.957565 
L 91.12345 277.957565 
L 91.217146 281.463652 
L 91.273684 284.969739 
L 91.31151 270.945391 
L 91.425638 284.969739 
L 91.521497 270.945391 
L 91.540752 284.969739 
L 91.618051 281.463652 
L 91.637445 270.945391 
L 91.715306 284.969739 
L 91.832952 274.451478 
L 91.852661 284.969739 
L 91.951638 281.463652 
L 91.971522 281.463652 
L 92.011376 284.969739 
L 92.051349 277.957565 
L 92.091441 277.957565 
L 92.111532 281.463652 
L 92.131652 274.451478 
L 92.171984 274.451478 
L 92.192195 270.945391 
L 92.232707 281.463652 
L 92.273341 281.463652 
L 92.314098 267.439304 
L 92.375464 270.945391 
L 92.395981 281.463652 
L 92.47836 274.451478 
L 92.499034 263.933217 
L 92.519738 281.463652 
L 92.561243 270.945391 
L 92.68652 281.463652 
L 92.707512 281.463652 
L 92.728536 284.969739 
L 92.749593 274.451478 
L 92.791804 281.463652 
L 92.834146 270.945391 
L 92.897906 277.957565 
L 92.961964 274.451478 
L 92.983384 281.463652 
L 93.004837 281.463652 
L 93.134264 274.451478 
L 93.177679 281.463652 
L 93.221232 267.439304 
L 93.352724 281.463652 
L 93.441087 284.969739 
L 93.485482 277.957565 
L 93.507733 277.957565 
L 93.574702 263.933217 
L 93.597097 270.945391 
L 93.619528 284.969739 
L 93.70962 281.463652 
L 93.732235 281.463652 
L 93.845866 267.439304 
L 93.960435 284.969739 
L 94.006528 267.439304 
L 94.075956 281.463652 
L 94.169068 270.945391 
L 94.309913 284.969739 
L 94.428379 260.42713 
L 94.52388 284.969739 
L 94.547857 281.463652 
L 94.620037 263.933217 
L 94.644179 277.957565 
L 94.716857 274.451478 
L 94.765519 284.969739 
L 94.789914 267.439304 
L 94.887917 270.945391 
L 94.937176 267.439304 
L 95.011389 281.463652 
L 95.036214 267.439304 
L 95.135954 270.945391 
L 95.160999 281.463652 
L 95.261628 277.957565 
L 95.286897 263.933217 
L 95.362978 281.463652 
L 95.490697 274.451478 
L 95.567884 281.463652 
L 95.593707 263.933217 
L 95.671459 277.957565 
L 95.749639 256.921043 
L 95.801999 267.439304 
L 95.880903 281.463652 
L 95.907302 270.945391 
L 95.93375 263.933217 
L 95.986794 270.945391 
L 96.093477 277.957565 
L 96.14712 281.463652 
L 96.227964 267.439304 
L 96.309268 281.463652 
L 96.336472 277.957565 
L 96.418398 249.90887 
L 96.434481 263.933217 
L 96.44986 284.969739 
L 96.511642 260.42713 
L 96.542673 281.463652 
L 96.573796 274.451478 
L 96.636315 281.463652 
L 96.652002 284.969739 
L 96.667711 270.945391 
L 96.683443 274.451478 
L 96.714974 260.42713 
L 96.778311 281.463652 
L 96.794202 281.463652 
L 96.890029 288.475826 
L 96.922156 267.439304 
L 97.035328 284.969739 
L 97.100512 270.945391 
L 97.149646 277.957565 
L 97.166071 277.957565 
L 97.198993 284.969739 
L 97.215489 274.451478 
L 97.248554 281.463652 
L 97.265122 267.439304 
L 97.281714 284.969739 
L 97.348321 274.451478 
L 97.381769 267.439304 
L 97.448956 288.475826 
L 97.482696 256.921043 
L 97.567473 274.451478 
L 97.584502 274.451478 
L 97.618635 288.475826 
L 97.687198 270.945391 
L 97.75616 256.921043 
L 97.721629 274.451478 
L 97.773463 263.933217 
L 97.842928 288.475826 
L 97.895293 284.969739 
L 97.93033 288.475826 
L 98.018371 281.463652 
L 98.036056 281.463652 
L 98.053768 288.475826 
L 98.089268 277.957565 
L 98.142713 281.463652 
L 98.178473 281.463652 
L 98.250308 260.42713 
L 98.23231 284.969739 
L 98.286384 284.969739 
L 98.322566 284.969739 
L 98.377038 274.451478 
L 98.450041 281.463652 
L 98.468359 281.463652 
L 98.523474 284.969739 
L 98.560343 281.463652 
L 98.578809 270.945391 
L 98.615804 288.475826 
L 98.652882 284.969739 
L 98.671452 284.969739 
L 98.690043 263.933217 
L 98.764616 277.957565 
L 98.839523 284.969739 
L 98.820765 267.439304 
L 98.877101 281.463652 
L 98.914763 288.475826 
L 98.933625 281.463652 
L 98.990336 267.439304 
L 98.971411 284.969739 
L 99.028248 281.463652 
L 99.047235 281.463652 
L 99.085272 267.439304 
L 99.104322 284.969739 
L 99.142484 281.463652 
L 99.161597 281.463652 
L 99.276709 288.475826 
L 99.315247 277.957565 
L 99.37321 288.475826 
L 99.392573 288.475826 
L 99.548226 263.933217 
L 99.626553 284.969739 
L 99.665841 277.957565 
L 99.724931 274.451478 
L 99.705214 281.463652 
L 99.744669 281.463652 
L 99.764428 281.463652 
L 99.804009 284.969739 
L 99.823831 277.957565 
L 99.863536 267.439304 
L 99.883421 281.463652 
L 99.923252 270.945391 
L 100.023194 281.463652 
L 100.043245 270.945391 
L 100.083409 284.969739 
L 100.123657 277.957565 
L 100.143813 277.957565 
L 100.163989 284.969739 
L 100.244901 277.957565 
L 100.305805 284.969739 
L 100.326148 274.451478 
L 100.407727 284.969739 
L 100.428174 277.957565 
L 100.448642 277.957565 
L 100.510171 284.969739 
L 100.551294 277.957565 
L 100.63379 281.463652 
L 100.695881 274.451478 
L 100.737379 277.957565 
L 100.758159 277.957565 
L 100.904203 284.969739 
L 101.030196 277.957565 
L 101.07236 277.957565 
L 101.135762 281.463652 
L 101.178134 270.945391 
L 101.305751 284.969739 
L 101.434116 277.957565 
L 101.455583 277.957565 
L 101.498579 274.451478 
L 101.520109 281.463652 
L 101.541659 284.969739 
L 101.56323 277.957565 
L 101.606435 277.957565 
L 101.671398 270.945391 
L 101.714811 274.451478 
L 101.845549 288.475826 
L 101.977036 274.451478 
L 102.087182 281.463652 
L 102.109274 277.957565 
L 102.175674 281.463652 
L 102.197849 270.945391 
L 102.220045 281.463652 
L 102.309037 277.957565 
L 102.398363 284.969739 
L 102.420746 281.463652 
L 102.443151 277.957565 
L 102.510489 281.463652 
L 102.532977 281.463652 
L 102.555486 274.451478 
L 102.623138 277.957565 
L 102.645731 281.463652 
L 102.690978 274.451478 
L 102.713633 277.957565 
L 102.804463 277.957565 
L 102.918471 281.463652 
L 102.964221 281.463652 
L 103.078963 277.957565 
L 103.194229 281.463652 
L 103.217345 281.463652 
L 103.28682 277.957565 
L 103.31002 281.463652 
L 103.379747 281.463652 
L 103.473012 277.957565 
L 103.590067 281.463652 
L 103.613541 281.463652 
L 103.73123 277.957565 
L 103.754831 277.957565 
L 103.825762 274.451478 
L 103.849448 281.463652 
L 103.873155 277.957565 
L 103.896884 284.969739 
L 103.944404 281.463652 
L 103.968196 284.969739 
L 104.015844 277.957565 
L 104.0397 281.463652 
L 104.087476 274.451478 
L 104.159299 277.957565 
L 104.183283 277.957565 
L 104.207288 284.969739 
L 104.279431 281.463652 
L 104.375922 277.957565 
L 104.497017 281.463652 
L 104.521301 281.463652 
L 104.569932 277.957565 
L 104.61865 281.463652 
L 104.643041 281.463652 
L 104.716343 277.957565 
L 104.740821 281.463652 
L 104.78984 281.463652 
L 104.912768 277.957565 
L 105.135407 277.957565 
L 105.210013 281.463652 
L 105.234925 277.957565 
L 105.259859 277.957565 
L 105.384859 281.463652 
L 105.485255 277.957565 
L 105.560784 274.451478 
L 105.611247 281.463652 
L 105.712439 267.439304 
L 105.737793 277.957565 
L 105.813987 281.463652 
L 105.83943 274.451478 
L 105.915892 277.957565 
L 105.992556 277.957565 
L 106.095089 281.463652 
L 106.249565 274.451478 
L 106.353003 284.969739 
L 106.404858 281.463652 
L 106.534895 277.957565 
L 106.560971 277.957565 
L 106.639337 274.451478 
L 106.665505 281.463652 
L 106.770409 270.945391 
L 106.796692 274.451478 
L 106.875682 277.957565 
L 106.902059 270.945391 
L 106.981328 277.957565 
L 107.007798 274.451478 
L 107.060808 277.957565 
L 107.167109 281.463652 
L 107.193743 270.945391 
L 107.220401 284.969739 
L 107.273788 277.957565 
L 107.354045 277.957565 
L 107.434516 284.969739 
L 107.515202 270.945391 
L 107.542145 284.969739 
L 107.596104 274.451478 
L 107.677222 277.957565 
L 107.758557 284.969739 
L 107.785717 277.957565 
L 107.840111 277.957565 
L 107.894601 284.969739 
L 107.94919 281.463652 
L 108.031256 274.451478 
L 108.05866 277.957565 
L 108.086089 281.463652 
L 108.168525 277.957565 
L 108.223605 284.969739 
L 108.251183 274.451478 
L 108.334065 281.463652 
L 108.361742 277.957565 
L 108.417172 277.957565 
L 108.444924 270.945391 
L 108.472702 281.463652 
L 108.500504 274.451478 
L 108.584064 281.463652 
L 108.611967 277.957565 
L 108.639897 277.957565 
L 108.667851 281.463652 
L 108.695831 267.439304 
L 108.751868 274.451478 
L 108.779924 284.969739 
L 108.864247 277.957565 
L 108.892407 277.957565 
L 108.920592 263.933217 
L 109.005302 270.945391 
L 109.090245 281.463652 
L 109.118611 277.957565 
L 109.147004 277.957565 
L 109.175423 263.933217 
L 109.232339 281.463652 
L 109.260837 281.463652 
L 109.432376 263.933217 
L 109.461059 267.439304 
L 109.576057 277.957565 
L 109.662587 270.945391 
L 109.74936 277.957565 
L 109.778339 267.439304 
L 109.836377 281.463652 
L 109.865438 270.945391 
L 109.952782 270.945391 
L 109.981952 274.451478 
L 110.011149 270.945391 
L 110.069627 267.439304 
L 110.186914 274.451478 
L 110.275172 267.439304 
L 110.304648 277.957565 
L 110.393243 274.451478 
L 110.422831 277.957565 
L 110.452447 270.945391 
L 110.482092 267.439304 
L 110.511765 270.945391 
L 110.541467 277.957565 
L 110.600956 274.451478 
L 110.630731 267.439304 
L 110.690402 270.945391 
L 110.780111 274.451478 
L 110.810072 263.933217 
L 110.840061 277.957565 
L 110.900128 270.945391 
L 110.960312 277.957565 
L 111.111287 256.921043 
L 111.263003 274.451478 
L 111.293436 277.957565 
L 111.354391 260.42713 
L 111.384915 277.957565 
L 111.415468 281.463652 
L 111.537984 253.414957 
L 111.691818 274.451478 
L 111.722677 274.451478 
L 111.753567 267.439304 
L 111.784488 274.451478 
L 111.81544 281.463652 
L 111.846423 270.945391 
L 111.877438 277.957565 
L 111.939561 263.933217 
L 112.001809 267.439304 
L 112.126685 277.957565 
L 112.220677 260.42713 
L 112.252071 274.451478 
L 112.377971 270.945391 
L 112.472736 270.945391 
L 112.50439 277.957565 
L 112.567795 274.451478 
L 112.599547 256.921043 
L 112.631332 277.957565 
L 112.66315 267.439304 
L 112.758804 274.451478 
L 112.822739 263.933217 
L 112.854757 274.451478 
L 112.886808 270.945391 
L 112.918893 277.957565 
L 112.983165 277.957565 
L 113.015352 263.933217 
L 113.079827 277.957565 
L 113.176797 270.945391 
L 113.209188 274.451478 
L 113.241615 277.957565 
L 113.371667 267.439304 
L 113.469572 284.969739 
L 113.502277 274.451478 
L 113.600605 267.439304 
L 113.666334 274.451478 
L 113.699252 263.933217 
L 113.732206 277.957565 
L 113.765196 277.957565 
L 113.831284 260.42713 
L 113.897516 263.933217 
L 114.030418 274.451478 
L 114.063735 263.933217 
L 114.13048 274.451478 
L 114.163907 274.451478 
L 114.230874 277.957565 
L 114.29799 267.439304 
L 114.365256 270.945391 
L 114.432672 260.42713 
L 114.50024 274.451478 
L 114.534082 256.921043 
L 114.601878 263.933217 
L 114.772044 277.957565 
L 114.840382 260.42713 
L 114.87461 263.933217 
L 114.977528 281.463652 
L 115.011913 274.451478 
L 115.046338 267.439304 
L 115.115306 270.945391 
L 115.149851 270.945391 
L 115.253724 263.933217 
L 115.357961 277.957565 
L 115.427657 256.921043 
L 115.462565 274.451478 
L 115.497515 277.957565 
L 115.532507 270.945391 
L 115.602613 270.945391 
L 115.637729 267.439304 
L 115.672886 277.957565 
L 115.743326 270.945391 
L 115.813934 256.921043 
L 115.88471 267.439304 
L 115.955657 277.957565 
L 116.026775 274.451478 
L 116.169528 260.42713 
L 116.321641 281.463652 
L 116.511965 172.774957 
L 116.64365 284.969739 
L 116.77658 284.969739 
L 116.843459 288.475826 
L 116.865813 284.969739 
L 116.888198 284.969739 
L 116.944389 288.475826 
L 116.989406 284.969739 
L 117.079812 288.475826 
L 117.170716 284.969739 
L 117.19352 288.475826 
L 117.262119 284.969739 
L 117.331001 284.969739 
L 117.400167 288.475826 
L 117.423285 284.969739 
L 117.446435 284.969739 
L 117.469617 288.475826 
L 117.539353 284.969739 
L 117.609377 284.969739 
L 117.656219 288.475826 
L 117.726724 281.463652 
L 117.844877 284.969739 
L 117.868605 284.969739 
L 117.987734 281.463652 
L 118.107681 284.969739 
L 118.180045 284.969739 
L 118.301314 281.463652 
L 118.325668 288.475826 
L 118.423417 284.969739 
L 118.472493 284.969739 
L 118.521704 281.463652 
L 118.54636 288.475826 
L 118.57105 281.463652 
L 118.645323 284.969739 
L 118.94549 284.969739 
L 119.072024 281.463652 
L 119.199429 284.969739 
L 119.301985 284.969739 
L 119.379271 281.463652 
L 119.405104 284.969739 
L 119.430973 284.969739 
L 119.560849 281.463652 
L 119.586931 288.475826 
L 119.665393 284.969739 
L 119.876211 284.969739 
L 119.902726 288.475826 
L 119.929278 281.463652 
L 119.955866 284.969739 
L 120.062585 277.957565 
L 120.089356 281.463652 
L 120.143009 284.969739 
L 120.196809 281.463652 
L 120.223765 281.463652 
L 120.331958 284.969739 
L 120.440747 277.957565 
L 120.577576 284.969739 
L 120.715346 281.463652 
L 120.798464 277.957565 
L 120.854066 284.969739 
L 120.881924 284.969739 
L 120.965729 277.957565 
L 121.021791 284.969739 
L 121.078007 281.463652 
L 121.162621 281.463652 
L 121.219224 284.969739 
L 121.247584 281.463652 
L 121.275983 281.463652 
L 121.361414 284.969739 
L 121.447197 281.463652 
L 121.504583 284.969739 
L 121.533335 281.463652 
L 121.648737 281.463652 
L 121.735706 284.969739 
L 121.764775 277.957565 
L 121.852223 281.463652 
L 121.881452 281.463652 
L 121.969381 284.969739 
L 122.028202 281.463652 
L 122.057673 284.969739 
L 122.087184 284.969739 
L 122.175962 281.463652 
L 122.235351 284.969739 
L 122.265106 281.463652 
L 122.354618 274.451478 
L 122.32474 284.969739 
L 122.384537 277.957565 
L 122.414497 284.969739 
L 122.444499 281.463652 
L 122.474542 270.945391 
L 122.534751 281.463652 
L 122.564917 281.463652 
L 122.625375 284.969739 
L 122.655666 281.463652 
L 122.930165 281.463652 
L 122.960874 284.969739 
L 123.02242 281.463652 
L 123.084135 281.463652 
L 123.14602 277.957565 
L 123.177026 284.969739 
L 123.239166 277.957565 
L 123.2703 281.463652 
L 123.301477 284.969739 
L 123.332697 277.957565 
L 123.363959 277.957565 
L 123.395265 284.969739 
L 123.458004 281.463652 
L 123.489439 277.957565 
L 123.520917 284.969739 
L 123.552438 281.463652 
L 123.584002 281.463652 
L 123.678955 277.957565 
L 123.742475 284.969739 
L 123.806169 281.463652 
L 123.870039 281.463652 
L 123.966172 274.451478 
L 123.934084 284.969739 
L 123.998305 277.957565 
L 124.062703 284.969739 
L 124.094968 281.463652 
L 124.127277 281.463652 
L 124.19203 277.957565 
L 124.224473 284.969739 
L 124.289492 281.463652 
L 124.322069 277.957565 
L 124.387357 281.463652 
L 124.420068 281.463652 
L 124.452825 284.969739 
L 124.518472 281.463652 
L 124.683382 274.451478 
L 124.7165 274.451478 
L 124.849429 281.463652 
L 124.916168 281.463652 
L 124.949606 284.969739 
L 124.98309 277.957565 
L 125.050196 274.451478 
L 125.151203 281.463652 
L 125.184964 274.451478 
L 125.252626 281.463652 
L 125.354469 277.957565 
L 125.38851 281.463652 
L 125.422597 277.957565 
L 125.525143 270.945391 
L 125.593742 284.969739 
L 125.662529 281.463652 
L 125.766067 270.945391 
L 125.80065 274.451478 
L 125.904518 281.463652 
L 126.04327 274.451478 
L 126.112756 277.957565 
L 126.182317 270.945391 
L 126.286794 281.463652 
L 126.321657 274.451478 
L 126.391435 277.957565 
L 126.496238 281.463652 
L 126.636226 277.957565 
L 126.706327 277.957565 
L 126.84674 274.451478 
L 126.952234 281.463652 
L 126.987433 277.957565 
L 127.128405 277.957565 
L 127.163691 284.969739 
L 127.234315 281.463652 
L 127.375768 277.957565 
L 127.411174 277.957565 
L 127.446597 281.463652 
L 127.482037 277.957565 
L 127.588459 270.945391 
L 127.659492 277.957565 
L 127.695033 274.451478 
L 127.730591 274.451478 
L 127.837367 277.957565 
L 127.908634 281.463652 
L 127.944293 274.451478 
L 127.979968 281.463652 
L 128.051369 274.451478 
L 128.087094 274.451478 
L 128.265968 281.463652 
L 128.301792 281.463652 
L 128.48116 274.451478 
L 128.553022 270.945391 
L 128.588978 277.957565 
L 128.660938 270.945391 
L 128.696943 277.957565 
L 128.732964 281.463652 
L 128.769001 274.451478 
L 128.805055 274.451478 
L 128.913313 277.957565 
L 128.985566 274.451478 
L 129.021718 281.463652 
L 129.057885 274.451478 
L 129.094069 270.945391 
L 129.130268 277.957565 
L 129.166484 274.451478 
L 129.202717 274.451478 
L 129.238965 277.957565 
L 129.27523 270.945391 
L 129.311511 274.451478 
L 129.384121 274.451478 
L 129.456796 284.969739 
L 129.493158 277.957565 
L 129.529536 277.957565 
L 129.60234 284.969739 
L 129.638767 281.463652 
L 129.784635 277.957565 
L 129.821142 277.957565 
L 129.857666 284.969739 
L 129.894206 274.451478 
L 129.930762 281.463652 
L 130.040527 274.451478 
L 130.187108 281.463652 
L 130.297215 274.451478 
L 130.444251 281.463652 
L 130.591549 274.451478 
L 130.665296 270.945391 
L 130.702194 281.463652 
L 130.739108 270.945391 
L 130.812987 274.451478 
L 130.849951 274.451478 
L 130.99797 281.463652 
L 131.07208 284.969739 
L 131.109159 274.451478 
L 131.146255 281.463652 
L 131.220497 277.957565 
L 131.294805 277.957565 
L 131.369181 274.451478 
L 131.406393 277.957565 
L 131.480869 270.945391 
L 131.592709 281.463652 
L 131.667353 270.945391 
L 131.7047 274.451478 
L 131.779446 277.957565 
L 131.816844 274.451478 
L 131.85426 277.957565 
L 131.891692 281.463652 
L 131.966609 274.451478 
L 132.004092 277.957565 
L 132.079112 270.945391 
L 132.116647 274.451478 
L 132.1542 274.451478 
L 132.19177 270.945391 
L 132.266962 281.463652 
L 132.304584 274.451478 
L 132.379881 270.945391 
L 132.530684 277.957565 
L 132.568428 277.957565 
L 132.606191 274.451478 
L 132.643971 281.463652 
L 132.719585 277.957565 
L 132.757418 281.463652 
L 132.908931 267.439304 
L 132.984795 281.463652 
L 133.022755 277.957565 
L 133.060732 270.945391 
L 133.136742 274.451478 
L 133.174774 274.451478 
L 133.28898 277.957565 
L 133.327085 277.957565 
L 133.403352 284.969739 
L 133.479692 270.945391 
L 133.517891 277.957565 
L 133.556108 277.957565 
L 133.594343 284.969739 
L 133.632598 277.957565 
L 133.862522 277.957565 
L 133.939316 284.969739 
L 134.016187 274.451478 
L 134.054651 281.463652 
L 134.093135 277.957565 
L 134.131639 284.969739 
L 134.170161 274.451478 
L 134.208704 281.463652 
L 134.247265 281.463652 
L 134.285847 277.957565 
L 134.324448 284.969739 
L 134.363069 277.957565 
L 134.40171 270.945391 
L 134.440371 281.463652 
L 134.479051 281.463652 
L 134.595213 270.945391 
L 134.633974 277.957565 
L 134.711556 274.451478 
L 134.866966 284.969739 
L 135.022704 274.451478 
L 135.139726 281.463652 
L 135.256937 281.463652 
L 135.374339 277.957565 
L 135.452713 277.957565 
L 135.570437 281.463652 
L 135.649028 277.957565 
L 135.767078 281.463652 
L 135.806472 274.451478 
L 135.845888 277.957565 
L 135.885327 281.463652 
L 135.964252 274.451478 
L 136.003769 281.463652 
L 136.082848 277.957565 
L 136.162018 277.957565 
L 136.280944 284.969739 
L 136.320631 284.969739 
L 136.439833 274.451478 
L 136.479614 281.463652 
L 136.519418 277.957565 
L 136.559245 274.451478 
L 136.678869 284.969739 
L 136.718791 274.451478 
L 136.758737 277.957565 
L 136.878719 284.969739 
L 136.958827 274.451478 
L 137.039033 277.957565 
L 137.079173 277.957565 
L 137.159526 281.463652 
L 137.19974 274.451478 
L 137.239978 284.969739 
L 137.401182 277.957565 
L 137.441546 281.463652 
L 137.481936 277.957565 
L 137.522351 277.957565 
L 137.562791 284.969739 
L 137.603257 277.957565 
L 137.643749 277.957565 
L 137.684266 281.463652 
L 137.805975 270.945391 
L 137.927918 281.463652 
L 137.968619 277.957565 
L 138.009346 284.969739 
L 138.09088 281.463652 
L 138.131688 281.463652 
L 138.254272 274.451478 
L 138.3771 284.969739 
L 138.500176 277.957565 
L 138.541257 281.463652 
L 138.582365 274.451478 
L 138.623502 284.969739 
L 138.664666 284.969739 
L 138.705859 281.463652 
L 138.74708 284.969739 
L 138.870914 284.969739 
L 138.995006 277.957565 
L 139.036428 281.463652 
L 139.077879 274.451478 
L 139.160868 277.957565 
L 139.202407 277.957565 
L 139.285574 281.463652 
L 139.327201 274.451478 
L 139.410546 277.957565 
L 139.452264 281.463652 
L 139.53579 260.42713 
L 139.5625 277.957565 
L 139.74146 288.475826 
L 142.204333 288.475826 
L 142.233442 284.969739 
L 142.29178 288.475826 
L 142.974238 288.475826 
L 143.004399 284.969739 
L 143.064843 288.475826 
L 143.492595 288.475826 
L 143.58532 284.969739 
L 143.647348 288.475826 
L 143.678425 284.969739 
L 143.740706 284.969739 
L 143.865776 288.475826 
L 143.991527 284.969739 
L 144.117962 284.969739 
L 144.245084 288.475826 
L 144.340878 288.475826 
L 144.372896 284.969739 
L 144.437063 288.475826 
L 144.469211 288.475826 
L 144.565918 284.969739 
L 144.695471 288.475826 
L 144.793097 288.475826 
L 144.858401 284.969739 
L 144.891119 288.475826 
L 145.689729 288.475826 
L 145.723568 284.969739 
L 145.791381 288.475826 
L 145.893443 288.475826 
L 145.927555 284.969739 
L 145.995917 288.475826 
L 146.167625 288.475826 
L 146.305822 284.969739 
L 146.340487 284.969739 
L 146.375199 288.475826 
L 146.444762 284.969739 
L 146.479613 284.969739 
L 146.619484 288.475826 
L 146.760106 284.969739 
L 146.90148 284.969739 
L 147.008008 288.475826 
L 147.150708 284.969739 
L 147.186502 288.475826 
L 147.258234 284.969739 
L 148.54489 284.969739 
L 148.582536 288.475826 
L 148.620232 284.969739 
L 148.99994 284.969739 
L 149.038187 288.475826 
L 149.076485 284.969739 
L 149.423448 284.969739 
L 149.462254 288.475826 
L 149.501111 284.969739 
L 150.090146 284.969739 
L 150.12983 281.463652 
L 150.169566 284.969739 
L 150.409079 284.969739 
L 150.449182 288.475826 
L 150.489337 284.969739 
L 150.731378 284.969739 
L 150.771904 281.463652 
L 150.812483 284.969739 
L 151.016177 284.969739 
L 151.139035 281.463652 
L 151.180096 284.969739 
L 151.22121 281.463652 
L 151.262378 281.463652 
L 151.386205 284.969739 
L 151.760619 284.969739 
L 151.886407 281.463652 
L 151.97054 284.969739 
L 152.012689 281.463652 
L 152.054893 284.969739 
L 152.139468 284.969739 
L 152.224264 281.463652 
L 152.266745 284.969739 
L 152.309281 281.463652 
L 152.565673 281.463652 
L 152.694625 284.969739 
L 152.737721 281.463652 
L 152.780874 284.969739 
L 152.824083 284.969739 
L 152.954051 281.463652 
L 153.084529 281.463652 
L 153.128135 284.969739 
L 153.171799 281.463652 
L 153.83365 281.463652 
L 153.967585 284.969739 
L 154.012347 281.463652 
L 154.057168 284.969739 
L 154.102048 284.969739 
L 154.237039 281.463652 
L 154.417855 281.463652 
L 154.463207 277.957565 
L 154.508619 281.463652 
L 155.012095 281.463652 
L 155.058227 284.969739 
L 155.104419 281.463652 
L 155.289788 281.463652 
L 155.429065 284.969739 
L 155.475489 284.969739 
L 155.614756 281.463652 
L 155.707597 281.463652 
L 155.754016 288.475826 
L 155.800434 281.463652 
L 155.893268 281.463652 
L 156.032514 284.969739 
L 156.078928 284.969739 
L 156.218167 281.463652 
L 156.264579 281.463652 
L 156.403812 284.969739 
L 156.914319 284.969739 
L 156.960729 281.463652 
L 157.007139 284.969739 
L 157.332021 284.969739 
L 157.378436 281.463652 
L 157.42485 288.475826 
L 157.471266 284.969739 
L 157.610519 281.463652 
L 157.749781 284.969739 
L 157.842629 281.463652 
L 157.889055 284.969739 
L 157.935483 281.463652 
L 158.028342 281.463652 
L 158.121209 284.969739 
L 158.214082 281.463652 
L 158.306964 284.969739 
L 158.399854 281.463652 
L 158.539206 284.969739 
L 158.63212 284.969739 
L 158.678581 281.463652 
L 158.725045 284.969739 
L 158.771511 284.969739 
L 158.864453 281.463652 
L 159.003889 284.969739 
L 159.143355 281.463652 
L 159.282853 284.969739 
L 159.422386 284.969739 
L 159.468905 281.463652 
L 159.515428 284.969739 
L 159.887777 284.969739 
L 159.934342 281.463652 
L 159.980912 284.969739 
L 160.167247 284.969739 
L 160.260448 281.463652 
L 160.307058 284.969739 
L 160.353673 281.463652 
L 160.400294 281.463652 
L 160.493555 284.969739 
L 160.540195 281.463652 
L 160.586841 284.969739 
L 160.633494 284.969739 
L 160.773493 281.463652 
L 160.86686 284.969739 
L 161.006965 281.463652 
L 161.147138 281.463652 
L 161.193878 284.969739 
L 161.240625 281.463652 
L 161.380917 281.463652 
L 161.427698 284.969739 
L 161.474487 281.463652 
L 161.755406 281.463652 
L 161.860402 288.475826 
L 161.907321 284.969739 
L 162.047986 281.463652 
L 162.094898 284.969739 
L 162.141821 281.463652 
L 162.423576 281.463652 
L 162.517581 284.969739 
L 162.658661 281.463652 
L 162.705715 284.969739 
L 162.752781 281.463652 
L 163.035429 281.463652 
L 163.176921 284.969739 
L 163.36576 277.957565 
L 163.413003 277.957565 
L 163.554814 284.969739 
L 163.659953 274.451478 
L 163.68769 281.463652 
L 163.827285 288.475826 
L 164.1097 288.475826 
L 164.223851 291.981913 
L 164.834314 291.981913 
L 164.952744 295.488 
L 165.372755 295.488 
L 165.494347 291.981913 
L 165.524856 295.488 
L 165.586008 291.981913 
L 167.174135 291.981913 
L 167.273134 288.475826 
L 167.372562 291.981913 
L 167.505805 288.475826 
L 173.966955 288.475826 
L 174.094455 284.969739 
L 174.17974 288.475826 
L 174.222469 284.969739 
L 174.265255 288.475826 
L 174.350999 288.475826 
L 174.480046 284.969739 
L 174.566366 284.969739 
L 174.652916 288.475826 
L 174.783176 284.969739 
L 174.913958 288.475826 
L 175.045262 284.969739 
L 175.177092 288.475826 
L 175.309448 288.475826 
L 175.442331 284.969739 
L 175.531213 288.475826 
L 175.620331 284.969739 
L 175.664979 288.475826 
L 175.709685 284.969739 
L 177.973774 284.969739 
L 178.021504 281.463652 
L 178.069296 284.969739 
L 178.117149 284.969739 
L 178.165065 281.463652 
L 178.213043 284.969739 
L 178.261083 284.969739 
L 178.309185 281.463652 
L 178.35735 284.969739 
L 178.550634 284.969739 
L 178.599111 281.463652 
L 178.647651 284.969739 
L 178.74492 284.969739 
L 178.891296 281.463652 
L 179.038239 284.969739 
L 179.136518 281.463652 
L 179.284413 284.969739 
L 179.432881 281.463652 
L 179.482498 281.463652 
L 179.631733 284.969739 
L 179.781546 284.969739 
L 179.831612 281.463652 
L 179.881743 284.969739 
L 179.931939 284.969739 
L 180.032523 281.463652 
L 180.183886 284.969739 
L 180.28512 284.969739 
L 180.335835 281.463652 
L 180.386614 284.969739 
L 180.48837 284.969739 
L 180.641495 281.463652 
L 180.743906 284.969739 
L 180.898018 281.463652 
L 181.001089 284.969739 
L 181.156194 281.463652 
L 181.311897 281.463652 
L 181.416033 284.969739 
L 181.57274 281.463652 
L 181.62511 281.463652 
L 181.782624 284.969739 
L 181.887971 281.463652 
L 182.046501 284.969739 
L 182.258826 277.957565 
L 182.312078 281.463652 
L 182.365399 277.957565 
L 182.418789 277.957565 
L 182.579369 281.463652 
L 183.010629 281.463652 
L 183.11914 284.969739 
L 183.282432 281.463652 
L 183.337004 284.969739 
L 183.391646 281.463652 
L 183.446358 281.463652 
L 183.501141 284.969739 
L 183.555995 281.463652 
L 183.610919 281.463652 
L 183.665915 284.969739 
L 183.720982 281.463652 
L 183.77612 281.463652 
L 183.831329 284.969739 
L 183.88661 281.463652 
L 184.10845 281.463652 
L 184.219802 284.969739 
L 184.331442 281.463652 
L 184.387371 281.463652 
L 184.443373 284.969739 
L 184.555595 281.463652 
L 184.611815 281.463652 
L 184.724475 274.451478 
L 184.837209 281.463652 
L 184.949828 281.463652 
L 185.006094 284.969739 
L 185.062331 281.463652 
L 185.11854 284.969739 
L 185.230873 281.463652 
L 185.343096 281.463652 
L 185.455211 284.969739 
L 185.567219 281.463652 
L 185.679123 281.463652 
L 185.735036 277.957565 
L 185.790925 284.969739 
L 185.846788 281.463652 
L 185.902627 281.463652 
L 185.958441 277.957565 
L 186.014231 281.463652 
L 186.069998 277.957565 
L 186.18146 284.969739 
L 186.292829 281.463652 
L 186.404109 284.969739 
L 186.5153 281.463652 
L 186.737427 281.463652 
L 186.792907 284.969739 
L 186.848367 281.463652 
L 187.014629 277.957565 
L 187.125374 284.969739 
L 187.180719 281.463652 
L 187.401917 281.463652 
L 187.457173 277.957565 
L 187.512412 284.969739 
L 187.567634 281.463652 
L 187.733203 277.957565 
L 187.852386 281.463652 
L 187.899924 270.945391 
L 187.959044 281.463652 
L 188.108301 288.475826 
L 188.655787 288.475826 
L 188.779621 291.981913 
L 188.841836 291.981913 
L 188.873018 288.475826 
L 188.935533 291.981913 
L 189.734066 291.981913 
L 189.766674 295.488 
L 189.832047 291.981913 
L 189.897628 291.981913 
L 190.029419 295.488 
L 190.062497 295.488 
L 190.095629 291.981913 
L 190.162049 295.488 
L 190.872339 295.488 
L 191.010329 291.981913 
L 192.292101 291.981913 
L 192.402211 288.475826 
L 192.549826 291.981913 
L 192.772976 291.981913 
L 192.885331 288.475826 
L 193.14953 288.475826 
L 193.187506 291.981913 
L 193.225541 288.475826 
L 197.734807 288.475826 
L 197.779612 284.969739 
L 197.824482 288.475826 
L 197.869416 288.475826 
L 197.959476 284.969739 
L 198.095048 288.475826 
L 198.367933 288.475826 
L 198.41364 284.969739 
L 198.459412 288.475826 
L 199.577427 288.475826 
L 199.719825 284.969739 
L 199.815086 288.475826 
L 199.958471 284.969739 
L 200.006397 288.475826 
L 200.05439 284.969739 
L 200.198763 284.969739 
L 200.295342 288.475826 
L 200.392186 284.969739 
L 200.489294 288.475826 
L 200.635454 284.969739 
L 200.684307 288.475826 
L 200.733226 284.969739 
L 200.929568 284.969739 
L 201.077523 288.475826 
L 201.226079 284.969739 
L 202.282865 284.969739 
L 202.33393 288.475826 
L 202.385061 284.969739 
L 202.538862 284.969739 
L 202.693274 288.475826 
L 202.848297 284.969739 
L 202.900107 284.969739 
L 203.055947 288.475826 
L 203.16018 288.475826 
L 203.317044 284.969739 
L 203.369468 284.969739 
L 203.421961 281.463652 
L 203.474522 284.969739 
L 203.579851 284.969739 
L 203.632618 281.463652 
L 203.685454 284.969739 
L 203.791332 284.969739 
L 203.844374 281.463652 
L 203.897485 284.969739 
L 203.950665 284.969739 
L 204.003913 288.475826 
L 204.057231 284.969739 
L 204.164074 284.969739 
L 204.217599 288.475826 
L 204.271193 284.969739 
L 204.324856 284.969739 
L 204.378589 281.463652 
L 204.432391 284.969739 
L 204.648292 284.969739 
L 204.810948 281.463652 
L 204.865306 284.969739 
L 204.919734 281.463652 
L 205.192921 281.463652 
L 205.247769 284.969739 
L 205.302686 281.463652 
L 205.744557 281.463652 
L 205.800108 284.969739 
L 205.911422 281.463652 
L 205.967185 281.463652 
L 206.078924 284.969739 
L 206.1349 277.957565 
L 206.247065 284.969739 
L 206.303254 284.969739 
L 206.415845 281.463652 
L 206.472248 281.463652 
L 206.585268 284.969739 
L 206.698574 281.463652 
L 206.755335 281.463652 
L 206.869071 277.957565 
L 206.926047 281.463652 
L 207.040214 277.957565 
L 207.15467 281.463652 
L 207.212006 277.957565 
L 207.269414 281.463652 
L 207.326895 277.957565 
L 207.442073 281.463652 
L 207.499771 277.957565 
L 207.557542 281.463652 
L 207.673302 277.957565 
L 207.731291 277.957565 
L 207.847487 281.463652 
L 207.963976 281.463652 
L 208.022331 277.957565 
L 208.139259 281.463652 
L 208.197834 281.463652 
L 208.256482 277.957565 
L 208.373999 281.463652 
L 208.491811 281.463652 
L 208.550825 277.957565 
L 208.668913 281.463652 
L 208.787079 277.957565 
L 208.905326 281.463652 
L 209.023655 277.957565 
L 209.142067 281.463652 
L 209.201306 281.463652 
L 209.260566 277.957565 
L 209.319848 281.463652 
L 209.438477 277.957565 
L 209.497826 277.957565 
L 209.616591 281.463652 
L 209.973446 281.463652 
L 210.033006 277.957565 
L 210.1522 284.969739 
L 210.271493 277.957565 
L 210.390888 281.463652 
L 210.450624 281.463652 
L 210.510386 277.957565 
L 210.62999 281.463652 
L 210.689831 281.463652 
L 210.749699 274.451478 
L 210.869518 281.463652 
L 210.989446 277.957565 
L 211.289759 277.957565 
L 211.410085 281.463652 
L 211.651093 281.463652 
L 211.771778 277.957565 
L 211.892585 281.463652 
L 212.013517 277.957565 
L 212.026733 281.463652 
L 212.183667 235.884522 
L 212.308704 288.475826 
L 212.561898 288.475826 
L 212.689833 291.981913 
L 212.721956 291.981913 
L 212.818663 288.475826 
L 212.948394 291.981913 
L 213.780015 291.981913 
L 213.916471 295.488 
L 214.261813 295.488 
L 214.29668 284.969739 
L 214.366597 288.475826 
L 214.436759 288.475826 
L 214.471932 291.981913 
L 214.542464 288.475826 
L 214.577823 288.475826 
L 214.719878 291.981913 
L 214.791279 291.981913 
L 214.934832 288.475826 
L 214.970877 288.475826 
L 215.115689 291.981913 
L 216.081946 291.981913 
L 216.196268 295.488 
L 216.426698 295.488 
L 216.465336 288.475826 
L 216.50404 291.981913 
L 216.620554 295.488 
L 216.816084 295.488 
L 216.934212 291.981913 
L 218.07777 291.981913 
L 218.119224 288.475826 
L 218.160753 291.981913 
L 218.24402 291.981913 
L 218.369447 288.475826 
L 218.411397 288.475826 
L 218.453417 291.981913 
L 218.495508 288.475826 
L 218.622204 288.475826 
L 218.749538 291.981913 
L 218.834782 288.475826 
L 218.877511 291.981913 
L 218.920311 288.475826 
L 224.074849 288.475826 
L 224.125847 284.969739 
L 224.17692 288.475826 
L 224.588228 288.475826 
L 224.743717 284.969739 
L 224.795697 288.475826 
L 224.847754 284.969739 
L 224.899886 284.969739 
L 224.952094 288.475826 
L 225.004377 284.969739 
L 225.109172 284.969739 
L 225.266931 288.475826 
L 225.425373 288.475826 
L 225.584496 284.969739 
L 225.637689 284.969739 
L 225.690958 288.475826 
L 225.744303 284.969739 
L 225.904791 284.969739 
L 225.958439 288.475826 
L 226.012163 284.969739 
L 226.499092 284.969739 
L 226.553575 288.475826 
L 226.608134 284.969739 
L 230.676199 284.969739 
L 230.73624 281.463652 
L 230.856552 284.969739 
L 231.098095 284.969739 
L 231.158672 281.463652 
L 231.280056 284.969739 
L 231.462708 284.969739 
L 231.523746 281.463652 
L 231.646051 284.969739 
L 231.768664 281.463652 
L 231.830085 281.463652 
L 231.891584 284.969739 
L 232.014783 281.463652 
L 232.261278 281.463652 
L 232.322903 284.969739 
L 232.384529 281.463652 
L 232.507785 284.969739 
L 232.569416 281.463652 
L 232.631048 284.969739 
L 232.754321 281.463652 
L 233.370904 281.463652 
L 233.432589 284.969739 
L 233.555976 281.463652 
L 234.606005 281.463652 
L 234.667856 277.957565 
L 234.791591 281.463652 
L 235.845389 281.463652 
L 235.969639 277.957565 
L 236.093954 281.463652 
L 236.174071 281.463652 
L 236.232505 274.451478 
L 236.264675 281.463652 
L 236.427153 288.475826 
L 236.856737 288.475826 
L 236.957334 291.981913 
L 236.99099 288.475826 
L 237.058485 291.981913 
L 237.092325 291.981913 
L 237.126227 288.475826 
L 237.194218 291.981913 
L 238.717783 291.981913 
L 238.865709 295.488 
L 239.506681 295.488 
L 239.621891 291.981913 
L 240.973178 291.981913 
L 241.096536 288.475826 
L 241.137807 288.475826 
L 241.22058 291.981913 
L 241.262081 288.475826 
L 241.303659 291.981913 
L 241.596871 291.981913 
L 241.723701 288.475826 
L 241.808646 288.475826 
L 241.851237 291.981913 
L 241.893906 288.475826 
L 243.898126 288.475826 
L 243.991133 284.969739 
L 244.084482 291.981913 
L 244.131286 288.475826 
L 244.50884 288.475826 
L 244.556425 291.981913 
L 244.604097 288.475826 
L 249.312675 288.475826 
L 249.368522 284.969739 
L 249.424459 288.475826 
L 249.480486 284.969739 
L 249.536601 288.475826 
L 249.6491 284.969739 
L 249.705483 284.969739 
L 249.818517 288.475826 
L 249.931907 284.969739 
L 250.022678 288.475826 
L 250.136701 284.969739 
L 250.19385 288.475826 
L 250.308414 284.969739 
L 253.534902 284.969739 
L 253.597051 281.463652 
L 253.721609 284.969739 
L 253.784017 284.969739 
L 253.909092 281.463652 
L 253.971758 284.969739 
L 254.097349 281.463652 
L 254.223283 284.969739 
L 254.286379 284.969739 
L 254.412828 281.463652 
L 254.794227 281.463652 
L 254.858093 284.969739 
L 254.986079 281.463652 
L 255.0502 281.463652 
L 255.114406 284.969739 
L 255.178697 281.463652 
L 255.243073 284.969739 
L 255.307534 281.463652 
L 255.436711 284.969739 
L 255.631112 284.969739 
L 255.761136 281.463652 
L 255.891498 281.463652 
L 255.956806 284.969739 
L 256.022198 281.463652 
L 256.087675 284.969739 
L 256.153235 281.463652 
L 256.218881 284.969739 
L 256.350423 281.463652 
L 256.482303 281.463652 
L 256.548369 284.969739 
L 256.680436 281.463652 
L 256.812408 284.969739 
L 256.87836 281.463652 
L 256.944288 284.969739 
L 257.010194 281.463652 
L 257.076079 284.969739 
L 257.207784 281.463652 
L 257.339408 284.969739 
L 257.470952 281.463652 
L 259.17532 281.463652 
L 259.24071 284.969739 
L 259.371466 281.463652 
L 260.286037 281.463652 
L 260.296977 284.969739 
L 260.470061 253.414957 
L 260.605279 288.475826 
L 261.087952 288.475826 
L 261.122928 291.981913 
L 261.193079 288.475826 
L 261.228256 288.475826 
L 261.2635 291.981913 
L 261.33419 288.475826 
L 261.512103 288.475826 
L 261.655664 291.981913 
L 261.691726 288.475826 
L 261.764057 291.981913 
L 261.982722 291.981913 
L 262.019411 288.475826 
L 262.093 291.981913 
L 263.625761 291.981913 
L 263.745549 295.488 
L 264.190759 295.488 
L 264.313832 291.981913 
L 265.628312 291.981913 
L 265.672042 288.475826 
L 265.715857 291.981913 
L 265.759758 291.981913 
L 265.89197 288.475826 
L 270.501135 288.475826 
L 270.554274 284.969739 
L 270.607515 288.475826 
L 270.983059 288.475826 
L 271.037119 284.969739 
L 271.091283 288.475826 
L 271.145549 288.475826 
L 271.30897 284.969739 
L 271.363652 288.475826 
L 271.418438 284.969739 
L 271.473328 284.969739 
L 271.638626 288.475826 
L 271.804869 284.969739 
L 272.764981 284.969739 
L 272.879978 288.475826 
L 272.995409 281.463652 
L 273.169368 288.475826 
L 273.461487 288.475826 
L 273.579099 284.969739 
L 273.638068 284.969739 
L 273.756333 288.475826 
L 273.815629 288.475826 
L 273.875034 284.969739 
L 273.99417 288.475826 
L 274.113741 284.969739 
L 274.293912 284.969739 
L 274.414569 288.475826 
L 274.47506 288.475826 
L 274.535659 284.969739 
L 274.596366 288.475826 
L 274.718106 284.969739 
L 274.779138 284.969739 
L 274.840277 288.475826 
L 274.962881 284.969739 
L 275.085915 284.969739 
L 275.147594 288.475826 
L 275.271274 284.969739 
L 278.770336 284.969739 
L 278.905716 281.463652 
L 279.041498 284.969739 
L 279.177682 281.463652 
L 279.451249 281.463652 
L 279.51989 284.969739 
L 279.657469 281.463652 
L 280.072579 281.463652 
L 280.142108 284.969739 
L 280.28146 281.463652 
L 282.413818 281.463652 
L 282.485318 284.969739 
L 282.628162 281.463652 
L 284.257446 281.463652 
L 284.407616 274.451478 
L 284.58145 288.475826 
L 285.925174 288.475826 
L 285.96289 291.981913 
L 286.000681 288.475826 
L 286.038548 288.475826 
L 286.076491 291.981913 
L 286.11451 288.475826 
L 286.152606 288.475826 
L 286.190778 291.981913 
L 286.229026 288.475826 
L 286.421423 288.475826 
L 286.498925 291.981913 
L 286.576738 288.475826 
L 286.615762 291.981913 
L 286.654864 288.475826 
L 287.250942 288.475826 
L 287.372334 291.981913 
L 288.498615 291.981913 
L 288.627598 295.488 
L 288.97541 295.488 
L 289.107301 291.981913 
L 290.565235 291.981913 
L 290.706833 288.475826 
L 290.849295 288.475826 
L 290.944752 291.981913 
L 291.088666 288.475826 
L 294.985133 288.475826 
L 295.041153 284.969739 
L 295.153528 288.475826 
L 295.209883 288.475826 
L 295.322931 284.969739 
L 295.43643 284.969739 
L 295.550381 288.475826 
L 295.607527 288.475826 
L 295.722159 284.969739 
L 295.779646 288.475826 
L 295.837246 284.969739 
L 295.952791 288.475826 
L 296.068794 284.969739 
L 299.76903 284.969739 
L 299.834419 281.463652 
L 299.965576 284.969739 
L 300.031342 281.463652 
L 300.163253 284.969739 
L 300.295669 281.463652 
L 300.495242 281.463652 
L 300.56202 284.969739 
L 300.628926 281.463652 
L 300.695958 284.969739 
L 300.830407 281.463652 
L 301.100838 281.463652 
L 301.168767 284.969739 
L 301.30501 281.463652 
L 301.373326 284.969739 
L 301.510343 281.463652 
L 301.647879 281.463652 
L 301.716841 277.957565 
L 301.924502 284.969739 
L 302.980231 284.969739 
L 303.051633 281.463652 
L 303.194816 284.969739 
L 303.482688 284.969739 
L 303.627373 281.463652 
L 303.699902 281.463652 
L 303.845331 284.969739 
L 303.991253 284.969739 
L 304.137666 281.463652 
L 304.505833 281.463652 
L 304.57983 284.969739 
L 304.728186 281.463652 
L 304.802543 284.969739 
L 304.951617 281.463652 
L 305.101167 281.463652 
L 305.251191 284.969739 
L 305.401686 281.463652 
L 305.855976 281.463652 
L 305.932096 277.957565 
L 306.084682 281.463652 
L 306.69958 281.463652 
L 306.776949 277.957565 
L 306.932023 281.463652 
L 307.08754 277.957565 
L 307.165464 277.957565 
L 307.321643 281.463652 
L 307.478259 277.957565 
L 307.635311 277.957565 
L 307.713999 281.463652 
L 307.792796 277.957565 
L 307.950638 281.463652 
L 308.02947 277.957565 
L 308.108198 281.463652 
L 308.265343 277.957565 
L 308.371023 281.463652 
L 308.418263 277.957565 
L 308.453798 281.463652 
L 308.633315 288.475826 
L 311.016135 288.475826 
L 311.057264 291.981913 
L 311.098479 288.475826 
L 311.6847 288.475826 
L 311.727239 291.981913 
L 311.769868 288.475826 
L 311.855396 288.475826 
L 311.984368 291.981913 
L 312.114161 288.475826 
L 312.201148 288.475826 
L 312.33232 291.981913 
L 312.597179 291.981913 
L 312.641651 288.475826 
L 312.686216 291.981913 
L 313.45848 291.981913 
L 313.597679 295.488 
L 313.878752 295.488 
L 314.020639 291.981913 
L 314.451769 291.981913 
L 314.500184 288.475826 
L 314.548701 291.981913 
L 314.597322 291.981913 
L 314.694875 288.475826 
L 314.792843 291.981913 
L 314.841983 288.475826 
L 314.891228 291.981913 
L 315.089259 291.981913 
L 315.188907 288.475826 
L 315.339176 291.981913 
L 315.490406 291.981913 
L 315.642602 288.475826 
L 318.898563 288.475826 
L 318.95639 284.969739 
L 319.072406 288.475826 
L 319.130597 288.475826 
L 319.188909 284.969739 
L 319.305899 288.475826 
L 319.364577 284.969739 
L 319.482302 288.475826 
L 319.541348 288.475826 
L 319.600518 284.969739 
L 319.719227 288.475826 
L 319.838431 284.969739 
L 320.259564 284.969739 
L 320.320226 288.475826 
L 320.441928 284.969739 
L 322.917775 284.969739 
L 323.050115 281.463652 
L 323.182989 284.969739 
L 323.517524 284.969739 
L 323.584834 281.463652 
L 323.719861 284.969739 
L 323.787577 281.463652 
L 323.855429 284.969739 
L 323.99154 281.463652 
L 324.128195 284.969739 
L 324.196727 281.463652 
L 324.3342 284.969739 
L 324.403142 281.463652 
L 324.541437 284.969739 
L 324.680282 284.969739 
L 324.749911 281.463652 
L 324.819677 284.969739 
L 324.959625 281.463652 
L 325.100125 284.969739 
L 325.24118 281.463652 
L 326.977551 281.463652 
L 327.051651 284.969739 
L 327.199836 281.463652 
L 328.607098 281.463652 
L 328.681167 277.957565 
L 328.829312 281.463652 
L 329.422149 281.463652 
L 329.496267 277.957565 
L 329.644523 281.463652 
L 329.718661 277.957565 
L 329.866961 281.463652 
L 330.163662 281.463652 
L 330.243811 277.957565 
L 330.404531 281.463652 
L 331.053329 281.463652 
L 331.135084 277.957565 
L 331.216983 281.463652 
L 331.299026 277.957565 
L 331.463538 281.463652 
L 331.877291 281.463652 
L 331.960461 277.957565 
L 332.127216 281.463652 
L 332.378377 281.463652 
L 332.38924 284.969739 
L 332.45509 270.945391 
L 332.602083 284.969739 
L 332.713587 288.475826 
L 333.28213 288.475826 
L 333.320536 291.981913 
L 333.359213 288.475826 
L 337.431802 288.475826 
L 337.479473 291.981913 
L 337.527249 288.475826 
L 337.816147 288.475826 
L 337.864672 291.981913 
L 337.913305 288.475826 
L 337.962047 288.475826 
L 338.108922 291.981913 
L 338.605643 291.981913 
L 338.756827 295.488 
L 338.909023 295.488 
L 339.062239 291.981913 
L 339.475852 291.981913 
L 339.632865 288.475826 
L 343.91767 288.475826 
L 343.979718 284.969739 
L 344.10422 288.475826 
L 344.166675 288.475826 
L 344.291993 284.969739 
L 344.354858 288.475826 
L 344.480997 284.969739 
L 345.055447 284.969739 
L 345.119968 288.475826 
L 345.249429 284.969739 
L 346.104651 284.969739 
L 346.17143 288.475826 
L 346.305418 284.969739 
L 346.642897 284.969739 
L 346.710825 281.463652 
L 346.847114 284.969739 
L 346.983984 284.969739 
L 347.052636 281.463652 
L 347.190377 284.969739 
L 347.328702 281.463652 
L 347.467611 284.969739 
L 347.677075 284.969739 
L 347.74719 281.463652 
L 347.817453 284.969739 
L 347.887863 281.463652 
L 348.029127 284.969739 
L 348.170982 284.969739 
L 348.242133 281.463652 
L 348.313431 284.969739 
L 348.456475 281.463652 
L 348.600116 284.969739 
L 348.67216 284.969739 
L 348.816698 281.463652 
L 350.750751 281.463652 
L 350.827201 277.957565 
L 350.980479 281.463652 
L 351.057126 277.957565 
L 351.210341 281.463652 
L 351.592939 281.463652 
L 351.669387 277.957565 
L 351.745812 281.463652 
L 351.822215 277.957565 
L 351.974957 281.463652 
L 352.432702 281.463652 
L 352.508927 277.957565 
L 352.661327 281.463652 
L 353.194233 281.463652 
L 353.270306 277.957565 
L 353.422413 281.463652 
L 353.574473 281.463652 
L 353.650486 277.957565 
L 353.80248 281.463652 
L 354.0304 281.463652 
L 354.106355 277.957565 
L 354.258242 281.463652 
L 354.334174 281.463652 
L 354.486019 277.957565 
L 354.637838 281.463652 
L 354.71374 281.463652 
L 354.789637 277.957565 
L 354.941418 281.463652 
L 355.017303 277.957565 
L 355.169063 281.463652 
L 355.320812 281.463652 
L 355.396684 277.957565 
L 355.548425 281.463652 
L 355.700162 277.957565 
L 355.776031 277.957565 
L 355.851901 281.463652 
L 356.003643 277.957565 
L 356.079516 281.463652 
L 356.155391 277.957565 
L 356.231268 281.463652 
L 356.307149 277.957565 
L 356.322809 284.969739 
L 356.465484 253.414957 
L 356.616679 288.475826 
L 357.919963 288.475826 
L 357.931246 295.488 
L 358.013322 288.475826 
L 358.985325 288.475826 
L 359.028739 284.969739 
L 359.072252 288.475826 
L 359.115861 291.981913 
L 359.15957 288.475826 
L 363.319335 288.475826 
L 363.479895 291.981913 
L 363.968347 291.981913 
L 364.133448 295.488 
L 364.299705 291.981913 
L 364.692179 291.981913 
L 364.805492 288.475826 
L 368.330848 288.475826 
L 368.395859 284.969739 
L 368.52633 288.475826 
L 368.591789 288.475826 
L 368.723157 284.969739 
L 368.789067 288.475826 
L 368.855127 284.969739 
L 368.921338 288.475826 
L 369.054213 284.969739 
L 369.120878 288.475826 
L 369.254664 284.969739 
L 371.98775 284.969739 
L 372.134418 281.463652 
L 372.207995 284.969739 
L 372.281734 281.463652 
L 372.4297 284.969739 
L 372.503926 284.969739 
L 372.578316 281.463652 
L 372.652869 284.969739 
L 372.802465 281.463652 
L 373.103622 281.463652 
L 373.179322 284.969739 
L 373.331217 281.463652 
L 373.407411 284.969739 
L 373.560297 281.463652 
L 373.636988 281.463652 
L 373.713844 284.969739 
L 373.868055 281.463652 
L 376.168668 281.463652 
L 376.248611 277.957565 
L 376.408352 281.463652 
L 377.204345 281.463652 
L 377.283711 277.957565 
L 377.442327 281.463652 
L 377.521577 281.463652 
L 377.60079 277.957565 
L 377.759104 281.463652 
L 378.31211 281.463652 
L 378.39098 277.957565 
L 378.548627 281.463652 
L 378.706155 281.463652 
L 378.863568 277.957565 
L 378.942233 281.463652 
L 379.02087 277.957565 
L 379.178067 281.463652 
L 379.256627 277.957565 
L 379.413673 281.463652 
L 379.570625 281.463652 
L 379.649066 277.957565 
L 379.805882 281.463652 
L 379.962614 281.463652 
L 380.040949 277.957565 
L 380.197562 281.463652 
L 380.274259 267.439304 
L 380.429141 284.969739 
L 380.467816 284.969739 
L 380.584396 288.475826 
L 384.922772 288.475826 
L 385.070587 291.981913 
L 385.169717 288.475826 
L 385.319299 291.981913 
L 385.876999 291.981913 
L 386.031656 295.488 
L 386.135379 295.488 
L 386.291896 291.981913 
L 386.661506 291.981913 
L 386.82182 288.475826 
L 387.037374 288.475826 
L 387.091588 291.981913 
L 387.145931 288.475826 
L 387.808357 288.475826 
L 387.864428 281.463652 
L 387.976973 288.475826 
L 388.955895 288.475826 
L 389.073729 291.981913 
L 389.132861 288.475826 
L 389.251554 291.981913 
L 389.55081 291.981913 
L 389.611097 295.488 
L 389.732109 291.981913 
L 390.222055 291.981913 
L 390.34603 288.475826 
L 390.408243 291.981913 
L 390.470606 288.475826 
L 390.53312 291.981913 
L 390.658603 288.475826 
L 393.230413 288.475826 
L 393.368904 284.969739 
L 393.577884 284.969739 
L 393.718036 288.475826 
L 394.000351 288.475826 
L 394.142519 284.969739 
L 394.285363 288.475826 
L 394.357039 284.969739 
L 394.428886 288.475826 
L 394.500903 284.969739 
L 394.57309 288.475826 
L 394.717978 284.969739 
L 395.901967 284.969739 
L 395.97745 281.463652 
L 396.128946 284.969739 
L 396.58768 284.969739 
L 396.664758 281.463652 
L 396.81945 284.969739 
L 396.974857 284.969739 
L 397.05283 281.463652 
L 397.209315 284.969739 
L 397.287827 281.463652 
L 397.445393 284.969739 
L 397.524447 284.969739 
L 397.683098 281.463652 
L 398.487273 281.463652 
L 398.487273 281.463652 
" style="fill:none;stroke:#1f77b4;stroke-linecap:square;stroke-width:1.5;"/>
   </g>
   <g id="patch_3">
    <path d="M 57.6 307.584 
L 57.6 41.472 
" style="fill:none;stroke:#000000;stroke-linecap:square;stroke-linejoin:miter;stroke-width:0.8;"/>
   </g>
   <g id="patch_4">
    <path d="M 414.72 307.584 
L 414.72 41.472 
" style="fill:none;stroke:#000000;stroke-linecap:square;stroke-linejoin:miter;stroke-width:0.8;"/>
   </g>
   <g id="patch_5">
    <path d="M 57.6 307.584 
L 414.72 307.584 
" style="fill:none;stroke:#000000;stroke-linecap:square;stroke-linejoin:miter;stroke-width:0.8;"/>
   </g>
   <g id="patch_6">
    <path d="M 57.6 41.472 
L 414.72 41.472 
" style="fill:none;stroke:#000000;stroke-linecap:square;stroke-linejoin:miter;stroke-width:0.8;"/>
   </g>
  </g>
 </g>
 <defs>
  <clipPath id="p723609b60a">
   <rect height="266.112" width="357.12" x="57.6" y="41.472"/>
  </clipPath>
 </defs>
</svg>
