<?xml version="1.0" encoding="utf-8" standalone="no"?>
<!DOCTYPE svg PUBLIC "-//W3C//DTD SVG 1.1//EN"
  "http://www.w3.org/Graphics/SVG/1.1/DTD/svg11.dtd">
<!-- Created with matplotlib (https://matplotlib.org/) -->
<svg height="345.6pt" version="1.1" viewBox="0 0 460.8 345.6" width="460.8pt" xmlns="http://www.w3.org/2000/svg" xmlns:xlink="http://www.w3.org/1999/xlink">
 <metadata>
  <rdf:RDF xmlns:cc="http://creativecommons.org/ns#" xmlns:dc="http://purl.org/dc/elements/1.1/" xmlns:rdf="http://www.w3.org/1999/02/22-rdf-syntax-ns#">
   <cc:Work>
    <dc:type rdf:resource="http://purl.org/dc/dcmitype/StillImage"/>
    <dc:date>2022-10-18T01:48:00.627974</dc:date>
    <dc:format>image/svg+xml</dc:format>
    <dc:creator>
     <cc:Agent>
      <dc:title>Matplotlib v3.3.4, https://matplotlib.org/</dc:title>
     </cc:Agent>
    </dc:creator>
   </cc:Work>
  </rdf:RDF>
 </metadata>
 <defs>
  <style type="text/css">*{stroke-linecap:butt;stroke-linejoin:round;}</style>
 </defs>
 <g id="figure_1">
  <g id="patch_1">
   <path d="M 0 345.6 
L 460.8 345.6 
L 460.8 0 
L 0 0 
z
" style="fill:#ffffff;"/>
  </g>
  <g id="axes_1">
   <g id="patch_2">
    <path d="M 57.6 307.584 
L 414.72 307.584 
L 414.72 41.472 
L 57.6 41.472 
z
" style="fill:#ffffff;"/>
   </g>
   <g id="matplotlib.axis_1">
    <g id="xtick_1">
     <g id="line2d_1">
      <defs>
       <path d="M 0 0 
L 0 3.5 
" id="m634009fb1d" style="stroke:#000000;stroke-width:0.8;"/>
      </defs>
      <g>
       <use style="stroke:#000000;stroke-width:0.8;" x="73.56191" xlink:href="#m634009fb1d" y="307.584"/>
      </g>
     </g>
     <g id="text_1">
      <!-- 0.0 -->
      <g transform="translate(65.610347 322.182437)scale(0.1 -0.1)">
       <defs>
        <path d="M 31.78125 66.40625 
Q 24.171875 66.40625 20.328125 58.90625 
Q 16.5 51.421875 16.5 36.375 
Q 16.5 21.390625 20.328125 13.890625 
Q 24.171875 6.390625 31.78125 6.390625 
Q 39.453125 6.390625 43.28125 13.890625 
Q 47.125 21.390625 47.125 36.375 
Q 47.125 51.421875 43.28125 58.90625 
Q 39.453125 66.40625 31.78125 66.40625 
z
M 31.78125 74.21875 
Q 44.046875 74.21875 50.515625 64.515625 
Q 56.984375 54.828125 56.984375 36.375 
Q 56.984375 17.96875 50.515625 8.265625 
Q 44.046875 -1.421875 31.78125 -1.421875 
Q 19.53125 -1.421875 13.0625 8.265625 
Q 6.59375 17.96875 6.59375 36.375 
Q 6.59375 54.828125 13.0625 64.515625 
Q 19.53125 74.21875 31.78125 74.21875 
z
" id="DejaVuSans-48"/>
        <path d="M 10.6875 12.40625 
L 21 12.40625 
L 21 0 
L 10.6875 0 
z
" id="DejaVuSans-46"/>
       </defs>
       <use xlink:href="#DejaVuSans-48"/>
       <use x="63.623047" xlink:href="#DejaVuSans-46"/>
       <use x="95.410156" xlink:href="#DejaVuSans-48"/>
      </g>
     </g>
    </g>
    <g id="xtick_2">
     <g id="line2d_2">
      <g>
       <use style="stroke:#000000;stroke-width:0.8;" x="127.7254" xlink:href="#m634009fb1d" y="307.584"/>
      </g>
     </g>
     <g id="text_2">
      <!-- 0.2 -->
      <g transform="translate(119.773837 322.182437)scale(0.1 -0.1)">
       <defs>
        <path d="M 19.1875 8.296875 
L 53.609375 8.296875 
L 53.609375 0 
L 7.328125 0 
L 7.328125 8.296875 
Q 12.9375 14.109375 22.625 23.890625 
Q 32.328125 33.6875 34.8125 36.53125 
Q 39.546875 41.84375 41.421875 45.53125 
Q 43.3125 49.21875 43.3125 52.78125 
Q 43.3125 58.59375 39.234375 62.25 
Q 35.15625 65.921875 28.609375 65.921875 
Q 23.96875 65.921875 18.8125 64.3125 
Q 13.671875 62.703125 7.8125 59.421875 
L 7.8125 69.390625 
Q 13.765625 71.78125 18.9375 73 
Q 24.125 74.21875 28.421875 74.21875 
Q 39.75 74.21875 46.484375 68.546875 
Q 53.21875 62.890625 53.21875 53.421875 
Q 53.21875 48.921875 51.53125 44.890625 
Q 49.859375 40.875 45.40625 35.40625 
Q 44.1875 33.984375 37.640625 27.21875 
Q 31.109375 20.453125 19.1875 8.296875 
z
" id="DejaVuSans-50"/>
       </defs>
       <use xlink:href="#DejaVuSans-48"/>
       <use x="63.623047" xlink:href="#DejaVuSans-46"/>
       <use x="95.410156" xlink:href="#DejaVuSans-50"/>
      </g>
     </g>
    </g>
    <g id="xtick_3">
     <g id="line2d_3">
      <g>
       <use style="stroke:#000000;stroke-width:0.8;" x="181.88889" xlink:href="#m634009fb1d" y="307.584"/>
      </g>
     </g>
     <g id="text_3">
      <!-- 0.4 -->
      <g transform="translate(173.937327 322.182437)scale(0.1 -0.1)">
       <defs>
        <path d="M 37.796875 64.3125 
L 12.890625 25.390625 
L 37.796875 25.390625 
z
M 35.203125 72.90625 
L 47.609375 72.90625 
L 47.609375 25.390625 
L 58.015625 25.390625 
L 58.015625 17.1875 
L 47.609375 17.1875 
L 47.609375 0 
L 37.796875 0 
L 37.796875 17.1875 
L 4.890625 17.1875 
L 4.890625 26.703125 
z
" id="DejaVuSans-52"/>
       </defs>
       <use xlink:href="#DejaVuSans-48"/>
       <use x="63.623047" xlink:href="#DejaVuSans-46"/>
       <use x="95.410156" xlink:href="#DejaVuSans-52"/>
      </g>
     </g>
    </g>
    <g id="xtick_4">
     <g id="line2d_4">
      <g>
       <use style="stroke:#000000;stroke-width:0.8;" x="236.05238" xlink:href="#m634009fb1d" y="307.584"/>
      </g>
     </g>
     <g id="text_4">
      <!-- 0.6 -->
      <g transform="translate(228.100818 322.182437)scale(0.1 -0.1)">
       <defs>
        <path d="M 33.015625 40.375 
Q 26.375 40.375 22.484375 35.828125 
Q 18.609375 31.296875 18.609375 23.390625 
Q 18.609375 15.53125 22.484375 10.953125 
Q 26.375 6.390625 33.015625 6.390625 
Q 39.65625 6.390625 43.53125 10.953125 
Q 47.40625 15.53125 47.40625 23.390625 
Q 47.40625 31.296875 43.53125 35.828125 
Q 39.65625 40.375 33.015625 40.375 
z
M 52.59375 71.296875 
L 52.59375 62.3125 
Q 48.875 64.0625 45.09375 64.984375 
Q 41.3125 65.921875 37.59375 65.921875 
Q 27.828125 65.921875 22.671875 59.328125 
Q 17.53125 52.734375 16.796875 39.40625 
Q 19.671875 43.65625 24.015625 45.921875 
Q 28.375 48.1875 33.59375 48.1875 
Q 44.578125 48.1875 50.953125 41.515625 
Q 57.328125 34.859375 57.328125 23.390625 
Q 57.328125 12.15625 50.6875 5.359375 
Q 44.046875 -1.421875 33.015625 -1.421875 
Q 20.359375 -1.421875 13.671875 8.265625 
Q 6.984375 17.96875 6.984375 36.375 
Q 6.984375 53.65625 15.1875 63.9375 
Q 23.390625 74.21875 37.203125 74.21875 
Q 40.921875 74.21875 44.703125 73.484375 
Q 48.484375 72.75 52.59375 71.296875 
z
" id="DejaVuSans-54"/>
       </defs>
       <use xlink:href="#DejaVuSans-48"/>
       <use x="63.623047" xlink:href="#DejaVuSans-46"/>
       <use x="95.410156" xlink:href="#DejaVuSans-54"/>
      </g>
     </g>
    </g>
    <g id="xtick_5">
     <g id="line2d_5">
      <g>
       <use style="stroke:#000000;stroke-width:0.8;" x="290.21587" xlink:href="#m634009fb1d" y="307.584"/>
      </g>
     </g>
     <g id="text_5">
      <!-- 0.8 -->
      <g transform="translate(282.264308 322.182437)scale(0.1 -0.1)">
       <defs>
        <path d="M 31.78125 34.625 
Q 24.75 34.625 20.71875 30.859375 
Q 16.703125 27.09375 16.703125 20.515625 
Q 16.703125 13.921875 20.71875 10.15625 
Q 24.75 6.390625 31.78125 6.390625 
Q 38.8125 6.390625 42.859375 10.171875 
Q 46.921875 13.96875 46.921875 20.515625 
Q 46.921875 27.09375 42.890625 30.859375 
Q 38.875 34.625 31.78125 34.625 
z
M 21.921875 38.8125 
Q 15.578125 40.375 12.03125 44.71875 
Q 8.5 49.078125 8.5 55.328125 
Q 8.5 64.0625 14.71875 69.140625 
Q 20.953125 74.21875 31.78125 74.21875 
Q 42.671875 74.21875 48.875 69.140625 
Q 55.078125 64.0625 55.078125 55.328125 
Q 55.078125 49.078125 51.53125 44.71875 
Q 48 40.375 41.703125 38.8125 
Q 48.828125 37.15625 52.796875 32.3125 
Q 56.78125 27.484375 56.78125 20.515625 
Q 56.78125 9.90625 50.3125 4.234375 
Q 43.84375 -1.421875 31.78125 -1.421875 
Q 19.734375 -1.421875 13.25 4.234375 
Q 6.78125 9.90625 6.78125 20.515625 
Q 6.78125 27.484375 10.78125 32.3125 
Q 14.796875 37.15625 21.921875 38.8125 
z
M 18.3125 54.390625 
Q 18.3125 48.734375 21.84375 45.5625 
Q 25.390625 42.390625 31.78125 42.390625 
Q 38.140625 42.390625 41.71875 45.5625 
Q 45.3125 48.734375 45.3125 54.390625 
Q 45.3125 60.0625 41.71875 63.234375 
Q 38.140625 66.40625 31.78125 66.40625 
Q 25.390625 66.40625 21.84375 63.234375 
Q 18.3125 60.0625 18.3125 54.390625 
z
" id="DejaVuSans-56"/>
       </defs>
       <use xlink:href="#DejaVuSans-48"/>
       <use x="63.623047" xlink:href="#DejaVuSans-46"/>
       <use x="95.410156" xlink:href="#DejaVuSans-56"/>
      </g>
     </g>
    </g>
    <g id="xtick_6">
     <g id="line2d_6">
      <g>
       <use style="stroke:#000000;stroke-width:0.8;" x="344.37936" xlink:href="#m634009fb1d" y="307.584"/>
      </g>
     </g>
     <g id="text_6">
      <!-- 1.0 -->
      <g transform="translate(336.427798 322.182437)scale(0.1 -0.1)">
       <defs>
        <path d="M 12.40625 8.296875 
L 28.515625 8.296875 
L 28.515625 63.921875 
L 10.984375 60.40625 
L 10.984375 69.390625 
L 28.421875 72.90625 
L 38.28125 72.90625 
L 38.28125 8.296875 
L 54.390625 8.296875 
L 54.390625 0 
L 12.40625 0 
z
" id="DejaVuSans-49"/>
       </defs>
       <use xlink:href="#DejaVuSans-49"/>
       <use x="63.623047" xlink:href="#DejaVuSans-46"/>
       <use x="95.410156" xlink:href="#DejaVuSans-48"/>
      </g>
     </g>
    </g>
    <g id="xtick_7">
     <g id="line2d_7">
      <g>
       <use style="stroke:#000000;stroke-width:0.8;" x="398.54285" xlink:href="#m634009fb1d" y="307.584"/>
      </g>
     </g>
     <g id="text_7">
      <!-- 1.2 -->
      <g transform="translate(390.591288 322.182437)scale(0.1 -0.1)">
       <use xlink:href="#DejaVuSans-49"/>
       <use x="63.623047" xlink:href="#DejaVuSans-46"/>
       <use x="95.410156" xlink:href="#DejaVuSans-50"/>
      </g>
     </g>
    </g>
    <g id="text_8">
     <!-- time [days] -->
     <g transform="translate(207.570937 335.860562)scale(0.1 -0.1)">
      <defs>
       <path d="M 18.3125 70.21875 
L 18.3125 54.6875 
L 36.8125 54.6875 
L 36.8125 47.703125 
L 18.3125 47.703125 
L 18.3125 18.015625 
Q 18.3125 11.328125 20.140625 9.421875 
Q 21.96875 7.515625 27.59375 7.515625 
L 36.8125 7.515625 
L 36.8125 0 
L 27.59375 0 
Q 17.1875 0 13.234375 3.875 
Q 9.28125 7.765625 9.28125 18.015625 
L 9.28125 47.703125 
L 2.6875 47.703125 
L 2.6875 54.6875 
L 9.28125 54.6875 
L 9.28125 70.21875 
z
" id="DejaVuSans-116"/>
       <path d="M 9.421875 54.6875 
L 18.40625 54.6875 
L 18.40625 0 
L 9.421875 0 
z
M 9.421875 75.984375 
L 18.40625 75.984375 
L 18.40625 64.59375 
L 9.421875 64.59375 
z
" id="DejaVuSans-105"/>
       <path d="M 52 44.1875 
Q 55.375 50.25 60.0625 53.125 
Q 64.75 56 71.09375 56 
Q 79.640625 56 84.28125 50.015625 
Q 88.921875 44.046875 88.921875 33.015625 
L 88.921875 0 
L 79.890625 0 
L 79.890625 32.71875 
Q 79.890625 40.578125 77.09375 44.375 
Q 74.3125 48.1875 68.609375 48.1875 
Q 61.625 48.1875 57.5625 43.546875 
Q 53.515625 38.921875 53.515625 30.90625 
L 53.515625 0 
L 44.484375 0 
L 44.484375 32.71875 
Q 44.484375 40.625 41.703125 44.40625 
Q 38.921875 48.1875 33.109375 48.1875 
Q 26.21875 48.1875 22.15625 43.53125 
Q 18.109375 38.875 18.109375 30.90625 
L 18.109375 0 
L 9.078125 0 
L 9.078125 54.6875 
L 18.109375 54.6875 
L 18.109375 46.1875 
Q 21.1875 51.21875 25.484375 53.609375 
Q 29.78125 56 35.6875 56 
Q 41.65625 56 45.828125 52.96875 
Q 50 49.953125 52 44.1875 
z
" id="DejaVuSans-109"/>
       <path d="M 56.203125 29.59375 
L 56.203125 25.203125 
L 14.890625 25.203125 
Q 15.484375 15.921875 20.484375 11.0625 
Q 25.484375 6.203125 34.421875 6.203125 
Q 39.59375 6.203125 44.453125 7.46875 
Q 49.3125 8.734375 54.109375 11.28125 
L 54.109375 2.78125 
Q 49.265625 0.734375 44.1875 -0.34375 
Q 39.109375 -1.421875 33.890625 -1.421875 
Q 20.796875 -1.421875 13.15625 6.1875 
Q 5.515625 13.8125 5.515625 26.8125 
Q 5.515625 40.234375 12.765625 48.109375 
Q 20.015625 56 32.328125 56 
Q 43.359375 56 49.78125 48.890625 
Q 56.203125 41.796875 56.203125 29.59375 
z
M 47.21875 32.234375 
Q 47.125 39.59375 43.09375 43.984375 
Q 39.0625 48.390625 32.421875 48.390625 
Q 24.90625 48.390625 20.390625 44.140625 
Q 15.875 39.890625 15.1875 32.171875 
z
" id="DejaVuSans-101"/>
       <path id="DejaVuSans-32"/>
       <path d="M 8.59375 75.984375 
L 29.296875 75.984375 
L 29.296875 69 
L 17.578125 69 
L 17.578125 -6.203125 
L 29.296875 -6.203125 
L 29.296875 -13.1875 
L 8.59375 -13.1875 
z
" id="DejaVuSans-91"/>
       <path d="M 45.40625 46.390625 
L 45.40625 75.984375 
L 54.390625 75.984375 
L 54.390625 0 
L 45.40625 0 
L 45.40625 8.203125 
Q 42.578125 3.328125 38.25 0.953125 
Q 33.9375 -1.421875 27.875 -1.421875 
Q 17.96875 -1.421875 11.734375 6.484375 
Q 5.515625 14.40625 5.515625 27.296875 
Q 5.515625 40.1875 11.734375 48.09375 
Q 17.96875 56 27.875 56 
Q 33.9375 56 38.25 53.625 
Q 42.578125 51.265625 45.40625 46.390625 
z
M 14.796875 27.296875 
Q 14.796875 17.390625 18.875 11.75 
Q 22.953125 6.109375 30.078125 6.109375 
Q 37.203125 6.109375 41.296875 11.75 
Q 45.40625 17.390625 45.40625 27.296875 
Q 45.40625 37.203125 41.296875 42.84375 
Q 37.203125 48.484375 30.078125 48.484375 
Q 22.953125 48.484375 18.875 42.84375 
Q 14.796875 37.203125 14.796875 27.296875 
z
" id="DejaVuSans-100"/>
       <path d="M 34.28125 27.484375 
Q 23.390625 27.484375 19.1875 25 
Q 14.984375 22.515625 14.984375 16.5 
Q 14.984375 11.71875 18.140625 8.90625 
Q 21.296875 6.109375 26.703125 6.109375 
Q 34.1875 6.109375 38.703125 11.40625 
Q 43.21875 16.703125 43.21875 25.484375 
L 43.21875 27.484375 
z
M 52.203125 31.203125 
L 52.203125 0 
L 43.21875 0 
L 43.21875 8.296875 
Q 40.140625 3.328125 35.546875 0.953125 
Q 30.953125 -1.421875 24.3125 -1.421875 
Q 15.921875 -1.421875 10.953125 3.296875 
Q 6 8.015625 6 15.921875 
Q 6 25.140625 12.171875 29.828125 
Q 18.359375 34.515625 30.609375 34.515625 
L 43.21875 34.515625 
L 43.21875 35.40625 
Q 43.21875 41.609375 39.140625 45 
Q 35.0625 48.390625 27.6875 48.390625 
Q 23 48.390625 18.546875 47.265625 
Q 14.109375 46.140625 10.015625 43.890625 
L 10.015625 52.203125 
Q 14.9375 54.109375 19.578125 55.046875 
Q 24.21875 56 28.609375 56 
Q 40.484375 56 46.34375 49.84375 
Q 52.203125 43.703125 52.203125 31.203125 
z
" id="DejaVuSans-97"/>
       <path d="M 32.171875 -5.078125 
Q 28.375 -14.84375 24.75 -17.8125 
Q 21.140625 -20.796875 15.09375 -20.796875 
L 7.90625 -20.796875 
L 7.90625 -13.28125 
L 13.1875 -13.28125 
Q 16.890625 -13.28125 18.9375 -11.515625 
Q 21 -9.765625 23.484375 -3.21875 
L 25.09375 0.875 
L 2.984375 54.6875 
L 12.5 54.6875 
L 29.59375 11.921875 
L 46.6875 54.6875 
L 56.203125 54.6875 
z
" id="DejaVuSans-121"/>
       <path d="M 44.28125 53.078125 
L 44.28125 44.578125 
Q 40.484375 46.53125 36.375 47.5 
Q 32.28125 48.484375 27.875 48.484375 
Q 21.1875 48.484375 17.84375 46.4375 
Q 14.5 44.390625 14.5 40.28125 
Q 14.5 37.15625 16.890625 35.375 
Q 19.28125 33.59375 26.515625 31.984375 
L 29.59375 31.296875 
Q 39.15625 29.25 43.1875 25.515625 
Q 47.21875 21.78125 47.21875 15.09375 
Q 47.21875 7.46875 41.1875 3.015625 
Q 35.15625 -1.421875 24.609375 -1.421875 
Q 20.21875 -1.421875 15.453125 -0.5625 
Q 10.6875 0.296875 5.421875 2 
L 5.421875 11.28125 
Q 10.40625 8.6875 15.234375 7.390625 
Q 20.0625 6.109375 24.8125 6.109375 
Q 31.15625 6.109375 34.5625 8.28125 
Q 37.984375 10.453125 37.984375 14.40625 
Q 37.984375 18.0625 35.515625 20.015625 
Q 33.0625 21.96875 24.703125 23.78125 
L 21.578125 24.515625 
Q 13.234375 26.265625 9.515625 29.90625 
Q 5.8125 33.546875 5.8125 39.890625 
Q 5.8125 47.609375 11.28125 51.796875 
Q 16.75 56 26.8125 56 
Q 31.78125 56 36.171875 55.265625 
Q 40.578125 54.546875 44.28125 53.078125 
z
" id="DejaVuSans-115"/>
       <path d="M 30.421875 75.984375 
L 30.421875 -13.1875 
L 9.71875 -13.1875 
L 9.71875 -6.203125 
L 21.390625 -6.203125 
L 21.390625 69 
L 9.71875 69 
L 9.71875 75.984375 
z
" id="DejaVuSans-93"/>
      </defs>
      <use xlink:href="#DejaVuSans-116"/>
      <use x="39.208984" xlink:href="#DejaVuSans-105"/>
      <use x="66.992188" xlink:href="#DejaVuSans-109"/>
      <use x="164.404297" xlink:href="#DejaVuSans-101"/>
      <use x="225.927734" xlink:href="#DejaVuSans-32"/>
      <use x="257.714844" xlink:href="#DejaVuSans-91"/>
      <use x="296.728516" xlink:href="#DejaVuSans-100"/>
      <use x="360.205078" xlink:href="#DejaVuSans-97"/>
      <use x="421.484375" xlink:href="#DejaVuSans-121"/>
      <use x="480.664062" xlink:href="#DejaVuSans-115"/>
      <use x="532.763672" xlink:href="#DejaVuSans-93"/>
     </g>
    </g>
   </g>
   <g id="matplotlib.axis_2">
    <g id="ytick_1">
     <g id="line2d_8">
      <defs>
       <path d="M 0 0 
L -3.5 0 
" id="m012d8dbc5c" style="stroke:#000000;stroke-width:0.8;"/>
      </defs>
      <g>
       <use style="stroke:#000000;stroke-width:0.8;" x="57.6" xlink:href="#m012d8dbc5c" y="299.045647"/>
      </g>
     </g>
     <g id="text_9">
      <!-- 0 -->
      <g transform="translate(44.2375 302.844866)scale(0.1 -0.1)">
       <use xlink:href="#DejaVuSans-48"/>
      </g>
     </g>
    </g>
    <g id="ytick_2">
     <g id="line2d_9">
      <g>
       <use style="stroke:#000000;stroke-width:0.8;" x="57.6" xlink:href="#m012d8dbc5c" y="263.469176"/>
      </g>
     </g>
     <g id="text_10">
      <!-- 10 -->
      <g transform="translate(37.875 267.268395)scale(0.1 -0.1)">
       <use xlink:href="#DejaVuSans-49"/>
       <use x="63.623047" xlink:href="#DejaVuSans-48"/>
      </g>
     </g>
    </g>
    <g id="ytick_3">
     <g id="line2d_10">
      <g>
       <use style="stroke:#000000;stroke-width:0.8;" x="57.6" xlink:href="#m012d8dbc5c" y="227.892706"/>
      </g>
     </g>
     <g id="text_11">
      <!-- 20 -->
      <g transform="translate(37.875 231.691925)scale(0.1 -0.1)">
       <use xlink:href="#DejaVuSans-50"/>
       <use x="63.623047" xlink:href="#DejaVuSans-48"/>
      </g>
     </g>
    </g>
    <g id="ytick_4">
     <g id="line2d_11">
      <g>
       <use style="stroke:#000000;stroke-width:0.8;" x="57.6" xlink:href="#m012d8dbc5c" y="192.316235"/>
      </g>
     </g>
     <g id="text_12">
      <!-- 30 -->
      <g transform="translate(37.875 196.115454)scale(0.1 -0.1)">
       <defs>
        <path d="M 40.578125 39.3125 
Q 47.65625 37.796875 51.625 33 
Q 55.609375 28.21875 55.609375 21.1875 
Q 55.609375 10.40625 48.1875 4.484375 
Q 40.765625 -1.421875 27.09375 -1.421875 
Q 22.515625 -1.421875 17.65625 -0.515625 
Q 12.796875 0.390625 7.625 2.203125 
L 7.625 11.71875 
Q 11.71875 9.328125 16.59375 8.109375 
Q 21.484375 6.890625 26.8125 6.890625 
Q 36.078125 6.890625 40.9375 10.546875 
Q 45.796875 14.203125 45.796875 21.1875 
Q 45.796875 27.640625 41.28125 31.265625 
Q 36.765625 34.90625 28.71875 34.90625 
L 20.21875 34.90625 
L 20.21875 43.015625 
L 29.109375 43.015625 
Q 36.375 43.015625 40.234375 45.921875 
Q 44.09375 48.828125 44.09375 54.296875 
Q 44.09375 59.90625 40.109375 62.90625 
Q 36.140625 65.921875 28.71875 65.921875 
Q 24.65625 65.921875 20.015625 65.03125 
Q 15.375 64.15625 9.8125 62.3125 
L 9.8125 71.09375 
Q 15.4375 72.65625 20.34375 73.4375 
Q 25.25 74.21875 29.59375 74.21875 
Q 40.828125 74.21875 47.359375 69.109375 
Q 53.90625 64.015625 53.90625 55.328125 
Q 53.90625 49.265625 50.4375 45.09375 
Q 46.96875 40.921875 40.578125 39.3125 
z
" id="DejaVuSans-51"/>
       </defs>
       <use xlink:href="#DejaVuSans-51"/>
       <use x="63.623047" xlink:href="#DejaVuSans-48"/>
      </g>
     </g>
    </g>
    <g id="ytick_5">
     <g id="line2d_12">
      <g>
       <use style="stroke:#000000;stroke-width:0.8;" x="57.6" xlink:href="#m012d8dbc5c" y="156.739765"/>
      </g>
     </g>
     <g id="text_13">
      <!-- 40 -->
      <g transform="translate(37.875 160.538983)scale(0.1 -0.1)">
       <use xlink:href="#DejaVuSans-52"/>
       <use x="63.623047" xlink:href="#DejaVuSans-48"/>
      </g>
     </g>
    </g>
    <g id="ytick_6">
     <g id="line2d_13">
      <g>
       <use style="stroke:#000000;stroke-width:0.8;" x="57.6" xlink:href="#m012d8dbc5c" y="121.163294"/>
      </g>
     </g>
     <g id="text_14">
      <!-- 50 -->
      <g transform="translate(37.875 124.962513)scale(0.1 -0.1)">
       <defs>
        <path d="M 10.796875 72.90625 
L 49.515625 72.90625 
L 49.515625 64.59375 
L 19.828125 64.59375 
L 19.828125 46.734375 
Q 21.96875 47.46875 24.109375 47.828125 
Q 26.265625 48.1875 28.421875 48.1875 
Q 40.625 48.1875 47.75 41.5 
Q 54.890625 34.8125 54.890625 23.390625 
Q 54.890625 11.625 47.5625 5.09375 
Q 40.234375 -1.421875 26.90625 -1.421875 
Q 22.3125 -1.421875 17.546875 -0.640625 
Q 12.796875 0.140625 7.71875 1.703125 
L 7.71875 11.625 
Q 12.109375 9.234375 16.796875 8.0625 
Q 21.484375 6.890625 26.703125 6.890625 
Q 35.15625 6.890625 40.078125 11.328125 
Q 45.015625 15.765625 45.015625 23.390625 
Q 45.015625 31 40.078125 35.4375 
Q 35.15625 39.890625 26.703125 39.890625 
Q 22.75 39.890625 18.8125 39.015625 
Q 14.890625 38.140625 10.796875 36.28125 
z
" id="DejaVuSans-53"/>
       </defs>
       <use xlink:href="#DejaVuSans-53"/>
       <use x="63.623047" xlink:href="#DejaVuSans-48"/>
      </g>
     </g>
    </g>
    <g id="ytick_7">
     <g id="line2d_14">
      <g>
       <use style="stroke:#000000;stroke-width:0.8;" x="57.6" xlink:href="#m012d8dbc5c" y="85.586824"/>
      </g>
     </g>
     <g id="text_15">
      <!-- 60 -->
      <g transform="translate(37.875 89.386042)scale(0.1 -0.1)">
       <use xlink:href="#DejaVuSans-54"/>
       <use x="63.623047" xlink:href="#DejaVuSans-48"/>
      </g>
     </g>
    </g>
    <g id="ytick_8">
     <g id="line2d_15">
      <g>
       <use style="stroke:#000000;stroke-width:0.8;" x="57.6" xlink:href="#m012d8dbc5c" y="50.010353"/>
      </g>
     </g>
     <g id="text_16">
      <!-- 70 -->
      <g transform="translate(37.875 53.809572)scale(0.1 -0.1)">
       <defs>
        <path d="M 8.203125 72.90625 
L 55.078125 72.90625 
L 55.078125 68.703125 
L 28.609375 0 
L 18.3125 0 
L 43.21875 64.59375 
L 8.203125 64.59375 
z
" id="DejaVuSans-55"/>
       </defs>
       <use xlink:href="#DejaVuSans-55"/>
       <use x="63.623047" xlink:href="#DejaVuSans-48"/>
      </g>
     </g>
    </g>
    <g id="text_17">
     <!-- Iterations -->
     <g transform="translate(31.795312 198.341281)rotate(-90)scale(0.1 -0.1)">
      <defs>
       <path d="M 9.8125 72.90625 
L 19.671875 72.90625 
L 19.671875 0 
L 9.8125 0 
z
" id="DejaVuSans-73"/>
       <path d="M 41.109375 46.296875 
Q 39.59375 47.171875 37.8125 47.578125 
Q 36.03125 48 33.890625 48 
Q 26.265625 48 22.1875 43.046875 
Q 18.109375 38.09375 18.109375 28.8125 
L 18.109375 0 
L 9.078125 0 
L 9.078125 54.6875 
L 18.109375 54.6875 
L 18.109375 46.1875 
Q 20.953125 51.171875 25.484375 53.578125 
Q 30.03125 56 36.53125 56 
Q 37.453125 56 38.578125 55.875 
Q 39.703125 55.765625 41.0625 55.515625 
z
" id="DejaVuSans-114"/>
       <path d="M 30.609375 48.390625 
Q 23.390625 48.390625 19.1875 42.75 
Q 14.984375 37.109375 14.984375 27.296875 
Q 14.984375 17.484375 19.15625 11.84375 
Q 23.34375 6.203125 30.609375 6.203125 
Q 37.796875 6.203125 41.984375 11.859375 
Q 46.1875 17.53125 46.1875 27.296875 
Q 46.1875 37.015625 41.984375 42.703125 
Q 37.796875 48.390625 30.609375 48.390625 
z
M 30.609375 56 
Q 42.328125 56 49.015625 48.375 
Q 55.71875 40.765625 55.71875 27.296875 
Q 55.71875 13.875 49.015625 6.21875 
Q 42.328125 -1.421875 30.609375 -1.421875 
Q 18.84375 -1.421875 12.171875 6.21875 
Q 5.515625 13.875 5.515625 27.296875 
Q 5.515625 40.765625 12.171875 48.375 
Q 18.84375 56 30.609375 56 
z
" id="DejaVuSans-111"/>
       <path d="M 54.890625 33.015625 
L 54.890625 0 
L 45.90625 0 
L 45.90625 32.71875 
Q 45.90625 40.484375 42.875 44.328125 
Q 39.84375 48.1875 33.796875 48.1875 
Q 26.515625 48.1875 22.3125 43.546875 
Q 18.109375 38.921875 18.109375 30.90625 
L 18.109375 0 
L 9.078125 0 
L 9.078125 54.6875 
L 18.109375 54.6875 
L 18.109375 46.1875 
Q 21.34375 51.125 25.703125 53.5625 
Q 30.078125 56 35.796875 56 
Q 45.21875 56 50.046875 50.171875 
Q 54.890625 44.34375 54.890625 33.015625 
z
" id="DejaVuSans-110"/>
      </defs>
      <use xlink:href="#DejaVuSans-73"/>
      <use x="29.492188" xlink:href="#DejaVuSans-116"/>
      <use x="68.701172" xlink:href="#DejaVuSans-101"/>
      <use x="130.224609" xlink:href="#DejaVuSans-114"/>
      <use x="171.337891" xlink:href="#DejaVuSans-97"/>
      <use x="232.617188" xlink:href="#DejaVuSans-116"/>
      <use x="271.826172" xlink:href="#DejaVuSans-105"/>
      <use x="299.609375" xlink:href="#DejaVuSans-111"/>
      <use x="360.791016" xlink:href="#DejaVuSans-110"/>
      <use x="424.169922" xlink:href="#DejaVuSans-115"/>
     </g>
    </g>
   </g>
   <g id="line2d_16">
    <path clip-path="url(#p9d5b352817)" d="M 73.832727 256.353882 
L 73.83322 295.488 
L 73.944261 291.930353 
L 74.180976 291.930353 
L 74.29284 288.372706 
L 74.465294 288.372706 
L 74.580021 291.930353 
L 74.636897 291.930353 
L 74.748218 288.372706 
L 74.828348 288.372706 
L 74.929673 284.815059 
L 74.938169 288.372706 
L 75.022546 288.372706 
L 75.136321 277.699765 
L 75.250599 288.372706 
L 75.257332 288.372706 
L 75.267474 277.699765 
L 75.368161 288.372706 
L 75.447843 288.372706 
L 75.55742 284.815059 
L 75.561293 288.372706 
L 75.668343 284.815059 
L 75.6724 284.815059 
L 75.77607 288.372706 
L 75.717484 274.142118 
L 75.780307 284.815059 
L 75.836039 284.815059 
L 75.946676 281.257412 
L 76.0246 284.815059 
L 76.057338 281.257412 
L 76.062047 281.257412 
L 76.10957 277.699765 
L 76.17256 284.815059 
L 76.231947 288.372706 
L 76.287457 277.699765 
L 76.333653 284.815059 
L 76.359625 274.142118 
L 76.39636 277.699765 
L 76.487429 270.584471 
L 76.438886 284.815059 
L 76.509247 274.142118 
L 76.564451 284.815059 
L 76.54779 270.584471 
L 76.614958 277.699765 
L 76.718366 267.026824 
L 76.712536 284.815059 
L 76.724206 277.699765 
L 76.807053 284.815059 
L 76.783175 267.026824 
L 76.825072 281.257412 
L 76.831099 259.911529 
L 76.861396 284.815059 
L 76.935205 267.026824 
L 77.016955 284.815059 
L 76.98529 263.469176 
L 77.048904 274.142118 
L 77.094115 284.815059 
L 77.153081 259.911529 
L 77.233203 284.815059 
L 77.260298 274.142118 
L 77.363678 284.815059 
L 77.377677 256.353882 
L 77.384695 256.353882 
L 77.506005 284.815059 
L 77.608807 249.238588 
L 77.616253 256.353882 
L 77.623713 256.353882 
L 77.72963 252.796235 
L 77.737302 284.815059 
L 77.768138 245.680941 
L 77.846254 267.026824 
L 77.901826 284.815059 
L 77.925871 242.123294 
L 77.958147 281.257412 
L 78.03168 235.008 
L 77.990671 284.815059 
L 78.073088 256.353882 
L 78.157119 281.257412 
L 78.089763 242.123294 
L 78.182649 259.911529 
L 78.242808 231.450353 
L 78.20833 281.257412 
L 78.295037 256.353882 
L 78.303802 256.353882 
L 78.312584 274.142118 
L 78.330202 235.008 
L 78.410353 256.353882 
L 78.482819 267.026824 
L 78.464593 238.565647 
L 78.510295 259.911529 
L 78.556461 224.335059 
L 78.54719 274.142118 
L 78.612481 238.565647 
L 78.707385 274.142118 
L 78.7266 245.680941 
L 78.794482 270.584471 
L 78.784724 238.565647 
L 78.833715 245.680941 
L 78.843575 238.565647 
L 78.903165 267.026824 
L 78.913169 242.123294 
L 78.963508 274.142118 
L 79.004162 220.777412 
L 79.024619 249.238588 
L 79.055466 270.584471 
L 79.045162 235.008 
L 79.128214 245.680941 
L 79.202059 270.584471 
L 79.266247 217.219765 
L 79.320379 235.008 
L 79.38612 249.238588 
L 79.353141 220.777412 
L 79.419316 242.123294 
L 79.520233 174.528 
L 79.497633 267.026824 
L 79.53157 206.546824 
L 79.588639 270.584471 
L 79.64635 220.777412 
L 79.681289 245.680941 
L 79.669616 199.431529 
L 79.763741 235.008 
L 79.775627 213.662118 
L 79.787541 263.469176 
L 79.859596 259.911529 
L 79.944926 267.026824 
L 79.981921 185.200941 
L 79.99431 263.469176 
L 80.045158 156.739765 
L 80.086346 185.200941 
L 80.128061 67.798588 
L 80.170091 156.739765 
L 80.212418 167.412706 
L 80.255041 103.375059 
L 80.297962 160.297412 
L 80.339809 195.873882 
L 80.381806 153.182118 
L 80.424076 188.758588 
L 80.596031 103.375059 
L 80.639751 149.624471 
L 80.683768 128.278588 
L 80.728083 96.259765 
L 80.81762 170.970353 
L 80.908379 192.316235 
L 80.954222 53.568 
L 81.000377 199.431529 
L 81.093634 163.855059 
L 81.188168 185.200941 
L 81.235919 82.029176 
L 81.283996 138.951529 
L 81.332402 121.163294 
L 81.381139 178.085647 
L 81.43021 138.951529 
L 81.479616 153.182118 
L 81.52936 149.624471 
L 81.579446 53.568 
L 81.629875 135.393882 
L 81.680649 117.605647 
L 81.882066 199.431529 
L 82.035185 135.393882 
L 82.138968 149.624471 
L 82.191379 64.240941 
L 82.244138 153.182118 
L 82.297249 124.720941 
L 82.411482 288.372706 
L 83.62784 288.372706 
L 83.742307 284.815059 
L 83.780815 284.815059 
L 83.887629 288.372706 
L 83.995802 284.815059 
L 84.005704 288.372706 
L 84.105349 284.815059 
L 84.175785 284.815059 
L 84.185893 288.372706 
L 84.277393 284.815059 
L 84.369843 284.815059 
L 84.380174 288.372706 
L 84.47369 284.815059 
L 84.803287 284.815059 
L 84.879348 288.372706 
L 84.912134 284.815059 
L 84.956023 284.815059 
L 84.967027 288.372706 
L 85.000115 281.257412 
L 85.055515 281.257412 
L 85.088908 281.257412 
L 85.17852 284.815059 
L 85.18978 281.257412 
L 85.201053 281.257412 
L 85.280325 284.815059 
L 85.303092 281.257412 
L 85.33734 281.257412 
L 85.440798 284.815059 
L 85.510369 281.257412 
L 85.545335 284.815059 
L 85.557017 284.815059 
L 85.674585 281.257412 
L 85.686416 281.257412 
L 85.769622 284.815059 
L 85.793519 281.257412 
L 85.817471 281.257412 
L 85.938069 284.815059 
L 86.047809 277.699765 
L 86.060074 281.257412 
L 86.109274 281.257412 
L 86.171097 284.815059 
L 86.146325 277.699765 
L 86.208364 281.257412 
L 86.258257 277.699765 
L 86.28329 284.815059 
L 86.308383 281.257412 
L 86.320951 281.257412 
L 86.384012 284.815059 
L 86.396668 277.699765 
L 86.40934 277.699765 
L 86.422026 277.699765 
L 86.536873 284.815059 
L 86.665911 277.699765 
L 86.770241 284.815059 
L 86.717953 274.142118 
L 86.783352 281.257412 
L 86.796478 281.257412 
L 86.888795 277.699765 
L 86.822776 284.815059 
L 86.902046 281.257412 
L 86.915312 281.257412 
L 87.008619 284.815059 
L 87.035421 274.142118 
L 87.143267 284.815059 
L 87.23848 274.142118 
L 87.252146 277.699765 
L 87.293245 274.142118 
L 87.375887 281.257412 
L 87.431313 270.584471 
L 87.473058 281.257412 
L 87.487006 281.257412 
L 87.542968 270.584471 
L 87.585117 277.699765 
L 87.641554 284.815059 
L 87.627419 270.584471 
L 87.698264 281.257412 
L 87.75525 274.142118 
L 87.812514 277.699765 
L 87.826874 277.699765 
L 87.870057 281.257412 
L 87.927882 270.584471 
L 88.059026 281.257412 
L 88.162033 267.026824 
L 88.176821 281.257412 
L 88.280849 277.699765 
L 88.295783 277.699765 
L 88.385782 270.584471 
L 88.340699 281.257412 
L 88.400847 274.142118 
L 88.461294 281.257412 
L 88.506828 277.699765 
L 88.522044 270.584471 
L 88.537279 281.257412 
L 88.613741 277.699765 
L 88.644459 277.699765 
L 88.675256 281.257412 
L 88.706129 270.584471 
L 88.752586 277.699765 
L 88.814802 267.026824 
L 88.783654 281.257412 
L 88.861671 274.142118 
L 88.955945 281.257412 
L 89.050941 263.469176 
L 89.066845 270.584471 
L 89.146668 281.257412 
L 89.194808 277.699765 
L 89.210896 277.699765 
L 89.30786 270.584471 
L 89.243134 281.257412 
L 89.324094 274.142118 
L 89.421939 281.257412 
L 89.438321 277.699765 
L 89.487594 277.699765 
L 89.504061 281.257412 
L 89.520549 277.699765 
L 89.537059 263.469176 
L 89.619934 281.257412 
L 89.636574 274.142118 
L 89.736874 277.699765 
L 89.753668 277.699765 
L 89.804183 263.469176 
L 89.871848 267.026824 
L 89.905815 281.257412 
L 89.922832 259.911529 
L 89.991129 274.142118 
L 90.00826 259.911529 
L 90.025414 277.699765 
L 90.09426 267.026824 
L 90.163476 281.257412 
L 90.180838 263.469176 
L 90.215632 274.142118 
L 90.233064 274.142118 
L 90.25052 256.353882 
L 90.32058 259.911529 
L 90.373375 281.257412 
L 90.444103 277.699765 
L 90.515218 277.699765 
L 90.604661 281.257412 
L 90.622624 274.142118 
L 90.712807 277.699765 
L 90.840117 263.469176 
L 90.950229 281.257412 
L 91.005633 256.353882 
L 91.079868 259.911529 
L 91.117143 277.699765 
L 91.192008 270.584471 
L 91.210791 270.584471 
L 91.2673 277.699765 
L 91.286189 270.584471 
L 91.32405 277.699765 
L 91.419175 249.238588 
L 91.457416 277.699765 
L 91.534229 263.469176 
L 91.553502 277.699765 
L 91.630871 267.026824 
L 91.650284 267.026824 
L 91.728217 259.911529 
L 91.786965 277.699765 
L 91.885455 267.026824 
L 91.845972 281.257412 
L 91.90524 270.584471 
L 91.984671 277.699765 
L 92.024563 274.142118 
L 92.044554 274.142118 
L 92.064574 252.796235 
L 92.144953 263.469176 
L 92.225812 277.699765 
L 92.286776 270.584471 
L 92.36849 263.469176 
L 92.348015 274.142118 
L 92.388996 270.584471 
L 92.409532 277.699765 
L 92.47133 270.584471 
L 92.491991 256.353882 
L 92.533409 274.142118 
L 92.574953 270.584471 
L 92.616625 267.026824 
L 92.658424 270.584471 
L 92.679372 277.699765 
L 92.700352 249.238588 
L 92.763486 274.142118 
L 92.848122 263.469176 
L 92.869363 277.699765 
L 92.933285 270.584471 
L 92.954659 252.796235 
L 92.976066 281.257412 
L 93.040489 267.026824 
L 93.105215 277.699765 
L 93.083606 263.469176 
L 93.126859 270.584471 
L 93.148537 259.911529 
L 93.170249 277.699765 
L 93.235591 270.584471 
L 93.257441 270.584471 
L 93.279326 263.469176 
L 93.3232 274.142118 
L 93.34519 267.026824 
L 93.477869 274.142118 
L 93.500106 263.469176 
L 93.589417 267.026824 
L 93.65678 274.142118 
L 93.634289 259.911529 
L 93.701872 270.584471 
L 93.724473 270.584471 
L 93.792499 256.353882 
L 93.815248 270.584471 
L 93.838035 274.142118 
L 93.952533 249.238588 
L 93.998598 270.584471 
L 94.067983 267.026824 
L 94.161037 274.142118 
L 94.137715 263.469176 
L 94.184398 270.584471 
L 94.231237 274.142118 
L 94.325391 277.699765 
L 94.349029 249.238588 
L 94.372707 274.142118 
L 94.467822 270.584471 
L 94.515623 267.026824 
L 94.539585 274.142118 
L 94.563588 270.584471 
L 94.587632 270.584471 
L 94.611718 263.469176 
L 94.660013 274.142118 
L 94.708476 267.026824 
L 94.73277 263.469176 
L 94.757106 274.142118 
L 94.781484 267.026824 
L 94.92865 274.142118 
L 94.953328 259.911529 
L 95.027622 267.026824 
L 95.052475 274.142118 
L 95.077371 263.469176 
L 95.127295 270.584471 
L 95.152324 256.353882 
L 95.227677 270.584471 
L 95.252885 270.584471 
L 95.278137 249.238588 
L 95.354167 270.584471 
L 95.481797 249.238588 
L 95.507462 274.142118 
L 95.610589 267.026824 
L 95.662435 267.026824 
L 95.688429 274.142118 
L 95.714471 252.796235 
L 95.766698 267.026824 
L 95.792884 270.584471 
L 95.819118 256.353882 
L 95.898113 270.584471 
L 95.95102 270.584471 
L 95.977548 274.142118 
L 96.004125 267.026824 
L 96.030752 256.353882 
L 96.084155 267.026824 
L 96.191566 277.699765 
L 96.326975 252.796235 
L 96.465634 281.257412 
L 96.589785 263.469176 
L 96.62105 270.584471 
L 96.747018 281.257412 
L 96.874444 263.469176 
L 96.890475 281.257412 
L 96.98715 274.142118 
L 97.003343 281.257412 
L 97.052064 263.469176 
L 97.084662 277.699765 
L 97.166567 267.026824 
L 97.183019 277.699765 
L 97.199495 277.699765 
L 97.28223 256.353882 
L 97.298849 277.699765 
L 97.315492 277.699765 
L 97.332159 267.026824 
L 97.34885 281.257412 
L 97.432667 270.584471 
L 97.517093 263.469176 
L 97.534051 277.699765 
L 97.670608 259.911529 
L 97.791402 277.699765 
L 97.808759 274.142118 
L 97.860981 267.026824 
L 97.878439 277.699765 
L 97.913432 270.584471 
L 97.930967 270.584471 
L 98.036713 284.815059 
L 98.054427 281.257412 
L 98.072168 270.584471 
L 98.16126 274.142118 
L 98.244288 281.257412 
L 98.262314 277.699765 
L 98.280358 267.026824 
L 98.370979 277.699765 
L 98.407414 277.699765 
L 98.480606 263.469176 
L 98.443956 281.257412 
L 98.498971 274.142118 
L 98.517363 281.257412 
L 98.535783 267.026824 
L 98.591173 267.026824 
L 98.609679 267.026824 
L 98.683909 277.699765 
L 98.66532 252.796235 
L 98.721149 270.584471 
L 98.814614 277.699765 
L 98.870943 263.469176 
L 98.9086 274.142118 
L 98.984165 281.257412 
L 98.965243 263.469176 
L 99.003109 270.584471 
L 99.022073 263.469176 
L 99.060064 274.142118 
L 99.079091 274.142118 
L 99.136296 270.584471 
L 99.19369 277.699765 
L 99.212862 277.699765 
L 99.289763 281.257412 
L 99.30904 270.584471 
L 99.425141 281.257412 
L 99.50296 267.026824 
L 99.541994 274.142118 
L 99.600702 274.142118 
L 99.639945 277.699765 
L 99.679272 270.584471 
L 99.698967 267.026824 
L 99.718682 277.699765 
L 99.758176 274.142118 
L 99.777954 281.257412 
L 99.877157 277.699765 
L 99.916984 270.584471 
L 99.936929 284.815059 
L 99.976882 274.142118 
L 100.077128 284.815059 
L 100.117372 281.257412 
L 100.198111 259.911529 
L 100.238606 274.142118 
L 100.279184 263.469176 
L 100.299504 277.699765 
L 100.340207 274.142118 
L 100.401418 270.584471 
L 100.44233 277.699765 
L 100.462817 263.469176 
L 100.544973 274.142118 
L 100.606809 274.142118 
L 100.668833 281.257412 
L 100.731044 277.699765 
L 100.856028 274.142118 
L 100.918802 270.584471 
L 100.981762 277.699765 
L 101.044911 277.699765 
L 101.192985 270.584471 
L 101.235479 277.699765 
L 101.299377 270.584471 
L 101.342079 270.584471 
L 101.427734 277.699765 
L 101.449199 270.584471 
L 101.470686 270.584471 
L 101.600042 277.699765 
L 101.730148 274.142118 
L 101.795482 270.584471 
L 101.839142 277.699765 
L 101.948657 270.584471 
L 101.970622 274.142118 
L 102.036644 267.026824 
L 102.058692 277.699765 
L 102.080762 270.584471 
L 102.169249 274.142118 
L 102.191423 274.142118 
L 102.258069 277.699765 
L 102.280327 270.584471 
L 102.324904 277.699765 
L 102.391926 274.142118 
L 102.459136 270.584471 
L 102.481581 274.142118 
L 102.526534 274.142118 
L 102.549042 277.699765 
L 102.59412 274.142118 
L 102.61669 270.584471 
L 102.661894 277.699765 
L 102.684527 274.142118 
L 102.752552 274.142118 
L 102.775269 277.699765 
L 102.798006 270.584471 
L 102.843545 274.142118 
L 102.934872 274.142118 
L 102.957757 277.699765 
L 102.980662 270.584471 
L 103.026535 274.142118 
L 103.095503 270.584471 
L 103.118534 277.699765 
L 103.210869 274.142118 
L 103.234005 274.142118 
L 103.280341 270.584471 
L 103.32676 274.142118 
L 103.350001 274.142118 
L 103.396547 270.584471 
L 103.443178 274.142118 
L 103.466524 274.142118 
L 103.583574 270.584471 
L 103.630542 277.699765 
L 103.677594 274.142118 
L 103.724731 270.584471 
L 103.748331 281.257412 
L 103.819259 274.142118 
L 103.890378 270.584471 
L 103.914126 274.142118 
L 103.937896 274.142118 
L 103.961687 277.699765 
L 103.985499 270.584471 
L 104.033188 274.142118 
L 104.152782 270.584471 
L 104.24884 277.699765 
L 104.296998 267.026824 
L 104.345241 274.142118 
L 104.369395 277.699765 
L 104.39357 270.584471 
L 104.441985 274.142118 
L 104.490485 277.699765 
L 104.563397 267.026824 
L 104.685347 277.699765 
L 104.709802 267.026824 
L 104.783296 270.584471 
L 104.807837 277.699765 
L 104.88159 267.026824 
L 105.029683 274.142118 
L 105.104024 267.026824 
L 105.128847 274.142118 
L 105.153693 274.142118 
L 105.228361 267.026824 
L 105.253294 274.142118 
L 105.303226 277.699765 
L 105.378288 270.584471 
L 105.47868 277.699765 
L 105.579424 270.584471 
L 105.705853 281.257412 
L 105.858302 267.026824 
L 105.985957 274.142118 
L 106.088485 263.469176 
L 106.114173 267.026824 
L 106.139884 277.699765 
L 106.217152 270.584471 
L 106.320493 274.142118 
L 106.398237 259.911529 
L 106.3723 277.699765 
L 106.424198 274.142118 
L 106.528268 267.026824 
L 106.632705 274.142118 
L 106.658872 259.911529 
L 106.73751 274.142118 
L 106.763769 274.142118 
L 106.92181 267.026824 
L 107.054152 277.699765 
L 107.080691 277.699765 
L 107.107253 270.584471 
L 107.18708 277.699765 
L 107.213736 277.699765 
L 107.293847 270.584471 
L 107.320598 277.699765 
L 107.400993 270.584471 
L 107.427839 277.699765 
L 107.481602 277.699765 
L 107.61643 267.026824 
L 107.697615 281.257412 
L 107.670529 263.469176 
L 107.751859 274.142118 
L 107.833407 267.026824 
L 107.887895 270.584471 
L 107.969808 277.699765 
L 107.997162 267.026824 
L 108.07937 277.699765 
L 108.1618 263.469176 
L 108.216876 274.142118 
L 108.299678 274.142118 
L 108.327328 277.699765 
L 108.382704 274.142118 
L 108.438179 259.911529 
L 108.493756 270.584471 
L 108.521582 267.026824 
L 108.549433 274.142118 
L 108.577309 274.142118 
L 108.717071 267.026824 
L 108.801235 270.584471 
L 108.885629 263.469176 
L 108.913811 277.699765 
L 108.998515 270.584471 
L 109.026801 277.699765 
L 109.083451 270.584471 
L 109.111815 270.584471 
L 109.197065 274.142118 
L 109.254029 277.699765 
L 109.311098 270.584471 
L 109.368273 277.699765 
L 109.425554 274.142118 
L 109.454235 274.142118 
L 109.540435 267.026824 
L 109.68464 281.257412 
L 109.82952 267.026824 
L 109.858577 274.142118 
L 109.887662 270.584471 
L 109.916774 259.911529 
L 109.975081 274.142118 
L 110.004275 267.026824 
L 110.062747 274.142118 
L 110.12133 270.584471 
L 110.150663 270.584471 
L 110.238829 263.469176 
L 110.209412 274.142118 
L 110.268273 267.026824 
L 110.327246 267.026824 
L 110.356775 263.469176 
L 110.386332 270.584471 
L 110.415917 274.142118 
L 110.44553 263.469176 
L 110.475172 277.699765 
L 110.534541 270.584471 
L 110.564268 270.584471 
L 110.623809 274.142118 
L 110.65361 263.469176 
L 110.683461 274.142118 
L 110.77316 270.584471 
L 110.803118 270.584471 
L 110.86312 274.142118 
L 111.013637 263.469176 
L 111.13458 274.142118 
L 111.286428 259.911529 
L 111.408446 274.142118 
L 111.439026 263.469176 
L 111.500277 267.026824 
L 111.530949 274.142118 
L 111.56165 259.911529 
L 111.592383 267.026824 
L 111.623146 259.911529 
L 111.684764 263.469176 
L 111.777422 270.584471 
L 111.83935 274.142118 
L 111.870361 259.911529 
L 111.96358 274.142118 
L 111.994716 267.026824 
L 112.025884 267.026824 
L 112.150871 270.584471 
L 112.182197 259.911529 
L 112.276368 263.469176 
L 112.33931 274.142118 
L 112.433965 270.584471 
L 112.465582 263.469176 
L 112.497231 274.142118 
L 112.528913 270.584471 
L 112.560628 270.584471 
L 112.65597 267.026824 
L 112.719696 274.142118 
L 112.751609 263.469176 
L 112.815536 270.584471 
L 112.847549 270.584471 
L 112.911677 259.911529 
L 112.943791 263.469176 
L 113.133081 274.142118 
L 113.165434 274.142118 
L 113.295169 249.238588 
L 113.425462 270.584471 
L 113.458122 252.796235 
L 113.523549 267.026824 
L 113.589117 274.142118 
L 113.621954 267.026824 
L 113.654827 267.026824 
L 113.72068 263.469176 
L 113.75366 270.584471 
L 113.786676 252.796235 
L 113.852816 270.584471 
L 113.952298 252.796235 
L 113.985532 274.142118 
L 114.085452 270.584471 
L 114.185704 259.911529 
L 114.219196 267.026824 
L 114.252725 267.026824 
L 114.387214 270.584471 
L 114.420931 256.353882 
L 114.522308 259.911529 
L 114.556176 270.584471 
L 114.624028 263.469176 
L 114.658012 263.469176 
L 114.726094 274.142118 
L 114.760194 270.584471 
L 114.862726 263.469176 
L 114.931276 270.584471 
L 114.96561 256.353882 
L 115.034397 263.469176 
L 115.06885 267.026824 
L 115.103342 256.353882 
L 115.172448 267.026824 
L 115.241714 270.584471 
L 115.380731 256.353882 
L 115.520401 274.142118 
L 115.555421 259.911529 
L 115.625586 270.584471 
L 115.766416 267.026824 
L 115.801729 274.142118 
L 115.872481 270.584471 
L 115.943402 267.026824 
L 116.085758 274.142118 
L 116.121455 274.142118 
L 116.192978 263.469176 
L 116.264676 267.026824 
L 116.30059 274.142118 
L 116.336549 256.353882 
L 116.381043 281.257412 
L 116.424476 281.257412 
L 116.533622 277.699765 
L 116.665617 281.257412 
L 116.821002 281.257412 
L 116.843323 284.815059 
L 116.910468 281.257412 
L 116.955386 281.257412 
L 117.068221 274.142118 
L 117.159047 281.257412 
L 117.181832 277.699765 
L 117.296224 281.257412 
L 117.434532 281.257412 
L 117.457695 277.699765 
L 117.527372 281.257412 
L 117.550661 281.257412 
L 117.573982 284.815059 
L 117.620721 281.257412 
L 117.644138 277.699765 
L 117.714582 281.257412 
L 117.738128 281.257412 
L 117.856343 284.815059 
L 117.999273 277.699765 
L 118.023209 284.815059 
L 118.119283 281.257412 
L 118.143383 281.257412 
L 118.167517 274.142118 
L 118.240117 277.699765 
L 118.361782 281.257412 
L 118.410682 281.257412 
L 118.459716 284.815059 
L 118.508885 281.257412 
L 118.558189 281.257412 
L 118.582892 284.815059 
L 118.632399 277.699765 
L 118.657203 281.257412 
L 118.682042 281.257412 
L 118.706914 277.699765 
L 118.731821 284.815059 
L 118.781737 281.257412 
L 118.806746 284.815059 
L 118.881981 281.257412 
L 118.907127 281.257412 
L 118.932309 277.699765 
L 119.008061 281.257412 
L 119.033381 284.815059 
L 119.058736 277.699765 
L 119.084125 274.142118 
L 119.135009 281.257412 
L 119.186032 281.257412 
L 119.26283 277.699765 
L 119.2885 281.257412 
L 119.365721 281.257412 
L 119.391532 274.142118 
L 119.469177 281.257412 
L 119.521119 281.257412 
L 119.547143 284.815059 
L 119.599299 281.257412 
L 119.625431 274.142118 
L 119.704041 277.699765 
L 119.756628 277.699765 
L 119.888729 281.257412 
L 119.995064 281.257412 
L 120.0752 277.699765 
L 120.101985 281.257412 
L 120.290514 281.257412 
L 120.371869 277.699765 
L 120.399061 281.257412 
L 120.453559 281.257412 
L 120.590459 274.142118 
L 120.755984 281.257412 
L 120.867093 277.699765 
L 120.922877 281.257412 
L 120.950827 277.699765 
L 120.978815 274.142118 
L 121.006841 281.257412 
L 121.034906 281.257412 
L 121.119332 277.699765 
L 121.232442 281.257412 
L 121.28923 281.257412 
L 121.403276 277.699765 
L 121.431885 281.257412 
L 121.489222 277.699765 
L 121.546716 277.699765 
L 121.604368 281.257412 
L 121.633254 277.699765 
L 121.662179 277.699765 
L 121.749193 281.257412 
L 121.836566 277.699765 
L 121.865771 281.257412 
L 121.895015 274.142118 
L 121.9243 277.699765 
L 121.98299 277.699765 
L 122.041842 274.142118 
L 122.100855 281.257412 
L 122.189679 277.699765 
L 122.219368 281.257412 
L 122.27887 277.699765 
L 122.428339 277.699765 
L 122.458356 267.026824 
L 122.488415 281.257412 
L 122.518514 281.257412 
L 122.669634 270.584471 
L 122.730373 277.699765 
L 122.791278 274.142118 
L 122.852352 274.142118 
L 122.913593 281.257412 
L 122.944276 274.142118 
L 123.00577 274.142118 
L 123.098328 281.257412 
L 123.160245 267.026824 
L 123.222332 270.584471 
L 123.25344 270.584471 
L 123.315783 277.699765 
L 123.347019 274.142118 
L 123.378298 270.584471 
L 123.40962 274.142118 
L 123.440985 281.257412 
L 123.503844 270.584471 
L 123.535338 277.699765 
L 123.693459 270.584471 
L 123.757012 277.699765 
L 123.82074 274.142118 
L 123.85267 267.026824 
L 123.884643 277.699765 
L 123.91666 274.142118 
L 123.948722 274.142118 
L 124.077408 270.584471 
L 124.206803 277.699765 
L 124.239263 277.699765 
L 124.304317 274.142118 
L 124.336911 277.699765 
L 124.402233 277.699765 
L 124.500554 270.584471 
L 124.632279 274.142118 
L 124.665324 270.584471 
L 124.73155 274.142118 
L 124.797957 274.142118 
L 124.83123 267.026824 
L 124.897912 274.142118 
L 124.998279 270.584471 
L 125.132748 274.142118 
L 125.267958 263.469176 
L 125.438019 277.699765 
L 125.540618 263.469176 
L 125.609253 270.584471 
L 125.643642 270.584471 
L 125.712561 274.142118 
L 125.747091 259.911529 
L 125.816262 270.584471 
L 125.850877 277.699765 
L 125.885509 274.142118 
L 125.920161 267.026824 
L 125.989521 270.584471 
L 126.093699 270.584471 
L 126.163243 267.026824 
L 126.198043 274.142118 
L 126.232861 263.469176 
L 126.302551 270.584471 
L 126.372314 270.584471 
L 126.477094 267.026824 
L 126.582035 274.142118 
L 126.687137 263.469176 
L 126.722206 274.142118 
L 126.792398 270.584471 
L 126.82752 270.584471 
L 126.86266 274.142118 
L 126.897817 270.584471 
L 126.932992 263.469176 
L 127.003394 270.584471 
L 127.073865 274.142118 
L 127.109127 270.584471 
L 127.144406 270.584471 
L 127.215016 267.026824 
L 127.250346 270.584471 
L 127.285694 274.142118 
L 127.321059 263.469176 
L 127.356441 277.699765 
L 127.39184 270.584471 
L 127.46269 267.026824 
L 127.49814 274.142118 
L 127.533607 263.469176 
L 127.604592 274.142118 
L 127.675644 274.142118 
L 127.711196 277.699765 
L 127.817951 267.026824 
L 127.996211 277.699765 
L 128.103367 263.469176 
L 128.174887 267.026824 
L 128.282291 274.142118 
L 128.318125 267.026824 
L 128.353976 274.142118 
L 128.389843 277.699765 
L 128.425727 267.026824 
L 128.497544 270.584471 
L 128.533477 274.142118 
L 128.569426 263.469176 
L 128.641374 274.142118 
L 128.677372 274.142118 
L 128.713387 263.469176 
L 128.785465 274.142118 
L 128.929817 263.469176 
L 129.00209 277.699765 
L 129.038252 270.584471 
L 129.110623 274.142118 
L 129.146832 263.469176 
L 129.255559 277.699765 
L 129.437095 263.469176 
L 129.509822 274.142118 
L 129.582615 270.584471 
L 129.728393 274.142118 
L 129.764879 270.584471 
L 129.80138 277.699765 
L 129.837898 277.699765 
L 129.98413 270.584471 
L 130.093974 277.699765 
L 130.277373 270.584471 
L 130.424386 277.699765 
L 130.461179 267.026824 
L 130.534816 274.142118 
L 130.571659 274.142118 
L 130.719194 270.584471 
L 130.756118 274.142118 
L 130.79306 270.584471 
L 130.830017 267.026824 
L 130.866991 270.584471 
L 130.978012 274.142118 
L 131.015052 270.584471 
L 131.052109 274.142118 
L 131.089182 277.699765 
L 131.200501 267.026824 
L 131.237641 274.142118 
L 131.31197 270.584471 
L 131.34916 267.026824 
L 131.386366 270.584471 
L 131.423589 270.584471 
L 131.460829 274.142118 
L 131.57265 267.026824 
L 131.684622 274.142118 
L 131.72198 267.026824 
L 131.796747 270.584471 
L 131.834156 270.584471 
L 131.871582 277.699765 
L 131.909025 270.584471 
L 132.021457 270.584471 
L 132.134043 274.142118 
L 132.171606 270.584471 
L 132.209187 274.142118 
L 132.284401 277.699765 
L 132.435036 259.911529 
L 132.51046 277.699765 
L 132.548197 274.142118 
L 132.585953 267.026824 
L 132.623726 277.699765 
L 132.661517 270.584471 
L 132.699326 274.142118 
L 132.850739 263.469176 
L 132.964487 270.584471 
L 133.078398 270.584471 
L 133.15443 274.142118 
L 133.306712 263.469176 
L 133.421117 274.142118 
L 133.49748 270.584471 
L 133.612165 281.257412 
L 133.688715 270.584471 
L 133.727018 274.142118 
L 133.765341 274.142118 
L 133.803682 277.699765 
L 133.880422 270.584471 
L 133.957239 281.257412 
L 133.995676 277.699765 
L 134.072609 274.142118 
L 134.188153 277.699765 
L 134.26528 270.584471 
L 134.303873 274.142118 
L 134.342486 277.699765 
L 134.458443 270.584471 
L 134.535847 281.257412 
L 134.57458 274.142118 
L 134.613332 274.142118 
L 134.652105 277.699765 
L 134.690897 274.142118 
L 134.807398 274.142118 
L 134.846272 277.699765 
L 134.885167 274.142118 
L 134.924082 274.142118 
L 134.963018 267.026824 
L 135.001975 274.142118 
L 135.11897 277.699765 
L 135.236154 270.584471 
L 135.314382 281.257412 
L 135.353528 277.699765 
L 135.392696 277.699765 
L 135.510326 274.142118 
L 135.54958 274.142118 
L 135.66747 277.699765 
L 135.785558 274.142118 
L 135.824964 277.699765 
L 135.903844 270.584471 
L 135.943317 274.142118 
L 136.022323 277.699765 
L 136.101428 274.142118 
L 136.141014 277.699765 
L 136.180622 270.584471 
L 136.220254 277.699765 
L 136.259909 277.699765 
L 136.339286 270.584471 
L 136.418757 277.699765 
L 136.49832 267.026824 
L 136.538137 270.584471 
L 136.577977 277.699765 
L 136.657728 274.142118 
L 136.69764 277.699765 
L 136.737575 267.026824 
L 136.777533 270.584471 
L 136.857523 277.699765 
L 136.897554 270.584471 
L 136.937609 281.257412 
L 136.977689 274.142118 
L 137.017793 277.699765 
L 137.057921 274.142118 
L 137.098074 270.584471 
L 137.218681 277.699765 
L 137.258933 277.699765 
L 137.299209 274.142118 
L 137.42019 281.257412 
L 137.500971 270.584471 
L 137.541399 274.142118 
L 137.581853 277.699765 
L 137.622333 274.142118 
L 137.662838 274.142118 
L 137.703369 281.257412 
L 137.743926 274.142118 
L 137.784509 270.584471 
L 137.825118 281.257412 
L 137.906416 274.142118 
L 137.947104 281.257412 
L 137.987818 277.699765 
L 138.069327 270.584471 
L 138.110121 281.257412 
L 138.191791 274.142118 
L 138.232666 270.584471 
L 138.273569 281.257412 
L 138.355455 274.142118 
L 138.519558 281.257412 
L 138.560653 274.142118 
L 138.642927 277.699765 
L 138.684106 277.699765 
L 138.766549 281.257412 
L 138.849105 277.699765 
L 138.890426 281.257412 
L 139.014562 274.142118 
L 139.055999 277.699765 
L 139.180484 267.026824 
L 139.263621 277.699765 
L 139.305234 274.142118 
L 139.388549 270.584471 
L 139.527407 281.257412 
L 139.577903 256.353882 
L 139.628818 281.257412 
L 139.808434 281.257412 
L 139.83424 284.815059 
L 139.911876 281.257412 
L 139.937827 281.257412 
L 139.963815 284.815059 
L 140.041993 281.257412 
L 140.120498 281.257412 
L 140.225679 284.815059 
L 140.252065 281.257412 
L 140.331442 284.815059 
L 140.357974 284.815059 
L 140.411149 281.257412 
L 140.464469 284.815059 
L 141.254326 284.815059 
L 141.282127 288.372706 
L 141.337844 284.815059 
L 141.393714 284.815059 
L 141.421707 288.372706 
L 141.477807 284.815059 
L 141.505915 284.815059 
L 141.534062 288.372706 
L 141.590471 284.815059 
L 141.618733 284.815059 
L 141.647034 288.372706 
L 141.703753 284.815059 
L 143.325865 284.815059 
L 143.356499 288.372706 
L 143.417892 284.815059 
L 143.727373 284.815059 
L 143.758553 288.372706 
L 143.82104 284.815059 
L 143.883697 284.815059 
L 143.915089 288.372706 
L 143.978002 284.815059 
L 145.272686 284.815059 
L 145.305958 281.257412 
L 145.372635 284.815059 
L 145.439492 284.815059 
L 145.472988 281.257412 
L 145.540115 284.815059 
L 145.878473 284.815059 
L 146.015093 281.257412 
L 146.11804 284.815059 
L 146.186902 281.257412 
L 146.221403 284.815059 
L 146.290542 284.815059 
L 146.429377 281.257412 
L 146.464202 281.257412 
L 146.499073 284.815059 
L 146.568957 281.257412 
L 146.779731 281.257412 
L 146.815024 284.815059 
L 146.885753 281.257412 
L 146.921188 281.257412 
L 146.956671 284.815059 
L 147.027778 281.257412 
L 147.314109 281.257412 
L 147.350116 284.815059 
L 147.422272 281.257412 
L 147.895997 281.257412 
L 147.969606 284.815059 
L 148.006484 281.257412 
L 148.043411 281.257412 
L 148.080387 284.815059 
L 148.154486 281.257412 
L 148.228782 281.257412 
L 148.340595 284.815059 
L 148.452854 281.257412 
L 148.565558 281.257412 
L 148.603226 284.815059 
L 148.640944 281.257412 
L 148.792313 281.257412 
L 148.830281 284.815059 
L 148.868299 281.257412 
L 148.982654 281.257412 
L 149.020873 284.815059 
L 149.059143 281.257412 
L 149.289823 281.257412 
L 149.328448 284.815059 
L 149.367123 281.257412 
L 149.717504 281.257412 
L 149.756692 284.815059 
L 149.795932 281.257412 
L 150.511136 281.257412 
L 150.551367 284.815059 
L 150.591651 281.257412 
L 151.079204 281.257412 
L 151.202295 284.815059 
L 151.32587 281.257412 
L 151.36717 281.257412 
L 151.491394 284.815059 
L 151.616107 281.257412 
L 151.657787 281.257412 
L 151.699522 284.815059 
L 151.741311 281.257412 
L 151.783155 277.699765 
L 151.825053 284.815059 
L 151.909015 281.257412 
L 152.247067 281.257412 
L 152.332135 277.699765 
L 152.374752 281.257412 
L 152.417424 277.699765 
L 152.460153 277.699765 
L 152.588675 281.257412 
L 152.674636 281.257412 
L 152.804 277.699765 
L 152.847235 281.257412 
L 152.890526 277.699765 
L 153.020738 277.699765 
L 153.064256 281.257412 
L 153.107831 277.699765 
L 153.151463 277.699765 
L 153.238897 281.257412 
L 153.370479 277.699765 
L 153.502578 281.257412 
L 153.546726 281.257412 
L 153.590932 277.699765 
L 153.635196 281.257412 
L 153.679518 281.257412 
L 153.723898 277.699765 
L 153.768335 281.257412 
L 153.812832 281.257412 
L 153.94667 277.699765 
L 153.991399 281.257412 
L 154.036187 277.699765 
L 154.12594 277.699765 
L 154.26101 281.257412 
L 154.396611 277.699765 
L 154.487309 277.699765 
L 154.532747 281.257412 
L 154.578244 277.699765 
L 154.990417 277.699765 
L 155.036515 281.257412 
L 155.082674 277.699765 
L 155.221514 277.699765 
L 155.267916 274.142118 
L 155.407217 281.257412 
L 155.546512 277.699765 
L 155.685799 277.699765 
L 155.778653 284.815059 
L 155.825079 281.257412 
L 155.917928 281.257412 
L 155.964351 277.699765 
L 156.010774 281.257412 
L 156.150039 281.257412 
L 156.19646 277.699765 
L 156.242879 281.257412 
L 156.614226 281.257412 
L 156.70706 277.699765 
L 156.846311 281.257412 
L 156.985564 281.257412 
L 157.031981 277.699765 
L 157.0784 281.257412 
L 157.403341 281.257412 
L 157.449763 284.815059 
L 157.496187 281.257412 
L 157.589037 281.257412 
L 157.635464 277.699765 
L 157.681891 281.257412 
L 157.960483 281.257412 
L 158.00692 277.699765 
L 158.053359 281.257412 
L 158.471393 281.257412 
L 158.517852 277.699765 
L 158.564314 281.257412 
L 158.843138 281.257412 
L 158.889619 284.815059 
L 158.936103 277.699765 
L 158.98259 281.257412 
L 159.075575 281.257412 
L 159.215077 277.699765 
L 159.354612 281.257412 
L 159.447656 281.257412 
L 159.494184 284.815059 
L 159.540716 281.257412 
L 159.587252 281.257412 
L 159.726888 277.699765 
L 159.866566 284.815059 
L 160.052875 277.699765 
L 160.192662 281.257412 
L 160.239268 281.257412 
L 160.379124 277.699765 
L 160.519034 281.257412 
L 160.565684 281.257412 
L 160.61234 277.699765 
L 160.659002 281.257412 
L 160.705671 281.257412 
L 160.84572 277.699765 
L 160.985832 281.257412 
L 161.032551 281.257412 
L 161.172753 277.699765 
L 161.266261 277.699765 
L 161.406583 281.257412 
L 161.453374 281.257412 
L 161.593797 277.699765 
L 161.640623 281.257412 
L 161.687457 277.699765 
L 161.828016 277.699765 
L 161.8393 291.930353 
L 161.933091 281.257412 
L 161.979984 277.699765 
L 162.026887 281.257412 
L 162.0738 281.257412 
L 162.167657 277.699765 
L 162.2146 281.257412 
L 162.261554 274.142118 
L 162.308519 277.699765 
L 162.355494 281.257412 
L 162.40248 277.699765 
L 162.87295 277.699765 
L 163.014325 281.257412 
L 163.155814 274.142118 
L 163.297419 277.699765 
L 163.391888 277.699765 
L 163.533694 281.257412 
L 163.58099 277.699765 
L 163.6283 281.257412 
L 163.63887 284.815059 
L 163.927189 146.066824 
L 164.039966 281.257412 
L 164.096731 284.815059 
L 164.125177 281.257412 
L 164.21077 281.257412 
L 164.296745 284.815059 
L 164.383103 281.257412 
L 164.498843 284.815059 
L 165.510576 284.815059 
L 165.602288 288.372706 
L 165.725197 284.815059 
L 165.817851 288.372706 
L 165.848826 284.815059 
L 165.910911 288.372706 
L 165.942022 288.372706 
L 165.973178 284.815059 
L 166.035626 288.372706 
L 167.961766 288.372706 
L 168.098382 284.815059 
L 168.235784 288.372706 
L 168.478138 288.372706 
L 168.617719 284.815059 
L 168.758098 288.372706 
L 168.793318 288.372706 
L 168.828589 284.815059 
L 168.89928 288.372706 
L 168.970173 288.372706 
L 169.112565 284.815059 
L 169.184064 288.372706 
L 169.21989 284.815059 
L 169.399784 284.815059 
L 169.544619 288.372706 
L 169.580956 288.372706 
L 169.726818 284.815059 
L 169.800058 284.815059 
L 169.947159 288.372706 
L 170.09509 284.815059 
L 170.243855 284.815059 
L 170.281177 288.372706 
L 170.318551 284.815059 
L 171.581614 284.815059 
L 171.620799 288.372706 
L 171.660038 284.815059 
L 175.865996 284.815059 
L 176.001074 281.257412 
L 176.046219 284.815059 
L 176.091423 281.257412 
L 176.18201 281.257412 
L 176.318339 284.815059 
L 176.455206 281.257412 
L 176.592612 284.815059 
L 176.73056 284.815059 
L 176.822827 281.257412 
L 176.915336 284.815059 
L 177.054553 281.257412 
L 177.101081 284.815059 
L 177.147669 281.257412 
L 177.241027 281.257412 
L 177.287798 284.815059 
L 177.334629 281.257412 
L 177.475491 281.257412 
L 177.616904 284.815059 
L 177.664165 284.815059 
L 177.806315 281.257412 
L 177.853822 281.257412 
L 177.901391 284.815059 
L 177.949021 281.257412 
L 178.236105 281.257412 
L 178.28417 277.699765 
L 178.332297 281.257412 
L 178.525429 281.257412 
L 178.670936 284.815059 
L 178.719564 284.815059 
L 178.865825 281.257412 
L 180.006165 281.257412 
L 180.056516 284.815059 
L 180.106931 281.257412 
L 180.157411 281.257412 
L 180.309241 284.815059 
L 180.461658 281.257412 
L 180.973979 281.257412 
L 181.128963 277.699765 
L 181.232618 277.699765 
L 181.388601 281.257412 
L 181.545186 281.257412 
L 181.702375 277.699765 
L 181.860172 281.257412 
L 181.912906 281.257412 
L 181.965708 277.699765 
L 182.018578 281.257412 
L 182.124522 281.257412 
L 182.283949 277.699765 
L 182.337228 281.257412 
L 182.390576 277.699765 
L 182.443992 277.699765 
L 182.604655 281.257412 
L 182.658347 281.257412 
L 182.765938 277.699765 
L 182.873807 281.257412 
L 182.981954 277.699765 
L 183.144699 281.257412 
L 183.199087 277.699765 
L 183.253545 281.257412 
L 183.417342 281.257412 
L 183.581774 277.699765 
L 183.746845 281.257412 
L 183.857248 281.257412 
L 183.912557 277.699765 
L 183.967938 281.257412 
L 184.078914 281.257412 
L 184.13451 277.699765 
L 184.190178 281.257412 
L 184.30173 274.142118 
L 184.469603 281.257412 
L 184.581881 274.142118 
L 184.694452 277.699765 
L 184.807232 274.142118 
L 184.86359 277.699765 
L 184.919919 274.142118 
L 185.03249 277.699765 
L 185.088732 274.142118 
L 185.201132 277.699765 
L 185.25729 277.699765 
L 185.31342 281.257412 
L 185.425599 277.699765 
L 185.705581 277.699765 
L 185.817394 274.142118 
L 185.873263 274.142118 
L 185.929107 277.699765 
L 185.984927 274.142118 
L 186.096494 277.699765 
L 186.375006 277.699765 
L 186.43064 274.142118 
L 186.541843 277.699765 
L 186.763995 277.699765 
L 186.930393 274.142118 
L 187.096616 277.699765 
L 187.207337 277.699765 
L 187.317984 274.142118 
L 187.428561 277.699765 
L 187.594298 274.142118 
L 187.704707 274.142118 
L 187.815052 277.699765 
L 187.870202 263.469176 
L 187.900677 277.699765 
L 188.019429 281.257412 
L 188.380553 281.257412 
L 188.471941 284.815059 
L 188.59448 281.257412 
L 188.625238 281.257412 
L 188.748765 284.815059 
L 189.635958 284.815059 
L 189.765967 288.372706 
L 189.7986 288.372706 
L 189.831284 284.815059 
L 189.896808 288.372706 
L 193.717954 288.372706 
L 193.756777 284.815059 
L 193.795661 288.372706 
L 193.912667 288.372706 
L 193.951789 284.815059 
L 193.99097 288.372706 
L 194.069512 288.372706 
L 194.187774 284.815059 
L 194.227315 284.815059 
L 194.346298 288.372706 
L 194.465823 284.815059 
L 194.545809 288.372706 
L 194.666242 284.815059 
L 200.185486 284.815059 
L 200.233702 281.257412 
L 200.281983 284.815059 
L 200.573064 284.815059 
L 200.621809 281.257412 
L 200.670621 284.815059 
L 200.719499 284.815059 
L 200.817455 281.257412 
L 200.964888 284.815059 
L 201.063509 284.815059 
L 201.11292 281.257412 
L 201.162398 284.815059 
L 201.211942 284.815059 
L 201.360976 281.257412 
L 201.510612 281.257412 
L 201.660852 284.815059 
L 201.811696 281.257412 
L 201.862112 281.257412 
L 201.912595 284.815059 
L 201.963145 281.257412 
L 202.1152 281.257412 
L 202.16602 277.699765 
L 202.216908 281.257412 
L 202.369976 284.815059 
L 202.523653 281.257412 
L 202.67794 281.257412 
L 202.729505 284.815059 
L 202.781138 281.257412 
L 202.98835 281.257412 
L 203.040323 284.815059 
L 203.092364 281.257412 
L 203.196651 281.257412 
L 203.248898 284.815059 
L 203.301212 281.257412 
L 204.254611 281.257412 
L 204.308232 284.815059 
L 204.361923 281.257412 
L 204.469512 281.257412 
L 204.631417 277.699765 
L 204.739701 281.257412 
L 204.793947 274.142118 
L 204.848263 277.699765 
L 205.120891 277.699765 
L 205.175626 281.257412 
L 205.230431 277.699765 
L 205.893578 277.699765 
L 205.949298 281.257412 
L 206.00509 277.699765 
L 206.060953 281.257412 
L 206.17289 277.699765 
L 206.228966 277.699765 
L 206.34133 281.257412 
L 206.397619 277.699765 
L 206.45398 281.257412 
L 206.510411 277.699765 
L 206.566914 281.257412 
L 206.623489 274.142118 
L 206.680135 277.699765 
L 206.793642 274.142118 
L 206.907437 277.699765 
L 207.021519 274.142118 
L 207.135888 277.699765 
L 207.193182 274.142118 
L 207.307985 277.699765 
L 207.53846 277.699765 
L 207.59626 281.257412 
L 207.654133 277.699765 
L 207.770098 281.257412 
L 207.828189 277.699765 
L 207.886354 281.257412 
L 208.061287 274.142118 
L 208.119745 274.142118 
L 208.295559 281.257412 
L 208.413136 274.142118 
L 208.531009 277.699765 
L 208.590042 277.699765 
L 208.649094 274.142118 
L 208.767258 281.257412 
L 208.885502 277.699765 
L 208.944654 277.699765 
L 209.003827 274.142118 
L 209.122236 277.699765 
L 209.418633 277.699765 
L 209.477979 281.257412 
L 209.596738 277.699765 
L 209.715588 277.699765 
L 209.775048 281.257412 
L 209.89404 274.142118 
L 210.013127 281.257412 
L 210.072707 281.257412 
L 210.132312 274.142118 
L 210.191942 277.699765 
L 210.251596 277.699765 
L 210.370982 274.142118 
L 210.49047 277.699765 
L 210.550253 277.699765 
L 210.669898 274.142118 
L 210.729761 274.142118 
L 210.849567 277.699765 
L 210.969483 277.699765 
L 211.029482 270.584471 
L 211.08951 274.142118 
L 211.329904 274.142118 
L 211.450275 277.699765 
L 211.570764 274.142118 
L 211.691372 277.699765 
L 211.751722 277.699765 
L 211.872513 274.142118 
L 211.932955 277.699765 
L 212.053933 274.142118 
L 212.061861 284.815059 
L 212.148585 277.699765 
L 212.179766 277.699765 
L 212.305002 281.257412 
L 212.879552 281.257412 
L 212.977077 284.815059 
L 213.009698 281.257412 
L 213.075112 284.815059 
L 213.878111 284.815059 
L 213.912304 288.372706 
L 213.98087 284.815059 
L 214.049676 284.815059 
L 214.08417 288.372706 
L 214.153337 284.815059 
L 214.292401 284.815059 
L 214.327319 281.257412 
L 214.397337 284.815059 
L 214.751133 284.815059 
L 214.894393 288.372706 
L 214.930365 284.815059 
L 215.002497 288.372706 
L 216.771846 288.372706 
L 216.811076 291.930353 
L 216.850373 288.372706 
L 217.167188 288.372706 
L 217.207096 291.930353 
L 217.247072 288.372706 
L 217.407661 288.372706 
L 217.528823 291.930353 
L 217.569348 288.372706 
L 217.609942 291.930353 
L 217.732139 291.930353 
L 217.85496 288.372706 
L 219.553107 288.372706 
L 219.597023 284.815059 
L 219.641012 288.372706 
L 219.817692 288.372706 
L 219.862043 284.815059 
L 219.906466 288.372706 
L 219.995531 288.372706 
L 220.040172 284.815059 
L 220.084887 288.372706 
L 220.129674 288.372706 
L 220.219467 284.815059 
L 220.264473 288.372706 
L 220.309552 284.815059 
L 220.354704 284.815059 
L 220.399929 288.372706 
L 220.445227 284.815059 
L 220.627153 284.815059 
L 220.764368 288.372706 
L 220.856213 284.815059 
L 220.948352 288.372706 
L 221.040786 284.815059 
L 221.17999 288.372706 
L 221.273163 284.815059 
L 221.413476 288.372706 
L 221.460396 288.372706 
L 221.601599 284.815059 
L 226.585733 284.815059 
L 226.749767 281.257412 
L 226.859502 284.815059 
L 226.914484 281.257412 
L 226.969541 284.815059 
L 227.079884 284.815059 
L 227.245969 281.257412 
L 227.357072 284.815059 
L 227.468478 281.257412 
L 227.580189 284.815059 
L 227.636158 281.257412 
L 227.692204 284.815059 
L 227.748325 281.257412 
L 227.860796 284.815059 
L 227.973571 284.815059 
L 228.08665 281.257412 
L 228.200034 284.815059 
L 228.313721 281.257412 
L 228.484823 281.257412 
L 228.542009 284.815059 
L 228.65661 281.257412 
L 228.829081 281.257412 
L 228.886724 284.815059 
L 228.944443 281.257412 
L 229.002238 284.815059 
L 229.118057 281.257412 
L 229.17608 284.815059 
L 229.292356 281.257412 
L 229.350608 281.257412 
L 229.408936 284.815059 
L 229.525821 281.257412 
L 229.584378 281.257412 
L 229.643012 284.815059 
L 229.760507 281.257412 
L 229.819369 284.815059 
L 229.937321 281.257412 
L 230.114823 281.257412 
L 230.174143 284.815059 
L 230.293012 281.257412 
L 230.352561 281.257412 
L 230.412186 284.815059 
L 230.471888 277.699765 
L 230.531666 281.257412 
L 230.891941 281.257412 
L 230.952255 277.699765 
L 231.133655 284.815059 
L 231.315746 277.699765 
L 231.376596 277.699765 
L 231.498526 281.257412 
L 231.559607 281.257412 
L 231.620764 277.699765 
L 231.681998 284.815059 
L 231.804696 277.699765 
L 232.050943 277.699765 
L 232.112566 281.257412 
L 232.174188 277.699765 
L 232.297435 281.257412 
L 232.359059 281.257412 
L 232.420685 277.699765 
L 232.54394 281.257412 
L 232.605571 277.699765 
L 232.667204 281.257412 
L 232.728839 277.699765 
L 232.852118 281.257412 
L 232.913763 277.699765 
L 232.975411 281.257412 
L 233.098719 277.699765 
L 233.222045 277.699765 
L 233.283715 281.257412 
L 233.407071 277.699765 
L 233.53045 277.699765 
L 233.592148 281.257412 
L 233.653854 274.142118 
L 233.715565 277.699765 
L 234.518551 277.699765 
L 234.642228 281.257412 
L 234.765949 277.699765 
L 234.827826 277.699765 
L 234.889715 281.257412 
L 234.951615 277.699765 
L 235.075453 281.257412 
L 235.199341 277.699765 
L 235.261304 277.699765 
L 235.323281 274.142118 
L 235.447276 277.699765 
L 235.509294 277.699765 
L 235.571327 274.142118 
L 235.757513 281.257412 
L 235.881713 277.699765 
L 236.068132 277.699765 
L 236.130304 274.142118 
L 236.202979 284.815059 
L 236.342087 242.123294 
L 236.472203 281.257412 
L 236.769101 281.257412 
L 236.90264 284.815059 
L 236.936177 284.815059 
L 236.969776 281.257412 
L 237.037158 284.815059 
L 237.377786 284.815059 
L 237.515789 288.372706 
L 237.654803 284.815059 
L 237.865241 284.815059 
L 237.971328 288.372706 
L 238.113688 284.815059 
L 238.257095 288.372706 
L 242.556867 288.372706 
L 242.600826 284.815059 
L 242.644868 288.372706 
L 242.910835 288.372706 
L 243.04493 284.815059 
L 243.179771 288.372706 
L 243.224885 284.815059 
L 243.270082 288.372706 
L 243.315363 288.372706 
L 243.360728 284.815059 
L 243.406177 288.372706 
L 243.45171 288.372706 
L 243.588816 284.815059 
L 243.911702 284.815059 
L 243.958171 281.257412 
L 244.004725 284.815059 
L 244.809388 284.815059 
L 244.857504 288.372706 
L 244.905708 284.815059 
L 244.954 284.815059 
L 245.050846 288.372706 
L 245.196773 284.815059 
L 245.245591 284.815059 
L 245.34349 288.372706 
L 245.491001 284.815059 
L 245.639305 288.372706 
L 245.788404 288.372706 
L 245.9383 284.815059 
L 246.597079 284.815059 
L 246.648378 288.372706 
L 246.699765 284.815059 
L 250.808555 284.815059 
L 250.866728 281.257412 
L 250.983338 284.815059 
L 251.100302 281.257412 
L 251.158916 281.257412 
L 251.27641 284.815059 
L 251.335289 281.257412 
L 251.453313 284.815059 
L 251.809496 284.815059 
L 251.869167 281.257412 
L 251.928927 284.815059 
L 252.048709 281.257412 
L 252.229039 281.257412 
L 252.289324 284.815059 
L 252.349697 281.257412 
L 252.410157 284.815059 
L 252.531338 281.257412 
L 252.59206 281.257412 
L 252.652869 284.815059 
L 252.774749 281.257412 
L 253.762285 281.257412 
L 253.887283 277.699765 
L 254.012625 281.257412 
L 254.138312 281.257412 
L 254.201283 277.699765 
L 254.264341 281.257412 
L 254.327485 277.699765 
L 254.454029 281.257412 
L 254.51743 281.257412 
L 254.644487 277.699765 
L 254.771887 281.257412 
L 255.156132 281.257412 
L 255.220471 277.699765 
L 255.349403 281.257412 
L 255.413997 277.699765 
L 255.478675 281.257412 
L 255.543438 277.699765 
L 255.673219 281.257412 
L 255.738236 281.257412 
L 255.803338 277.699765 
L 255.933795 281.257412 
L 256.657147 281.257412 
L 256.723169 277.699765 
L 256.789168 281.257412 
L 256.855143 274.142118 
L 256.921095 277.699765 
L 256.987025 281.257412 
L 257.052933 277.699765 
L 257.184684 281.257412 
L 257.382156 281.257412 
L 257.513706 277.699765 
L 257.842259 277.699765 
L 257.97356 281.257412 
L 258.104798 281.257412 
L 258.235975 277.699765 
L 258.49816 277.699765 
L 258.563673 281.257412 
L 258.629174 277.699765 
L 258.694663 281.257412 
L 258.76014 277.699765 
L 258.89106 281.257412 
L 259.021938 277.699765 
L 259.087362 281.257412 
L 259.152776 277.699765 
L 259.218181 281.257412 
L 259.283578 277.699765 
L 259.348966 281.257412 
L 259.414346 277.699765 
L 259.479718 281.257412 
L 259.610441 277.699765 
L 259.675792 277.699765 
L 259.741137 281.257412 
L 259.871809 277.699765 
L 259.937137 281.257412 
L 260.00246 277.699765 
L 260.067778 281.257412 
L 260.198403 277.699765 
L 260.263709 277.699765 
L 260.315104 270.584471 
L 260.350526 277.699765 
L 260.48488 281.257412 
L 260.894513 281.257412 
L 261.033177 284.815059 
L 261.742639 284.815059 
L 261.77883 288.372706 
L 261.851419 284.815059 
L 261.887818 284.815059 
L 262.034113 288.372706 
L 262.070863 288.372706 
L 262.144573 284.815059 
L 262.181534 288.372706 
L 262.218567 288.372706 
L 262.25567 284.815059 
L 262.292845 288.372706 
L 266.806701 288.372706 
L 266.9449 284.815059 
L 267.083904 288.372706 
L 267.177022 288.372706 
L 267.317377 284.815059 
L 267.411401 288.372706 
L 267.553121 284.815059 
L 267.600544 284.815059 
L 267.743364 288.372706 
L 267.887015 284.815059 
L 268.128292 284.815059 
L 268.176827 288.372706 
L 268.225456 284.815059 
L 268.816386 284.815059 
L 268.866251 288.372706 
L 268.916211 284.815059 
L 269.319375 284.815059 
L 269.370208 288.372706 
L 269.421139 284.815059 
L 272.096115 284.815059 
L 272.152257 281.257412 
L 272.208505 284.815059 
L 272.26486 281.257412 
L 272.37789 284.815059 
L 272.434566 284.815059 
L 272.491349 281.257412 
L 272.605238 284.815059 
L 272.949497 284.815059 
L 273.007254 277.699765 
L 273.065118 281.257412 
L 273.12309 281.257412 
L 273.181173 284.815059 
L 273.297665 281.257412 
L 273.414595 284.815059 
L 273.473224 284.815059 
L 273.531962 281.257412 
L 273.649765 284.815059 
L 273.768004 281.257412 
L 273.886678 284.815059 
L 273.946179 284.815059 
L 274.005788 281.257412 
L 274.125333 284.815059 
L 274.79059 284.815059 
L 274.851717 281.257412 
L 274.912953 284.815059 
L 274.974296 281.257412 
L 275.097306 284.815059 
L 275.468917 284.815059 
L 275.531228 281.257412 
L 275.656171 284.815059 
L 275.907339 284.815059 
L 276.033563 281.257412 
L 276.160213 284.815059 
L 276.287287 281.257412 
L 276.478692 281.257412 
L 276.542705 284.815059 
L 276.671047 281.257412 
L 276.735376 284.815059 
L 276.86435 281.257412 
L 276.928994 284.815059 
L 276.993743 281.257412 
L 277.058597 284.815059 
L 277.188618 281.257412 
L 277.646971 281.257412 
L 277.712865 284.815059 
L 277.844962 281.257412 
L 277.911165 284.815059 
L 278.043879 281.257412 
L 278.713584 281.257412 
L 278.848744 277.699765 
L 278.984307 281.257412 
L 279.188405 281.257412 
L 279.256639 277.699765 
L 279.393405 281.257412 
L 279.53057 281.257412 
L 279.668133 277.699765 
L 279.875219 277.699765 
L 280.01377 281.257412 
L 280.152714 277.699765 
L 280.222333 277.699765 
L 280.361865 281.257412 
L 280.501787 281.257412 
L 280.571894 277.699765 
L 280.642098 281.257412 
L 280.782796 277.699765 
L 280.85329 281.257412 
L 280.994568 277.699765 
L 281.065351 277.699765 
L 281.207206 281.257412 
L 281.349443 281.257412 
L 281.492062 277.699765 
L 281.77844 277.699765 
L 281.850272 281.257412 
L 281.922197 277.699765 
L 281.994115 281.257412 
L 282.065975 277.699765 
L 282.137778 281.257412 
L 282.281213 277.699765 
L 282.352847 281.257412 
L 282.495954 277.699765 
L 282.638847 277.699765 
L 282.710217 281.257412 
L 282.852803 277.699765 
L 283.350333 277.699765 
L 283.421225 281.257412 
L 283.562876 277.699765 
L 284.36895 277.699765 
L 284.411228 274.142118 
L 284.550031 281.257412 
L 285.08122 281.257412 
L 285.225596 284.815059 
L 285.965049 284.815059 
L 286.040635 288.372706 
L 286.116524 284.815059 
L 286.230929 288.372706 
L 291.910507 288.372706 
L 291.960298 284.815059 
L 292.010191 288.372706 
L 292.210774 288.372706 
L 292.261173 284.815059 
L 292.311675 288.372706 
L 292.362279 288.372706 
L 292.514706 284.815059 
L 292.668059 284.815059 
L 292.719383 288.372706 
L 292.770811 284.815059 
L 292.873979 284.815059 
L 292.92572 288.372706 
L 292.977564 284.815059 
L 293.343418 284.815059 
L 293.501798 288.372706 
L 293.661136 284.815059 
L 296.937008 284.815059 
L 297.056822 281.257412 
L 297.116905 284.815059 
L 297.177107 281.257412 
L 297.297865 284.815059 
L 297.358422 284.815059 
L 297.479893 281.257412 
L 297.540806 281.257412 
L 297.601839 284.815059 
L 297.662992 281.257412 
L 297.785655 284.815059 
L 297.908799 281.257412 
L 298.218766 281.257412 
L 298.281122 284.815059 
L 298.406198 281.257412 
L 299.102852 281.257412 
L 299.166922 277.699765 
L 299.295433 281.257412 
L 299.945452 281.257412 
L 300.076958 277.699765 
L 300.208968 281.257412 
L 301.215234 281.257412 
L 301.351579 277.699765 
L 301.557064 277.699765 
L 301.694702 281.257412 
L 301.763716 277.699765 
L 301.902128 281.257412 
L 303.748198 281.257412 
L 303.8209 277.699765 
L 303.966676 281.257412 
L 304.112944 281.257412 
L 304.186262 277.699765 
L 304.333263 281.257412 
L 304.480751 277.699765 
L 304.628723 281.257412 
L 304.70289 277.699765 
L 304.851584 281.257412 
L 305.000756 281.257412 
L 305.150404 277.699765 
L 305.225406 277.699765 
L 305.375763 281.257412 
L 305.52659 277.699765 
L 305.677885 281.257412 
L 305.829645 277.699765 
L 305.905698 277.699765 
L 305.981867 281.257412 
L 306.134549 277.699765 
L 306.211062 277.699765 
L 306.287689 281.257412 
L 306.364429 277.699765 
L 306.518251 281.257412 
L 306.672523 277.699765 
L 307.686122 277.699765 
L 307.764857 281.257412 
L 307.922649 277.699765 
L 308.159088 277.699765 
L 308.237693 274.142118 
L 308.408561 281.257412 
L 308.875222 163.855059 
L 309.021575 281.257412 
L 309.206938 281.257412 
L 309.319089 284.815059 
L 310.084978 284.815059 
L 310.124119 288.372706 
L 310.163341 284.815059 
L 310.281502 284.815059 
L 310.400407 288.372706 
L 313.771159 288.372706 
L 313.912257 291.930353 
L 313.95949 288.372706 
L 314.006824 291.930353 
L 314.631407 291.930353 
L 314.77801 288.372706 
L 316.665076 288.372706 
L 316.718162 284.815059 
L 316.77136 288.372706 
L 317.092925 288.372706 
L 317.201024 284.815059 
L 317.255244 288.372706 
L 317.30958 284.815059 
L 317.36403 284.815059 
L 317.418595 288.372706 
L 317.473276 284.815059 
L 317.859286 284.815059 
L 317.970625 288.372706 
L 318.082433 284.815059 
L 321.59983 284.815059 
L 321.663223 281.257412 
L 321.726745 284.815059 
L 321.790397 281.257412 
L 321.854179 284.815059 
L 321.982135 281.257412 
L 322.110613 281.257412 
L 322.175048 284.815059 
L 322.304313 281.257412 
L 324.445095 281.257412 
L 324.514228 277.699765 
L 324.652906 281.257412 
L 325.496574 281.257412 
L 325.567783 277.699765 
L 325.710619 281.257412 
L 325.782247 277.699765 
L 325.925924 281.257412 
L 325.997973 281.257412 
L 326.142493 277.699765 
L 326.433224 277.699765 
L 326.50626 281.257412 
L 326.652758 277.699765 
L 326.799823 277.699765 
L 326.873569 281.257412 
L 327.021488 277.699765 
L 327.984537 277.699765 
L 328.058602 281.257412 
L 328.206731 277.699765 
L 328.502996 277.699765 
L 328.577066 281.257412 
L 328.725212 277.699765 
L 328.799289 277.699765 
L 328.87337 274.142118 
L 329.021541 277.699765 
L 330.207842 277.699765 
L 330.288046 274.142118 
L 330.529515 281.257412 
L 330.691239 277.699765 
L 330.934926 277.699765 
L 331.016447 281.257412 
L 331.179922 277.699765 
L 331.261876 277.699765 
L 331.343972 274.142118 
L 331.508594 277.699765 
L 331.673781 277.699765 
L 331.839532 281.257412 
L 332.00584 277.699765 
L 332.340114 277.699765 
L 332.421072 263.469176 
L 332.568955 281.257412 
L 333.131544 281.257412 
L 333.246279 284.815059 
L 334.070488 284.815059 
L 334.110685 288.372706 
L 334.15097 284.815059 
L 334.272351 284.815059 
L 334.394526 288.372706 
L 338.761532 288.372706 
L 338.862753 291.930353 
L 339.01543 288.372706 
L 339.169131 291.930353 
L 339.900129 291.930353 
L 340.059756 288.372706 
L 341.095835 288.372706 
L 341.151586 284.815059 
L 341.263459 288.372706 
L 341.488701 288.372706 
L 341.545324 284.815059 
L 341.602072 288.372706 
L 341.715947 284.815059 
L 341.773074 288.372706 
L 341.830328 284.815059 
L 341.887708 288.372706 
L 341.945215 284.815059 
L 342.060612 288.372706 
L 342.176519 284.815059 
L 342.234666 284.815059 
L 342.29294 288.372706 
L 342.409876 284.815059 
L 342.645302 284.815059 
L 342.704483 288.372706 
L 342.823237 284.815059 
L 345.834778 284.815059 
L 345.900909 281.257412 
L 346.033596 284.815059 
L 346.100153 281.257412 
L 346.233696 284.815059 
L 346.36781 281.257412 
L 346.570058 281.257412 
L 346.637761 284.815059 
L 346.773601 281.257412 
L 348.449237 281.257412 
L 348.520901 277.699765 
L 348.664677 281.257412 
L 348.881463 281.257412 
L 349.026737 277.699765 
L 349.0996 281.257412 
L 349.245777 277.699765 
L 349.392558 281.257412 
L 349.613864 281.257412 
L 349.687936 277.699765 
L 349.76216 281.257412 
L 349.911064 277.699765 
L 350.135563 277.699765 
L 350.210702 281.257412 
L 350.361438 277.699765 
L 350.437036 277.699765 
L 350.512787 281.257412 
L 350.66475 277.699765 
L 352.346858 277.699765 
L 352.423119 281.257412 
L 352.575586 277.699765 
L 353.336966 277.699765 
L 353.413028 281.257412 
L 353.565114 277.699765 
L 355.387572 277.699765 
L 355.46345 274.142118 
L 355.615203 277.699765 
L 356.070464 277.699765 
L 356.146344 281.257412 
L 356.298113 277.699765 
L 356.374001 263.469176 
L 356.525207 281.257412 
L 357.179857 281.257412 
L 357.297991 284.815059 
L 357.859858 284.815059 
L 357.900668 288.372706 
L 357.941569 284.815059 
L 358.023484 284.815059 
L 358.034768 291.930353 
L 358.117334 284.815059 
L 358.241776 284.815059 
L 358.367059 288.372706 
L 359.049721 288.372706 
L 359.180487 284.815059 
L 359.312146 284.815059 
L 359.444705 288.372706 
L 361.156502 288.372706 
L 361.204814 284.815059 
L 361.253236 288.372706 
L 363.986794 288.372706 
L 364.041671 291.930353 
L 364.096676 288.372706 
L 364.26246 288.372706 
L 364.373628 291.930353 
L 364.429405 288.372706 
L 364.541351 291.930353 
L 365.28182 291.930353 
L 365.397737 288.372706 
L 366.465557 288.372706 
L 366.526197 284.815059 
L 366.647898 288.372706 
L 366.70896 284.815059 
L 366.770163 288.372706 
L 366.831508 284.815059 
L 366.892995 288.372706 
L 367.016396 284.815059 
L 370.223562 284.815059 
L 370.36221 281.257412 
L 370.431769 281.257412 
L 370.501484 284.815059 
L 370.571356 281.257412 
L 370.711572 284.815059 
L 370.852417 281.257412 
L 373.193068 281.257412 
L 373.268896 277.699765 
L 373.421047 281.257412 
L 373.650513 281.257412 
L 373.804318 277.699765 
L 373.88147 281.257412 
L 374.036273 277.699765 
L 374.191741 281.257412 
L 374.347876 281.257412 
L 374.504681 277.699765 
L 374.583335 281.257412 
L 374.662156 277.699765 
L 374.741145 281.257412 
L 374.899628 277.699765 
L 374.979121 281.257412 
L 375.138614 277.699765 
L 376.101639 277.699765 
L 376.181658 281.257412 
L 376.341548 277.699765 
L 376.740446 277.699765 
L 376.82009 281.257412 
L 376.979246 277.699765 
L 377.217664 277.699765 
L 377.297054 281.257412 
L 377.455717 277.699765 
L 377.693424 277.699765 
L 377.772586 281.257412 
L 377.930802 277.699765 
L 378.483495 277.699765 
L 378.562324 281.257412 
L 378.719893 277.699765 
L 379.113319 277.699765 
L 379.191924 281.257412 
L 379.349058 277.699765 
L 380.289951 277.699765 
L 380.30164 281.257412 
L 380.444316 245.680941 
L 380.560096 281.257412 
L 381.033155 281.257412 
L 381.153472 284.815059 
L 382.231682 284.815059 
L 382.3603 288.372706 
L 382.403371 284.815059 
L 382.446542 288.372706 
L 386.406869 288.372706 
L 386.4595 291.930353 
L 386.512258 288.372706 
L 387.873218 288.372706 
L 387.985672 281.257412 
L 388.098666 284.815059 
L 388.383558 284.815059 
L 388.498482 288.372706 
L 389.860837 288.372706 
L 389.982923 291.930353 
L 390.044188 288.372706 
L 390.167164 291.930353 
L 390.414906 291.930353 
L 390.539679 288.372706 
L 391.365563 288.372706 
L 391.430173 284.815059 
L 391.55986 288.372706 
L 391.624939 284.815059 
L 391.755568 288.372706 
L 391.821119 288.372706 
L 391.952695 284.815059 
L 394.866492 284.815059 
L 394.939476 281.257412 
L 395.085963 284.815059 
L 395.23314 281.257412 
L 395.381011 284.815059 
L 395.529578 281.257412 
L 395.904053 281.257412 
L 396.055072 284.815059 
L 396.206796 281.257412 
L 397.922886 281.257412 
L 398.002965 277.699765 
L 398.083226 281.257412 
L 398.16367 277.699765 
L 398.244296 281.257412 
L 398.406097 277.699765 
L 398.487273 277.699765 
L 398.487273 277.699765 
" style="fill:none;stroke:#1f77b4;stroke-linecap:square;stroke-width:1.5;"/>
   </g>
   <g id="patch_3">
    <path d="M 57.6 307.584 
L 57.6 41.472 
" style="fill:none;stroke:#000000;stroke-linecap:square;stroke-linejoin:miter;stroke-width:0.8;"/>
   </g>
   <g id="patch_4">
    <path d="M 414.72 307.584 
L 414.72 41.472 
" style="fill:none;stroke:#000000;stroke-linecap:square;stroke-linejoin:miter;stroke-width:0.8;"/>
   </g>
   <g id="patch_5">
    <path d="M 57.6 307.584 
L 414.72 307.584 
" style="fill:none;stroke:#000000;stroke-linecap:square;stroke-linejoin:miter;stroke-width:0.8;"/>
   </g>
   <g id="patch_6">
    <path d="M 57.6 41.472 
L 414.72 41.472 
" style="fill:none;stroke:#000000;stroke-linecap:square;stroke-linejoin:miter;stroke-width:0.8;"/>
   </g>
  </g>
 </g>
 <defs>
  <clipPath id="p9d5b352817">
   <rect height="266.112" width="357.12" x="57.6" y="41.472"/>
  </clipPath>
 </defs>
</svg>
