<?xml version="1.0" encoding="utf-8" standalone="no"?>
<!DOCTYPE svg PUBLIC "-//W3C//DTD SVG 1.1//EN"
  "http://www.w3.org/Graphics/SVG/1.1/DTD/svg11.dtd">
<!-- Created with matplotlib (https://matplotlib.org/) -->
<svg height="345.6pt" version="1.1" viewBox="0 0 460.8 345.6" width="460.8pt" xmlns="http://www.w3.org/2000/svg" xmlns:xlink="http://www.w3.org/1999/xlink">
 <metadata>
  <rdf:RDF xmlns:cc="http://creativecommons.org/ns#" xmlns:dc="http://purl.org/dc/elements/1.1/" xmlns:rdf="http://www.w3.org/1999/02/22-rdf-syntax-ns#">
   <cc:Work>
    <dc:type rdf:resource="http://purl.org/dc/dcmitype/StillImage"/>
    <dc:date>2022-10-18T12:47:52.183707</dc:date>
    <dc:format>image/svg+xml</dc:format>
    <dc:creator>
     <cc:Agent>
      <dc:title>Matplotlib v3.3.4, https://matplotlib.org/</dc:title>
     </cc:Agent>
    </dc:creator>
   </cc:Work>
  </rdf:RDF>
 </metadata>
 <defs>
  <style type="text/css">*{stroke-linecap:butt;stroke-linejoin:round;}</style>
 </defs>
 <g id="figure_1">
  <g id="patch_1">
   <path d="M 0 345.6 
L 460.8 345.6 
L 460.8 0 
L 0 0 
z
" style="fill:#ffffff;"/>
  </g>
  <g id="axes_1">
   <g id="patch_2">
    <path d="M 57.6 307.584 
L 414.72 307.584 
L 414.72 41.472 
L 57.6 41.472 
z
" style="fill:#ffffff;"/>
   </g>
   <g id="matplotlib.axis_1">
    <g id="xtick_1">
     <g id="line2d_1">
      <defs>
       <path d="M 0 0 
L 0 3.5 
" id="m3aa32d81b0" style="stroke:#000000;stroke-width:0.8;"/>
      </defs>
      <g>
       <use style="stroke:#000000;stroke-width:0.8;" x="73.56195" xlink:href="#m3aa32d81b0" y="307.584"/>
      </g>
     </g>
     <g id="text_1">
      <!-- 0.0 -->
      <g transform="translate(65.610387 322.182437)scale(0.1 -0.1)">
       <defs>
        <path d="M 31.78125 66.40625 
Q 24.171875 66.40625 20.328125 58.90625 
Q 16.5 51.421875 16.5 36.375 
Q 16.5 21.390625 20.328125 13.890625 
Q 24.171875 6.390625 31.78125 6.390625 
Q 39.453125 6.390625 43.28125 13.890625 
Q 47.125 21.390625 47.125 36.375 
Q 47.125 51.421875 43.28125 58.90625 
Q 39.453125 66.40625 31.78125 66.40625 
z
M 31.78125 74.21875 
Q 44.046875 74.21875 50.515625 64.515625 
Q 56.984375 54.828125 56.984375 36.375 
Q 56.984375 17.96875 50.515625 8.265625 
Q 44.046875 -1.421875 31.78125 -1.421875 
Q 19.53125 -1.421875 13.0625 8.265625 
Q 6.59375 17.96875 6.59375 36.375 
Q 6.59375 54.828125 13.0625 64.515625 
Q 19.53125 74.21875 31.78125 74.21875 
z
" id="DejaVuSans-48"/>
        <path d="M 10.6875 12.40625 
L 21 12.40625 
L 21 0 
L 10.6875 0 
z
" id="DejaVuSans-46"/>
       </defs>
       <use xlink:href="#DejaVuSans-48"/>
       <use x="63.623047" xlink:href="#DejaVuSans-46"/>
       <use x="95.410156" xlink:href="#DejaVuSans-48"/>
      </g>
     </g>
    </g>
    <g id="xtick_2">
     <g id="line2d_2">
      <g>
       <use style="stroke:#000000;stroke-width:0.8;" x="127.71745" xlink:href="#m3aa32d81b0" y="307.584"/>
      </g>
     </g>
     <g id="text_2">
      <!-- 0.2 -->
      <g transform="translate(119.765887 322.182437)scale(0.1 -0.1)">
       <defs>
        <path d="M 19.1875 8.296875 
L 53.609375 8.296875 
L 53.609375 0 
L 7.328125 0 
L 7.328125 8.296875 
Q 12.9375 14.109375 22.625 23.890625 
Q 32.328125 33.6875 34.8125 36.53125 
Q 39.546875 41.84375 41.421875 45.53125 
Q 43.3125 49.21875 43.3125 52.78125 
Q 43.3125 58.59375 39.234375 62.25 
Q 35.15625 65.921875 28.609375 65.921875 
Q 23.96875 65.921875 18.8125 64.3125 
Q 13.671875 62.703125 7.8125 59.421875 
L 7.8125 69.390625 
Q 13.765625 71.78125 18.9375 73 
Q 24.125 74.21875 28.421875 74.21875 
Q 39.75 74.21875 46.484375 68.546875 
Q 53.21875 62.890625 53.21875 53.421875 
Q 53.21875 48.921875 51.53125 44.890625 
Q 49.859375 40.875 45.40625 35.40625 
Q 44.1875 33.984375 37.640625 27.21875 
Q 31.109375 20.453125 19.1875 8.296875 
z
" id="DejaVuSans-50"/>
       </defs>
       <use xlink:href="#DejaVuSans-48"/>
       <use x="63.623047" xlink:href="#DejaVuSans-46"/>
       <use x="95.410156" xlink:href="#DejaVuSans-50"/>
      </g>
     </g>
    </g>
    <g id="xtick_3">
     <g id="line2d_3">
      <g>
       <use style="stroke:#000000;stroke-width:0.8;" x="181.87295" xlink:href="#m3aa32d81b0" y="307.584"/>
      </g>
     </g>
     <g id="text_3">
      <!-- 0.4 -->
      <g transform="translate(173.921387 322.182437)scale(0.1 -0.1)">
       <defs>
        <path d="M 37.796875 64.3125 
L 12.890625 25.390625 
L 37.796875 25.390625 
z
M 35.203125 72.90625 
L 47.609375 72.90625 
L 47.609375 25.390625 
L 58.015625 25.390625 
L 58.015625 17.1875 
L 47.609375 17.1875 
L 47.609375 0 
L 37.796875 0 
L 37.796875 17.1875 
L 4.890625 17.1875 
L 4.890625 26.703125 
z
" id="DejaVuSans-52"/>
       </defs>
       <use xlink:href="#DejaVuSans-48"/>
       <use x="63.623047" xlink:href="#DejaVuSans-46"/>
       <use x="95.410156" xlink:href="#DejaVuSans-52"/>
      </g>
     </g>
    </g>
    <g id="xtick_4">
     <g id="line2d_4">
      <g>
       <use style="stroke:#000000;stroke-width:0.8;" x="236.028449" xlink:href="#m3aa32d81b0" y="307.584"/>
      </g>
     </g>
     <g id="text_4">
      <!-- 0.6 -->
      <g transform="translate(228.076887 322.182437)scale(0.1 -0.1)">
       <defs>
        <path d="M 33.015625 40.375 
Q 26.375 40.375 22.484375 35.828125 
Q 18.609375 31.296875 18.609375 23.390625 
Q 18.609375 15.53125 22.484375 10.953125 
Q 26.375 6.390625 33.015625 6.390625 
Q 39.65625 6.390625 43.53125 10.953125 
Q 47.40625 15.53125 47.40625 23.390625 
Q 47.40625 31.296875 43.53125 35.828125 
Q 39.65625 40.375 33.015625 40.375 
z
M 52.59375 71.296875 
L 52.59375 62.3125 
Q 48.875 64.0625 45.09375 64.984375 
Q 41.3125 65.921875 37.59375 65.921875 
Q 27.828125 65.921875 22.671875 59.328125 
Q 17.53125 52.734375 16.796875 39.40625 
Q 19.671875 43.65625 24.015625 45.921875 
Q 28.375 48.1875 33.59375 48.1875 
Q 44.578125 48.1875 50.953125 41.515625 
Q 57.328125 34.859375 57.328125 23.390625 
Q 57.328125 12.15625 50.6875 5.359375 
Q 44.046875 -1.421875 33.015625 -1.421875 
Q 20.359375 -1.421875 13.671875 8.265625 
Q 6.984375 17.96875 6.984375 36.375 
Q 6.984375 53.65625 15.1875 63.9375 
Q 23.390625 74.21875 37.203125 74.21875 
Q 40.921875 74.21875 44.703125 73.484375 
Q 48.484375 72.75 52.59375 71.296875 
z
" id="DejaVuSans-54"/>
       </defs>
       <use xlink:href="#DejaVuSans-48"/>
       <use x="63.623047" xlink:href="#DejaVuSans-46"/>
       <use x="95.410156" xlink:href="#DejaVuSans-54"/>
      </g>
     </g>
    </g>
    <g id="xtick_5">
     <g id="line2d_5">
      <g>
       <use style="stroke:#000000;stroke-width:0.8;" x="290.183949" xlink:href="#m3aa32d81b0" y="307.584"/>
      </g>
     </g>
     <g id="text_5">
      <!-- 0.8 -->
      <g transform="translate(282.232387 322.182437)scale(0.1 -0.1)">
       <defs>
        <path d="M 31.78125 34.625 
Q 24.75 34.625 20.71875 30.859375 
Q 16.703125 27.09375 16.703125 20.515625 
Q 16.703125 13.921875 20.71875 10.15625 
Q 24.75 6.390625 31.78125 6.390625 
Q 38.8125 6.390625 42.859375 10.171875 
Q 46.921875 13.96875 46.921875 20.515625 
Q 46.921875 27.09375 42.890625 30.859375 
Q 38.875 34.625 31.78125 34.625 
z
M 21.921875 38.8125 
Q 15.578125 40.375 12.03125 44.71875 
Q 8.5 49.078125 8.5 55.328125 
Q 8.5 64.0625 14.71875 69.140625 
Q 20.953125 74.21875 31.78125 74.21875 
Q 42.671875 74.21875 48.875 69.140625 
Q 55.078125 64.0625 55.078125 55.328125 
Q 55.078125 49.078125 51.53125 44.71875 
Q 48 40.375 41.703125 38.8125 
Q 48.828125 37.15625 52.796875 32.3125 
Q 56.78125 27.484375 56.78125 20.515625 
Q 56.78125 9.90625 50.3125 4.234375 
Q 43.84375 -1.421875 31.78125 -1.421875 
Q 19.734375 -1.421875 13.25 4.234375 
Q 6.78125 9.90625 6.78125 20.515625 
Q 6.78125 27.484375 10.78125 32.3125 
Q 14.796875 37.15625 21.921875 38.8125 
z
M 18.3125 54.390625 
Q 18.3125 48.734375 21.84375 45.5625 
Q 25.390625 42.390625 31.78125 42.390625 
Q 38.140625 42.390625 41.71875 45.5625 
Q 45.3125 48.734375 45.3125 54.390625 
Q 45.3125 60.0625 41.71875 63.234375 
Q 38.140625 66.40625 31.78125 66.40625 
Q 25.390625 66.40625 21.84375 63.234375 
Q 18.3125 60.0625 18.3125 54.390625 
z
" id="DejaVuSans-56"/>
       </defs>
       <use xlink:href="#DejaVuSans-48"/>
       <use x="63.623047" xlink:href="#DejaVuSans-46"/>
       <use x="95.410156" xlink:href="#DejaVuSans-56"/>
      </g>
     </g>
    </g>
    <g id="xtick_6">
     <g id="line2d_6">
      <g>
       <use style="stroke:#000000;stroke-width:0.8;" x="344.339449" xlink:href="#m3aa32d81b0" y="307.584"/>
      </g>
     </g>
     <g id="text_6">
      <!-- 1.0 -->
      <g transform="translate(336.387887 322.182437)scale(0.1 -0.1)">
       <defs>
        <path d="M 12.40625 8.296875 
L 28.515625 8.296875 
L 28.515625 63.921875 
L 10.984375 60.40625 
L 10.984375 69.390625 
L 28.421875 72.90625 
L 38.28125 72.90625 
L 38.28125 8.296875 
L 54.390625 8.296875 
L 54.390625 0 
L 12.40625 0 
z
" id="DejaVuSans-49"/>
       </defs>
       <use xlink:href="#DejaVuSans-49"/>
       <use x="63.623047" xlink:href="#DejaVuSans-46"/>
       <use x="95.410156" xlink:href="#DejaVuSans-48"/>
      </g>
     </g>
    </g>
    <g id="xtick_7">
     <g id="line2d_7">
      <g>
       <use style="stroke:#000000;stroke-width:0.8;" x="398.494949" xlink:href="#m3aa32d81b0" y="307.584"/>
      </g>
     </g>
     <g id="text_7">
      <!-- 1.2 -->
      <g transform="translate(390.543387 322.182437)scale(0.1 -0.1)">
       <use xlink:href="#DejaVuSans-49"/>
       <use x="63.623047" xlink:href="#DejaVuSans-46"/>
       <use x="95.410156" xlink:href="#DejaVuSans-50"/>
      </g>
     </g>
    </g>
    <g id="text_8">
     <!-- time [days] -->
     <g transform="translate(207.570937 335.860562)scale(0.1 -0.1)">
      <defs>
       <path d="M 18.3125 70.21875 
L 18.3125 54.6875 
L 36.8125 54.6875 
L 36.8125 47.703125 
L 18.3125 47.703125 
L 18.3125 18.015625 
Q 18.3125 11.328125 20.140625 9.421875 
Q 21.96875 7.515625 27.59375 7.515625 
L 36.8125 7.515625 
L 36.8125 0 
L 27.59375 0 
Q 17.1875 0 13.234375 3.875 
Q 9.28125 7.765625 9.28125 18.015625 
L 9.28125 47.703125 
L 2.6875 47.703125 
L 2.6875 54.6875 
L 9.28125 54.6875 
L 9.28125 70.21875 
z
" id="DejaVuSans-116"/>
       <path d="M 9.421875 54.6875 
L 18.40625 54.6875 
L 18.40625 0 
L 9.421875 0 
z
M 9.421875 75.984375 
L 18.40625 75.984375 
L 18.40625 64.59375 
L 9.421875 64.59375 
z
" id="DejaVuSans-105"/>
       <path d="M 52 44.1875 
Q 55.375 50.25 60.0625 53.125 
Q 64.75 56 71.09375 56 
Q 79.640625 56 84.28125 50.015625 
Q 88.921875 44.046875 88.921875 33.015625 
L 88.921875 0 
L 79.890625 0 
L 79.890625 32.71875 
Q 79.890625 40.578125 77.09375 44.375 
Q 74.3125 48.1875 68.609375 48.1875 
Q 61.625 48.1875 57.5625 43.546875 
Q 53.515625 38.921875 53.515625 30.90625 
L 53.515625 0 
L 44.484375 0 
L 44.484375 32.71875 
Q 44.484375 40.625 41.703125 44.40625 
Q 38.921875 48.1875 33.109375 48.1875 
Q 26.21875 48.1875 22.15625 43.53125 
Q 18.109375 38.875 18.109375 30.90625 
L 18.109375 0 
L 9.078125 0 
L 9.078125 54.6875 
L 18.109375 54.6875 
L 18.109375 46.1875 
Q 21.1875 51.21875 25.484375 53.609375 
Q 29.78125 56 35.6875 56 
Q 41.65625 56 45.828125 52.96875 
Q 50 49.953125 52 44.1875 
z
" id="DejaVuSans-109"/>
       <path d="M 56.203125 29.59375 
L 56.203125 25.203125 
L 14.890625 25.203125 
Q 15.484375 15.921875 20.484375 11.0625 
Q 25.484375 6.203125 34.421875 6.203125 
Q 39.59375 6.203125 44.453125 7.46875 
Q 49.3125 8.734375 54.109375 11.28125 
L 54.109375 2.78125 
Q 49.265625 0.734375 44.1875 -0.34375 
Q 39.109375 -1.421875 33.890625 -1.421875 
Q 20.796875 -1.421875 13.15625 6.1875 
Q 5.515625 13.8125 5.515625 26.8125 
Q 5.515625 40.234375 12.765625 48.109375 
Q 20.015625 56 32.328125 56 
Q 43.359375 56 49.78125 48.890625 
Q 56.203125 41.796875 56.203125 29.59375 
z
M 47.21875 32.234375 
Q 47.125 39.59375 43.09375 43.984375 
Q 39.0625 48.390625 32.421875 48.390625 
Q 24.90625 48.390625 20.390625 44.140625 
Q 15.875 39.890625 15.1875 32.171875 
z
" id="DejaVuSans-101"/>
       <path id="DejaVuSans-32"/>
       <path d="M 8.59375 75.984375 
L 29.296875 75.984375 
L 29.296875 69 
L 17.578125 69 
L 17.578125 -6.203125 
L 29.296875 -6.203125 
L 29.296875 -13.1875 
L 8.59375 -13.1875 
z
" id="DejaVuSans-91"/>
       <path d="M 45.40625 46.390625 
L 45.40625 75.984375 
L 54.390625 75.984375 
L 54.390625 0 
L 45.40625 0 
L 45.40625 8.203125 
Q 42.578125 3.328125 38.25 0.953125 
Q 33.9375 -1.421875 27.875 -1.421875 
Q 17.96875 -1.421875 11.734375 6.484375 
Q 5.515625 14.40625 5.515625 27.296875 
Q 5.515625 40.1875 11.734375 48.09375 
Q 17.96875 56 27.875 56 
Q 33.9375 56 38.25 53.625 
Q 42.578125 51.265625 45.40625 46.390625 
z
M 14.796875 27.296875 
Q 14.796875 17.390625 18.875 11.75 
Q 22.953125 6.109375 30.078125 6.109375 
Q 37.203125 6.109375 41.296875 11.75 
Q 45.40625 17.390625 45.40625 27.296875 
Q 45.40625 37.203125 41.296875 42.84375 
Q 37.203125 48.484375 30.078125 48.484375 
Q 22.953125 48.484375 18.875 42.84375 
Q 14.796875 37.203125 14.796875 27.296875 
z
" id="DejaVuSans-100"/>
       <path d="M 34.28125 27.484375 
Q 23.390625 27.484375 19.1875 25 
Q 14.984375 22.515625 14.984375 16.5 
Q 14.984375 11.71875 18.140625 8.90625 
Q 21.296875 6.109375 26.703125 6.109375 
Q 34.1875 6.109375 38.703125 11.40625 
Q 43.21875 16.703125 43.21875 25.484375 
L 43.21875 27.484375 
z
M 52.203125 31.203125 
L 52.203125 0 
L 43.21875 0 
L 43.21875 8.296875 
Q 40.140625 3.328125 35.546875 0.953125 
Q 30.953125 -1.421875 24.3125 -1.421875 
Q 15.921875 -1.421875 10.953125 3.296875 
Q 6 8.015625 6 15.921875 
Q 6 25.140625 12.171875 29.828125 
Q 18.359375 34.515625 30.609375 34.515625 
L 43.21875 34.515625 
L 43.21875 35.40625 
Q 43.21875 41.609375 39.140625 45 
Q 35.0625 48.390625 27.6875 48.390625 
Q 23 48.390625 18.546875 47.265625 
Q 14.109375 46.140625 10.015625 43.890625 
L 10.015625 52.203125 
Q 14.9375 54.109375 19.578125 55.046875 
Q 24.21875 56 28.609375 56 
Q 40.484375 56 46.34375 49.84375 
Q 52.203125 43.703125 52.203125 31.203125 
z
" id="DejaVuSans-97"/>
       <path d="M 32.171875 -5.078125 
Q 28.375 -14.84375 24.75 -17.8125 
Q 21.140625 -20.796875 15.09375 -20.796875 
L 7.90625 -20.796875 
L 7.90625 -13.28125 
L 13.1875 -13.28125 
Q 16.890625 -13.28125 18.9375 -11.515625 
Q 21 -9.765625 23.484375 -3.21875 
L 25.09375 0.875 
L 2.984375 54.6875 
L 12.5 54.6875 
L 29.59375 11.921875 
L 46.6875 54.6875 
L 56.203125 54.6875 
z
" id="DejaVuSans-121"/>
       <path d="M 44.28125 53.078125 
L 44.28125 44.578125 
Q 40.484375 46.53125 36.375 47.5 
Q 32.28125 48.484375 27.875 48.484375 
Q 21.1875 48.484375 17.84375 46.4375 
Q 14.5 44.390625 14.5 40.28125 
Q 14.5 37.15625 16.890625 35.375 
Q 19.28125 33.59375 26.515625 31.984375 
L 29.59375 31.296875 
Q 39.15625 29.25 43.1875 25.515625 
Q 47.21875 21.78125 47.21875 15.09375 
Q 47.21875 7.46875 41.1875 3.015625 
Q 35.15625 -1.421875 24.609375 -1.421875 
Q 20.21875 -1.421875 15.453125 -0.5625 
Q 10.6875 0.296875 5.421875 2 
L 5.421875 11.28125 
Q 10.40625 8.6875 15.234375 7.390625 
Q 20.0625 6.109375 24.8125 6.109375 
Q 31.15625 6.109375 34.5625 8.28125 
Q 37.984375 10.453125 37.984375 14.40625 
Q 37.984375 18.0625 35.515625 20.015625 
Q 33.0625 21.96875 24.703125 23.78125 
L 21.578125 24.515625 
Q 13.234375 26.265625 9.515625 29.90625 
Q 5.8125 33.546875 5.8125 39.890625 
Q 5.8125 47.609375 11.28125 51.796875 
Q 16.75 56 26.8125 56 
Q 31.78125 56 36.171875 55.265625 
Q 40.578125 54.546875 44.28125 53.078125 
z
" id="DejaVuSans-115"/>
       <path d="M 30.421875 75.984375 
L 30.421875 -13.1875 
L 9.71875 -13.1875 
L 9.71875 -6.203125 
L 21.390625 -6.203125 
L 21.390625 69 
L 9.71875 69 
L 9.71875 75.984375 
z
" id="DejaVuSans-93"/>
      </defs>
      <use xlink:href="#DejaVuSans-116"/>
      <use x="39.208984" xlink:href="#DejaVuSans-105"/>
      <use x="66.992188" xlink:href="#DejaVuSans-109"/>
      <use x="164.404297" xlink:href="#DejaVuSans-101"/>
      <use x="225.927734" xlink:href="#DejaVuSans-32"/>
      <use x="257.714844" xlink:href="#DejaVuSans-91"/>
      <use x="296.728516" xlink:href="#DejaVuSans-100"/>
      <use x="360.205078" xlink:href="#DejaVuSans-97"/>
      <use x="421.484375" xlink:href="#DejaVuSans-121"/>
      <use x="480.664062" xlink:href="#DejaVuSans-115"/>
      <use x="532.763672" xlink:href="#DejaVuSans-93"/>
     </g>
    </g>
   </g>
   <g id="matplotlib.axis_2">
    <g id="ytick_1">
     <g id="line2d_8">
      <defs>
       <path d="M 0 0 
L -3.5 0 
" id="md78bbb3daa" style="stroke:#000000;stroke-width:0.8;"/>
      </defs>
      <g>
       <use style="stroke:#000000;stroke-width:0.8;" x="57.6" xlink:href="#md78bbb3daa" y="298.994087"/>
      </g>
     </g>
     <g id="text_9">
      <!-- 0 -->
      <g transform="translate(44.2375 302.793306)scale(0.1 -0.1)">
       <use xlink:href="#DejaVuSans-48"/>
      </g>
     </g>
    </g>
    <g id="ytick_2">
     <g id="line2d_9">
      <g>
       <use style="stroke:#000000;stroke-width:0.8;" x="57.6" xlink:href="#md78bbb3daa" y="263.933217"/>
      </g>
     </g>
     <g id="text_10">
      <!-- 10 -->
      <g transform="translate(37.875 267.732436)scale(0.1 -0.1)">
       <use xlink:href="#DejaVuSans-49"/>
       <use x="63.623047" xlink:href="#DejaVuSans-48"/>
      </g>
     </g>
    </g>
    <g id="ytick_3">
     <g id="line2d_10">
      <g>
       <use style="stroke:#000000;stroke-width:0.8;" x="57.6" xlink:href="#md78bbb3daa" y="228.872348"/>
      </g>
     </g>
     <g id="text_11">
      <!-- 20 -->
      <g transform="translate(37.875 232.671567)scale(0.1 -0.1)">
       <use xlink:href="#DejaVuSans-50"/>
       <use x="63.623047" xlink:href="#DejaVuSans-48"/>
      </g>
     </g>
    </g>
    <g id="ytick_4">
     <g id="line2d_11">
      <g>
       <use style="stroke:#000000;stroke-width:0.8;" x="57.6" xlink:href="#md78bbb3daa" y="193.811478"/>
      </g>
     </g>
     <g id="text_12">
      <!-- 30 -->
      <g transform="translate(37.875 197.610697)scale(0.1 -0.1)">
       <defs>
        <path d="M 40.578125 39.3125 
Q 47.65625 37.796875 51.625 33 
Q 55.609375 28.21875 55.609375 21.1875 
Q 55.609375 10.40625 48.1875 4.484375 
Q 40.765625 -1.421875 27.09375 -1.421875 
Q 22.515625 -1.421875 17.65625 -0.515625 
Q 12.796875 0.390625 7.625 2.203125 
L 7.625 11.71875 
Q 11.71875 9.328125 16.59375 8.109375 
Q 21.484375 6.890625 26.8125 6.890625 
Q 36.078125 6.890625 40.9375 10.546875 
Q 45.796875 14.203125 45.796875 21.1875 
Q 45.796875 27.640625 41.28125 31.265625 
Q 36.765625 34.90625 28.71875 34.90625 
L 20.21875 34.90625 
L 20.21875 43.015625 
L 29.109375 43.015625 
Q 36.375 43.015625 40.234375 45.921875 
Q 44.09375 48.828125 44.09375 54.296875 
Q 44.09375 59.90625 40.109375 62.90625 
Q 36.140625 65.921875 28.71875 65.921875 
Q 24.65625 65.921875 20.015625 65.03125 
Q 15.375 64.15625 9.8125 62.3125 
L 9.8125 71.09375 
Q 15.4375 72.65625 20.34375 73.4375 
Q 25.25 74.21875 29.59375 74.21875 
Q 40.828125 74.21875 47.359375 69.109375 
Q 53.90625 64.015625 53.90625 55.328125 
Q 53.90625 49.265625 50.4375 45.09375 
Q 46.96875 40.921875 40.578125 39.3125 
z
" id="DejaVuSans-51"/>
       </defs>
       <use xlink:href="#DejaVuSans-51"/>
       <use x="63.623047" xlink:href="#DejaVuSans-48"/>
      </g>
     </g>
    </g>
    <g id="ytick_5">
     <g id="line2d_12">
      <g>
       <use style="stroke:#000000;stroke-width:0.8;" x="57.6" xlink:href="#md78bbb3daa" y="158.750609"/>
      </g>
     </g>
     <g id="text_13">
      <!-- 40 -->
      <g transform="translate(37.875 162.549827)scale(0.1 -0.1)">
       <use xlink:href="#DejaVuSans-52"/>
       <use x="63.623047" xlink:href="#DejaVuSans-48"/>
      </g>
     </g>
    </g>
    <g id="ytick_6">
     <g id="line2d_13">
      <g>
       <use style="stroke:#000000;stroke-width:0.8;" x="57.6" xlink:href="#md78bbb3daa" y="123.689739"/>
      </g>
     </g>
     <g id="text_14">
      <!-- 50 -->
      <g transform="translate(37.875 127.488958)scale(0.1 -0.1)">
       <defs>
        <path d="M 10.796875 72.90625 
L 49.515625 72.90625 
L 49.515625 64.59375 
L 19.828125 64.59375 
L 19.828125 46.734375 
Q 21.96875 47.46875 24.109375 47.828125 
Q 26.265625 48.1875 28.421875 48.1875 
Q 40.625 48.1875 47.75 41.5 
Q 54.890625 34.8125 54.890625 23.390625 
Q 54.890625 11.625 47.5625 5.09375 
Q 40.234375 -1.421875 26.90625 -1.421875 
Q 22.3125 -1.421875 17.546875 -0.640625 
Q 12.796875 0.140625 7.71875 1.703125 
L 7.71875 11.625 
Q 12.109375 9.234375 16.796875 8.0625 
Q 21.484375 6.890625 26.703125 6.890625 
Q 35.15625 6.890625 40.078125 11.328125 
Q 45.015625 15.765625 45.015625 23.390625 
Q 45.015625 31 40.078125 35.4375 
Q 35.15625 39.890625 26.703125 39.890625 
Q 22.75 39.890625 18.8125 39.015625 
Q 14.890625 38.140625 10.796875 36.28125 
z
" id="DejaVuSans-53"/>
       </defs>
       <use xlink:href="#DejaVuSans-53"/>
       <use x="63.623047" xlink:href="#DejaVuSans-48"/>
      </g>
     </g>
    </g>
    <g id="ytick_7">
     <g id="line2d_14">
      <g>
       <use style="stroke:#000000;stroke-width:0.8;" x="57.6" xlink:href="#md78bbb3daa" y="88.62887"/>
      </g>
     </g>
     <g id="text_15">
      <!-- 60 -->
      <g transform="translate(37.875 92.428088)scale(0.1 -0.1)">
       <use xlink:href="#DejaVuSans-54"/>
       <use x="63.623047" xlink:href="#DejaVuSans-48"/>
      </g>
     </g>
    </g>
    <g id="ytick_8">
     <g id="line2d_15">
      <g>
       <use style="stroke:#000000;stroke-width:0.8;" x="57.6" xlink:href="#md78bbb3daa" y="53.568"/>
      </g>
     </g>
     <g id="text_16">
      <!-- 70 -->
      <g transform="translate(37.875 57.367219)scale(0.1 -0.1)">
       <defs>
        <path d="M 8.203125 72.90625 
L 55.078125 72.90625 
L 55.078125 68.703125 
L 28.609375 0 
L 18.3125 0 
L 43.21875 64.59375 
L 8.203125 64.59375 
z
" id="DejaVuSans-55"/>
       </defs>
       <use xlink:href="#DejaVuSans-55"/>
       <use x="63.623047" xlink:href="#DejaVuSans-48"/>
      </g>
     </g>
    </g>
    <g id="text_17">
     <!-- Iterations -->
     <g transform="translate(31.795312 198.341281)rotate(-90)scale(0.1 -0.1)">
      <defs>
       <path d="M 9.8125 72.90625 
L 19.671875 72.90625 
L 19.671875 0 
L 9.8125 0 
z
" id="DejaVuSans-73"/>
       <path d="M 41.109375 46.296875 
Q 39.59375 47.171875 37.8125 47.578125 
Q 36.03125 48 33.890625 48 
Q 26.265625 48 22.1875 43.046875 
Q 18.109375 38.09375 18.109375 28.8125 
L 18.109375 0 
L 9.078125 0 
L 9.078125 54.6875 
L 18.109375 54.6875 
L 18.109375 46.1875 
Q 20.953125 51.171875 25.484375 53.578125 
Q 30.03125 56 36.53125 56 
Q 37.453125 56 38.578125 55.875 
Q 39.703125 55.765625 41.0625 55.515625 
z
" id="DejaVuSans-114"/>
       <path d="M 30.609375 48.390625 
Q 23.390625 48.390625 19.1875 42.75 
Q 14.984375 37.109375 14.984375 27.296875 
Q 14.984375 17.484375 19.15625 11.84375 
Q 23.34375 6.203125 30.609375 6.203125 
Q 37.796875 6.203125 41.984375 11.859375 
Q 46.1875 17.53125 46.1875 27.296875 
Q 46.1875 37.015625 41.984375 42.703125 
Q 37.796875 48.390625 30.609375 48.390625 
z
M 30.609375 56 
Q 42.328125 56 49.015625 48.375 
Q 55.71875 40.765625 55.71875 27.296875 
Q 55.71875 13.875 49.015625 6.21875 
Q 42.328125 -1.421875 30.609375 -1.421875 
Q 18.84375 -1.421875 12.171875 6.21875 
Q 5.515625 13.875 5.515625 27.296875 
Q 5.515625 40.765625 12.171875 48.375 
Q 18.84375 56 30.609375 56 
z
" id="DejaVuSans-111"/>
       <path d="M 54.890625 33.015625 
L 54.890625 0 
L 45.90625 0 
L 45.90625 32.71875 
Q 45.90625 40.484375 42.875 44.328125 
Q 39.84375 48.1875 33.796875 48.1875 
Q 26.515625 48.1875 22.3125 43.546875 
Q 18.109375 38.921875 18.109375 30.90625 
L 18.109375 0 
L 9.078125 0 
L 9.078125 54.6875 
L 18.109375 54.6875 
L 18.109375 46.1875 
Q 21.34375 51.125 25.703125 53.5625 
Q 30.078125 56 35.796875 56 
Q 45.21875 56 50.046875 50.171875 
Q 54.890625 44.34375 54.890625 33.015625 
z
" id="DejaVuSans-110"/>
      </defs>
      <use xlink:href="#DejaVuSans-73"/>
      <use x="29.492188" xlink:href="#DejaVuSans-116"/>
      <use x="68.701172" xlink:href="#DejaVuSans-101"/>
      <use x="130.224609" xlink:href="#DejaVuSans-114"/>
      <use x="171.337891" xlink:href="#DejaVuSans-97"/>
      <use x="232.617188" xlink:href="#DejaVuSans-116"/>
      <use x="271.826172" xlink:href="#DejaVuSans-105"/>
      <use x="299.609375" xlink:href="#DejaVuSans-111"/>
      <use x="360.791016" xlink:href="#DejaVuSans-110"/>
      <use x="424.169922" xlink:href="#DejaVuSans-115"/>
     </g>
    </g>
   </g>
   <g id="line2d_16">
    <path clip-path="url(#pbb122f691a)" d="M 73.832727 260.42713 
L 73.833219 295.488 
L 73.943417 291.981913 
L 75.067142 291.981913 
L 75.180564 284.969739 
L 75.283833 288.475826 
L 75.29068 284.969739 
L 75.300993 284.969739 
L 75.399767 288.475826 
L 75.349806 281.463652 
L 75.410625 284.969739 
L 75.414256 284.969739 
L 75.428842 281.463652 
L 75.522228 288.475826 
L 75.619571 281.463652 
L 75.631526 284.969739 
L 75.725191 288.475826 
L 75.716903 277.957565 
L 75.737674 281.463652 
L 75.831152 277.957565 
L 75.792496 288.475826 
L 75.844167 284.969739 
L 75.84852 284.969739 
L 75.937122 274.451478 
L 75.896884 288.475826 
L 75.955201 277.957565 
L 76.024088 270.945391 
L 76.061544 288.475826 
L 76.157423 270.945391 
L 76.17699 274.451478 
L 76.266702 288.475826 
L 76.256598 267.439304 
L 76.287013 274.451478 
L 76.343586 288.475826 
L 76.374894 263.933217 
L 76.401231 277.957565 
L 76.411829 277.957565 
L 76.48704 267.439304 
L 76.449209 288.475826 
L 76.514343 274.451478 
L 76.530838 288.475826 
L 76.541881 260.42713 
L 76.620267 277.957565 
L 76.654447 288.475826 
L 76.735601 256.921043 
L 76.794794 288.475826 
L 76.855034 277.957565 
L 76.897838 253.414957 
L 76.873314 288.475826 
L 76.959911 270.945391 
L 77.023094 284.969739 
L 76.991362 263.933217 
L 77.061548 281.463652 
L 77.152894 253.414957 
L 77.172769 270.945391 
L 77.233042 281.463652 
L 77.192751 242.896696 
L 77.253352 274.451478 
L 77.356578 253.414957 
L 77.301174 288.475826 
L 77.36356 260.42713 
L 77.434094 249.90887 
L 77.491461 284.969739 
L 77.608773 242.896696 
L 77.729638 274.451478 
L 77.737313 235.884522 
L 77.838422 270.945391 
L 77.8542 274.451478 
L 77.877979 260.42713 
L 77.901895 263.933217 
L 77.917916 242.896696 
L 77.990772 281.463652 
L 78.007134 274.451478 
L 78.064902 235.884522 
L 78.023559 284.969739 
L 78.13189 239.390609 
L 78.199931 274.451478 
L 78.243002 253.414957 
L 78.277765 270.945391 
L 78.260349 235.884522 
L 78.348122 246.402783 
L 78.428624 277.957565 
L 78.46487 270.945391 
L 78.538244 239.390609 
L 78.547499 274.451478 
L 78.584709 256.921043 
L 78.594058 277.957565 
L 78.679069 249.90887 
L 78.688612 263.933217 
L 78.707756 235.884522 
L 78.726979 277.957565 
L 78.785125 277.957565 
L 78.794887 281.463652 
L 78.804669 270.945391 
L 78.814471 225.366261 
L 78.913621 270.945391 
L 78.923651 270.945391 
L 79.014872 204.329739 
L 79.03538 260.42713 
L 79.066306 200.823652 
L 79.055975 274.451478 
L 79.160278 246.402783 
L 79.181407 228.872348 
L 79.234631 263.933217 
L 79.299264 221.860174 
L 79.342823 246.402783 
L 79.386765 277.957565 
L 79.397811 225.366261 
L 79.453405 263.933217 
L 79.555037 232.378435 
L 79.487057 267.439304 
L 79.566455 235.884522 
L 79.647104 267.439304 
L 79.65873 200.823652 
L 79.682059 246.402783 
L 79.693763 249.90887 
L 79.705493 239.390609 
L 79.729034 204.329739 
L 79.776438 263.933217 
L 79.812275 246.402783 
L 79.884693 193.811478 
L 79.848359 260.42713 
L 79.909055 249.90887 
L 79.921278 267.439304 
L 79.93353 225.366261 
L 79.995216 242.896696 
L 80.128994 78.110609 
L 80.255997 186.799304 
L 80.425062 141.220174 
L 80.597048 218.354087 
L 80.640776 141.220174 
L 80.6848 162.256696 
L 80.729124 225.366261 
L 80.773749 200.823652 
L 80.863911 130.701913 
L 80.909452 158.750609 
L 81.001468 211.341913 
L 81.047946 151.738435 
L 81.094741 169.26887 
L 81.141856 190.305391 
L 81.237052 207.835826 
L 81.285138 109.665391 
L 81.530547 190.305391 
L 81.580642 53.568 
L 81.63108 190.305391 
L 81.681864 193.811478 
L 81.732996 155.244522 
L 81.782879 162.256696 
L 81.832939 204.329739 
L 81.985077 144.726261 
L 82.036464 123.689739 
L 82.088194 183.293217 
L 82.140267 148.232348 
L 82.192687 116.677565 
L 82.500098 291.981913 
L 83.477071 291.981913 
L 83.589454 288.475826 
L 83.59889 291.981913 
L 83.693846 288.475826 
L 85.451901 288.475826 
L 85.463476 291.981913 
L 85.556566 288.475826 
L 85.877169 288.475826 
L 85.925524 284.969739 
L 85.986284 288.475826 
L 85.998478 288.475826 
L 86.096544 284.969739 
L 86.108867 288.475826 
L 86.207965 288.475826 
L 86.320561 284.969739 
L 86.333145 284.969739 
L 86.447064 288.475826 
L 86.510874 288.475826 
L 86.58794 284.969739 
L 86.61375 288.475826 
L 86.665552 288.475826 
L 86.783003 284.969739 
L 86.809273 284.969739 
L 86.888456 288.475826 
L 86.914976 284.969739 
L 87.075421 284.969739 
L 87.156506 288.475826 
L 87.183663 284.969739 
L 87.306678 284.969739 
L 87.389427 288.475826 
L 87.417142 284.969739 
L 87.486724 284.969739 
L 87.50069 288.475826 
L 87.584844 284.969739 
L 87.927644 284.969739 
L 87.956665 288.475826 
L 88.014922 281.463652 
L 88.02953 284.969739 
L 88.11756 284.969739 
L 88.16182 281.463652 
L 88.221087 284.969739 
L 88.23595 284.969739 
L 88.295584 281.463652 
L 88.26573 288.475826 
L 88.340505 284.969739 
L 88.370545 284.969739 
L 88.476274 281.463652 
L 88.598244 284.969739 
L 88.613576 284.969739 
L 88.628928 288.475826 
L 88.644299 281.463652 
L 88.705976 284.969739 
L 88.830265 281.463652 
L 88.95582 284.969739 
L 89.114571 284.969739 
L 89.210801 281.463652 
L 89.226912 288.475826 
L 89.291562 277.957565 
L 89.307777 284.969739 
L 89.389166 281.463652 
L 89.405507 284.969739 
L 89.454658 284.969739 
L 89.471084 277.957565 
L 89.570093 281.463652 
L 89.619889 277.957565 
L 89.603268 284.969739 
L 89.66988 281.463652 
L 89.703318 284.969739 
L 89.770458 281.463652 
L 89.80416 281.463652 
L 89.888809 284.969739 
L 89.905806 277.957565 
L 90.008264 281.463652 
L 90.059801 281.463652 
L 90.146159 284.969739 
L 90.1635 281.463652 
L 90.198252 277.957565 
L 90.215663 284.969739 
L 90.233098 284.969739 
L 90.285543 288.475826 
L 90.268038 281.463652 
L 90.320625 284.969739 
L 90.373427 277.957565 
L 90.444165 281.463652 
L 90.497472 281.463652 
L 90.533132 284.969739 
L 90.550998 277.957565 
L 90.586804 277.957565 
L 90.604745 277.957565 
L 90.676753 284.969739 
L 90.694817 281.463652 
L 90.803727 274.451478 
L 90.931942 284.969739 
L 91.061418 281.463652 
L 91.098645 281.463652 
L 91.117298 277.957565 
L 91.154684 284.969739 
L 91.192175 281.463652 
L 91.21096 281.463652 
L 91.267477 270.945391 
L 91.305289 284.969739 
L 91.324235 274.451478 
L 91.343209 274.451478 
L 91.400292 284.969739 
L 91.438484 277.957565 
L 91.476786 284.969739 
L 91.515198 274.451478 
L 91.534446 284.969739 
L 91.611716 281.463652 
L 91.631103 267.439304 
L 91.650518 284.969739 
L 91.708934 284.969739 
L 91.728463 284.969739 
L 91.748021 288.475826 
L 91.767606 277.957565 
L 91.787221 281.463652 
L 91.826536 270.945391 
L 91.885726 281.463652 
L 91.945177 284.969739 
L 91.984957 281.463652 
L 92.024856 281.463652 
L 92.145264 277.957565 
L 92.226137 281.463652 
L 92.246431 274.451478 
L 92.266756 284.969739 
L 92.327913 281.463652 
L 92.389347 277.957565 
L 92.409887 284.969739 
L 92.492359 274.451478 
L 92.513056 277.957565 
L 92.65882 284.969739 
L 92.700755 284.969739 
L 92.785013 274.451478 
L 92.7639 288.475826 
L 92.827338 277.957565 
L 92.84855 277.957565 
L 92.891072 284.969739 
L 92.955104 277.957565 
L 93.019437 270.945391 
L 92.99796 284.969739 
L 93.062495 274.451478 
L 93.105687 270.945391 
L 93.170732 281.463652 
L 93.236086 270.945391 
L 93.25794 277.957565 
L 93.32371 284.969739 
L 93.301752 270.945391 
L 93.367732 277.957565 
L 93.43403 281.463652 
L 93.456201 274.451478 
L 93.500648 274.451478 
L 93.545239 267.439304 
L 93.612397 277.957565 
L 93.634856 267.439304 
L 93.679882 281.463652 
L 93.702451 277.957565 
L 93.725056 277.957565 
L 93.793094 267.439304 
L 93.815848 277.957565 
L 93.861467 284.969739 
L 93.884333 274.451478 
L 93.907237 274.451478 
L 93.976176 267.439304 
L 94.022326 270.945391 
L 94.161702 284.969739 
L 94.255399 274.451478 
L 94.278922 281.463652 
L 94.302485 281.463652 
L 94.373413 274.451478 
L 94.397136 277.957565 
L 94.516357 284.969739 
L 94.612471 267.439304 
L 94.636603 277.957565 
L 94.684991 274.451478 
L 94.733547 284.969739 
L 94.757888 263.933217 
L 94.831166 270.945391 
L 94.855677 284.969739 
L 94.929467 267.439304 
L 94.978876 263.933217 
L 95.003646 270.945391 
L 95.02846 284.969739 
L 95.103164 281.463652 
L 95.178266 270.945391 
L 95.228556 274.451478 
L 95.253769 281.463652 
L 95.30433 267.439304 
L 95.355072 281.463652 
L 95.405998 267.439304 
L 95.431529 267.439304 
L 95.534118 284.969739 
L 95.61155 267.439304 
L 95.648787 270.945391 
L 95.674752 270.945391 
L 95.700773 281.463652 
L 95.726841 263.933217 
L 95.752957 277.957565 
L 95.779122 263.933217 
L 95.857906 274.451478 
L 95.937128 284.969739 
L 95.963634 270.945391 
L 96.043449 277.957565 
L 96.070153 281.463652 
L 96.096908 263.933217 
L 96.177474 281.463652 
L 96.258498 274.451478 
L 96.285608 284.969739 
L 96.31277 263.933217 
L 96.367249 274.451478 
L 96.428238 246.402783 
L 96.458997 277.957565 
L 96.474423 277.957565 
L 96.629959 288.475826 
L 96.677064 277.957565 
L 96.692811 291.981913 
L 96.740187 281.463652 
L 96.756025 291.981913 
L 96.835556 281.463652 
L 96.88355 277.957565 
L 96.899594 288.475826 
L 96.915661 288.475826 
L 96.964 277.957565 
L 97.012549 288.475826 
L 97.061307 288.475826 
L 97.077607 277.957565 
L 97.175899 284.969739 
L 97.192364 284.969739 
L 97.208852 277.957565 
L 97.291652 284.969739 
L 97.308284 284.969739 
L 97.375051 288.475826 
L 97.341619 281.463652 
L 97.391803 284.969739 
L 97.442205 288.475826 
L 97.526697 274.451478 
L 97.594731 288.475826 
L 97.628897 281.463652 
L 97.663161 288.475826 
L 97.73199 274.451478 
L 97.870853 288.475826 
L 97.905822 288.475826 
L 98.029019 284.969739 
L 98.046722 284.969739 
L 98.117791 288.475826 
L 98.135623 281.463652 
L 98.153482 284.969739 
L 98.171366 284.969739 
L 98.297293 288.475826 
L 98.315388 288.475826 
L 98.33351 281.463652 
L 98.424519 288.475826 
L 98.442801 288.475826 
L 98.46111 267.439304 
L 98.553053 274.451478 
L 98.589993 267.439304 
L 98.608494 281.463652 
L 98.627016 277.957565 
L 98.682707 270.945391 
L 98.719939 284.969739 
L 98.813382 274.451478 
L 98.775942 288.475826 
L 98.832134 281.463652 
L 98.907347 288.475826 
L 98.945079 284.969739 
L 99.096842 274.451478 
L 99.211539 288.475826 
L 99.230729 281.463652 
L 99.326988 284.969739 
L 99.443188 288.475826 
L 99.462628 274.451478 
L 99.560139 281.463652 
L 99.599289 284.969739 
L 99.618896 274.451478 
L 99.638523 281.463652 
L 99.736973 274.451478 
L 99.677841 284.969739 
L 99.756726 277.957565 
L 99.855802 288.475826 
L 99.87568 284.969739 
L 99.915498 284.969739 
L 100.035452 281.463652 
L 100.055517 288.475826 
L 100.115839 281.463652 
L 100.135988 274.451478 
L 100.176348 288.475826 
L 100.196559 284.969739 
L 100.257318 288.475826 
L 100.297928 284.969739 
L 100.359 284.969739 
L 100.379399 288.475826 
L 100.420259 281.463652 
L 100.461203 284.969739 
L 100.481706 284.969739 
L 100.54334 281.463652 
L 100.584533 284.969739 
L 100.605161 284.969739 
L 100.62581 288.475826 
L 100.687882 281.463652 
L 100.708614 284.969739 
L 100.812587 281.463652 
L 100.89614 277.957565 
L 100.938042 284.969739 
L 100.980027 284.969739 
L 101.00105 281.463652 
L 101.085353 284.969739 
L 101.127629 284.969739 
L 101.169989 263.933217 
L 101.254957 281.463652 
L 101.297566 281.463652 
L 101.361636 277.957565 
L 101.340259 284.969739 
L 101.383035 281.463652 
L 101.404454 284.969739 
L 101.425894 281.463652 
L 101.447354 267.439304 
L 101.533405 277.957565 
L 101.598162 284.969739 
L 101.619789 270.945391 
L 101.728237 284.969739 
L 101.749989 281.463652 
L 101.859062 284.969739 
L 101.990637 277.957565 
L 102.100855 281.463652 
L 102.189405 277.957565 
L 102.145088 284.969739 
L 102.211594 281.463652 
L 102.233805 281.463652 
L 102.367505 274.451478 
L 102.479496 277.957565 
L 102.501957 277.957565 
L 102.592009 284.969739 
L 102.682395 274.451478 
L 102.705044 281.463652 
L 102.750404 277.957565 
L 102.773116 284.969739 
L 102.795848 281.463652 
L 102.841376 281.463652 
L 102.955562 277.957565 
L 103.070272 284.969739 
L 103.185506 277.957565 
L 103.231747 284.969739 
L 103.301266 281.463652 
L 103.324481 281.463652 
L 103.347717 284.969739 
L 103.394252 277.957565 
L 103.417552 281.463652 
L 103.440872 281.463652 
L 103.487576 277.957565 
L 103.534364 281.463652 
L 103.604705 281.463652 
L 103.698788 288.475826 
L 103.79321 274.451478 
L 103.816868 277.957565 
L 103.840548 284.969739 
L 103.935479 281.463652 
L 103.983071 281.463652 
L 104.12636 274.451478 
L 104.150316 281.463652 
L 104.246354 277.957565 
L 104.270416 277.957565 
L 104.318606 284.969739 
L 104.391051 274.451478 
L 104.439455 281.463652 
L 104.512222 277.957565 
L 104.585182 281.463652 
L 104.658336 274.451478 
L 104.682763 277.957565 
L 104.805226 281.463652 
L 104.829784 281.463652 
L 104.903586 274.451478 
L 104.92823 284.969739 
L 105.002293 274.451478 
L 105.051777 281.463652 
L 105.101348 274.451478 
L 105.126167 274.451478 
L 105.250586 281.463652 
L 105.350516 270.945391 
L 105.375553 277.957565 
L 105.400613 284.969739 
L 105.425694 274.451478 
L 105.450798 274.451478 
L 105.52624 270.945391 
L 105.501071 277.957565 
L 105.551432 274.451478 
L 105.601882 281.463652 
L 105.65242 277.957565 
L 105.728395 274.451478 
L 105.753764 277.957565 
L 105.779155 277.957565 
L 105.906448 284.969739 
L 106.008684 270.945391 
L 106.0343 277.957565 
L 106.059937 284.969739 
L 106.136986 281.463652 
L 106.265852 267.439304 
L 106.369353 284.969739 
L 106.395285 281.463652 
L 106.499242 274.451478 
L 106.525288 281.463652 
L 106.57745 277.957565 
L 106.603565 270.945391 
L 106.629704 288.475826 
L 106.682049 274.451478 
L 106.708256 281.463652 
L 106.734487 270.945391 
L 106.760741 277.957565 
L 106.892356 270.945391 
L 106.998068 281.463652 
L 107.051064 284.969739 
L 107.130733 274.451478 
L 107.210615 281.463652 
L 107.263987 277.957565 
L 107.290709 270.945391 
L 107.344224 281.463652 
L 107.371016 284.969739 
L 107.397833 277.957565 
L 107.424674 281.463652 
L 107.451538 277.957565 
L 107.505338 281.463652 
L 107.559234 284.969739 
L 107.586218 277.957565 
L 107.667315 274.451478 
L 107.640259 284.969739 
L 107.694395 277.957565 
L 107.775782 281.463652 
L 107.802959 277.957565 
L 107.857387 277.957565 
L 107.993882 274.451478 
L 108.076074 281.463652 
L 108.10352 277.957565 
L 108.158487 281.463652 
L 108.186008 274.451478 
L 108.323983 281.463652 
L 108.351653 267.439304 
L 108.434812 274.451478 
L 108.490378 284.969739 
L 108.573915 281.463652 
L 108.629732 267.439304 
L 108.685652 277.957565 
L 108.741673 277.957565 
L 108.825897 281.463652 
L 108.882174 263.933217 
L 108.966783 270.945391 
L 109.051626 270.945391 
L 109.079958 281.463652 
L 109.136702 267.439304 
L 109.165113 274.451478 
L 109.19355 281.463652 
L 109.279019 277.957565 
L 109.307562 277.957565 
L 109.336131 274.451478 
L 109.364726 281.463652 
L 109.393348 284.969739 
L 109.5081 263.933217 
L 109.565637 281.463652 
L 109.623281 277.957565 
L 109.652143 263.933217 
L 109.709949 277.957565 
L 109.767862 274.451478 
L 109.79686 281.463652 
L 109.884016 284.969739 
L 109.913123 267.439304 
L 109.971419 284.969739 
L 110.029825 277.957565 
L 110.059069 274.451478 
L 110.088341 277.957565 
L 110.11764 281.463652 
L 110.146968 274.451478 
L 110.176323 277.957565 
L 110.205706 277.957565 
L 110.235117 267.439304 
L 110.294023 277.957565 
L 110.323518 277.957565 
L 110.353042 270.945391 
L 110.382593 281.463652 
L 110.412173 281.463652 
L 110.501082 270.945391 
L 110.530775 277.957565 
L 110.560497 277.957565 
L 110.620026 281.463652 
L 110.679668 253.414957 
L 110.709533 277.957565 
L 110.799302 263.933217 
L 110.9495 281.463652 
L 110.979627 270.945391 
L 111.070185 277.957565 
L 111.10043 281.463652 
L 111.130705 267.439304 
L 111.191344 277.957565 
L 111.221708 277.957565 
L 111.252102 281.463652 
L 111.373978 263.933217 
L 111.435096 281.463652 
L 111.496337 274.451478 
L 111.527002 281.463652 
L 111.557698 267.439304 
L 111.588425 270.945391 
L 111.649971 270.945391 
L 111.742521 277.957565 
L 111.835349 267.439304 
L 111.959557 284.969739 
L 112.053044 256.921043 
L 112.084269 277.957565 
L 112.178136 270.945391 
L 112.30374 277.957565 
L 112.366735 274.451478 
L 112.398281 277.957565 
L 112.493115 277.957565 
L 112.588243 281.463652 
L 112.620018 263.933217 
L 112.651826 267.439304 
L 112.683668 260.42713 
L 112.715542 253.414957 
L 112.779391 277.957565 
L 112.843373 270.945391 
L 113.036128 281.463652 
L 113.197692 267.439304 
L 113.230108 270.945391 
L 113.262559 274.451478 
L 113.295044 263.933217 
L 113.327564 277.957565 
L 113.360119 277.957565 
L 113.392708 277.957565 
L 113.457992 260.42713 
L 113.523417 267.439304 
L 113.588983 274.451478 
L 113.621819 270.945391 
L 113.654691 256.921043 
L 113.687599 263.933217 
L 113.819587 277.957565 
L 113.852674 270.945391 
L 113.885798 281.463652 
L 113.918958 284.969739 
L 113.952154 277.957565 
L 114.051962 263.933217 
L 114.118684 277.957565 
L 114.152101 267.439304 
L 114.185554 267.439304 
L 114.319741 277.957565 
L 114.420776 267.439304 
L 114.454529 277.957565 
L 114.522151 274.451478 
L 114.623869 263.933217 
L 114.657852 270.945391 
L 114.691873 270.945391 
L 114.828347 277.957565 
L 114.896817 260.42713 
L 114.931112 267.439304 
L 114.965445 277.957565 
L 114.999818 263.933217 
L 115.034231 253.414957 
L 115.137708 277.957565 
L 115.17228 270.945391 
L 115.206893 274.451478 
L 115.276239 281.463652 
L 115.310972 263.933217 
L 115.380561 267.439304 
L 115.450313 277.957565 
L 115.485251 270.945391 
L 115.55525 281.463652 
L 115.660559 277.957565 
L 115.695745 277.957565 
L 115.801556 267.439304 
L 115.943229 277.957565 
L 116.085585 249.90887 
L 116.228632 277.957565 
L 116.317813 270.945391 
L 116.34627 274.451478 
L 116.498503 288.475826 
L 116.630233 281.463652 
L 116.78531 288.475826 
L 116.829893 284.969739 
L 116.874599 288.475826 
L 116.896998 288.475826 
L 116.96438 281.463652 
L 116.986902 288.475826 
L 117.009455 288.475826 
L 117.032039 281.463652 
L 117.099978 284.969739 
L 117.190998 288.475826 
L 117.213832 281.463652 
L 117.305478 284.969739 
L 117.374543 281.463652 
L 117.397627 288.475826 
L 117.513526 281.463652 
L 117.583448 288.475826 
L 117.606819 284.969739 
L 117.630222 281.463652 
L 117.653657 288.475826 
L 117.677124 288.475826 
L 117.747719 288.475826 
L 117.866024 281.463652 
L 117.889782 288.475826 
L 117.961253 284.969739 
L 117.985142 281.463652 
L 118.009063 288.475826 
L 118.057005 284.969739 
L 118.153283 288.475826 
L 118.250091 284.969739 
L 118.371849 288.475826 
L 118.642672 288.475826 
L 118.717244 281.463652 
L 118.74217 288.475826 
L 118.817152 288.475826 
L 118.91761 284.969739 
L 118.968046 281.463652 
L 119.01862 288.475826 
L 119.120186 281.463652 
L 119.222311 288.475826 
L 119.24793 284.969739 
L 119.273584 284.969739 
L 119.299273 288.475826 
L 119.324998 281.463652 
L 119.350758 284.969739 
L 119.376553 281.463652 
L 119.402384 288.475826 
L 119.454151 284.969739 
L 119.480088 284.969739 
L 119.558114 288.475826 
L 119.584194 281.463652 
L 119.662649 284.969739 
L 119.688872 284.969739 
L 119.820531 288.475826 
L 119.89996 281.463652 
L 119.92651 288.475826 
L 120.033072 284.969739 
L 120.113379 288.475826 
L 120.24796 281.463652 
L 120.274987 288.475826 
L 120.356292 284.969739 
L 120.410682 284.969739 
L 120.54731 288.475826 
L 120.574749 288.475826 
L 120.68488 277.957565 
L 120.712507 281.463652 
L 120.851214 284.969739 
L 120.934897 281.463652 
L 120.990877 284.969739 
L 121.018924 277.957565 
L 121.075135 281.463652 
L 121.188021 284.969739 
L 121.21634 284.969739 
L 121.301529 281.463652 
L 121.444292 288.475826 
L 121.472963 277.957565 
L 121.55921 281.463652 
L 121.588039 281.463652 
L 121.616907 288.475826 
L 121.703748 284.969739 
L 121.849282 284.969739 
L 121.907775 288.475826 
L 121.966429 274.451478 
L 122.054713 284.969739 
L 122.084222 281.463652 
L 122.172992 288.475826 
L 122.291922 281.463652 
L 122.351632 284.969739 
L 122.381548 281.463652 
L 122.411506 281.463652 
L 122.471545 284.969739 
L 122.501626 281.463652 
L 122.561913 281.463652 
L 122.592118 277.957565 
L 122.652653 281.463652 
L 122.774223 281.463652 
L 122.835259 274.451478 
L 122.86584 281.463652 
L 122.896463 281.463652 
L 122.927127 284.969739 
L 122.957834 277.957565 
L 122.988583 274.451478 
L 123.019375 281.463652 
L 123.050208 281.463652 
L 123.142964 274.451478 
L 123.267233 281.463652 
L 123.329624 281.463652 
L 123.360883 284.969739 
L 123.423532 281.463652 
L 123.517827 274.451478 
L 123.549345 284.969739 
L 123.64416 281.463652 
L 123.739366 281.463652 
L 123.803054 270.945391 
L 123.834964 284.969739 
L 123.930958 281.463652 
L 124.027347 274.451478 
L 124.124134 284.969739 
L 124.156485 281.463652 
L 124.351527 281.463652 
L 124.384191 277.957565 
L 124.449653 281.463652 
L 124.482451 281.463652 
L 124.515295 284.969739 
L 124.548183 277.957565 
L 124.581117 281.463652 
L 124.68019 277.957565 
L 124.812925 281.463652 
L 124.912955 270.945391 
L 124.94639 277.957565 
L 124.979872 281.463652 
L 125.046972 277.957565 
L 125.14797 267.439304 
L 125.181728 274.451478 
L 125.215533 274.451478 
L 125.283282 277.957565 
L 125.317227 274.451478 
L 125.351218 270.945391 
L 125.419341 274.451478 
L 125.453473 274.451478 
L 125.487651 263.933217 
L 125.521877 270.945391 
L 125.624837 281.463652 
L 125.76278 270.945391 
L 125.831965 284.969739 
L 125.901226 281.463652 
L 125.970562 274.451478 
L 126.005258 281.463652 
L 126.109457 281.463652 
L 126.144226 270.945391 
L 126.213821 274.451478 
L 126.388125 281.463652 
L 126.42304 281.463652 
L 126.492925 284.969739 
L 126.527893 277.957565 
L 126.597885 281.463652 
L 126.632907 274.451478 
L 126.703005 277.957565 
L 126.738081 277.957565 
L 126.843413 284.969739 
L 126.878559 274.451478 
L 126.948903 277.957565 
L 127.019317 277.957565 
L 127.05455 281.463652 
L 127.089801 274.451478 
L 127.125068 277.957565 
L 127.160353 270.945391 
L 127.195655 274.451478 
L 127.230975 284.969739 
L 127.301665 274.451478 
L 127.337035 274.451478 
L 127.372423 277.957565 
L 127.407828 274.451478 
L 127.44325 270.945391 
L 127.478689 277.957565 
L 127.514145 281.463652 
L 127.549617 274.451478 
L 127.585107 270.945391 
L 127.620614 281.463652 
L 127.691677 277.957565 
L 127.727235 277.957565 
L 127.798399 281.463652 
L 127.905271 270.945391 
L 128.012294 277.957565 
L 128.083725 270.945391 
L 128.119466 277.957565 
L 128.190996 274.451478 
L 128.334256 284.969739 
L 128.477779 270.945391 
L 128.513701 281.463652 
L 128.585593 270.945391 
L 128.621564 270.945391 
L 128.765611 277.957565 
L 128.909918 270.945391 
L 128.946036 274.451478 
L 128.957318 288.475826 
L 129.029626 277.957565 
L 129.065797 277.957565 
L 129.101985 270.945391 
L 129.138189 281.463652 
L 129.174409 281.463652 
L 129.246897 270.945391 
L 129.283166 274.451478 
L 129.355752 270.945391 
L 129.428402 277.957565 
L 129.464752 277.957565 
L 129.610312 274.451478 
L 129.646743 274.451478 
L 129.829138 281.463652 
L 129.938769 274.451478 
L 129.902209 284.969739 
L 129.975346 277.957565 
L 130.011938 281.463652 
L 130.048547 274.451478 
L 130.085172 277.957565 
L 130.121813 277.957565 
L 130.15847 284.969739 
L 130.231834 277.957565 
L 130.26854 277.957565 
L 130.342001 281.463652 
L 130.378756 274.451478 
L 130.489119 277.957565 
L 130.599629 270.945391 
L 130.673384 281.463652 
L 130.710286 267.439304 
L 130.784139 277.957565 
L 130.821091 277.957565 
L 130.895043 284.969739 
L 131.043145 267.439304 
L 131.191512 277.957565 
L 131.265796 270.945391 
L 131.377346 281.463652 
L 131.414563 277.957565 
L 131.451796 288.475826 
L 131.489047 284.969739 
L 131.563598 277.957565 
L 131.600899 284.969739 
L 131.638217 270.945391 
L 131.675552 277.957565 
L 131.712903 288.475826 
L 131.750272 274.451478 
L 131.787657 281.463652 
L 131.82506 284.969739 
L 131.86248 281.463652 
L 131.93737 281.463652 
L 132.049835 277.957565 
L 132.124897 281.463652 
L 132.200028 270.945391 
L 132.23762 274.451478 
L 132.312855 277.957565 
L 132.463536 260.42713 
L 132.57673 270.945391 
L 132.614497 267.439304 
L 132.690084 263.933217 
L 132.76177 277.957565 
L 132.799622 284.969739 
L 132.837494 281.463652 
L 132.913291 270.945391 
L 132.951217 274.451478 
L 132.989161 284.969739 
L 133.027123 281.463652 
L 133.065103 270.945391 
L 133.141118 277.957565 
L 133.217205 274.451478 
L 133.369601 281.463652 
L 133.44591 267.439304 
L 133.484093 277.957565 
L 133.598752 281.463652 
L 133.675285 274.451478 
L 133.790227 281.463652 
L 133.828579 281.463652 
L 133.90534 277.957565 
L 134.059094 284.969739 
L 134.09758 281.463652 
L 134.136086 267.439304 
L 134.174612 277.957565 
L 134.213157 281.463652 
L 134.251722 277.957565 
L 134.290306 274.451478 
L 134.367534 281.463652 
L 134.406178 277.957565 
L 134.444842 274.451478 
L 134.483525 281.463652 
L 134.522229 277.957565 
L 134.560952 274.451478 
L 134.599696 277.957565 
L 134.63846 277.957565 
L 134.677244 274.451478 
L 134.716048 284.969739 
L 134.754873 277.957565 
L 134.832584 270.945391 
L 134.87147 281.463652 
L 134.949304 277.957565 
L 134.988252 270.945391 
L 135.02722 277.957565 
L 135.144252 281.463652 
L 135.261472 277.957565 
L 135.339725 281.463652 
L 135.418063 274.451478 
L 135.535732 288.475826 
L 135.692926 274.451478 
L 135.73228 284.969739 
L 135.811053 277.957565 
L 135.850472 277.957565 
L 135.889914 284.969739 
L 135.929378 277.957565 
L 135.968846 267.439304 
L 136.008367 277.957565 
L 136.166629 284.969739 
L 136.285565 274.451478 
L 136.404708 281.463652 
L 136.444469 281.463652 
L 136.563891 274.451478 
L 136.723451 284.969739 
L 136.843372 277.957565 
L 136.923439 284.969739 
L 136.963509 281.463652 
L 137.083866 274.451478 
L 137.244686 284.969739 
L 137.284953 274.451478 
L 137.365563 281.463652 
L 137.405906 277.957565 
L 137.446274 284.969739 
L 137.486667 281.463652 
L 137.527086 274.451478 
L 137.608 277.957565 
L 137.648495 277.957565 
L 137.770138 274.451478 
L 137.851363 281.463652 
L 137.973397 274.451478 
L 138.054887 284.969739 
L 138.095671 277.957565 
L 138.218186 281.463652 
L 138.259079 281.463652 
L 138.38192 277.957565 
L 138.463951 284.969739 
L 138.587206 277.957565 
L 138.628347 277.957565 
L 138.710713 284.969739 
L 138.751938 281.463652 
L 138.793192 274.451478 
L 138.834475 281.463652 
L 138.875785 281.463652 
L 138.917125 277.957565 
L 138.958493 281.463652 
L 139.082772 284.969739 
L 139.165771 270.945391 
L 139.207314 281.463652 
L 139.29049 277.957565 
L 139.373784 281.463652 
L 139.415476 270.945391 
L 139.457198 281.463652 
L 139.552069 270.945391 
L 139.577467 277.957565 
L 139.705252 288.475826 
L 139.80815 288.475826 
L 139.833965 291.981913 
L 139.911629 288.475826 
L 139.937589 288.475826 
L 140.067933 291.981913 
L 140.120324 291.981913 
L 140.251937 288.475826 
L 140.357883 291.981913 
L 140.437727 288.475826 
L 140.464415 291.981913 
L 140.491139 291.981913 
L 140.625316 288.475826 
L 141.060932 288.475826 
L 141.11606 291.981913 
L 141.171339 288.475826 
L 141.421983 288.475826 
L 141.450023 291.981913 
L 141.50622 288.475826 
L 144.585606 288.475826 
L 144.682795 284.969739 
L 144.812996 288.475826 
L 144.845656 288.475826 
L 144.976738 284.969739 
L 145.108529 288.475826 
L 145.174692 288.475826 
L 145.307554 284.969739 
L 145.340881 284.969739 
L 145.441133 288.475826 
L 145.47464 284.969739 
L 145.54179 288.475826 
L 146.051207 288.475826 
L 146.188792 284.969739 
L 146.292466 288.475826 
L 146.327117 284.969739 
L 146.396557 288.475826 
L 146.711348 288.475826 
L 146.852475 284.969739 
L 146.994357 288.475826 
L 147.101267 288.475826 
L 147.136999 284.969739 
L 147.208605 288.475826 
L 147.388457 288.475826 
L 147.533202 284.969739 
L 147.605865 284.969739 
L 147.642268 288.475826 
L 147.71522 284.969739 
L 147.861708 284.969739 
L 147.935243 288.475826 
L 147.972085 284.969739 
L 148.082902 284.969739 
L 148.19416 288.475826 
L 148.268579 288.475826 
L 148.343195 284.969739 
L 148.380577 288.475826 
L 148.418008 284.969739 
L 148.45549 284.969739 
L 148.530601 288.475826 
L 148.605911 284.969739 
L 148.71925 288.475826 
L 148.909151 288.475826 
L 148.947281 284.969739 
L 148.985462 288.475826 
L 149.023694 288.475826 
L 149.061976 284.969739 
L 149.100309 288.475826 
L 149.138692 288.475826 
L 149.254145 284.969739 
L 149.486427 284.969739 
L 149.525319 288.475826 
L 149.564263 284.969739 
L 149.720551 284.969739 
L 149.838308 288.475826 
L 149.877663 288.475826 
L 149.996041 284.969739 
L 150.154606 284.969739 
L 150.194378 288.475826 
L 150.234202 284.969739 
L 150.474246 284.969739 
L 150.514438 288.475826 
L 150.554682 284.969739 
L 150.635329 284.969739 
L 150.675732 288.475826 
L 150.716188 284.969739 
L 150.79726 284.969739 
L 150.837875 288.475826 
L 150.878544 284.969739 
L 150.960041 284.969739 
L 151.00087 288.475826 
L 151.041753 284.969739 
L 151.495011 284.969739 
L 151.536541 281.463652 
L 151.578126 284.969739 
L 151.619764 288.475826 
L 151.661458 284.969739 
L 151.786865 284.969739 
L 151.828777 288.475826 
L 151.870744 284.969739 
L 152.039162 284.969739 
L 152.081404 288.475826 
L 152.123702 284.969739 
L 152.166055 284.969739 
L 152.293446 281.463652 
L 152.378652 281.463652 
L 152.506879 284.969739 
L 152.549733 284.969739 
L 152.678632 281.463652 
L 152.721711 284.969739 
L 152.764846 281.463652 
L 152.808038 281.463652 
L 152.851286 284.969739 
L 152.89459 281.463652 
L 153.068376 281.463652 
L 153.199314 284.969739 
L 153.243074 284.969739 
L 153.286891 281.463652 
L 153.330765 284.969739 
L 153.506838 284.969739 
L 153.639499 281.463652 
L 153.683835 284.969739 
L 153.728229 281.463652 
L 154.040619 281.463652 
L 154.08548 284.969739 
L 154.1304 281.463652 
L 154.220416 281.463652 
L 154.265513 284.969739 
L 154.310669 281.463652 
L 154.446491 281.463652 
L 154.537337 284.969739 
L 154.628421 281.463652 
L 154.674052 288.475826 
L 154.719744 281.463652 
L 154.995155 281.463652 
L 155.133675 284.969739 
L 155.272743 277.957565 
L 155.412022 284.969739 
L 155.504872 281.463652 
L 155.64414 284.969739 
L 155.7834 281.463652 
L 155.922654 284.969739 
L 156.061901 284.969739 
L 156.201143 281.463652 
L 156.340381 284.969739 
L 156.850898 284.969739 
L 156.99013 281.463652 
L 157.036541 281.463652 
L 157.175777 284.969739 
L 157.22219 281.463652 
L 157.268603 284.969739 
L 157.315017 284.969739 
L 157.454263 281.463652 
L 157.593517 284.969739 
L 157.639937 284.969739 
L 157.779204 281.463652 
L 157.872056 281.463652 
L 157.964913 284.969739 
L 158.057776 281.463652 
L 158.10421 284.969739 
L 158.150646 281.463652 
L 158.197084 281.463652 
L 158.289965 284.969739 
L 158.382855 281.463652 
L 158.522207 284.969739 
L 158.568663 281.463652 
L 158.615121 284.969739 
L 158.893928 284.969739 
L 158.940406 281.463652 
L 158.986887 284.969739 
L 159.033372 284.969739 
L 159.172847 281.463652 
L 159.265848 281.463652 
L 159.312354 284.969739 
L 159.358865 281.463652 
L 159.405379 281.463652 
L 159.544946 284.969739 
L 159.638013 284.969739 
L 159.731098 281.463652 
L 159.870761 284.969739 
L 160.010469 284.969739 
L 160.103634 281.463652 
L 160.243423 284.969739 
L 160.336644 284.969739 
L 160.42989 281.463652 
L 160.569805 284.969739 
L 160.616456 284.969739 
L 160.663114 281.463652 
L 160.709779 284.969739 
L 160.803129 284.969739 
L 160.849814 281.463652 
L 160.896507 284.969739 
L 161.036628 284.969739 
L 161.083351 281.463652 
L 161.13008 284.969739 
L 161.176818 284.969739 
L 161.317079 281.463652 
L 161.785168 281.463652 
L 161.832027 284.969739 
L 161.878895 281.463652 
L 161.925773 281.463652 
L 161.97266 284.969739 
L 162.019557 281.463652 
L 162.207247 281.463652 
L 162.348123 284.969739 
L 162.489097 281.463652 
L 162.630159 281.463652 
L 162.677207 284.969739 
L 162.724267 281.463652 
L 162.818421 281.463652 
L 162.912624 284.969739 
L 163.006876 281.463652 
L 163.05402 284.969739 
L 163.101178 281.463652 
L 163.148348 281.463652 
L 163.195531 284.969739 
L 163.242727 281.463652 
L 163.526184 281.463652 
L 163.629716 284.969739 
L 163.703367 256.921043 
L 163.731084 281.463652 
L 163.871096 288.475826 
L 164.097304 288.475826 
L 164.211423 291.981913 
L 164.733375 291.981913 
L 164.851253 295.488 
L 165.26931 295.488 
L 165.390337 291.981913 
L 166.801666 291.981913 
L 166.83409 288.475826 
L 166.899077 291.981913 
L 167.226851 291.981913 
L 167.292976 288.475826 
L 167.326111 291.981913 
L 167.559394 291.981913 
L 167.626479 288.475826 
L 167.660094 291.981913 
L 167.930764 291.981913 
L 167.998919 288.475826 
L 168.03307 291.981913 
L 168.101519 291.981913 
L 168.135817 288.475826 
L 168.204561 291.981913 
L 168.308046 291.981913 
L 168.44672 288.475826 
L 168.551246 288.475826 
L 168.586188 291.981913 
L 168.656221 288.475826 
L 169.044992 288.475826 
L 169.080637 291.981913 
L 169.152079 288.475826 
L 169.187877 288.475826 
L 169.223725 291.981913 
L 169.295574 288.475826 
L 173.994497 288.475826 
L 174.122138 284.969739 
L 174.164799 284.969739 
L 174.250294 288.475826 
L 174.378966 284.969739 
L 174.465035 284.969739 
L 174.508156 288.475826 
L 174.551334 284.969739 
L 174.59457 284.969739 
L 174.637864 288.475826 
L 174.681216 284.969739 
L 174.768094 284.969739 
L 174.898845 288.475826 
L 174.942545 288.475826 
L 175.073994 284.969739 
L 175.117927 284.969739 
L 175.161918 288.475826 
L 175.205968 284.969739 
L 175.294243 284.969739 
L 175.427095 288.475826 
L 175.515957 284.969739 
L 175.605055 288.475826 
L 175.739143 284.969739 
L 175.783958 284.969739 
L 175.828831 288.475826 
L 175.873764 284.969739 
L 176.60079 284.969739 
L 176.646739 288.475826 
L 176.692747 284.969739 
L 176.784945 284.969739 
L 176.831135 281.463652 
L 176.877385 284.969739 
L 177.016498 284.969739 
L 177.06299 281.463652 
L 177.109543 284.969739 
L 177.767699 284.969739 
L 177.815171 281.463652 
L 177.862704 284.969739 
L 177.957956 284.969739 
L 178.101298 281.463652 
L 178.245198 284.969739 
L 178.341443 284.969739 
L 178.486279 281.463652 
L 178.583149 284.969739 
L 178.728924 281.463652 
L 178.777642 284.969739 
L 178.826422 281.463652 
L 178.924173 281.463652 
L 179.071272 284.969739 
L 179.120432 281.463652 
L 179.169656 284.969739 
L 179.367185 284.969739 
L 179.416727 281.463652 
L 179.466333 284.969739 
L 179.565736 284.969739 
L 179.665395 281.463652 
L 179.815367 284.969739 
L 179.865486 284.969739 
L 179.91567 281.463652 
L 179.965918 284.969739 
L 180.066609 284.969739 
L 180.218132 281.463652 
L 180.370241 284.969739 
L 180.471973 284.969739 
L 180.625062 281.463652 
L 180.676223 281.463652 
L 180.72745 284.969739 
L 180.778742 281.463652 
L 180.830101 281.463652 
L 180.881525 284.969739 
L 180.933016 281.463652 
L 181.087886 281.463652 
L 181.191464 284.969739 
L 181.347331 281.463652 
L 181.5038 281.463652 
L 181.608449 284.969739 
L 181.765926 281.463652 
L 181.924011 281.463652 
L 181.976842 284.969739 
L 182.029741 281.463652 
L 182.082707 281.463652 
L 182.242016 284.969739 
L 182.401941 281.463652 
L 182.723648 281.463652 
L 182.831437 284.969739 
L 182.939504 281.463652 
L 183.04785 284.969739 
L 183.210893 281.463652 
L 183.374568 281.463652 
L 183.484037 284.969739 
L 183.648772 281.463652 
L 184.035646 281.463652 
L 184.091201 284.969739 
L 184.202526 281.463652 
L 184.650724 281.463652 
L 184.707077 274.451478 
L 184.819842 281.463652 
L 184.932491 281.463652 
L 184.988772 284.969739 
L 185.045024 281.463652 
L 185.101248 284.969739 
L 185.21361 281.463652 
L 186.331483 281.463652 
L 186.387124 284.969739 
L 186.49834 281.463652 
L 186.720514 281.463652 
L 186.776005 284.969739 
L 186.831477 281.463652 
L 187.440401 281.463652 
L 187.49565 277.957565 
L 187.550882 281.463652 
L 187.606098 281.463652 
L 187.661297 284.969739 
L 187.716481 281.463652 
L 187.771648 281.463652 
L 187.8268 277.957565 
L 187.838615 284.969739 
L 188.159312 183.293217 
L 188.279629 288.475826 
L 189.019936 288.475826 
L 189.146116 291.981913 
L 190.019233 291.981913 
L 190.151807 295.488 
L 190.89619 295.488 
L 191.034339 291.981913 
L 192.46467 291.981913 
L 192.538561 288.475826 
L 192.575593 291.981913 
L 192.612682 291.981913 
L 192.724296 288.475826 
L 192.761617 288.475826 
L 192.873925 291.981913 
L 192.911477 291.981913 
L 192.986756 288.475826 
L 193.100111 291.981913 
L 193.213993 288.475826 
L 193.328402 288.475826 
L 193.366656 291.981913 
L 193.404968 288.475826 
L 193.44334 288.475826 
L 193.481771 291.981913 
L 193.52026 288.475826 
L 198.081564 288.475826 
L 198.126867 284.969739 
L 198.172234 288.475826 
L 198.906899 288.475826 
L 198.999901 284.969739 
L 199.139892 288.475826 
L 199.233545 288.475826 
L 199.32746 284.969739 
L 199.468823 288.475826 
L 199.563393 284.969739 
L 199.610776 288.475826 
L 199.658225 284.969739 
L 199.705739 284.969739 
L 199.848677 288.475826 
L 199.992207 284.969739 
L 200.088224 284.969739 
L 200.232743 288.475826 
L 200.281048 284.969739 
L 200.32942 288.475826 
L 200.474931 288.475826 
L 200.621039 284.969739 
L 200.669874 284.969739 
L 200.718776 288.475826 
L 200.767744 284.969739 
L 200.964283 284.969739 
L 201.013584 288.475826 
L 201.062951 284.969739 
L 201.26109 284.969739 
L 201.410395 288.475826 
L 201.560304 284.969739 
L 201.660578 284.969739 
L 201.710816 288.475826 
L 201.761121 284.969739 
L 201.963013 284.969739 
L 202.064364 288.475826 
L 202.216895 284.969739 
L 202.421216 284.969739 
L 202.472466 288.475826 
L 202.523783 284.969739 
L 203.040691 284.969739 
L 203.092756 288.475826 
L 203.14489 284.969739 
L 203.3017 284.969739 
L 203.406582 288.475826 
L 203.564419 284.969739 
L 203.935109 284.969739 
L 203.98834 281.463652 
L 204.04164 284.969739 
L 204.095009 284.969739 
L 204.148447 281.463652 
L 204.201954 284.969739 
L 204.849449 284.969739 
L 204.958339 281.463652 
L 205.122197 284.969739 
L 205.286686 281.463652 
L 205.451806 284.969739 
L 205.506987 284.969739 
L 205.672951 281.463652 
L 205.728413 284.969739 
L 205.783946 281.463652 
L 206.062672 281.463652 
L 206.11863 277.957565 
L 206.230759 284.969739 
L 206.343172 281.463652 
L 206.399486 281.463652 
L 206.455871 277.957565 
L 206.568854 281.463652 
L 206.625454 281.463652 
L 206.682124 277.957565 
L 206.738867 281.463652 
L 206.795681 277.957565 
L 206.909524 281.463652 
L 206.966554 281.463652 
L 207.080829 277.957565 
L 207.138075 281.463652 
L 207.252783 277.957565 
L 207.310245 281.463652 
L 207.36778 277.957565 
L 207.540819 284.969739 
L 207.656542 281.463652 
L 207.772557 284.969739 
L 207.830673 277.957565 
L 207.888863 281.463652 
L 208.415869 281.463652 
L 208.533792 277.957565 
L 208.651873 281.463652 
L 208.710943 281.463652 
L 208.770033 284.969739 
L 208.888273 281.463652 
L 209.184235 281.463652 
L 209.302769 277.957565 
L 209.362069 284.969739 
L 209.421391 281.463652 
L 209.480736 281.463652 
L 209.540103 277.957565 
L 209.658905 281.463652 
L 209.718342 281.463652 
L 209.777801 284.969739 
L 209.956322 277.957565 
L 210.075458 277.957565 
L 210.194692 284.969739 
L 210.314026 277.957565 
L 210.373732 277.957565 
L 210.49322 281.463652 
L 210.553004 281.463652 
L 210.612813 277.957565 
L 210.67265 281.463652 
L 210.732513 277.957565 
L 210.792403 281.463652 
L 210.852321 277.957565 
L 210.972238 281.463652 
L 211.032239 281.463652 
L 211.152324 277.957565 
L 211.272524 281.463652 
L 211.392839 281.463652 
L 211.513272 277.957565 
L 211.633823 281.463652 
L 211.694145 281.463652 
L 211.754496 277.957565 
L 211.875291 281.463652 
L 211.935735 277.957565 
L 211.996211 281.463652 
L 212.016486 277.957565 
L 212.063313 274.451478 
L 212.218865 288.475826 
L 212.694233 288.475826 
L 212.823119 291.981913 
L 213.921392 291.981913 
L 214.058863 295.488 
L 214.26688 295.488 
L 214.301762 284.969739 
L 214.371708 288.475826 
L 214.4419 288.475826 
L 214.583024 291.981913 
L 214.725139 288.475826 
L 214.868251 291.981913 
L 216.125835 291.981913 
L 216.240402 295.488 
L 216.432673 295.488 
L 216.471327 288.475826 
L 216.548834 291.981913 
L 216.665596 295.488 
L 216.704651 295.488 
L 216.82222 291.981913 
L 217.743916 291.981913 
L 217.86682 288.475826 
L 217.99035 291.981913 
L 218.073052 291.981913 
L 218.114508 288.475826 
L 218.156034 291.981913 
L 218.19763 291.981913 
L 218.322839 288.475826 
L 218.406663 288.475826 
L 218.448681 291.981913 
L 218.490769 288.475826 
L 218.575157 288.475826 
L 218.617458 291.981913 
L 218.659829 288.475826 
L 218.787368 288.475826 
L 218.830023 291.981913 
L 218.872749 288.475826 
L 218.958415 288.475826 
L 219.001356 291.981913 
L 219.044367 288.475826 
L 223.513805 288.475826 
L 223.61421 284.969739 
L 223.765384 288.475826 
L 223.815926 284.969739 
L 223.866543 288.475826 
L 224.2742 288.475826 
L 224.428317 284.969739 
L 224.634866 284.969739 
L 224.790571 288.475826 
L 224.946958 284.969739 
L 224.999239 284.969739 
L 225.051595 288.475826 
L 225.104027 284.969739 
L 229.078572 284.969739 
L 229.136549 281.463652 
L 229.252732 284.969739 
L 229.603109 284.969739 
L 229.661772 281.463652 
L 229.720511 284.969739 
L 229.779327 281.463652 
L 229.897187 284.969739 
L 229.956231 281.463652 
L 230.015352 284.969739 
L 230.133822 281.463652 
L 230.193172 281.463652 
L 230.3121 284.969739 
L 230.431335 284.969739 
L 230.491066 281.463652 
L 230.550875 284.969739 
L 230.610759 281.463652 
L 230.67072 284.969739 
L 230.730758 281.463652 
L 230.790872 284.969739 
L 230.91133 281.463652 
L 231.153165 281.463652 
L 231.213816 284.969739 
L 231.335346 281.463652 
L 232.502216 281.463652 
L 232.563845 277.957565 
L 232.68711 281.463652 
L 233.303634 281.463652 
L 233.365312 277.957565 
L 233.488683 281.463652 
L 234.291288 281.463652 
L 234.353086 277.957565 
L 234.476712 281.463652 
L 234.600378 281.463652 
L 234.662227 284.969739 
L 234.785958 277.957565 
L 234.84784 281.463652 
L 234.971641 277.957565 
L 235.095491 281.463652 
L 235.343345 281.463652 
L 235.405342 277.957565 
L 235.467353 281.463652 
L 235.591418 277.957565 
L 235.653473 281.463652 
L 235.715542 277.957565 
L 235.839727 281.463652 
L 235.901842 281.463652 
L 235.963974 277.957565 
L 236.088286 281.463652 
L 236.168365 281.463652 
L 236.226986 270.945391 
L 236.259155 281.463652 
L 236.42163 288.475826 
L 236.884674 288.475826 
L 237.01917 291.981913 
L 237.154652 291.981913 
L 237.256914 288.475826 
L 237.394138 291.981913 
L 238.712208 291.981913 
L 238.860131 295.488 
L 239.348465 295.488 
L 239.462827 291.981913 
L 241.214948 291.981913 
L 241.33968 288.475826 
L 243.892432 288.475826 
L 243.985436 281.463652 
L 244.125586 288.475826 
L 244.408224 288.475826 
L 244.455634 291.981913 
L 244.503131 288.475826 
L 247.832791 288.475826 
L 247.886222 284.969739 
L 247.939743 288.475826 
L 248.208689 288.475826 
L 248.371131 284.969739 
L 248.425457 288.475826 
L 248.479873 284.969739 
L 248.534378 284.969739 
L 248.643657 288.475826 
L 248.808246 284.969739 
L 248.97364 284.969739 
L 249.08435 288.475826 
L 249.195417 284.969739 
L 250.383163 284.969739 
L 250.440701 288.475826 
L 250.556043 284.969739 
L 251.079471 284.969739 
L 251.138071 288.475826 
L 251.255538 284.969739 
L 253.059673 284.969739 
L 253.121163 281.463652 
L 253.244404 284.969739 
L 253.306154 284.969739 
L 253.367991 281.463652 
L 253.491924 284.969739 
L 253.616202 281.463652 
L 253.678471 281.463652 
L 253.740826 284.969739 
L 253.803267 281.463652 
L 253.928407 284.969739 
L 254.116763 284.969739 
L 254.17972 281.463652 
L 254.305891 284.969739 
L 254.68646 284.969739 
L 254.814 281.463652 
L 254.877898 284.969739 
L 254.941881 281.463652 
L 255.005949 284.969739 
L 255.070103 281.463652 
L 255.134341 284.969739 
L 255.198664 281.463652 
L 255.263073 284.969739 
L 255.392144 281.463652 
L 255.651305 281.463652 
L 255.716307 277.957565 
L 255.846564 281.463652 
L 255.977159 281.463652 
L 256.042584 277.957565 
L 256.173685 281.463652 
L 256.305123 281.463652 
L 256.370969 284.969739 
L 256.502912 281.463652 
L 256.56897 284.969739 
L 256.701012 281.463652 
L 256.832959 281.463652 
L 256.898899 277.957565 
L 257.03071 284.969739 
L 257.162435 281.463652 
L 257.228266 281.463652 
L 257.294076 284.969739 
L 257.425638 281.463652 
L 257.557124 281.463652 
L 257.622839 277.957565 
L 257.754217 284.969739 
L 257.885526 281.463652 
L 258.147951 281.463652 
L 258.21352 277.957565 
L 258.344615 281.463652 
L 258.541156 281.463652 
L 258.606645 284.969739 
L 258.728523 281.463652 
L 258.859417 281.463652 
L 258.924851 277.957565 
L 259.055687 281.463652 
L 259.251871 281.463652 
L 259.317249 277.957565 
L 259.447979 281.463652 
L 259.513333 277.957565 
L 259.57868 284.969739 
L 259.644021 281.463652 
L 259.709355 277.957565 
L 259.840005 281.463652 
L 260.035942 281.463652 
L 260.101245 277.957565 
L 260.23184 284.969739 
L 260.297133 270.945391 
L 260.331117 281.463652 
L 260.499287 288.475826 
L 261.013902 288.475826 
L 261.153656 291.981913 
L 261.223935 288.475826 
L 261.259176 291.981913 
L 261.294483 291.981913 
L 261.329859 288.475826 
L 261.400813 291.981913 
L 263.581419 291.981913 
L 263.700964 295.488 
L 264.063781 295.488 
L 264.145268 291.981913 
L 264.22707 295.488 
L 264.350367 291.981913 
L 265.190898 291.981913 
L 265.319808 288.475826 
L 265.362945 288.475826 
L 265.44947 291.981913 
L 265.492858 288.475826 
L 265.536331 291.981913 
L 265.667254 291.981913 
L 265.711065 288.475826 
L 265.75496 291.981913 
L 265.798941 291.981913 
L 265.843007 288.475826 
L 265.887158 291.981913 
L 266.15387 291.981913 
L 266.198625 288.475826 
L 266.243466 291.981913 
L 266.288394 291.981913 
L 266.423701 288.475826 
L 266.559797 288.475826 
L 266.605338 291.981913 
L 266.650968 288.475826 
L 266.696686 288.475826 
L 266.788388 291.981913 
L 266.926609 288.475826 
L 269.505405 288.475826 
L 269.556638 284.969739 
L 269.60797 288.475826 
L 270.179167 288.475826 
L 270.33705 284.969739 
L 270.44281 284.969739 
L 270.495842 288.475826 
L 270.548975 284.969739 
L 270.708986 284.969739 
L 270.762527 288.475826 
L 270.81617 284.969739 
L 270.869916 284.969739 
L 270.923765 288.475826 
L 270.977717 284.969739 
L 271.194554 284.969739 
L 271.249023 288.475826 
L 271.303595 284.969739 
L 272.70213 284.969739 
L 272.75946 288.475826 
L 272.874445 284.969739 
L 272.932101 284.969739 
L 272.989865 277.957565 
L 273.163807 288.475826 
L 273.280316 284.969739 
L 273.338734 284.969739 
L 273.455897 288.475826 
L 273.573497 284.969739 
L 273.691533 284.969739 
L 273.750714 288.475826 
L 273.810005 284.969739 
L 273.869404 288.475826 
L 273.988528 284.969739 
L 277.041625 284.969739 
L 277.106588 281.463652 
L 277.236826 284.969739 
L 277.367481 284.969739 
L 277.432965 281.463652 
L 277.564243 284.969739 
L 278.093482 284.969739 
L 278.226818 281.463652 
L 278.360563 281.463652 
L 278.427589 284.969739 
L 278.494716 281.463652 
L 278.561944 284.969739 
L 278.629274 281.463652 
L 278.764237 284.969739 
L 278.83187 284.969739 
L 278.899604 281.463652 
L 279.035374 284.969739 
L 279.103409 281.463652 
L 279.171545 284.969739 
L 279.239781 281.463652 
L 279.376552 284.969739 
L 279.445087 281.463652 
L 279.513722 284.969739 
L 279.651288 281.463652 
L 279.72022 281.463652 
L 279.789251 284.969739 
L 279.858381 281.463652 
L 279.996936 284.969739 
L 280.135883 281.463652 
L 280.275223 281.463652 
L 280.345039 284.969739 
L 280.484964 281.463652 
L 280.555072 281.463652 
L 280.625277 284.969739 
L 280.765978 281.463652 
L 281.119418 281.463652 
L 281.190394 284.969739 
L 281.332632 281.463652 
L 281.475253 281.463652 
L 281.546706 277.957565 
L 281.618253 281.463652 
L 281.689896 277.957565 
L 281.833464 281.463652 
L 282.264267 281.463652 
L 282.335874 277.957565 
L 282.478926 281.463652 
L 282.835643 281.463652 
L 282.906836 277.957565 
L 282.97798 281.463652 
L 283.049076 277.957565 
L 283.191128 281.463652 
L 283.262084 277.957565 
L 283.332996 281.463652 
L 283.474685 277.957565 
L 283.616201 281.463652 
L 283.898734 281.463652 
L 283.969267 277.957565 
L 284.110217 281.463652 
L 284.180635 281.463652 
L 284.251016 277.957565 
L 284.340699 281.463652 
L 284.402415 274.451478 
L 284.436898 281.463652 
L 284.61128 288.475826 
L 285.109077 288.475826 
L 285.25389 291.981913 
L 285.326732 288.475826 
L 285.363263 291.981913 
L 285.436543 291.981913 
L 285.510116 288.475826 
L 285.547013 291.981913 
L 285.583984 291.981913 
L 285.621029 288.475826 
L 285.658148 291.981913 
L 288.493678 291.981913 
L 288.622669 295.488 
L 288.883015 295.488 
L 289.014381 291.981913 
L 290.607535 291.981913 
L 290.749428 288.475826 
L 290.796919 288.475826 
L 290.844505 291.981913 
L 290.892188 288.475826 
L 290.987845 288.475826 
L 291.03582 291.981913 
L 291.083891 288.475826 
L 291.325716 288.475826 
L 291.374376 291.981913 
L 291.423134 288.475826 
L 291.520948 288.475826 
L 291.570004 291.981913 
L 291.619159 288.475826 
L 291.816778 288.475826 
L 291.866433 291.981913 
L 291.916189 288.475826 
L 294.646787 288.475826 
L 294.75761 284.969739 
L 294.868877 288.475826 
L 295.036611 288.475826 
L 295.092745 284.969739 
L 295.148992 288.475826 
L 295.261822 284.969739 
L 295.832749 284.969739 
L 295.890467 288.475826 
L 296.006247 284.969739 
L 299.181815 284.969739 
L 299.310483 281.463652 
L 299.439647 284.969739 
L 299.504416 284.969739 
L 299.569309 281.463652 
L 299.699469 284.969739 
L 299.83013 284.969739 
L 299.895649 281.463652 
L 300.027063 284.969739 
L 300.15898 284.969739 
L 300.225128 281.463652 
L 300.291402 284.969739 
L 300.424331 281.463652 
L 301.096611 281.463652 
L 301.164543 284.969739 
L 301.300793 281.463652 
L 301.643677 281.463652 
L 301.712643 277.957565 
L 301.850959 284.969739 
L 302.409417 284.969739 
L 302.479805 281.463652 
L 302.55032 284.969739 
L 302.620963 281.463652 
L 302.762631 284.969739 
L 302.833656 281.463652 
L 302.976087 284.969739 
L 303.047492 284.969739 
L 303.19068 281.463652 
L 303.334371 284.969739 
L 303.623253 284.969739 
L 303.768439 281.463652 
L 304.28047 281.463652 
L 304.354106 284.969739 
L 304.501742 281.463652 
L 304.798461 281.463652 
L 304.87294 284.969739 
L 305.022257 281.463652 
L 306.00428 281.463652 
L 306.080632 277.957565 
L 306.233679 281.463652 
L 306.310374 281.463652 
L 306.464103 277.957565 
L 306.618284 281.463652 
L 306.695542 277.957565 
L 306.850395 281.463652 
L 306.927989 277.957565 
L 307.005694 281.463652 
L 307.083509 277.957565 
L 307.161435 281.463652 
L 307.23947 277.957565 
L 307.395871 281.463652 
L 307.552708 277.957565 
L 307.631289 281.463652 
L 307.709978 277.957565 
L 307.788776 281.463652 
L 307.946608 277.957565 
L 308.261271 277.957565 
L 308.363417 281.463652 
L 308.416215 274.451478 
L 308.451736 281.463652 
L 308.631318 288.475826 
L 309.331182 288.475826 
L 309.444264 291.981913 
L 309.558056 288.475826 
L 309.596145 288.475826 
L 309.634313 291.981913 
L 309.672561 288.475826 
L 309.749297 288.475826 
L 309.787785 291.981913 
L 309.826354 288.475826 
L 309.942543 288.475826 
L 310.059463 291.981913 
L 310.177118 291.981913 
L 310.216501 288.475826 
L 310.255966 291.981913 
L 310.295513 291.981913 
L 310.374858 288.475826 
L 310.454535 291.981913 
L 310.574679 288.475826 
L 310.695581 291.981913 
L 310.776606 291.981913 
L 310.817247 288.475826 
L 310.857973 291.981913 
L 311.021735 291.981913 
L 311.062891 288.475826 
L 311.104134 291.981913 
L 311.145463 291.981913 
L 311.18688 288.475826 
L 311.228384 291.981913 
L 311.353422 291.981913 
L 311.395277 288.475826 
L 311.437221 291.981913 
L 315.297461 291.981913 
L 315.347691 288.475826 
L 315.398027 291.981913 
L 315.600447 291.981913 
L 315.651322 288.475826 
L 315.702304 291.981913 
L 315.753395 291.981913 
L 315.90732 288.475826 
L 319.025313 288.475826 
L 319.08342 284.969739 
L 319.141649 288.475826 
L 319.2 284.969739 
L 319.317067 288.475826 
L 319.493586 288.475826 
L 319.552671 284.969739 
L 319.61188 288.475826 
L 319.671212 284.969739 
L 319.730667 288.475826 
L 319.790247 284.969739 
L 319.84995 288.475826 
L 319.909777 284.969739 
L 319.969729 288.475826 
L 320.090006 284.969739 
L 320.210783 284.969739 
L 320.271359 288.475826 
L 320.392889 284.969739 
L 323.666256 284.969739 
L 323.733879 281.463652 
L 323.801638 284.969739 
L 323.869532 281.463652 
L 324.005729 284.969739 
L 324.142469 284.969739 
L 324.211044 281.463652 
L 324.348604 284.969739 
L 324.417589 284.969739 
L 324.486711 281.463652 
L 324.625367 284.969739 
L 324.764573 281.463652 
L 324.834383 281.463652 
L 324.974417 284.969739 
L 325.115005 284.969739 
L 325.256147 281.463652 
L 325.397846 281.463652 
L 325.468904 284.969739 
L 325.611438 281.463652 
L 326.845681 281.463652 
L 326.919558 277.957565 
L 327.067673 281.463652 
L 328.548987 281.463652 
L 328.623051 284.969739 
L 328.771187 281.463652 
L 329.141677 281.463652 
L 329.215771 277.957565 
L 329.363976 281.463652 
L 330.10541 281.463652 
L 330.259791 277.957565 
L 330.340118 277.957565 
L 330.581999 284.969739 
L 330.743992 281.463652 
L 331.397774 281.463652 
L 331.480142 277.957565 
L 331.645302 281.463652 
L 331.728093 277.957565 
L 331.811024 281.463652 
L 331.894094 277.957565 
L 331.977304 281.463652 
L 332.060651 277.957565 
L 332.227759 281.463652 
L 332.358629 274.451478 
L 332.545579 288.475826 
L 333.300271 288.475826 
L 333.338715 291.981913 
L 333.377429 288.475826 
L 334.953442 288.475826 
L 334.964724 291.981913 
L 335.049332 288.475826 
L 336.590449 288.475826 
L 336.728163 291.981913 
L 336.866793 288.475826 
L 336.959726 288.475826 
L 337.0999 291.981913 
L 337.38306 291.981913 
L 337.430621 288.475826 
L 337.478287 291.981913 
L 340.270074 291.981913 
L 340.432401 288.475826 
L 340.650527 288.475826 
L 340.705362 291.981913 
L 340.760319 288.475826 
L 343.546532 288.475826 
L 343.607767 284.969739 
L 343.669136 288.475826 
L 343.73064 284.969739 
L 343.854051 288.475826 
L 343.978002 284.969739 
L 344.353115 284.969739 
L 344.479246 288.475826 
L 344.605926 284.969739 
L 347.050722 284.969739 
L 347.119516 281.463652 
L 347.257541 284.969739 
L 347.815496 284.969739 
L 347.956457 281.463652 
L 348.027159 281.463652 
L 348.098008 284.969739 
L 348.240153 281.463652 
L 348.311448 281.463652 
L 348.382892 284.969739 
L 348.526227 281.463652 
L 348.598118 284.969739 
L 348.742349 281.463652 
L 348.959819 281.463652 
L 349.03261 284.969739 
L 349.178643 281.463652 
L 349.398824 281.463652 
L 349.47252 284.969739 
L 349.694517 277.957565 
L 349.843275 281.463652 
L 351.82003 281.463652 
L 351.896405 277.957565 
L 352.049092 281.463652 
L 353.952084 281.463652 
L 354.028043 277.957565 
L 354.179935 281.463652 
L 354.48363 281.463652 
L 354.559538 277.957565 
L 354.63544 281.463652 
L 354.711336 277.957565 
L 354.787228 281.463652 
L 354.863116 277.957565 
L 355.014879 281.463652 
L 355.090755 277.957565 
L 355.166629 281.463652 
L 355.318369 277.957565 
L 355.470102 281.463652 
L 355.545967 277.957565 
L 355.697696 281.463652 
L 356.304646 281.463652 
L 356.318616 284.969739 
L 356.717709 186.799304 
L 356.832406 284.969739 
L 356.948483 288.475826 
L 357.341079 288.475826 
L 357.460577 291.981913 
L 357.500588 288.475826 
L 357.540688 291.981913 
L 357.661528 291.981913 
L 357.742539 288.475826 
L 357.823913 291.981913 
L 357.94666 288.475826 
L 357.987597 291.981913 
L 358.028819 288.475826 
L 358.403732 288.475826 
L 358.488082 291.981913 
L 358.61532 288.475826 
L 358.872395 288.475826 
L 359.002246 291.981913 
L 359.089303 284.969739 
L 359.132977 288.475826 
L 362.40121 288.475826 
L 362.503909 291.981913 
L 362.555437 288.475826 
L 362.607085 291.981913 
L 365.23272 291.981913 
L 365.290596 288.475826 
L 365.406752 291.981913 
L 365.465032 288.475826 
L 365.523448 291.981913 
L 365.640688 288.475826 
L 367.974535 288.475826 
L 368.038756 284.969739 
L 368.16764 288.475826 
L 368.232304 284.969739 
L 368.297117 288.475826 
L 368.427188 284.969739 
L 368.492447 284.969739 
L 368.557855 288.475826 
L 368.689121 284.969739 
L 368.887148 284.969739 
L 368.953458 288.475826 
L 369.086533 284.969739 
L 372.24497 284.969739 
L 372.318816 281.463652 
L 372.392824 284.969739 
L 372.541329 281.463652 
L 372.690485 284.969739 
L 372.840296 281.463652 
L 372.915447 284.969739 
L 372.990762 281.463652 
L 373.066241 284.969739 
L 373.217693 281.463652 
L 373.752974 281.463652 
L 373.830105 284.969739 
L 373.984867 281.463652 
L 376.36951 281.463652 
L 376.449324 277.957565 
L 376.608812 281.463652 
L 377.086214 281.463652 
L 377.165633 277.957565 
L 377.32435 281.463652 
L 377.799582 281.463652 
L 377.87866 277.957565 
L 377.957703 281.463652 
L 378.036712 277.957565 
L 378.19463 281.463652 
L 378.431265 281.463652 
L 378.510082 277.957565 
L 378.667625 281.463652 
L 378.903724 281.463652 
L 378.982369 277.957565 
L 379.139579 281.463652 
L 379.218145 281.463652 
L 379.296687 277.957565 
L 379.453696 281.463652 
L 379.689036 281.463652 
L 379.767439 277.957565 
L 379.845819 281.463652 
L 380.002519 277.957565 
L 380.15914 281.463652 
L 380.237422 281.463652 
L 380.250643 284.969739 
L 380.733028 183.293217 
L 380.850863 284.969739 
L 380.97022 288.475826 
L 381.53823 288.475826 
L 381.579506 291.981913 
L 381.620877 288.475826 
L 383.220671 288.475826 
L 383.265851 291.981913 
L 383.311137 288.475826 
L 383.677268 288.475826 
L 383.816349 291.981913 
L 383.909616 291.981913 
L 384.050341 288.475826 
L 384.192065 291.981913 
L 384.287106 291.981913 
L 384.334794 288.475826 
L 384.382596 291.981913 
L 387.140218 291.981913 
L 387.19472 288.475826 
L 387.249354 291.981913 
L 387.304118 291.981913 
L 387.469205 288.475826 
L 387.802979 288.475826 
L 387.859079 284.969739 
L 387.971681 288.475826 
L 388.084829 288.475826 
L 388.198526 291.981913 
L 390.217909 291.981913 
L 390.279853 288.475826 
L 390.404192 291.981913 
L 390.466587 291.981913 
L 390.59183 288.475826 
L 390.65468 291.981913 
L 390.780835 288.475826 
L 392.816073 288.475826 
L 392.95266 284.969739 
L 393.021199 284.969739 
L 393.158769 288.475826 
L 393.297 284.969739 
L 396.741164 284.969739 
L 396.818637 281.463652 
L 396.974121 284.969739 
L 397.052132 284.969739 
L 397.130323 281.463652 
L 397.208693 284.969739 
L 397.287244 281.463652 
L 397.444887 284.969739 
L 397.52398 281.463652 
L 397.682708 284.969739 
L 397.842163 281.463652 
L 398.487273 281.463652 
L 398.487273 281.463652 
" style="fill:none;stroke:#1f77b4;stroke-linecap:square;stroke-width:1.5;"/>
   </g>
   <g id="patch_3">
    <path d="M 57.6 307.584 
L 57.6 41.472 
" style="fill:none;stroke:#000000;stroke-linecap:square;stroke-linejoin:miter;stroke-width:0.8;"/>
   </g>
   <g id="patch_4">
    <path d="M 414.72 307.584 
L 414.72 41.472 
" style="fill:none;stroke:#000000;stroke-linecap:square;stroke-linejoin:miter;stroke-width:0.8;"/>
   </g>
   <g id="patch_5">
    <path d="M 57.6 307.584 
L 414.72 307.584 
" style="fill:none;stroke:#000000;stroke-linecap:square;stroke-linejoin:miter;stroke-width:0.8;"/>
   </g>
   <g id="patch_6">
    <path d="M 57.6 41.472 
L 414.72 41.472 
" style="fill:none;stroke:#000000;stroke-linecap:square;stroke-linejoin:miter;stroke-width:0.8;"/>
   </g>
  </g>
 </g>
 <defs>
  <clipPath id="pbb122f691a">
   <rect height="266.112" width="357.12" x="57.6" y="41.472"/>
  </clipPath>
 </defs>
</svg>
